<?xml version="1.0" encoding="utf-8"?>
<!-- Generator: Adobe Illustrator 28.3.0, SVG Export Plug-In . SVG Version: 6.00 Build 0)  -->
<svg version="1.1" id="Layer_1" xmlns="http://www.w3.org/2000/svg" xmlns:xlink="http://www.w3.org/1999/xlink" x="0px" y="0px"
	 viewBox="0 0 128 128" style="enable-background:new 0 0 128 128;" xml:space="preserve">
<style type="text/css">
	.st0{fill:#2B623D;}
</style>
<g>
	<g>
		<path class="st0" d="M67.37,35.19c-0.39-0.18-0.99,0.01-1.31,0.13c-0.06,0.03-0.11-0.05-0.07-0.1c0.35-0.4,1.28-1.31,2.8-1.49
			c1.97-0.23,1.94,2.2,1.94,2.2s-0.03-0.18-0.47-0.52C69.84,35.08,67.92,35.45,67.37,35.19z"/>
		<path class="st0" d="M71.31,42.6c-0.32,0.15-0.64,0.3-0.96,0.45c-0.01,0-0.01,0.01-0.02,0.01c-0.57-0.58-1.11-1.41-1.56-2.58
			C68.87,40.68,69.49,41.9,71.31,42.6z"/>
		<path class="st0" d="M71.62,32.81c0.02,0.02,0,0.05-0.03,0.04c-2.74-0.94-5.92-0.09-6.74,0.16c-0.03,0.01-0.04-0.03-0.02-0.05
			C69.44,30.19,71.33,32.41,71.62,32.81z"/>
		<path class="st0" d="M88.61,23.2c-2.4-5.21-14.47-4.77-26.95,0.98c-12.49,5.75-20.66,14.64-18.26,19.85
			c1.43,3.11,6.29,4.21,12.62,3.37c1.67-0.22,3.44-0.57,5.28-1.06c-1.19-1.41-2-3.28-2.05-5.75c0,0-3.7-1.42-2.88-4.28
			c0.79-2.74,6.2,0.51,10.94-7.82c0.4-0.7,1.07-1.22,1.81-1.54c1.67-0.72,4.77-1.3,8.49,1.6c0.34,0.26,0.54,0.66,0.57,1.09
			c0.04,0.66,0.12,1.73,0.26,2.75c0.01,0.08,0.02,0.17,0.03,0.26c0,0-3.25-0.6-3.78,1.21c-0.54,1.81,0.54,4.7,0.51,5.3
			c-0.03,0.6-1.68,1.11-1.94,1.71c-0.13,0.3,0.62,0.26,1.39-0.02c0,0,0,0,0,0c0.38-0.21,0.75-0.43,1.12-0.65c0,0,0,0,0.01,0
			c0.29-0.26,0.48-0.58,0.46-0.94c-0.04-0.98-0.58-2.29-0.73-3.42c0.08,0.06,0.16,0.1,0.2,0.11c1.01,0.75,1.49,0.14,1.59,0
			c0.05-0.07,0.17,0,0.29,0.1c0.1,0.08,0.18,0.15,0.21,0.2c-0.04,0.22-0.05,0.42-0.02,0.58c0.07,0.42,0.24,1.11,0.36,1.89
			c0.71-0.48,1.4-0.96,2.06-1.45C86.76,32.33,90.29,26.86,88.61,23.2z M78.01,35.31c-0.86-0.8-2.52-0.48-2.52-0.48
			c0.03-0.17,0.07-0.32,0.14-0.47c0.61-1.27,2.76-0.65,2.76-0.65C78.31,34.28,78.15,34.82,78.01,35.31z"/>
		<path class="st0" d="M68.28,65.53c-1.48-0.1-2.03-0.18-2.03-0.18s0.01,0.03,0.03,0.08v0c0.14,0.41,0.79,2.28,2.14,4.12
			c0,0,0,0,0,0c0,0,0,0,0,0h0l1.61-3.93C69.34,65.59,68.76,65.56,68.28,65.53z M76.2,70.04c-1.06-0.87-2.29-1.69-3.5-2.03
			c0.61,0.16,2.04,0.59,3.5,1.36v-2.17c-0.7-0.38-1.34-0.82-1.9-1.35c-0.27-0.05-0.56-0.07-0.86-0.08c-1.36-0.04-2.48-0.09-3.4-0.13
			c-0.69-0.03-1.27-0.07-1.76-0.1c-1.48-0.1-2.03-0.18-2.03-0.18s0.01,0.03,0.03,0.08v0c0.14,0.41,0.79,2.28,2.14,4.12c0,0,0,0,0,0
			c0,0,0,0,0,0h0c0.62,0.84,1.39,1.69,2.32,2.38c1.3,0.96,2.92,1.64,4.89,1.64c0.86,0,1.8-0.13,2.81-0.43
			c0.03-0.29,0.07-0.57,0.11-0.84C78.05,71.75,77.2,70.87,76.2,70.04z M79.33,71.3L79.33,71.3c-0.06-0.27-0.14-0.59-0.26-0.94
			c-0.25-0.77-0.65-1.67-1.29-2.48c-0.27-0.34-0.59-0.66-0.95-0.95l0,0c-0.19-0.15-0.4-0.3-0.63-0.42c-0.2-0.11-0.41-0.22-0.64-0.31
			c0,0-0.01,0-0.01,0c-0.38-0.16-0.8-0.28-1.26-0.35c-0.27-0.05-0.56-0.07-0.86-0.08c-1.36-0.04-2.48-0.09-3.4-0.13
			c-0.69-0.03-1.27-0.07-1.76-0.1c-1.48-0.1-2.03-0.18-2.03-0.18s0.01,0.03,0.03,0.08v0c0.14,0.41,0.79,2.28,2.14,4.12c0,0,0,0,0,0
			c0,0,0,0,0,0h0c0.62,0.84,1.39,1.69,2.32,2.38c1.3,0.96,2.92,1.64,4.89,1.64c0.86,0,1.8-0.13,2.81-0.43
			c0.03-0.29,0.07-0.57,0.11-0.84c-0.52-0.57-1.36-1.45-2.36-2.28c-1.06-0.87-2.29-1.69-3.5-2.03c0.61,0.16,2.04,0.59,3.5,1.36
			c0.93,0.49,1.86,1.11,2.59,1.9c0.15,0.16,0.29,0.33,0.42,0.5c0.09,0.11,0.17,0.23,0.25,0.36C79.46,72.11,79.43,71.79,79.33,71.3z
			 M78.79,71.26c0.15,0.16,0.29,0.33,0.42,0.5c0.09,0.11,0.17,0.23,0.25,0.36c0,0-0.03-0.32-0.13-0.82v0
			c-0.06-0.27-0.14-0.59-0.26-0.94c-0.25-0.77-0.65-1.67-1.29-2.48c-0.27-0.34-0.59-0.66-0.95-0.95l0,0
			c-0.19-0.15-0.4-0.3-0.63-0.42c-0.2-0.11-0.41-0.22-0.64-0.31c0,0-0.01,0-0.01,0c-0.38-0.16-0.8-0.28-1.26-0.35
			c-0.27-0.05-0.56-0.07-0.86-0.08c-1.36-0.04-2.48-0.09-3.4-0.13c-0.69-0.03-1.27-0.07-1.76-0.1c-1.48-0.1-2.03-0.18-2.03-0.18
			s0.01,0.03,0.03,0.08v0c0.14,0.41,0.79,2.28,2.14,4.12c0,0,0,0,0,0c0,0,0,0,0,0h0c0.62,0.84,1.39,1.69,2.32,2.38
			c1.3,0.96,2.92,1.64,4.89,1.64c0.86,0,1.8-0.13,2.81-0.43c0.18-0.05,0.36-0.1,0.54-0.17c0.04-0.01,0.08-0.03,0.12-0.04
			c0,0-0.03-0.04-0.1-0.12c-0.09-0.11-0.24-0.29-0.45-0.51c-0.52-0.57-1.36-1.45-2.36-2.28c-1.06-0.87-2.29-1.69-3.5-2.03
			c0.61,0.16,2.04,0.59,3.5,1.36C77.13,69.85,78.06,70.47,78.79,71.26z M78.79,71.26c0.15,0.16,0.29,0.33,0.42,0.5
			c0.09,0.11,0.17,0.23,0.25,0.36c0,0-0.03-0.32-0.13-0.82v0c-0.06-0.27-0.14-0.59-0.26-0.94c-0.25-0.77-0.65-1.67-1.29-2.48
			c-0.27-0.34-0.59-0.66-0.95-0.95l0,0c-0.19-0.15-0.4-0.3-0.63-0.42c-0.2-0.11-0.41-0.22-0.64-0.31c0,0-0.01,0-0.01,0
			c-0.38-0.16-0.8-0.28-1.26-0.35c-0.27-0.05-0.56-0.07-0.86-0.08c-1.36-0.04-2.48-0.09-3.4-0.13c-0.69-0.03-1.27-0.07-1.76-0.1
			c-1.48-0.1-2.03-0.18-2.03-0.18s0.01,0.03,0.03,0.08v0c0.14,0.41,0.79,2.28,2.14,4.12c0,0,0,0,0,0c0,0,0,0,0,0h0
			c0.62,0.84,1.39,1.69,2.32,2.38c1.3,0.96,2.92,1.64,4.89,1.64c0.86,0,1.8-0.13,2.81-0.43c0.18-0.05,0.36-0.1,0.54-0.17
			c0.04-0.01,0.08-0.03,0.12-0.04c0,0-0.03-0.04-0.1-0.12c-0.09-0.11-0.24-0.29-0.45-0.51c-0.52-0.57-1.36-1.45-2.36-2.28
			c-1.06-0.87-2.29-1.69-3.5-2.03c0.61,0.16,2.04,0.59,3.5,1.36C77.13,69.85,78.06,70.47,78.79,71.26z M78.79,71.26
			c0.15,0.16,0.29,0.33,0.42,0.5c0.09,0.11,0.17,0.23,0.25,0.36c0,0-0.03-0.32-0.13-0.82v0c-0.06-0.27-0.14-0.59-0.26-0.94
			c-0.25-0.77-0.65-1.67-1.29-2.48c-0.27-0.34-0.59-0.66-0.95-0.95l0,0c-0.19-0.15-0.4-0.3-0.63-0.42c-0.2-0.11-0.41-0.22-0.64-0.31
			c0,0-0.01,0-0.01,0c-0.38-0.16-0.8-0.28-1.26-0.35c-0.27-0.05-0.56-0.07-0.86-0.08c-1.36-0.04-2.48-0.09-3.4-0.13
			c-0.69-0.03-1.27-0.07-1.76-0.1c-1.48-0.1-2.03-0.18-2.03-0.18s0.01,0.03,0.03,0.08v0c0.14,0.41,0.79,2.28,2.14,4.12c0,0,0,0,0,0
			c0,0,0,0,0,0h0c0.62,0.84,1.39,1.69,2.32,2.38c1.3,0.96,2.92,1.64,4.89,1.64c0.86,0,1.8-0.13,2.81-0.43
			c0.18-0.05,0.36-0.1,0.54-0.17c0.04-0.01,0.08-0.03,0.12-0.04c0,0-0.03-0.04-0.1-0.12c-0.09-0.11-0.24-0.29-0.45-0.51
			c-0.52-0.57-1.36-1.45-2.36-2.28c-1.06-0.87-2.29-1.69-3.5-2.03c0.61,0.16,2.04,0.59,3.5,1.36
			C77.13,69.85,78.06,70.47,78.79,71.26z M78.79,71.26c0.15,0.16,0.29,0.33,0.42,0.5c0.09,0.11,0.17,0.23,0.25,0.36
			c0,0-0.03-0.32-0.13-0.82v0c-0.06-0.27-0.14-0.59-0.26-0.94c-0.25-0.77-0.65-1.67-1.29-2.48c-0.27-0.34-0.59-0.66-0.95-0.95l0,0
			c-0.19-0.15-0.4-0.3-0.63-0.42c-0.2-0.11-0.41-0.22-0.64-0.31c0,0-0.01,0-0.01,0c-0.38-0.16-0.8-0.28-1.26-0.35
			c-0.27-0.05-0.56-0.07-0.86-0.08c-1.36-0.04-2.48-0.09-3.4-0.13c-0.69-0.03-1.27-0.07-1.76-0.1c-1.48-0.1-2.03-0.18-2.03-0.18
			s0.01,0.03,0.03,0.08v0c0.14,0.41,0.79,2.28,2.14,4.12c0,0,0,0,0,0c0,0,0,0,0,0h0c0.62,0.84,1.39,1.69,2.32,2.38
			c1.3,0.96,2.92,1.64,4.89,1.64c0.86,0,1.8-0.13,2.81-0.43c0.18-0.05,0.36-0.1,0.54-0.17c0.04-0.01,0.08-0.03,0.12-0.04
			c0,0-0.03-0.04-0.1-0.12c-0.09-0.11-0.24-0.29-0.45-0.51c-0.52-0.57-1.36-1.45-2.36-2.28c-1.06-0.87-2.29-1.69-3.5-2.03
			c0.61,0.16,2.04,0.59,3.5,1.36C77.13,69.85,78.06,70.47,78.79,71.26z M78.79,71.26c0.15,0.16,0.29,0.33,0.42,0.5
			c0.09,0.11,0.17,0.23,0.25,0.36c0,0-0.03-0.32-0.13-0.82v0c-0.06-0.27-0.14-0.59-0.26-0.94c-0.25-0.77-0.65-1.67-1.29-2.48
			c-0.27-0.34-0.59-0.66-0.95-0.95l0,0c-0.19-0.15-0.4-0.3-0.63-0.42c-0.2-0.11-0.41-0.22-0.64-0.31c0,0-0.01,0-0.01,0
			c-0.38-0.16-0.8-0.28-1.26-0.35c-0.27-0.05-0.56-0.07-0.86-0.08c-1.36-0.04-2.48-0.09-3.4-0.13c-0.69-0.03-1.27-0.07-1.76-0.1
			c-1.48-0.1-2.03-0.18-2.03-0.18s0.01,0.03,0.03,0.08v0c0.14,0.41,0.79,2.28,2.14,4.12c0,0,0,0,0,0c0,0,0,0,0,0h0
			c0.62,0.84,1.39,1.69,2.32,2.38c1.3,0.96,2.92,1.64,4.89,1.64c0.86,0,1.8-0.13,2.81-0.43c0.18-0.05,0.36-0.1,0.54-0.17
			c0.04-0.01,0.08-0.03,0.12-0.04c0,0-0.03-0.04-0.1-0.12c-0.09-0.11-0.24-0.29-0.45-0.51c-0.52-0.57-1.36-1.45-2.36-2.28
			c-1.06-0.87-2.29-1.69-3.5-2.03c0.61,0.16,2.04,0.59,3.5,1.36C77.13,69.85,78.06,70.47,78.79,71.26z M78.79,71.26
			c0.15,0.16,0.29,0.33,0.42,0.5c0.09,0.11,0.17,0.23,0.25,0.36c0,0-0.03-0.32-0.13-0.82v0c-0.06-0.27-0.14-0.59-0.26-0.94
			c-0.25-0.77-0.65-1.67-1.29-2.48c-0.27-0.34-0.59-0.66-0.95-0.95l0,0c-0.19-0.15-0.4-0.3-0.63-0.42c-0.2-0.11-0.41-0.22-0.64-0.31
			c0,0-0.01,0-0.01,0c-0.38-0.16-0.8-0.28-1.26-0.35c-0.27-0.05-0.56-0.07-0.86-0.08c-1.36-0.04-2.48-0.09-3.4-0.13
			c-0.69-0.03-1.27-0.07-1.76-0.1c-1.48-0.1-2.03-0.18-2.03-0.18s0.01,0.03,0.03,0.08v0c0.14,0.41,0.79,2.28,2.14,4.12c0,0,0,0,0,0
			c0,0,0,0,0,0h0c0.62,0.84,1.39,1.69,2.32,2.38c1.3,0.96,2.92,1.64,4.89,1.64c0.86,0,1.8-0.13,2.81-0.43
			c0.18-0.05,0.36-0.1,0.54-0.17c0.04-0.01,0.08-0.03,0.12-0.04c0,0-0.03-0.04-0.1-0.12c-0.09-0.11-0.24-0.29-0.45-0.51
			c-0.52-0.57-1.36-1.45-2.36-2.28c-1.06-0.87-2.29-1.69-3.5-2.03c0.61,0.16,2.04,0.59,3.5,1.36
			C77.13,69.85,78.06,70.47,78.79,71.26z M78.79,71.26c0.15,0.16,0.29,0.33,0.42,0.5c0.09,0.11,0.17,0.23,0.25,0.36
			c0,0-0.03-0.32-0.13-0.82v0c-0.06-0.27-0.14-0.59-0.26-0.94c-0.25-0.77-0.65-1.67-1.29-2.48c-0.27-0.34-0.59-0.66-0.95-0.95l0,0
			c-0.19-0.15-0.4-0.3-0.63-0.42c-0.2-0.11-0.41-0.22-0.64-0.31c0,0-0.01,0-0.01,0c-0.38-0.16-0.8-0.28-1.26-0.35
			c-0.27-0.05-0.56-0.07-0.86-0.08c-1.36-0.04-2.48-0.09-3.4-0.13c-0.69-0.03-1.27-0.07-1.76-0.1c-1.48-0.1-2.03-0.18-2.03-0.18
			s0.01,0.03,0.03,0.08v0c0.14,0.41,0.79,2.28,2.14,4.12c0,0,0,0,0,0c0,0,0,0,0,0h0c0.62,0.84,1.39,1.69,2.32,2.38
			c1.3,0.96,2.92,1.64,4.89,1.64c0.86,0,1.8-0.13,2.81-0.43c0.18-0.05,0.36-0.1,0.54-0.17c0.04-0.01,0.08-0.03,0.12-0.04
			c0,0-0.03-0.04-0.1-0.12c-0.09-0.11-0.24-0.29-0.45-0.51c-0.52-0.57-1.36-1.45-2.36-2.28c-1.06-0.87-2.29-1.69-3.5-2.03
			c0.61,0.16,2.04,0.59,3.5,1.36C77.13,69.85,78.06,70.47,78.79,71.26z M78.79,71.26c0.15,0.16,0.29,0.33,0.42,0.5
			c0.09,0.11,0.17,0.23,0.25,0.36c0,0-0.03-0.32-0.13-0.82v0c-0.06-0.27-0.14-0.59-0.26-0.94c-0.25-0.77-0.65-1.67-1.29-2.48
			c-0.27-0.34-0.59-0.66-0.95-0.95l0,0c-0.19-0.15-0.4-0.3-0.63-0.42c-0.2-0.11-0.41-0.22-0.64-0.31c0,0-0.01,0-0.01,0
			c-0.38-0.16-0.8-0.28-1.26-0.35c-0.27-0.05-0.56-0.07-0.86-0.08c-1.36-0.04-2.48-0.09-3.4-0.13c-0.69-0.03-1.27-0.07-1.76-0.1
			c-1.48-0.1-2.03-0.18-2.03-0.18s0.01,0.03,0.03,0.08v0c0.14,0.41,0.79,2.28,2.14,4.12c0,0,0,0,0,0c0,0,0,0,0,0h0
			c0.62,0.84,1.39,1.69,2.32,2.38c1.3,0.96,2.92,1.64,4.89,1.64c0.86,0,1.8-0.13,2.81-0.43c0.18-0.05,0.36-0.1,0.54-0.17
			c0.04-0.01,0.08-0.03,0.12-0.04c0,0-0.03-0.04-0.1-0.12c-0.09-0.11-0.24-0.29-0.45-0.51c-0.52-0.57-1.36-1.45-2.36-2.28
			c-1.06-0.87-2.29-1.69-3.5-2.03c0.61,0.16,2.04,0.59,3.5,1.36C77.13,69.85,78.06,70.47,78.79,71.26z M78.79,71.26
			c0.15,0.16,0.29,0.33,0.42,0.5c0.09,0.11,0.17,0.23,0.25,0.36c0,0-0.03-0.32-0.13-0.82v0c-0.06-0.27-0.14-0.59-0.26-0.94
			c-0.25-0.77-0.65-1.67-1.29-2.48c-0.27-0.34-0.59-0.66-0.95-0.95l0,0c-0.19-0.15-0.4-0.3-0.63-0.42c-0.2-0.11-0.41-0.22-0.64-0.31
			c0,0-0.01,0-0.01,0c-0.38-0.16-0.8-0.28-1.26-0.35c-0.27-0.05-0.56-0.07-0.86-0.08c-1.36-0.04-2.48-0.09-3.4-0.13
			c-0.69-0.03-1.27-0.07-1.76-0.1c-1.48-0.1-2.03-0.18-2.03-0.18s0.01,0.03,0.03,0.08v0c0.14,0.41,0.79,2.28,2.14,4.12c0,0,0,0,0,0
			c0,0,0,0,0,0h0c0.62,0.84,1.39,1.69,2.32,2.38c1.3,0.96,2.92,1.64,4.89,1.64c0.86,0,1.8-0.13,2.81-0.43
			c0.18-0.05,0.36-0.1,0.54-0.17c0.04-0.01,0.08-0.03,0.12-0.04c0,0-0.03-0.04-0.1-0.12c-0.09-0.11-0.24-0.29-0.45-0.51
			c-0.52-0.57-1.36-1.45-2.36-2.28c-1.06-0.87-2.29-1.69-3.5-2.03c0.61,0.16,2.04,0.59,3.5,1.36
			C77.13,69.85,78.06,70.47,78.79,71.26z M78.79,71.26c0.15,0.16,0.29,0.33,0.42,0.5c0.09,0.11,0.17,0.23,0.25,0.36
			c0,0-0.03-0.32-0.13-0.82v0c-0.06-0.27-0.14-0.59-0.26-0.94c-0.25-0.77-0.65-1.67-1.29-2.48c-0.27-0.34-0.59-0.66-0.95-0.95l0,0
			c-0.19-0.15-0.4-0.3-0.63-0.42c-0.2-0.11-0.41-0.22-0.64-0.31c0,0-0.01,0-0.01,0c-0.38-0.16-0.8-0.28-1.26-0.35
			c-0.27-0.05-0.56-0.07-0.86-0.08c-1.36-0.04-2.48-0.09-3.4-0.13c-0.69-0.03-1.27-0.07-1.76-0.1c-1.48-0.1-2.03-0.18-2.03-0.18
			s0.01,0.03,0.03,0.08v0c0.14,0.41,0.79,2.28,2.14,4.12c0,0,0,0,0,0c0,0,0,0,0,0h0c0.62,0.84,1.39,1.69,2.32,2.38
			c1.3,0.96,2.92,1.64,4.89,1.64c0.86,0,1.8-0.13,2.81-0.43c0.18-0.05,0.36-0.1,0.54-0.17c0.04-0.01,0.08-0.03,0.12-0.04
			c0,0-0.03-0.04-0.1-0.12c-0.09-0.11-0.24-0.29-0.45-0.51c-0.52-0.57-1.36-1.45-2.36-2.28c-1.06-0.87-2.29-1.69-3.5-2.03
			c0.61,0.16,2.04,0.59,3.5,1.36C77.13,69.85,78.06,70.47,78.79,71.26z M78.79,71.26c0.15,0.16,0.29,0.33,0.42,0.5
			c0.09,0.11,0.17,0.23,0.25,0.36c0,0-0.03-0.32-0.13-0.82v0c-0.06-0.27-0.14-0.59-0.26-0.94c-0.25-0.77-0.65-1.67-1.29-2.48
			c-0.27-0.34-0.59-0.66-0.95-0.95l0,0c-0.19-0.15-0.4-0.3-0.63-0.42c-0.2-0.11-0.41-0.22-0.64-0.31c0,0-0.01,0-0.01,0
			c-0.38-0.16-0.8-0.28-1.26-0.35c-0.27-0.05-0.56-0.07-0.86-0.08c-1.36-0.04-2.48-0.09-3.4-0.13c-0.69-0.03-1.27-0.07-1.76-0.1
			c-1.48-0.1-2.03-0.18-2.03-0.18s0.01,0.03,0.03,0.08v0c0.14,0.41,0.79,2.28,2.14,4.12c0,0,0,0,0,0c0,0,0,0,0,0h0
			c0.62,0.84,1.39,1.69,2.32,2.38c1.3,0.96,2.92,1.64,4.89,1.64c0.86,0,1.8-0.13,2.81-0.43c0.18-0.05,0.36-0.1,0.54-0.17
			c0.04-0.01,0.08-0.03,0.12-0.04c0,0-0.03-0.04-0.1-0.12c-0.09-0.11-0.24-0.29-0.45-0.51c-0.52-0.57-1.36-1.45-2.36-2.28
			c-1.06-0.87-2.29-1.69-3.5-2.03c0.61,0.16,2.04,0.59,3.5,1.36C77.13,69.85,78.06,70.47,78.79,71.26z M78.79,71.26
			c0.15,0.16,0.29,0.33,0.42,0.5c0.09,0.11,0.17,0.23,0.25,0.36c0,0-0.03-0.32-0.13-0.82v0c-0.06-0.27-0.14-0.59-0.26-0.94
			c-0.25-0.77-0.65-1.67-1.29-2.48c-0.27-0.34-0.59-0.66-0.95-0.95l0,0c-0.19-0.15-0.4-0.3-0.63-0.42c-0.2-0.11-0.41-0.22-0.64-0.31
			c0,0-0.01,0-0.01,0c-0.38-0.16-0.8-0.28-1.26-0.35c-0.27-0.05-0.56-0.07-0.86-0.08c-1.36-0.04-2.48-0.09-3.4-0.13
			c-0.69-0.03-1.27-0.07-1.76-0.1c-1.48-0.1-2.03-0.18-2.03-0.18s0.01,0.03,0.03,0.08v0c0.14,0.41,0.79,2.28,2.14,4.12c0,0,0,0,0,0
			c0,0,0,0,0,0h0c0.62,0.84,1.39,1.69,2.32,2.38c1.3,0.96,2.92,1.64,4.89,1.64c0.86,0,1.8-0.13,2.81-0.43
			c0.18-0.05,0.36-0.1,0.54-0.17c0.04-0.01,0.08-0.03,0.12-0.04c0,0-0.03-0.04-0.1-0.12c-0.09-0.11-0.24-0.29-0.45-0.51
			c-0.52-0.57-1.36-1.45-2.36-2.28c-1.06-0.87-2.29-1.69-3.5-2.03c0.61,0.16,2.04,0.59,3.5,1.36
			C77.13,69.85,78.06,70.47,78.79,71.26z M76.2,65.92c-0.13-0.07-0.26-0.13-0.4-0.19c0.13,0.09,0.26,0.18,0.4,0.26
			c0.28,0.18,0.57,0.34,0.88,0.49C76.82,66.27,76.52,66.08,76.2,65.92z M78.79,71.26c0.15,0.16,0.29,0.33,0.42,0.5
			c0.09,0.11,0.17,0.23,0.25,0.36c0,0-0.03-0.32-0.13-0.82v0c-0.06-0.27-0.14-0.59-0.26-0.94c-0.25-0.77-0.65-1.67-1.29-2.48
			c-0.27-0.34-0.59-0.66-0.95-0.95l0,0c-0.19-0.15-0.4-0.3-0.63-0.42c-0.2-0.11-0.41-0.22-0.64-0.31c0,0-0.01,0-0.01,0
			c-0.38-0.16-0.8-0.28-1.26-0.35c-0.27-0.05-0.56-0.07-0.86-0.08c-1.36-0.04-2.48-0.09-3.4-0.13c-0.69-0.03-1.27-0.07-1.76-0.1
			c-1.48-0.1-2.03-0.18-2.03-0.18s0.01,0.03,0.03,0.08v0c0.14,0.41,0.79,2.28,2.14,4.12c0,0,0,0,0,0c0,0,0,0,0,0h0
			c0.62,0.84,1.39,1.69,2.32,2.38c1.3,0.96,2.92,1.64,4.89,1.64c0.86,0,1.8-0.13,2.81-0.43c0.18-0.05,0.36-0.1,0.54-0.17
			c0.04-0.01,0.08-0.03,0.12-0.04c0,0-0.03-0.04-0.1-0.12c-0.09-0.11-0.24-0.29-0.45-0.51c-0.52-0.57-1.36-1.45-2.36-2.28
			c-1.06-0.87-2.29-1.69-3.5-2.03c0.61,0.16,2.04,0.59,3.5,1.36C77.13,69.85,78.06,70.47,78.79,71.26z M76.2,65.92
			c-0.13-0.07-0.26-0.13-0.4-0.19c0.13,0.09,0.26,0.18,0.4,0.26c0.28,0.18,0.57,0.34,0.88,0.49C76.82,66.27,76.52,66.08,76.2,65.92z
			 M78.79,71.26c0.15,0.16,0.29,0.33,0.42,0.5c0.09,0.11,0.17,0.23,0.25,0.36c0,0-0.03-0.32-0.13-0.82v0
			c-0.06-0.27-0.14-0.59-0.26-0.94c-0.25-0.77-0.65-1.67-1.29-2.48c-0.27-0.34-0.59-0.66-0.95-0.95l0,0
			c-0.19-0.15-0.4-0.3-0.63-0.42c-0.2-0.11-0.41-0.22-0.64-0.31c0,0-0.01,0-0.01,0c-0.38-0.16-0.8-0.28-1.26-0.35
			c-0.27-0.05-0.56-0.07-0.86-0.08c-1.36-0.04-2.48-0.09-3.4-0.13c-0.69-0.03-1.27-0.07-1.76-0.1c-1.48-0.1-2.03-0.18-2.03-0.18
			s0.01,0.03,0.03,0.08v0c0.14,0.41,0.79,2.28,2.14,4.12c0,0,0,0,0,0c0,0,0,0,0,0h0c0.62,0.84,1.39,1.69,2.32,2.38
			c1.3,0.96,2.92,1.64,4.89,1.64c0.86,0,1.8-0.13,2.81-0.43c0.18-0.05,0.36-0.1,0.54-0.17c0.04-0.01,0.08-0.03,0.12-0.04
			c0,0-0.03-0.04-0.1-0.12c-0.09-0.11-0.24-0.29-0.45-0.51c-0.52-0.57-1.36-1.45-2.36-2.28c-1.06-0.87-2.29-1.69-3.5-2.03
			c0.61,0.16,2.04,0.59,3.5,1.36C77.13,69.85,78.06,70.47,78.79,71.26z M76.2,65.92c-0.13-0.07-0.26-0.13-0.4-0.19
			c0.13,0.09,0.26,0.18,0.4,0.26c0.28,0.18,0.57,0.34,0.88,0.49C76.82,66.27,76.52,66.08,76.2,65.92z M78.79,71.26
			c0.15,0.16,0.29,0.33,0.42,0.5c0.09,0.11,0.17,0.23,0.25,0.36c0,0-0.03-0.32-0.13-0.82v0c-0.06-0.27-0.14-0.59-0.26-0.94
			c-0.25-0.77-0.65-1.67-1.29-2.48c-0.27-0.34-0.59-0.66-0.95-0.95l0,0c-0.19-0.15-0.4-0.3-0.63-0.42c-0.2-0.11-0.41-0.22-0.64-0.31
			c0,0-0.01,0-0.01,0c-0.38-0.16-0.8-0.28-1.26-0.35c-0.27-0.05-0.56-0.07-0.86-0.08c-1.36-0.04-2.48-0.09-3.4-0.13
			c-0.69-0.03-1.27-0.07-1.76-0.1c-1.48-0.1-2.03-0.18-2.03-0.18s0.01,0.03,0.03,0.08v0c0.14,0.41,0.79,2.28,2.14,4.12c0,0,0,0,0,0
			c0,0,0,0,0,0h0c0.62,0.84,1.39,1.69,2.32,2.38c1.3,0.96,2.92,1.64,4.89,1.64c0.86,0,1.8-0.13,2.81-0.43
			c0.18-0.05,0.36-0.1,0.54-0.17c0.04-0.01,0.08-0.03,0.12-0.04c0,0-0.03-0.04-0.1-0.12c-0.09-0.11-0.24-0.29-0.45-0.51
			c-0.52-0.57-1.36-1.45-2.36-2.28c-1.06-0.87-2.29-1.69-3.5-2.03c0.61,0.16,2.04,0.59,3.5,1.36
			C77.13,69.85,78.06,70.47,78.79,71.26z M76.2,65.92c-0.13-0.07-0.26-0.13-0.4-0.19c0.13,0.09,0.26,0.18,0.4,0.26
			c0.28,0.18,0.57,0.34,0.88,0.49C76.82,66.27,76.52,66.08,76.2,65.92z M78.79,71.26c0.15,0.16,0.29,0.33,0.42,0.5
			c0.09,0.11,0.17,0.23,0.25,0.36c0,0-0.03-0.32-0.13-0.82v0c-0.06-0.27-0.14-0.59-0.26-0.94c-0.25-0.77-0.65-1.67-1.29-2.48
			c-0.27-0.34-0.59-0.66-0.95-0.95l0,0c-0.19-0.15-0.4-0.3-0.63-0.42c-0.2-0.11-0.41-0.22-0.64-0.31c0,0-0.01,0-0.01,0
			c-0.38-0.16-0.8-0.28-1.26-0.35c-0.27-0.05-0.56-0.07-0.86-0.08c-1.36-0.04-2.48-0.09-3.4-0.13c-0.69-0.03-1.27-0.07-1.76-0.1
			c-1.48-0.1-2.03-0.18-2.03-0.18s0.01,0.03,0.03,0.08v0c0.14,0.41,0.79,2.28,2.14,4.12c0,0,0,0,0,0c0,0,0,0,0,0h0
			c0.62,0.84,1.39,1.69,2.32,2.38c1.3,0.96,2.92,1.64,4.89,1.64c0.86,0,1.8-0.13,2.81-0.43c0.18-0.05,0.36-0.1,0.54-0.17
			c0.04-0.01,0.08-0.03,0.12-0.04c0,0-0.03-0.04-0.1-0.12c-0.09-0.11-0.24-0.29-0.45-0.51c-0.52-0.57-1.36-1.45-2.36-2.28
			c-1.06-0.87-2.29-1.69-3.5-2.03c0.61,0.16,2.04,0.59,3.5,1.36C77.13,69.85,78.06,70.47,78.79,71.26z M76.2,65.92
			c-0.13-0.07-0.26-0.13-0.4-0.19c0.13,0.09,0.26,0.18,0.4,0.26c0.28,0.18,0.57,0.34,0.88,0.49C76.82,66.27,76.52,66.08,76.2,65.92z
			 M78.79,71.26c0.15,0.16,0.29,0.33,0.42,0.5c0.09,0.11,0.17,0.23,0.25,0.36c0,0-0.03-0.32-0.13-0.82v0
			c-0.06-0.27-0.14-0.59-0.26-0.94c-0.25-0.77-0.65-1.67-1.29-2.48c-0.27-0.34-0.59-0.66-0.95-0.95l0,0
			c-0.19-0.15-0.4-0.3-0.63-0.42c-0.2-0.11-0.41-0.22-0.64-0.31c0,0-0.01,0-0.01,0c-0.38-0.16-0.8-0.28-1.26-0.35
			c-0.27-0.05-0.56-0.07-0.86-0.08c-1.36-0.04-2.48-0.09-3.4-0.13c-0.69-0.03-1.27-0.07-1.76-0.1c-1.48-0.1-2.03-0.18-2.03-0.18
			s0.01,0.03,0.03,0.08v0c0.14,0.41,0.79,2.28,2.14,4.12c0,0,0,0,0,0c0,0,0,0,0,0h0c0.62,0.84,1.39,1.69,2.32,2.38
			c1.3,0.96,2.92,1.64,4.89,1.64c0.86,0,1.8-0.13,2.81-0.43c0.18-0.05,0.36-0.1,0.54-0.17c0.04-0.01,0.08-0.03,0.12-0.04
			c0,0-0.03-0.04-0.1-0.12c-0.09-0.11-0.24-0.29-0.45-0.51c-0.52-0.57-1.36-1.45-2.36-2.28c-1.06-0.87-2.29-1.69-3.5-2.03
			c0.61,0.16,2.04,0.59,3.5,1.36C77.13,69.85,78.06,70.47,78.79,71.26z M76.2,65.92c-0.13-0.07-0.26-0.13-0.4-0.19
			c0.13,0.09,0.26,0.18,0.4,0.26c0.28,0.18,0.57,0.34,0.88,0.49C76.82,66.27,76.52,66.08,76.2,65.92z M68.79,33.74
			c-1.52,0.18-2.46,1.08-2.8,1.49c-0.04,0.05,0.01,0.12,0.07,0.1c0.32-0.13,0.92-0.32,1.31-0.13c0.55,0.26,2.46-0.12,2.9,0.23
			c0.44,0.35,0.47,0.52,0.47,0.52S70.76,33.51,68.79,33.74z M71.31,42.6c-1.83-0.7-2.45-1.92-2.54-2.12c0.45,1.17,0.99,2,1.56,2.58
			c2.61,2.61,6-0.13,6-0.13C74.07,43.27,72.46,43.04,71.31,42.6z M71.62,32.81c-0.29-0.41-2.18-2.62-6.79,0.15
			c-0.03,0.01-0.01,0.06,0.02,0.05c0.82-0.25,4.01-1.1,6.74-0.16C71.62,32.86,71.64,32.83,71.62,32.81z M72.8,45.69
			c-0.57-0.02-1.03-0.16-1.33-0.27c0.04,0.07,0.65,1.16,1.3,1.18c0.62,0.02,1.17-0.44,1.3-1.06C73.77,45.62,73.33,45.71,72.8,45.69z
			 M71.31,42.6c-1.83-0.7-2.45-1.92-2.54-2.12c0.45,1.17,0.99,2,1.56,2.58c2.61,2.61,6-0.13,6-0.13
			C74.07,43.27,72.46,43.04,71.31,42.6z M72.8,45.69c-0.57-0.02-1.03-0.16-1.33-0.27c0.04,0.07,0.65,1.16,1.3,1.18
			c0.62,0.02,1.17-0.44,1.3-1.06C73.77,45.62,73.33,45.71,72.8,45.69z M71.62,32.81c-0.29-0.41-2.18-2.62-6.79,0.15
			c-0.03,0.01-0.01,0.06,0.02,0.05c0.82-0.25,4.01-1.1,6.74-0.16C71.62,32.86,71.64,32.83,71.62,32.81z M68.79,33.74
			c-1.52,0.18-2.46,1.08-2.8,1.49c-0.04,0.05,0.01,0.12,0.07,0.1c0.32-0.13,0.92-0.32,1.31-0.13c0.55,0.26,2.46-0.12,2.9,0.23
			c0.44,0.35,0.47,0.52,0.47,0.52S70.76,33.51,68.79,33.74z M68.79,33.74c-1.52,0.18-2.46,1.08-2.8,1.49
			c-0.04,0.05,0.01,0.12,0.07,0.1c0.32-0.13,0.92-0.32,1.31-0.13c0.55,0.26,2.46-0.12,2.9,0.23c0.44,0.35,0.47,0.52,0.47,0.52
			S70.76,33.51,68.79,33.74z M71.31,42.6c-1.83-0.7-2.45-1.92-2.54-2.12c0.45,1.17,0.99,2,1.56,2.58c2.61,2.61,6-0.13,6-0.13
			C74.07,43.27,72.46,43.04,71.31,42.6z M71.62,32.81c-0.29-0.41-2.18-2.62-6.79,0.15c-0.03,0.01-0.01,0.06,0.02,0.05
			c0.82-0.25,4.01-1.1,6.74-0.16C71.62,32.86,71.64,32.83,71.62,32.81z M72.8,45.69c-0.57-0.02-1.03-0.16-1.33-0.27
			c0.04,0.07,0.65,1.16,1.3,1.18c0.62,0.02,1.17-0.44,1.3-1.06C73.77,45.62,73.33,45.71,72.8,45.69z M71.31,42.6
			c-1.83-0.7-2.45-1.92-2.54-2.12c0.45,1.17,0.99,2,1.56,2.58c2.61,2.61,6-0.13,6-0.13C74.07,43.27,72.46,43.04,71.31,42.6z
			 M72.8,45.69c-0.57-0.02-1.03-0.16-1.33-0.27c0.04,0.07,0.65,1.16,1.3,1.18c0.62,0.02,1.17-0.44,1.3-1.06
			C73.77,45.62,73.33,45.71,72.8,45.69z M71.62,32.81c-0.29-0.41-2.18-2.62-6.79,0.15c-0.03,0.01-0.01,0.06,0.02,0.05
			c0.82-0.25,4.01-1.1,6.74-0.16C71.62,32.86,71.64,32.83,71.62,32.81z M68.79,33.74c-1.52,0.18-2.46,1.08-2.8,1.49
			c-0.04,0.05,0.01,0.12,0.07,0.1c0.32-0.13,0.92-0.32,1.31-0.13c0.55,0.26,2.46-0.12,2.9,0.23c0.44,0.35,0.47,0.52,0.47,0.52
			S70.76,33.51,68.79,33.74z M68.79,33.74c-1.52,0.18-2.46,1.08-2.8,1.49c-0.04,0.05,0.01,0.12,0.07,0.1
			c0.32-0.13,0.92-0.32,1.31-0.13c0.55,0.26,2.46-0.12,2.9,0.23c0.44,0.35,0.47,0.52,0.47,0.52S70.76,33.51,68.79,33.74z
			 M71.62,32.81c-0.29-0.41-2.18-2.62-6.79,0.15c-0.03,0.01-0.01,0.06,0.02,0.05c0.82-0.25,4.01-1.1,6.74-0.16
			C71.62,32.86,71.64,32.83,71.62,32.81z M72.8,45.69c-0.57-0.02-1.03-0.16-1.33-0.27c0.04,0.07,0.65,1.16,1.3,1.18
			c0.62,0.02,1.17-0.44,1.3-1.06C73.77,45.62,73.33,45.71,72.8,45.69z M71.31,42.6c-1.83-0.7-2.45-1.92-2.54-2.12
			c0.45,1.17,0.99,2,1.56,2.58c2.61,2.61,6-0.13,6-0.13C74.07,43.27,72.46,43.04,71.31,42.6z M71.31,42.6
			c-1.83-0.7-2.45-1.92-2.54-2.12c0.45,1.17,0.99,2,1.56,2.58c2.61,2.61,6-0.13,6-0.13C74.07,43.27,72.46,43.04,71.31,42.6z
			 M72.8,45.69c-0.57-0.02-1.03-0.16-1.33-0.27c0.04,0.07,0.65,1.16,1.3,1.18c0.62,0.02,1.17-0.44,1.3-1.06
			C73.77,45.62,73.33,45.71,72.8,45.69z M71.62,32.81c-0.29-0.41-2.18-2.62-6.79,0.15c-0.03,0.01-0.01,0.06,0.02,0.05
			c0.82-0.25,4.01-1.1,6.74-0.16C71.62,32.86,71.64,32.83,71.62,32.81z M68.79,33.74c-1.52,0.18-2.46,1.08-2.8,1.49
			c-0.04,0.05,0.01,0.12,0.07,0.1c0.32-0.13,0.92-0.32,1.31-0.13c0.55,0.26,2.46-0.12,2.9,0.23c0.44,0.35,0.47,0.52,0.47,0.52
			S70.76,33.51,68.79,33.74z M68.79,33.74c-1.52,0.18-2.46,1.08-2.8,1.49c-0.04,0.05,0.01,0.12,0.07,0.1
			c0.32-0.13,0.92-0.32,1.31-0.13c0.55,0.26,2.46-0.12,2.9,0.23c0.44,0.35,0.47,0.52,0.47,0.52S70.76,33.51,68.79,33.74z
			 M71.62,32.81c-0.29-0.41-2.18-2.62-6.79,0.15c-0.03,0.01-0.01,0.06,0.02,0.05c0.82-0.25,4.01-1.1,6.74-0.16
			C71.62,32.86,71.64,32.83,71.62,32.81z M72.8,45.69c-0.57-0.02-1.03-0.16-1.33-0.27c0.04,0.07,0.65,1.16,1.3,1.18
			c0.62,0.02,1.17-0.44,1.3-1.06C73.77,45.62,73.33,45.71,72.8,45.69z M71.31,42.6c-1.83-0.7-2.45-1.92-2.54-2.12
			c0.45,1.17,0.99,2,1.56,2.58c2.61,2.61,6-0.13,6-0.13C74.07,43.27,72.46,43.04,71.31,42.6z M71.31,42.6
			c-1.83-0.7-2.45-1.92-2.54-2.12c0.45,1.17,0.99,2,1.56,2.58c2.61,2.61,6-0.13,6-0.13C74.07,43.27,72.46,43.04,71.31,42.6z
			 M72.8,45.69c-0.57-0.02-1.03-0.16-1.33-0.27c0.04,0.07,0.65,1.16,1.3,1.18c0.62,0.02,1.17-0.44,1.3-1.06
			C73.77,45.62,73.33,45.71,72.8,45.69z M71.62,32.81c-0.29-0.41-2.18-2.62-6.79,0.15c-0.03,0.01-0.01,0.06,0.02,0.05
			c0.82-0.25,4.01-1.1,6.74-0.16C71.62,32.86,71.64,32.83,71.62,32.81z M68.79,33.74c-1.52,0.18-2.46,1.08-2.8,1.49
			c-0.04,0.05,0.01,0.12,0.07,0.1c0.32-0.13,0.92-0.32,1.31-0.13c0.55,0.26,2.46-0.12,2.9,0.23c0.44,0.35,0.47,0.52,0.47,0.52
			S70.76,33.51,68.79,33.74z M68.79,33.74c-1.52,0.18-2.46,1.08-2.8,1.49c-0.04,0.05,0.01,0.12,0.07,0.1
			c0.32-0.13,0.92-0.32,1.31-0.13c0.55,0.26,2.46-0.12,2.9,0.23c0.44,0.35,0.47,0.52,0.47,0.52S70.76,33.51,68.79,33.74z
			 M71.62,32.81c-0.29-0.41-2.18-2.62-6.79,0.15c-0.03,0.01-0.01,0.06,0.02,0.05c0.82-0.25,4.01-1.1,6.74-0.16
			C71.62,32.86,71.64,32.83,71.62,32.81z M72.8,45.69c-0.57-0.02-1.03-0.16-1.33-0.27c0.04,0.07,0.65,1.16,1.3,1.18
			c0.62,0.02,1.17-0.44,1.3-1.06C73.77,45.62,73.33,45.71,72.8,45.69z M71.31,42.6c-1.83-0.7-2.45-1.92-2.54-2.12
			c0.45,1.17,0.99,2,1.56,2.58c2.61,2.61,6-0.13,6-0.13C74.07,43.27,72.46,43.04,71.31,42.6z M71.31,42.6
			c-1.83-0.7-2.45-1.92-2.54-2.12c0.45,1.17,0.99,2,1.56,2.58c2.61,2.61,6-0.13,6-0.13C74.07,43.27,72.46,43.04,71.31,42.6z
			 M72.8,45.69c-0.57-0.02-1.03-0.16-1.33-0.27c0.04,0.07,0.65,1.16,1.3,1.18c0.62,0.02,1.17-0.44,1.3-1.06
			C73.77,45.62,73.33,45.71,72.8,45.69z M71.62,32.81c-0.29-0.41-2.18-2.62-6.79,0.15c-0.03,0.01-0.01,0.06,0.02,0.05
			c0.82-0.25,4.01-1.1,6.74-0.16C71.62,32.86,71.64,32.83,71.62,32.81z M68.79,33.74c-1.52,0.18-2.46,1.08-2.8,1.49
			c-0.04,0.05,0.01,0.12,0.07,0.1c0.32-0.13,0.92-0.32,1.31-0.13c0.55,0.26,2.46-0.12,2.9,0.23c0.44,0.35,0.47,0.52,0.47,0.52
			S70.76,33.51,68.79,33.74z M76.36,89.08c10.8,1,18.75-1.76,18.75-1.76l0.49-3.77c-4.98,0.61-10.03,0.91-15.03,0.91h-0.28
			c-4.91-0.01-9.87-0.32-14.75-0.91l0.65,5.01c0.9-0.55,1.79-1.05,2.43-1.58c1.57-1.27,2.24-1.89,2.24-1.89s0.34,0.16,0.47,1.04
			c0.13,0.88-1.6,2.65-2.87,3.98c-1.27,1.34-0.98,1.6-0.98,1.6c2.48,3.95,10.45,3.43,9.57,4.48c-0.88,1.04-6.69,0.33-6.69,0.33
			c1.93,1.63,7.25,1.63,5.72,2.22c-1.54,0.59-6.24-0.03-6.24-0.03c1.14,0.82,3.98,1.18,4.8,1.04c0.82-0.13,1.37,0.2,0.95,0.49
			c-2.51,1.13-5.31,1.13-7.78,0.72l0.13,1c0.13,1,0.95,1.8,2,1.94c1.13,0.15,2.26,0.24,3.39,0.39c2.43,0.34,4.87,0.51,7.32,0.51
			c1.72,0,3.43-0.08,5.13-0.25c3.34-3.02,5.88-6.54,7.7-9.63c-6.73,1.6-11.98,0.45-14.68-0.46c-0.33-0.11-0.23-0.6,0.12-0.57
			c8.4,0.78,14.72-1.17,15.55-1.43v0l0.31-2.39c-8.52,2.26-15.18,0.82-18.54-0.32C75.81,89.62,75.94,89.04,76.36,89.08z
			 M68.79,33.74c-1.52,0.18-2.46,1.08-2.8,1.49c-0.04,0.05,0.01,0.12,0.07,0.1c0.32-0.13,0.92-0.32,1.31-0.13
			c0.55,0.26,2.46-0.12,2.9,0.23c0.44,0.35,0.47,0.52,0.47,0.52S70.76,33.51,68.79,33.74z M71.62,32.81
			c-0.29-0.41-2.18-2.62-6.79,0.15c-0.03,0.01-0.01,0.06,0.02,0.05c0.82-0.25,4.01-1.1,6.74-0.16
			C71.62,32.86,71.64,32.83,71.62,32.81z M72.8,45.69c-0.57-0.02-1.03-0.16-1.33-0.27c0.04,0.07,0.65,1.16,1.3,1.18
			c0.62,0.02,1.17-0.44,1.3-1.06C73.77,45.62,73.33,45.71,72.8,45.69z M71.31,42.6c-1.83-0.7-2.45-1.92-2.54-2.12
			c0.45,1.17,0.99,2,1.56,2.58c2.61,2.61,6-0.13,6-0.13C74.07,43.27,72.46,43.04,71.31,42.6z M71.31,42.6
			c-1.83-0.7-2.45-1.92-2.54-2.12c0.45,1.17,0.99,2,1.56,2.58c2.61,2.61,6-0.13,6-0.13C74.07,43.27,72.46,43.04,71.31,42.6z
			 M72.8,45.69c-0.57-0.02-1.03-0.16-1.33-0.27c0.04,0.07,0.65,1.16,1.3,1.18c0.62,0.02,1.17-0.44,1.3-1.06
			C73.77,45.62,73.33,45.71,72.8,45.69z M71.62,32.81c-0.29-0.41-2.18-2.62-6.79,0.15c-0.03,0.01-0.01,0.06,0.02,0.05
			c0.82-0.25,4.01-1.1,6.74-0.16C71.62,32.86,71.64,32.83,71.62,32.81z M68.79,33.74c-1.52,0.18-2.46,1.08-2.8,1.49
			c-0.04,0.05,0.01,0.12,0.07,0.1c0.32-0.13,0.92-0.32,1.31-0.13c0.55,0.26,2.46-0.12,2.9,0.23c0.44,0.35,0.47,0.52,0.47,0.52
			S70.76,33.51,68.79,33.74z M68.79,33.74c-1.52,0.18-2.46,1.08-2.8,1.49c-0.04,0.05,0.01,0.12,0.07,0.1
			c0.32-0.13,0.92-0.32,1.31-0.13c0.55,0.26,2.46-0.12,2.9,0.23c0.44,0.35,0.47,0.52,0.47,0.52S70.76,33.51,68.79,33.74z
			 M71.62,32.81c-0.29-0.41-2.18-2.62-6.79,0.15c-0.03,0.01-0.01,0.06,0.02,0.05c0.82-0.25,4.01-1.1,6.74-0.16
			C71.62,32.86,71.64,32.83,71.62,32.81z M72.8,45.69c-0.57-0.02-1.03-0.16-1.33-0.27c0.04,0.07,0.65,1.16,1.3,1.18
			c0.62,0.02,1.17-0.44,1.3-1.06C73.77,45.62,73.33,45.71,72.8,45.69z M71.31,42.6c-1.83-0.7-2.45-1.92-2.54-2.12
			c0.45,1.17,0.99,2,1.56,2.58c2.61,2.61,6-0.13,6-0.13C74.07,43.27,72.46,43.04,71.31,42.6z M71.31,42.6
			c-1.83-0.7-2.45-1.92-2.54-2.12c0.45,1.17,0.99,2,1.56,2.58c2.61,2.61,6-0.13,6-0.13C74.07,43.27,72.46,43.04,71.31,42.6z
			 M72.8,45.69c-0.57-0.02-1.03-0.16-1.33-0.27c0.04,0.07,0.65,1.16,1.3,1.18c0.62,0.02,1.17-0.44,1.3-1.06
			C73.77,45.62,73.33,45.71,72.8,45.69z M71.62,32.81c-0.29-0.41-2.18-2.62-6.79,0.15c-0.03,0.01-0.01,0.06,0.02,0.05
			c0.82-0.25,4.01-1.1,6.74-0.16C71.62,32.86,71.64,32.83,71.62,32.81z M68.79,33.74c-1.52,0.18-2.46,1.08-2.8,1.49
			c-0.04,0.05,0.01,0.12,0.07,0.1c0.32-0.13,0.92-0.32,1.31-0.13c0.55,0.26,2.46-0.12,2.9,0.23c0.44,0.35,0.47,0.52,0.47,0.52
			S70.76,33.51,68.79,33.74z M68.79,33.74c-1.52,0.18-2.46,1.08-2.8,1.49c-0.04,0.05,0.01,0.12,0.07,0.1
			c0.32-0.13,0.92-0.32,1.31-0.13c0.55,0.26,2.46-0.12,2.9,0.23c0.44,0.35,0.47,0.52,0.47,0.52S70.76,33.51,68.79,33.74z
			 M71.62,32.81c-0.29-0.41-2.18-2.62-6.79,0.15c-0.03,0.01-0.01,0.06,0.02,0.05c0.82-0.25,4.01-1.1,6.74-0.16
			C71.62,32.86,71.64,32.83,71.62,32.81z M72.8,45.69c-0.57-0.02-1.03-0.16-1.33-0.27c0.04,0.07,0.65,1.16,1.3,1.18
			c0.62,0.02,1.17-0.44,1.3-1.06C73.77,45.62,73.33,45.71,72.8,45.69z M71.31,42.6c-1.83-0.7-2.45-1.92-2.54-2.12
			c0.45,1.17,0.99,2,1.56,2.58c2.61,2.61,6-0.13,6-0.13C74.07,43.27,72.46,43.04,71.31,42.6z M76.33,42.92
			c-2.25,0.35-3.87,0.11-5.01-0.33c-1.83-0.7-2.45-1.92-2.54-2.12c0.45,1.17,0.99,2,1.56,2.58C72.94,45.67,76.33,42.92,76.33,42.92z
			 M71.47,45.42c0.04,0.07,0.65,1.16,1.3,1.18c0.62,0.02,1.17-0.44,1.3-1.06c-0.3,0.08-0.74,0.17-1.27,0.15
			C72.23,45.67,71.77,45.53,71.47,45.42z M71.59,32.85c0.02,0.01,0.04-0.02,0.03-0.04c-0.29-0.41-2.18-2.62-6.79,0.15
			c-0.03,0.01-0.01,0.06,0.02,0.05C65.67,32.76,68.86,31.91,71.59,32.85z M70.27,35.43c0.44,0.35,0.47,0.52,0.47,0.52
			s0.03-2.44-1.94-2.2c-1.52,0.18-2.46,1.08-2.8,1.49c-0.04,0.05,0.01,0.12,0.07,0.1c0.32-0.13,0.92-0.32,1.31-0.13
			C67.92,35.45,69.84,35.08,70.27,35.43z M70.85,111.47c5.43-0.57,9.92-2.83,13.55-5.76c-1.26,0.09-2.52,0.13-3.78,0.13
			c-2.49,0-5-0.17-7.46-0.51c-0.57-0.08-1.16-0.14-1.73-0.2c-0.54-0.06-1.1-0.12-1.65-0.19c-1.51-0.2-2.7-1.37-2.89-2.83l-0.17-1.35
			c-3.04-0.66-5.42-1.82-5.92-1.98c-0.93-0.29-8.14,1.22-17.38,1.45c-9.24,0.23-8.84-3.43-8.84-3.43c0.62-3.96,5.78-4.14,9.21-4.14
			c3.43,0,14.73,0.82,15.64,0.66s2.28-0.26,3.43-2.06c0.51-0.8,1.39-1.48,2.35-2.1l-0.75-5.83c-0.99-0.37-1.68-1.33-1.68-2.43v-3.43
			c0-1.44,1.17-2.61,2.61-2.61c0.05,0,0.11,0,0.16,0c4.26,0.27,8.59,0.42,12.87,0.46c-0.03-0.37-0.04-0.72-0.03-1.07
			c-0.94,0.25-1.86,0.37-2.74,0.37c-2.4,0-4.6-0.9-6.45-2.63l-12.06,0.34l-5.32-11.28l3.05-1.22l11.38,8.17
			c-0.67-1.3-0.97-2.28-0.99-2.34c-0.09-0.3-0.04-0.64,0.14-0.89l-8.63-6.61c2.51-1.83,2.74-9.83,2.74-9.83s5.79,4.04,7.85,6.4
			c2.06,2.36,2.52,5.72,2.52,5.72l0.98-0.68l-2.12,4.77c0.49,0.03,1.06,0.06,1.72,0.09l1.22-2.99v0c-0.68-2.09-0.72-4.19-0.63-5.61
			c-0.42-1.71-0.54-3.67-0.56-4.09c0.09,0.05,0.31,0.14,0.84,0.27c1.19,0.3,3.91,0.1,5.25-2.33c1.34-2.42,3.02-5.05,3.22-7.38
			c0.13-1.46,0.29-3.73,0.39-5.23c0.06-0.89,0.1-1.5,0.1-1.5l-0.85-7.72l-4.7-4.5l-5.48,0.68l-8.89,4.5l-5.29,5.97l0.68,11.74
			c0.09,0.33,0.17,0.66,0.24,0.97c2.25,10.04-4.55,12.43-4.55,12.43l-1.37-1.08C36.4,60.41,34.54,78.9,34.84,81.05
			c0.29,2.15-0.59,1.86-1.76,2.64c-1.17,0.78-1.08,0.49-1.37,2.44c-0.29,1.96,0.1,2.54-0.29,4.11c-0.39,1.56-0.88,1.17-0.68,2.84
			c0.2,1.66,1.47,1.56,1.37,3.42c-0.1,1.86,0,4.01,0,4.01c2.34,4.31,16.14,1.27,16.14,1.27c7.43,15.84,21.71,13.69,21.71,13.69
			c-15.75-3.62-19.17-14.18-19.17-14.18l1.07-0.1C59,110.88,70.85,111.47,70.85,111.47z M56.37,36.31c0.79-2.74,6.2,0.51,10.94-7.82
			c0.4-0.7,1.07-1.22,1.81-1.54c1.67-0.72,4.77-1.3,8.49,1.6c0.34,0.26,0.54,0.66,0.57,1.09c0.04,0.66,0.12,1.73,0.26,2.75
			c0.01,0.08,0.02,0.17,0.03,0.26c0,0-3.25-0.6-3.78,1.21c-0.54,1.81,0.54,4.7,0.51,5.3c-0.03,0.6-1.68,1.11-1.94,1.71
			c-0.13,0.3,0.62,0.26,1.39-0.02c0,0,0,0,0,0c0.41-0.15,0.82-0.37,1.12-0.65c0,0,0,0,0.01,0c0.29-0.26,0.48-0.58,0.46-0.94
			c-0.04-0.98-0.58-2.29-0.73-3.42c0.08,0.06,0.16,0.1,0.2,0.11c1.01,0.75,1.49,0.14,1.59,0c0.05-0.07,0.17,0,0.29,0.1
			c0.1,0.08,0.18,0.15,0.21,0.2c-0.04,0.22-0.05,0.42-0.02,0.58c0.07,0.42,0.24,1.11,0.36,1.89c0.14,0.89,0.21,1.9-0.02,2.7
			c-0.42,1.51-2.61,6.02-3.28,7.45c-0.68,1.43-1.43,2.41-4.74,1.81c-2.24-0.41-6.32-1.4-8.79-4.34c-1.19-1.41-2-3.28-2.05-5.75
			C59.24,40.59,55.54,39.17,56.37,36.31z M78.39,33.73c-0.09,0.55-0.25,1.09-0.39,1.59c-0.86-0.8-2.52-0.48-2.52-0.48
			c0.03-0.17,0.07-0.32,0.14-0.47C76.24,33.1,78.39,33.73,78.39,33.73z M48.08,61.96c0,0,9.45,25.07,2.67,28.19
			c-1.37,0.46-1.75,0-1.75,0l-0.91-13.64l-3.2,9.45c0,0-3.66-2.28-7.39-2.9C37.49,83.06,37.64,65.61,48.08,61.96z M41.15,87.74
			c-1.16-0.7-6.04-0.35-6.04-0.35c7.73-3.49,10.99,2.03,10.99,2.03l-2.15-0.35l1.4,1.8c-4.82-3.14-11.75,0.64-11.75,0.64
			C35.46,88.05,41.15,87.74,41.15,87.74z M68.77,40.48c0.45,1.17,0.99,2,1.56,2.58c2.61,2.61,6-0.13,6-0.13
			c-2.25,0.35-3.87,0.11-5.01-0.33C69.49,41.9,68.87,40.68,68.77,40.48z M71.47,45.42c0.04,0.07,0.65,1.16,1.3,1.18
			c0.62,0.02,1.17-0.44,1.3-1.06c-0.3,0.08-0.74,0.17-1.27,0.15C72.23,45.67,71.77,45.53,71.47,45.42z M64.85,33.01
			c0.82-0.25,4.01-1.1,6.74-0.16c0.02,0.01,0.04-0.02,0.03-0.04c-0.29-0.41-2.18-2.62-6.79,0.15
			C64.81,32.98,64.82,33.02,64.85,33.01z M70.27,35.43c0.44,0.35,0.47,0.52,0.47,0.52s0.03-2.44-1.94-2.2
			c-1.52,0.18-2.46,1.08-2.8,1.49c-0.04,0.05,0.01,0.12,0.07,0.1c0.32-0.13,0.92-0.32,1.31-0.13
			C67.92,35.45,69.84,35.08,70.27,35.43z M68.79,33.74c-1.52,0.18-2.46,1.08-2.8,1.49c-0.04,0.05,0.01,0.12,0.07,0.1
			c0.32-0.13,0.92-0.32,1.31-0.13c0.55,0.26,2.46-0.12,2.9,0.23c0.44,0.35,0.47,0.52,0.47,0.52S70.76,33.51,68.79,33.74z
			 M71.62,32.81c-0.29-0.41-2.18-2.62-6.79,0.15c-0.03,0.01-0.01,0.06,0.02,0.05c0.82-0.25,4.01-1.1,6.74-0.16
			C71.62,32.86,71.64,32.83,71.62,32.81z M72.8,45.69c-0.57-0.02-1.03-0.16-1.33-0.27c0.04,0.07,0.65,1.16,1.3,1.18
			c0.62,0.02,1.17-0.44,1.3-1.06C73.77,45.62,73.33,45.71,72.8,45.69z M71.31,42.6c-1.83-0.7-2.45-1.92-2.54-2.12
			c0.45,1.17,0.99,2,1.56,2.58c2.61,2.61,6-0.13,6-0.13C74.07,43.27,72.46,43.04,71.31,42.6z M71.31,42.6
			c-1.83-0.7-2.45-1.92-2.54-2.12c0.45,1.17,0.99,2,1.56,2.58c2.61,2.61,6-0.13,6-0.13C74.07,43.27,72.46,43.04,71.31,42.6z
			 M72.8,45.69c-0.57-0.02-1.03-0.16-1.33-0.27c0.04,0.07,0.65,1.16,1.3,1.18c0.62,0.02,1.17-0.44,1.3-1.06
			C73.77,45.62,73.33,45.71,72.8,45.69z M71.62,32.81c-0.29-0.41-2.18-2.62-6.79,0.15c-0.03,0.01-0.01,0.06,0.02,0.05
			c0.82-0.25,4.01-1.1,6.74-0.16C71.62,32.86,71.64,32.83,71.62,32.81z M68.79,33.74c-1.52,0.18-2.46,1.08-2.8,1.49
			c-0.04,0.05,0.01,0.12,0.07,0.1c0.32-0.13,0.92-0.32,1.31-0.13c0.55,0.26,2.46-0.12,2.9,0.23c0.44,0.35,0.47,0.52,0.47,0.52
			S70.76,33.51,68.79,33.74z M68.79,33.74c-1.52,0.18-2.46,1.08-2.8,1.49c-0.04,0.05,0.01,0.12,0.07,0.1
			c0.32-0.13,0.92-0.32,1.31-0.13c0.55,0.26,2.46-0.12,2.9,0.23c0.44,0.35,0.47,0.52,0.47,0.52S70.76,33.51,68.79,33.74z
			 M71.62,32.81c-0.29-0.41-2.18-2.62-6.79,0.15c-0.03,0.01-0.01,0.06,0.02,0.05c0.82-0.25,4.01-1.1,6.74-0.16
			C71.62,32.86,71.64,32.83,71.62,32.81z M72.8,45.69c-0.57-0.02-1.03-0.16-1.33-0.27c0.04,0.07,0.65,1.16,1.3,1.18
			c0.62,0.02,1.17-0.44,1.3-1.06C73.77,45.62,73.33,45.71,72.8,45.69z M71.31,42.6c-1.83-0.7-2.45-1.92-2.54-2.12
			c0.45,1.17,0.99,2,1.56,2.58c2.61,2.61,6-0.13,6-0.13C74.07,43.27,72.46,43.04,71.31,42.6z M71.31,42.6
			c-1.83-0.7-2.45-1.92-2.54-2.12c0.45,1.17,0.99,2,1.56,2.58c2.61,2.61,6-0.13,6-0.13C74.07,43.27,72.46,43.04,71.31,42.6z
			 M72.8,45.69c-0.57-0.02-1.03-0.16-1.33-0.27c0.04,0.07,0.65,1.16,1.3,1.18c0.62,0.02,1.17-0.44,1.3-1.06
			C73.77,45.62,73.33,45.71,72.8,45.69z M71.62,32.81c-0.29-0.41-2.18-2.62-6.79,0.15c-0.03,0.01-0.01,0.06,0.02,0.05
			c0.82-0.25,4.01-1.1,6.74-0.16C71.62,32.86,71.64,32.83,71.62,32.81z M68.79,33.74c-1.52,0.18-2.46,1.08-2.8,1.49
			c-0.04,0.05,0.01,0.12,0.07,0.1c0.32-0.13,0.92-0.32,1.31-0.13c0.55,0.26,2.46-0.12,2.9,0.23c0.44,0.35,0.47,0.52,0.47,0.52
			S70.76,33.51,68.79,33.74z M68.79,33.74c-1.52,0.18-2.46,1.08-2.8,1.49c-0.04,0.05,0.01,0.12,0.07,0.1
			c0.32-0.13,0.92-0.32,1.31-0.13c0.55,0.26,2.46-0.12,2.9,0.23c0.44,0.35,0.47,0.52,0.47,0.52S70.76,33.51,68.79,33.74z
			 M71.62,32.81c-0.29-0.41-2.18-2.62-6.79,0.15c-0.03,0.01-0.01,0.06,0.02,0.05c0.82-0.25,4.01-1.1,6.74-0.16
			C71.62,32.86,71.64,32.83,71.62,32.81z M72.8,45.69c-0.57-0.02-1.03-0.16-1.33-0.27c0.04,0.07,0.65,1.16,1.3,1.18
			c0.62,0.02,1.17-0.44,1.3-1.06C73.77,45.62,73.33,45.71,72.8,45.69z M71.31,42.6c-1.83-0.7-2.45-1.92-2.54-2.12
			c0.45,1.17,0.99,2,1.56,2.58c2.61,2.61,6-0.13,6-0.13C74.07,43.27,72.46,43.04,71.31,42.6z M71.31,42.6
			c-1.83-0.7-2.45-1.92-2.54-2.12c0.45,1.17,0.99,2,1.56,2.58c2.61,2.61,6-0.13,6-0.13C74.07,43.27,72.46,43.04,71.31,42.6z
			 M72.8,45.69c-0.57-0.02-1.03-0.16-1.33-0.27c0.04,0.07,0.65,1.16,1.3,1.18c0.62,0.02,1.17-0.44,1.3-1.06
			C73.77,45.62,73.33,45.71,72.8,45.69z M71.62,32.81c-0.29-0.41-2.18-2.62-6.79,0.15c-0.03,0.01-0.01,0.06,0.02,0.05
			c0.82-0.25,4.01-1.1,6.74-0.16C71.62,32.86,71.64,32.83,71.62,32.81z M68.79,33.74c-1.52,0.18-2.46,1.08-2.8,1.49
			c-0.04,0.05,0.01,0.12,0.07,0.1c0.32-0.13,0.92-0.32,1.31-0.13c0.55,0.26,2.46-0.12,2.9,0.23c0.44,0.35,0.47,0.52,0.47,0.52
			S70.76,33.51,68.79,33.74z M68.79,33.74c-1.52,0.18-2.46,1.08-2.8,1.49c-0.04,0.05,0.01,0.12,0.07,0.1
			c0.32-0.13,0.92-0.32,1.31-0.13c0.55,0.26,2.46-0.12,2.9,0.23c0.44,0.35,0.47,0.52,0.47,0.52S70.76,33.51,68.79,33.74z
			 M71.62,32.81c-0.29-0.41-2.18-2.62-6.79,0.15c-0.03,0.01-0.01,0.06,0.02,0.05c0.82-0.25,4.01-1.1,6.74-0.16
			C71.62,32.86,71.64,32.83,71.62,32.81z M72.8,45.69c-0.57-0.02-1.03-0.16-1.33-0.27c0.04,0.07,0.65,1.16,1.3,1.18
			c0.62,0.02,1.17-0.44,1.3-1.06C73.77,45.62,73.33,45.71,72.8,45.69z M71.31,42.6c-1.83-0.7-2.45-1.92-2.54-2.12
			c0.45,1.17,0.99,2,1.56,2.58c2.61,2.61,6-0.13,6-0.13C74.07,43.27,72.46,43.04,71.31,42.6z M71.31,42.6
			c-1.83-0.7-2.45-1.92-2.54-2.12c0.45,1.17,0.99,2,1.56,2.58c2.61,2.61,6-0.13,6-0.13C74.07,43.27,72.46,43.04,71.31,42.6z
			 M72.8,45.69c-0.57-0.02-1.03-0.16-1.33-0.27c0.04,0.07,0.65,1.16,1.3,1.18c0.62,0.02,1.17-0.44,1.3-1.06
			C73.77,45.62,73.33,45.71,72.8,45.69z M71.62,32.81c-0.29-0.41-2.18-2.62-6.79,0.15c-0.03,0.01-0.01,0.06,0.02,0.05
			c0.82-0.25,4.01-1.1,6.74-0.16C71.62,32.86,71.64,32.83,71.62,32.81z M68.79,33.74c-1.52,0.18-2.46,1.08-2.8,1.49
			c-0.04,0.05,0.01,0.12,0.07,0.1c0.32-0.13,0.92-0.32,1.31-0.13c0.55,0.26,2.46-0.12,2.9,0.23c0.44,0.35,0.47,0.52,0.47,0.52
			S70.76,33.51,68.79,33.74z M96.43,85.22l-0.7,5.41c0.96-2.06,1.42-3.41,1.42-3.41C96.9,86.53,96.66,85.87,96.43,85.22z
			 M68.79,33.74c-1.52,0.18-2.46,1.08-2.8,1.49c-0.04,0.05,0.01,0.12,0.07,0.1c0.32-0.13,0.92-0.32,1.31-0.13
			c0.55,0.26,2.46-0.12,2.9,0.23c0.44,0.35,0.47,0.52,0.47,0.52S70.76,33.51,68.79,33.74z M71.62,32.81
			c-0.29-0.41-2.18-2.62-6.79,0.15c-0.03,0.01-0.01,0.06,0.02,0.05c0.82-0.25,4.01-1.1,6.74-0.16
			C71.62,32.86,71.64,32.83,71.62,32.81z M72.8,45.69c-0.57-0.02-1.03-0.16-1.33-0.27c0.04,0.07,0.65,1.16,1.3,1.18
			c0.62,0.02,1.17-0.44,1.3-1.06C73.77,45.62,73.33,45.71,72.8,45.69z M71.31,42.6c-1.83-0.7-2.45-1.92-2.54-2.12
			c0.45,1.17,0.99,2,1.56,2.58c2.61,2.61,6-0.13,6-0.13C74.07,43.27,72.46,43.04,71.31,42.6z M71.31,42.6
			c-1.83-0.7-2.45-1.92-2.54-2.12c0.45,1.17,0.99,2,1.56,2.58c2.61,2.61,6-0.13,6-0.13C74.07,43.27,72.46,43.04,71.31,42.6z
			 M72.8,45.69c-0.57-0.02-1.03-0.16-1.33-0.27c0.04,0.07,0.65,1.16,1.3,1.18c0.62,0.02,1.17-0.44,1.3-1.06
			C73.77,45.62,73.33,45.71,72.8,45.69z M71.62,32.81c-0.29-0.41-2.18-2.62-6.79,0.15c-0.03,0.01-0.01,0.06,0.02,0.05
			c0.82-0.25,4.01-1.1,6.74-0.16C71.62,32.86,71.64,32.83,71.62,32.81z M68.79,33.74c-1.52,0.18-2.46,1.08-2.8,1.49
			c-0.04,0.05,0.01,0.12,0.07,0.1c0.32-0.13,0.92-0.32,1.31-0.13c0.55,0.26,2.46-0.12,2.9,0.23c0.44,0.35,0.47,0.52,0.47,0.52
			S70.76,33.51,68.79,33.74z M68.79,33.74c-1.52,0.18-2.46,1.08-2.8,1.49c-0.04,0.05,0.01,0.12,0.07,0.1
			c0.32-0.13,0.92-0.32,1.31-0.13c0.55,0.26,2.46-0.12,2.9,0.23c0.44,0.35,0.47,0.52,0.47,0.52S70.76,33.51,68.79,33.74z
			 M71.62,32.81c-0.29-0.41-2.18-2.62-6.79,0.15c-0.03,0.01-0.01,0.06,0.02,0.05c0.82-0.25,4.01-1.1,6.74-0.16
			C71.62,32.86,71.64,32.83,71.62,32.81z M72.8,45.69c-0.57-0.02-1.03-0.16-1.33-0.27c0.04,0.07,0.65,1.16,1.3,1.18
			c0.62,0.02,1.17-0.44,1.3-1.06C73.77,45.62,73.33,45.71,72.8,45.69z M71.31,42.6c-1.83-0.7-2.45-1.92-2.54-2.12
			c0.45,1.17,0.99,2,1.56,2.58c2.61,2.61,6-0.13,6-0.13C74.07,43.27,72.46,43.04,71.31,42.6z M90.88,72.72
			c-1.65,1.25-3.55,1.89-5.64,1.89c-1.03,0-2.12-0.16-3.23-0.47c0.01,0.44,0.03,0.83,0.07,1.18c3.33-0.02,6.68-0.11,10.02-0.27
			C91.69,74.24,91.29,73.46,90.88,72.72z M83.5,65.47c-0.85,0.78-2.41,2.45-3.34,4.9c-0.11,0.3-0.22,0.61-0.31,0.93
			c-0.12,0.42-0.22,0.86-0.29,1.32c-0.01,0-0.03,0.01-0.04,0.01c0.01,0.01,0.02,0.03,0.03,0.05v0c-0.03,0.21-0.06,0.43-0.08,0.65v0
			c-0.02,0.2-0.03,0.4-0.04,0.61c-0.02,0.45-0.01,0.91,0.02,1.39c0.34,0,0.68,0,1.02,0h0.1c0.17,0,0.33,0,0.5,0
			c-0.07-0.67-0.1-1.49-0.03-2.4c0.12-1.78,0.6-3.93,1.84-6.12c0.26-0.45,0.54-0.9,0.87-1.35c0.12-0.17,0.24-0.33,0.37-0.5
			C84.07,64.98,83.84,65.15,83.5,65.47z M71.31,42.6c-1.83-0.7-2.45-1.92-2.54-2.12c0.45,1.17,0.99,2,1.56,2.58
			c2.61,2.61,6-0.13,6-0.13C74.07,43.27,72.46,43.04,71.31,42.6z M72.8,45.69c-0.57-0.02-1.03-0.16-1.33-0.27
			c0.04,0.07,0.65,1.16,1.3,1.18c0.62,0.02,1.17-0.44,1.3-1.06C73.77,45.62,73.33,45.71,72.8,45.69z M71.62,32.81
			c-0.29-0.41-2.18-2.62-6.79,0.15c-0.03,0.01-0.01,0.06,0.02,0.05c0.82-0.25,4.01-1.1,6.74-0.16
			C71.62,32.86,71.64,32.83,71.62,32.81z M68.79,33.74c-1.52,0.18-2.46,1.08-2.8,1.49c-0.04,0.05,0.01,0.12,0.07,0.1
			c0.32-0.13,0.92-0.32,1.31-0.13c0.55,0.26,2.46-0.12,2.9,0.23c0.44,0.35,0.47,0.52,0.47,0.52S70.76,33.51,68.79,33.74z
			 M68.79,33.74c-1.52,0.18-2.46,1.08-2.8,1.49c-0.04,0.05,0.01,0.12,0.07,0.1c0.32-0.13,0.92-0.32,1.31-0.13
			c0.55,0.26,2.46-0.12,2.9,0.23c0.44,0.35,0.47,0.52,0.47,0.52S70.76,33.51,68.79,33.74z M71.62,32.81
			c-0.29-0.41-2.18-2.62-6.79,0.15c-0.03,0.01-0.01,0.06,0.02,0.05c0.82-0.25,4.01-1.1,6.74-0.16
			C71.62,32.86,71.64,32.83,71.62,32.81z M72.8,45.69c-0.57-0.02-1.03-0.16-1.33-0.27c0.04,0.07,0.65,1.16,1.3,1.18
			c0.62,0.02,1.17-0.44,1.3-1.06C73.77,45.62,73.33,45.71,72.8,45.69z M71.31,42.6c-1.83-0.7-2.45-1.92-2.54-2.12
			c0.45,1.17,0.99,2,1.56,2.58c2.61,2.61,6-0.13,6-0.13C74.07,43.27,72.46,43.04,71.31,42.6z M72.8,45.69
			c-0.57-0.02-1.03-0.16-1.33-0.27c0.04,0.07,0.65,1.16,1.3,1.18c0.62,0.02,1.17-0.44,1.3-1.06C73.77,45.62,73.33,45.71,72.8,45.69z
			 M71.62,32.81c-0.29-0.41-2.18-2.62-6.79,0.15c-0.03,0.01-0.01,0.06,0.02,0.05c0.82-0.25,4.01-1.1,6.74-0.16
			C71.62,32.86,71.64,32.83,71.62,32.81z M71.31,42.6c-1.83-0.7-2.45-1.92-2.54-2.12c0.45,1.17,0.99,2,1.56,2.58
			c2.61,2.61,6-0.13,6-0.13C74.07,43.27,72.46,43.04,71.31,42.6z M68.79,33.74c-1.52,0.18-2.46,1.08-2.8,1.49
			c-0.04,0.05,0.01,0.12,0.07,0.1c0.32-0.13,0.92-0.32,1.31-0.13c0.55,0.26,2.46-0.12,2.9,0.23c0.44,0.35,0.47,0.52,0.47,0.52
			S70.76,33.51,68.79,33.74z M68.79,33.74c-1.52,0.18-2.46,1.08-2.8,1.49c-0.04,0.05,0.01,0.12,0.07,0.1
			c0.32-0.13,0.92-0.32,1.31-0.13c0.55,0.26,2.46-0.12,2.9,0.23c0.44,0.35,0.47,0.52,0.47,0.52S70.76,33.51,68.79,33.74z
			 M71.62,32.81c-0.29-0.41-2.18-2.62-6.79,0.15c-0.03,0.01-0.01,0.06,0.02,0.05c0.82-0.25,4.01-1.1,6.74-0.16
			C71.62,32.86,71.64,32.83,71.62,32.81z M71.62,32.81c-0.29-0.41-2.18-2.62-6.79,0.15c-0.03,0.01-0.01,0.06,0.02,0.05
			c0.82-0.25,4.01-1.1,6.74-0.16C71.62,32.86,71.64,32.83,71.62,32.81z M68.79,33.74c-1.52,0.18-2.46,1.08-2.8,1.49
			c-0.04,0.05,0.01,0.12,0.07,0.1c0.32-0.13,0.92-0.32,1.31-0.13c0.55,0.26,2.46-0.12,2.9,0.23c0.44,0.35,0.47,0.52,0.47,0.52
			S70.76,33.51,68.79,33.74z M76.2,65.92c-0.13-0.07-0.26-0.13-0.4-0.19c0.13,0.09,0.26,0.18,0.4,0.26
			c0.28,0.18,0.57,0.34,0.88,0.49C76.82,66.27,76.52,66.08,76.2,65.92z M78.79,71.26c0.15,0.16,0.29,0.33,0.42,0.5
			c0.09,0.11,0.17,0.23,0.25,0.36c0,0-0.03-0.32-0.13-0.82v0c-0.06-0.27-0.14-0.59-0.26-0.94c-0.25-0.77-0.65-1.67-1.29-2.48
			c-0.27-0.34-0.59-0.66-0.95-0.95l0,0c-0.19-0.15-0.4-0.3-0.63-0.42c-0.2-0.11-0.41-0.22-0.64-0.31c0,0-0.01,0-0.01,0
			c-0.38-0.16-0.8-0.28-1.26-0.35c-0.27-0.05-0.56-0.07-0.86-0.08c-1.36-0.04-2.48-0.09-3.4-0.13c-0.69-0.03-1.27-0.07-1.76-0.1
			c-1.48-0.1-2.03-0.18-2.03-0.18s0.01,0.03,0.03,0.08v0c0.14,0.41,0.79,2.28,2.14,4.12c0,0,0,0,0,0c0,0,0,0,0,0h0
			c0.62,0.84,1.39,1.69,2.32,2.38c1.3,0.96,2.92,1.64,4.89,1.64c0.86,0,1.8-0.13,2.81-0.43c0.18-0.05,0.36-0.1,0.54-0.17
			c0.04-0.01,0.08-0.03,0.12-0.04c0,0-0.03-0.04-0.1-0.12c-0.09-0.11-0.24-0.29-0.45-0.51c-0.52-0.57-1.36-1.45-2.36-2.28
			c-1.06-0.87-2.29-1.69-3.5-2.03c0.61,0.16,2.04,0.59,3.5,1.36C77.13,69.85,78.06,70.47,78.79,71.26z M76.2,65.92
			c-0.13-0.07-0.26-0.13-0.4-0.19c0.13,0.09,0.26,0.18,0.4,0.26c0.28,0.18,0.57,0.34,0.88,0.49C76.82,66.27,76.52,66.08,76.2,65.92z
			 M78.79,71.26c0.15,0.16,0.29,0.33,0.42,0.5c0.09,0.11,0.17,0.23,0.25,0.36c0,0-0.03-0.32-0.13-0.82v0
			c-0.06-0.27-0.14-0.59-0.26-0.94c-0.25-0.77-0.65-1.67-1.29-2.48c-0.27-0.34-0.59-0.66-0.95-0.95l0,0
			c-0.19-0.15-0.4-0.3-0.63-0.42c-0.2-0.11-0.41-0.22-0.64-0.31c0,0-0.01,0-0.01,0c-0.38-0.16-0.8-0.28-1.26-0.35
			c-0.27-0.05-0.56-0.07-0.86-0.08c-1.36-0.04-2.48-0.09-3.4-0.13c-0.69-0.03-1.27-0.07-1.76-0.1c-1.48-0.1-2.03-0.18-2.03-0.18
			s0.01,0.03,0.03,0.08v0c0.14,0.41,0.79,2.28,2.14,4.12c0,0,0,0,0,0c0,0,0,0,0,0h0c0.62,0.84,1.39,1.69,2.32,2.38
			c1.3,0.96,2.92,1.64,4.89,1.64c0.86,0,1.8-0.13,2.81-0.43c0.18-0.05,0.36-0.1,0.54-0.17c0.04-0.01,0.08-0.03,0.12-0.04
			c0,0-0.03-0.04-0.1-0.12c-0.09-0.11-0.24-0.29-0.45-0.51c-0.52-0.57-1.36-1.45-2.36-2.28c-1.06-0.87-2.29-1.69-3.5-2.03
			c0.61,0.16,2.04,0.59,3.5,1.36C77.13,69.85,78.06,70.47,78.79,71.26z M76.2,65.92c-0.13-0.07-0.26-0.13-0.4-0.19
			c0.13,0.09,0.26,0.18,0.4,0.26c0.28,0.18,0.57,0.34,0.88,0.49C76.82,66.27,76.52,66.08,76.2,65.92z M78.79,71.26
			c0.15,0.16,0.29,0.33,0.42,0.5c0.09,0.11,0.17,0.23,0.25,0.36c0,0-0.03-0.32-0.13-0.82v0c-0.06-0.27-0.14-0.59-0.26-0.94
			c-0.25-0.77-0.65-1.67-1.29-2.48c-0.27-0.34-0.59-0.66-0.95-0.95l0,0c-0.19-0.15-0.4-0.3-0.63-0.42c-0.2-0.11-0.41-0.22-0.64-0.31
			c0,0-0.01,0-0.01,0c-0.38-0.16-0.8-0.28-1.26-0.35c-0.27-0.05-0.56-0.07-0.86-0.08c-1.36-0.04-2.48-0.09-3.4-0.13
			c-0.69-0.03-1.27-0.07-1.76-0.1c-1.48-0.1-2.03-0.18-2.03-0.18s0.01,0.03,0.03,0.08v0c0.14,0.41,0.79,2.28,2.14,4.12c0,0,0,0,0,0
			c0,0,0,0,0,0h0c0.62,0.84,1.39,1.69,2.32,2.38c1.3,0.96,2.92,1.64,4.89,1.64c0.86,0,1.8-0.13,2.81-0.43
			c0.18-0.05,0.36-0.1,0.54-0.17c0.04-0.01,0.08-0.03,0.12-0.04c0,0-0.03-0.04-0.1-0.12c-0.09-0.11-0.24-0.29-0.45-0.51
			c-0.52-0.57-1.36-1.45-2.36-2.28c-1.06-0.87-2.29-1.69-3.5-2.03c0.61,0.16,2.04,0.59,3.5,1.36
			C77.13,69.85,78.06,70.47,78.79,71.26z M76.2,65.92c-0.13-0.07-0.26-0.13-0.4-0.19c0.13,0.09,0.26,0.18,0.4,0.26
			c0.28,0.18,0.57,0.34,0.88,0.49C76.82,66.27,76.52,66.08,76.2,65.92z M78.79,71.26c0.15,0.16,0.29,0.33,0.42,0.5
			c0.09,0.11,0.17,0.23,0.25,0.36c0,0-0.03-0.32-0.13-0.82v0c-0.06-0.27-0.14-0.59-0.26-0.94c-0.25-0.77-0.65-1.67-1.29-2.48
			c-0.27-0.34-0.59-0.66-0.95-0.95l0,0c-0.19-0.15-0.4-0.3-0.63-0.42c-0.2-0.11-0.41-0.22-0.64-0.31c0,0-0.01,0-0.01,0
			c-0.38-0.16-0.8-0.28-1.26-0.35c-0.27-0.05-0.56-0.07-0.86-0.08c-1.36-0.04-2.48-0.09-3.4-0.13c-0.69-0.03-1.27-0.07-1.76-0.1
			c-1.48-0.1-2.03-0.18-2.03-0.18s0.01,0.03,0.03,0.08v0c0.14,0.41,0.79,2.28,2.14,4.12c0,0,0,0,0,0c0,0,0,0,0,0h0
			c0.62,0.84,1.39,1.69,2.32,2.38c1.3,0.96,2.92,1.64,4.89,1.64c0.86,0,1.8-0.13,2.81-0.43c0.18-0.05,0.36-0.1,0.54-0.17
			c0.04-0.01,0.08-0.03,0.12-0.04c0,0-0.03-0.04-0.1-0.12c-0.09-0.11-0.24-0.29-0.45-0.51c-0.52-0.57-1.36-1.45-2.36-2.28
			c-1.06-0.87-2.29-1.69-3.5-2.03c0.61,0.16,2.04,0.59,3.5,1.36C77.13,69.85,78.06,70.47,78.79,71.26z M76.2,65.92
			c-0.13-0.07-0.26-0.13-0.4-0.19c0.13,0.09,0.26,0.18,0.4,0.26c0.28,0.18,0.57,0.34,0.88,0.49C76.82,66.27,76.52,66.08,76.2,65.92z
			 M78.79,71.26c0.15,0.16,0.29,0.33,0.42,0.5c0.09,0.11,0.17,0.23,0.25,0.36c0,0-0.03-0.32-0.13-0.82v0
			c-0.06-0.27-0.14-0.59-0.26-0.94c-0.25-0.77-0.65-1.67-1.29-2.48c-0.27-0.34-0.59-0.66-0.95-0.95l0,0
			c-0.19-0.15-0.4-0.3-0.63-0.42c-0.2-0.11-0.41-0.22-0.64-0.31c0,0-0.01,0-0.01,0c-0.38-0.16-0.8-0.28-1.26-0.35
			c-0.27-0.05-0.56-0.07-0.86-0.08c-1.36-0.04-2.48-0.09-3.4-0.13c-0.69-0.03-1.27-0.07-1.76-0.1c-1.48-0.1-2.03-0.18-2.03-0.18
			s0.01,0.03,0.03,0.08v0c0.14,0.41,0.79,2.28,2.14,4.12c0,0,0,0,0,0c0,0,0,0,0,0h0c0.62,0.84,1.39,1.69,2.32,2.38
			c1.3,0.96,2.92,1.64,4.89,1.64c0.86,0,1.8-0.13,2.81-0.43c0.18-0.05,0.36-0.1,0.54-0.17c0.04-0.01,0.08-0.03,0.12-0.04
			c0,0-0.03-0.04-0.1-0.12c-0.09-0.11-0.24-0.29-0.45-0.51c-0.52-0.57-1.36-1.45-2.36-2.28c-1.06-0.87-2.29-1.69-3.5-2.03
			c0.61,0.16,2.04,0.59,3.5,1.36C77.13,69.85,78.06,70.47,78.79,71.26z M78.79,71.26c0.15,0.16,0.29,0.33,0.42,0.5
			c0.09,0.11,0.17,0.23,0.25,0.36c0,0-0.03-0.32-0.13-0.82v0c-0.06-0.27-0.14-0.59-0.26-0.94c-0.25-0.77-0.65-1.67-1.29-2.48
			c-0.27-0.34-0.59-0.66-0.95-0.95l0,0c-0.19-0.15-0.4-0.3-0.63-0.42c-0.2-0.11-0.41-0.22-0.64-0.31c0,0-0.01,0-0.01,0
			c-0.38-0.16-0.8-0.28-1.26-0.35c-0.27-0.05-0.56-0.07-0.86-0.08c-1.36-0.04-2.48-0.09-3.4-0.13c-0.69-0.03-1.27-0.07-1.76-0.1
			c-1.48-0.1-2.03-0.18-2.03-0.18s0.01,0.03,0.03,0.08v0c0.14,0.41,0.79,2.28,2.14,4.12c0,0,0,0,0,0c0,0,0,0,0,0h0
			c0.62,0.84,1.39,1.69,2.32,2.38c1.3,0.96,2.92,1.64,4.89,1.64c0.86,0,1.8-0.13,2.81-0.43c0.18-0.05,0.36-0.1,0.54-0.17
			c0.04-0.01,0.08-0.03,0.12-0.04c0,0-0.03-0.04-0.1-0.12c-0.09-0.11-0.24-0.29-0.45-0.51c-0.52-0.57-1.36-1.45-2.36-2.28
			c-1.06-0.87-2.29-1.69-3.5-2.03c0.61,0.16,2.04,0.59,3.5,1.36C77.13,69.85,78.06,70.47,78.79,71.26z M78.79,71.26
			c0.15,0.16,0.29,0.33,0.42,0.5c0.09,0.11,0.17,0.23,0.25,0.36c0,0-0.03-0.32-0.13-0.82v0c-0.06-0.27-0.14-0.59-0.26-0.94
			c-0.25-0.77-0.65-1.67-1.29-2.48c-0.27-0.34-0.59-0.66-0.95-0.95l0,0c-0.19-0.15-0.4-0.3-0.63-0.42c-0.2-0.11-0.41-0.22-0.64-0.31
			c0,0-0.01,0-0.01,0c-0.38-0.16-0.8-0.28-1.26-0.35c-0.27-0.05-0.56-0.07-0.86-0.08c-1.36-0.04-2.48-0.09-3.4-0.13
			c-0.69-0.03-1.27-0.07-1.76-0.1c-1.48-0.1-2.03-0.18-2.03-0.18s0.01,0.03,0.03,0.08v0c0.14,0.41,0.79,2.28,2.14,4.12c0,0,0,0,0,0
			c0,0,0,0,0,0h0c0.62,0.84,1.39,1.69,2.32,2.38c1.3,0.96,2.92,1.64,4.89,1.64c0.86,0,1.8-0.13,2.81-0.43
			c0.18-0.05,0.36-0.1,0.54-0.17c0.04-0.01,0.08-0.03,0.12-0.04c0,0-0.03-0.04-0.1-0.12c-0.09-0.11-0.24-0.29-0.45-0.51
			c-0.52-0.57-1.36-1.45-2.36-2.28c-1.06-0.87-2.29-1.69-3.5-2.03c0.61,0.16,2.04,0.59,3.5,1.36
			C77.13,69.85,78.06,70.47,78.79,71.26z M78.79,71.26c0.15,0.16,0.29,0.33,0.42,0.5c0.09,0.11,0.17,0.23,0.25,0.36
			c0,0-0.03-0.32-0.13-0.82v0c-0.06-0.27-0.14-0.59-0.26-0.94c-0.25-0.77-0.65-1.67-1.29-2.48c-0.27-0.34-0.59-0.66-0.95-0.95l0,0
			c-0.19-0.15-0.4-0.3-0.63-0.42c-0.2-0.11-0.41-0.22-0.64-0.31c0,0-0.01,0-0.01,0c-0.38-0.16-0.8-0.28-1.26-0.35
			c-0.27-0.05-0.56-0.07-0.86-0.08c-1.36-0.04-2.48-0.09-3.4-0.13c-0.69-0.03-1.27-0.07-1.76-0.1c-1.48-0.1-2.03-0.18-2.03-0.18
			s0.01,0.03,0.03,0.08v0c0.14,0.41,0.79,2.28,2.14,4.12c0,0,0,0,0,0c0,0,0,0,0,0h0c0.62,0.84,1.39,1.69,2.32,2.38
			c1.3,0.96,2.92,1.64,4.89,1.64c0.86,0,1.8-0.13,2.81-0.43c0.18-0.05,0.36-0.1,0.54-0.17c0.04-0.01,0.08-0.03,0.12-0.04
			c0,0-0.03-0.04-0.1-0.12c-0.09-0.11-0.24-0.29-0.45-0.51c-0.52-0.57-1.36-1.45-2.36-2.28c-1.06-0.87-2.29-1.69-3.5-2.03
			c0.61,0.16,2.04,0.59,3.5,1.36C77.13,69.85,78.06,70.47,78.79,71.26z M78.79,71.26c0.15,0.16,0.29,0.33,0.42,0.5
			c0.09,0.11,0.17,0.23,0.25,0.36c0,0-0.03-0.32-0.13-0.82v0c-0.06-0.27-0.14-0.59-0.26-0.94c-0.25-0.77-0.65-1.67-1.29-2.48
			c-0.27-0.34-0.59-0.66-0.95-0.95l0,0c-0.19-0.15-0.4-0.3-0.63-0.42c-0.2-0.11-0.41-0.22-0.64-0.31c0,0-0.01,0-0.01,0
			c-0.38-0.16-0.8-0.28-1.26-0.35c-0.27-0.05-0.56-0.07-0.86-0.08c-1.36-0.04-2.48-0.09-3.4-0.13c-0.69-0.03-1.27-0.07-1.76-0.1
			c-1.48-0.1-2.03-0.18-2.03-0.18s0.01,0.03,0.03,0.08v0c0.14,0.41,0.79,2.28,2.14,4.12c0,0,0,0,0,0c0,0,0,0,0,0h0
			c0.62,0.84,1.39,1.69,2.32,2.38c1.3,0.96,2.92,1.64,4.89,1.64c0.86,0,1.8-0.13,2.81-0.43c0.18-0.05,0.36-0.1,0.54-0.17
			c0.04-0.01,0.08-0.03,0.12-0.04c0,0-0.03-0.04-0.1-0.12c-0.09-0.11-0.24-0.29-0.45-0.51c-0.52-0.57-1.36-1.45-2.36-2.28
			c-1.06-0.87-2.29-1.69-3.5-2.03c0.61,0.16,2.04,0.59,3.5,1.36C77.13,69.85,78.06,70.47,78.79,71.26z M78.79,71.26
			c0.15,0.16,0.29,0.33,0.42,0.5c0.09,0.11,0.17,0.23,0.25,0.36c0,0-0.03-0.32-0.13-0.82v0c-0.06-0.27-0.14-0.59-0.26-0.94
			c-0.25-0.77-0.65-1.67-1.29-2.48c-0.27-0.34-0.59-0.66-0.95-0.95l0,0c-0.19-0.15-0.4-0.3-0.63-0.42c-0.2-0.11-0.41-0.22-0.64-0.31
			c0,0-0.01,0-0.01,0c-0.38-0.16-0.8-0.28-1.26-0.35c-0.27-0.05-0.56-0.07-0.86-0.08c-1.36-0.04-2.48-0.09-3.4-0.13
			c-0.69-0.03-1.27-0.07-1.76-0.1c-1.48-0.1-2.03-0.18-2.03-0.18s0.01,0.03,0.03,0.08v0c0.14,0.41,0.79,2.28,2.14,4.12c0,0,0,0,0,0
			c0,0,0,0,0,0h0c0.62,0.84,1.39,1.69,2.32,2.38c1.3,0.96,2.92,1.64,4.89,1.64c0.86,0,1.8-0.13,2.81-0.43
			c0.18-0.05,0.36-0.1,0.54-0.17c0.04-0.01,0.08-0.03,0.12-0.04c0,0-0.03-0.04-0.1-0.12c-0.09-0.11-0.24-0.29-0.45-0.51
			c-0.52-0.57-1.36-1.45-2.36-2.28c-1.06-0.87-2.29-1.69-3.5-2.03c0.61,0.16,2.04,0.59,3.5,1.36
			C77.13,69.85,78.06,70.47,78.79,71.26z M78.79,71.26c0.15,0.16,0.29,0.33,0.42,0.5c0.09,0.11,0.17,0.23,0.25,0.36
			c0,0-0.03-0.32-0.13-0.82v0c-0.06-0.27-0.14-0.59-0.26-0.94c-0.25-0.77-0.65-1.67-1.29-2.48c-0.27-0.34-0.59-0.66-0.95-0.95l0,0
			c-0.19-0.15-0.4-0.3-0.63-0.42c-0.2-0.11-0.41-0.22-0.64-0.31c0,0-0.01,0-0.01,0c-0.38-0.16-0.8-0.28-1.26-0.35
			c-0.27-0.05-0.56-0.07-0.86-0.08c-1.36-0.04-2.48-0.09-3.4-0.13c-0.69-0.03-1.27-0.07-1.76-0.1c-1.48-0.1-2.03-0.18-2.03-0.18
			s0.01,0.03,0.03,0.08v0c0.14,0.41,0.79,2.28,2.14,4.12c0,0,0,0,0,0c0,0,0,0,0,0h0c0.62,0.84,1.39,1.69,2.32,2.38
			c1.3,0.96,2.92,1.64,4.89,1.64c0.86,0,1.8-0.13,2.81-0.43c0.18-0.05,0.36-0.1,0.54-0.17c0.04-0.01,0.08-0.03,0.12-0.04
			c0,0-0.03-0.04-0.1-0.12c-0.09-0.11-0.24-0.29-0.45-0.51c-0.52-0.57-1.36-1.45-2.36-2.28c-1.06-0.87-2.29-1.69-3.5-2.03
			c0.61,0.16,2.04,0.59,3.5,1.36C77.13,69.85,78.06,70.47,78.79,71.26z M78.79,71.26c0.15,0.16,0.29,0.33,0.42,0.5
			c0.09,0.11,0.17,0.23,0.25,0.36c0,0-0.03-0.32-0.13-0.82v0c-0.06-0.27-0.14-0.59-0.26-0.94c-0.25-0.77-0.65-1.67-1.29-2.48
			c-0.27-0.34-0.59-0.66-0.95-0.95l0,0c-0.19-0.15-0.4-0.3-0.63-0.42c-0.2-0.11-0.41-0.22-0.64-0.31c0,0-0.01,0-0.01,0
			c-0.38-0.16-0.8-0.28-1.26-0.35c-0.27-0.05-0.56-0.07-0.86-0.08c-1.36-0.04-2.48-0.09-3.4-0.13c-0.69-0.03-1.27-0.07-1.76-0.1
			c-1.48-0.1-2.03-0.18-2.03-0.18s0.01,0.03,0.03,0.08v0c0.14,0.41,0.79,2.28,2.14,4.12c0,0,0,0,0,0c0,0,0,0,0,0h0
			c0.62,0.84,1.39,1.69,2.32,2.38c1.3,0.96,2.92,1.64,4.89,1.64c0.86,0,1.8-0.13,2.81-0.43c0.18-0.05,0.36-0.1,0.54-0.17
			c0.04-0.01,0.08-0.03,0.12-0.04c0,0-0.03-0.04-0.1-0.12c-0.09-0.11-0.24-0.29-0.45-0.51c-0.52-0.57-1.36-1.45-2.36-2.28
			c-1.06-0.87-2.29-1.69-3.5-2.03c0.61,0.16,2.04,0.59,3.5,1.36C77.13,69.85,78.06,70.47,78.79,71.26z M78.79,71.26
			c0.15,0.16,0.29,0.33,0.42,0.5c0.09,0.11,0.17,0.23,0.25,0.36c0,0-0.03-0.32-0.13-0.82v0c-0.06-0.27-0.14-0.59-0.26-0.94
			c-0.25-0.77-0.65-1.67-1.29-2.48c-0.27-0.34-0.59-0.66-0.95-0.95l0,0c-0.19-0.15-0.4-0.3-0.63-0.42c-0.2-0.11-0.41-0.22-0.64-0.31
			c0,0-0.01,0-0.01,0c-0.38-0.16-0.8-0.28-1.26-0.35c-0.27-0.05-0.56-0.07-0.86-0.08c-1.36-0.04-2.48-0.09-3.4-0.13
			c-0.69-0.03-1.27-0.07-1.76-0.1c-1.48-0.1-2.03-0.18-2.03-0.18s0.01,0.03,0.03,0.08v0c0.14,0.41,0.79,2.28,2.14,4.12c0,0,0,0,0,0
			c0,0,0,0,0,0h0c0.62,0.84,1.39,1.69,2.32,2.38c1.3,0.96,2.92,1.64,4.89,1.64c0.86,0,1.8-0.13,2.81-0.43
			c0.18-0.05,0.36-0.1,0.54-0.17c0.04-0.01,0.08-0.03,0.12-0.04c0,0-0.03-0.04-0.1-0.12c-0.09-0.11-0.24-0.29-0.45-0.51
			c-0.52-0.57-1.36-1.45-2.36-2.28c-1.06-0.87-2.29-1.69-3.5-2.03c0.61,0.16,2.04,0.59,3.5,1.36
			C77.13,69.85,78.06,70.47,78.79,71.26z M78.79,71.26c0.15,0.16,0.29,0.33,0.42,0.5c0.09,0.11,0.17,0.23,0.25,0.36
			c0,0-0.03-0.32-0.13-0.82v0c-0.06-0.27-0.14-0.59-0.26-0.94c-0.25-0.77-0.65-1.67-1.29-2.48c-0.27-0.34-0.59-0.66-0.95-0.95l0,0
			c-0.19-0.15-0.4-0.3-0.63-0.42c-0.2-0.11-0.41-0.22-0.64-0.31c0,0-0.01,0-0.01,0c-0.38-0.16-0.8-0.28-1.26-0.35
			c-0.27-0.05-0.56-0.07-0.86-0.08c-1.36-0.04-2.48-0.09-3.4-0.13c-0.69-0.03-1.27-0.07-1.76-0.1c-1.48-0.1-2.03-0.18-2.03-0.18
			s0.01,0.03,0.03,0.08v0c0.14,0.41,0.79,2.28,2.14,4.12c0,0,0,0,0,0c0,0,0,0,0,0h0c0.62,0.84,1.39,1.69,2.32,2.38
			c1.3,0.96,2.92,1.64,4.89,1.64c0.86,0,1.8-0.13,2.81-0.43c0.18-0.05,0.36-0.1,0.54-0.17c0.04-0.01,0.08-0.03,0.12-0.04
			c0,0-0.03-0.04-0.1-0.12c-0.09-0.11-0.24-0.29-0.45-0.51c-0.52-0.57-1.36-1.45-2.36-2.28c-1.06-0.87-2.29-1.69-3.5-2.03
			c0.61,0.16,2.04,0.59,3.5,1.36C77.13,69.85,78.06,70.47,78.79,71.26z M78.79,71.26c0.15,0.16,0.29,0.33,0.42,0.5
			c0.09,0.11,0.17,0.23,0.25,0.36c0,0-0.03-0.32-0.13-0.82v0c-0.06-0.27-0.14-0.59-0.26-0.94c-0.25-0.77-0.65-1.67-1.29-2.48
			c-0.27-0.34-0.59-0.66-0.95-0.95l0,0c-0.19-0.15-0.4-0.3-0.63-0.42c-0.2-0.11-0.41-0.22-0.64-0.31c0,0-0.01,0-0.01,0
			c-0.38-0.16-0.8-0.28-1.26-0.35c-0.27-0.05-0.56-0.07-0.86-0.08c-1.36-0.04-2.48-0.09-3.4-0.13c-0.69-0.03-1.27-0.07-1.76-0.1
			c-1.48-0.1-2.03-0.18-2.03-0.18s0.01,0.03,0.03,0.08v0c0.14,0.41,0.79,2.28,2.14,4.12c0,0,0,0,0,0c0,0,0,0,0,0h0
			c0.62,0.84,1.39,1.69,2.32,2.38c1.3,0.96,2.92,1.64,4.89,1.64c0.86,0,1.8-0.13,2.81-0.43c0.18-0.05,0.36-0.1,0.54-0.17
			c0.04-0.01,0.08-0.03,0.12-0.04c0,0-0.03-0.04-0.1-0.12c-0.09-0.11-0.24-0.29-0.45-0.51c-0.52-0.57-1.36-1.45-2.36-2.28
			c-1.06-0.87-2.29-1.69-3.5-2.03c0.61,0.16,2.04,0.59,3.5,1.36C77.13,69.85,78.06,70.47,78.79,71.26z M78.79,71.26
			c0.15,0.16,0.29,0.33,0.42,0.5c0.09,0.11,0.17,0.23,0.25,0.36c0,0-0.03-0.32-0.13-0.82v0c-0.06-0.27-0.14-0.59-0.26-0.94
			c-0.25-0.77-0.65-1.67-1.29-2.48c-0.27-0.34-0.59-0.66-0.95-0.95l0,0c-0.19-0.15-0.4-0.3-0.63-0.42c-0.2-0.11-0.41-0.22-0.64-0.31
			c0,0-0.01,0-0.01,0c-0.38-0.16-0.8-0.28-1.26-0.35c-0.27-0.05-0.56-0.07-0.86-0.08c-1.36-0.04-2.48-0.09-3.4-0.13
			c-0.69-0.03-1.27-0.07-1.76-0.1c-1.48-0.1-2.03-0.18-2.03-0.18s0.01,0.03,0.03,0.08v0c0.14,0.41,0.79,2.28,2.14,4.12c0,0,0,0,0,0
			c0,0,0,0,0,0h0c0.62,0.84,1.39,1.69,2.32,2.38c1.3,0.96,2.92,1.64,4.89,1.64c0.86,0,1.8-0.13,2.81-0.43
			c0.18-0.05,0.36-0.1,0.54-0.17c0.04-0.01,0.08-0.03,0.12-0.04c0,0-0.03-0.04-0.1-0.12c-0.09-0.11-0.24-0.29-0.45-0.51
			c-0.52-0.57-1.36-1.45-2.36-2.28c-1.06-0.87-2.29-1.69-3.5-2.03c0.61,0.16,2.04,0.59,3.5,1.36
			C77.13,69.85,78.06,70.47,78.79,71.26z M78.79,71.26c0.15,0.16,0.29,0.33,0.42,0.5c0.09,0.11,0.17,0.23,0.25,0.36
			c0,0-0.03-0.32-0.13-0.82v0c-0.06-0.27-0.14-0.59-0.26-0.94c-0.25-0.77-0.65-1.67-1.29-2.48c-0.27-0.34-0.59-0.66-0.95-0.95l0,0
			c-0.19-0.15-0.4-0.3-0.63-0.42c-0.2-0.11-0.41-0.22-0.64-0.31c0,0-0.01,0-0.01,0c-0.38-0.16-0.8-0.28-1.26-0.35
			c-0.27-0.05-0.56-0.07-0.86-0.08c-1.36-0.04-2.48-0.09-3.4-0.13c-0.69-0.03-1.27-0.07-1.76-0.1c-1.48-0.1-2.03-0.18-2.03-0.18
			s0.01,0.03,0.03,0.08v0c0.14,0.41,0.79,2.28,2.14,4.12c0,0,0,0,0,0c0,0,0,0,0,0h0c0.62,0.84,1.39,1.69,2.32,2.38
			c1.3,0.96,2.92,1.64,4.89,1.64c0.86,0,1.8-0.13,2.81-0.43c0.18-0.05,0.36-0.1,0.54-0.17c0.04-0.01,0.08-0.03,0.12-0.04
			c0,0-0.03-0.04-0.1-0.12c-0.09-0.11-0.24-0.29-0.45-0.51c-0.52-0.57-1.36-1.45-2.36-2.28c-1.06-0.87-2.29-1.69-3.5-2.03
			c0.61,0.16,2.04,0.59,3.5,1.36C77.13,69.85,78.06,70.47,78.79,71.26z M78.79,71.26c0.15,0.16,0.29,0.33,0.42,0.5
			c0.09,0.11,0.17,0.23,0.25,0.36c0,0-0.03-0.32-0.13-0.82v0c-0.06-0.27-0.14-0.59-0.26-0.94c-0.25-0.77-0.65-1.67-1.29-2.48
			c-0.27-0.34-0.59-0.66-0.95-0.95l0,0c-0.19-0.15-0.4-0.3-0.63-0.42c-0.2-0.11-0.41-0.22-0.64-0.31c0,0-0.01,0-0.01,0
			c-0.38-0.16-0.8-0.28-1.26-0.35c-0.27-0.05-0.56-0.07-0.86-0.08c-1.36-0.04-2.48-0.09-3.4-0.13c-0.69-0.03-1.27-0.07-1.76-0.1
			c-1.48-0.1-2.03-0.18-2.03-0.18s0.01,0.03,0.03,0.08v0c0.14,0.41,0.79,2.28,2.14,4.12c0,0,0,0,0,0c0,0,0,0,0,0h0
			c0.62,0.84,1.39,1.69,2.32,2.38c1.3,0.96,2.92,1.64,4.89,1.64c0.86,0,1.8-0.13,2.81-0.43c0.18-0.05,0.36-0.1,0.54-0.17
			c0.04-0.01,0.08-0.03,0.12-0.04c0,0-0.03-0.04-0.1-0.12c-0.09-0.11-0.24-0.29-0.45-0.51c-0.52-0.57-1.36-1.45-2.36-2.28
			c-1.06-0.87-2.29-1.69-3.5-2.03c0.61,0.16,2.04,0.59,3.5,1.36C77.13,69.85,78.06,70.47,78.79,71.26z M78.79,71.26
			c0.15,0.16,0.29,0.33,0.42,0.5c0.09,0.11,0.17,0.23,0.25,0.36c0,0-0.03-0.32-0.13-0.82v0c-0.06-0.27-0.14-0.59-0.26-0.94
			c-0.25-0.77-0.65-1.67-1.29-2.48c-0.27-0.34-0.59-0.66-0.95-0.95l0,0c-0.19-0.15-0.4-0.3-0.63-0.42c-0.2-0.11-0.41-0.22-0.64-0.31
			c0,0-0.01,0-0.01,0c-0.38-0.16-0.8-0.28-1.26-0.35c-0.27-0.05-0.56-0.07-0.86-0.08c-1.36-0.04-2.48-0.09-3.4-0.13
			c-0.69-0.03-1.27-0.07-1.76-0.1c-1.48-0.1-2.03-0.18-2.03-0.18s0.01,0.03,0.03,0.08v0c0.14,0.41,0.79,2.28,2.14,4.12c0,0,0,0,0,0
			c0,0,0,0,0,0h0c0.62,0.84,1.39,1.69,2.32,2.38c1.3,0.96,2.92,1.64,4.89,1.64c0.86,0,1.8-0.13,2.81-0.43
			c0.18-0.05,0.36-0.1,0.54-0.17c0.04-0.01,0.08-0.03,0.12-0.04c0,0-0.03-0.04-0.1-0.12c-0.09-0.11-0.24-0.29-0.45-0.51
			c-0.52-0.57-1.36-1.45-2.36-2.28c-1.06-0.87-2.29-1.69-3.5-2.03c0.61,0.16,2.04,0.59,3.5,1.36
			C77.13,69.85,78.06,70.47,78.79,71.26z M79.33,71.3L79.33,71.3c-0.06-0.27-0.14-0.59-0.26-0.94c-0.25-0.77-0.65-1.67-1.29-2.48
			c-0.27-0.34-0.59-0.66-0.95-0.95l0,0c-0.19-0.15-0.4-0.3-0.63-0.42c-0.2-0.11-0.41-0.22-0.64-0.31c0,0-0.01,0-0.01,0
			c-0.38-0.16-0.8-0.28-1.26-0.35c-0.27-0.05-0.56-0.07-0.86-0.08c-1.36-0.04-2.48-0.09-3.4-0.13c-0.69-0.03-1.27-0.07-1.76-0.1
			c-1.48-0.1-2.03-0.18-2.03-0.18s0.01,0.03,0.03,0.08v0c0.14,0.41,0.79,2.28,2.14,4.12c0,0,0,0,0,0c0,0,0,0,0,0h0
			c0.62,0.84,1.39,1.69,2.32,2.38c1.3,0.96,2.92,1.64,4.89,1.64c0.86,0,1.8-0.13,2.81-0.43c0.03-0.29,0.07-0.57,0.11-0.84
			c-0.52-0.57-1.36-1.45-2.36-2.28c-1.06-0.87-2.29-1.69-3.5-2.03c0.61,0.16,2.04,0.59,3.5,1.36c0.93,0.49,1.86,1.11,2.59,1.9
			c0.15,0.16,0.29,0.33,0.42,0.5c0.09,0.11,0.17,0.23,0.25,0.36C79.46,72.11,79.43,71.79,79.33,71.3z M76.2,70.04
			c-1.06-0.87-2.29-1.69-3.5-2.03c0.61,0.16,2.04,0.59,3.5,1.36v-2.17c-0.7-0.38-1.34-0.82-1.9-1.35c-0.27-0.05-0.56-0.07-0.86-0.08
			c-1.36-0.04-2.48-0.09-3.4-0.13c-0.69-0.03-1.27-0.07-1.76-0.1c-1.48-0.1-2.03-0.18-2.03-0.18s0.01,0.03,0.03,0.08v0
			c0.14,0.41,0.79,2.28,2.14,4.12c0,0,0,0,0,0c0,0,0,0,0,0h0c0.62,0.84,1.39,1.69,2.32,2.38c1.3,0.96,2.92,1.64,4.89,1.64
			c0.86,0,1.8-0.13,2.81-0.43c0.03-0.29,0.07-0.57,0.11-0.84C78.05,71.75,77.2,70.87,76.2,70.04z M68.28,65.53
			c-1.48-0.1-2.03-0.18-2.03-0.18s0.01,0.03,0.03,0.08v0c0.14,0.41,0.79,2.28,2.14,4.12c0,0,0,0,0,0c0,0,0,0,0,0h0l1.61-3.93
			C69.34,65.59,68.76,65.56,68.28,65.53z"/>
		<path class="st0" d="M78.39,66.98c-0.47-0.15-0.9-0.31-1.3-0.51h0c-0.27-0.21-0.56-0.4-0.88-0.56c-0.13-0.07-0.26-0.13-0.4-0.19
			c-0.37-0.26-0.71-0.55-1.01-0.85c0.5,0.1,0.96,0.26,1.41,0.46C77.03,65.71,77.77,66.27,78.39,66.98z"/>
		<path class="st0" d="M70.73,35.95c0,0-0.03-0.18-0.47-0.52c-0.43-0.35-2.35,0.03-2.9-0.23c-0.39-0.18-0.99,0.01-1.31,0.13
			c-0.06,0.03-0.11-0.05-0.07-0.1c0.35-0.4,1.28-1.31,2.8-1.49C70.76,33.51,70.73,35.95,70.73,35.95z"/>
		<path class="st0" d="M64.83,32.96c4.61-2.77,6.49-0.56,6.79-0.15c0.02,0.02,0,0.05-0.03,0.04c-2.74-0.94-5.92-0.09-6.74,0.16
			C64.82,33.02,64.81,32.98,64.83,32.96z"/>
		<path class="st0" d="M72.8,45.69c0.54,0.02,0.98-0.07,1.27-0.15c-0.13,0.62-0.68,1.08-1.3,1.06c-0.65-0.02-1.26-1.11-1.3-1.18
			C71.77,45.53,72.23,45.67,72.8,45.69z"/>
		<path class="st0" d="M76.33,42.92c0,0-3.38,2.74-6,0.13c-0.57-0.58-1.11-1.41-1.56-2.58c0.09,0.21,0.71,1.42,2.54,2.12
			C72.46,43.04,74.07,43.27,76.33,42.92z"/>
		<path class="st0" d="M78.46,32.66L78.46,32.66c0.02,0.35-0.01,0.7-0.07,1.06c0,0.01,0,0.01,0,0.01c0,0-2.16-0.63-2.76,0.65
			c-0.07,0.14-0.11,0.3-0.14,0.47c0,0,1.66-0.33,2.52,0.48v0c-0.1,0.34-0.18,0.65-0.23,0.93c-0.04-0.05-0.11-0.12-0.21-0.2
			c-0.11-0.09-0.24-0.17-0.29-0.1c-0.1,0.14-0.57,0.75-1.59,0c-0.04-0.02-0.12-0.05-0.2-0.11c0.16,1.13,0.69,2.44,0.73,3.42
			c0.02,0.36-0.17,0.67-0.46,0.94c0,0-0.01,0-0.01,0c-0.3,0.28-0.71,0.5-1.12,0.65c0,0,0,0,0,0c-0.77,0.29-1.52,0.32-1.39,0.02
			c0.25-0.6,1.9-1.11,1.94-1.71c0.03-0.6-1.05-3.49-0.51-5.3C75.22,32.05,78.46,32.66,78.46,32.66z"/>
		<path class="st0" d="M68.28,65.53L67.8,66.6l-1.53-1.17v0c-0.02-0.05-0.03-0.08-0.03-0.08S66.8,65.43,68.28,65.53z"/>
		<path class="st0" d="M76.2,65.92v0.08c-0.14-0.08-0.27-0.17-0.4-0.26C75.94,65.79,76.07,65.85,76.2,65.92z"/>
		<path class="st0" d="M76.2,66.5v2.86c-1.45-0.77-2.89-1.19-3.5-1.36c1.21,0.35,2.44,1.16,3.5,2.03v1.75l-5.45,0.15
			c-0.93-0.69-1.7-1.54-2.32-2.38l1.61-3.93c0.92,0.05,2.05,0.09,3.4,0.13c0.3,0.01,0.59,0.04,0.86,0.08
			c0.46,0.07,0.87,0.19,1.26,0.35c0,0,0.01,0,0.01,0C75.79,66.28,76,66.39,76.2,66.5z"/>
		<g>
			<g>
				<path class="st0" d="M91.01,54.57c-0.02,0.07-0.03,0.15-0.05,0.22 M91.03,54.46c0,0.01,0,0.02-0.01,0.03c0,0,0,0,0,0
					c-0.01,0.03-0.01,0.06-0.02,0.08c-0.02,0.07-0.03,0.15-0.05,0.22c-0.01,0.03-0.02,0.07-0.03,0.1 M83.5,65.47
					c0.02,0,0.04,0,0.05,0c0.06,0,0.12-0.01,0.18-0.02c0.12-0.17,0.24-0.33,0.37-0.5C84.07,64.98,83.84,65.15,83.5,65.47z
					 M84.61,65.97c0.01,0,0.02,0.01,0.02,0.01c0.01-0.01,0.02-0.02,0.03-0.04C84.64,65.95,84.62,65.96,84.61,65.97z"/>
				<path class="st0" d="M94.88,45.31c0,0-0.36,2.55-0.63,10.71c-0.21,6.68-6.43,8.42-8.67,8.82c-0.18,0.03-0.33,0.06-0.46,0.07
					c-0.22,0.03-0.34,0.04-0.34,0.04c0.11-0.07,0.22-0.14,0.32-0.22c0.08-0.05,0.16-0.11,0.24-0.18c3.48-2.63,5.14-8.06,5.57-9.66
					c-1,3.5-4.68,7.14-6.43,8.71c-0.13,0.11-0.24,0.21-0.34,0.3c-0.38,0.33-0.6,0.51-0.6,0.51c-0.03-0.1-0.07-0.19-0.1-0.29
					c-0.24-0.71-0.42-1.39-0.55-2.06C80.41,49.68,94.88,45.31,94.88,45.31z"/>
			</g>
			<g>
				<path class="st0" d="M76.83,66.92c-0.22-0.1-0.42-0.21-0.63-0.33c-0.22-0.12-0.43-0.26-0.64-0.41c0.23,0.09,0.44,0.2,0.64,0.31
					C76.42,66.63,76.63,66.77,76.83,66.92z"/>
				<path class="st0" d="M77.08,66.48c-0.32-0.15-0.61-0.31-0.88-0.49c-0.14-0.08-0.27-0.17-0.4-0.26c0.14,0.06,0.27,0.12,0.4,0.19
					C76.52,66.08,76.82,66.27,77.08,66.48z"/>
				<path class="st0" d="M80.58,67.27C80.58,67.27,80.58,67.28,80.58,67.27c0,0.01,0.01,0.02,0.01,0.02c0,0,0.01-0.01,0.01-0.02
					C80.59,67.27,80.59,67.27,80.58,67.27z M76.2,65.92c-0.13-0.07-0.26-0.13-0.4-0.19c0.13,0.09,0.26,0.18,0.4,0.26
					c0.28,0.18,0.57,0.34,0.88,0.49C76.82,66.27,76.52,66.08,76.2,65.92z M76.83,66.93L76.83,66.93c-0.2-0.16-0.41-0.3-0.63-0.43
					c-0.2-0.11-0.41-0.22-0.64-0.31c0,0-0.01,0-0.01,0c-0.38-0.16-0.8-0.28-1.26-0.35c0.57,0.53,1.2,0.97,1.9,1.35
					c0.5,0.27,1.02,0.49,1.58,0.68C77.51,67.53,77.19,67.21,76.83,66.93z M76.2,65.92c-0.13-0.07-0.26-0.13-0.4-0.19
					c0.13,0.09,0.26,0.18,0.4,0.26c0.28,0.18,0.57,0.34,0.88,0.49C76.82,66.27,76.52,66.08,76.2,65.92z M76.5,59.7L76.5,59.7
					L76.5,59.7c0.08,0.07,0.16,0.14,0.23,0.21 M77.09,66.48L77.09,66.48 M77.09,66.48L77.09,66.48 M75.8,65.73
					c0.13,0.09,0.26,0.18,0.4,0.26c0.28,0.18,0.57,0.34,0.88,0.49 M77.09,66.48L77.09,66.48"/>
				<path class="st0" d="M76.74,59.92c2.36,2.28,3.34,7.45,3.34,7.45c-0.61-0.1-1.17-0.23-1.69-0.39c-0.62-0.72-1.35-1.27-2.18-1.65
					c-0.44-0.2-0.91-0.35-1.41-0.46c-1.26-1.25-1.97-2.81-2.35-4.32c-0.19-0.75-0.3-1.5-0.35-2.19c-0.17-2.18,0.17-3.88,0.17-3.88
					s1.4,1.03,6.2,3.8c1.03,0.59,1.72,1.32,2.18,2.1c1.67,2.86,0.14,6.41,0.14,6.41C80.56,63.7,77.6,60.72,76.74,59.92z"/>
			</g>
			<g>
				<path class="st0" d="M77.08,66.48c-0.32-0.15-0.61-0.31-0.88-0.49c-0.14-0.08-0.27-0.17-0.4-0.26c0.14,0.06,0.27,0.12,0.4,0.19
					C76.52,66.08,76.82,66.27,77.08,66.48z"/>
				<path class="st0" d="M76.2,69.36c-1.45-0.77-2.89-1.19-3.5-1.36c1.21,0.35,2.44,1.16,3.5,2.03c1,0.83,1.85,1.71,2.36,2.28
					c0.21,0.23,0.36,0.41,0.45,0.51c0.07,0.08,0.1,0.12,0.1,0.12c-0.04,0.01-0.08,0.03-0.12,0.04c-0.18,0.06-0.37,0.12-0.54,0.17
					c-1.01,0.3-1.94,0.43-2.81,0.43c-1.98,0-3.59-0.68-4.89-1.64c-0.93-0.69-1.7-1.54-2.32-2.38h0c0,0,0,0,0,0c0,0,0,0,0,0
					c-1.35-1.84-2.01-3.71-2.14-4.12v0c-0.02-0.05-0.03-0.08-0.03-0.08s0.55,0.08,2.03,0.18c0.48,0.03,1.06,0.07,1.76,0.1
					c0.92,0.05,2.05,0.09,3.4,0.13c0.3,0.01,0.59,0.04,0.86,0.08c0.46,0.07,0.87,0.19,1.26,0.35c0,0,0.01,0,0.01,0
					c0.23,0.09,0.44,0.2,0.64,0.31c0.22,0.13,0.43,0.27,0.63,0.42l0,0c0.37,0.29,0.68,0.61,0.95,0.95c0.64,0.8,1.04,1.71,1.29,2.48
					c0.12,0.35,0.2,0.67,0.26,0.94v0c0.11,0.5,0.13,0.82,0.13,0.82c-0.08-0.12-0.16-0.24-0.25-0.36c-0.13-0.17-0.27-0.34-0.42-0.5
					C78.06,70.47,77.13,69.85,76.2,69.36z"/>
				<path class="st0" d="M79.56,72.62L79.56,72.62c-0.01,0-0.03,0.01-0.04,0.01C79.53,72.63,79.54,72.62,79.56,72.62z"/>
				<path class="st0" d="M79.61,73.09c-0.03,0.09-0.08,0.17-0.14,0.23c0.02-0.22,0.05-0.44,0.08-0.65
					C79.63,72.8,79.65,72.95,79.61,73.09z"/>
				<path class="st0" d="M79.97,72.07c0.02,0.24-0.12,0.46-0.35,0.54c-0.02,0.01-0.05,0.01-0.07,0.02c0.07-0.46,0.17-0.9,0.29-1.32
					C79.94,71.76,79.97,72.05,79.97,72.07z"/>
				<path class="st0" d="M80.16,70.37c-0.11,0.3-0.22,0.61-0.31,0.93c-0.12,0.42-0.22,0.86-0.29,1.32c-0.01,0-0.03,0.01-0.04,0.01
					c0.01,0.01,0.02,0.03,0.03,0.05v0c-0.03,0.21-0.06,0.43-0.08,0.65v0c-0.02,0.2-0.03,0.4-0.04,0.61c0.01,0,0.02-0.01,0.03-0.01
					c0.32-0.11,0.56-0.37,0.66-0.69c0.03-0.11,0.04-0.23,0.04-0.35c0.24-0.21,0.38-0.53,0.35-0.86
					C80.49,71.98,80.42,71.3,80.16,70.37z M78.79,71.26c0.15,0.16,0.29,0.33,0.42,0.5c0.09,0.11,0.17,0.23,0.25,0.36
					c0,0-0.03-0.32-0.13-0.82v0c-0.06-0.27-0.14-0.59-0.26-0.94c-0.25-0.77-0.65-1.67-1.29-2.48c-0.27-0.34-0.59-0.66-0.95-0.95l0,0
					c-0.19-0.15-0.4-0.3-0.63-0.42c-0.2-0.11-0.41-0.22-0.64-0.31c0,0-0.01,0-0.01,0c-0.38-0.16-0.8-0.28-1.26-0.35
					c-0.27-0.05-0.56-0.07-0.86-0.08c-1.36-0.04-2.48-0.09-3.4-0.13c-0.69-0.03-1.27-0.07-1.76-0.1c-1.48-0.1-2.03-0.18-2.03-0.18
					s0.01,0.03,0.03,0.08v0c0.14,0.41,0.79,2.28,2.14,4.12c0,0,0,0,0,0c0,0,0,0,0,0h0c0.62,0.84,1.39,1.69,2.32,2.38
					c1.3,0.96,2.92,1.64,4.89,1.64c0.86,0,1.8-0.13,2.81-0.43c0.18-0.05,0.36-0.1,0.54-0.17c0.04-0.01,0.08-0.03,0.12-0.04
					c0,0-0.03-0.04-0.1-0.12c-0.09-0.11-0.24-0.29-0.45-0.51c-0.52-0.57-1.36-1.45-2.36-2.28c-1.06-0.87-2.29-1.69-3.5-2.03
					c0.61,0.16,2.04,0.59,3.5,1.36C77.13,69.85,78.06,70.47,78.79,71.26z M76.2,65.92c-0.13-0.07-0.26-0.13-0.4-0.19
					c0.13,0.09,0.26,0.18,0.4,0.26c0.28,0.18,0.57,0.34,0.88,0.49C76.82,66.27,76.52,66.08,76.2,65.92z M78.79,71.26
					c0.15,0.16,0.29,0.33,0.42,0.5c0.09,0.11,0.17,0.23,0.25,0.36c0,0-0.03-0.32-0.13-0.82v0c-0.06-0.27-0.14-0.59-0.26-0.94
					c-0.25-0.77-0.65-1.67-1.29-2.48c-0.27-0.34-0.59-0.66-0.95-0.95l0,0c-0.19-0.15-0.4-0.3-0.63-0.42
					c-0.2-0.11-0.41-0.22-0.64-0.31c0,0-0.01,0-0.01,0c-0.38-0.16-0.8-0.28-1.26-0.35c-0.27-0.05-0.56-0.07-0.86-0.08
					c-1.36-0.04-2.48-0.09-3.4-0.13c-0.69-0.03-1.27-0.07-1.76-0.1c-1.48-0.1-2.03-0.18-2.03-0.18s0.01,0.03,0.03,0.08v0
					c0.14,0.41,0.79,2.28,2.14,4.12c0,0,0,0,0,0c0,0,0,0,0,0h0c0.62,0.84,1.39,1.69,2.32,2.38c1.3,0.96,2.92,1.64,4.89,1.64
					c0.86,0,1.8-0.13,2.81-0.43c0.18-0.05,0.36-0.1,0.54-0.17c0.04-0.01,0.08-0.03,0.12-0.04c0,0-0.03-0.04-0.1-0.12
					c-0.09-0.11-0.24-0.29-0.45-0.51c-0.52-0.57-1.36-1.45-2.36-2.28c-1.06-0.87-2.29-1.69-3.5-2.03c0.61,0.16,2.04,0.59,3.5,1.36
					C77.13,69.85,78.06,70.47,78.79,71.26z M72.4,67.93c0.01,0,0.03,0.01,0.04,0.01c0.04,0.01,0.1,0.03,0.18,0.05
					c0.02,0,0.04,0.01,0.07,0.02 M76.2,66.5c0.22,0.13,0.43,0.27,0.63,0.42l0,0c0.37,0.29,0.68,0.61,0.95,0.95
					c0.64,0.8,1.04,1.71,1.29,2.48c0.12,0.35,0.2,0.67,0.26,0.94v0c0.11,0.5,0.13,0.82,0.13,0.82c-0.08-0.12-0.16-0.24-0.25-0.36
					c-0.13-0.17-0.27-0.34-0.42-0.5c-0.73-0.78-1.67-1.41-2.59-1.9c-1.45-0.77-2.89-1.19-3.5-1.36c1.21,0.35,2.44,1.16,3.5,2.03
					c1,0.83,1.85,1.71,2.36,2.28c0.21,0.23,0.36,0.41,0.45,0.51c0.07,0.08,0.1,0.12,0.1,0.12c-0.04,0.01-0.08,0.03-0.12,0.04
					c-0.18,0.06-0.37,0.12-0.54,0.17c-1.01,0.3-1.94,0.43-2.81,0.43c-1.98,0-3.59-0.68-4.89-1.64c-0.93-0.69-1.7-1.54-2.32-2.38h0
					c0,0,0,0,0,0c0,0,0,0,0,0c-1.35-1.84-2.01-3.71-2.14-4.12v0c-0.02-0.05-0.03-0.08-0.03-0.08s0.55,0.08,2.03,0.18
					c0.48,0.03,1.06,0.07,1.76,0.1c0.92,0.05,2.05,0.09,3.4,0.13c0.3,0.01,0.59,0.04,0.86,0.08c0.46,0.07,0.87,0.19,1.26,0.35
					c0,0,0.01,0,0.01,0C75.79,66.28,76,66.39,76.2,66.5"/>
			</g>
			<g>
				<path class="st0" d="M84.66,65.94c-0.01,0.01-0.02,0.03-0.03,0.04c-0.01,0-0.02,0-0.02-0.01
					C84.62,65.96,84.64,65.95,84.66,65.94z"/>
				<path class="st0" d="M88.41,67.76c-0.15,0.05-0.3,0.11-0.45,0.18c0-0.01-0.01-0.01-0.01-0.02
					C88.13,67.86,88.29,67.8,88.41,67.76z"/>
				<path class="st0" d="M84.61,65.97c0.01,0,0.02,0.01,0.02,0.01c0.01-0.01,0.02-0.02,0.03-0.04
					C84.64,65.95,84.62,65.96,84.61,65.97z M87.95,67.93c0.01,0.01,0.01,0.01,0.01,0.02c0.15-0.07,0.3-0.13,0.45-0.18
					C88.29,67.8,88.13,67.86,87.95,67.93z M81.68,68.7c-0.8,1.8-0.86,3.52-0.86,3.59c-0.01,0.24,0.07,0.46,0.2,0.64
					c0.12-1.78,0.6-3.93,1.84-6.12C82.4,67.35,82.01,67.98,81.68,68.7z M88.42,67.76c0.03-0.01,0.06-0.02,0.08-0.03
					c0.03-0.01,0.05-0.02,0.08-0.02c0.01-0.01,0.02-0.01,0.03-0.01c0.02-0.01,0.04-0.01,0.06-0.02c0.01,0,0.01-0.01,0.02-0.01
					c0.01,0,0.02-0.01,0.02-0.01"/>
				<path class="st0" d="M94.75,64.7c0,0-1.08,4.52-4.38,7.11c-1.33,1.04-3.01,1.77-5.13,1.77c-0.91,0-1.91-0.13-2.99-0.44
					c0,0,2.76-3.88,5.7-5.19c0.15-0.07,0.3-0.13,0.45-0.18c-0.12,0.04-0.28,0.1-0.47,0.16c-1.39,0.51-4.3,1.77-5.77,3.88
					c-0.12,0.17-0.22,0.34-0.32,0.51c0,0,0.07-2.89,1.85-4.89c0.64-0.72,1.49-1.33,2.65-1.66c0.36-0.1,0.75-0.17,1.18-0.21
					C93.04,65.05,94.75,64.7,94.75,64.7z"/>
			</g>
			<g>
				<path class="st0" d="M79.11,72.95c-0.04,0.01-0.08,0.03-0.12,0.04c0.01-0.05,0.01-0.11,0.02-0.16
					C79.08,72.91,79.11,72.95,79.11,72.95z"/>
				<path class="st0" d="M79.46,72.11c-0.08-0.12-0.16-0.24-0.25-0.36c0.04-0.16,0.07-0.31,0.12-0.46
					C79.43,71.79,79.46,72.11,79.46,72.11z"/>
				<path class="st0" d="M80.62,68.25c-0.03,0.04-0.05,0.09-0.08,0.13C80.57,68.34,80.59,68.3,80.62,68.25L80.62,68.25z"/>
			</g>
		</g>
		<g>
			<path class="st0" d="M76.36,89.08c10.8,1,18.75-1.76,18.75-1.76l0.49-3.77c-4.98,0.61-10.03,0.91-15.03,0.91h-0.28
				c-4.91-0.01-9.87-0.32-14.75-0.91l0.65,5.01c0.9-0.55,1.79-1.05,2.43-1.58c1.57-1.27,2.24-1.89,2.24-1.89s0.34,0.16,0.47,1.04
				c0.13,0.88-1.6,2.65-2.87,3.98c-1.27,1.34-0.98,1.6-0.98,1.6c2.48,3.95,10.45,3.43,9.57,4.48c-0.88,1.04-6.69,0.33-6.69,0.33
				c1.93,1.63,7.25,1.63,5.72,2.22c-1.54,0.59-6.24-0.03-6.24-0.03c1.14,0.82,3.98,1.18,4.8,1.04c0.82-0.13,1.37,0.2,0.95,0.49
				c-2.51,1.13-5.31,1.13-7.78,0.72l0.13,1c0.13,1,0.95,1.8,2,1.94c1.13,0.15,2.26,0.24,3.39,0.39c2.43,0.34,4.87,0.51,7.32,0.51
				c1.72,0,3.43-0.08,5.13-0.25c0.44-0.04,0.88-0.09,1.32-0.15c1.37-0.17,2.74-0.33,4.1-0.5c1.06-0.13,1.9-0.93,2.02-1.94l0.94-7.22
				c-0.23,0.06-0.47,0.12-0.69,0.17c-6.73,1.6-11.98,0.45-14.68-0.46c-0.33-0.11-0.23-0.6,0.12-0.57c8.4,0.78,14.72-1.17,15.55-1.43
				v0l0.31-2.39c-8.52,2.26-15.18,0.82-18.54-0.32C75.81,89.62,75.94,89.04,76.36,89.08z"/>
		</g>
		<g>
			<path class="st0" d="M97.31,77.47v3.43c0,0.44-0.18,0.84-0.48,1.12c-0.16,0.16-0.35,0.28-0.57,0.36
				c-0.11,0.04-0.22,0.07-0.34,0.08c-0.07,0.01-0.13,0.02-0.2,0.02c-0.11,0.02-0.22,0.03-0.33,0.04c-4.49,0.55-9.46,0.9-14.84,0.9
				h-0.28c-5.4-0.01-10.39-0.38-14.9-0.94c-0.07-0.01-0.14-0.02-0.2-0.03c-0.12-0.01-0.23-0.04-0.33-0.08
				c-0.22-0.08-0.41-0.2-0.57-0.36c-0.3-0.29-0.48-0.69-0.48-1.13v-3.43c0-0.87,0.71-1.58,1.57-1.58c0.03,0,0.06,0,0.1,0
				c4.17,0.26,8.52,0.42,13.04,0.46c0.18,0,0.35,0,0.53,0c0.17,0,0.35,0,0.53,0c0.3,0,0.59,0,0.89,0h0.1c0.21,0,0.42,0,0.64,0
				c0.18,0,0.35,0,0.53,0c0.17,0,0.35,0,0.52,0c3.56-0.02,7.01-0.13,10.35-0.29c1.02-0.05,2.04-0.11,3.04-0.17c0.03,0,0.07,0,0.1,0
				C96.61,75.9,97.31,76.6,97.31,77.47z"/>
		</g>
		<path class="st0" d="M65.24,12.82c-0.76-0.42-1.66-0.51-2.48-0.24c-2.92,0.96-10.01,3.61-14.05,7.81
			c-0.44,0.46-0.74,1.03-0.9,1.64c-0.35,1.37-0.95,4.12-1.14,7.35C56.8,17.46,66.49,17.02,66.49,17.02
			C55.94,19.45,49.34,28.35,47.1,31.86c2.22-2.39,11.96-11.98,27.04-14.04L65.24,12.82z"/>
		<path class="st0" d="M70.73,35.95c0,0-0.03-0.18-0.47-0.52c-0.43-0.35-2.35,0.03-2.9-0.23c-0.39-0.18-0.99,0.01-1.31,0.13
			c-0.06,0.03-0.11-0.05-0.07-0.1c0.35-0.4,1.28-1.31,2.8-1.49C70.76,33.51,70.73,35.95,70.73,35.95z"/>
		<path class="st0" d="M71.59,32.85c-2.74-0.94-5.92-0.09-6.74,0.16c-0.03,0.01-0.04-0.03-0.02-0.05c4.61-2.77,6.49-0.56,6.79-0.15
			C71.64,32.83,71.62,32.86,71.59,32.85z"/>
		<path class="st0" d="M78.49,33.21c-0.02,0.2-0.05,0.37-0.09,0.5c0,0.01,0,0.01,0,0.01c0,0-2.16-0.63-2.76,0.65
			c-0.07,0.14-0.11,0.3-0.14,0.47c-0.05,0.31-0.04,0.64,0.01,0.99v0c0.16,1.13,0.69,2.44,0.73,3.42c0.02,0.36-0.17,0.67-0.46,0.94
			c0,0-0.01,0-0.01,0c-0.3,0.28-0.71,0.5-1.12,0.65c0,0,0,0,0,0c-0.77,0.29-1.52,0.32-1.39,0.02c0.25-0.6,1.9-1.11,1.94-1.71
			c0.03-0.6-1.05-3.49-0.51-5.3c0.54-1.81,3.78-1.21,3.78-1.21v0C78.48,32.81,78.5,32.99,78.49,33.21z"/>
		<path class="st0" d="M78.01,35.31L78.01,35.31c0,0.12,0,0.25-0.03,0.41c-0.04,0.23-0.12,0.4-0.19,0.52
			c-0.04-0.05-0.11-0.12-0.21-0.2c-0.11-0.09-0.24-0.17-0.29-0.1c-0.1,0.14-0.57,0.75-1.59,0c-0.04-0.02-0.12-0.05-0.2-0.11v0
			c-0.06-0.04-0.11-0.11-0.16-0.19c-0.13-0.25-0.07-0.57,0.15-0.8C75.49,34.84,77.15,34.51,78.01,35.31z"/>
		<path class="st0" d="M76.33,42.92c0,0-3.38,2.74-6,0.13c-0.57-0.58-1.11-1.41-1.56-2.58c0.09,0.21,0.71,1.42,2.54,2.12
			C72.46,43.04,74.07,43.27,76.33,42.92z"/>
		<path class="st0" d="M74.07,45.54c-0.13,0.62-0.68,1.08-1.3,1.06c-0.65-0.02-1.26-1.11-1.3-1.18c0.3,0.11,0.76,0.25,1.33,0.27
			C73.33,45.71,73.77,45.62,74.07,45.54z"/>
		<path class="st0" d="M75.72,35.53L75.72,35.53z"/>
	</g>
	<path class="st0" d="M44.88,30.89c0,0-4.77-3.66-9.99-1.22C34.89,29.67,41.55,36.11,44.88,30.89z"/>
	<path class="st0" d="M44.6,29.34c0,0-0.05-3.1-2.71-4.43C41.89,24.91,41.42,29.67,44.6,29.34z"/>
</g>
</svg>
