<?xml version="1.0" encoding="utf-8"?>
<!-- Generator: Adobe Illustrator 28.3.0, SVG Export Plug-In . SVG Version: 6.00 Build 0)  -->
<svg version="1.1" id="Layer_1" xmlns="http://www.w3.org/2000/svg" xmlns:xlink="http://www.w3.org/1999/xlink" x="0px" y="0px"
	 viewBox="0 0 16 16" style="enable-background:new 0 0 16 16;" xml:space="preserve">
<style type="text/css">
	.st0{fill:#2B623D;}
</style>
<g>
	<g>
		<path class="st0" d="M8.42,4.4c-0.05-0.02-0.12,0-0.16,0.02c-0.01,0-0.01-0.01-0.01-0.01C8.29,4.35,8.41,4.24,8.6,4.22
			c0.25-0.03,0.24,0.28,0.24,0.28s0-0.02-0.06-0.07C8.73,4.38,8.49,4.43,8.42,4.4z"/>
		<path class="st0" d="M8.91,5.32C8.87,5.34,8.83,5.36,8.79,5.38c0,0,0,0,0,0C8.72,5.31,8.65,5.21,8.6,5.06
			C8.61,5.09,8.69,5.24,8.91,5.32z"/>
		<path class="st0" d="M8.95,4.1C8.95,4.1,8.95,4.11,8.95,4.1C8.61,3.99,8.21,4.1,8.11,4.13c0,0-0.01,0,0-0.01
			C8.68,3.77,8.92,4.05,8.95,4.1z"/>
		<path class="st0" d="M11.08,2.9c-0.3-0.65-1.81-0.6-3.37,0.12C6.15,3.74,5.12,4.85,5.42,5.5C5.6,5.89,6.21,6.03,7,5.92
			C7.21,5.9,7.43,5.85,7.66,5.79C7.51,5.62,7.41,5.38,7.41,5.07c0,0-0.46-0.18-0.36-0.53C7.14,4.2,7.82,4.6,8.41,3.56
			c0.05-0.09,0.13-0.15,0.23-0.19c0.21-0.09,0.6-0.16,1.06,0.2C9.74,3.6,9.77,3.65,9.77,3.71c0,0.08,0.02,0.22,0.03,0.34
			c0,0.01,0,0.02,0,0.03c0,0-0.41-0.08-0.47,0.15C9.27,4.46,9.4,4.82,9.4,4.9c0,0.08-0.21,0.14-0.24,0.21
			c-0.02,0.04,0.08,0.03,0.17,0c0,0,0,0,0,0c0.05-0.03,0.09-0.05,0.14-0.08c0,0,0,0,0,0c0.04-0.03,0.06-0.07,0.06-0.12
			C9.52,4.78,9.46,4.62,9.44,4.48c0.01,0.01,0.02,0.01,0.02,0.01c0.13,0.09,0.19,0.02,0.2,0c0.01-0.01,0.02,0,0.04,0.01
			c0.01,0.01,0.02,0.02,0.03,0.02c0,0.03-0.01,0.05,0,0.07c0.01,0.05,0.03,0.14,0.05,0.24c0.09-0.06,0.18-0.12,0.26-0.18
			C10.85,4.04,11.29,3.36,11.08,2.9z M9.75,4.41c-0.11-0.1-0.31-0.06-0.31-0.06c0-0.02,0.01-0.04,0.02-0.06
			C9.53,4.14,9.8,4.22,9.8,4.22C9.79,4.28,9.77,4.35,9.75,4.41z"/>
		<path class="st0" d="M8.54,8.19C8.35,8.18,8.28,8.17,8.28,8.17s0,0,0,0.01v0c0.02,0.05,0.1,0.28,0.27,0.51c0,0,0,0,0,0
			c0,0,0,0,0,0h0l0.2-0.49C8.67,8.2,8.6,8.2,8.54,8.19z M9.53,8.75C9.39,8.65,9.24,8.54,9.09,8.5c0.08,0.02,0.26,0.07,0.44,0.17V8.4
			C9.44,8.35,9.36,8.3,9.29,8.23C9.25,8.22,9.22,8.22,9.18,8.22c-0.17,0-0.31-0.01-0.43-0.02C8.67,8.2,8.6,8.2,8.54,8.19
			C8.35,8.18,8.28,8.17,8.28,8.17s0,0,0,0.01v0c0.02,0.05,0.1,0.28,0.27,0.51c0,0,0,0,0,0c0,0,0,0,0,0h0
			c0.08,0.11,0.17,0.21,0.29,0.3C9.01,9.11,9.21,9.2,9.46,9.2c0.11,0,0.22-0.02,0.35-0.05c0-0.04,0.01-0.07,0.01-0.1
			C9.76,8.97,9.65,8.86,9.53,8.75z M9.92,8.91L9.92,8.91C9.91,8.88,9.9,8.84,9.88,8.79C9.85,8.7,9.8,8.58,9.72,8.48
			C9.69,8.44,9.65,8.4,9.6,8.37l0,0C9.58,8.35,9.55,8.33,9.53,8.31C9.5,8.3,9.47,8.29,9.45,8.27c0,0,0,0,0,0
			C9.4,8.25,9.34,8.24,9.29,8.23C9.25,8.22,9.22,8.22,9.18,8.22c-0.17,0-0.31-0.01-0.43-0.02C8.67,8.2,8.6,8.2,8.54,8.19
			C8.35,8.18,8.28,8.17,8.28,8.17s0,0,0,0.01v0c0.02,0.05,0.1,0.28,0.27,0.51c0,0,0,0,0,0c0,0,0,0,0,0h0
			c0.08,0.11,0.17,0.21,0.29,0.3C9.01,9.11,9.21,9.2,9.46,9.2c0.11,0,0.22-0.02,0.35-0.05c0-0.04,0.01-0.07,0.01-0.1
			c-0.06-0.07-0.17-0.18-0.3-0.29C9.39,8.65,9.24,8.54,9.09,8.5c0.08,0.02,0.26,0.07,0.44,0.17c0.12,0.06,0.23,0.14,0.32,0.24
			C9.87,8.93,9.89,8.95,9.9,8.97C9.91,8.98,9.92,9,9.93,9.01C9.93,9.01,9.93,8.97,9.92,8.91z M9.85,8.91
			C9.87,8.93,9.89,8.95,9.9,8.97C9.91,8.98,9.92,9,9.93,9.01c0,0,0-0.04-0.02-0.1v0C9.91,8.88,9.9,8.84,9.88,8.79
			C9.85,8.7,9.8,8.58,9.72,8.48C9.69,8.44,9.65,8.4,9.6,8.37l0,0C9.58,8.35,9.55,8.33,9.53,8.31C9.5,8.3,9.47,8.29,9.45,8.27
			c0,0,0,0,0,0C9.4,8.25,9.34,8.24,9.29,8.23C9.25,8.22,9.22,8.22,9.18,8.22c-0.17,0-0.31-0.01-0.43-0.02
			C8.67,8.2,8.6,8.2,8.54,8.19C8.35,8.18,8.28,8.17,8.28,8.17s0,0,0,0.01v0c0.02,0.05,0.1,0.28,0.27,0.51c0,0,0,0,0,0c0,0,0,0,0,0h0
			c0.08,0.11,0.17,0.21,0.29,0.3C9.01,9.11,9.21,9.2,9.46,9.2c0.11,0,0.22-0.02,0.35-0.05c0.02-0.01,0.04-0.01,0.07-0.02
			c0,0,0.01,0,0.01,0c0,0,0-0.01-0.01-0.01C9.87,9.09,9.85,9.07,9.82,9.04c-0.06-0.07-0.17-0.18-0.3-0.29
			C9.39,8.65,9.24,8.54,9.09,8.5c0.08,0.02,0.26,0.07,0.44,0.17C9.64,8.73,9.76,8.81,9.85,8.91z M9.85,8.91
			C9.87,8.93,9.89,8.95,9.9,8.97C9.91,8.98,9.92,9,9.93,9.01c0,0,0-0.04-0.02-0.1v0C9.91,8.88,9.9,8.84,9.88,8.79
			C9.85,8.7,9.8,8.58,9.72,8.48C9.69,8.44,9.65,8.4,9.6,8.37l0,0C9.58,8.35,9.55,8.33,9.53,8.31C9.5,8.3,9.47,8.29,9.45,8.27
			c0,0,0,0,0,0C9.4,8.25,9.34,8.24,9.29,8.23C9.25,8.22,9.22,8.22,9.18,8.22c-0.17,0-0.31-0.01-0.43-0.02
			C8.67,8.2,8.6,8.2,8.54,8.19C8.35,8.18,8.28,8.17,8.28,8.17s0,0,0,0.01v0c0.02,0.05,0.1,0.28,0.27,0.51c0,0,0,0,0,0c0,0,0,0,0,0h0
			c0.08,0.11,0.17,0.21,0.29,0.3C9.01,9.11,9.21,9.2,9.46,9.2c0.11,0,0.22-0.02,0.35-0.05c0.02-0.01,0.04-0.01,0.07-0.02
			c0,0,0.01,0,0.01,0c0,0,0-0.01-0.01-0.01C9.87,9.09,9.85,9.07,9.82,9.04c-0.06-0.07-0.17-0.18-0.3-0.29
			C9.39,8.65,9.24,8.54,9.09,8.5c0.08,0.02,0.26,0.07,0.44,0.17C9.64,8.73,9.76,8.81,9.85,8.91z M9.85,8.91
			C9.87,8.93,9.89,8.95,9.9,8.97C9.91,8.98,9.92,9,9.93,9.01c0,0,0-0.04-0.02-0.1v0C9.91,8.88,9.9,8.84,9.88,8.79
			C9.85,8.7,9.8,8.58,9.72,8.48C9.69,8.44,9.65,8.4,9.6,8.37l0,0C9.58,8.35,9.55,8.33,9.53,8.31C9.5,8.3,9.47,8.29,9.45,8.27
			c0,0,0,0,0,0C9.4,8.25,9.34,8.24,9.29,8.23C9.25,8.22,9.22,8.22,9.18,8.22c-0.17,0-0.31-0.01-0.43-0.02
			C8.67,8.2,8.6,8.2,8.54,8.19C8.35,8.18,8.28,8.17,8.28,8.17s0,0,0,0.01v0c0.02,0.05,0.1,0.28,0.27,0.51c0,0,0,0,0,0c0,0,0,0,0,0h0
			c0.08,0.11,0.17,0.21,0.29,0.3C9.01,9.11,9.21,9.2,9.46,9.2c0.11,0,0.22-0.02,0.35-0.05c0.02-0.01,0.04-0.01,0.07-0.02
			c0,0,0.01,0,0.01,0c0,0,0-0.01-0.01-0.01C9.87,9.09,9.85,9.07,9.82,9.04c-0.06-0.07-0.17-0.18-0.3-0.29
			C9.39,8.65,9.24,8.54,9.09,8.5c0.08,0.02,0.26,0.07,0.44,0.17C9.64,8.73,9.76,8.81,9.85,8.91z M9.85,8.91
			C9.87,8.93,9.89,8.95,9.9,8.97C9.91,8.98,9.92,9,9.93,9.01c0,0,0-0.04-0.02-0.1v0C9.91,8.88,9.9,8.84,9.88,8.79
			C9.85,8.7,9.8,8.58,9.72,8.48C9.69,8.44,9.65,8.4,9.6,8.37l0,0C9.58,8.35,9.55,8.33,9.53,8.31C9.5,8.3,9.47,8.29,9.45,8.27
			c0,0,0,0,0,0C9.4,8.25,9.34,8.24,9.29,8.23C9.25,8.22,9.22,8.22,9.18,8.22c-0.17,0-0.31-0.01-0.43-0.02
			C8.67,8.2,8.6,8.2,8.54,8.19C8.35,8.18,8.28,8.17,8.28,8.17s0,0,0,0.01v0c0.02,0.05,0.1,0.28,0.27,0.51c0,0,0,0,0,0c0,0,0,0,0,0h0
			c0.08,0.11,0.17,0.21,0.29,0.3C9.01,9.11,9.21,9.2,9.46,9.2c0.11,0,0.22-0.02,0.35-0.05c0.02-0.01,0.04-0.01,0.07-0.02
			c0,0,0.01,0,0.01,0c0,0,0-0.01-0.01-0.01C9.87,9.09,9.85,9.07,9.82,9.04c-0.06-0.07-0.17-0.18-0.3-0.29
			C9.39,8.65,9.24,8.54,9.09,8.5c0.08,0.02,0.26,0.07,0.44,0.17C9.64,8.73,9.76,8.81,9.85,8.91z M9.85,8.91
			C9.87,8.93,9.89,8.95,9.9,8.97C9.91,8.98,9.92,9,9.93,9.01c0,0,0-0.04-0.02-0.1v0C9.91,8.88,9.9,8.84,9.88,8.79
			C9.85,8.7,9.8,8.58,9.72,8.48C9.69,8.44,9.65,8.4,9.6,8.37l0,0C9.58,8.35,9.55,8.33,9.53,8.31C9.5,8.3,9.47,8.29,9.45,8.27
			c0,0,0,0,0,0C9.4,8.25,9.34,8.24,9.29,8.23C9.25,8.22,9.22,8.22,9.18,8.22c-0.17,0-0.31-0.01-0.43-0.02
			C8.67,8.2,8.6,8.2,8.54,8.19C8.35,8.18,8.28,8.17,8.28,8.17s0,0,0,0.01v0c0.02,0.05,0.1,0.28,0.27,0.51c0,0,0,0,0,0c0,0,0,0,0,0h0
			c0.08,0.11,0.17,0.21,0.29,0.3C9.01,9.11,9.21,9.2,9.46,9.2c0.11,0,0.22-0.02,0.35-0.05c0.02-0.01,0.04-0.01,0.07-0.02
			c0,0,0.01,0,0.01,0c0,0,0-0.01-0.01-0.01C9.87,9.09,9.85,9.07,9.82,9.04c-0.06-0.07-0.17-0.18-0.3-0.29
			C9.39,8.65,9.24,8.54,9.09,8.5c0.08,0.02,0.26,0.07,0.44,0.17C9.64,8.73,9.76,8.81,9.85,8.91z M9.85,8.91
			C9.87,8.93,9.89,8.95,9.9,8.97C9.91,8.98,9.92,9,9.93,9.01c0,0,0-0.04-0.02-0.1v0C9.91,8.88,9.9,8.84,9.88,8.79
			C9.85,8.7,9.8,8.58,9.72,8.48C9.69,8.44,9.65,8.4,9.6,8.37l0,0C9.58,8.35,9.55,8.33,9.53,8.31C9.5,8.3,9.47,8.29,9.45,8.27
			c0,0,0,0,0,0C9.4,8.25,9.34,8.24,9.29,8.23C9.25,8.22,9.22,8.22,9.18,8.22c-0.17,0-0.31-0.01-0.43-0.02
			C8.67,8.2,8.6,8.2,8.54,8.19C8.35,8.18,8.28,8.17,8.28,8.17s0,0,0,0.01v0c0.02,0.05,0.1,0.28,0.27,0.51c0,0,0,0,0,0c0,0,0,0,0,0h0
			c0.08,0.11,0.17,0.21,0.29,0.3C9.01,9.11,9.21,9.2,9.46,9.2c0.11,0,0.22-0.02,0.35-0.05c0.02-0.01,0.04-0.01,0.07-0.02
			c0,0,0.01,0,0.01,0c0,0,0-0.01-0.01-0.01C9.87,9.09,9.85,9.07,9.82,9.04c-0.06-0.07-0.17-0.18-0.3-0.29
			C9.39,8.65,9.24,8.54,9.09,8.5c0.08,0.02,0.26,0.07,0.44,0.17C9.64,8.73,9.76,8.81,9.85,8.91z M9.85,8.91
			C9.87,8.93,9.89,8.95,9.9,8.97C9.91,8.98,9.92,9,9.93,9.01c0,0,0-0.04-0.02-0.1v0C9.91,8.88,9.9,8.84,9.88,8.79
			C9.85,8.7,9.8,8.58,9.72,8.48C9.69,8.44,9.65,8.4,9.6,8.37l0,0C9.58,8.35,9.55,8.33,9.53,8.31C9.5,8.3,9.47,8.29,9.45,8.27
			c0,0,0,0,0,0C9.4,8.25,9.34,8.24,9.29,8.23C9.25,8.22,9.22,8.22,9.18,8.22c-0.17,0-0.31-0.01-0.43-0.02
			C8.67,8.2,8.6,8.2,8.54,8.19C8.35,8.18,8.28,8.17,8.28,8.17s0,0,0,0.01v0c0.02,0.05,0.1,0.28,0.27,0.51c0,0,0,0,0,0c0,0,0,0,0,0h0
			c0.08,0.11,0.17,0.21,0.29,0.3C9.01,9.11,9.21,9.2,9.46,9.2c0.11,0,0.22-0.02,0.35-0.05c0.02-0.01,0.04-0.01,0.07-0.02
			c0,0,0.01,0,0.01,0c0,0,0-0.01-0.01-0.01C9.87,9.09,9.85,9.07,9.82,9.04c-0.06-0.07-0.17-0.18-0.3-0.29
			C9.39,8.65,9.24,8.54,9.09,8.5c0.08,0.02,0.26,0.07,0.44,0.17C9.64,8.73,9.76,8.81,9.85,8.91z M9.85,8.91
			C9.87,8.93,9.89,8.95,9.9,8.97C9.91,8.98,9.92,9,9.93,9.01c0,0,0-0.04-0.02-0.1v0C9.91,8.88,9.9,8.84,9.88,8.79
			C9.85,8.7,9.8,8.58,9.72,8.48C9.69,8.44,9.65,8.4,9.6,8.37l0,0C9.58,8.35,9.55,8.33,9.53,8.31C9.5,8.3,9.47,8.29,9.45,8.27
			c0,0,0,0,0,0C9.4,8.25,9.34,8.24,9.29,8.23C9.25,8.22,9.22,8.22,9.18,8.22c-0.17,0-0.31-0.01-0.43-0.02
			C8.67,8.2,8.6,8.2,8.54,8.19C8.35,8.18,8.28,8.17,8.28,8.17s0,0,0,0.01v0c0.02,0.05,0.1,0.28,0.27,0.51c0,0,0,0,0,0c0,0,0,0,0,0h0
			c0.08,0.11,0.17,0.21,0.29,0.3C9.01,9.11,9.21,9.2,9.46,9.2c0.11,0,0.22-0.02,0.35-0.05c0.02-0.01,0.04-0.01,0.07-0.02
			c0,0,0.01,0,0.01,0c0,0,0-0.01-0.01-0.01C9.87,9.09,9.85,9.07,9.82,9.04c-0.06-0.07-0.17-0.18-0.3-0.29
			C9.39,8.65,9.24,8.54,9.09,8.5c0.08,0.02,0.26,0.07,0.44,0.17C9.64,8.73,9.76,8.81,9.85,8.91z M9.85,8.91
			C9.87,8.93,9.89,8.95,9.9,8.97C9.91,8.98,9.92,9,9.93,9.01c0,0,0-0.04-0.02-0.1v0C9.91,8.88,9.9,8.84,9.88,8.79
			C9.85,8.7,9.8,8.58,9.72,8.48C9.69,8.44,9.65,8.4,9.6,8.37l0,0C9.58,8.35,9.55,8.33,9.53,8.31C9.5,8.3,9.47,8.29,9.45,8.27
			c0,0,0,0,0,0C9.4,8.25,9.34,8.24,9.29,8.23C9.25,8.22,9.22,8.22,9.18,8.22c-0.17,0-0.31-0.01-0.43-0.02
			C8.67,8.2,8.6,8.2,8.54,8.19C8.35,8.18,8.28,8.17,8.28,8.17s0,0,0,0.01v0c0.02,0.05,0.1,0.28,0.27,0.51c0,0,0,0,0,0c0,0,0,0,0,0h0
			c0.08,0.11,0.17,0.21,0.29,0.3C9.01,9.11,9.21,9.2,9.46,9.2c0.11,0,0.22-0.02,0.35-0.05c0.02-0.01,0.04-0.01,0.07-0.02
			c0,0,0.01,0,0.01,0c0,0,0-0.01-0.01-0.01C9.87,9.09,9.85,9.07,9.82,9.04c-0.06-0.07-0.17-0.18-0.3-0.29
			C9.39,8.65,9.24,8.54,9.09,8.5c0.08,0.02,0.26,0.07,0.44,0.17C9.64,8.73,9.76,8.81,9.85,8.91z M9.85,8.91
			C9.87,8.93,9.89,8.95,9.9,8.97C9.91,8.98,9.92,9,9.93,9.01c0,0,0-0.04-0.02-0.1v0C9.91,8.88,9.9,8.84,9.88,8.79
			C9.85,8.7,9.8,8.58,9.72,8.48C9.69,8.44,9.65,8.4,9.6,8.37l0,0C9.58,8.35,9.55,8.33,9.53,8.31C9.5,8.3,9.47,8.29,9.45,8.27
			c0,0,0,0,0,0C9.4,8.25,9.34,8.24,9.29,8.23C9.25,8.22,9.22,8.22,9.18,8.22c-0.17,0-0.31-0.01-0.43-0.02
			C8.67,8.2,8.6,8.2,8.54,8.19C8.35,8.18,8.28,8.17,8.28,8.17s0,0,0,0.01v0c0.02,0.05,0.1,0.28,0.27,0.51c0,0,0,0,0,0c0,0,0,0,0,0h0
			c0.08,0.11,0.17,0.21,0.29,0.3C9.01,9.11,9.21,9.2,9.46,9.2c0.11,0,0.22-0.02,0.35-0.05c0.02-0.01,0.04-0.01,0.07-0.02
			c0,0,0.01,0,0.01,0c0,0,0-0.01-0.01-0.01C9.87,9.09,9.85,9.07,9.82,9.04c-0.06-0.07-0.17-0.18-0.3-0.29
			C9.39,8.65,9.24,8.54,9.09,8.5c0.08,0.02,0.26,0.07,0.44,0.17C9.64,8.73,9.76,8.81,9.85,8.91z M9.85,8.91
			C9.87,8.93,9.89,8.95,9.9,8.97C9.91,8.98,9.92,9,9.93,9.01c0,0,0-0.04-0.02-0.1v0C9.91,8.88,9.9,8.84,9.88,8.79
			C9.85,8.7,9.8,8.58,9.72,8.48C9.69,8.44,9.65,8.4,9.6,8.37l0,0C9.58,8.35,9.55,8.33,9.53,8.31C9.5,8.3,9.47,8.29,9.45,8.27
			c0,0,0,0,0,0C9.4,8.25,9.34,8.24,9.29,8.23C9.25,8.22,9.22,8.22,9.18,8.22c-0.17,0-0.31-0.01-0.43-0.02
			C8.67,8.2,8.6,8.2,8.54,8.19C8.35,8.18,8.28,8.17,8.28,8.17s0,0,0,0.01v0c0.02,0.05,0.1,0.28,0.27,0.51c0,0,0,0,0,0c0,0,0,0,0,0h0
			c0.08,0.11,0.17,0.21,0.29,0.3C9.01,9.11,9.21,9.2,9.46,9.2c0.11,0,0.22-0.02,0.35-0.05c0.02-0.01,0.04-0.01,0.07-0.02
			c0,0,0.01,0,0.01,0c0,0,0-0.01-0.01-0.01C9.87,9.09,9.85,9.07,9.82,9.04c-0.06-0.07-0.17-0.18-0.3-0.29
			C9.39,8.65,9.24,8.54,9.09,8.5c0.08,0.02,0.26,0.07,0.44,0.17C9.64,8.73,9.76,8.81,9.85,8.91z M9.85,8.91
			C9.87,8.93,9.89,8.95,9.9,8.97C9.91,8.98,9.92,9,9.93,9.01c0,0,0-0.04-0.02-0.1v0C9.91,8.88,9.9,8.84,9.88,8.79
			C9.85,8.7,9.8,8.58,9.72,8.48C9.69,8.44,9.65,8.4,9.6,8.37l0,0C9.58,8.35,9.55,8.33,9.53,8.31C9.5,8.3,9.47,8.29,9.45,8.27
			c0,0,0,0,0,0C9.4,8.25,9.34,8.24,9.29,8.23C9.25,8.22,9.22,8.22,9.18,8.22c-0.17,0-0.31-0.01-0.43-0.02
			C8.67,8.2,8.6,8.2,8.54,8.19C8.35,8.18,8.28,8.17,8.28,8.17s0,0,0,0.01v0c0.02,0.05,0.1,0.28,0.27,0.51c0,0,0,0,0,0c0,0,0,0,0,0h0
			c0.08,0.11,0.17,0.21,0.29,0.3C9.01,9.11,9.21,9.2,9.46,9.2c0.11,0,0.22-0.02,0.35-0.05c0.02-0.01,0.04-0.01,0.07-0.02
			c0,0,0.01,0,0.01,0c0,0,0-0.01-0.01-0.01C9.87,9.09,9.85,9.07,9.82,9.04c-0.06-0.07-0.17-0.18-0.3-0.29
			C9.39,8.65,9.24,8.54,9.09,8.5c0.08,0.02,0.26,0.07,0.44,0.17C9.64,8.73,9.76,8.81,9.85,8.91z M9.53,8.24
			C9.51,8.23,9.49,8.22,9.48,8.22C9.49,8.23,9.51,8.24,9.53,8.24C9.56,8.27,9.6,8.29,9.64,8.31C9.6,8.28,9.57,8.26,9.53,8.24z
			 M9.85,8.91C9.87,8.93,9.89,8.95,9.9,8.97C9.91,8.98,9.92,9,9.93,9.01c0,0,0-0.04-0.02-0.1v0C9.91,8.88,9.9,8.84,9.88,8.79
			C9.85,8.7,9.8,8.58,9.72,8.48C9.69,8.44,9.65,8.4,9.6,8.37l0,0C9.58,8.35,9.55,8.33,9.53,8.31C9.5,8.3,9.47,8.29,9.45,8.27
			c0,0,0,0,0,0C9.4,8.25,9.34,8.24,9.29,8.23C9.25,8.22,9.22,8.22,9.18,8.22c-0.17,0-0.31-0.01-0.43-0.02
			C8.67,8.2,8.6,8.2,8.54,8.19C8.35,8.18,8.28,8.17,8.28,8.17s0,0,0,0.01v0c0.02,0.05,0.1,0.28,0.27,0.51c0,0,0,0,0,0c0,0,0,0,0,0h0
			c0.08,0.11,0.17,0.21,0.29,0.3C9.01,9.11,9.21,9.2,9.46,9.2c0.11,0,0.22-0.02,0.35-0.05c0.02-0.01,0.04-0.01,0.07-0.02
			c0,0,0.01,0,0.01,0c0,0,0-0.01-0.01-0.01C9.87,9.09,9.85,9.07,9.82,9.04c-0.06-0.07-0.17-0.18-0.3-0.29
			C9.39,8.65,9.24,8.54,9.09,8.5c0.08,0.02,0.26,0.07,0.44,0.17C9.64,8.73,9.76,8.81,9.85,8.91z M9.53,8.24
			C9.51,8.23,9.49,8.22,9.48,8.22C9.49,8.23,9.51,8.24,9.53,8.24C9.56,8.27,9.6,8.29,9.64,8.31C9.6,8.28,9.57,8.26,9.53,8.24z
			 M9.85,8.91C9.87,8.93,9.89,8.95,9.9,8.97C9.91,8.98,9.92,9,9.93,9.01c0,0,0-0.04-0.02-0.1v0C9.91,8.88,9.9,8.84,9.88,8.79
			C9.85,8.7,9.8,8.58,9.72,8.48C9.69,8.44,9.65,8.4,9.6,8.37l0,0C9.58,8.35,9.55,8.33,9.53,8.31C9.5,8.3,9.47,8.29,9.45,8.27
			c0,0,0,0,0,0C9.4,8.25,9.34,8.24,9.29,8.23C9.25,8.22,9.22,8.22,9.18,8.22c-0.17,0-0.31-0.01-0.43-0.02
			C8.67,8.2,8.6,8.2,8.54,8.19C8.35,8.18,8.28,8.17,8.28,8.17s0,0,0,0.01v0c0.02,0.05,0.1,0.28,0.27,0.51c0,0,0,0,0,0c0,0,0,0,0,0h0
			c0.08,0.11,0.17,0.21,0.29,0.3C9.01,9.11,9.21,9.2,9.46,9.2c0.11,0,0.22-0.02,0.35-0.05c0.02-0.01,0.04-0.01,0.07-0.02
			c0,0,0.01,0,0.01,0c0,0,0-0.01-0.01-0.01C9.87,9.09,9.85,9.07,9.82,9.04c-0.06-0.07-0.17-0.18-0.3-0.29
			C9.39,8.65,9.24,8.54,9.09,8.5c0.08,0.02,0.26,0.07,0.44,0.17C9.64,8.73,9.76,8.81,9.85,8.91z M9.53,8.24
			C9.51,8.23,9.49,8.22,9.48,8.22C9.49,8.23,9.51,8.24,9.53,8.24C9.56,8.27,9.6,8.29,9.64,8.31C9.6,8.28,9.57,8.26,9.53,8.24z
			 M9.85,8.91C9.87,8.93,9.89,8.95,9.9,8.97C9.91,8.98,9.92,9,9.93,9.01c0,0,0-0.04-0.02-0.1v0C9.91,8.88,9.9,8.84,9.88,8.79
			C9.85,8.7,9.8,8.58,9.72,8.48C9.69,8.44,9.65,8.4,9.6,8.37l0,0C9.58,8.35,9.55,8.33,9.53,8.31C9.5,8.3,9.47,8.29,9.45,8.27
			c0,0,0,0,0,0C9.4,8.25,9.34,8.24,9.29,8.23C9.25,8.22,9.22,8.22,9.18,8.22c-0.17,0-0.31-0.01-0.43-0.02
			C8.67,8.2,8.6,8.2,8.54,8.19C8.35,8.18,8.28,8.17,8.28,8.17s0,0,0,0.01v0c0.02,0.05,0.1,0.28,0.27,0.51c0,0,0,0,0,0c0,0,0,0,0,0h0
			c0.08,0.11,0.17,0.21,0.29,0.3C9.01,9.11,9.21,9.2,9.46,9.2c0.11,0,0.22-0.02,0.35-0.05c0.02-0.01,0.04-0.01,0.07-0.02
			c0,0,0.01,0,0.01,0c0,0,0-0.01-0.01-0.01C9.87,9.09,9.85,9.07,9.82,9.04c-0.06-0.07-0.17-0.18-0.3-0.29
			C9.39,8.65,9.24,8.54,9.09,8.5c0.08,0.02,0.26,0.07,0.44,0.17C9.64,8.73,9.76,8.81,9.85,8.91z M9.53,8.24
			C9.51,8.23,9.49,8.22,9.48,8.22C9.49,8.23,9.51,8.24,9.53,8.24C9.56,8.27,9.6,8.29,9.64,8.31C9.6,8.28,9.57,8.26,9.53,8.24z
			 M9.85,8.91C9.87,8.93,9.89,8.95,9.9,8.97C9.91,8.98,9.92,9,9.93,9.01c0,0,0-0.04-0.02-0.1v0C9.91,8.88,9.9,8.84,9.88,8.79
			C9.85,8.7,9.8,8.58,9.72,8.48C9.69,8.44,9.65,8.4,9.6,8.37l0,0C9.58,8.35,9.55,8.33,9.53,8.31C9.5,8.3,9.47,8.29,9.45,8.27
			c0,0,0,0,0,0C9.4,8.25,9.34,8.24,9.29,8.23C9.25,8.22,9.22,8.22,9.18,8.22c-0.17,0-0.31-0.01-0.43-0.02
			C8.67,8.2,8.6,8.2,8.54,8.19C8.35,8.18,8.28,8.17,8.28,8.17s0,0,0,0.01v0c0.02,0.05,0.1,0.28,0.27,0.51c0,0,0,0,0,0c0,0,0,0,0,0h0
			c0.08,0.11,0.17,0.21,0.29,0.3C9.01,9.11,9.21,9.2,9.46,9.2c0.11,0,0.22-0.02,0.35-0.05c0.02-0.01,0.04-0.01,0.07-0.02
			c0,0,0.01,0,0.01,0c0,0,0-0.01-0.01-0.01C9.87,9.09,9.85,9.07,9.82,9.04c-0.06-0.07-0.17-0.18-0.3-0.29
			C9.39,8.65,9.24,8.54,9.09,8.5c0.08,0.02,0.26,0.07,0.44,0.17C9.64,8.73,9.76,8.81,9.85,8.91z M9.53,8.24
			C9.51,8.23,9.49,8.22,9.48,8.22C9.49,8.23,9.51,8.24,9.53,8.24C9.56,8.27,9.6,8.29,9.64,8.31C9.6,8.28,9.57,8.26,9.53,8.24z
			 M9.85,8.91C9.87,8.93,9.89,8.95,9.9,8.97C9.91,8.98,9.92,9,9.93,9.01c0,0,0-0.04-0.02-0.1v0C9.91,8.88,9.9,8.84,9.88,8.79
			C9.85,8.7,9.8,8.58,9.72,8.48C9.69,8.44,9.65,8.4,9.6,8.37l0,0C9.58,8.35,9.55,8.33,9.53,8.31C9.5,8.3,9.47,8.29,9.45,8.27
			c0,0,0,0,0,0C9.4,8.25,9.34,8.24,9.29,8.23C9.25,8.22,9.22,8.22,9.18,8.22c-0.17,0-0.31-0.01-0.43-0.02
			C8.67,8.2,8.6,8.2,8.54,8.19C8.35,8.18,8.28,8.17,8.28,8.17s0,0,0,0.01v0c0.02,0.05,0.1,0.28,0.27,0.51c0,0,0,0,0,0c0,0,0,0,0,0h0
			c0.08,0.11,0.17,0.21,0.29,0.3C9.01,9.11,9.21,9.2,9.46,9.2c0.11,0,0.22-0.02,0.35-0.05c0.02-0.01,0.04-0.01,0.07-0.02
			c0,0,0.01,0,0.01,0c0,0,0-0.01-0.01-0.01C9.87,9.09,9.85,9.07,9.82,9.04c-0.06-0.07-0.17-0.18-0.3-0.29
			C9.39,8.65,9.24,8.54,9.09,8.5c0.08,0.02,0.26,0.07,0.44,0.17C9.64,8.73,9.76,8.81,9.85,8.91z M9.53,8.24
			C9.51,8.23,9.49,8.22,9.48,8.22C9.49,8.23,9.51,8.24,9.53,8.24C9.56,8.27,9.6,8.29,9.64,8.31C9.6,8.28,9.57,8.26,9.53,8.24z
			 M8.6,4.22C8.41,4.24,8.29,4.35,8.25,4.4c-0.01,0.01,0,0.02,0.01,0.01C8.3,4.4,8.37,4.38,8.42,4.4c0.07,0.03,0.31-0.01,0.36,0.03
			c0.05,0.04,0.06,0.07,0.06,0.07S8.85,4.19,8.6,4.22z M8.91,5.32C8.69,5.24,8.61,5.09,8.6,5.06c0.06,0.15,0.12,0.25,0.19,0.32
			c0.33,0.33,0.75-0.02,0.75-0.02C9.26,5.41,9.06,5.38,8.91,5.32z M8.95,4.1C8.92,4.05,8.68,3.77,8.1,4.12c0,0,0,0.01,0,0.01
			C8.21,4.1,8.61,3.99,8.95,4.1C8.95,4.11,8.95,4.1,8.95,4.1z M9.1,5.71c-0.07,0-0.13-0.02-0.17-0.03c0,0.01,0.08,0.15,0.16,0.15
			c0.08,0,0.15-0.05,0.16-0.13C9.22,5.7,9.17,5.71,9.1,5.71z M8.91,5.32C8.69,5.24,8.61,5.09,8.6,5.06
			c0.06,0.15,0.12,0.25,0.19,0.32c0.33,0.33,0.75-0.02,0.75-0.02C9.26,5.41,9.06,5.38,8.91,5.32z M9.1,5.71
			c-0.07,0-0.13-0.02-0.17-0.03c0,0.01,0.08,0.15,0.16,0.15c0.08,0,0.15-0.05,0.16-0.13C9.22,5.7,9.17,5.71,9.1,5.71z M8.95,4.1
			C8.92,4.05,8.68,3.77,8.1,4.12c0,0,0,0.01,0,0.01C8.21,4.1,8.61,3.99,8.95,4.1C8.95,4.11,8.95,4.1,8.95,4.1z M8.6,4.22
			C8.41,4.24,8.29,4.35,8.25,4.4c-0.01,0.01,0,0.02,0.01,0.01C8.3,4.4,8.37,4.38,8.42,4.4c0.07,0.03,0.31-0.01,0.36,0.03
			c0.05,0.04,0.06,0.07,0.06,0.07S8.85,4.19,8.6,4.22z M8.6,4.22C8.41,4.24,8.29,4.35,8.25,4.4c-0.01,0.01,0,0.02,0.01,0.01
			C8.3,4.4,8.37,4.38,8.42,4.4c0.07,0.03,0.31-0.01,0.36,0.03c0.05,0.04,0.06,0.07,0.06,0.07S8.85,4.19,8.6,4.22z M8.91,5.32
			C8.69,5.24,8.61,5.09,8.6,5.06c0.06,0.15,0.12,0.25,0.19,0.32c0.33,0.33,0.75-0.02,0.75-0.02C9.26,5.41,9.06,5.38,8.91,5.32z
			 M8.95,4.1C8.92,4.05,8.68,3.77,8.1,4.12c0,0,0,0.01,0,0.01C8.21,4.1,8.61,3.99,8.95,4.1C8.95,4.11,8.95,4.1,8.95,4.1z M9.1,5.71
			c-0.07,0-0.13-0.02-0.17-0.03c0,0.01,0.08,0.15,0.16,0.15c0.08,0,0.15-0.05,0.16-0.13C9.22,5.7,9.17,5.71,9.1,5.71z M8.91,5.32
			C8.69,5.24,8.61,5.09,8.6,5.06c0.06,0.15,0.12,0.25,0.19,0.32c0.33,0.33,0.75-0.02,0.75-0.02C9.26,5.41,9.06,5.38,8.91,5.32z
			 M9.1,5.71c-0.07,0-0.13-0.02-0.17-0.03c0,0.01,0.08,0.15,0.16,0.15c0.08,0,0.15-0.05,0.16-0.13C9.22,5.7,9.17,5.71,9.1,5.71z
			 M8.95,4.1C8.92,4.05,8.68,3.77,8.1,4.12c0,0,0,0.01,0,0.01C8.21,4.1,8.61,3.99,8.95,4.1C8.95,4.11,8.95,4.1,8.95,4.1z M8.6,4.22
			C8.41,4.24,8.29,4.35,8.25,4.4c-0.01,0.01,0,0.02,0.01,0.01C8.3,4.4,8.37,4.38,8.42,4.4c0.07,0.03,0.31-0.01,0.36,0.03
			c0.05,0.04,0.06,0.07,0.06,0.07S8.85,4.19,8.6,4.22z M8.6,4.22C8.41,4.24,8.29,4.35,8.25,4.4c-0.01,0.01,0,0.02,0.01,0.01
			C8.3,4.4,8.37,4.38,8.42,4.4c0.07,0.03,0.31-0.01,0.36,0.03c0.05,0.04,0.06,0.07,0.06,0.07S8.85,4.19,8.6,4.22z M8.95,4.1
			C8.92,4.05,8.68,3.77,8.1,4.12c0,0,0,0.01,0,0.01C8.21,4.1,8.61,3.99,8.95,4.1C8.95,4.11,8.95,4.1,8.95,4.1z M9.1,5.71
			c-0.07,0-0.13-0.02-0.17-0.03c0,0.01,0.08,0.15,0.16,0.15c0.08,0,0.15-0.05,0.16-0.13C9.22,5.7,9.17,5.71,9.1,5.71z M8.91,5.32
			C8.69,5.24,8.61,5.09,8.6,5.06c0.06,0.15,0.12,0.25,0.19,0.32c0.33,0.33,0.75-0.02,0.75-0.02C9.26,5.41,9.06,5.38,8.91,5.32z
			 M8.91,5.32C8.69,5.24,8.61,5.09,8.6,5.06c0.06,0.15,0.12,0.25,0.19,0.32c0.33,0.33,0.75-0.02,0.75-0.02
			C9.26,5.41,9.06,5.38,8.91,5.32z M9.1,5.71c-0.07,0-0.13-0.02-0.17-0.03c0,0.01,0.08,0.15,0.16,0.15c0.08,0,0.15-0.05,0.16-0.13
			C9.22,5.7,9.17,5.71,9.1,5.71z M8.95,4.1C8.92,4.05,8.68,3.77,8.1,4.12c0,0,0,0.01,0,0.01C8.21,4.1,8.61,3.99,8.95,4.1
			C8.95,4.11,8.95,4.1,8.95,4.1z M8.6,4.22C8.41,4.24,8.29,4.35,8.25,4.4c-0.01,0.01,0,0.02,0.01,0.01C8.3,4.4,8.37,4.38,8.42,4.4
			c0.07,0.03,0.31-0.01,0.36,0.03c0.05,0.04,0.06,0.07,0.06,0.07S8.85,4.19,8.6,4.22z M8.6,4.22C8.41,4.24,8.29,4.35,8.25,4.4
			c-0.01,0.01,0,0.02,0.01,0.01C8.3,4.4,8.37,4.38,8.42,4.4c0.07,0.03,0.31-0.01,0.36,0.03c0.05,0.04,0.06,0.07,0.06,0.07
			S8.85,4.19,8.6,4.22z M8.95,4.1C8.92,4.05,8.68,3.77,8.1,4.12c0,0,0,0.01,0,0.01C8.21,4.1,8.61,3.99,8.95,4.1
			C8.95,4.11,8.95,4.1,8.95,4.1z M9.1,5.71c-0.07,0-0.13-0.02-0.17-0.03c0,0.01,0.08,0.15,0.16,0.15c0.08,0,0.15-0.05,0.16-0.13
			C9.22,5.7,9.17,5.71,9.1,5.71z M8.91,5.32C8.69,5.24,8.61,5.09,8.6,5.06c0.06,0.15,0.12,0.25,0.19,0.32
			c0.33,0.33,0.75-0.02,0.75-0.02C9.26,5.41,9.06,5.38,8.91,5.32z M8.91,5.32C8.69,5.24,8.61,5.09,8.6,5.06
			c0.06,0.15,0.12,0.25,0.19,0.32c0.33,0.33,0.75-0.02,0.75-0.02C9.26,5.41,9.06,5.38,8.91,5.32z M9.1,5.71
			c-0.07,0-0.13-0.02-0.17-0.03c0,0.01,0.08,0.15,0.16,0.15c0.08,0,0.15-0.05,0.16-0.13C9.22,5.7,9.17,5.71,9.1,5.71z M8.95,4.1
			C8.92,4.05,8.68,3.77,8.1,4.12c0,0,0,0.01,0,0.01C8.21,4.1,8.61,3.99,8.95,4.1C8.95,4.11,8.95,4.1,8.95,4.1z M8.6,4.22
			C8.41,4.24,8.29,4.35,8.25,4.4c-0.01,0.01,0,0.02,0.01,0.01C8.3,4.4,8.37,4.38,8.42,4.4c0.07,0.03,0.31-0.01,0.36,0.03
			c0.05,0.04,0.06,0.07,0.06,0.07S8.85,4.19,8.6,4.22z M8.6,4.22C8.41,4.24,8.29,4.35,8.25,4.4c-0.01,0.01,0,0.02,0.01,0.01
			C8.3,4.4,8.37,4.38,8.42,4.4c0.07,0.03,0.31-0.01,0.36,0.03c0.05,0.04,0.06,0.07,0.06,0.07S8.85,4.19,8.6,4.22z M8.95,4.1
			C8.92,4.05,8.68,3.77,8.1,4.12c0,0,0,0.01,0,0.01C8.21,4.1,8.61,3.99,8.95,4.1C8.95,4.11,8.95,4.1,8.95,4.1z M9.1,5.71
			c-0.07,0-0.13-0.02-0.17-0.03c0,0.01,0.08,0.15,0.16,0.15c0.08,0,0.15-0.05,0.16-0.13C9.22,5.7,9.17,5.71,9.1,5.71z M8.91,5.32
			C8.69,5.24,8.61,5.09,8.6,5.06c0.06,0.15,0.12,0.25,0.19,0.32c0.33,0.33,0.75-0.02,0.75-0.02C9.26,5.41,9.06,5.38,8.91,5.32z
			 M8.91,5.32C8.69,5.24,8.61,5.09,8.6,5.06c0.06,0.15,0.12,0.25,0.19,0.32c0.33,0.33,0.75-0.02,0.75-0.02
			C9.26,5.41,9.06,5.38,8.91,5.32z M9.1,5.71c-0.07,0-0.13-0.02-0.17-0.03c0,0.01,0.08,0.15,0.16,0.15c0.08,0,0.15-0.05,0.16-0.13
			C9.22,5.7,9.17,5.71,9.1,5.71z M8.95,4.1C8.92,4.05,8.68,3.77,8.1,4.12c0,0,0,0.01,0,0.01C8.21,4.1,8.61,3.99,8.95,4.1
			C8.95,4.11,8.95,4.1,8.95,4.1z M8.6,4.22C8.41,4.24,8.29,4.35,8.25,4.4c-0.01,0.01,0,0.02,0.01,0.01C8.3,4.4,8.37,4.38,8.42,4.4
			c0.07,0.03,0.31-0.01,0.36,0.03c0.05,0.04,0.06,0.07,0.06,0.07S8.85,4.19,8.6,4.22z M9.55,11.13c1.35,0.13,2.34-0.22,2.34-0.22
			l0.06-0.47c-0.62,0.08-1.25,0.11-1.88,0.11h-0.03c-0.61,0-1.23-0.04-1.84-0.11l0.08,0.63c0.11-0.07,0.22-0.13,0.3-0.2
			c0.2-0.16,0.28-0.24,0.28-0.24s0.04,0.02,0.06,0.13c0.02,0.11-0.2,0.33-0.36,0.5c-0.16,0.17-0.12,0.2-0.12,0.2
			c0.31,0.49,1.31,0.43,1.2,0.56c-0.11,0.13-0.84,0.04-0.84,0.04c0.24,0.2,0.91,0.2,0.71,0.28c-0.19,0.07-0.78,0-0.78,0
			c0.14,0.1,0.5,0.15,0.6,0.13c0.1-0.02,0.17,0.02,0.12,0.06c-0.31,0.14-0.66,0.14-0.97,0.09l0.02,0.13
			c0.02,0.13,0.12,0.22,0.25,0.24c0.14,0.02,0.28,0.03,0.42,0.05c0.3,0.04,0.61,0.06,0.91,0.06c0.21,0,0.43-0.01,0.64-0.03
			c0.42-0.38,0.73-0.82,0.96-1.2c-0.84,0.2-1.5,0.06-1.84-0.06c-0.04-0.01-0.03-0.08,0.02-0.07c1.05,0.1,1.84-0.15,1.94-0.18v0
			l0.04-0.3c-1.07,0.28-1.9,0.1-2.32-0.04C9.48,11.2,9.49,11.13,9.55,11.13z M8.6,4.22C8.41,4.24,8.29,4.35,8.25,4.4
			c-0.01,0.01,0,0.02,0.01,0.01C8.3,4.4,8.37,4.38,8.42,4.4c0.07,0.03,0.31-0.01,0.36,0.03c0.05,0.04,0.06,0.07,0.06,0.07
			S8.85,4.19,8.6,4.22z M8.95,4.1C8.92,4.05,8.68,3.77,8.1,4.12c0,0,0,0.01,0,0.01C8.21,4.1,8.61,3.99,8.95,4.1
			C8.95,4.11,8.95,4.1,8.95,4.1z M9.1,5.71c-0.07,0-0.13-0.02-0.17-0.03c0,0.01,0.08,0.15,0.16,0.15c0.08,0,0.15-0.05,0.16-0.13
			C9.22,5.7,9.17,5.71,9.1,5.71z M8.91,5.32C8.69,5.24,8.61,5.09,8.6,5.06c0.06,0.15,0.12,0.25,0.19,0.32
			c0.33,0.33,0.75-0.02,0.75-0.02C9.26,5.41,9.06,5.38,8.91,5.32z M8.91,5.32C8.69,5.24,8.61,5.09,8.6,5.06
			c0.06,0.15,0.12,0.25,0.19,0.32c0.33,0.33,0.75-0.02,0.75-0.02C9.26,5.41,9.06,5.38,8.91,5.32z M9.1,5.71
			c-0.07,0-0.13-0.02-0.17-0.03c0,0.01,0.08,0.15,0.16,0.15c0.08,0,0.15-0.05,0.16-0.13C9.22,5.7,9.17,5.71,9.1,5.71z M8.95,4.1
			C8.92,4.05,8.68,3.77,8.1,4.12c0,0,0,0.01,0,0.01C8.21,4.1,8.61,3.99,8.95,4.1C8.95,4.11,8.95,4.1,8.95,4.1z M8.6,4.22
			C8.41,4.24,8.29,4.35,8.25,4.4c-0.01,0.01,0,0.02,0.01,0.01C8.3,4.4,8.37,4.38,8.42,4.4c0.07,0.03,0.31-0.01,0.36,0.03
			c0.05,0.04,0.06,0.07,0.06,0.07S8.85,4.19,8.6,4.22z M8.6,4.22C8.41,4.24,8.29,4.35,8.25,4.4c-0.01,0.01,0,0.02,0.01,0.01
			C8.3,4.4,8.37,4.38,8.42,4.4c0.07,0.03,0.31-0.01,0.36,0.03c0.05,0.04,0.06,0.07,0.06,0.07S8.85,4.19,8.6,4.22z M8.95,4.1
			C8.92,4.05,8.68,3.77,8.1,4.12c0,0,0,0.01,0,0.01C8.21,4.1,8.61,3.99,8.95,4.1C8.95,4.11,8.95,4.1,8.95,4.1z M9.1,5.71
			c-0.07,0-0.13-0.02-0.17-0.03c0,0.01,0.08,0.15,0.16,0.15c0.08,0,0.15-0.05,0.16-0.13C9.22,5.7,9.17,5.71,9.1,5.71z M8.91,5.32
			C8.69,5.24,8.61,5.09,8.6,5.06c0.06,0.15,0.12,0.25,0.19,0.32c0.33,0.33,0.75-0.02,0.75-0.02C9.26,5.41,9.06,5.38,8.91,5.32z
			 M8.91,5.32C8.69,5.24,8.61,5.09,8.6,5.06c0.06,0.15,0.12,0.25,0.19,0.32c0.33,0.33,0.75-0.02,0.75-0.02
			C9.26,5.41,9.06,5.38,8.91,5.32z M9.1,5.71c-0.07,0-0.13-0.02-0.17-0.03c0,0.01,0.08,0.15,0.16,0.15c0.08,0,0.15-0.05,0.16-0.13
			C9.22,5.7,9.17,5.71,9.1,5.71z M8.95,4.1C8.92,4.05,8.68,3.77,8.1,4.12c0,0,0,0.01,0,0.01C8.21,4.1,8.61,3.99,8.95,4.1
			C8.95,4.11,8.95,4.1,8.95,4.1z M8.6,4.22C8.41,4.24,8.29,4.35,8.25,4.4c-0.01,0.01,0,0.02,0.01,0.01C8.3,4.4,8.37,4.38,8.42,4.4
			c0.07,0.03,0.31-0.01,0.36,0.03c0.05,0.04,0.06,0.07,0.06,0.07S8.85,4.19,8.6,4.22z M8.6,4.22C8.41,4.24,8.29,4.35,8.25,4.4
			c-0.01,0.01,0,0.02,0.01,0.01C8.3,4.4,8.37,4.38,8.42,4.4c0.07,0.03,0.31-0.01,0.36,0.03c0.05,0.04,0.06,0.07,0.06,0.07
			S8.85,4.19,8.6,4.22z M8.95,4.1C8.92,4.05,8.68,3.77,8.1,4.12c0,0,0,0.01,0,0.01C8.21,4.1,8.61,3.99,8.95,4.1
			C8.95,4.11,8.95,4.1,8.95,4.1z M9.1,5.71c-0.07,0-0.13-0.02-0.17-0.03c0,0.01,0.08,0.15,0.16,0.15c0.08,0,0.15-0.05,0.16-0.13
			C9.22,5.7,9.17,5.71,9.1,5.71z M8.91,5.32C8.69,5.24,8.61,5.09,8.6,5.06c0.06,0.15,0.12,0.25,0.19,0.32
			c0.33,0.33,0.75-0.02,0.75-0.02C9.26,5.41,9.06,5.38,8.91,5.32z M9.54,5.37C9.26,5.41,9.06,5.38,8.91,5.32
			C8.69,5.24,8.61,5.09,8.6,5.06c0.06,0.15,0.12,0.25,0.19,0.32C9.12,5.71,9.54,5.37,9.54,5.37z M8.93,5.68
			c0,0.01,0.08,0.15,0.16,0.15c0.08,0,0.15-0.05,0.16-0.13C9.22,5.7,9.17,5.71,9.1,5.71C9.03,5.71,8.97,5.69,8.93,5.68z M8.95,4.11
			C8.95,4.11,8.95,4.1,8.95,4.11C8.92,4.05,8.68,3.77,8.1,4.12c0,0,0,0.01,0,0.01C8.21,4.1,8.61,3.99,8.95,4.11z M8.78,4.43
			c0.05,0.04,0.06,0.07,0.06,0.07s0-0.3-0.24-0.28C8.41,4.24,8.29,4.35,8.25,4.4c-0.01,0.01,0,0.02,0.01,0.01
			C8.3,4.4,8.37,4.38,8.42,4.4C8.49,4.43,8.73,4.38,8.78,4.43z M8.86,13.93c0.68-0.07,1.24-0.35,1.69-0.72
			c-0.16,0.01-0.32,0.02-0.47,0.02c-0.31,0-0.62-0.02-0.93-0.06C9.07,13.16,9,13.15,8.93,13.14c-0.07-0.01-0.14-0.01-0.21-0.02
			c-0.19-0.03-0.34-0.17-0.36-0.35L8.34,12.6c-0.38-0.08-0.68-0.23-0.74-0.25c-0.12-0.04-1.02,0.15-2.17,0.18
			c-1.16,0.03-1.1-0.43-1.1-0.43c0.08-0.5,0.72-0.52,1.15-0.52c0.43,0,1.84,0.1,1.96,0.08s0.29-0.03,0.43-0.26
			c0.06-0.1,0.17-0.18,0.29-0.26l-0.09-0.73c-0.12-0.05-0.21-0.17-0.21-0.3V9.68c0-0.18,0.15-0.33,0.33-0.33c0.01,0,0.01,0,0.02,0
			C8.73,9.39,9.27,9.41,9.8,9.42c0-0.05,0-0.09,0-0.13C9.68,9.31,9.57,9.33,9.46,9.33c-0.3,0-0.57-0.11-0.81-0.33L7.14,9.04
			L6.48,7.63l0.38-0.15L8.28,8.5C8.2,8.34,8.16,8.21,8.16,8.21c-0.01-0.04,0-0.08,0.02-0.11L7.1,7.27c0.31-0.23,0.34-1.23,0.34-1.23
			s0.72,0.5,0.98,0.8c0.26,0.3,0.31,0.71,0.31,0.71l0.12-0.09l-0.27,0.6c0.06,0,0.13,0.01,0.22,0.01L8.96,7.7v0
			C8.87,7.44,8.87,7.18,8.88,7C8.83,6.79,8.81,6.54,8.81,6.49c0.01,0.01,0.04,0.02,0.1,0.03C9.06,6.56,9.4,6.54,9.57,6.23
			c0.17-0.3,0.38-0.63,0.4-0.92c0.02-0.18,0.04-0.47,0.05-0.65c0.01-0.11,0.01-0.19,0.01-0.19L9.93,3.51L9.34,2.94L8.66,3.03
			L7.55,3.59L6.89,4.34L6.97,5.8C6.98,5.85,6.99,5.89,7,5.92c0.28,1.25-0.57,1.55-0.57,1.55L6.26,7.34
			c-1.71,0.21-1.94,2.52-1.91,2.79c0.04,0.27-0.07,0.23-0.22,0.33c-0.15,0.1-0.13,0.06-0.17,0.31c-0.04,0.24,0.01,0.32-0.04,0.51
			c-0.05,0.2-0.11,0.15-0.09,0.35c0.02,0.21,0.18,0.2,0.17,0.43c-0.01,0.23,0,0.5,0,0.5c0.29,0.54,2.02,0.16,2.02,0.16
			c0.93,1.98,2.71,1.71,2.71,1.71c-1.97-0.45-2.4-1.77-2.4-1.77l0.13-0.01C7.37,13.86,8.86,13.93,8.86,13.93z M7.05,4.54
			C7.14,4.2,7.82,4.6,8.41,3.56c0.05-0.09,0.13-0.15,0.23-0.19c0.21-0.09,0.6-0.16,1.06,0.2C9.74,3.6,9.77,3.65,9.77,3.71
			c0,0.08,0.02,0.22,0.03,0.34c0,0.01,0,0.02,0,0.03c0,0-0.41-0.08-0.47,0.15C9.27,4.46,9.4,4.82,9.4,4.9
			c0,0.08-0.21,0.14-0.24,0.21c-0.02,0.04,0.08,0.03,0.17,0c0,0,0,0,0,0c0.05-0.02,0.1-0.05,0.14-0.08c0,0,0,0,0,0
			c0.04-0.03,0.06-0.07,0.06-0.12C9.52,4.78,9.46,4.62,9.44,4.48c0.01,0.01,0.02,0.01,0.02,0.01c0.13,0.09,0.19,0.02,0.2,0
			c0.01-0.01,0.02,0,0.04,0.01c0.01,0.01,0.02,0.02,0.03,0.02c0,0.03-0.01,0.05,0,0.07c0.01,0.05,0.03,0.14,0.05,0.24
			c0.02,0.11,0.03,0.24,0,0.34C9.71,5.37,9.44,5.93,9.35,6.11c-0.08,0.18-0.18,0.3-0.59,0.23c-0.28-0.05-0.79-0.17-1.1-0.54
			C7.51,5.62,7.41,5.38,7.41,5.07C7.41,5.07,6.94,4.9,7.05,4.54z M9.8,4.22c-0.01,0.07-0.03,0.14-0.05,0.2
			c-0.11-0.1-0.31-0.06-0.31-0.06c0-0.02,0.01-0.04,0.02-0.06C9.53,4.14,9.8,4.22,9.8,4.22z M6.01,7.74c0,0,1.18,3.13,0.33,3.52
			c-0.17,0.06-0.22,0-0.22,0l-0.11-1.7l-0.4,1.18c0,0-0.46-0.29-0.92-0.36C4.69,10.38,4.71,8.2,6.01,7.74z M5.14,10.97
			C5,10.88,4.39,10.92,4.39,10.92c0.97-0.44,1.37,0.25,1.37,0.25l-0.27-0.04l0.17,0.23c-0.6-0.39-1.47,0.08-1.47,0.08
			C4.43,11.01,5.14,10.97,5.14,10.97z M8.6,5.06c0.06,0.15,0.12,0.25,0.19,0.32c0.33,0.33,0.75-0.02,0.75-0.02
			C9.26,5.41,9.06,5.38,8.91,5.32C8.69,5.24,8.61,5.09,8.6,5.06z M8.93,5.68c0,0.01,0.08,0.15,0.16,0.15c0.08,0,0.15-0.05,0.16-0.13
			C9.22,5.7,9.17,5.71,9.1,5.71C9.03,5.71,8.97,5.69,8.93,5.68z M8.11,4.13c0.1-0.03,0.5-0.14,0.84-0.02c0,0,0.01,0,0,0
			C8.92,4.05,8.68,3.77,8.11,4.13C8.1,4.12,8.1,4.13,8.11,4.13z M8.78,4.43c0.05,0.04,0.06,0.07,0.06,0.07s0-0.3-0.24-0.28
			C8.41,4.24,8.29,4.35,8.25,4.4c-0.01,0.01,0,0.02,0.01,0.01C8.3,4.4,8.37,4.38,8.42,4.4C8.49,4.43,8.73,4.38,8.78,4.43z M8.6,4.22
			C8.41,4.24,8.29,4.35,8.25,4.4c-0.01,0.01,0,0.02,0.01,0.01C8.3,4.4,8.37,4.38,8.42,4.4c0.07,0.03,0.31-0.01,0.36,0.03
			c0.05,0.04,0.06,0.07,0.06,0.07S8.85,4.19,8.6,4.22z M8.95,4.1C8.92,4.05,8.68,3.77,8.1,4.12c0,0,0,0.01,0,0.01
			C8.21,4.1,8.61,3.99,8.95,4.1C8.95,4.11,8.95,4.1,8.95,4.1z M9.1,5.71c-0.07,0-0.13-0.02-0.17-0.03c0,0.01,0.08,0.15,0.16,0.15
			c0.08,0,0.15-0.05,0.16-0.13C9.22,5.7,9.17,5.71,9.1,5.71z M8.91,5.32C8.69,5.24,8.61,5.09,8.6,5.06
			c0.06,0.15,0.12,0.25,0.19,0.32c0.33,0.33,0.75-0.02,0.75-0.02C9.26,5.41,9.06,5.38,8.91,5.32z M8.91,5.32
			C8.69,5.24,8.61,5.09,8.6,5.06c0.06,0.15,0.12,0.25,0.19,0.32c0.33,0.33,0.75-0.02,0.75-0.02C9.26,5.41,9.06,5.38,8.91,5.32z
			 M9.1,5.71c-0.07,0-0.13-0.02-0.17-0.03c0,0.01,0.08,0.15,0.16,0.15c0.08,0,0.15-0.05,0.16-0.13C9.22,5.7,9.17,5.71,9.1,5.71z
			 M8.95,4.1C8.92,4.05,8.68,3.77,8.1,4.12c0,0,0,0.01,0,0.01C8.21,4.1,8.61,3.99,8.95,4.1C8.95,4.11,8.95,4.1,8.95,4.1z M8.6,4.22
			C8.41,4.24,8.29,4.35,8.25,4.4c-0.01,0.01,0,0.02,0.01,0.01C8.3,4.4,8.37,4.38,8.42,4.4c0.07,0.03,0.31-0.01,0.36,0.03
			c0.05,0.04,0.06,0.07,0.06,0.07S8.85,4.19,8.6,4.22z M8.6,4.22C8.41,4.24,8.29,4.35,8.25,4.4c-0.01,0.01,0,0.02,0.01,0.01
			C8.3,4.4,8.37,4.38,8.42,4.4c0.07,0.03,0.31-0.01,0.36,0.03c0.05,0.04,0.06,0.07,0.06,0.07S8.85,4.19,8.6,4.22z M8.95,4.1
			C8.92,4.05,8.68,3.77,8.1,4.12c0,0,0,0.01,0,0.01C8.21,4.1,8.61,3.99,8.95,4.1C8.95,4.11,8.95,4.1,8.95,4.1z M9.1,5.71
			c-0.07,0-0.13-0.02-0.17-0.03c0,0.01,0.08,0.15,0.16,0.15c0.08,0,0.15-0.05,0.16-0.13C9.22,5.7,9.17,5.71,9.1,5.71z M8.91,5.32
			C8.69,5.24,8.61,5.09,8.6,5.06c0.06,0.15,0.12,0.25,0.19,0.32c0.33,0.33,0.75-0.02,0.75-0.02C9.26,5.41,9.06,5.38,8.91,5.32z
			 M8.91,5.32C8.69,5.24,8.61,5.09,8.6,5.06c0.06,0.15,0.12,0.25,0.19,0.32c0.33,0.33,0.75-0.02,0.75-0.02
			C9.26,5.41,9.06,5.38,8.91,5.32z M9.1,5.71c-0.07,0-0.13-0.02-0.17-0.03c0,0.01,0.08,0.15,0.16,0.15c0.08,0,0.15-0.05,0.16-0.13
			C9.22,5.7,9.17,5.71,9.1,5.71z M8.95,4.1C8.92,4.05,8.68,3.77,8.1,4.12c0,0,0,0.01,0,0.01C8.21,4.1,8.61,3.99,8.95,4.1
			C8.95,4.11,8.95,4.1,8.95,4.1z M8.6,4.22C8.41,4.24,8.29,4.35,8.25,4.4c-0.01,0.01,0,0.02,0.01,0.01C8.3,4.4,8.37,4.38,8.42,4.4
			c0.07,0.03,0.31-0.01,0.36,0.03c0.05,0.04,0.06,0.07,0.06,0.07S8.85,4.19,8.6,4.22z M8.6,4.22C8.41,4.24,8.29,4.35,8.25,4.4
			c-0.01,0.01,0,0.02,0.01,0.01C8.3,4.4,8.37,4.38,8.42,4.4c0.07,0.03,0.31-0.01,0.36,0.03c0.05,0.04,0.06,0.07,0.06,0.07
			S8.85,4.19,8.6,4.22z M8.95,4.1C8.92,4.05,8.68,3.77,8.1,4.12c0,0,0,0.01,0,0.01C8.21,4.1,8.61,3.99,8.95,4.1
			C8.95,4.11,8.95,4.1,8.95,4.1z M9.1,5.71c-0.07,0-0.13-0.02-0.17-0.03c0,0.01,0.08,0.15,0.16,0.15c0.08,0,0.15-0.05,0.16-0.13
			C9.22,5.7,9.17,5.71,9.1,5.71z M8.91,5.32C8.69,5.24,8.61,5.09,8.6,5.06c0.06,0.15,0.12,0.25,0.19,0.32
			c0.33,0.33,0.75-0.02,0.75-0.02C9.26,5.41,9.06,5.38,8.91,5.32z M8.91,5.32C8.69,5.24,8.61,5.09,8.6,5.06
			c0.06,0.15,0.12,0.25,0.19,0.32c0.33,0.33,0.75-0.02,0.75-0.02C9.26,5.41,9.06,5.38,8.91,5.32z M9.1,5.71
			c-0.07,0-0.13-0.02-0.17-0.03c0,0.01,0.08,0.15,0.16,0.15c0.08,0,0.15-0.05,0.16-0.13C9.22,5.7,9.17,5.71,9.1,5.71z M8.95,4.1
			C8.92,4.05,8.68,3.77,8.1,4.12c0,0,0,0.01,0,0.01C8.21,4.1,8.61,3.99,8.95,4.1C8.95,4.11,8.95,4.1,8.95,4.1z M8.6,4.22
			C8.41,4.24,8.29,4.35,8.25,4.4c-0.01,0.01,0,0.02,0.01,0.01C8.3,4.4,8.37,4.38,8.42,4.4c0.07,0.03,0.31-0.01,0.36,0.03
			c0.05,0.04,0.06,0.07,0.06,0.07S8.85,4.19,8.6,4.22z M8.6,4.22C8.41,4.24,8.29,4.35,8.25,4.4c-0.01,0.01,0,0.02,0.01,0.01
			C8.3,4.4,8.37,4.38,8.42,4.4c0.07,0.03,0.31-0.01,0.36,0.03c0.05,0.04,0.06,0.07,0.06,0.07S8.85,4.19,8.6,4.22z M8.95,4.1
			C8.92,4.05,8.68,3.77,8.1,4.12c0,0,0,0.01,0,0.01C8.21,4.1,8.61,3.99,8.95,4.1C8.95,4.11,8.95,4.1,8.95,4.1z M9.1,5.71
			c-0.07,0-0.13-0.02-0.17-0.03c0,0.01,0.08,0.15,0.16,0.15c0.08,0,0.15-0.05,0.16-0.13C9.22,5.7,9.17,5.71,9.1,5.71z M8.91,5.32
			C8.69,5.24,8.61,5.09,8.6,5.06c0.06,0.15,0.12,0.25,0.19,0.32c0.33,0.33,0.75-0.02,0.75-0.02C9.26,5.41,9.06,5.38,8.91,5.32z
			 M8.91,5.32C8.69,5.24,8.61,5.09,8.6,5.06c0.06,0.15,0.12,0.25,0.19,0.32c0.33,0.33,0.75-0.02,0.75-0.02
			C9.26,5.41,9.06,5.38,8.91,5.32z M9.1,5.71c-0.07,0-0.13-0.02-0.17-0.03c0,0.01,0.08,0.15,0.16,0.15c0.08,0,0.15-0.05,0.16-0.13
			C9.22,5.7,9.17,5.71,9.1,5.71z M8.95,4.1C8.92,4.05,8.68,3.77,8.1,4.12c0,0,0,0.01,0,0.01C8.21,4.1,8.61,3.99,8.95,4.1
			C8.95,4.11,8.95,4.1,8.95,4.1z M8.6,4.22C8.41,4.24,8.29,4.35,8.25,4.4c-0.01,0.01,0,0.02,0.01,0.01C8.3,4.4,8.37,4.38,8.42,4.4
			c0.07,0.03,0.31-0.01,0.36,0.03c0.05,0.04,0.06,0.07,0.06,0.07S8.85,4.19,8.6,4.22z M12.05,10.65l-0.09,0.68
			c0.12-0.26,0.18-0.43,0.18-0.43C12.11,10.82,12.08,10.73,12.05,10.65z M8.6,4.22C8.41,4.24,8.29,4.35,8.25,4.4
			c-0.01,0.01,0,0.02,0.01,0.01C8.3,4.4,8.37,4.38,8.42,4.4c0.07,0.03,0.31-0.01,0.36,0.03c0.05,0.04,0.06,0.07,0.06,0.07
			S8.85,4.19,8.6,4.22z M8.95,4.1C8.92,4.05,8.68,3.77,8.1,4.12c0,0,0,0.01,0,0.01C8.21,4.1,8.61,3.99,8.95,4.1
			C8.95,4.11,8.95,4.1,8.95,4.1z M9.1,5.71c-0.07,0-0.13-0.02-0.17-0.03c0,0.01,0.08,0.15,0.16,0.15c0.08,0,0.15-0.05,0.16-0.13
			C9.22,5.7,9.17,5.71,9.1,5.71z M8.91,5.32C8.69,5.24,8.61,5.09,8.6,5.06c0.06,0.15,0.12,0.25,0.19,0.32
			c0.33,0.33,0.75-0.02,0.75-0.02C9.26,5.41,9.06,5.38,8.91,5.32z M8.91,5.32C8.69,5.24,8.61,5.09,8.6,5.06
			c0.06,0.15,0.12,0.25,0.19,0.32c0.33,0.33,0.75-0.02,0.75-0.02C9.26,5.41,9.06,5.38,8.91,5.32z M9.1,5.71
			c-0.07,0-0.13-0.02-0.17-0.03c0,0.01,0.08,0.15,0.16,0.15c0.08,0,0.15-0.05,0.16-0.13C9.22,5.7,9.17,5.71,9.1,5.71z M8.95,4.1
			C8.92,4.05,8.68,3.77,8.1,4.12c0,0,0,0.01,0,0.01C8.21,4.1,8.61,3.99,8.95,4.1C8.95,4.11,8.95,4.1,8.95,4.1z M8.6,4.22
			C8.41,4.24,8.29,4.35,8.25,4.4c-0.01,0.01,0,0.02,0.01,0.01C8.3,4.4,8.37,4.38,8.42,4.4c0.07,0.03,0.31-0.01,0.36,0.03
			c0.05,0.04,0.06,0.07,0.06,0.07S8.85,4.19,8.6,4.22z M8.6,4.22C8.41,4.24,8.29,4.35,8.25,4.4c-0.01,0.01,0,0.02,0.01,0.01
			C8.3,4.4,8.37,4.38,8.42,4.4c0.07,0.03,0.31-0.01,0.36,0.03c0.05,0.04,0.06,0.07,0.06,0.07S8.85,4.19,8.6,4.22z M8.95,4.1
			C8.92,4.05,8.68,3.77,8.1,4.12c0,0,0,0.01,0,0.01C8.21,4.1,8.61,3.99,8.95,4.1C8.95,4.11,8.95,4.1,8.95,4.1z M9.1,5.71
			c-0.07,0-0.13-0.02-0.17-0.03c0,0.01,0.08,0.15,0.16,0.15c0.08,0,0.15-0.05,0.16-0.13C9.22,5.7,9.17,5.71,9.1,5.71z M8.91,5.32
			C8.69,5.24,8.61,5.09,8.6,5.06c0.06,0.15,0.12,0.25,0.19,0.32c0.33,0.33,0.75-0.02,0.75-0.02C9.26,5.41,9.06,5.38,8.91,5.32z
			 M11.36,9.09c-0.21,0.16-0.44,0.24-0.7,0.24c-0.13,0-0.26-0.02-0.4-0.06c0,0.05,0,0.1,0.01,0.15c0.42,0,0.84-0.01,1.25-0.03
			C11.46,9.28,11.41,9.18,11.36,9.09z M10.44,8.18c-0.11,0.1-0.3,0.31-0.42,0.61c-0.01,0.04-0.03,0.08-0.04,0.12
			C9.97,8.96,9.95,9.02,9.94,9.08c0,0,0,0,0,0c0,0,0,0,0,0.01v0c0,0.03-0.01,0.05-0.01,0.08v0c0,0.02,0,0.05-0.01,0.08
			c0,0.06,0,0.11,0,0.17c0.04,0,0.09,0,0.13,0h0.01c0.02,0,0.04,0,0.06,0c-0.01-0.08-0.01-0.19,0-0.3c0.02-0.22,0.07-0.49,0.23-0.76
			c0.03-0.06,0.07-0.11,0.11-0.17c0.01-0.02,0.03-0.04,0.05-0.06C10.51,8.12,10.48,8.14,10.44,8.18z M8.91,5.32
			C8.69,5.24,8.61,5.09,8.6,5.06c0.06,0.15,0.12,0.25,0.19,0.32c0.33,0.33,0.75-0.02,0.75-0.02C9.26,5.41,9.06,5.38,8.91,5.32z
			 M9.1,5.71c-0.07,0-0.13-0.02-0.17-0.03c0,0.01,0.08,0.15,0.16,0.15c0.08,0,0.15-0.05,0.16-0.13C9.22,5.7,9.17,5.71,9.1,5.71z
			 M8.95,4.1C8.92,4.05,8.68,3.77,8.1,4.12c0,0,0,0.01,0,0.01C8.21,4.1,8.61,3.99,8.95,4.1C8.95,4.11,8.95,4.1,8.95,4.1z M8.6,4.22
			C8.41,4.24,8.29,4.35,8.25,4.4c-0.01,0.01,0,0.02,0.01,0.01C8.3,4.4,8.37,4.38,8.42,4.4c0.07,0.03,0.31-0.01,0.36,0.03
			c0.05,0.04,0.06,0.07,0.06,0.07S8.85,4.19,8.6,4.22z M8.6,4.22C8.41,4.24,8.29,4.35,8.25,4.4c-0.01,0.01,0,0.02,0.01,0.01
			C8.3,4.4,8.37,4.38,8.42,4.4c0.07,0.03,0.31-0.01,0.36,0.03c0.05,0.04,0.06,0.07,0.06,0.07S8.85,4.19,8.6,4.22z M8.95,4.1
			C8.92,4.05,8.68,3.77,8.1,4.12c0,0,0,0.01,0,0.01C8.21,4.1,8.61,3.99,8.95,4.1C8.95,4.11,8.95,4.1,8.95,4.1z M9.1,5.71
			c-0.07,0-0.13-0.02-0.17-0.03c0,0.01,0.08,0.15,0.16,0.15c0.08,0,0.15-0.05,0.16-0.13C9.22,5.7,9.17,5.71,9.1,5.71z M8.91,5.32
			C8.69,5.24,8.61,5.09,8.6,5.06c0.06,0.15,0.12,0.25,0.19,0.32c0.33,0.33,0.75-0.02,0.75-0.02C9.26,5.41,9.06,5.38,8.91,5.32z
			 M9.1,5.71c-0.07,0-0.13-0.02-0.17-0.03c0,0.01,0.08,0.15,0.16,0.15c0.08,0,0.15-0.05,0.16-0.13C9.22,5.7,9.17,5.71,9.1,5.71z
			 M8.95,4.1C8.92,4.05,8.68,3.77,8.1,4.12c0,0,0,0.01,0,0.01C8.21,4.1,8.61,3.99,8.95,4.1C8.95,4.11,8.95,4.1,8.95,4.1z M8.91,5.32
			C8.69,5.24,8.61,5.09,8.6,5.06c0.06,0.15,0.12,0.25,0.19,0.32c0.33,0.33,0.75-0.02,0.75-0.02C9.26,5.41,9.06,5.38,8.91,5.32z
			 M8.6,4.22C8.41,4.24,8.29,4.35,8.25,4.4c-0.01,0.01,0,0.02,0.01,0.01C8.3,4.4,8.37,4.38,8.42,4.4c0.07,0.03,0.31-0.01,0.36,0.03
			c0.05,0.04,0.06,0.07,0.06,0.07S8.85,4.19,8.6,4.22z M8.6,4.22C8.41,4.24,8.29,4.35,8.25,4.4c-0.01,0.01,0,0.02,0.01,0.01
			C8.3,4.4,8.37,4.38,8.42,4.4c0.07,0.03,0.31-0.01,0.36,0.03c0.05,0.04,0.06,0.07,0.06,0.07S8.85,4.19,8.6,4.22z M8.95,4.1
			C8.92,4.05,8.68,3.77,8.1,4.12c0,0,0,0.01,0,0.01C8.21,4.1,8.61,3.99,8.95,4.1C8.95,4.11,8.95,4.1,8.95,4.1z M8.95,4.1
			C8.92,4.05,8.68,3.77,8.1,4.12c0,0,0,0.01,0,0.01C8.21,4.1,8.61,3.99,8.95,4.1C8.95,4.11,8.95,4.1,8.95,4.1z M8.6,4.22
			C8.41,4.24,8.29,4.35,8.25,4.4c-0.01,0.01,0,0.02,0.01,0.01C8.3,4.4,8.37,4.38,8.42,4.4c0.07,0.03,0.31-0.01,0.36,0.03
			c0.05,0.04,0.06,0.07,0.06,0.07S8.85,4.19,8.6,4.22z M9.53,8.24C9.51,8.23,9.49,8.22,9.48,8.22C9.49,8.23,9.51,8.24,9.53,8.24
			C9.56,8.27,9.6,8.29,9.64,8.31C9.6,8.28,9.57,8.26,9.53,8.24z M9.85,8.91C9.87,8.93,9.89,8.95,9.9,8.97
			C9.91,8.98,9.92,9,9.93,9.01c0,0,0-0.04-0.02-0.1v0C9.91,8.88,9.9,8.84,9.88,8.79C9.85,8.7,9.8,8.58,9.72,8.48
			C9.69,8.44,9.65,8.4,9.6,8.37l0,0C9.58,8.35,9.55,8.33,9.53,8.31C9.5,8.3,9.47,8.29,9.45,8.27c0,0,0,0,0,0
			C9.4,8.25,9.34,8.24,9.29,8.23C9.25,8.22,9.22,8.22,9.18,8.22c-0.17,0-0.31-0.01-0.43-0.02C8.67,8.2,8.6,8.2,8.54,8.19
			C8.35,8.18,8.28,8.17,8.28,8.17s0,0,0,0.01v0c0.02,0.05,0.1,0.28,0.27,0.51c0,0,0,0,0,0c0,0,0,0,0,0h0
			c0.08,0.11,0.17,0.21,0.29,0.3C9.01,9.11,9.21,9.2,9.46,9.2c0.11,0,0.22-0.02,0.35-0.05c0.02-0.01,0.04-0.01,0.07-0.02
			c0,0,0.01,0,0.01,0c0,0,0-0.01-0.01-0.01C9.87,9.09,9.85,9.07,9.82,9.04c-0.06-0.07-0.17-0.18-0.3-0.29
			C9.39,8.65,9.24,8.54,9.09,8.5c0.08,0.02,0.26,0.07,0.44,0.17C9.64,8.73,9.76,8.81,9.85,8.91z M9.53,8.24
			C9.51,8.23,9.49,8.22,9.48,8.22C9.49,8.23,9.51,8.24,9.53,8.24C9.56,8.27,9.6,8.29,9.64,8.31C9.6,8.28,9.57,8.26,9.53,8.24z
			 M9.85,8.91C9.87,8.93,9.89,8.95,9.9,8.97C9.91,8.98,9.92,9,9.93,9.01c0,0,0-0.04-0.02-0.1v0C9.91,8.88,9.9,8.84,9.88,8.79
			C9.85,8.7,9.8,8.58,9.72,8.48C9.69,8.44,9.65,8.4,9.6,8.37l0,0C9.58,8.35,9.55,8.33,9.53,8.31C9.5,8.3,9.47,8.29,9.45,8.27
			c0,0,0,0,0,0C9.4,8.25,9.34,8.24,9.29,8.23C9.25,8.22,9.22,8.22,9.18,8.22c-0.17,0-0.31-0.01-0.43-0.02
			C8.67,8.2,8.6,8.2,8.54,8.19C8.35,8.18,8.28,8.17,8.28,8.17s0,0,0,0.01v0c0.02,0.05,0.1,0.28,0.27,0.51c0,0,0,0,0,0c0,0,0,0,0,0h0
			c0.08,0.11,0.17,0.21,0.29,0.3C9.01,9.11,9.21,9.2,9.46,9.2c0.11,0,0.22-0.02,0.35-0.05c0.02-0.01,0.04-0.01,0.07-0.02
			c0,0,0.01,0,0.01,0c0,0,0-0.01-0.01-0.01C9.87,9.09,9.85,9.07,9.82,9.04c-0.06-0.07-0.17-0.18-0.3-0.29
			C9.39,8.65,9.24,8.54,9.09,8.5c0.08,0.02,0.26,0.07,0.44,0.17C9.64,8.73,9.76,8.81,9.85,8.91z M9.53,8.24
			C9.51,8.23,9.49,8.22,9.48,8.22C9.49,8.23,9.51,8.24,9.53,8.24C9.56,8.27,9.6,8.29,9.64,8.31C9.6,8.28,9.57,8.26,9.53,8.24z
			 M9.85,8.91C9.87,8.93,9.89,8.95,9.9,8.97C9.91,8.98,9.92,9,9.93,9.01c0,0,0-0.04-0.02-0.1v0C9.91,8.88,9.9,8.84,9.88,8.79
			C9.85,8.7,9.8,8.58,9.72,8.48C9.69,8.44,9.65,8.4,9.6,8.37l0,0C9.58,8.35,9.55,8.33,9.53,8.31C9.5,8.3,9.47,8.29,9.45,8.27
			c0,0,0,0,0,0C9.4,8.25,9.34,8.24,9.29,8.23C9.25,8.22,9.22,8.22,9.18,8.22c-0.17,0-0.31-0.01-0.43-0.02
			C8.67,8.2,8.6,8.2,8.54,8.19C8.35,8.18,8.28,8.17,8.28,8.17s0,0,0,0.01v0c0.02,0.05,0.1,0.28,0.27,0.51c0,0,0,0,0,0c0,0,0,0,0,0h0
			c0.08,0.11,0.17,0.21,0.29,0.3C9.01,9.11,9.21,9.2,9.46,9.2c0.11,0,0.22-0.02,0.35-0.05c0.02-0.01,0.04-0.01,0.07-0.02
			c0,0,0.01,0,0.01,0c0,0,0-0.01-0.01-0.01C9.87,9.09,9.85,9.07,9.82,9.04c-0.06-0.07-0.17-0.18-0.3-0.29
			C9.39,8.65,9.24,8.54,9.09,8.5c0.08,0.02,0.26,0.07,0.44,0.17C9.64,8.73,9.76,8.81,9.85,8.91z M9.53,8.24
			C9.51,8.23,9.49,8.22,9.48,8.22C9.49,8.23,9.51,8.24,9.53,8.24C9.56,8.27,9.6,8.29,9.64,8.31C9.6,8.28,9.57,8.26,9.53,8.24z
			 M9.85,8.91C9.87,8.93,9.89,8.95,9.9,8.97C9.91,8.98,9.92,9,9.93,9.01c0,0,0-0.04-0.02-0.1v0C9.91,8.88,9.9,8.84,9.88,8.79
			C9.85,8.7,9.8,8.58,9.72,8.48C9.69,8.44,9.65,8.4,9.6,8.37l0,0C9.58,8.35,9.55,8.33,9.53,8.31C9.5,8.3,9.47,8.29,9.45,8.27
			c0,0,0,0,0,0C9.4,8.25,9.34,8.24,9.29,8.23C9.25,8.22,9.22,8.22,9.18,8.22c-0.17,0-0.31-0.01-0.43-0.02
			C8.67,8.2,8.6,8.2,8.54,8.19C8.35,8.18,8.28,8.17,8.28,8.17s0,0,0,0.01v0c0.02,0.05,0.1,0.28,0.27,0.51c0,0,0,0,0,0c0,0,0,0,0,0h0
			c0.08,0.11,0.17,0.21,0.29,0.3C9.01,9.11,9.21,9.2,9.46,9.2c0.11,0,0.22-0.02,0.35-0.05c0.02-0.01,0.04-0.01,0.07-0.02
			c0,0,0.01,0,0.01,0c0,0,0-0.01-0.01-0.01C9.87,9.09,9.85,9.07,9.82,9.04c-0.06-0.07-0.17-0.18-0.3-0.29
			C9.39,8.65,9.24,8.54,9.09,8.5c0.08,0.02,0.26,0.07,0.44,0.17C9.64,8.73,9.76,8.81,9.85,8.91z M9.53,8.24
			C9.51,8.23,9.49,8.22,9.48,8.22C9.49,8.23,9.51,8.24,9.53,8.24C9.56,8.27,9.6,8.29,9.64,8.31C9.6,8.28,9.57,8.26,9.53,8.24z
			 M9.85,8.91C9.87,8.93,9.89,8.95,9.9,8.97C9.91,8.98,9.92,9,9.93,9.01c0,0,0-0.04-0.02-0.1v0C9.91,8.88,9.9,8.84,9.88,8.79
			C9.85,8.7,9.8,8.58,9.72,8.48C9.69,8.44,9.65,8.4,9.6,8.37l0,0C9.58,8.35,9.55,8.33,9.53,8.31C9.5,8.3,9.47,8.29,9.45,8.27
			c0,0,0,0,0,0C9.4,8.25,9.34,8.24,9.29,8.23C9.25,8.22,9.22,8.22,9.18,8.22c-0.17,0-0.31-0.01-0.43-0.02
			C8.67,8.2,8.6,8.2,8.54,8.19C8.35,8.18,8.28,8.17,8.28,8.17s0,0,0,0.01v0c0.02,0.05,0.1,0.28,0.27,0.51c0,0,0,0,0,0c0,0,0,0,0,0h0
			c0.08,0.11,0.17,0.21,0.29,0.3C9.01,9.11,9.21,9.2,9.46,9.2c0.11,0,0.22-0.02,0.35-0.05c0.02-0.01,0.04-0.01,0.07-0.02
			c0,0,0.01,0,0.01,0c0,0,0-0.01-0.01-0.01C9.87,9.09,9.85,9.07,9.82,9.04c-0.06-0.07-0.17-0.18-0.3-0.29
			C9.39,8.65,9.24,8.54,9.09,8.5c0.08,0.02,0.26,0.07,0.44,0.17C9.64,8.73,9.76,8.81,9.85,8.91z M9.85,8.91
			C9.87,8.93,9.89,8.95,9.9,8.97C9.91,8.98,9.92,9,9.93,9.01c0,0,0-0.04-0.02-0.1v0C9.91,8.88,9.9,8.84,9.88,8.79
			C9.85,8.7,9.8,8.58,9.72,8.48C9.69,8.44,9.65,8.4,9.6,8.37l0,0C9.58,8.35,9.55,8.33,9.53,8.31C9.5,8.3,9.47,8.29,9.45,8.27
			c0,0,0,0,0,0C9.4,8.25,9.34,8.24,9.29,8.23C9.25,8.22,9.22,8.22,9.18,8.22c-0.17,0-0.31-0.01-0.43-0.02
			C8.67,8.2,8.6,8.2,8.54,8.19C8.35,8.18,8.28,8.17,8.28,8.17s0,0,0,0.01v0c0.02,0.05,0.1,0.28,0.27,0.51c0,0,0,0,0,0c0,0,0,0,0,0h0
			c0.08,0.11,0.17,0.21,0.29,0.3C9.01,9.11,9.21,9.2,9.46,9.2c0.11,0,0.22-0.02,0.35-0.05c0.02-0.01,0.04-0.01,0.07-0.02
			c0,0,0.01,0,0.01,0c0,0,0-0.01-0.01-0.01C9.87,9.09,9.85,9.07,9.82,9.04c-0.06-0.07-0.17-0.18-0.3-0.29
			C9.39,8.65,9.24,8.54,9.09,8.5c0.08,0.02,0.26,0.07,0.44,0.17C9.64,8.73,9.76,8.81,9.85,8.91z M9.85,8.91
			C9.87,8.93,9.89,8.95,9.9,8.97C9.91,8.98,9.92,9,9.93,9.01c0,0,0-0.04-0.02-0.1v0C9.91,8.88,9.9,8.84,9.88,8.79
			C9.85,8.7,9.8,8.58,9.72,8.48C9.69,8.44,9.65,8.4,9.6,8.37l0,0C9.58,8.35,9.55,8.33,9.53,8.31C9.5,8.3,9.47,8.29,9.45,8.27
			c0,0,0,0,0,0C9.4,8.25,9.34,8.24,9.29,8.23C9.25,8.22,9.22,8.22,9.18,8.22c-0.17,0-0.31-0.01-0.43-0.02
			C8.67,8.2,8.6,8.2,8.54,8.19C8.35,8.18,8.28,8.17,8.28,8.17s0,0,0,0.01v0c0.02,0.05,0.1,0.28,0.27,0.51c0,0,0,0,0,0c0,0,0,0,0,0h0
			c0.08,0.11,0.17,0.21,0.29,0.3C9.01,9.11,9.21,9.2,9.46,9.2c0.11,0,0.22-0.02,0.35-0.05c0.02-0.01,0.04-0.01,0.07-0.02
			c0,0,0.01,0,0.01,0c0,0,0-0.01-0.01-0.01C9.87,9.09,9.85,9.07,9.82,9.04c-0.06-0.07-0.17-0.18-0.3-0.29
			C9.39,8.65,9.24,8.54,9.09,8.5c0.08,0.02,0.26,0.07,0.44,0.17C9.64,8.73,9.76,8.81,9.85,8.91z M9.85,8.91
			C9.87,8.93,9.89,8.95,9.9,8.97C9.91,8.98,9.92,9,9.93,9.01c0,0,0-0.04-0.02-0.1v0C9.91,8.88,9.9,8.84,9.88,8.79
			C9.85,8.7,9.8,8.58,9.72,8.48C9.69,8.44,9.65,8.4,9.6,8.37l0,0C9.58,8.35,9.55,8.33,9.53,8.31C9.5,8.3,9.47,8.29,9.45,8.27
			c0,0,0,0,0,0C9.4,8.25,9.34,8.24,9.29,8.23C9.25,8.22,9.22,8.22,9.18,8.22c-0.17,0-0.31-0.01-0.43-0.02
			C8.67,8.2,8.6,8.2,8.54,8.19C8.35,8.18,8.28,8.17,8.28,8.17s0,0,0,0.01v0c0.02,0.05,0.1,0.28,0.27,0.51c0,0,0,0,0,0c0,0,0,0,0,0h0
			c0.08,0.11,0.17,0.21,0.29,0.3C9.01,9.11,9.21,9.2,9.46,9.2c0.11,0,0.22-0.02,0.35-0.05c0.02-0.01,0.04-0.01,0.07-0.02
			c0,0,0.01,0,0.01,0c0,0,0-0.01-0.01-0.01C9.87,9.09,9.85,9.07,9.82,9.04c-0.06-0.07-0.17-0.18-0.3-0.29
			C9.39,8.65,9.24,8.54,9.09,8.5c0.08,0.02,0.26,0.07,0.44,0.17C9.64,8.73,9.76,8.81,9.85,8.91z M9.85,8.91
			C9.87,8.93,9.89,8.95,9.9,8.97C9.91,8.98,9.92,9,9.93,9.01c0,0,0-0.04-0.02-0.1v0C9.91,8.88,9.9,8.84,9.88,8.79
			C9.85,8.7,9.8,8.58,9.72,8.48C9.69,8.44,9.65,8.4,9.6,8.37l0,0C9.58,8.35,9.55,8.33,9.53,8.31C9.5,8.3,9.47,8.29,9.45,8.27
			c0,0,0,0,0,0C9.4,8.25,9.34,8.24,9.29,8.23C9.25,8.22,9.22,8.22,9.18,8.22c-0.17,0-0.31-0.01-0.43-0.02
			C8.67,8.2,8.6,8.2,8.54,8.19C8.35,8.18,8.28,8.17,8.28,8.17s0,0,0,0.01v0c0.02,0.05,0.1,0.28,0.27,0.51c0,0,0,0,0,0c0,0,0,0,0,0h0
			c0.08,0.11,0.17,0.21,0.29,0.3C9.01,9.11,9.21,9.2,9.46,9.2c0.11,0,0.22-0.02,0.35-0.05c0.02-0.01,0.04-0.01,0.07-0.02
			c0,0,0.01,0,0.01,0c0,0,0-0.01-0.01-0.01C9.87,9.09,9.85,9.07,9.82,9.04c-0.06-0.07-0.17-0.18-0.3-0.29
			C9.39,8.65,9.24,8.54,9.09,8.5c0.08,0.02,0.26,0.07,0.44,0.17C9.64,8.73,9.76,8.81,9.85,8.91z M9.85,8.91
			C9.87,8.93,9.89,8.95,9.9,8.97C9.91,8.98,9.92,9,9.93,9.01c0,0,0-0.04-0.02-0.1v0C9.91,8.88,9.9,8.84,9.88,8.79
			C9.85,8.7,9.8,8.58,9.72,8.48C9.69,8.44,9.65,8.4,9.6,8.37l0,0C9.58,8.35,9.55,8.33,9.53,8.31C9.5,8.3,9.47,8.29,9.45,8.27
			c0,0,0,0,0,0C9.4,8.25,9.34,8.24,9.29,8.23C9.25,8.22,9.22,8.22,9.18,8.22c-0.17,0-0.31-0.01-0.43-0.02
			C8.67,8.2,8.6,8.2,8.54,8.19C8.35,8.18,8.28,8.17,8.28,8.17s0,0,0,0.01v0c0.02,0.05,0.1,0.28,0.27,0.51c0,0,0,0,0,0c0,0,0,0,0,0h0
			c0.08,0.11,0.17,0.21,0.29,0.3C9.01,9.11,9.21,9.2,9.46,9.2c0.11,0,0.22-0.02,0.35-0.05c0.02-0.01,0.04-0.01,0.07-0.02
			c0,0,0.01,0,0.01,0c0,0,0-0.01-0.01-0.01C9.87,9.09,9.85,9.07,9.82,9.04c-0.06-0.07-0.17-0.18-0.3-0.29
			C9.39,8.65,9.24,8.54,9.09,8.5c0.08,0.02,0.26,0.07,0.44,0.17C9.64,8.73,9.76,8.81,9.85,8.91z M9.85,8.91
			C9.87,8.93,9.89,8.95,9.9,8.97C9.91,8.98,9.92,9,9.93,9.01c0,0,0-0.04-0.02-0.1v0C9.91,8.88,9.9,8.84,9.88,8.79
			C9.85,8.7,9.8,8.58,9.72,8.48C9.69,8.44,9.65,8.4,9.6,8.37l0,0C9.58,8.35,9.55,8.33,9.53,8.31C9.5,8.3,9.47,8.29,9.45,8.27
			c0,0,0,0,0,0C9.4,8.25,9.34,8.24,9.29,8.23C9.25,8.22,9.22,8.22,9.18,8.22c-0.17,0-0.31-0.01-0.43-0.02
			C8.67,8.2,8.6,8.2,8.54,8.19C8.35,8.18,8.28,8.17,8.28,8.17s0,0,0,0.01v0c0.02,0.05,0.1,0.28,0.27,0.51c0,0,0,0,0,0c0,0,0,0,0,0h0
			c0.08,0.11,0.17,0.21,0.29,0.3C9.01,9.11,9.21,9.2,9.46,9.2c0.11,0,0.22-0.02,0.35-0.05c0.02-0.01,0.04-0.01,0.07-0.02
			c0,0,0.01,0,0.01,0c0,0,0-0.01-0.01-0.01C9.87,9.09,9.85,9.07,9.82,9.04c-0.06-0.07-0.17-0.18-0.3-0.29
			C9.39,8.65,9.24,8.54,9.09,8.5c0.08,0.02,0.26,0.07,0.44,0.17C9.64,8.73,9.76,8.81,9.85,8.91z M9.85,8.91
			C9.87,8.93,9.89,8.95,9.9,8.97C9.91,8.98,9.92,9,9.93,9.01c0,0,0-0.04-0.02-0.1v0C9.91,8.88,9.9,8.84,9.88,8.79
			C9.85,8.7,9.8,8.58,9.72,8.48C9.69,8.44,9.65,8.4,9.6,8.37l0,0C9.58,8.35,9.55,8.33,9.53,8.31C9.5,8.3,9.47,8.29,9.45,8.27
			c0,0,0,0,0,0C9.4,8.25,9.34,8.24,9.29,8.23C9.25,8.22,9.22,8.22,9.18,8.22c-0.17,0-0.31-0.01-0.43-0.02
			C8.67,8.2,8.6,8.2,8.54,8.19C8.35,8.18,8.28,8.17,8.28,8.17s0,0,0,0.01v0c0.02,0.05,0.1,0.28,0.27,0.51c0,0,0,0,0,0c0,0,0,0,0,0h0
			c0.08,0.11,0.17,0.21,0.29,0.3C9.01,9.11,9.21,9.2,9.46,9.2c0.11,0,0.22-0.02,0.35-0.05c0.02-0.01,0.04-0.01,0.07-0.02
			c0,0,0.01,0,0.01,0c0,0,0-0.01-0.01-0.01C9.87,9.09,9.85,9.07,9.82,9.04c-0.06-0.07-0.17-0.18-0.3-0.29
			C9.39,8.65,9.24,8.54,9.09,8.5c0.08,0.02,0.26,0.07,0.44,0.17C9.64,8.73,9.76,8.81,9.85,8.91z M9.85,8.91
			C9.87,8.93,9.89,8.95,9.9,8.97C9.91,8.98,9.92,9,9.93,9.01c0,0,0-0.04-0.02-0.1v0C9.91,8.88,9.9,8.84,9.88,8.79
			C9.85,8.7,9.8,8.58,9.72,8.48C9.69,8.44,9.65,8.4,9.6,8.37l0,0C9.58,8.35,9.55,8.33,9.53,8.31C9.5,8.3,9.47,8.29,9.45,8.27
			c0,0,0,0,0,0C9.4,8.25,9.34,8.24,9.29,8.23C9.25,8.22,9.22,8.22,9.18,8.22c-0.17,0-0.31-0.01-0.43-0.02
			C8.67,8.2,8.6,8.2,8.54,8.19C8.35,8.18,8.28,8.17,8.28,8.17s0,0,0,0.01v0c0.02,0.05,0.1,0.28,0.27,0.51c0,0,0,0,0,0c0,0,0,0,0,0h0
			c0.08,0.11,0.17,0.21,0.29,0.3C9.01,9.11,9.21,9.2,9.46,9.2c0.11,0,0.22-0.02,0.35-0.05c0.02-0.01,0.04-0.01,0.07-0.02
			c0,0,0.01,0,0.01,0c0,0,0-0.01-0.01-0.01C9.87,9.09,9.85,9.07,9.82,9.04c-0.06-0.07-0.17-0.18-0.3-0.29
			C9.39,8.65,9.24,8.54,9.09,8.5c0.08,0.02,0.26,0.07,0.44,0.17C9.64,8.73,9.76,8.81,9.85,8.91z M9.85,8.91
			C9.87,8.93,9.89,8.95,9.9,8.97C9.91,8.98,9.92,9,9.93,9.01c0,0,0-0.04-0.02-0.1v0C9.91,8.88,9.9,8.84,9.88,8.79
			C9.85,8.7,9.8,8.58,9.72,8.48C9.69,8.44,9.65,8.4,9.6,8.37l0,0C9.58,8.35,9.55,8.33,9.53,8.31C9.5,8.3,9.47,8.29,9.45,8.27
			c0,0,0,0,0,0C9.4,8.25,9.34,8.24,9.29,8.23C9.25,8.22,9.22,8.22,9.18,8.22c-0.17,0-0.31-0.01-0.43-0.02
			C8.67,8.2,8.6,8.2,8.54,8.19C8.35,8.18,8.28,8.17,8.28,8.17s0,0,0,0.01v0c0.02,0.05,0.1,0.28,0.27,0.51c0,0,0,0,0,0c0,0,0,0,0,0h0
			c0.08,0.11,0.17,0.21,0.29,0.3C9.01,9.11,9.21,9.2,9.46,9.2c0.11,0,0.22-0.02,0.35-0.05c0.02-0.01,0.04-0.01,0.07-0.02
			c0,0,0.01,0,0.01,0c0,0,0-0.01-0.01-0.01C9.87,9.09,9.85,9.07,9.82,9.04c-0.06-0.07-0.17-0.18-0.3-0.29
			C9.39,8.65,9.24,8.54,9.09,8.5c0.08,0.02,0.26,0.07,0.44,0.17C9.64,8.73,9.76,8.81,9.85,8.91z M9.85,8.91
			C9.87,8.93,9.89,8.95,9.9,8.97C9.91,8.98,9.92,9,9.93,9.01c0,0,0-0.04-0.02-0.1v0C9.91,8.88,9.9,8.84,9.88,8.79
			C9.85,8.7,9.8,8.58,9.72,8.48C9.69,8.44,9.65,8.4,9.6,8.37l0,0C9.58,8.35,9.55,8.33,9.53,8.31C9.5,8.3,9.47,8.29,9.45,8.27
			c0,0,0,0,0,0C9.4,8.25,9.34,8.24,9.29,8.23C9.25,8.22,9.22,8.22,9.18,8.22c-0.17,0-0.31-0.01-0.43-0.02
			C8.67,8.2,8.6,8.2,8.54,8.19C8.35,8.18,8.28,8.17,8.28,8.17s0,0,0,0.01v0c0.02,0.05,0.1,0.28,0.27,0.51c0,0,0,0,0,0c0,0,0,0,0,0h0
			c0.08,0.11,0.17,0.21,0.29,0.3C9.01,9.11,9.21,9.2,9.46,9.2c0.11,0,0.22-0.02,0.35-0.05c0.02-0.01,0.04-0.01,0.07-0.02
			c0,0,0.01,0,0.01,0c0,0,0-0.01-0.01-0.01C9.87,9.09,9.85,9.07,9.82,9.04c-0.06-0.07-0.17-0.18-0.3-0.29
			C9.39,8.65,9.24,8.54,9.09,8.5c0.08,0.02,0.26,0.07,0.44,0.17C9.64,8.73,9.76,8.81,9.85,8.91z M9.85,8.91
			C9.87,8.93,9.89,8.95,9.9,8.97C9.91,8.98,9.92,9,9.93,9.01c0,0,0-0.04-0.02-0.1v0C9.91,8.88,9.9,8.84,9.88,8.79
			C9.85,8.7,9.8,8.58,9.72,8.48C9.69,8.44,9.65,8.4,9.6,8.37l0,0C9.58,8.35,9.55,8.33,9.53,8.31C9.5,8.3,9.47,8.29,9.45,8.27
			c0,0,0,0,0,0C9.4,8.25,9.34,8.24,9.29,8.23C9.25,8.22,9.22,8.22,9.18,8.22c-0.17,0-0.31-0.01-0.43-0.02
			C8.67,8.2,8.6,8.2,8.54,8.19C8.35,8.18,8.28,8.17,8.28,8.17s0,0,0,0.01v0c0.02,0.05,0.1,0.28,0.27,0.51c0,0,0,0,0,0c0,0,0,0,0,0h0
			c0.08,0.11,0.17,0.21,0.29,0.3C9.01,9.11,9.21,9.2,9.46,9.2c0.11,0,0.22-0.02,0.35-0.05c0.02-0.01,0.04-0.01,0.07-0.02
			c0,0,0.01,0,0.01,0c0,0,0-0.01-0.01-0.01C9.87,9.09,9.85,9.07,9.82,9.04c-0.06-0.07-0.17-0.18-0.3-0.29
			C9.39,8.65,9.24,8.54,9.09,8.5c0.08,0.02,0.26,0.07,0.44,0.17C9.64,8.73,9.76,8.81,9.85,8.91z M9.85,8.91
			C9.87,8.93,9.89,8.95,9.9,8.97C9.91,8.98,9.92,9,9.93,9.01c0,0,0-0.04-0.02-0.1v0C9.91,8.88,9.9,8.84,9.88,8.79
			C9.85,8.7,9.8,8.58,9.72,8.48C9.69,8.44,9.65,8.4,9.6,8.37l0,0C9.58,8.35,9.55,8.33,9.53,8.31C9.5,8.3,9.47,8.29,9.45,8.27
			c0,0,0,0,0,0C9.4,8.25,9.34,8.24,9.29,8.23C9.25,8.22,9.22,8.22,9.18,8.22c-0.17,0-0.31-0.01-0.43-0.02
			C8.67,8.2,8.6,8.2,8.54,8.19C8.35,8.18,8.28,8.17,8.28,8.17s0,0,0,0.01v0c0.02,0.05,0.1,0.28,0.27,0.51c0,0,0,0,0,0c0,0,0,0,0,0h0
			c0.08,0.11,0.17,0.21,0.29,0.3C9.01,9.11,9.21,9.2,9.46,9.2c0.11,0,0.22-0.02,0.35-0.05c0.02-0.01,0.04-0.01,0.07-0.02
			c0,0,0.01,0,0.01,0c0,0,0-0.01-0.01-0.01C9.87,9.09,9.85,9.07,9.82,9.04c-0.06-0.07-0.17-0.18-0.3-0.29
			C9.39,8.65,9.24,8.54,9.09,8.5c0.08,0.02,0.26,0.07,0.44,0.17C9.64,8.73,9.76,8.81,9.85,8.91z M9.85,8.91
			C9.87,8.93,9.89,8.95,9.9,8.97C9.91,8.98,9.92,9,9.93,9.01c0,0,0-0.04-0.02-0.1v0C9.91,8.88,9.9,8.84,9.88,8.79
			C9.85,8.7,9.8,8.58,9.72,8.48C9.69,8.44,9.65,8.4,9.6,8.37l0,0C9.58,8.35,9.55,8.33,9.53,8.31C9.5,8.3,9.47,8.29,9.45,8.27
			c0,0,0,0,0,0C9.4,8.25,9.34,8.24,9.29,8.23C9.25,8.22,9.22,8.22,9.18,8.22c-0.17,0-0.31-0.01-0.43-0.02
			C8.67,8.2,8.6,8.2,8.54,8.19C8.35,8.18,8.28,8.17,8.28,8.17s0,0,0,0.01v0c0.02,0.05,0.1,0.28,0.27,0.51c0,0,0,0,0,0c0,0,0,0,0,0h0
			c0.08,0.11,0.17,0.21,0.29,0.3C9.01,9.11,9.21,9.2,9.46,9.2c0.11,0,0.22-0.02,0.35-0.05c0.02-0.01,0.04-0.01,0.07-0.02
			c0,0,0.01,0,0.01,0c0,0,0-0.01-0.01-0.01C9.87,9.09,9.85,9.07,9.82,9.04c-0.06-0.07-0.17-0.18-0.3-0.29
			C9.39,8.65,9.24,8.54,9.09,8.5c0.08,0.02,0.26,0.07,0.44,0.17C9.64,8.73,9.76,8.81,9.85,8.91z M9.85,8.91
			C9.87,8.93,9.89,8.95,9.9,8.97C9.91,8.98,9.92,9,9.93,9.01c0,0,0-0.04-0.02-0.1v0C9.91,8.88,9.9,8.84,9.88,8.79
			C9.85,8.7,9.8,8.58,9.72,8.48C9.69,8.44,9.65,8.4,9.6,8.37l0,0C9.58,8.35,9.55,8.33,9.53,8.31C9.5,8.3,9.47,8.29,9.45,8.27
			c0,0,0,0,0,0C9.4,8.25,9.34,8.24,9.29,8.23C9.25,8.22,9.22,8.22,9.18,8.22c-0.17,0-0.31-0.01-0.43-0.02
			C8.67,8.2,8.6,8.2,8.54,8.19C8.35,8.18,8.28,8.17,8.28,8.17s0,0,0,0.01v0c0.02,0.05,0.1,0.28,0.27,0.51c0,0,0,0,0,0c0,0,0,0,0,0h0
			c0.08,0.11,0.17,0.21,0.29,0.3C9.01,9.11,9.21,9.2,9.46,9.2c0.11,0,0.22-0.02,0.35-0.05c0.02-0.01,0.04-0.01,0.07-0.02
			c0,0,0.01,0,0.01,0c0,0,0-0.01-0.01-0.01C9.87,9.09,9.85,9.07,9.82,9.04c-0.06-0.07-0.17-0.18-0.3-0.29
			C9.39,8.65,9.24,8.54,9.09,8.5c0.08,0.02,0.26,0.07,0.44,0.17C9.64,8.73,9.76,8.81,9.85,8.91z M9.92,8.91L9.92,8.91
			C9.91,8.88,9.9,8.84,9.88,8.79C9.85,8.7,9.8,8.58,9.72,8.48C9.69,8.44,9.65,8.4,9.6,8.37l0,0C9.58,8.35,9.55,8.33,9.53,8.31
			C9.5,8.3,9.47,8.29,9.45,8.27c0,0,0,0,0,0C9.4,8.25,9.34,8.24,9.29,8.23C9.25,8.22,9.22,8.22,9.18,8.22
			c-0.17,0-0.31-0.01-0.43-0.02C8.67,8.2,8.6,8.2,8.54,8.19C8.35,8.18,8.28,8.17,8.28,8.17s0,0,0,0.01v0
			c0.02,0.05,0.1,0.28,0.27,0.51c0,0,0,0,0,0c0,0,0,0,0,0h0c0.08,0.11,0.17,0.21,0.29,0.3C9.01,9.11,9.21,9.2,9.46,9.2
			c0.11,0,0.22-0.02,0.35-0.05c0-0.04,0.01-0.07,0.01-0.1c-0.06-0.07-0.17-0.18-0.3-0.29C9.39,8.65,9.24,8.54,9.09,8.5
			c0.08,0.02,0.26,0.07,0.44,0.17c0.12,0.06,0.23,0.14,0.32,0.24C9.87,8.93,9.89,8.95,9.9,8.97C9.91,8.98,9.92,9,9.93,9.01
			C9.93,9.01,9.93,8.97,9.92,8.91z M9.53,8.75C9.39,8.65,9.24,8.54,9.09,8.5c0.08,0.02,0.26,0.07,0.44,0.17V8.4
			C9.44,8.35,9.36,8.3,9.29,8.23C9.25,8.22,9.22,8.22,9.18,8.22c-0.17,0-0.31-0.01-0.43-0.02C8.67,8.2,8.6,8.2,8.54,8.19
			C8.35,8.18,8.28,8.17,8.28,8.17s0,0,0,0.01v0c0.02,0.05,0.1,0.28,0.27,0.51c0,0,0,0,0,0c0,0,0,0,0,0h0
			c0.08,0.11,0.17,0.21,0.29,0.3C9.01,9.11,9.21,9.2,9.46,9.2c0.11,0,0.22-0.02,0.35-0.05c0-0.04,0.01-0.07,0.01-0.1
			C9.76,8.97,9.65,8.86,9.53,8.75z M8.54,8.19C8.35,8.18,8.28,8.17,8.28,8.17s0,0,0,0.01v0c0.02,0.05,0.1,0.28,0.27,0.51
			c0,0,0,0,0,0c0,0,0,0,0,0h0l0.2-0.49C8.67,8.2,8.6,8.2,8.54,8.19z"/>
		<path class="st0" d="M9.8,8.37C9.74,8.35,9.69,8.33,9.64,8.31h0C9.6,8.28,9.57,8.26,9.53,8.24C9.51,8.23,9.49,8.22,9.48,8.22
			C9.43,8.18,9.39,8.15,9.35,8.11c0.06,0.01,0.12,0.03,0.18,0.06C9.63,8.21,9.72,8.28,9.8,8.37z"/>
		<path class="st0" d="M8.84,4.49c0,0,0-0.02-0.06-0.07c-0.05-0.04-0.29,0-0.36-0.03c-0.05-0.02-0.12,0-0.16,0.02
			c-0.01,0-0.01-0.01-0.01-0.01C8.29,4.35,8.41,4.24,8.6,4.22C8.85,4.19,8.84,4.49,8.84,4.49z"/>
		<path class="st0" d="M8.1,4.12C8.68,3.77,8.92,4.05,8.95,4.1c0,0,0,0.01,0,0C8.61,3.99,8.21,4.1,8.1,4.12
			C8.1,4.13,8.1,4.12,8.1,4.12z"/>
		<path class="st0" d="M9.1,5.71c0.07,0,0.12-0.01,0.16-0.02C9.24,5.77,9.17,5.83,9.1,5.83c-0.08,0-0.16-0.14-0.16-0.15
			C8.97,5.69,9.03,5.71,9.1,5.71z"/>
		<path class="st0" d="M9.54,5.37c0,0-0.42,0.34-0.75,0.02C8.72,5.31,8.65,5.21,8.6,5.06c0.01,0.03,0.09,0.18,0.32,0.27
			C9.06,5.38,9.26,5.41,9.54,5.37z"/>
		<path class="st0" d="M9.81,4.08L9.81,4.08c0,0.04,0,0.09-0.01,0.13c0,0,0,0,0,0c0,0-0.27-0.08-0.35,0.08
			C9.45,4.31,9.44,4.33,9.44,4.35c0,0,0.21-0.04,0.31,0.06v0C9.74,4.46,9.73,4.5,9.72,4.53c0-0.01-0.01-0.01-0.03-0.02
			C9.68,4.49,9.67,4.48,9.66,4.49c-0.01,0.02-0.07,0.09-0.2,0c0,0-0.01-0.01-0.02-0.01c0.02,0.14,0.09,0.31,0.09,0.43
			c0,0.04-0.02,0.08-0.06,0.12c0,0,0,0,0,0C9.43,5.06,9.38,5.09,9.33,5.11c0,0,0,0,0,0c-0.1,0.04-0.19,0.04-0.17,0
			C9.19,5.03,9.39,4.97,9.4,4.9c0-0.08-0.13-0.44-0.06-0.66C9.4,4.01,9.81,4.08,9.81,4.08z"/>
		<path class="st0" d="M8.54,8.19L8.48,8.33L8.28,8.18v0c0-0.01,0-0.01,0-0.01S8.35,8.18,8.54,8.19z"/>
		<path class="st0" d="M9.53,8.24L9.53,8.24c-0.02,0-0.03-0.01-0.05-0.02C9.49,8.22,9.51,8.23,9.53,8.24z"/>
		<path class="st0" d="M9.53,8.31v0.36C9.34,8.57,9.16,8.52,9.09,8.5c0.15,0.04,0.31,0.15,0.44,0.25v0.22L8.84,8.99
			C8.73,8.91,8.63,8.8,8.55,8.7l0.2-0.49c0.12,0.01,0.26,0.01,0.43,0.02c0.04,0,0.07,0,0.11,0.01C9.34,8.24,9.4,8.25,9.44,8.27
			c0,0,0,0,0,0C9.47,8.29,9.5,8.3,9.53,8.31z"/>
		<g>
			<g>
				<path class="st0" d="M11.38,6.82c0,0.01,0,0.02-0.01,0.03 M11.38,6.81C11.38,6.81,11.38,6.81,11.38,6.81
					C11.38,6.81,11.38,6.81,11.38,6.81c0,0.01,0,0.01,0,0.01c0,0.01,0,0.02-0.01,0.03c0,0,0,0.01,0,0.01 M10.44,8.18
					C10.44,8.18,10.44,8.18,10.44,8.18c0.01,0,0.02,0,0.03,0c0.01-0.02,0.03-0.04,0.05-0.06C10.51,8.12,10.48,8.14,10.44,8.18z
					 M10.58,8.25C10.58,8.25,10.58,8.25,10.58,8.25C10.58,8.25,10.58,8.24,10.58,8.25C10.58,8.24,10.58,8.25,10.58,8.25z"/>
				<path class="st0" d="M11.86,5.66c0,0-0.05,0.32-0.08,1.34c-0.03,0.84-0.8,1.05-1.08,1.1c-0.02,0-0.04,0.01-0.06,0.01
					c-0.03,0-0.04,0.01-0.04,0.01c0.01-0.01,0.03-0.02,0.04-0.03c0.01-0.01,0.02-0.01,0.03-0.02c0.44-0.33,0.64-1.01,0.7-1.21
					c-0.13,0.44-0.58,0.89-0.8,1.09c-0.02,0.01-0.03,0.03-0.04,0.04c-0.05,0.04-0.08,0.06-0.08,0.06c0-0.01-0.01-0.02-0.01-0.04
					c-0.03-0.09-0.05-0.17-0.07-0.26C10.05,6.21,11.86,5.66,11.86,5.66z"/>
			</g>
			<g>
				<path class="st0" d="M9.6,8.37C9.58,8.35,9.55,8.34,9.53,8.32C9.5,8.31,9.47,8.29,9.45,8.27C9.47,8.29,9.5,8.3,9.53,8.31
					C9.55,8.33,9.58,8.35,9.6,8.37z"/>
				<path class="st0" d="M9.64,8.31C9.6,8.29,9.56,8.27,9.53,8.25C9.51,8.24,9.49,8.23,9.48,8.22c0.02,0.01,0.03,0.01,0.05,0.02
					C9.57,8.26,9.6,8.28,9.64,8.31z"/>
				<path class="st0" d="M10.07,8.41C10.07,8.41,10.07,8.41,10.07,8.41C10.07,8.41,10.07,8.41,10.07,8.41
					C10.07,8.41,10.07,8.41,10.07,8.41C10.07,8.41,10.07,8.41,10.07,8.41z M9.53,8.24C9.51,8.23,9.49,8.22,9.48,8.22
					C9.49,8.23,9.51,8.24,9.53,8.24C9.56,8.27,9.6,8.29,9.64,8.31C9.6,8.28,9.57,8.26,9.53,8.24z M9.6,8.37L9.6,8.37
					C9.58,8.35,9.55,8.33,9.53,8.31C9.5,8.3,9.47,8.29,9.45,8.27c0,0,0,0,0,0C9.4,8.25,9.34,8.24,9.29,8.23
					C9.36,8.3,9.44,8.35,9.53,8.4c0.06,0.03,0.13,0.06,0.2,0.09C9.69,8.44,9.65,8.4,9.6,8.37z M9.53,8.24
					C9.51,8.23,9.49,8.22,9.48,8.22C9.49,8.23,9.51,8.24,9.53,8.24C9.56,8.27,9.6,8.29,9.64,8.31C9.6,8.28,9.57,8.26,9.53,8.24z
					 M9.56,7.46L9.56,7.46L9.56,7.46c0.01,0.01,0.02,0.02,0.03,0.03 M9.64,8.31L9.64,8.31 M9.64,8.31L9.64,8.31 M9.48,8.22
					c0.02,0.01,0.03,0.02,0.05,0.03C9.56,8.27,9.6,8.29,9.64,8.31 M9.64,8.31L9.64,8.31"/>
				<path class="st0" d="M9.59,7.49c0.29,0.29,0.42,0.93,0.42,0.93C9.93,8.41,9.86,8.39,9.8,8.37C9.72,8.28,9.63,8.21,9.53,8.17
					C9.47,8.14,9.41,8.12,9.35,8.11C9.19,7.95,9.1,7.76,9.06,7.57C9.03,7.48,9.02,7.38,9.01,7.3C8.99,7.02,9.03,6.81,9.03,6.81
					s0.18,0.13,0.77,0.47c0.13,0.07,0.22,0.17,0.27,0.26c0.21,0.36,0.02,0.8,0.02,0.8C10.07,7.96,9.7,7.59,9.59,7.49z"/>
			</g>
			<g>
				<path class="st0" d="M9.64,8.31C9.6,8.29,9.56,8.27,9.53,8.25C9.51,8.24,9.49,8.23,9.48,8.22c0.02,0.01,0.03,0.01,0.05,0.02
					C9.57,8.26,9.6,8.28,9.64,8.31z"/>
				<path class="st0" d="M9.53,8.67C9.34,8.57,9.16,8.52,9.09,8.5c0.15,0.04,0.31,0.15,0.44,0.25c0.13,0.1,0.23,0.21,0.3,0.29
					C9.85,9.07,9.87,9.09,9.88,9.1c0.01,0.01,0.01,0.01,0.01,0.01c0,0-0.01,0-0.01,0C9.85,9.13,9.83,9.14,9.81,9.14
					C9.68,9.18,9.56,9.2,9.46,9.2c-0.25,0-0.45-0.08-0.61-0.21C8.73,8.91,8.63,8.8,8.55,8.7h0c0,0,0,0,0,0c0,0,0,0,0,0
					C8.38,8.46,8.3,8.23,8.28,8.18v0c0-0.01,0-0.01,0-0.01s0.07,0.01,0.25,0.02C8.6,8.2,8.67,8.2,8.75,8.2
					c0.12,0.01,0.26,0.01,0.43,0.02c0.04,0,0.07,0,0.11,0.01C9.34,8.24,9.4,8.25,9.44,8.27c0,0,0,0,0,0C9.47,8.29,9.5,8.3,9.53,8.31
					C9.55,8.33,9.58,8.35,9.6,8.37l0,0C9.65,8.4,9.69,8.44,9.72,8.48C9.8,8.58,9.85,8.7,9.88,8.79C9.9,8.84,9.91,8.88,9.92,8.91v0
					c0.01,0.06,0.02,0.1,0.02,0.1C9.92,9,9.91,8.98,9.9,8.97C9.89,8.95,9.87,8.93,9.85,8.91C9.76,8.81,9.64,8.73,9.53,8.67z"/>
				<polygon class="st0" points="9.94,9.08 9.94,9.08 9.94,9.08 				"/>
				<path class="st0" d="M9.95,9.14c0,0.01-0.01,0.02-0.02,0.03c0-0.03,0.01-0.05,0.01-0.08C9.95,9.1,9.96,9.12,9.95,9.14z"/>
				<path class="st0" d="M10,9.01c0,0.03-0.02,0.06-0.04,0.07c0,0-0.01,0-0.01,0c0.01-0.06,0.02-0.11,0.04-0.17
					C9.99,8.97,10,9.01,10,9.01z"/>
				<path class="st0" d="M10.02,8.8c-0.01,0.04-0.03,0.08-0.04,0.12C9.97,8.96,9.95,9.02,9.94,9.08c0,0,0,0,0,0c0,0,0,0,0,0.01v0
					c0,0.03-0.01,0.05-0.01,0.08v0c0,0.02,0,0.05-0.01,0.08c0,0,0,0,0,0C9.97,9.23,10,9.2,10.01,9.15c0-0.01,0.01-0.03,0-0.04
					c0.03-0.03,0.05-0.07,0.04-0.11C10.06,9,10.05,8.91,10.02,8.8z M9.85,8.91C9.87,8.93,9.89,8.95,9.9,8.97
					C9.91,8.98,9.92,9,9.93,9.01c0,0,0-0.04-0.02-0.1v0C9.91,8.88,9.9,8.84,9.88,8.79C9.85,8.7,9.8,8.58,9.72,8.48
					C9.69,8.44,9.65,8.4,9.6,8.37l0,0C9.58,8.35,9.55,8.33,9.53,8.31C9.5,8.3,9.47,8.29,9.45,8.27c0,0,0,0,0,0
					C9.4,8.25,9.34,8.24,9.29,8.23C9.25,8.22,9.22,8.22,9.18,8.22c-0.17,0-0.31-0.01-0.43-0.02C8.67,8.2,8.6,8.2,8.54,8.19
					C8.35,8.18,8.28,8.17,8.28,8.17s0,0,0,0.01v0c0.02,0.05,0.1,0.28,0.27,0.51c0,0,0,0,0,0c0,0,0,0,0,0h0
					c0.08,0.11,0.17,0.21,0.29,0.3C9.01,9.11,9.21,9.2,9.46,9.2c0.11,0,0.22-0.02,0.35-0.05c0.02-0.01,0.04-0.01,0.07-0.02
					c0,0,0.01,0,0.01,0c0,0,0-0.01-0.01-0.01C9.87,9.09,9.85,9.07,9.82,9.04c-0.06-0.07-0.17-0.18-0.3-0.29
					C9.39,8.65,9.24,8.54,9.09,8.5c0.08,0.02,0.26,0.07,0.44,0.17C9.64,8.73,9.76,8.81,9.85,8.91z M9.53,8.24
					C9.51,8.23,9.49,8.22,9.48,8.22C9.49,8.23,9.51,8.24,9.53,8.24C9.56,8.27,9.6,8.29,9.64,8.31C9.6,8.28,9.57,8.26,9.53,8.24z
					 M9.85,8.91C9.87,8.93,9.89,8.95,9.9,8.97C9.91,8.98,9.92,9,9.93,9.01c0,0,0-0.04-0.02-0.1v0C9.91,8.88,9.9,8.84,9.88,8.79
					C9.85,8.7,9.8,8.58,9.72,8.48C9.69,8.44,9.65,8.4,9.6,8.37l0,0C9.58,8.35,9.55,8.33,9.53,8.31C9.5,8.3,9.47,8.29,9.45,8.27
					c0,0,0,0,0,0C9.4,8.25,9.34,8.24,9.29,8.23C9.25,8.22,9.22,8.22,9.18,8.22c-0.17,0-0.31-0.01-0.43-0.02
					C8.67,8.2,8.6,8.2,8.54,8.19C8.35,8.18,8.28,8.17,8.28,8.17s0,0,0,0.01v0c0.02,0.05,0.1,0.28,0.27,0.51c0,0,0,0,0,0c0,0,0,0,0,0
					h0c0.08,0.11,0.17,0.21,0.29,0.3C9.01,9.11,9.21,9.2,9.46,9.2c0.11,0,0.22-0.02,0.35-0.05c0.02-0.01,0.04-0.01,0.07-0.02
					c0,0,0.01,0,0.01,0c0,0,0-0.01-0.01-0.01C9.87,9.09,9.85,9.07,9.82,9.04c-0.06-0.07-0.17-0.18-0.3-0.29
					C9.39,8.65,9.24,8.54,9.09,8.5c0.08,0.02,0.26,0.07,0.44,0.17C9.64,8.73,9.76,8.81,9.85,8.91z M9.05,8.49
					C9.05,8.49,9.05,8.49,9.05,8.49c0.01,0,0.02,0,0.03,0.01c0,0,0.01,0,0.01,0 M9.53,8.31C9.55,8.33,9.58,8.35,9.6,8.37l0,0
					C9.65,8.4,9.69,8.44,9.72,8.48C9.8,8.58,9.85,8.7,9.88,8.79C9.9,8.84,9.91,8.88,9.92,8.91v0c0.01,0.06,0.02,0.1,0.02,0.1
					C9.92,9,9.91,8.98,9.9,8.97C9.89,8.95,9.87,8.93,9.85,8.91c-0.09-0.1-0.21-0.18-0.32-0.24C9.34,8.57,9.16,8.52,9.09,8.5
					c0.15,0.04,0.31,0.15,0.44,0.25c0.13,0.1,0.23,0.21,0.3,0.29C9.85,9.07,9.87,9.09,9.88,9.1c0.01,0.01,0.01,0.01,0.01,0.01
					c0,0-0.01,0-0.01,0C9.85,9.13,9.83,9.14,9.81,9.14C9.68,9.18,9.56,9.2,9.46,9.2c-0.25,0-0.45-0.08-0.61-0.21
					C8.73,8.91,8.63,8.8,8.55,8.7h0c0,0,0,0,0,0c0,0,0,0,0,0C8.38,8.46,8.3,8.23,8.28,8.18v0c0-0.01,0-0.01,0-0.01
					s0.07,0.01,0.25,0.02C8.6,8.2,8.67,8.2,8.75,8.2c0.12,0.01,0.26,0.01,0.43,0.02c0.04,0,0.07,0,0.11,0.01
					C9.34,8.24,9.4,8.25,9.44,8.27c0,0,0,0,0,0C9.47,8.29,9.5,8.3,9.53,8.31"/>
			</g>
			<g>
				<polygon class="st0" points="10.58,8.24 10.58,8.25 10.58,8.25 				"/>
				<path class="st0" d="M11.05,8.47C11.03,8.48,11.01,8.48,11,8.49c0,0,0,0,0,0C11.02,8.48,11.04,8.48,11.05,8.47z"/>
				<path class="st0" d="M10.58,8.25C10.58,8.25,10.58,8.25,10.58,8.25C10.58,8.25,10.58,8.24,10.58,8.25
					C10.58,8.24,10.58,8.25,10.58,8.25z M10.99,8.49C10.99,8.49,10.99,8.49,10.99,8.49c0.02-0.01,0.04-0.01,0.06-0.02
					C11.04,8.48,11.02,8.48,10.99,8.49z M10.21,8.59c-0.1,0.22-0.11,0.44-0.11,0.45c0,0.03,0.01,0.06,0.02,0.08
					c0.02-0.22,0.07-0.49,0.23-0.76C10.3,8.42,10.25,8.5,10.21,8.59z M11.05,8.47c0,0,0.01,0,0.01,0c0,0,0.01,0,0.01,0c0,0,0,0,0,0
					c0,0,0,0,0.01,0c0,0,0,0,0,0c0,0,0,0,0,0"/>
				<path class="st0" d="M11.84,8.09c0,0-0.13,0.56-0.55,0.89c-0.17,0.13-0.38,0.22-0.64,0.22c-0.11,0-0.24-0.02-0.37-0.05
					c0,0,0.35-0.48,0.71-0.65c0.02-0.01,0.04-0.02,0.06-0.02c-0.02,0-0.03,0.01-0.06,0.02c-0.17,0.06-0.54,0.22-0.72,0.49
					C10.26,9,10.24,9.02,10.23,9.04c0,0,0.01-0.36,0.23-0.61c0.08-0.09,0.19-0.17,0.33-0.21c0.05-0.01,0.09-0.02,0.15-0.03
					C11.63,8.13,11.84,8.09,11.84,8.09z"/>
			</g>
			<g>
				<path class="st0" d="M9.89,9.12c0,0-0.01,0-0.01,0c0-0.01,0-0.01,0-0.02C9.88,9.11,9.89,9.12,9.89,9.12z"/>
				<path class="st0" d="M9.93,9.01C9.92,9,9.91,8.98,9.9,8.97c0-0.02,0.01-0.04,0.01-0.06C9.93,8.97,9.93,9.01,9.93,9.01z"/>
				<path class="st0" d="M10.08,8.53c0,0.01-0.01,0.01-0.01,0.02C10.07,8.54,10.07,8.54,10.08,8.53L10.08,8.53z"/>
			</g>
		</g>
		<g>
			<path class="st0" d="M9.55,11.13c1.35,0.13,2.34-0.22,2.34-0.22l0.06-0.47c-0.62,0.08-1.25,0.11-1.88,0.11h-0.03
				c-0.61,0-1.23-0.04-1.84-0.11l0.08,0.63c0.11-0.07,0.22-0.13,0.3-0.2c0.2-0.16,0.28-0.24,0.28-0.24s0.04,0.02,0.06,0.13
				c0.02,0.11-0.2,0.33-0.36,0.5c-0.16,0.17-0.12,0.2-0.12,0.2c0.31,0.49,1.31,0.43,1.2,0.56c-0.11,0.13-0.84,0.04-0.84,0.04
				c0.24,0.2,0.91,0.2,0.71,0.28c-0.19,0.07-0.78,0-0.78,0c0.14,0.1,0.5,0.15,0.6,0.13c0.1-0.02,0.17,0.02,0.12,0.06
				c-0.31,0.14-0.66,0.14-0.97,0.09l0.02,0.13c0.02,0.13,0.12,0.22,0.25,0.24c0.14,0.02,0.28,0.03,0.42,0.05
				c0.3,0.04,0.61,0.06,0.91,0.06c0.21,0,0.43-0.01,0.64-0.03c0.06-0.01,0.11-0.01,0.17-0.02c0.17-0.02,0.34-0.04,0.51-0.06
				c0.13-0.02,0.24-0.12,0.25-0.24l0.12-0.9c-0.03,0.01-0.06,0.01-0.09,0.02c-0.84,0.2-1.5,0.06-1.84-0.06
				c-0.04-0.01-0.03-0.08,0.02-0.07c1.05,0.1,1.84-0.15,1.94-0.18v0l0.04-0.3c-1.07,0.28-1.9,0.1-2.32-0.04
				C9.48,11.2,9.49,11.13,9.55,11.13z"/>
		</g>
		<g>
			<path class="st0" d="M12.16,9.68v0.43c0,0.05-0.02,0.1-0.06,0.14c-0.02,0.02-0.04,0.03-0.07,0.04c-0.01,0-0.03,0.01-0.04,0.01
				c-0.01,0-0.02,0-0.02,0c-0.01,0-0.03,0-0.04,0c-0.56,0.07-1.18,0.11-1.86,0.11h-0.03c-0.68,0-1.3-0.05-1.86-0.12
				c-0.01,0-0.02,0-0.03,0c-0.01,0-0.03-0.01-0.04-0.01c-0.03-0.01-0.05-0.02-0.07-0.04C8,10.22,7.98,10.17,7.98,10.11V9.68
				c0-0.11,0.09-0.2,0.2-0.2c0,0,0.01,0,0.01,0c0.52,0.03,1.06,0.05,1.63,0.06c0.02,0,0.04,0,0.07,0c0.02,0,0.04,0,0.07,0
				c0.04,0,0.07,0,0.11,0h0.01c0.03,0,0.05,0,0.08,0c0.02,0,0.04,0,0.07,0c0.02,0,0.04,0,0.07,0c0.44,0,0.88-0.02,1.29-0.04
				c0.13-0.01,0.25-0.01,0.38-0.02c0,0,0.01,0,0.01,0C12.08,9.49,12.16,9.57,12.16,9.68z"/>
		</g>
		<path class="st0" d="M8.15,1.6C8.06,1.55,7.95,1.54,7.84,1.57C7.48,1.69,6.59,2.02,6.09,2.55C6.03,2.61,5.99,2.68,5.98,2.75
			C5.93,2.92,5.86,3.27,5.83,3.67C7.1,2.18,8.31,2.13,8.31,2.13c-1.32,0.3-2.14,1.42-2.42,1.85c0.28-0.3,1.5-1.5,3.38-1.76L8.15,1.6
			z"/>
		<path class="st0" d="M8.84,4.49c0,0,0-0.02-0.06-0.07c-0.05-0.04-0.29,0-0.36-0.03c-0.05-0.02-0.12,0-0.16,0.02
			c-0.01,0-0.01-0.01-0.01-0.01C8.29,4.35,8.41,4.24,8.6,4.22C8.85,4.19,8.84,4.49,8.84,4.49z"/>
		<path class="st0" d="M8.95,4.11C8.61,3.99,8.21,4.1,8.11,4.13c0,0-0.01,0,0-0.01C8.68,3.77,8.92,4.05,8.95,4.11
			C8.95,4.1,8.95,4.11,8.95,4.11z"/>
		<path class="st0" d="M9.81,4.15c0,0.02-0.01,0.05-0.01,0.06c0,0,0,0,0,0c0,0-0.27-0.08-0.35,0.08C9.45,4.31,9.44,4.33,9.44,4.35
			c-0.01,0.04,0,0.08,0,0.12v0c0.02,0.14,0.09,0.31,0.09,0.43c0,0.04-0.02,0.08-0.06,0.12c0,0,0,0,0,0
			C9.43,5.06,9.38,5.09,9.33,5.11c0,0,0,0,0,0c-0.1,0.04-0.19,0.04-0.17,0C9.19,5.03,9.39,4.97,9.4,4.9c0-0.08-0.13-0.44-0.06-0.66
			C9.4,4.01,9.81,4.08,9.81,4.08v0C9.81,4.1,9.81,4.12,9.81,4.15z"/>
		<path class="st0" d="M9.75,4.41L9.75,4.41c0,0.01,0,0.03,0,0.05C9.74,4.49,9.73,4.52,9.72,4.53c0-0.01-0.01-0.01-0.03-0.02
			C9.68,4.49,9.67,4.48,9.66,4.49c-0.01,0.02-0.07,0.09-0.2,0c0,0-0.01-0.01-0.02-0.01v0C9.43,4.47,9.42,4.47,9.42,4.46
			C9.4,4.42,9.41,4.38,9.44,4.35C9.44,4.35,9.64,4.31,9.75,4.41z"/>
		<path class="st0" d="M9.54,5.37c0,0-0.42,0.34-0.75,0.02C8.72,5.31,8.65,5.21,8.6,5.06c0.01,0.03,0.09,0.18,0.32,0.27
			C9.06,5.38,9.26,5.41,9.54,5.37z"/>
		<path class="st0" d="M9.26,5.69C9.24,5.77,9.17,5.83,9.1,5.83c-0.08,0-0.16-0.14-0.16-0.15C8.97,5.69,9.03,5.71,9.1,5.71
			C9.17,5.71,9.22,5.7,9.26,5.69z"/>
		<path class="st0" d="M9.46,4.44L9.46,4.44z"/>
	</g>
	<path class="st0" d="M5.61,3.86c0,0-0.6-0.46-1.25-0.15C4.36,3.71,5.19,4.51,5.61,3.86z"/>
	<path class="st0" d="M5.58,3.67c0,0-0.01-0.39-0.34-0.55C5.24,3.11,5.18,3.71,5.58,3.67z"/>
</g>
</svg>
