<?xml version="1.0" encoding="utf-8"?>
<!-- Generator: Adobe Illustrator 28.3.0, SVG Export Plug-In . SVG Version: 6.00 Build 0)  -->
<svg version="1.1" id="Layer_1" xmlns="http://www.w3.org/2000/svg" xmlns:xlink="http://www.w3.org/1999/xlink" x="0px" y="0px"
	 viewBox="0 0 180 180" style="enable-background:new 0 0 180 180;" xml:space="preserve">
<style type="text/css">
	.st0{fill:#2B623D;}
</style>
<g>
	<g>
		<path class="st0" d="M94.74,49.49c-0.55-0.26-1.39,0.01-1.85,0.19c-0.08,0.04-0.16-0.07-0.1-0.14c0.49-0.57,1.8-1.84,3.94-2.09
			c2.77-0.33,2.73,3.1,2.73,3.1s-0.04-0.25-0.65-0.73C98.21,49.33,95.51,49.85,94.74,49.49z"/>
		<path class="st0" d="M100.28,59.9c-0.45,0.22-0.9,0.43-1.36,0.64c-0.01,0-0.01,0.01-0.02,0.01c-0.8-0.81-1.56-1.98-2.19-3.63
			C96.84,57.21,97.72,58.92,100.28,59.9z"/>
		<path class="st0" d="M100.71,46.14c0.02,0.03,0,0.07-0.04,0.05c-3.85-1.32-8.32-0.12-9.48,0.23c-0.04,0.01-0.06-0.05-0.02-0.07
			C97.65,42.46,100.3,45.57,100.71,46.14z"/>
		<path class="st0" d="M124.6,32.62c-3.38-7.33-20.34-6.71-37.9,1.37c-17.56,8.08-29.06,20.59-25.68,27.92
			c2.01,4.37,8.84,5.91,17.74,4.74c2.35-0.31,4.84-0.8,7.43-1.49c-1.67-1.99-2.81-4.62-2.88-8.08c0,0-5.21-1.99-4.04-6.01
			c1.11-3.86,8.72,0.72,15.38-10.99c0.56-0.99,1.51-1.71,2.55-2.16c2.35-1.01,6.71-1.83,11.94,2.25c0.48,0.37,0.76,0.93,0.8,1.53
			c0.06,0.93,0.17,2.43,0.37,3.87c0.02,0.12,0.03,0.24,0.04,0.36c0,0-4.56-0.85-5.32,1.7c-0.76,2.54,0.76,6.61,0.72,7.45
			c-0.05,0.85-2.37,1.56-2.72,2.41c-0.18,0.42,0.87,0.37,1.96-0.03c0,0,0,0,0,0c0.53-0.3,1.06-0.6,1.58-0.91c0,0,0,0,0.01,0
			c0.4-0.37,0.67-0.81,0.65-1.32c-0.06-1.38-0.81-3.22-1.03-4.82c0.11,0.09,0.22,0.14,0.28,0.16c1.43,1.05,2.09,0.19,2.23,0
			c0.07-0.1,0.24,0,0.4,0.14c0.14,0.11,0.25,0.21,0.3,0.28c-0.05,0.31-0.07,0.59-0.03,0.82c0.1,0.59,0.34,1.57,0.51,2.66
			c1.01-0.67,1.97-1.35,2.89-2.04C122.01,45.47,126.97,37.77,124.6,32.62z M109.7,49.66c-1.21-1.13-3.54-0.67-3.54-0.67
			c0.04-0.23,0.1-0.45,0.2-0.65c0.85-1.79,3.89-0.91,3.89-0.91C110.12,48.2,109.89,48.97,109.7,49.66z"/>
		<path class="st0" d="M96.02,92.15c-2.09-0.14-2.86-0.25-2.86-0.25s0.01,0.04,0.04,0.11v0c0.19,0.58,1.12,3.2,3.02,5.79
			c0,0,0,0,0,0c0,0,0,0,0,0h0l2.26-5.53C97.52,92.24,96.7,92.19,96.02,92.15z M107.16,98.49c-1.49-1.23-3.22-2.38-4.92-2.86
			c0.86,0.23,2.88,0.83,4.92,1.91v-3.05c-0.99-0.53-1.88-1.16-2.67-1.9c-0.38-0.07-0.79-0.1-1.21-0.12
			c-1.91-0.06-3.49-0.12-4.79-0.19c-0.97-0.05-1.79-0.09-2.47-0.14c-2.09-0.14-2.86-0.25-2.86-0.25s0.01,0.04,0.04,0.11v0
			c0.19,0.58,1.12,3.2,3.02,5.79c0,0,0,0,0,0c0,0,0,0,0,0h0c0.87,1.19,1.95,2.37,3.26,3.35c1.83,1.36,4.1,2.31,6.88,2.31
			c1.22,0,2.53-0.18,3.95-0.6c0.04-0.4,0.09-0.79,0.16-1.18C109.75,100.9,108.56,99.66,107.16,98.49z M111.55,100.26L111.55,100.26
			c-0.08-0.38-0.2-0.83-0.36-1.33c-0.35-1.08-0.91-2.35-1.81-3.48c-0.38-0.48-0.82-0.93-1.34-1.33l0,0
			c-0.27-0.22-0.57-0.42-0.88-0.59c-0.28-0.16-0.58-0.31-0.89-0.43c0,0-0.01,0-0.01,0c-0.54-0.22-1.12-0.39-1.77-0.49
			c-0.38-0.07-0.79-0.1-1.21-0.12c-1.91-0.06-3.49-0.12-4.79-0.19c-0.97-0.05-1.79-0.09-2.47-0.14c-2.09-0.14-2.86-0.25-2.86-0.25
			s0.01,0.04,0.04,0.11v0c0.19,0.58,1.12,3.2,3.02,5.79c0,0,0,0,0,0c0,0,0,0,0,0h0c0.87,1.19,1.95,2.37,3.26,3.35
			c1.83,1.36,4.1,2.31,6.88,2.31c1.22,0,2.53-0.18,3.95-0.6c0.04-0.4,0.09-0.79,0.16-1.18c-0.72-0.8-1.91-2.04-3.32-3.21
			c-1.49-1.23-3.22-2.38-4.92-2.86c0.86,0.23,2.88,0.83,4.92,1.91c1.3,0.68,2.62,1.57,3.65,2.67c0.21,0.22,0.41,0.46,0.58,0.7
			c0.13,0.16,0.24,0.33,0.35,0.5C111.74,101.41,111.7,100.96,111.55,100.26z M110.8,100.21c0.21,0.22,0.41,0.46,0.58,0.7
			c0.13,0.16,0.24,0.33,0.35,0.5c0,0-0.04-0.45-0.19-1.15v0c-0.08-0.38-0.2-0.83-0.36-1.32c-0.35-1.08-0.91-2.35-1.81-3.48
			c-0.38-0.48-0.82-0.93-1.34-1.33l0,0c-0.27-0.22-0.57-0.42-0.88-0.59c-0.28-0.16-0.58-0.31-0.89-0.43c0,0-0.01,0-0.01,0
			c-0.54-0.22-1.12-0.39-1.77-0.49c-0.38-0.07-0.79-0.1-1.21-0.12c-1.91-0.06-3.49-0.12-4.79-0.19c-0.97-0.05-1.79-0.09-2.47-0.14
			c-2.09-0.14-2.86-0.25-2.86-0.25s0.01,0.04,0.04,0.11v0c0.19,0.58,1.12,3.2,3.02,5.79c0,0,0,0,0,0c0,0,0,0,0,0h0
			c0.87,1.19,1.95,2.37,3.26,3.35c1.83,1.36,4.1,2.31,6.88,2.31c1.22,0,2.53-0.18,3.95-0.6c0.25-0.07,0.5-0.14,0.76-0.23
			c0.06-0.02,0.11-0.04,0.17-0.06c0,0-0.05-0.06-0.14-0.17c-0.13-0.15-0.34-0.4-0.63-0.72c-0.72-0.8-1.91-2.04-3.32-3.21
			c-1.49-1.23-3.22-2.38-4.92-2.86c0.86,0.23,2.88,0.83,4.92,1.91C108.46,98.22,109.78,99.11,110.8,100.21z M110.8,100.21
			c0.21,0.22,0.41,0.46,0.58,0.7c0.13,0.16,0.24,0.33,0.35,0.5c0,0-0.04-0.45-0.19-1.15v0c-0.08-0.38-0.2-0.83-0.36-1.32
			c-0.35-1.08-0.91-2.35-1.81-3.48c-0.38-0.48-0.82-0.93-1.34-1.33l0,0c-0.27-0.22-0.57-0.42-0.88-0.59
			c-0.28-0.16-0.58-0.31-0.89-0.43c0,0-0.01,0-0.01,0c-0.54-0.22-1.12-0.39-1.77-0.49c-0.38-0.07-0.79-0.1-1.21-0.12
			c-1.91-0.06-3.49-0.12-4.79-0.19c-0.97-0.05-1.79-0.09-2.47-0.14c-2.09-0.14-2.86-0.25-2.86-0.25s0.01,0.04,0.04,0.11v0
			c0.19,0.58,1.12,3.2,3.02,5.79c0,0,0,0,0,0c0,0,0,0,0,0h0c0.87,1.19,1.95,2.37,3.26,3.35c1.83,1.36,4.1,2.31,6.88,2.31
			c1.22,0,2.53-0.18,3.95-0.6c0.25-0.07,0.5-0.14,0.76-0.23c0.06-0.02,0.11-0.04,0.17-0.06c0,0-0.05-0.06-0.14-0.17
			c-0.13-0.15-0.34-0.4-0.63-0.72c-0.72-0.8-1.91-2.04-3.32-3.21c-1.49-1.23-3.22-2.38-4.92-2.86c0.86,0.23,2.88,0.83,4.92,1.91
			C108.46,98.22,109.78,99.11,110.8,100.21z M110.8,100.21c0.21,0.22,0.41,0.46,0.58,0.7c0.13,0.16,0.24,0.33,0.35,0.5
			c0,0-0.04-0.45-0.19-1.15v0c-0.08-0.38-0.2-0.83-0.36-1.32c-0.35-1.08-0.91-2.35-1.81-3.48c-0.38-0.48-0.82-0.93-1.34-1.33l0,0
			c-0.27-0.22-0.57-0.42-0.88-0.59c-0.28-0.16-0.58-0.31-0.89-0.43c0,0-0.01,0-0.01,0c-0.54-0.22-1.12-0.39-1.77-0.49
			c-0.38-0.07-0.79-0.1-1.21-0.12c-1.91-0.06-3.49-0.12-4.79-0.19c-0.97-0.05-1.79-0.09-2.47-0.14c-2.09-0.14-2.86-0.25-2.86-0.25
			s0.01,0.04,0.04,0.11v0c0.19,0.58,1.12,3.2,3.02,5.79c0,0,0,0,0,0c0,0,0,0,0,0h0c0.87,1.19,1.95,2.37,3.26,3.35
			c1.83,1.36,4.1,2.31,6.88,2.31c1.22,0,2.53-0.18,3.95-0.6c0.25-0.07,0.5-0.14,0.76-0.23c0.06-0.02,0.11-0.04,0.17-0.06
			c0,0-0.05-0.06-0.14-0.17c-0.13-0.15-0.34-0.4-0.63-0.72c-0.72-0.8-1.91-2.04-3.32-3.21c-1.49-1.23-3.22-2.38-4.92-2.86
			c0.86,0.23,2.88,0.83,4.92,1.91C108.46,98.22,109.78,99.11,110.8,100.21z M110.8,100.21c0.21,0.22,0.41,0.46,0.58,0.7
			c0.13,0.16,0.24,0.33,0.35,0.5c0,0-0.04-0.45-0.19-1.15v0c-0.08-0.38-0.2-0.83-0.36-1.32c-0.35-1.08-0.91-2.35-1.81-3.48
			c-0.38-0.48-0.82-0.93-1.34-1.33l0,0c-0.27-0.22-0.57-0.42-0.88-0.59c-0.28-0.16-0.58-0.31-0.89-0.43c0,0-0.01,0-0.01,0
			c-0.54-0.22-1.12-0.39-1.77-0.49c-0.38-0.07-0.79-0.1-1.21-0.12c-1.91-0.06-3.49-0.12-4.79-0.19c-0.97-0.05-1.79-0.09-2.47-0.14
			c-2.09-0.14-2.86-0.25-2.86-0.25s0.01,0.04,0.04,0.11v0c0.19,0.58,1.12,3.2,3.02,5.79c0,0,0,0,0,0c0,0,0,0,0,0h0
			c0.87,1.19,1.95,2.37,3.26,3.35c1.83,1.36,4.1,2.31,6.88,2.31c1.22,0,2.53-0.18,3.95-0.6c0.25-0.07,0.5-0.14,0.76-0.23
			c0.06-0.02,0.11-0.04,0.17-0.06c0,0-0.05-0.06-0.14-0.17c-0.13-0.15-0.34-0.4-0.63-0.72c-0.72-0.8-1.91-2.04-3.32-3.21
			c-1.49-1.23-3.22-2.38-4.92-2.86c0.86,0.23,2.88,0.83,4.92,1.91C108.46,98.22,109.78,99.11,110.8,100.21z M110.8,100.21
			c0.21,0.22,0.41,0.46,0.58,0.7c0.13,0.16,0.24,0.33,0.35,0.5c0,0-0.04-0.45-0.19-1.15v0c-0.08-0.38-0.2-0.83-0.36-1.32
			c-0.35-1.08-0.91-2.35-1.81-3.48c-0.38-0.48-0.82-0.93-1.34-1.33l0,0c-0.27-0.22-0.57-0.42-0.88-0.59
			c-0.28-0.16-0.58-0.31-0.89-0.43c0,0-0.01,0-0.01,0c-0.54-0.22-1.12-0.39-1.77-0.49c-0.38-0.07-0.79-0.1-1.21-0.12
			c-1.91-0.06-3.49-0.12-4.79-0.19c-0.97-0.05-1.79-0.09-2.47-0.14c-2.09-0.14-2.86-0.25-2.86-0.25s0.01,0.04,0.04,0.11v0
			c0.19,0.58,1.12,3.2,3.02,5.79c0,0,0,0,0,0c0,0,0,0,0,0h0c0.87,1.19,1.95,2.37,3.26,3.35c1.83,1.36,4.1,2.31,6.88,2.31
			c1.22,0,2.53-0.18,3.95-0.6c0.25-0.07,0.5-0.14,0.76-0.23c0.06-0.02,0.11-0.04,0.17-0.06c0,0-0.05-0.06-0.14-0.17
			c-0.13-0.15-0.34-0.4-0.63-0.72c-0.72-0.8-1.91-2.04-3.32-3.21c-1.49-1.23-3.22-2.38-4.92-2.86c0.86,0.23,2.88,0.83,4.92,1.91
			C108.46,98.22,109.78,99.11,110.8,100.21z M110.8,100.21c0.21,0.22,0.41,0.46,0.58,0.7c0.13,0.16,0.24,0.33,0.35,0.5
			c0,0-0.04-0.45-0.19-1.15v0c-0.08-0.38-0.2-0.83-0.36-1.32c-0.35-1.08-0.91-2.35-1.81-3.48c-0.38-0.48-0.82-0.93-1.34-1.33l0,0
			c-0.27-0.22-0.57-0.42-0.88-0.59c-0.28-0.16-0.58-0.31-0.89-0.43c0,0-0.01,0-0.01,0c-0.54-0.22-1.12-0.39-1.77-0.49
			c-0.38-0.07-0.79-0.1-1.21-0.12c-1.91-0.06-3.49-0.12-4.79-0.19c-0.97-0.05-1.79-0.09-2.47-0.14c-2.09-0.14-2.86-0.25-2.86-0.25
			s0.01,0.04,0.04,0.11v0c0.19,0.58,1.12,3.2,3.02,5.79c0,0,0,0,0,0c0,0,0,0,0,0h0c0.87,1.19,1.95,2.37,3.26,3.35
			c1.83,1.36,4.1,2.31,6.88,2.31c1.22,0,2.53-0.18,3.95-0.6c0.25-0.07,0.5-0.14,0.76-0.23c0.06-0.02,0.11-0.04,0.17-0.06
			c0,0-0.05-0.06-0.14-0.17c-0.13-0.15-0.34-0.4-0.63-0.72c-0.72-0.8-1.91-2.04-3.32-3.21c-1.49-1.23-3.22-2.38-4.92-2.86
			c0.86,0.23,2.88,0.83,4.92,1.91C108.46,98.22,109.78,99.11,110.8,100.21z M110.8,100.21c0.21,0.22,0.41,0.46,0.58,0.7
			c0.13,0.16,0.24,0.33,0.35,0.5c0,0-0.04-0.45-0.19-1.15v0c-0.08-0.38-0.2-0.83-0.36-1.32c-0.35-1.08-0.91-2.35-1.81-3.48
			c-0.38-0.48-0.82-0.93-1.34-1.33l0,0c-0.27-0.22-0.57-0.42-0.88-0.59c-0.28-0.16-0.58-0.31-0.89-0.43c0,0-0.01,0-0.01,0
			c-0.54-0.22-1.12-0.39-1.77-0.49c-0.38-0.07-0.79-0.1-1.21-0.12c-1.91-0.06-3.49-0.12-4.79-0.19c-0.97-0.05-1.79-0.09-2.47-0.14
			c-2.09-0.14-2.86-0.25-2.86-0.25s0.01,0.04,0.04,0.11v0c0.19,0.58,1.12,3.2,3.02,5.79c0,0,0,0,0,0c0,0,0,0,0,0h0
			c0.87,1.19,1.95,2.37,3.26,3.35c1.83,1.36,4.1,2.31,6.88,2.31c1.22,0,2.53-0.18,3.95-0.6c0.25-0.07,0.5-0.14,0.76-0.23
			c0.06-0.02,0.11-0.04,0.17-0.06c0,0-0.05-0.06-0.14-0.17c-0.13-0.15-0.34-0.4-0.63-0.72c-0.72-0.8-1.91-2.04-3.32-3.21
			c-1.49-1.23-3.22-2.38-4.92-2.86c0.86,0.23,2.88,0.83,4.92,1.91C108.46,98.22,109.78,99.11,110.8,100.21z M110.8,100.21
			c0.21,0.22,0.41,0.46,0.58,0.7c0.13,0.16,0.24,0.33,0.35,0.5c0,0-0.04-0.45-0.19-1.15v0c-0.08-0.38-0.2-0.83-0.36-1.32
			c-0.35-1.08-0.91-2.35-1.81-3.48c-0.38-0.48-0.82-0.93-1.34-1.33l0,0c-0.27-0.22-0.57-0.42-0.88-0.59
			c-0.28-0.16-0.58-0.31-0.89-0.43c0,0-0.01,0-0.01,0c-0.54-0.22-1.12-0.39-1.77-0.49c-0.38-0.07-0.79-0.1-1.21-0.12
			c-1.91-0.06-3.49-0.12-4.79-0.19c-0.97-0.05-1.79-0.09-2.47-0.14c-2.09-0.14-2.86-0.25-2.86-0.25s0.01,0.04,0.04,0.11v0
			c0.19,0.58,1.12,3.2,3.02,5.79c0,0,0,0,0,0c0,0,0,0,0,0h0c0.87,1.19,1.95,2.37,3.26,3.35c1.83,1.36,4.1,2.31,6.88,2.31
			c1.22,0,2.53-0.18,3.95-0.6c0.25-0.07,0.5-0.14,0.76-0.23c0.06-0.02,0.11-0.04,0.17-0.06c0,0-0.05-0.06-0.14-0.17
			c-0.13-0.15-0.34-0.4-0.63-0.72c-0.72-0.8-1.91-2.04-3.32-3.21c-1.49-1.23-3.22-2.38-4.92-2.86c0.86,0.23,2.88,0.83,4.92,1.91
			C108.46,98.22,109.78,99.11,110.8,100.21z M110.8,100.21c0.21,0.22,0.41,0.46,0.58,0.7c0.13,0.16,0.24,0.33,0.35,0.5
			c0,0-0.04-0.45-0.19-1.15v0c-0.08-0.38-0.2-0.83-0.36-1.32c-0.35-1.08-0.91-2.35-1.81-3.48c-0.38-0.48-0.82-0.93-1.34-1.33l0,0
			c-0.27-0.22-0.57-0.42-0.88-0.59c-0.28-0.16-0.58-0.31-0.89-0.43c0,0-0.01,0-0.01,0c-0.54-0.22-1.12-0.39-1.77-0.49
			c-0.38-0.07-0.79-0.1-1.21-0.12c-1.91-0.06-3.49-0.12-4.79-0.19c-0.97-0.05-1.79-0.09-2.47-0.14c-2.09-0.14-2.86-0.25-2.86-0.25
			s0.01,0.04,0.04,0.11v0c0.19,0.58,1.12,3.2,3.02,5.79c0,0,0,0,0,0c0,0,0,0,0,0h0c0.87,1.19,1.95,2.37,3.26,3.35
			c1.83,1.36,4.1,2.31,6.88,2.31c1.22,0,2.53-0.18,3.95-0.6c0.25-0.07,0.5-0.14,0.76-0.23c0.06-0.02,0.11-0.04,0.17-0.06
			c0,0-0.05-0.06-0.14-0.17c-0.13-0.15-0.34-0.4-0.63-0.72c-0.72-0.8-1.91-2.04-3.32-3.21c-1.49-1.23-3.22-2.38-4.92-2.86
			c0.86,0.23,2.88,0.83,4.92,1.91C108.46,98.22,109.78,99.11,110.8,100.21z M110.8,100.21c0.21,0.22,0.41,0.46,0.58,0.7
			c0.13,0.16,0.24,0.33,0.35,0.5c0,0-0.04-0.45-0.19-1.15v0c-0.08-0.38-0.2-0.83-0.36-1.32c-0.35-1.08-0.91-2.35-1.81-3.48
			c-0.38-0.48-0.82-0.93-1.34-1.33l0,0c-0.27-0.22-0.57-0.42-0.88-0.59c-0.28-0.16-0.58-0.31-0.89-0.43c0,0-0.01,0-0.01,0
			c-0.54-0.22-1.12-0.39-1.77-0.49c-0.38-0.07-0.79-0.1-1.21-0.12c-1.91-0.06-3.49-0.12-4.79-0.19c-0.97-0.05-1.79-0.09-2.47-0.14
			c-2.09-0.14-2.86-0.25-2.86-0.25s0.01,0.04,0.04,0.11v0c0.19,0.58,1.12,3.2,3.02,5.79c0,0,0,0,0,0c0,0,0,0,0,0h0
			c0.87,1.19,1.95,2.37,3.26,3.35c1.83,1.36,4.1,2.31,6.88,2.31c1.22,0,2.53-0.18,3.95-0.6c0.25-0.07,0.5-0.14,0.76-0.23
			c0.06-0.02,0.11-0.04,0.17-0.06c0,0-0.05-0.06-0.14-0.17c-0.13-0.15-0.34-0.4-0.63-0.72c-0.72-0.8-1.91-2.04-3.32-3.21
			c-1.49-1.23-3.22-2.38-4.92-2.86c0.86,0.23,2.88,0.83,4.92,1.91C108.46,98.22,109.78,99.11,110.8,100.21z M110.8,100.21
			c0.21,0.22,0.41,0.46,0.58,0.7c0.13,0.16,0.24,0.33,0.35,0.5c0,0-0.04-0.45-0.19-1.15v0c-0.08-0.38-0.2-0.83-0.36-1.32
			c-0.35-1.08-0.91-2.35-1.81-3.48c-0.38-0.48-0.82-0.93-1.34-1.33l0,0c-0.27-0.22-0.57-0.42-0.88-0.59
			c-0.28-0.16-0.58-0.31-0.89-0.43c0,0-0.01,0-0.01,0c-0.54-0.22-1.12-0.39-1.77-0.49c-0.38-0.07-0.79-0.1-1.21-0.12
			c-1.91-0.06-3.49-0.12-4.79-0.19c-0.97-0.05-1.79-0.09-2.47-0.14c-2.09-0.14-2.86-0.25-2.86-0.25s0.01,0.04,0.04,0.11v0
			c0.19,0.58,1.12,3.2,3.02,5.79c0,0,0,0,0,0c0,0,0,0,0,0h0c0.87,1.19,1.95,2.37,3.26,3.35c1.83,1.36,4.1,2.31,6.88,2.31
			c1.22,0,2.53-0.18,3.95-0.6c0.25-0.07,0.5-0.14,0.76-0.23c0.06-0.02,0.11-0.04,0.17-0.06c0,0-0.05-0.06-0.14-0.17
			c-0.13-0.15-0.34-0.4-0.63-0.72c-0.72-0.8-1.91-2.04-3.32-3.21c-1.49-1.23-3.22-2.38-4.92-2.86c0.86,0.23,2.88,0.83,4.92,1.91
			C108.46,98.22,109.78,99.11,110.8,100.21z M110.8,100.21c0.21,0.22,0.41,0.46,0.58,0.7c0.13,0.16,0.24,0.33,0.35,0.5
			c0,0-0.04-0.45-0.19-1.15v0c-0.08-0.38-0.2-0.83-0.36-1.32c-0.35-1.08-0.91-2.35-1.81-3.48c-0.38-0.48-0.82-0.93-1.34-1.33l0,0
			c-0.27-0.22-0.57-0.42-0.88-0.59c-0.28-0.16-0.58-0.31-0.89-0.43c0,0-0.01,0-0.01,0c-0.54-0.22-1.12-0.39-1.77-0.49
			c-0.38-0.07-0.79-0.1-1.21-0.12c-1.91-0.06-3.49-0.12-4.79-0.19c-0.97-0.05-1.79-0.09-2.47-0.14c-2.09-0.14-2.86-0.25-2.86-0.25
			s0.01,0.04,0.04,0.11v0c0.19,0.58,1.12,3.2,3.02,5.79c0,0,0,0,0,0c0,0,0,0,0,0h0c0.87,1.19,1.95,2.37,3.26,3.35
			c1.83,1.36,4.1,2.31,6.88,2.31c1.22,0,2.53-0.18,3.95-0.6c0.25-0.07,0.5-0.14,0.76-0.23c0.06-0.02,0.11-0.04,0.17-0.06
			c0,0-0.05-0.06-0.14-0.17c-0.13-0.15-0.34-0.4-0.63-0.72c-0.72-0.8-1.91-2.04-3.32-3.21c-1.49-1.23-3.22-2.38-4.92-2.86
			c0.86,0.23,2.88,0.83,4.92,1.91C108.46,98.22,109.78,99.11,110.8,100.21z M107.16,92.69c-0.18-0.09-0.36-0.18-0.56-0.26
			c0.18,0.13,0.36,0.25,0.56,0.37c0.39,0.25,0.8,0.48,1.24,0.68C108.02,93.19,107.61,92.92,107.16,92.69z M110.8,100.21
			c0.21,0.22,0.41,0.46,0.58,0.7c0.13,0.16,0.24,0.33,0.35,0.5c0,0-0.04-0.45-0.19-1.15v0c-0.08-0.38-0.2-0.83-0.36-1.32
			c-0.35-1.08-0.91-2.35-1.81-3.48c-0.38-0.48-0.82-0.93-1.34-1.33l0,0c-0.27-0.22-0.57-0.42-0.88-0.59
			c-0.28-0.16-0.58-0.31-0.89-0.43c0,0-0.01,0-0.01,0c-0.54-0.22-1.12-0.39-1.77-0.49c-0.38-0.07-0.79-0.1-1.21-0.12
			c-1.91-0.06-3.49-0.12-4.79-0.19c-0.97-0.05-1.79-0.09-2.47-0.14c-2.09-0.14-2.86-0.25-2.86-0.25s0.01,0.04,0.04,0.11v0
			c0.19,0.58,1.12,3.2,3.02,5.79c0,0,0,0,0,0c0,0,0,0,0,0h0c0.87,1.19,1.95,2.37,3.26,3.35c1.83,1.36,4.1,2.31,6.88,2.31
			c1.22,0,2.53-0.18,3.95-0.6c0.25-0.07,0.5-0.14,0.76-0.23c0.06-0.02,0.11-0.04,0.17-0.06c0,0-0.05-0.06-0.14-0.17
			c-0.13-0.15-0.34-0.4-0.63-0.72c-0.72-0.8-1.91-2.04-3.32-3.21c-1.49-1.23-3.22-2.38-4.92-2.86c0.86,0.23,2.88,0.83,4.92,1.91
			C108.46,98.22,109.78,99.11,110.8,100.21z M107.16,92.69c-0.18-0.09-0.36-0.18-0.56-0.26c0.18,0.13,0.36,0.25,0.56,0.37
			c0.39,0.25,0.8,0.48,1.24,0.68C108.02,93.19,107.61,92.92,107.16,92.69z M110.8,100.21c0.21,0.22,0.41,0.46,0.58,0.7
			c0.13,0.16,0.24,0.33,0.35,0.5c0,0-0.04-0.45-0.19-1.15v0c-0.08-0.38-0.2-0.83-0.36-1.32c-0.35-1.08-0.91-2.35-1.81-3.48
			c-0.38-0.48-0.82-0.93-1.34-1.33l0,0c-0.27-0.22-0.57-0.42-0.88-0.59c-0.28-0.16-0.58-0.31-0.89-0.43c0,0-0.01,0-0.01,0
			c-0.54-0.22-1.12-0.39-1.77-0.49c-0.38-0.07-0.79-0.1-1.21-0.12c-1.91-0.06-3.49-0.12-4.79-0.19c-0.97-0.05-1.79-0.09-2.47-0.14
			c-2.09-0.14-2.86-0.25-2.86-0.25s0.01,0.04,0.04,0.11v0c0.19,0.58,1.12,3.2,3.02,5.79c0,0,0,0,0,0c0,0,0,0,0,0h0
			c0.87,1.19,1.95,2.37,3.26,3.35c1.83,1.36,4.1,2.31,6.88,2.31c1.22,0,2.53-0.18,3.95-0.6c0.25-0.07,0.5-0.14,0.76-0.23
			c0.06-0.02,0.11-0.04,0.17-0.06c0,0-0.05-0.06-0.14-0.17c-0.13-0.15-0.34-0.4-0.63-0.72c-0.72-0.8-1.91-2.04-3.32-3.21
			c-1.49-1.23-3.22-2.38-4.92-2.86c0.86,0.23,2.88,0.83,4.92,1.91C108.46,98.22,109.78,99.11,110.8,100.21z M107.16,92.69
			c-0.18-0.09-0.36-0.18-0.56-0.26c0.18,0.13,0.36,0.25,0.56,0.37c0.39,0.25,0.8,0.48,1.24,0.68
			C108.02,93.19,107.61,92.92,107.16,92.69z M110.8,100.21c0.21,0.22,0.41,0.46,0.58,0.7c0.13,0.16,0.24,0.33,0.35,0.5
			c0,0-0.04-0.45-0.19-1.15v0c-0.08-0.38-0.2-0.83-0.36-1.32c-0.35-1.08-0.91-2.35-1.81-3.48c-0.38-0.48-0.82-0.93-1.34-1.33l0,0
			c-0.27-0.22-0.57-0.42-0.88-0.59c-0.28-0.16-0.58-0.31-0.89-0.43c0,0-0.01,0-0.01,0c-0.54-0.22-1.12-0.39-1.77-0.49
			c-0.38-0.07-0.79-0.1-1.21-0.12c-1.91-0.06-3.49-0.12-4.79-0.19c-0.97-0.05-1.79-0.09-2.47-0.14c-2.09-0.14-2.86-0.25-2.86-0.25
			s0.01,0.04,0.04,0.11v0c0.19,0.58,1.12,3.2,3.02,5.79c0,0,0,0,0,0c0,0,0,0,0,0h0c0.87,1.19,1.95,2.37,3.26,3.35
			c1.83,1.36,4.1,2.31,6.88,2.31c1.22,0,2.53-0.18,3.95-0.6c0.25-0.07,0.5-0.14,0.76-0.23c0.06-0.02,0.11-0.04,0.17-0.06
			c0,0-0.05-0.06-0.14-0.17c-0.13-0.15-0.34-0.4-0.63-0.72c-0.72-0.8-1.91-2.04-3.32-3.21c-1.49-1.23-3.22-2.38-4.92-2.86
			c0.86,0.23,2.88,0.83,4.92,1.91C108.46,98.22,109.78,99.11,110.8,100.21z M107.16,92.69c-0.18-0.09-0.36-0.18-0.56-0.26
			c0.18,0.13,0.36,0.25,0.56,0.37c0.39,0.25,0.8,0.48,1.24,0.68C108.02,93.19,107.61,92.92,107.16,92.69z M110.8,100.21
			c0.21,0.22,0.41,0.46,0.58,0.7c0.13,0.16,0.24,0.33,0.35,0.5c0,0-0.04-0.45-0.19-1.15v0c-0.08-0.38-0.2-0.83-0.36-1.32
			c-0.35-1.08-0.91-2.35-1.81-3.48c-0.38-0.48-0.82-0.93-1.34-1.33l0,0c-0.27-0.22-0.57-0.42-0.88-0.59
			c-0.28-0.16-0.58-0.31-0.89-0.43c0,0-0.01,0-0.01,0c-0.54-0.22-1.12-0.39-1.77-0.49c-0.38-0.07-0.79-0.1-1.21-0.12
			c-1.91-0.06-3.49-0.12-4.79-0.19c-0.97-0.05-1.79-0.09-2.47-0.14c-2.09-0.14-2.86-0.25-2.86-0.25s0.01,0.04,0.04,0.11v0
			c0.19,0.58,1.12,3.2,3.02,5.79c0,0,0,0,0,0c0,0,0,0,0,0h0c0.87,1.19,1.95,2.37,3.26,3.35c1.83,1.36,4.1,2.31,6.88,2.31
			c1.22,0,2.53-0.18,3.95-0.6c0.25-0.07,0.5-0.14,0.76-0.23c0.06-0.02,0.11-0.04,0.17-0.06c0,0-0.05-0.06-0.14-0.17
			c-0.13-0.15-0.34-0.4-0.63-0.72c-0.72-0.8-1.91-2.04-3.32-3.21c-1.49-1.23-3.22-2.38-4.92-2.86c0.86,0.23,2.88,0.83,4.92,1.91
			C108.46,98.22,109.78,99.11,110.8,100.21z M107.16,92.69c-0.18-0.09-0.36-0.18-0.56-0.26c0.18,0.13,0.36,0.25,0.56,0.37
			c0.39,0.25,0.8,0.48,1.24,0.68C108.02,93.19,107.61,92.92,107.16,92.69z M110.8,100.21c0.21,0.22,0.41,0.46,0.58,0.7
			c0.13,0.16,0.24,0.33,0.35,0.5c0,0-0.04-0.45-0.19-1.15v0c-0.08-0.38-0.2-0.83-0.36-1.32c-0.35-1.08-0.91-2.35-1.81-3.48
			c-0.38-0.48-0.82-0.93-1.34-1.33l0,0c-0.27-0.22-0.57-0.42-0.88-0.59c-0.28-0.16-0.58-0.31-0.89-0.43c0,0-0.01,0-0.01,0
			c-0.54-0.22-1.12-0.39-1.77-0.49c-0.38-0.07-0.79-0.1-1.21-0.12c-1.91-0.06-3.49-0.12-4.79-0.19c-0.97-0.05-1.79-0.09-2.47-0.14
			c-2.09-0.14-2.86-0.25-2.86-0.25s0.01,0.04,0.04,0.11v0c0.19,0.58,1.12,3.2,3.02,5.79c0,0,0,0,0,0c0,0,0,0,0,0h0
			c0.87,1.19,1.95,2.37,3.26,3.35c1.83,1.36,4.1,2.31,6.88,2.31c1.22,0,2.53-0.18,3.95-0.6c0.25-0.07,0.5-0.14,0.76-0.23
			c0.06-0.02,0.11-0.04,0.17-0.06c0,0-0.05-0.06-0.14-0.17c-0.13-0.15-0.34-0.4-0.63-0.72c-0.72-0.8-1.91-2.04-3.32-3.21
			c-1.49-1.23-3.22-2.38-4.92-2.86c0.86,0.23,2.88,0.83,4.92,1.91C108.46,98.22,109.78,99.11,110.8,100.21z M107.16,92.69
			c-0.18-0.09-0.36-0.18-0.56-0.26c0.18,0.13,0.36,0.25,0.56,0.37c0.39,0.25,0.8,0.48,1.24,0.68
			C108.02,93.19,107.61,92.92,107.16,92.69z M96.74,47.45c-2.14,0.25-3.46,1.52-3.94,2.09c-0.06,0.07,0.01,0.17,0.1,0.14
			c0.45-0.18,1.3-0.44,1.85-0.19c0.77,0.36,3.46-0.16,4.07,0.33c0.61,0.49,0.65,0.73,0.65,0.73S99.51,47.12,96.74,47.45z
			 M100.28,59.9c-2.57-0.98-3.44-2.69-3.57-2.98c0.64,1.65,1.39,2.82,2.19,3.63c3.67,3.67,8.43-0.19,8.43-0.19
			C104.16,60.85,101.89,60.52,100.28,59.9z M100.71,46.14c-0.41-0.57-3.06-3.68-9.54,0.22c-0.04,0.02-0.01,0.08,0.02,0.07
			c1.16-0.35,5.63-1.55,9.48-0.23C100.71,46.21,100.74,46.17,100.71,46.14z M102.37,64.25c-0.8-0.03-1.44-0.22-1.87-0.38
			c0.05,0.1,0.91,1.63,1.83,1.66c0.87,0.03,1.64-0.62,1.83-1.49C103.74,64.16,103.12,64.28,102.37,64.25z M100.28,59.9
			c-2.57-0.98-3.44-2.69-3.57-2.98c0.64,1.65,1.39,2.82,2.19,3.63c3.67,3.67,8.43-0.19,8.43-0.19
			C104.16,60.85,101.89,60.52,100.28,59.9z M102.37,64.25c-0.8-0.03-1.44-0.22-1.87-0.38c0.05,0.1,0.91,1.63,1.83,1.66
			c0.87,0.03,1.64-0.62,1.83-1.49C103.74,64.16,103.12,64.28,102.37,64.25z M100.71,46.14c-0.41-0.57-3.06-3.68-9.54,0.22
			c-0.04,0.02-0.01,0.08,0.02,0.07c1.16-0.35,5.63-1.55,9.48-0.23C100.71,46.21,100.74,46.17,100.71,46.14z M96.74,47.45
			c-2.14,0.25-3.46,1.52-3.94,2.09c-0.06,0.07,0.01,0.17,0.1,0.14c0.45-0.18,1.3-0.44,1.85-0.19c0.77,0.36,3.46-0.16,4.07,0.33
			c0.61,0.49,0.65,0.73,0.65,0.73S99.51,47.12,96.74,47.45z M96.74,47.45c-2.14,0.25-3.46,1.52-3.94,2.09
			c-0.06,0.07,0.01,0.17,0.1,0.14c0.45-0.18,1.3-0.44,1.85-0.19c0.77,0.36,3.46-0.16,4.07,0.33c0.61,0.49,0.65,0.73,0.65,0.73
			S99.51,47.12,96.74,47.45z M100.28,59.9c-2.57-0.98-3.44-2.69-3.57-2.98c0.64,1.65,1.39,2.82,2.19,3.63
			c3.67,3.67,8.43-0.19,8.43-0.19C104.16,60.85,101.89,60.52,100.28,59.9z M100.71,46.14c-0.41-0.57-3.06-3.68-9.54,0.22
			c-0.04,0.02-0.01,0.08,0.02,0.07c1.16-0.35,5.63-1.55,9.48-0.23C100.71,46.21,100.74,46.17,100.71,46.14z M102.37,64.25
			c-0.8-0.03-1.44-0.22-1.87-0.38c0.05,0.1,0.91,1.63,1.83,1.66c0.87,0.03,1.64-0.62,1.83-1.49
			C103.74,64.16,103.12,64.28,102.37,64.25z M100.28,59.9c-2.57-0.98-3.44-2.69-3.57-2.98c0.64,1.65,1.39,2.82,2.19,3.63
			c3.67,3.67,8.43-0.19,8.43-0.19C104.16,60.85,101.89,60.52,100.28,59.9z M102.37,64.25c-0.8-0.03-1.44-0.22-1.87-0.38
			c0.05,0.1,0.91,1.63,1.83,1.66c0.87,0.03,1.64-0.62,1.83-1.49C103.74,64.16,103.12,64.28,102.37,64.25z M100.71,46.14
			c-0.41-0.57-3.06-3.68-9.54,0.22c-0.04,0.02-0.01,0.08,0.02,0.07c1.16-0.35,5.63-1.55,9.48-0.23
			C100.71,46.21,100.74,46.17,100.71,46.14z M96.74,47.45c-2.14,0.25-3.46,1.52-3.94,2.09c-0.06,0.07,0.01,0.17,0.1,0.14
			c0.45-0.18,1.3-0.44,1.85-0.19c0.77,0.36,3.46-0.16,4.07,0.33c0.61,0.49,0.65,0.73,0.65,0.73S99.51,47.12,96.74,47.45z
			 M96.74,47.45c-2.14,0.25-3.46,1.52-3.94,2.09c-0.06,0.07,0.01,0.17,0.1,0.14c0.45-0.18,1.3-0.44,1.85-0.19
			c0.77,0.36,3.46-0.16,4.07,0.33c0.61,0.49,0.65,0.73,0.65,0.73S99.51,47.12,96.74,47.45z M100.71,46.14
			c-0.41-0.57-3.06-3.68-9.54,0.22c-0.04,0.02-0.01,0.08,0.02,0.07c1.16-0.35,5.63-1.55,9.48-0.23
			C100.71,46.21,100.74,46.17,100.71,46.14z M102.37,64.25c-0.8-0.03-1.44-0.22-1.87-0.38c0.05,0.1,0.91,1.63,1.83,1.66
			c0.87,0.03,1.64-0.62,1.83-1.49C103.74,64.16,103.12,64.28,102.37,64.25z M100.28,59.9c-2.57-0.98-3.44-2.69-3.57-2.98
			c0.64,1.65,1.39,2.82,2.19,3.63c3.67,3.67,8.43-0.19,8.43-0.19C104.16,60.85,101.89,60.52,100.28,59.9z M100.28,59.9
			c-2.57-0.98-3.44-2.69-3.57-2.98c0.64,1.65,1.39,2.82,2.19,3.63c3.67,3.67,8.43-0.19,8.43-0.19
			C104.16,60.85,101.89,60.52,100.28,59.9z M102.37,64.25c-0.8-0.03-1.44-0.22-1.87-0.38c0.05,0.1,0.91,1.63,1.83,1.66
			c0.87,0.03,1.64-0.62,1.83-1.49C103.74,64.16,103.12,64.28,102.37,64.25z M100.71,46.14c-0.41-0.57-3.06-3.68-9.54,0.22
			c-0.04,0.02-0.01,0.08,0.02,0.07c1.16-0.35,5.63-1.55,9.48-0.23C100.71,46.21,100.74,46.17,100.71,46.14z M96.74,47.45
			c-2.14,0.25-3.46,1.52-3.94,2.09c-0.06,0.07,0.01,0.17,0.1,0.14c0.45-0.18,1.3-0.44,1.85-0.19c0.77,0.36,3.46-0.16,4.07,0.33
			c0.61,0.49,0.65,0.73,0.65,0.73S99.51,47.12,96.74,47.45z M96.74,47.45c-2.14,0.25-3.46,1.52-3.94,2.09
			c-0.06,0.07,0.01,0.17,0.1,0.14c0.45-0.18,1.3-0.44,1.85-0.19c0.77,0.36,3.46-0.16,4.07,0.33c0.61,0.49,0.65,0.73,0.65,0.73
			S99.51,47.12,96.74,47.45z M100.71,46.14c-0.41-0.57-3.06-3.68-9.54,0.22c-0.04,0.02-0.01,0.08,0.02,0.07
			c1.16-0.35,5.63-1.55,9.48-0.23C100.71,46.21,100.74,46.17,100.71,46.14z M102.37,64.25c-0.8-0.03-1.44-0.22-1.87-0.38
			c0.05,0.1,0.91,1.63,1.83,1.66c0.87,0.03,1.64-0.62,1.83-1.49C103.74,64.16,103.12,64.28,102.37,64.25z M100.28,59.9
			c-2.57-0.98-3.44-2.69-3.57-2.98c0.64,1.65,1.39,2.82,2.19,3.63c3.67,3.67,8.43-0.19,8.43-0.19
			C104.16,60.85,101.89,60.52,100.28,59.9z M100.28,59.9c-2.57-0.98-3.44-2.69-3.57-2.98c0.64,1.65,1.39,2.82,2.19,3.63
			c3.67,3.67,8.43-0.19,8.43-0.19C104.16,60.85,101.89,60.52,100.28,59.9z M102.37,64.25c-0.8-0.03-1.44-0.22-1.87-0.38
			c0.05,0.1,0.91,1.63,1.83,1.66c0.87,0.03,1.64-0.62,1.83-1.49C103.74,64.16,103.12,64.28,102.37,64.25z M100.71,46.14
			c-0.41-0.57-3.06-3.68-9.54,0.22c-0.04,0.02-0.01,0.08,0.02,0.07c1.16-0.35,5.63-1.55,9.48-0.23
			C100.71,46.21,100.74,46.17,100.71,46.14z M96.74,47.45c-2.14,0.25-3.46,1.52-3.94,2.09c-0.06,0.07,0.01,0.17,0.1,0.14
			c0.45-0.18,1.3-0.44,1.85-0.19c0.77,0.36,3.46-0.16,4.07,0.33c0.61,0.49,0.65,0.73,0.65,0.73S99.51,47.12,96.74,47.45z
			 M96.74,47.45c-2.14,0.25-3.46,1.52-3.94,2.09c-0.06,0.07,0.01,0.17,0.1,0.14c0.45-0.18,1.3-0.44,1.85-0.19
			c0.77,0.36,3.46-0.16,4.07,0.33c0.61,0.49,0.65,0.73,0.65,0.73S99.51,47.12,96.74,47.45z M100.71,46.14
			c-0.41-0.57-3.06-3.68-9.54,0.22c-0.04,0.02-0.01,0.08,0.02,0.07c1.16-0.35,5.63-1.55,9.48-0.23
			C100.71,46.21,100.74,46.17,100.71,46.14z M102.37,64.25c-0.8-0.03-1.44-0.22-1.87-0.38c0.05,0.1,0.91,1.63,1.83,1.66
			c0.87,0.03,1.64-0.62,1.83-1.49C103.74,64.16,103.12,64.28,102.37,64.25z M100.28,59.9c-2.57-0.98-3.44-2.69-3.57-2.98
			c0.64,1.65,1.39,2.82,2.19,3.63c3.67,3.67,8.43-0.19,8.43-0.19C104.16,60.85,101.89,60.52,100.28,59.9z M100.28,59.9
			c-2.57-0.98-3.44-2.69-3.57-2.98c0.64,1.65,1.39,2.82,2.19,3.63c3.67,3.67,8.43-0.19,8.43-0.19
			C104.16,60.85,101.89,60.52,100.28,59.9z M102.37,64.25c-0.8-0.03-1.44-0.22-1.87-0.38c0.05,0.1,0.91,1.63,1.83,1.66
			c0.87,0.03,1.64-0.62,1.83-1.49C103.74,64.16,103.12,64.28,102.37,64.25z M100.71,46.14c-0.41-0.57-3.06-3.68-9.54,0.22
			c-0.04,0.02-0.01,0.08,0.02,0.07c1.16-0.35,5.63-1.55,9.48-0.23C100.71,46.21,100.74,46.17,100.71,46.14z M96.74,47.45
			c-2.14,0.25-3.46,1.52-3.94,2.09c-0.06,0.07,0.01,0.17,0.1,0.14c0.45-0.18,1.3-0.44,1.85-0.19c0.77,0.36,3.46-0.16,4.07,0.33
			c0.61,0.49,0.65,0.73,0.65,0.73S99.51,47.12,96.74,47.45z M107.38,125.26c15.19,1.41,26.36-2.47,26.36-2.47l0.69-5.3
			c-7,0.86-14.11,1.29-21.14,1.29h-0.39c-6.9-0.01-13.88-0.44-20.75-1.29l0.91,7.05c1.27-0.77,2.52-1.48,3.42-2.22
			c2.21-1.79,3.16-2.66,3.16-2.66s0.47,0.23,0.65,1.47c0.19,1.24-2.25,3.72-4.04,5.6c-1.79,1.88-1.37,2.25-1.37,2.25
			c3.49,5.56,14.69,4.83,13.45,6.29c-1.24,1.47-9.41,0.46-9.41,0.46c2.71,2.3,10.19,2.3,8.04,3.12c-2.16,0.83-8.77-0.05-8.77-0.05
			c1.6,1.15,5.6,1.66,6.75,1.47c1.15-0.18,1.93,0.28,1.34,0.69c-3.53,1.59-7.46,1.59-10.95,1.01l0.18,1.41
			c0.18,1.41,1.34,2.53,2.81,2.73c1.59,0.21,3.18,0.34,4.76,0.55c3.41,0.47,6.85,0.71,10.29,0.71c2.41,0,4.82-0.12,7.21-0.35
			c4.69-4.25,8.26-9.2,10.82-13.54c-9.47,2.24-16.85,0.64-20.65-0.65c-0.47-0.15-0.32-0.85,0.17-0.8
			c11.81,1.09,20.7-1.64,21.86-2.02v0l0.44-3.37c-11.98,3.17-21.35,1.15-26.07-0.44C106.61,126.03,106.79,125.21,107.38,125.26z
			 M96.74,47.45c-2.14,0.25-3.46,1.52-3.94,2.09c-0.06,0.07,0.01,0.17,0.1,0.14c0.45-0.18,1.3-0.44,1.85-0.19
			c0.77,0.36,3.46-0.16,4.07,0.33c0.61,0.49,0.65,0.73,0.65,0.73S99.51,47.12,96.74,47.45z M100.71,46.14
			c-0.41-0.57-3.06-3.68-9.54,0.22c-0.04,0.02-0.01,0.08,0.02,0.07c1.16-0.35,5.63-1.55,9.48-0.23
			C100.71,46.21,100.74,46.17,100.71,46.14z M102.37,64.25c-0.8-0.03-1.44-0.22-1.87-0.38c0.05,0.1,0.91,1.63,1.83,1.66
			c0.87,0.03,1.64-0.62,1.83-1.49C103.74,64.16,103.12,64.28,102.37,64.25z M100.28,59.9c-2.57-0.98-3.44-2.69-3.57-2.98
			c0.64,1.65,1.39,2.82,2.19,3.63c3.67,3.67,8.43-0.19,8.43-0.19C104.16,60.85,101.89,60.52,100.28,59.9z M100.28,59.9
			c-2.57-0.98-3.44-2.69-3.57-2.98c0.64,1.65,1.39,2.82,2.19,3.63c3.67,3.67,8.43-0.19,8.43-0.19
			C104.16,60.85,101.89,60.52,100.28,59.9z M102.37,64.25c-0.8-0.03-1.44-0.22-1.87-0.38c0.05,0.1,0.91,1.63,1.83,1.66
			c0.87,0.03,1.64-0.62,1.83-1.49C103.74,64.16,103.12,64.28,102.37,64.25z M100.71,46.14c-0.41-0.57-3.06-3.68-9.54,0.22
			c-0.04,0.02-0.01,0.08,0.02,0.07c1.16-0.35,5.63-1.55,9.48-0.23C100.71,46.21,100.74,46.17,100.71,46.14z M96.74,47.45
			c-2.14,0.25-3.46,1.52-3.94,2.09c-0.06,0.07,0.01,0.17,0.1,0.14c0.45-0.18,1.3-0.44,1.85-0.19c0.77,0.36,3.46-0.16,4.07,0.33
			c0.61,0.49,0.65,0.73,0.65,0.73S99.51,47.12,96.74,47.45z M96.74,47.45c-2.14,0.25-3.46,1.52-3.94,2.09
			c-0.06,0.07,0.01,0.17,0.1,0.14c0.45-0.18,1.3-0.44,1.85-0.19c0.77,0.36,3.46-0.16,4.07,0.33c0.61,0.49,0.65,0.73,0.65,0.73
			S99.51,47.12,96.74,47.45z M100.71,46.14c-0.41-0.57-3.06-3.68-9.54,0.22c-0.04,0.02-0.01,0.08,0.02,0.07
			c1.16-0.35,5.63-1.55,9.48-0.23C100.71,46.21,100.74,46.17,100.71,46.14z M102.37,64.25c-0.8-0.03-1.44-0.22-1.87-0.38
			c0.05,0.1,0.91,1.63,1.83,1.66c0.87,0.03,1.64-0.62,1.83-1.49C103.74,64.16,103.12,64.28,102.37,64.25z M100.28,59.9
			c-2.57-0.98-3.44-2.69-3.57-2.98c0.64,1.65,1.39,2.82,2.19,3.63c3.67,3.67,8.43-0.19,8.43-0.19
			C104.16,60.85,101.89,60.52,100.28,59.9z M100.28,59.9c-2.57-0.98-3.44-2.69-3.57-2.98c0.64,1.65,1.39,2.82,2.19,3.63
			c3.67,3.67,8.43-0.19,8.43-0.19C104.16,60.85,101.89,60.52,100.28,59.9z M102.37,64.25c-0.8-0.03-1.44-0.22-1.87-0.38
			c0.05,0.1,0.91,1.63,1.83,1.66c0.87,0.03,1.64-0.62,1.83-1.49C103.74,64.16,103.12,64.28,102.37,64.25z M100.71,46.14
			c-0.41-0.57-3.06-3.68-9.54,0.22c-0.04,0.02-0.01,0.08,0.02,0.07c1.16-0.35,5.63-1.55,9.48-0.23
			C100.71,46.21,100.74,46.17,100.71,46.14z M96.74,47.45c-2.14,0.25-3.46,1.52-3.94,2.09c-0.06,0.07,0.01,0.17,0.1,0.14
			c0.45-0.18,1.3-0.44,1.85-0.19c0.77,0.36,3.46-0.16,4.07,0.33c0.61,0.49,0.65,0.73,0.65,0.73S99.51,47.12,96.74,47.45z
			 M96.74,47.45c-2.14,0.25-3.46,1.52-3.94,2.09c-0.06,0.07,0.01,0.17,0.1,0.14c0.45-0.18,1.3-0.44,1.85-0.19
			c0.77,0.36,3.46-0.16,4.07,0.33c0.61,0.49,0.65,0.73,0.65,0.73S99.51,47.12,96.74,47.45z M100.71,46.14
			c-0.41-0.57-3.06-3.68-9.54,0.22c-0.04,0.02-0.01,0.08,0.02,0.07c1.16-0.35,5.63-1.55,9.48-0.23
			C100.71,46.21,100.74,46.17,100.71,46.14z M102.37,64.25c-0.8-0.03-1.44-0.22-1.87-0.38c0.05,0.1,0.91,1.63,1.83,1.66
			c0.87,0.03,1.64-0.62,1.83-1.49C103.74,64.16,103.12,64.28,102.37,64.25z M100.28,59.9c-2.57-0.98-3.44-2.69-3.57-2.98
			c0.64,1.65,1.39,2.82,2.19,3.63c3.67,3.67,8.43-0.19,8.43-0.19C104.16,60.85,101.89,60.52,100.28,59.9z M107.33,60.36
			c-3.17,0.49-5.44,0.16-7.05-0.46c-2.57-0.98-3.44-2.69-3.57-2.98c0.64,1.65,1.39,2.82,2.19,3.63
			C102.57,64.22,107.33,60.36,107.33,60.36z M100.5,63.87c0.05,0.1,0.91,1.63,1.83,1.66c0.87,0.03,1.64-0.62,1.83-1.49
			c-0.42,0.12-1.04,0.24-1.79,0.21C101.57,64.22,100.92,64.03,100.5,63.87z M100.68,46.19c0.03,0.01,0.06-0.02,0.04-0.05
			c-0.41-0.57-3.06-3.68-9.54,0.22c-0.04,0.02-0.01,0.08,0.02,0.07C92.35,46.07,96.83,44.87,100.68,46.19z M98.82,49.82
			c0.61,0.49,0.65,0.73,0.65,0.73s0.04-3.43-2.73-3.1c-2.14,0.25-3.46,1.52-3.94,2.09c-0.06,0.07,0.01,0.17,0.1,0.14
			c0.45-0.18,1.3-0.44,1.85-0.19C95.51,49.85,98.21,49.33,98.82,49.82z M99.64,156.75c7.64-0.79,13.95-3.97,19.06-8.1
			c-1.77,0.13-3.55,0.19-5.32,0.19c-3.5,0-7.03-0.24-10.49-0.72c-0.8-0.11-1.63-0.2-2.44-0.29c-0.76-0.08-1.54-0.16-2.32-0.27
			c-2.12-0.29-3.79-1.92-4.06-3.98l-0.24-1.89c-4.27-0.93-7.63-2.56-8.32-2.78c-1.3-0.41-11.45,1.72-24.45,2.04
			c-13,0.33-12.43-4.83-12.43-4.83c0.87-5.57,8.13-5.82,12.95-5.82c4.83,0,20.71,1.15,22,0.92s3.21-0.37,4.82-2.89
			c0.72-1.12,1.95-2.08,3.3-2.96l-1.06-8.2c-1.39-0.52-2.37-1.88-2.37-3.42v-4.83c0-2.02,1.65-3.67,3.67-3.67c0.07,0,0.15,0,0.23,0
			c5.99,0.37,12.07,0.59,18.1,0.64c-0.04-0.51-0.05-1.02-0.04-1.51c-1.32,0.35-2.61,0.51-3.86,0.51c-3.38,0-6.46-1.27-9.07-3.7
			l-16.95,0.47l-7.48-15.86l4.28-1.71l16.01,11.49c-0.94-1.82-1.37-3.21-1.39-3.3c-0.13-0.43-0.06-0.89,0.2-1.25l-12.13-9.3
			c3.53-2.57,3.86-13.82,3.86-13.82s8.15,5.68,11.04,9c2.89,3.32,3.54,8.04,3.54,8.04l1.37-0.96l-2.99,6.71
			c0.68,0.04,1.49,0.08,2.42,0.13l1.72-4.2v0c-0.95-2.94-1.01-5.89-0.88-7.88c-0.59-2.4-0.75-5.16-0.78-5.75
			c0.13,0.07,0.44,0.19,1.18,0.37c1.67,0.42,5.5,0.14,7.38-3.27c1.88-3.41,4.25-7.1,4.53-10.37c0.18-2.05,0.41-5.25,0.55-7.36
			c0.09-1.25,0.14-2.11,0.14-2.11l-1.2-10.85l-6.6-6.33l-7.7,0.96l-12.51,6.33l-7.43,8.39l0.96,16.51c0.13,0.47,0.24,0.92,0.34,1.37
			c3.17,14.12-6.39,17.48-6.39,17.48l-1.93-1.51c-19.26,2.34-21.87,28.34-21.46,31.36c0.41,3.03-0.82,2.61-2.47,3.71
			c-1.65,1.1-1.51,0.69-1.93,3.44c-0.41,2.75,0.14,3.58-0.41,5.78c-0.55,2.2-1.24,1.65-0.96,3.99c0.28,2.34,2.06,2.2,1.93,4.81
			c-0.14,2.61,0,5.64,0,5.64c3.3,6.06,22.69,1.79,22.69,1.79c10.45,22.28,30.53,19.26,30.53,19.26
			c-22.15-5.09-26.96-19.94-26.96-19.94l1.51-0.14C82.96,155.93,99.64,156.75,99.64,156.75z M79.27,51.07
			c1.11-3.86,8.72,0.72,15.38-10.99c0.56-0.99,1.51-1.71,2.55-2.16c2.35-1.01,6.71-1.83,11.94,2.25c0.48,0.37,0.76,0.93,0.8,1.53
			c0.06,0.93,0.17,2.43,0.37,3.87c0.02,0.12,0.03,0.24,0.04,0.36c0,0-4.56-0.85-5.32,1.7c-0.76,2.54,0.76,6.61,0.72,7.45
			c-0.05,0.85-2.37,1.56-2.72,2.41c-0.18,0.42,0.87,0.37,1.96-0.03c0,0,0,0,0,0c0.57-0.21,1.15-0.52,1.58-0.91c0,0,0,0,0.01,0
			c0.4-0.37,0.67-0.81,0.65-1.32c-0.06-1.38-0.81-3.22-1.03-4.82c0.11,0.09,0.22,0.14,0.28,0.16c1.43,1.05,2.09,0.19,2.23,0
			c0.07-0.1,0.24,0,0.4,0.14c0.14,0.11,0.25,0.21,0.3,0.28c-0.05,0.31-0.07,0.59-0.03,0.82c0.1,0.59,0.34,1.57,0.51,2.66
			c0.19,1.26,0.29,2.67-0.02,3.8c-0.59,2.12-3.67,8.47-4.62,10.48c-0.95,2.01-2.01,3.39-6.67,2.54c-3.15-0.58-8.89-1.96-12.36-6.1
			c-1.67-1.99-2.81-4.62-2.88-8.08C83.31,57.08,78.1,55.09,79.27,51.07z M110.24,47.43c-0.13,0.78-0.35,1.54-0.54,2.23
			c-1.21-1.13-3.54-0.67-3.54-0.67c0.04-0.23,0.1-0.45,0.2-0.65C107.21,46.55,110.24,47.43,110.24,47.43z M67.62,87.13
			c0,0,13.28,35.26,3.75,39.65c-1.93,0.65-2.46,0-2.46,0l-1.29-19.18l-4.5,13.29c0,0-5.14-3.21-10.39-4.07
			C52.72,116.81,52.94,92.27,67.62,87.13z M57.87,123.39c-1.63-0.98-8.5-0.49-8.5-0.49c10.87-4.9,15.45,2.86,15.45,2.86l-3.03-0.49
			l1.97,2.53c-6.78-4.41-16.52,0.9-16.52,0.9C49.87,123.82,57.87,123.39,57.87,123.39z M96.71,56.92c0.64,1.65,1.39,2.82,2.19,3.63
			c3.67,3.67,8.43-0.19,8.43-0.19c-3.17,0.49-5.44,0.16-7.05-0.46C97.72,58.92,96.84,57.21,96.71,56.92z M100.5,63.87
			c0.05,0.1,0.91,1.63,1.83,1.66c0.87,0.03,1.64-0.62,1.83-1.49c-0.42,0.12-1.04,0.24-1.79,0.21
			C101.57,64.22,100.92,64.03,100.5,63.87z M91.19,46.42c1.16-0.35,5.63-1.55,9.48-0.23c0.03,0.01,0.06-0.02,0.04-0.05
			c-0.41-0.57-3.06-3.68-9.54,0.22C91.13,46.38,91.16,46.44,91.19,46.42z M98.82,49.82c0.61,0.49,0.65,0.73,0.65,0.73
			s0.04-3.43-2.73-3.1c-2.14,0.25-3.46,1.52-3.94,2.09c-0.06,0.07,0.01,0.17,0.1,0.14c0.45-0.18,1.3-0.44,1.85-0.19
			C95.51,49.85,98.21,49.33,98.82,49.82z M96.74,47.45c-2.14,0.25-3.46,1.52-3.94,2.09c-0.06,0.07,0.01,0.17,0.1,0.14
			c0.45-0.18,1.3-0.44,1.85-0.19c0.77,0.36,3.46-0.16,4.07,0.33c0.61,0.49,0.65,0.73,0.65,0.73S99.51,47.12,96.74,47.45z
			 M100.71,46.14c-0.41-0.57-3.06-3.68-9.54,0.22c-0.04,0.02-0.01,0.08,0.02,0.07c1.16-0.35,5.63-1.55,9.48-0.23
			C100.71,46.21,100.74,46.17,100.71,46.14z M102.37,64.25c-0.8-0.03-1.44-0.22-1.87-0.38c0.05,0.1,0.91,1.63,1.83,1.66
			c0.87,0.03,1.64-0.62,1.83-1.49C103.74,64.16,103.12,64.28,102.37,64.25z M100.28,59.9c-2.57-0.98-3.44-2.69-3.57-2.98
			c0.64,1.65,1.39,2.82,2.19,3.63c3.67,3.67,8.43-0.19,8.43-0.19C104.16,60.85,101.89,60.52,100.28,59.9z M100.28,59.9
			c-2.57-0.98-3.44-2.69-3.57-2.98c0.64,1.65,1.39,2.82,2.19,3.63c3.67,3.67,8.43-0.19,8.43-0.19
			C104.16,60.85,101.89,60.52,100.28,59.9z M102.37,64.25c-0.8-0.03-1.44-0.22-1.87-0.38c0.05,0.1,0.91,1.63,1.83,1.66
			c0.87,0.03,1.64-0.62,1.83-1.49C103.74,64.16,103.12,64.28,102.37,64.25z M100.71,46.14c-0.41-0.57-3.06-3.68-9.54,0.22
			c-0.04,0.02-0.01,0.08,0.02,0.07c1.16-0.35,5.63-1.55,9.48-0.23C100.71,46.21,100.74,46.17,100.71,46.14z M96.74,47.45
			c-2.14,0.25-3.46,1.52-3.94,2.09c-0.06,0.07,0.01,0.17,0.1,0.14c0.45-0.18,1.3-0.44,1.85-0.19c0.77,0.36,3.46-0.16,4.07,0.33
			c0.61,0.49,0.65,0.73,0.65,0.73S99.51,47.12,96.74,47.45z M96.74,47.45c-2.14,0.25-3.46,1.52-3.94,2.09
			c-0.06,0.07,0.01,0.17,0.1,0.14c0.45-0.18,1.3-0.44,1.85-0.19c0.77,0.36,3.46-0.16,4.07,0.33c0.61,0.49,0.65,0.73,0.65,0.73
			S99.51,47.12,96.74,47.45z M100.71,46.14c-0.41-0.57-3.06-3.68-9.54,0.22c-0.04,0.02-0.01,0.08,0.02,0.07
			c1.16-0.35,5.63-1.55,9.48-0.23C100.71,46.21,100.74,46.17,100.71,46.14z M102.37,64.25c-0.8-0.03-1.44-0.22-1.87-0.38
			c0.05,0.1,0.91,1.63,1.83,1.66c0.87,0.03,1.64-0.62,1.83-1.49C103.74,64.16,103.12,64.28,102.37,64.25z M100.28,59.9
			c-2.57-0.98-3.44-2.69-3.57-2.98c0.64,1.65,1.39,2.82,2.19,3.63c3.67,3.67,8.43-0.19,8.43-0.19
			C104.16,60.85,101.89,60.52,100.28,59.9z M100.28,59.9c-2.57-0.98-3.44-2.69-3.57-2.98c0.64,1.65,1.39,2.82,2.19,3.63
			c3.67,3.67,8.43-0.19,8.43-0.19C104.16,60.85,101.89,60.52,100.28,59.9z M102.37,64.25c-0.8-0.03-1.44-0.22-1.87-0.38
			c0.05,0.1,0.91,1.63,1.83,1.66c0.87,0.03,1.64-0.62,1.83-1.49C103.74,64.16,103.12,64.28,102.37,64.25z M100.71,46.14
			c-0.41-0.57-3.06-3.68-9.54,0.22c-0.04,0.02-0.01,0.08,0.02,0.07c1.16-0.35,5.63-1.55,9.48-0.23
			C100.71,46.21,100.74,46.17,100.71,46.14z M96.74,47.45c-2.14,0.25-3.46,1.52-3.94,2.09c-0.06,0.07,0.01,0.17,0.1,0.14
			c0.45-0.18,1.3-0.44,1.85-0.19c0.77,0.36,3.46-0.16,4.07,0.33c0.61,0.49,0.65,0.73,0.65,0.73S99.51,47.12,96.74,47.45z
			 M96.74,47.45c-2.14,0.25-3.46,1.52-3.94,2.09c-0.06,0.07,0.01,0.17,0.1,0.14c0.45-0.18,1.3-0.44,1.85-0.19
			c0.77,0.36,3.46-0.16,4.07,0.33c0.61,0.49,0.65,0.73,0.65,0.73S99.51,47.12,96.74,47.45z M100.71,46.14
			c-0.41-0.57-3.06-3.68-9.54,0.22c-0.04,0.02-0.01,0.08,0.02,0.07c1.16-0.35,5.63-1.55,9.48-0.23
			C100.71,46.21,100.74,46.17,100.71,46.14z M102.37,64.25c-0.8-0.03-1.44-0.22-1.87-0.38c0.05,0.1,0.91,1.63,1.83,1.66
			c0.87,0.03,1.64-0.62,1.83-1.49C103.74,64.16,103.12,64.28,102.37,64.25z M100.28,59.9c-2.57-0.98-3.44-2.69-3.57-2.98
			c0.64,1.65,1.39,2.82,2.19,3.63c3.67,3.67,8.43-0.19,8.43-0.19C104.16,60.85,101.89,60.52,100.28,59.9z M100.28,59.9
			c-2.57-0.98-3.44-2.69-3.57-2.98c0.64,1.65,1.39,2.82,2.19,3.63c3.67,3.67,8.43-0.19,8.43-0.19
			C104.16,60.85,101.89,60.52,100.28,59.9z M102.37,64.25c-0.8-0.03-1.44-0.22-1.87-0.38c0.05,0.1,0.91,1.63,1.83,1.66
			c0.87,0.03,1.64-0.62,1.83-1.49C103.74,64.16,103.12,64.28,102.37,64.25z M100.71,46.14c-0.41-0.57-3.06-3.68-9.54,0.22
			c-0.04,0.02-0.01,0.08,0.02,0.07c1.16-0.35,5.63-1.55,9.48-0.23C100.71,46.21,100.74,46.17,100.71,46.14z M96.74,47.45
			c-2.14,0.25-3.46,1.52-3.94,2.09c-0.06,0.07,0.01,0.17,0.1,0.14c0.45-0.18,1.3-0.44,1.85-0.19c0.77,0.36,3.46-0.16,4.07,0.33
			c0.61,0.49,0.65,0.73,0.65,0.73S99.51,47.12,96.74,47.45z M96.74,47.45c-2.14,0.25-3.46,1.52-3.94,2.09
			c-0.06,0.07,0.01,0.17,0.1,0.14c0.45-0.18,1.3-0.44,1.85-0.19c0.77,0.36,3.46-0.16,4.07,0.33c0.61,0.49,0.65,0.73,0.65,0.73
			S99.51,47.12,96.74,47.45z M100.71,46.14c-0.41-0.57-3.06-3.68-9.54,0.22c-0.04,0.02-0.01,0.08,0.02,0.07
			c1.16-0.35,5.63-1.55,9.48-0.23C100.71,46.21,100.74,46.17,100.71,46.14z M102.37,64.25c-0.8-0.03-1.44-0.22-1.87-0.38
			c0.05,0.1,0.91,1.63,1.83,1.66c0.87,0.03,1.64-0.62,1.83-1.49C103.74,64.16,103.12,64.28,102.37,64.25z M100.28,59.9
			c-2.57-0.98-3.44-2.69-3.57-2.98c0.64,1.65,1.39,2.82,2.19,3.63c3.67,3.67,8.43-0.19,8.43-0.19
			C104.16,60.85,101.89,60.52,100.28,59.9z M100.28,59.9c-2.57-0.98-3.44-2.69-3.57-2.98c0.64,1.65,1.39,2.82,2.19,3.63
			c3.67,3.67,8.43-0.19,8.43-0.19C104.16,60.85,101.89,60.52,100.28,59.9z M102.37,64.25c-0.8-0.03-1.44-0.22-1.87-0.38
			c0.05,0.1,0.91,1.63,1.83,1.66c0.87,0.03,1.64-0.62,1.83-1.49C103.74,64.16,103.12,64.28,102.37,64.25z M100.71,46.14
			c-0.41-0.57-3.06-3.68-9.54,0.22c-0.04,0.02-0.01,0.08,0.02,0.07c1.16-0.35,5.63-1.55,9.48-0.23
			C100.71,46.21,100.74,46.17,100.71,46.14z M96.74,47.45c-2.14,0.25-3.46,1.52-3.94,2.09c-0.06,0.07,0.01,0.17,0.1,0.14
			c0.45-0.18,1.3-0.44,1.85-0.19c0.77,0.36,3.46-0.16,4.07,0.33c0.61,0.49,0.65,0.73,0.65,0.73S99.51,47.12,96.74,47.45z
			 M135.6,119.84l-0.99,7.61c1.36-2.9,1.99-4.8,1.99-4.8C136.27,121.68,135.93,120.75,135.6,119.84z M96.74,47.45
			c-2.14,0.25-3.46,1.52-3.94,2.09c-0.06,0.07,0.01,0.17,0.1,0.14c0.45-0.18,1.3-0.44,1.85-0.19c0.77,0.36,3.46-0.16,4.07,0.33
			c0.61,0.49,0.65,0.73,0.65,0.73S99.51,47.12,96.74,47.45z M100.71,46.14c-0.41-0.57-3.06-3.68-9.54,0.22
			c-0.04,0.02-0.01,0.08,0.02,0.07c1.16-0.35,5.63-1.55,9.48-0.23C100.71,46.21,100.74,46.17,100.71,46.14z M102.37,64.25
			c-0.8-0.03-1.44-0.22-1.87-0.38c0.05,0.1,0.91,1.63,1.83,1.66c0.87,0.03,1.64-0.62,1.83-1.49
			C103.74,64.16,103.12,64.28,102.37,64.25z M100.28,59.9c-2.57-0.98-3.44-2.69-3.57-2.98c0.64,1.65,1.39,2.82,2.19,3.63
			c3.67,3.67,8.43-0.19,8.43-0.19C104.16,60.85,101.89,60.52,100.28,59.9z M100.28,59.9c-2.57-0.98-3.44-2.69-3.57-2.98
			c0.64,1.65,1.39,2.82,2.19,3.63c3.67,3.67,8.43-0.19,8.43-0.19C104.16,60.85,101.89,60.52,100.28,59.9z M102.37,64.25
			c-0.8-0.03-1.44-0.22-1.87-0.38c0.05,0.1,0.91,1.63,1.83,1.66c0.87,0.03,1.64-0.62,1.83-1.49
			C103.74,64.16,103.12,64.28,102.37,64.25z M100.71,46.14c-0.41-0.57-3.06-3.68-9.54,0.22c-0.04,0.02-0.01,0.08,0.02,0.07
			c1.16-0.35,5.63-1.55,9.48-0.23C100.71,46.21,100.74,46.17,100.71,46.14z M96.74,47.45c-2.14,0.25-3.46,1.52-3.94,2.09
			c-0.06,0.07,0.01,0.17,0.1,0.14c0.45-0.18,1.3-0.44,1.85-0.19c0.77,0.36,3.46-0.16,4.07,0.33c0.61,0.49,0.65,0.73,0.65,0.73
			S99.51,47.12,96.74,47.45z M96.74,47.45c-2.14,0.25-3.46,1.52-3.94,2.09c-0.06,0.07,0.01,0.17,0.1,0.14
			c0.45-0.18,1.3-0.44,1.85-0.19c0.77,0.36,3.46-0.16,4.07,0.33c0.61,0.49,0.65,0.73,0.65,0.73S99.51,47.12,96.74,47.45z
			 M100.71,46.14c-0.41-0.57-3.06-3.68-9.54,0.22c-0.04,0.02-0.01,0.08,0.02,0.07c1.16-0.35,5.63-1.55,9.48-0.23
			C100.71,46.21,100.74,46.17,100.71,46.14z M102.37,64.25c-0.8-0.03-1.44-0.22-1.87-0.38c0.05,0.1,0.91,1.63,1.83,1.66
			c0.87,0.03,1.64-0.62,1.83-1.49C103.74,64.16,103.12,64.28,102.37,64.25z M100.28,59.9c-2.57-0.98-3.44-2.69-3.57-2.98
			c0.64,1.65,1.39,2.82,2.19,3.63c3.67,3.67,8.43-0.19,8.43-0.19C104.16,60.85,101.89,60.52,100.28,59.9z M127.81,102.27
			c-2.31,1.75-4.99,2.66-7.93,2.66c-1.45,0-2.98-0.22-4.54-0.66c0.01,0.61,0.05,1.17,0.1,1.66c4.68-0.03,9.39-0.15,14.08-0.38
			C128.94,104.4,128.37,103.3,127.81,102.27z M117.42,92.07c-1.2,1.1-3.39,3.45-4.69,6.89c-0.16,0.42-0.3,0.86-0.43,1.31
			c-0.17,0.59-0.31,1.21-0.41,1.86c-0.02,0-0.04,0.01-0.06,0.01c0.02,0.02,0.03,0.04,0.05,0.07v0c-0.05,0.3-0.09,0.6-0.12,0.91v0
			c-0.03,0.28-0.05,0.57-0.06,0.86c-0.02,0.63-0.01,1.28,0.03,1.95c0.48,0,0.96,0,1.44,0h0.14c0.23,0,0.46,0,0.7,0
			c-0.09-0.95-0.14-2.09-0.05-3.38c0.17-2.51,0.84-5.52,2.59-8.6c0.36-0.63,0.76-1.27,1.22-1.9c0.16-0.23,0.34-0.46,0.52-0.7
			C118.22,91.38,117.9,91.62,117.42,92.07z M100.28,59.9c-2.57-0.98-3.44-2.69-3.57-2.98c0.64,1.65,1.39,2.82,2.19,3.63
			c3.67,3.67,8.43-0.19,8.43-0.19C104.16,60.85,101.89,60.52,100.28,59.9z M102.37,64.25c-0.8-0.03-1.44-0.22-1.87-0.38
			c0.05,0.1,0.91,1.63,1.83,1.66c0.87,0.03,1.64-0.62,1.83-1.49C103.74,64.16,103.12,64.28,102.37,64.25z M100.71,46.14
			c-0.41-0.57-3.06-3.68-9.54,0.22c-0.04,0.02-0.01,0.08,0.02,0.07c1.16-0.35,5.63-1.55,9.48-0.23
			C100.71,46.21,100.74,46.17,100.71,46.14z M96.74,47.45c-2.14,0.25-3.46,1.52-3.94,2.09c-0.06,0.07,0.01,0.17,0.1,0.14
			c0.45-0.18,1.3-0.44,1.85-0.19c0.77,0.36,3.46-0.16,4.07,0.33c0.61,0.49,0.65,0.73,0.65,0.73S99.51,47.12,96.74,47.45z
			 M96.74,47.45c-2.14,0.25-3.46,1.52-3.94,2.09c-0.06,0.07,0.01,0.17,0.1,0.14c0.45-0.18,1.3-0.44,1.85-0.19
			c0.77,0.36,3.46-0.16,4.07,0.33c0.61,0.49,0.65,0.73,0.65,0.73S99.51,47.12,96.74,47.45z M100.71,46.14
			c-0.41-0.57-3.06-3.68-9.54,0.22c-0.04,0.02-0.01,0.08,0.02,0.07c1.16-0.35,5.63-1.55,9.48-0.23
			C100.71,46.21,100.74,46.17,100.71,46.14z M102.37,64.25c-0.8-0.03-1.44-0.22-1.87-0.38c0.05,0.1,0.91,1.63,1.83,1.66
			c0.87,0.03,1.64-0.62,1.83-1.49C103.74,64.16,103.12,64.28,102.37,64.25z M100.28,59.9c-2.57-0.98-3.44-2.69-3.57-2.98
			c0.64,1.65,1.39,2.82,2.19,3.63c3.67,3.67,8.43-0.19,8.43-0.19C104.16,60.85,101.89,60.52,100.28,59.9z M102.37,64.25
			c-0.8-0.03-1.44-0.22-1.87-0.38c0.05,0.1,0.91,1.63,1.83,1.66c0.87,0.03,1.64-0.62,1.83-1.49
			C103.74,64.16,103.12,64.28,102.37,64.25z M100.71,46.14c-0.41-0.57-3.06-3.68-9.54,0.22c-0.04,0.02-0.01,0.08,0.02,0.07
			c1.16-0.35,5.63-1.55,9.48-0.23C100.71,46.21,100.74,46.17,100.71,46.14z M100.28,59.9c-2.57-0.98-3.44-2.69-3.57-2.98
			c0.64,1.65,1.39,2.82,2.19,3.63c3.67,3.67,8.43-0.19,8.43-0.19C104.16,60.85,101.89,60.52,100.28,59.9z M96.74,47.45
			c-2.14,0.25-3.46,1.52-3.94,2.09c-0.06,0.07,0.01,0.17,0.1,0.14c0.45-0.18,1.3-0.44,1.85-0.19c0.77,0.36,3.46-0.16,4.07,0.33
			c0.61,0.49,0.65,0.73,0.65,0.73S99.51,47.12,96.74,47.45z M96.74,47.45c-2.14,0.25-3.46,1.52-3.94,2.09
			c-0.06,0.07,0.01,0.17,0.1,0.14c0.45-0.18,1.3-0.44,1.85-0.19c0.77,0.36,3.46-0.16,4.07,0.33c0.61,0.49,0.65,0.73,0.65,0.73
			S99.51,47.12,96.74,47.45z M100.71,46.14c-0.41-0.57-3.06-3.68-9.54,0.22c-0.04,0.02-0.01,0.08,0.02,0.07
			c1.16-0.35,5.63-1.55,9.48-0.23C100.71,46.21,100.74,46.17,100.71,46.14z M100.71,46.14c-0.41-0.57-3.06-3.68-9.54,0.22
			c-0.04,0.02-0.01,0.08,0.02,0.07c1.16-0.35,5.63-1.55,9.48-0.23C100.71,46.21,100.74,46.17,100.71,46.14z M96.74,47.45
			c-2.14,0.25-3.46,1.52-3.94,2.09c-0.06,0.07,0.01,0.17,0.1,0.14c0.45-0.18,1.3-0.44,1.85-0.19c0.77,0.36,3.46-0.16,4.07,0.33
			c0.61,0.49,0.65,0.73,0.65,0.73S99.51,47.12,96.74,47.45z M107.16,92.69c-0.18-0.09-0.36-0.18-0.56-0.26
			c0.18,0.13,0.36,0.25,0.56,0.37c0.39,0.25,0.8,0.48,1.24,0.68C108.02,93.19,107.61,92.92,107.16,92.69z M110.8,100.21
			c0.21,0.22,0.41,0.46,0.58,0.7c0.13,0.16,0.24,0.33,0.35,0.5c0,0-0.04-0.45-0.19-1.15v0c-0.08-0.38-0.2-0.83-0.36-1.32
			c-0.35-1.08-0.91-2.35-1.81-3.48c-0.38-0.48-0.82-0.93-1.34-1.33l0,0c-0.27-0.22-0.57-0.42-0.88-0.59
			c-0.28-0.16-0.58-0.31-0.89-0.43c0,0-0.01,0-0.01,0c-0.54-0.22-1.12-0.39-1.77-0.49c-0.38-0.07-0.79-0.1-1.21-0.12
			c-1.91-0.06-3.49-0.12-4.79-0.19c-0.97-0.05-1.79-0.09-2.47-0.14c-2.09-0.14-2.86-0.25-2.86-0.25s0.01,0.04,0.04,0.11v0
			c0.19,0.58,1.12,3.2,3.02,5.79c0,0,0,0,0,0c0,0,0,0,0,0h0c0.87,1.19,1.95,2.37,3.26,3.35c1.83,1.36,4.1,2.31,6.88,2.31
			c1.22,0,2.53-0.18,3.95-0.6c0.25-0.07,0.5-0.14,0.76-0.23c0.06-0.02,0.11-0.04,0.17-0.06c0,0-0.05-0.06-0.14-0.17
			c-0.13-0.15-0.34-0.4-0.63-0.72c-0.72-0.8-1.91-2.04-3.32-3.21c-1.49-1.23-3.22-2.38-4.92-2.86c0.86,0.23,2.88,0.83,4.92,1.91
			C108.46,98.22,109.78,99.11,110.8,100.21z M107.16,92.69c-0.18-0.09-0.36-0.18-0.56-0.26c0.18,0.13,0.36,0.25,0.56,0.37
			c0.39,0.25,0.8,0.48,1.24,0.68C108.02,93.19,107.61,92.92,107.16,92.69z M110.8,100.21c0.21,0.22,0.41,0.46,0.58,0.7
			c0.13,0.16,0.24,0.33,0.35,0.5c0,0-0.04-0.45-0.19-1.15v0c-0.08-0.38-0.2-0.83-0.36-1.32c-0.35-1.08-0.91-2.35-1.81-3.48
			c-0.38-0.48-0.82-0.93-1.34-1.33l0,0c-0.27-0.22-0.57-0.42-0.88-0.59c-0.28-0.16-0.58-0.31-0.89-0.43c0,0-0.01,0-0.01,0
			c-0.54-0.22-1.12-0.39-1.77-0.49c-0.38-0.07-0.79-0.1-1.21-0.12c-1.91-0.06-3.49-0.12-4.79-0.19c-0.97-0.05-1.79-0.09-2.47-0.14
			c-2.09-0.14-2.86-0.25-2.86-0.25s0.01,0.04,0.04,0.11v0c0.19,0.58,1.12,3.2,3.02,5.79c0,0,0,0,0,0c0,0,0,0,0,0h0
			c0.87,1.19,1.95,2.37,3.26,3.35c1.83,1.36,4.1,2.31,6.88,2.31c1.22,0,2.53-0.18,3.95-0.6c0.25-0.07,0.5-0.14,0.76-0.23
			c0.06-0.02,0.11-0.04,0.17-0.06c0,0-0.05-0.06-0.14-0.17c-0.13-0.15-0.34-0.4-0.63-0.72c-0.72-0.8-1.91-2.04-3.32-3.21
			c-1.49-1.23-3.22-2.38-4.92-2.86c0.86,0.23,2.88,0.83,4.92,1.91C108.46,98.22,109.78,99.11,110.8,100.21z M107.16,92.69
			c-0.18-0.09-0.36-0.18-0.56-0.26c0.18,0.13,0.36,0.25,0.56,0.37c0.39,0.25,0.8,0.48,1.24,0.68
			C108.02,93.19,107.61,92.92,107.16,92.69z M110.8,100.21c0.21,0.22,0.41,0.46,0.58,0.7c0.13,0.16,0.24,0.33,0.35,0.5
			c0,0-0.04-0.45-0.19-1.15v0c-0.08-0.38-0.2-0.83-0.36-1.32c-0.35-1.08-0.91-2.35-1.81-3.48c-0.38-0.48-0.82-0.93-1.34-1.33l0,0
			c-0.27-0.22-0.57-0.42-0.88-0.59c-0.28-0.16-0.58-0.31-0.89-0.43c0,0-0.01,0-0.01,0c-0.54-0.22-1.12-0.39-1.77-0.49
			c-0.38-0.07-0.79-0.1-1.21-0.12c-1.91-0.06-3.49-0.12-4.79-0.19c-0.97-0.05-1.79-0.09-2.47-0.14c-2.09-0.14-2.86-0.25-2.86-0.25
			s0.01,0.04,0.04,0.11v0c0.19,0.58,1.12,3.2,3.02,5.79c0,0,0,0,0,0c0,0,0,0,0,0h0c0.87,1.19,1.95,2.37,3.26,3.35
			c1.83,1.36,4.1,2.31,6.88,2.31c1.22,0,2.53-0.18,3.95-0.6c0.25-0.07,0.5-0.14,0.76-0.23c0.06-0.02,0.11-0.04,0.17-0.06
			c0,0-0.05-0.06-0.14-0.17c-0.13-0.15-0.34-0.4-0.63-0.72c-0.72-0.8-1.91-2.04-3.32-3.21c-1.49-1.23-3.22-2.38-4.92-2.86
			c0.86,0.23,2.88,0.83,4.92,1.91C108.46,98.22,109.78,99.11,110.8,100.21z M107.16,92.69c-0.18-0.09-0.36-0.18-0.56-0.26
			c0.18,0.13,0.36,0.25,0.56,0.37c0.39,0.25,0.8,0.48,1.24,0.68C108.02,93.19,107.61,92.92,107.16,92.69z M110.8,100.21
			c0.21,0.22,0.41,0.46,0.58,0.7c0.13,0.16,0.24,0.33,0.35,0.5c0,0-0.04-0.45-0.19-1.15v0c-0.08-0.38-0.2-0.83-0.36-1.32
			c-0.35-1.08-0.91-2.35-1.81-3.48c-0.38-0.48-0.82-0.93-1.34-1.33l0,0c-0.27-0.22-0.57-0.42-0.88-0.59
			c-0.28-0.16-0.58-0.31-0.89-0.43c0,0-0.01,0-0.01,0c-0.54-0.22-1.12-0.39-1.77-0.49c-0.38-0.07-0.79-0.1-1.21-0.12
			c-1.91-0.06-3.49-0.12-4.79-0.19c-0.97-0.05-1.79-0.09-2.47-0.14c-2.09-0.14-2.86-0.25-2.86-0.25s0.01,0.04,0.04,0.11v0
			c0.19,0.58,1.12,3.2,3.02,5.79c0,0,0,0,0,0c0,0,0,0,0,0h0c0.87,1.19,1.95,2.37,3.26,3.35c1.83,1.36,4.1,2.31,6.88,2.31
			c1.22,0,2.53-0.18,3.95-0.6c0.25-0.07,0.5-0.14,0.76-0.23c0.06-0.02,0.11-0.04,0.17-0.06c0,0-0.05-0.06-0.14-0.17
			c-0.13-0.15-0.34-0.4-0.63-0.72c-0.72-0.8-1.91-2.04-3.32-3.21c-1.49-1.23-3.22-2.38-4.92-2.86c0.86,0.23,2.88,0.83,4.92,1.91
			C108.46,98.22,109.78,99.11,110.8,100.21z M107.16,92.69c-0.18-0.09-0.36-0.18-0.56-0.26c0.18,0.13,0.36,0.25,0.56,0.37
			c0.39,0.25,0.8,0.48,1.24,0.68C108.02,93.19,107.61,92.92,107.16,92.69z M110.8,100.21c0.21,0.22,0.41,0.46,0.58,0.7
			c0.13,0.16,0.24,0.33,0.35,0.5c0,0-0.04-0.45-0.19-1.15v0c-0.08-0.38-0.2-0.83-0.36-1.32c-0.35-1.08-0.91-2.35-1.81-3.48
			c-0.38-0.48-0.82-0.93-1.34-1.33l0,0c-0.27-0.22-0.57-0.42-0.88-0.59c-0.28-0.16-0.58-0.31-0.89-0.43c0,0-0.01,0-0.01,0
			c-0.54-0.22-1.12-0.39-1.77-0.49c-0.38-0.07-0.79-0.1-1.21-0.12c-1.91-0.06-3.49-0.12-4.79-0.19c-0.97-0.05-1.79-0.09-2.47-0.14
			c-2.09-0.14-2.86-0.25-2.86-0.25s0.01,0.04,0.04,0.11v0c0.19,0.58,1.12,3.2,3.02,5.79c0,0,0,0,0,0c0,0,0,0,0,0h0
			c0.87,1.19,1.95,2.37,3.26,3.35c1.83,1.36,4.1,2.31,6.88,2.31c1.22,0,2.53-0.18,3.95-0.6c0.25-0.07,0.5-0.14,0.76-0.23
			c0.06-0.02,0.11-0.04,0.17-0.06c0,0-0.05-0.06-0.14-0.17c-0.13-0.15-0.34-0.4-0.63-0.72c-0.72-0.8-1.91-2.04-3.32-3.21
			c-1.49-1.23-3.22-2.38-4.92-2.86c0.86,0.23,2.88,0.83,4.92,1.91C108.46,98.22,109.78,99.11,110.8,100.21z M110.8,100.21
			c0.21,0.22,0.41,0.46,0.58,0.7c0.13,0.16,0.24,0.33,0.35,0.5c0,0-0.04-0.45-0.19-1.15v0c-0.08-0.38-0.2-0.83-0.36-1.32
			c-0.35-1.08-0.91-2.35-1.81-3.48c-0.38-0.48-0.82-0.93-1.34-1.33l0,0c-0.27-0.22-0.57-0.42-0.88-0.59
			c-0.28-0.16-0.58-0.31-0.89-0.43c0,0-0.01,0-0.01,0c-0.54-0.22-1.12-0.39-1.77-0.49c-0.38-0.07-0.79-0.1-1.21-0.12
			c-1.91-0.06-3.49-0.12-4.79-0.19c-0.97-0.05-1.79-0.09-2.47-0.14c-2.09-0.14-2.86-0.25-2.86-0.25s0.01,0.04,0.04,0.11v0
			c0.19,0.58,1.12,3.2,3.02,5.79c0,0,0,0,0,0c0,0,0,0,0,0h0c0.87,1.19,1.95,2.37,3.26,3.35c1.83,1.36,4.1,2.31,6.88,2.31
			c1.22,0,2.53-0.18,3.95-0.6c0.25-0.07,0.5-0.14,0.76-0.23c0.06-0.02,0.11-0.04,0.17-0.06c0,0-0.05-0.06-0.14-0.17
			c-0.13-0.15-0.34-0.4-0.63-0.72c-0.72-0.8-1.91-2.04-3.32-3.21c-1.49-1.23-3.22-2.38-4.92-2.86c0.86,0.23,2.88,0.83,4.92,1.91
			C108.46,98.22,109.78,99.11,110.8,100.21z M110.8,100.21c0.21,0.22,0.41,0.46,0.58,0.7c0.13,0.16,0.24,0.33,0.35,0.5
			c0,0-0.04-0.45-0.19-1.15v0c-0.08-0.38-0.2-0.83-0.36-1.32c-0.35-1.08-0.91-2.35-1.81-3.48c-0.38-0.48-0.82-0.93-1.34-1.33l0,0
			c-0.27-0.22-0.57-0.42-0.88-0.59c-0.28-0.16-0.58-0.31-0.89-0.43c0,0-0.01,0-0.01,0c-0.54-0.22-1.12-0.39-1.77-0.49
			c-0.38-0.07-0.79-0.1-1.21-0.12c-1.91-0.06-3.49-0.12-4.79-0.19c-0.97-0.05-1.79-0.09-2.47-0.14c-2.09-0.14-2.86-0.25-2.86-0.25
			s0.01,0.04,0.04,0.11v0c0.19,0.58,1.12,3.2,3.02,5.79c0,0,0,0,0,0c0,0,0,0,0,0h0c0.87,1.19,1.95,2.37,3.26,3.35
			c1.83,1.36,4.1,2.31,6.88,2.31c1.22,0,2.53-0.18,3.95-0.6c0.25-0.07,0.5-0.14,0.76-0.23c0.06-0.02,0.11-0.04,0.17-0.06
			c0,0-0.05-0.06-0.14-0.17c-0.13-0.15-0.34-0.4-0.63-0.72c-0.72-0.8-1.91-2.04-3.32-3.21c-1.49-1.23-3.22-2.38-4.92-2.86
			c0.86,0.23,2.88,0.83,4.92,1.91C108.46,98.22,109.78,99.11,110.8,100.21z M110.8,100.21c0.21,0.22,0.41,0.46,0.58,0.7
			c0.13,0.16,0.24,0.33,0.35,0.5c0,0-0.04-0.45-0.19-1.15v0c-0.08-0.38-0.2-0.83-0.36-1.32c-0.35-1.08-0.91-2.35-1.81-3.48
			c-0.38-0.48-0.82-0.93-1.34-1.33l0,0c-0.27-0.22-0.57-0.42-0.88-0.59c-0.28-0.16-0.58-0.31-0.89-0.43c0,0-0.01,0-0.01,0
			c-0.54-0.22-1.12-0.39-1.77-0.49c-0.38-0.07-0.79-0.1-1.21-0.12c-1.91-0.06-3.49-0.12-4.79-0.19c-0.97-0.05-1.79-0.09-2.47-0.14
			c-2.09-0.14-2.86-0.25-2.86-0.25s0.01,0.04,0.04,0.11v0c0.19,0.58,1.12,3.2,3.02,5.79c0,0,0,0,0,0c0,0,0,0,0,0h0
			c0.87,1.19,1.95,2.37,3.26,3.35c1.83,1.36,4.1,2.31,6.88,2.31c1.22,0,2.53-0.18,3.95-0.6c0.25-0.07,0.5-0.14,0.76-0.23
			c0.06-0.02,0.11-0.04,0.17-0.06c0,0-0.05-0.06-0.14-0.17c-0.13-0.15-0.34-0.4-0.63-0.72c-0.72-0.8-1.91-2.04-3.32-3.21
			c-1.49-1.23-3.22-2.38-4.92-2.86c0.86,0.23,2.88,0.83,4.92,1.91C108.46,98.22,109.78,99.11,110.8,100.21z M110.8,100.21
			c0.21,0.22,0.41,0.46,0.58,0.7c0.13,0.16,0.24,0.33,0.35,0.5c0,0-0.04-0.45-0.19-1.15v0c-0.08-0.38-0.2-0.83-0.36-1.32
			c-0.35-1.08-0.91-2.35-1.81-3.48c-0.38-0.48-0.82-0.93-1.34-1.33l0,0c-0.27-0.22-0.57-0.42-0.88-0.59
			c-0.28-0.16-0.58-0.31-0.89-0.43c0,0-0.01,0-0.01,0c-0.54-0.22-1.12-0.39-1.77-0.49c-0.38-0.07-0.79-0.1-1.21-0.12
			c-1.91-0.06-3.49-0.12-4.79-0.19c-0.97-0.05-1.79-0.09-2.47-0.14c-2.09-0.14-2.86-0.25-2.86-0.25s0.01,0.04,0.04,0.11v0
			c0.19,0.58,1.12,3.2,3.02,5.79c0,0,0,0,0,0c0,0,0,0,0,0h0c0.87,1.19,1.95,2.37,3.26,3.35c1.83,1.36,4.1,2.31,6.88,2.31
			c1.22,0,2.53-0.18,3.95-0.6c0.25-0.07,0.5-0.14,0.76-0.23c0.06-0.02,0.11-0.04,0.17-0.06c0,0-0.05-0.06-0.14-0.17
			c-0.13-0.15-0.34-0.4-0.63-0.72c-0.72-0.8-1.91-2.04-3.32-3.21c-1.49-1.23-3.22-2.38-4.92-2.86c0.86,0.23,2.88,0.83,4.92,1.91
			C108.46,98.22,109.78,99.11,110.8,100.21z M110.8,100.21c0.21,0.22,0.41,0.46,0.58,0.7c0.13,0.16,0.24,0.33,0.35,0.5
			c0,0-0.04-0.45-0.19-1.15v0c-0.08-0.38-0.2-0.83-0.36-1.32c-0.35-1.08-0.91-2.35-1.81-3.48c-0.38-0.48-0.82-0.93-1.34-1.33l0,0
			c-0.27-0.22-0.57-0.42-0.88-0.59c-0.28-0.16-0.58-0.31-0.89-0.43c0,0-0.01,0-0.01,0c-0.54-0.22-1.12-0.39-1.77-0.49
			c-0.38-0.07-0.79-0.1-1.21-0.12c-1.91-0.06-3.49-0.12-4.79-0.19c-0.97-0.05-1.79-0.09-2.47-0.14c-2.09-0.14-2.86-0.25-2.86-0.25
			s0.01,0.04,0.04,0.11v0c0.19,0.58,1.12,3.2,3.02,5.79c0,0,0,0,0,0c0,0,0,0,0,0h0c0.87,1.19,1.95,2.37,3.26,3.35
			c1.83,1.36,4.1,2.31,6.88,2.31c1.22,0,2.53-0.18,3.95-0.6c0.25-0.07,0.5-0.14,0.76-0.23c0.06-0.02,0.11-0.04,0.17-0.06
			c0,0-0.05-0.06-0.14-0.17c-0.13-0.15-0.34-0.4-0.63-0.72c-0.72-0.8-1.91-2.04-3.32-3.21c-1.49-1.23-3.22-2.38-4.92-2.86
			c0.86,0.23,2.88,0.83,4.92,1.91C108.46,98.22,109.78,99.11,110.8,100.21z M110.8,100.21c0.21,0.22,0.41,0.46,0.58,0.7
			c0.13,0.16,0.24,0.33,0.35,0.5c0,0-0.04-0.45-0.19-1.15v0c-0.08-0.38-0.2-0.83-0.36-1.32c-0.35-1.08-0.91-2.35-1.81-3.48
			c-0.38-0.48-0.82-0.93-1.34-1.33l0,0c-0.27-0.22-0.57-0.42-0.88-0.59c-0.28-0.16-0.58-0.31-0.89-0.43c0,0-0.01,0-0.01,0
			c-0.54-0.22-1.12-0.39-1.77-0.49c-0.38-0.07-0.79-0.1-1.21-0.12c-1.91-0.06-3.49-0.12-4.79-0.19c-0.97-0.05-1.79-0.09-2.47-0.14
			c-2.09-0.14-2.86-0.25-2.86-0.25s0.01,0.04,0.04,0.11v0c0.19,0.58,1.12,3.2,3.02,5.79c0,0,0,0,0,0c0,0,0,0,0,0h0
			c0.87,1.19,1.95,2.37,3.26,3.35c1.83,1.36,4.1,2.31,6.88,2.31c1.22,0,2.53-0.18,3.95-0.6c0.25-0.07,0.5-0.14,0.76-0.23
			c0.06-0.02,0.11-0.04,0.17-0.06c0,0-0.05-0.06-0.14-0.17c-0.13-0.15-0.34-0.4-0.63-0.72c-0.72-0.8-1.91-2.04-3.32-3.21
			c-1.49-1.23-3.22-2.38-4.92-2.86c0.86,0.23,2.88,0.83,4.92,1.91C108.46,98.22,109.78,99.11,110.8,100.21z M110.8,100.21
			c0.21,0.22,0.41,0.46,0.58,0.7c0.13,0.16,0.24,0.33,0.35,0.5c0,0-0.04-0.45-0.19-1.15v0c-0.08-0.38-0.2-0.83-0.36-1.32
			c-0.35-1.08-0.91-2.35-1.81-3.48c-0.38-0.48-0.82-0.93-1.34-1.33l0,0c-0.27-0.22-0.57-0.42-0.88-0.59
			c-0.28-0.16-0.58-0.31-0.89-0.43c0,0-0.01,0-0.01,0c-0.54-0.22-1.12-0.39-1.77-0.49c-0.38-0.07-0.79-0.1-1.21-0.12
			c-1.91-0.06-3.49-0.12-4.79-0.19c-0.97-0.05-1.79-0.09-2.47-0.14c-2.09-0.14-2.86-0.25-2.86-0.25s0.01,0.04,0.04,0.11v0
			c0.19,0.58,1.12,3.2,3.02,5.79c0,0,0,0,0,0c0,0,0,0,0,0h0c0.87,1.19,1.95,2.37,3.26,3.35c1.83,1.36,4.1,2.31,6.88,2.31
			c1.22,0,2.53-0.18,3.95-0.6c0.25-0.07,0.5-0.14,0.76-0.23c0.06-0.02,0.11-0.04,0.17-0.06c0,0-0.05-0.06-0.14-0.17
			c-0.13-0.15-0.34-0.4-0.63-0.72c-0.72-0.8-1.91-2.04-3.32-3.21c-1.49-1.23-3.22-2.38-4.92-2.86c0.86,0.23,2.88,0.83,4.92,1.91
			C108.46,98.22,109.78,99.11,110.8,100.21z M110.8,100.21c0.21,0.22,0.41,0.46,0.58,0.7c0.13,0.16,0.24,0.33,0.35,0.5
			c0,0-0.04-0.45-0.19-1.15v0c-0.08-0.38-0.2-0.83-0.36-1.32c-0.35-1.08-0.91-2.35-1.81-3.48c-0.38-0.48-0.82-0.93-1.34-1.33l0,0
			c-0.27-0.22-0.57-0.42-0.88-0.59c-0.28-0.16-0.58-0.31-0.89-0.43c0,0-0.01,0-0.01,0c-0.54-0.22-1.12-0.39-1.77-0.49
			c-0.38-0.07-0.79-0.1-1.21-0.12c-1.91-0.06-3.49-0.12-4.79-0.19c-0.97-0.05-1.79-0.09-2.47-0.14c-2.09-0.14-2.86-0.25-2.86-0.25
			s0.01,0.04,0.04,0.11v0c0.19,0.58,1.12,3.2,3.02,5.79c0,0,0,0,0,0c0,0,0,0,0,0h0c0.87,1.19,1.95,2.37,3.26,3.35
			c1.83,1.36,4.1,2.31,6.88,2.31c1.22,0,2.53-0.18,3.95-0.6c0.25-0.07,0.5-0.14,0.76-0.23c0.06-0.02,0.11-0.04,0.17-0.06
			c0,0-0.05-0.06-0.14-0.17c-0.13-0.15-0.34-0.4-0.63-0.72c-0.72-0.8-1.91-2.04-3.32-3.21c-1.49-1.23-3.22-2.38-4.92-2.86
			c0.86,0.23,2.88,0.83,4.92,1.91C108.46,98.22,109.78,99.11,110.8,100.21z M110.8,100.21c0.21,0.22,0.41,0.46,0.58,0.7
			c0.13,0.16,0.24,0.33,0.35,0.5c0,0-0.04-0.45-0.19-1.15v0c-0.08-0.38-0.2-0.83-0.36-1.32c-0.35-1.08-0.91-2.35-1.81-3.48
			c-0.38-0.48-0.82-0.93-1.34-1.33l0,0c-0.27-0.22-0.57-0.42-0.88-0.59c-0.28-0.16-0.58-0.31-0.89-0.43c0,0-0.01,0-0.01,0
			c-0.54-0.22-1.12-0.39-1.77-0.49c-0.38-0.07-0.79-0.1-1.21-0.12c-1.91-0.06-3.49-0.12-4.79-0.19c-0.97-0.05-1.79-0.09-2.47-0.14
			c-2.09-0.14-2.86-0.25-2.86-0.25s0.01,0.04,0.04,0.11v0c0.19,0.58,1.12,3.2,3.02,5.79c0,0,0,0,0,0c0,0,0,0,0,0h0
			c0.87,1.19,1.95,2.37,3.26,3.35c1.83,1.36,4.1,2.31,6.88,2.31c1.22,0,2.53-0.18,3.95-0.6c0.25-0.07,0.5-0.14,0.76-0.23
			c0.06-0.02,0.11-0.04,0.17-0.06c0,0-0.05-0.06-0.14-0.17c-0.13-0.15-0.34-0.4-0.63-0.72c-0.72-0.8-1.91-2.04-3.32-3.21
			c-1.49-1.23-3.22-2.38-4.92-2.86c0.86,0.23,2.88,0.83,4.92,1.91C108.46,98.22,109.78,99.11,110.8,100.21z M110.8,100.21
			c0.21,0.22,0.41,0.46,0.58,0.7c0.13,0.16,0.24,0.33,0.35,0.5c0,0-0.04-0.45-0.19-1.15v0c-0.08-0.38-0.2-0.83-0.36-1.32
			c-0.35-1.08-0.91-2.35-1.81-3.48c-0.38-0.48-0.82-0.93-1.34-1.33l0,0c-0.27-0.22-0.57-0.42-0.88-0.59
			c-0.28-0.16-0.58-0.31-0.89-0.43c0,0-0.01,0-0.01,0c-0.54-0.22-1.12-0.39-1.77-0.49c-0.38-0.07-0.79-0.1-1.21-0.12
			c-1.91-0.06-3.49-0.12-4.79-0.19c-0.97-0.05-1.79-0.09-2.47-0.14c-2.09-0.14-2.86-0.25-2.86-0.25s0.01,0.04,0.04,0.11v0
			c0.19,0.58,1.12,3.2,3.02,5.79c0,0,0,0,0,0c0,0,0,0,0,0h0c0.87,1.19,1.95,2.37,3.26,3.35c1.83,1.36,4.1,2.31,6.88,2.31
			c1.22,0,2.53-0.18,3.95-0.6c0.25-0.07,0.5-0.14,0.76-0.23c0.06-0.02,0.11-0.04,0.17-0.06c0,0-0.05-0.06-0.14-0.17
			c-0.13-0.15-0.34-0.4-0.63-0.72c-0.72-0.8-1.91-2.04-3.32-3.21c-1.49-1.23-3.22-2.38-4.92-2.86c0.86,0.23,2.88,0.83,4.92,1.91
			C108.46,98.22,109.78,99.11,110.8,100.21z M110.8,100.21c0.21,0.22,0.41,0.46,0.58,0.7c0.13,0.16,0.24,0.33,0.35,0.5
			c0,0-0.04-0.45-0.19-1.15v0c-0.08-0.38-0.2-0.83-0.36-1.32c-0.35-1.08-0.91-2.35-1.81-3.48c-0.38-0.48-0.82-0.93-1.34-1.33l0,0
			c-0.27-0.22-0.57-0.42-0.88-0.59c-0.28-0.16-0.58-0.31-0.89-0.43c0,0-0.01,0-0.01,0c-0.54-0.22-1.12-0.39-1.77-0.49
			c-0.38-0.07-0.79-0.1-1.21-0.12c-1.91-0.06-3.49-0.12-4.79-0.19c-0.97-0.05-1.79-0.09-2.47-0.14c-2.09-0.14-2.86-0.25-2.86-0.25
			s0.01,0.04,0.04,0.11v0c0.19,0.58,1.12,3.2,3.02,5.79c0,0,0,0,0,0c0,0,0,0,0,0h0c0.87,1.19,1.95,2.37,3.26,3.35
			c1.83,1.36,4.1,2.31,6.88,2.31c1.22,0,2.53-0.18,3.95-0.6c0.25-0.07,0.5-0.14,0.76-0.23c0.06-0.02,0.11-0.04,0.17-0.06
			c0,0-0.05-0.06-0.14-0.17c-0.13-0.15-0.34-0.4-0.63-0.72c-0.72-0.8-1.91-2.04-3.32-3.21c-1.49-1.23-3.22-2.38-4.92-2.86
			c0.86,0.23,2.88,0.83,4.92,1.91C108.46,98.22,109.78,99.11,110.8,100.21z M110.8,100.21c0.21,0.22,0.41,0.46,0.58,0.7
			c0.13,0.16,0.24,0.33,0.35,0.5c0,0-0.04-0.45-0.19-1.15v0c-0.08-0.38-0.2-0.83-0.36-1.32c-0.35-1.08-0.91-2.35-1.81-3.48
			c-0.38-0.48-0.82-0.93-1.34-1.33l0,0c-0.27-0.22-0.57-0.42-0.88-0.59c-0.28-0.16-0.58-0.31-0.89-0.43c0,0-0.01,0-0.01,0
			c-0.54-0.22-1.12-0.39-1.77-0.49c-0.38-0.07-0.79-0.1-1.21-0.12c-1.91-0.06-3.49-0.12-4.79-0.19c-0.97-0.05-1.79-0.09-2.47-0.14
			c-2.09-0.14-2.86-0.25-2.86-0.25s0.01,0.04,0.04,0.11v0c0.19,0.58,1.12,3.2,3.02,5.79c0,0,0,0,0,0c0,0,0,0,0,0h0
			c0.87,1.19,1.95,2.37,3.26,3.35c1.83,1.36,4.1,2.31,6.88,2.31c1.22,0,2.53-0.18,3.95-0.6c0.25-0.07,0.5-0.14,0.76-0.23
			c0.06-0.02,0.11-0.04,0.17-0.06c0,0-0.05-0.06-0.14-0.17c-0.13-0.15-0.34-0.4-0.63-0.72c-0.72-0.8-1.91-2.04-3.32-3.21
			c-1.49-1.23-3.22-2.38-4.92-2.86c0.86,0.23,2.88,0.83,4.92,1.91C108.46,98.22,109.78,99.11,110.8,100.21z M110.8,100.21
			c0.21,0.22,0.41,0.46,0.58,0.7c0.13,0.16,0.24,0.33,0.35,0.5c0,0-0.04-0.45-0.19-1.15v0c-0.08-0.38-0.2-0.83-0.36-1.32
			c-0.35-1.08-0.91-2.35-1.81-3.48c-0.38-0.48-0.82-0.93-1.34-1.33l0,0c-0.27-0.22-0.57-0.42-0.88-0.59
			c-0.28-0.16-0.58-0.31-0.89-0.43c0,0-0.01,0-0.01,0c-0.54-0.22-1.12-0.39-1.77-0.49c-0.38-0.07-0.79-0.1-1.21-0.12
			c-1.91-0.06-3.49-0.12-4.79-0.19c-0.97-0.05-1.79-0.09-2.47-0.14c-2.09-0.14-2.86-0.25-2.86-0.25s0.01,0.04,0.04,0.11v0
			c0.19,0.58,1.12,3.2,3.02,5.79c0,0,0,0,0,0c0,0,0,0,0,0h0c0.87,1.19,1.95,2.37,3.26,3.35c1.83,1.36,4.1,2.31,6.88,2.31
			c1.22,0,2.53-0.18,3.95-0.6c0.25-0.07,0.5-0.14,0.76-0.23c0.06-0.02,0.11-0.04,0.17-0.06c0,0-0.05-0.06-0.14-0.17
			c-0.13-0.15-0.34-0.4-0.63-0.72c-0.72-0.8-1.91-2.04-3.32-3.21c-1.49-1.23-3.22-2.38-4.92-2.86c0.86,0.23,2.88,0.83,4.92,1.91
			C108.46,98.22,109.78,99.11,110.8,100.21z M110.8,100.21c0.21,0.22,0.41,0.46,0.58,0.7c0.13,0.16,0.24,0.33,0.35,0.5
			c0,0-0.04-0.45-0.19-1.15v0c-0.08-0.38-0.2-0.83-0.36-1.32c-0.35-1.08-0.91-2.35-1.81-3.48c-0.38-0.48-0.82-0.93-1.34-1.33l0,0
			c-0.27-0.22-0.57-0.42-0.88-0.59c-0.28-0.16-0.58-0.31-0.89-0.43c0,0-0.01,0-0.01,0c-0.54-0.22-1.12-0.39-1.77-0.49
			c-0.38-0.07-0.79-0.1-1.21-0.12c-1.91-0.06-3.49-0.12-4.79-0.19c-0.97-0.05-1.79-0.09-2.47-0.14c-2.09-0.14-2.86-0.25-2.86-0.25
			s0.01,0.04,0.04,0.11v0c0.19,0.58,1.12,3.2,3.02,5.79c0,0,0,0,0,0c0,0,0,0,0,0h0c0.87,1.19,1.95,2.37,3.26,3.35
			c1.83,1.36,4.1,2.31,6.88,2.31c1.22,0,2.53-0.18,3.95-0.6c0.25-0.07,0.5-0.14,0.76-0.23c0.06-0.02,0.11-0.04,0.17-0.06
			c0,0-0.05-0.06-0.14-0.17c-0.13-0.15-0.34-0.4-0.63-0.72c-0.72-0.8-1.91-2.04-3.32-3.21c-1.49-1.23-3.22-2.38-4.92-2.86
			c0.86,0.23,2.88,0.83,4.92,1.91C108.46,98.22,109.78,99.11,110.8,100.21z M111.55,100.26L111.55,100.26
			c-0.08-0.38-0.2-0.83-0.36-1.33c-0.35-1.08-0.91-2.35-1.81-3.48c-0.38-0.48-0.82-0.93-1.34-1.33l0,0
			c-0.27-0.22-0.57-0.42-0.88-0.59c-0.28-0.16-0.58-0.31-0.89-0.43c0,0-0.01,0-0.01,0c-0.54-0.22-1.12-0.39-1.77-0.49
			c-0.38-0.07-0.79-0.1-1.21-0.12c-1.91-0.06-3.49-0.12-4.79-0.19c-0.97-0.05-1.79-0.09-2.47-0.14c-2.09-0.14-2.86-0.25-2.86-0.25
			s0.01,0.04,0.04,0.11v0c0.19,0.58,1.12,3.2,3.02,5.79c0,0,0,0,0,0c0,0,0,0,0,0h0c0.87,1.19,1.95,2.37,3.26,3.35
			c1.83,1.36,4.1,2.31,6.88,2.31c1.22,0,2.53-0.18,3.95-0.6c0.04-0.4,0.09-0.79,0.16-1.18c-0.72-0.8-1.91-2.04-3.32-3.21
			c-1.49-1.23-3.22-2.38-4.92-2.86c0.86,0.23,2.88,0.83,4.92,1.91c1.3,0.68,2.62,1.57,3.65,2.67c0.21,0.22,0.41,0.46,0.58,0.7
			c0.13,0.16,0.24,0.33,0.35,0.5C111.74,101.41,111.7,100.96,111.55,100.26z M107.16,98.49c-1.49-1.23-3.22-2.38-4.92-2.86
			c0.86,0.23,2.88,0.83,4.92,1.91v-3.05c-0.99-0.53-1.88-1.16-2.67-1.9c-0.38-0.07-0.79-0.1-1.21-0.12
			c-1.91-0.06-3.49-0.12-4.79-0.19c-0.97-0.05-1.79-0.09-2.47-0.14c-2.09-0.14-2.86-0.25-2.86-0.25s0.01,0.04,0.04,0.11v0
			c0.19,0.58,1.12,3.2,3.02,5.79c0,0,0,0,0,0c0,0,0,0,0,0h0c0.87,1.19,1.95,2.37,3.26,3.35c1.83,1.36,4.1,2.31,6.88,2.31
			c1.22,0,2.53-0.18,3.95-0.6c0.04-0.4,0.09-0.79,0.16-1.18C109.75,100.9,108.56,99.66,107.16,98.49z M96.02,92.15
			c-2.09-0.14-2.86-0.25-2.86-0.25s0.01,0.04,0.04,0.11v0c0.19,0.58,1.12,3.2,3.02,5.79c0,0,0,0,0,0c0,0,0,0,0,0h0l2.26-5.53
			C97.52,92.24,96.7,92.19,96.02,92.15z"/>
		<path class="st0" d="M110.23,94.2c-0.65-0.21-1.26-0.44-1.82-0.71h0c-0.38-0.29-0.79-0.56-1.24-0.79
			c-0.18-0.09-0.36-0.18-0.56-0.26c-0.52-0.37-1-0.77-1.42-1.2c0.7,0.14,1.36,0.36,1.98,0.64C108.33,92.41,109.36,93.19,110.23,94.2
			z"/>
		<path class="st0" d="M99.47,50.55c0,0-0.04-0.25-0.65-0.73c-0.61-0.49-3.3,0.04-4.07-0.33c-0.55-0.26-1.39,0.01-1.85,0.19
			c-0.08,0.04-0.16-0.07-0.1-0.14c0.49-0.57,1.8-1.84,3.94-2.09C99.51,47.12,99.47,50.55,99.47,50.55z"/>
		<path class="st0" d="M91.17,46.36c6.48-3.9,9.13-0.79,9.54-0.22c0.02,0.03,0,0.07-0.04,0.05c-3.85-1.32-8.32-0.12-9.48,0.23
			C91.16,46.44,91.13,46.38,91.17,46.36z"/>
		<path class="st0" d="M102.37,64.25c0.75,0.03,1.37-0.09,1.79-0.21c-0.19,0.87-0.96,1.52-1.83,1.49c-0.92-0.03-1.78-1.57-1.83-1.66
			C100.92,64.03,101.57,64.22,102.37,64.25z"/>
		<path class="st0" d="M107.33,60.36c0,0-4.76,3.86-8.43,0.19c-0.8-0.81-1.56-1.98-2.19-3.63c0.13,0.29,1.01,2,3.57,2.98
			C101.89,60.52,104.16,60.85,107.33,60.36z"/>
		<path class="st0" d="M110.34,45.92L110.34,45.92c0.03,0.49-0.01,0.99-0.09,1.49c0,0.01,0,0.01,0,0.02c0,0-3.03-0.88-3.89,0.91
			c-0.09,0.2-0.16,0.42-0.2,0.65c0,0,2.33-0.46,3.54,0.67v0c-0.14,0.48-0.25,0.92-0.32,1.3c-0.05-0.07-0.16-0.17-0.3-0.28
			c-0.16-0.13-0.34-0.23-0.4-0.14c-0.14,0.19-0.8,1.05-2.23,0c-0.06-0.02-0.16-0.07-0.28-0.16c0.22,1.59,0.97,3.43,1.03,4.82
			c0.02,0.51-0.24,0.95-0.65,1.32c0,0-0.01,0-0.01,0c-0.43,0.39-1.01,0.7-1.58,0.91c0,0,0,0,0,0c-1.09,0.4-2.14,0.45-1.96,0.03
			c0.36-0.85,2.67-1.56,2.72-2.41c0.04-0.85-1.47-4.91-0.72-7.45C105.78,45.08,110.34,45.92,110.34,45.92z"/>
		<path class="st0" d="M96.02,92.15l-0.67,1.51l-2.15-1.65v0c-0.02-0.07-0.04-0.11-0.04-0.11S93.93,92.01,96.02,92.15z"/>
		<path class="st0" d="M107.16,92.69v0.11c-0.19-0.12-0.38-0.24-0.56-0.37C106.79,92.51,106.98,92.6,107.16,92.69z"/>
		<path class="st0" d="M107.16,93.52v4.02c-2.04-1.08-4.06-1.68-4.92-1.91c1.7,0.49,3.43,1.64,4.92,2.86v2.46l-7.67,0.22
			c-1.31-0.98-2.39-2.16-3.26-3.35l2.26-5.53c1.3,0.07,2.88,0.13,4.79,0.19c0.42,0.01,0.82,0.05,1.21,0.12
			c0.65,0.1,1.23,0.27,1.77,0.49c0,0,0.01,0,0.01,0C106.58,93.21,106.88,93.36,107.16,93.52z"/>
		<g>
			<g>
				<path class="st0" d="M127.98,76.74c-0.02,0.1-0.05,0.21-0.07,0.31 M128.02,76.58c0,0.01,0,0.02-0.01,0.04c0,0,0,0,0,0
					c-0.01,0.04-0.02,0.08-0.03,0.12c-0.02,0.1-0.05,0.21-0.07,0.31c-0.01,0.05-0.03,0.09-0.04,0.14 M117.42,92.07
					c0.02,0,0.05,0,0.07,0c0.09,0,0.17-0.01,0.26-0.02c0.16-0.23,0.34-0.46,0.52-0.7C118.22,91.38,117.9,91.62,117.42,92.07z
					 M118.98,92.77c0.01,0,0.02,0.01,0.03,0.01c0.01-0.01,0.02-0.03,0.04-0.05C119.02,92.75,119,92.76,118.98,92.77z"/>
				<path class="st0" d="M133.43,63.72c0,0-0.51,3.58-0.88,15.06c-0.3,9.4-9.04,11.84-12.19,12.41c-0.25,0.05-0.47,0.08-0.64,0.1
					c-0.3,0.05-0.48,0.06-0.48,0.06c0.15-0.1,0.3-0.2,0.45-0.3c0.12-0.07,0.23-0.16,0.34-0.25c4.9-3.7,7.23-11.33,7.83-13.58
					c-1.41,4.93-6.57,10.03-9.04,12.25c-0.18,0.16-0.34,0.3-0.48,0.43c-0.53,0.46-0.85,0.72-0.85,0.72
					c-0.05-0.14-0.09-0.27-0.14-0.4c-0.33-1-0.58-1.96-0.78-2.89C113.08,69.86,133.43,63.72,133.43,63.72z"/>
			</g>
			<g>
				<path class="st0" d="M108.04,94.11c-0.3-0.14-0.59-0.29-0.88-0.46c-0.31-0.17-0.61-0.36-0.89-0.57
					c0.32,0.13,0.61,0.28,0.89,0.43C107.47,93.7,107.76,93.9,108.04,94.11z"/>
				<path class="st0" d="M108.4,93.48c-0.44-0.21-0.86-0.43-1.24-0.68c-0.19-0.12-0.38-0.24-0.56-0.37
					c0.19,0.08,0.38,0.17,0.56,0.26C107.61,92.92,108.02,93.19,108.4,93.48z"/>
				<path class="st0" d="M113.31,94.6C113.32,94.6,113.32,94.61,113.31,94.6c0,0.02,0.01,0.02,0.01,0.03c0,0,0.01-0.01,0.01-0.02
					C113.33,94.6,113.32,94.6,113.31,94.6z M107.16,92.69c-0.18-0.09-0.36-0.18-0.56-0.26c0.18,0.13,0.36,0.25,0.56,0.37
					c0.39,0.25,0.8,0.48,1.24,0.68C108.02,93.19,107.61,92.92,107.16,92.69z M108.04,94.12L108.04,94.12
					c-0.28-0.22-0.57-0.42-0.88-0.6c-0.28-0.16-0.58-0.31-0.89-0.43c0,0-0.01,0-0.01,0c-0.54-0.22-1.12-0.39-1.77-0.49
					c0.79,0.74,1.69,1.37,2.67,1.9c0.7,0.37,1.44,0.69,2.22,0.96C108.99,94.97,108.55,94.52,108.04,94.12z M107.16,92.69
					c-0.18-0.09-0.36-0.18-0.56-0.26c0.18,0.13,0.36,0.25,0.56,0.37c0.39,0.25,0.8,0.48,1.24,0.68
					C108.02,93.19,107.61,92.92,107.16,92.69z M107.58,83.96L107.58,83.96L107.58,83.96c0.11,0.1,0.22,0.2,0.32,0.29 M108.41,93.48
					L108.41,93.48 M108.41,93.48L108.41,93.48 M106.6,92.43c0.18,0.13,0.36,0.25,0.56,0.37c0.39,0.25,0.8,0.48,1.24,0.68
					 M108.41,93.48L108.41,93.48"/>
				<path class="st0" d="M107.91,84.26c3.32,3.21,4.69,10.48,4.69,10.48c-0.86-0.14-1.65-0.32-2.38-0.55
					c-0.87-1.01-1.9-1.79-3.07-2.32c-0.62-0.28-1.28-0.5-1.98-0.64c-1.78-1.76-2.77-3.95-3.3-6.08c-0.27-1.06-0.42-2.1-0.49-3.08
					c-0.24-3.06,0.24-5.46,0.24-5.46s1.97,1.45,8.72,5.34c1.44,0.83,2.42,1.86,3.06,2.96c2.35,4.03,0.2,9.02,0.2,9.02
					C113.29,89.59,109.12,85.39,107.91,84.26z"/>
			</g>
			<g>
				<path class="st0" d="M108.4,93.48c-0.44-0.21-0.86-0.43-1.24-0.68c-0.19-0.12-0.38-0.24-0.56-0.37
					c0.19,0.08,0.38,0.17,0.56,0.26C107.61,92.92,108.02,93.19,108.4,93.48z"/>
				<path class="st0" d="M107.16,97.54c-2.04-1.08-4.06-1.68-4.92-1.91c1.7,0.49,3.43,1.64,4.92,2.86c1.41,1.16,2.6,2.4,3.32,3.21
					c0.29,0.32,0.51,0.57,0.63,0.72c0.09,0.11,0.14,0.17,0.14,0.17c-0.06,0.02-0.11,0.04-0.17,0.06c-0.26,0.09-0.51,0.17-0.76,0.23
					c-1.42,0.42-2.73,0.6-3.95,0.6c-2.78,0-5.05-0.95-6.88-2.31c-1.31-0.98-2.39-2.16-3.26-3.35h0c0,0,0,0,0,0c0,0,0,0,0,0
					c-1.9-2.59-2.82-5.21-3.02-5.79v0c-0.02-0.07-0.04-0.11-0.04-0.11s0.78,0.11,2.86,0.25c0.68,0.05,1.5,0.09,2.47,0.14
					c1.3,0.07,2.88,0.13,4.79,0.19c0.42,0.01,0.82,0.05,1.21,0.12c0.65,0.1,1.23,0.27,1.77,0.49c0,0,0.01,0,0.01,0
					c0.32,0.13,0.61,0.28,0.89,0.43c0.31,0.18,0.61,0.38,0.88,0.59l0,0c0.51,0.4,0.95,0.85,1.34,1.33c0.9,1.13,1.46,2.4,1.81,3.48
					c0.16,0.5,0.28,0.94,0.36,1.32v0c0.15,0.7,0.19,1.15,0.19,1.15c-0.11-0.17-0.22-0.34-0.35-0.5c-0.18-0.24-0.38-0.48-0.58-0.7
					C109.78,99.11,108.46,98.22,107.16,97.54z"/>
				<path class="st0" d="M111.87,102.12L111.87,102.12c-0.02,0-0.04,0.01-0.06,0.01C111.84,102.13,111.86,102.13,111.87,102.12z"/>
				<path class="st0" d="M111.95,102.79c-0.04,0.13-0.11,0.24-0.2,0.32c0.03-0.31,0.07-0.61,0.12-0.91
					C111.97,102.38,112.01,102.59,111.95,102.79z"/>
				<path class="st0" d="M112.46,101.34c0.03,0.34-0.17,0.65-0.49,0.75c-0.03,0.01-0.07,0.02-0.1,0.02c0.1-0.65,0.24-1.27,0.41-1.86
					C112.42,100.91,112.46,101.33,112.46,101.34z"/>
				<path class="st0" d="M112.72,98.96c-0.16,0.42-0.3,0.86-0.43,1.31c-0.17,0.59-0.31,1.21-0.41,1.86c-0.02,0-0.04,0.01-0.06,0.01
					c0.02,0.02,0.03,0.04,0.05,0.07v0c-0.05,0.3-0.09,0.6-0.12,0.91v0c-0.03,0.28-0.05,0.57-0.06,0.86c0.01,0,0.03-0.01,0.04-0.01
					c0.44-0.15,0.79-0.52,0.92-0.98c0.05-0.16,0.06-0.32,0.05-0.49c0.34-0.3,0.53-0.74,0.49-1.22
					C113.18,101.22,113.1,100.26,112.72,98.96z M110.8,100.21c0.21,0.22,0.41,0.46,0.58,0.7c0.13,0.16,0.24,0.33,0.35,0.5
					c0,0-0.04-0.45-0.19-1.15v0c-0.08-0.38-0.2-0.83-0.36-1.32c-0.35-1.08-0.91-2.35-1.81-3.48c-0.38-0.48-0.82-0.93-1.34-1.33l0,0
					c-0.27-0.22-0.57-0.42-0.88-0.59c-0.28-0.16-0.58-0.31-0.89-0.43c0,0-0.01,0-0.01,0c-0.54-0.22-1.12-0.39-1.77-0.49
					c-0.38-0.07-0.79-0.1-1.21-0.12c-1.91-0.06-3.49-0.12-4.79-0.19c-0.97-0.05-1.79-0.09-2.47-0.14c-2.09-0.14-2.86-0.25-2.86-0.25
					s0.01,0.04,0.04,0.11v0c0.19,0.58,1.12,3.2,3.02,5.79c0,0,0,0,0,0c0,0,0,0,0,0h0c0.87,1.19,1.95,2.37,3.26,3.35
					c1.83,1.36,4.1,2.31,6.88,2.31c1.22,0,2.53-0.18,3.95-0.6c0.25-0.07,0.5-0.14,0.76-0.23c0.06-0.02,0.11-0.04,0.17-0.06
					c0,0-0.05-0.06-0.14-0.17c-0.13-0.15-0.34-0.4-0.63-0.72c-0.72-0.8-1.91-2.04-3.32-3.21c-1.49-1.23-3.22-2.38-4.92-2.86
					c0.86,0.23,2.88,0.83,4.92,1.91C108.46,98.22,109.78,99.11,110.8,100.21z M107.16,92.69c-0.18-0.09-0.36-0.18-0.56-0.26
					c0.18,0.13,0.36,0.25,0.56,0.37c0.39,0.25,0.8,0.48,1.24,0.68C108.02,93.19,107.61,92.92,107.16,92.69z M110.8,100.21
					c0.21,0.22,0.41,0.46,0.58,0.7c0.13,0.16,0.24,0.33,0.35,0.5c0,0-0.04-0.45-0.19-1.15v0c-0.08-0.38-0.2-0.83-0.36-1.32
					c-0.35-1.08-0.91-2.35-1.81-3.48c-0.38-0.48-0.82-0.93-1.34-1.33l0,0c-0.27-0.22-0.57-0.42-0.88-0.59
					c-0.28-0.16-0.58-0.31-0.89-0.43c0,0-0.01,0-0.01,0c-0.54-0.22-1.12-0.39-1.77-0.49c-0.38-0.07-0.79-0.1-1.21-0.12
					c-1.91-0.06-3.49-0.12-4.79-0.19c-0.97-0.05-1.79-0.09-2.47-0.14c-2.09-0.14-2.86-0.25-2.86-0.25s0.01,0.04,0.04,0.11v0
					c0.19,0.58,1.12,3.2,3.02,5.79c0,0,0,0,0,0c0,0,0,0,0,0h0c0.87,1.19,1.95,2.37,3.26,3.35c1.83,1.36,4.1,2.31,6.88,2.31
					c1.22,0,2.53-0.18,3.95-0.6c0.25-0.07,0.5-0.14,0.76-0.23c0.06-0.02,0.11-0.04,0.17-0.06c0,0-0.05-0.06-0.14-0.17
					c-0.13-0.15-0.34-0.4-0.63-0.72c-0.72-0.8-1.91-2.04-3.32-3.21c-1.49-1.23-3.22-2.38-4.92-2.86c0.86,0.23,2.88,0.83,4.92,1.91
					C108.46,98.22,109.78,99.11,110.8,100.21z M101.81,95.52c0.02,0,0.04,0.01,0.06,0.01c0.06,0.01,0.14,0.04,0.26,0.07
					c0.03,0,0.06,0.01,0.09,0.02 M107.16,93.52c0.31,0.18,0.61,0.38,0.88,0.59l0,0c0.51,0.4,0.95,0.85,1.34,1.33
					c0.9,1.13,1.46,2.4,1.81,3.48c0.16,0.5,0.28,0.94,0.36,1.32v0c0.15,0.7,0.19,1.15,0.19,1.15c-0.11-0.17-0.22-0.34-0.35-0.5
					c-0.18-0.24-0.38-0.48-0.58-0.7c-1.03-1.1-2.34-1.99-3.65-2.67c-2.04-1.08-4.06-1.68-4.92-1.91c1.7,0.49,3.43,1.64,4.92,2.86
					c1.41,1.16,2.6,2.4,3.32,3.21c0.29,0.32,0.5,0.57,0.63,0.72c0.09,0.11,0.14,0.17,0.14,0.17c-0.06,0.02-0.11,0.04-0.17,0.06
					c-0.26,0.09-0.51,0.17-0.76,0.23c-1.42,0.42-2.73,0.6-3.95,0.6c-2.78,0-5.05-0.95-6.88-2.31c-1.31-0.98-2.39-2.16-3.26-3.35h0
					c0,0,0,0,0,0c0,0,0,0,0,0c-1.9-2.59-2.82-5.21-3.02-5.79v0c-0.02-0.07-0.04-0.11-0.04-0.11s0.78,0.11,2.86,0.25
					c0.68,0.05,1.5,0.09,2.47,0.14c1.3,0.07,2.88,0.13,4.79,0.19c0.42,0.01,0.82,0.05,1.21,0.12c0.65,0.1,1.23,0.27,1.77,0.49
					c0,0,0.01,0,0.01,0C106.58,93.21,106.88,93.36,107.16,93.52"/>
			</g>
			<g>
				<path class="st0" d="M119.05,92.73c-0.01,0.02-0.02,0.04-0.04,0.05c-0.01,0-0.02,0-0.03-0.01
					C119,92.76,119.02,92.75,119.05,92.73z"/>
				<path class="st0" d="M124.33,95.29c-0.22,0.07-0.43,0.16-0.64,0.26c0-0.01-0.01-0.02-0.02-0.03
					C123.94,95.43,124.16,95.35,124.33,95.29z"/>
				<path class="st0" d="M118.98,92.77c0.01,0,0.02,0.01,0.03,0.01c0.01-0.01,0.02-0.03,0.04-0.05
					C119.02,92.75,119,92.76,118.98,92.77z M123.68,95.52c0.01,0.01,0.01,0.02,0.02,0.03c0.21-0.1,0.42-0.18,0.64-0.26
					C124.16,95.35,123.94,95.43,123.68,95.52z M114.87,96.61c-1.13,2.53-1.21,4.95-1.21,5.05c-0.01,0.33,0.09,0.65,0.28,0.9
					c0.17-2.51,0.84-5.52,2.59-8.6C115.87,94.71,115.32,95.6,114.87,96.61z M124.35,95.29c0.04-0.01,0.08-0.03,0.12-0.04
					c0.04-0.01,0.07-0.02,0.11-0.03c0.01-0.01,0.03-0.01,0.04-0.01c0.03-0.01,0.05-0.02,0.08-0.02c0.01,0,0.02-0.01,0.03-0.01
					c0.02,0,0.03-0.01,0.03-0.01"/>
				<path class="st0" d="M133.24,90.98c0,0-1.51,6.35-6.15,10c-1.87,1.46-4.23,2.49-7.21,2.49c-1.29,0-2.68-0.19-4.2-0.62
					c0,0,3.89-5.45,8.01-7.3c0.21-0.1,0.42-0.18,0.64-0.26c-0.17,0.06-0.39,0.14-0.65,0.23c-1.95,0.72-6.04,2.49-8.11,5.46
					c-0.16,0.23-0.31,0.47-0.45,0.72c0,0,0.1-4.06,2.6-6.88c0.89-1.02,2.1-1.88,3.72-2.33c0.51-0.14,1.06-0.24,1.66-0.3
					C130.84,91.47,133.24,90.98,133.24,90.98z"/>
			</g>
			<g>
				<path class="st0" d="M111.25,102.59c-0.06,0.02-0.11,0.04-0.17,0.06c0.01-0.07,0.02-0.15,0.03-0.22
					C111.2,102.53,111.25,102.59,111.25,102.59z"/>
				<path class="st0" d="M111.74,101.41c-0.11-0.17-0.22-0.34-0.35-0.5c0.05-0.22,0.1-0.43,0.16-0.65
					C111.7,100.96,111.74,101.41,111.74,101.41z"/>
				<path class="st0" d="M113.37,95.98c-0.04,0.06-0.07,0.12-0.11,0.18C113.3,96.1,113.33,96.04,113.37,95.98L113.37,95.98z"/>
			</g>
		</g>
		<g>
			<path class="st0" d="M107.38,125.26c15.19,1.41,26.36-2.47,26.36-2.47l0.69-5.3c-7,0.86-14.11,1.29-21.14,1.29h-0.39
				c-6.9-0.01-13.88-0.44-20.75-1.29l0.91,7.05c1.27-0.77,2.52-1.48,3.42-2.22c2.21-1.79,3.16-2.66,3.16-2.66s0.47,0.23,0.65,1.47
				c0.19,1.24-2.25,3.72-4.04,5.6c-1.79,1.88-1.37,2.25-1.37,2.25c3.49,5.56,14.69,4.83,13.45,6.29c-1.24,1.47-9.41,0.46-9.41,0.46
				c2.71,2.3,10.19,2.3,8.04,3.12c-2.16,0.83-8.77-0.05-8.77-0.05c1.6,1.15,5.6,1.66,6.75,1.47c1.15-0.18,1.93,0.28,1.34,0.69
				c-3.53,1.59-7.46,1.59-10.95,1.01l0.18,1.41c0.18,1.41,1.34,2.53,2.81,2.73c1.59,0.21,3.18,0.34,4.76,0.55
				c3.41,0.47,6.85,0.71,10.29,0.71c2.41,0,4.82-0.12,7.21-0.35c0.62-0.06,1.24-0.13,1.86-0.21c1.93-0.23,3.85-0.47,5.77-0.7
				c1.49-0.18,2.67-1.3,2.85-2.73l1.32-10.15c-0.33,0.08-0.65,0.17-0.97,0.24c-9.47,2.24-16.85,0.64-20.65-0.65
				c-0.47-0.15-0.32-0.85,0.17-0.8c11.81,1.09,20.7-1.64,21.86-2.02v0l0.44-3.37c-11.98,3.17-21.35,1.15-26.07-0.44
				C106.61,126.03,106.79,125.21,107.38,125.26z"/>
		</g>
		<g>
			<path class="st0" d="M136.85,108.95v4.83c0,0.62-0.25,1.18-0.67,1.58c-0.22,0.22-0.5,0.39-0.8,0.5c-0.15,0.06-0.31,0.1-0.47,0.12
				c-0.09,0.01-0.19,0.02-0.28,0.03c-0.15,0.02-0.31,0.04-0.46,0.06c-6.32,0.77-13.31,1.27-20.87,1.27h-0.39
				c-7.6-0.02-14.61-0.54-20.95-1.32c-0.1-0.01-0.19-0.02-0.29-0.04c-0.16-0.02-0.32-0.06-0.47-0.11c-0.3-0.11-0.58-0.28-0.8-0.5
				c-0.42-0.4-0.67-0.97-0.67-1.59v-4.83c0-1.23,1-2.22,2.21-2.22c0.04,0,0.09,0,0.14,0c5.86,0.36,11.98,0.59,18.34,0.65
				c0.25,0,0.49,0,0.74,0c0.24,0,0.49,0,0.74,0c0.42,0,0.83,0,1.25,0h0.14c0.3,0,0.59,0,0.89,0c0.25,0,0.49,0,0.74,0
				c0.24,0,0.49,0,0.73,0c5-0.03,9.86-0.18,14.56-0.41c1.44-0.07,2.87-0.15,4.28-0.24c0.05,0,0.09,0,0.14,0
				C135.85,106.73,136.85,107.72,136.85,108.95z"/>
		</g>
		<path class="st0" d="M91.74,18.03c-1.06-0.6-2.33-0.72-3.49-0.34c-4.11,1.35-14.07,5.07-19.76,10.98
			c-0.62,0.64-1.05,1.45-1.27,2.31c-0.49,1.92-1.34,5.79-1.6,10.33C79.87,24.55,93.5,23.94,93.5,23.94
			C78.67,27.36,69.39,39.87,66.24,44.8c3.12-3.36,16.82-16.84,38.02-19.75L91.74,18.03z"/>
		<path class="st0" d="M99.47,50.55c0,0-0.04-0.25-0.65-0.73c-0.61-0.49-3.3,0.04-4.07-0.33c-0.55-0.26-1.39,0.01-1.85,0.19
			c-0.08,0.04-0.16-0.07-0.1-0.14c0.49-0.57,1.8-1.84,3.94-2.09C99.51,47.12,99.47,50.55,99.47,50.55z"/>
		<path class="st0" d="M100.68,46.19c-3.85-1.32-8.32-0.12-9.48,0.23c-0.04,0.01-0.06-0.05-0.02-0.07c6.48-3.9,9.13-0.79,9.54-0.22
			C100.74,46.17,100.71,46.21,100.68,46.19z"/>
		<path class="st0" d="M110.37,46.7c-0.02,0.28-0.07,0.52-0.13,0.71c0,0.01,0,0.01,0,0.02c0,0-3.03-0.88-3.89,0.91
			c-0.09,0.2-0.16,0.42-0.2,0.65c-0.07,0.43-0.06,0.9,0.01,1.4v0c0.22,1.59,0.97,3.43,1.03,4.82c0.02,0.51-0.24,0.95-0.65,1.32
			c0,0-0.01,0-0.01,0c-0.43,0.39-1.01,0.7-1.58,0.91c0,0,0,0,0,0c-1.09,0.4-2.14,0.45-1.96,0.03c0.36-0.85,2.67-1.56,2.72-2.41
			c0.04-0.85-1.47-4.91-0.72-7.45c0.76-2.54,5.32-1.7,5.32-1.7v0C110.37,46.13,110.39,46.39,110.37,46.7z"/>
		<path class="st0" d="M109.7,49.66L109.7,49.66c0,0.16,0,0.36-0.05,0.58c-0.06,0.32-0.17,0.57-0.27,0.73
			c-0.05-0.07-0.16-0.17-0.3-0.28c-0.16-0.13-0.34-0.23-0.4-0.14c-0.14,0.19-0.8,1.05-2.23,0c-0.06-0.02-0.16-0.07-0.28-0.16v0
			c-0.08-0.06-0.16-0.15-0.22-0.27c-0.18-0.35-0.1-0.8,0.21-1.13C106.16,48.99,108.49,48.53,109.7,49.66z"/>
		<path class="st0" d="M107.33,60.36c0,0-4.76,3.86-8.43,0.19c-0.8-0.81-1.56-1.98-2.19-3.63c0.13,0.29,1.01,2,3.57,2.98
			C101.89,60.52,104.16,60.85,107.33,60.36z"/>
		<path class="st0" d="M104.16,64.04c-0.19,0.87-0.96,1.52-1.83,1.49c-0.92-0.03-1.78-1.57-1.83-1.66c0.42,0.16,1.07,0.35,1.87,0.38
			C103.12,64.28,103.74,64.16,104.16,64.04z"/>
		<path class="st0" d="M106.48,49.97L106.48,49.97z"/>
	</g>
	<path class="st0" d="M63.11,43.44c0,0-6.71-5.15-14.04-1.72C49.07,41.72,58.43,50.77,63.11,43.44z"/>
	<path class="st0" d="M62.72,41.27c0,0-0.07-4.37-3.81-6.23C58.91,35.04,58.25,41.72,62.72,41.27z"/>
</g>
</svg>
