<?xml version="1.0" encoding="utf-8"?>
<!-- Generator: Adobe Illustrator 28.3.0, SVG Export Plug-In . SVG Version: 6.00 Build 0)  -->
<svg version="1.1" id="Layer_1" xmlns="http://www.w3.org/2000/svg" xmlns:xlink="http://www.w3.org/1999/xlink" x="0px" y="0px"
	 viewBox="0 0 32 32" style="enable-background:new 0 0 32 32;" xml:space="preserve">
<style type="text/css">
	.st0{fill:#2B623D;}
</style>
<g>
	<g>
		<path class="st0" d="M16.84,8.8c-0.1-0.05-0.25,0-0.33,0.03c-0.01,0.01-0.03-0.01-0.02-0.02c0.09-0.1,0.32-0.33,0.7-0.37
			c0.49-0.06,0.49,0.55,0.49,0.55s-0.01-0.04-0.12-0.13C17.46,8.77,16.98,8.86,16.84,8.8z"/>
		<path class="st0" d="M17.83,10.65c-0.08,0.04-0.16,0.08-0.24,0.11c0,0,0,0,0,0c-0.14-0.14-0.28-0.35-0.39-0.65
			C17.22,10.17,17.37,10.47,17.83,10.65z"/>
		<path class="st0" d="M17.9,8.2C17.91,8.21,17.9,8.21,17.9,8.2c-0.69-0.23-1.49-0.01-1.69,0.05c-0.01,0-0.01-0.01,0-0.01
			C17.36,7.55,17.83,8.1,17.9,8.2z"/>
		<path class="st0" d="M22.15,5.8c-0.6-1.3-3.62-1.19-6.74,0.24c-3.12,1.44-5.17,3.66-4.57,4.96c0.36,0.78,1.57,1.05,3.15,0.84
			c0.42-0.05,0.86-0.14,1.32-0.27c-0.3-0.35-0.5-0.82-0.51-1.44c0,0-0.93-0.35-0.72-1.07c0.2-0.69,1.55,0.13,2.73-1.95
			c0.1-0.18,0.27-0.3,0.45-0.38c0.42-0.18,1.19-0.33,2.12,0.4c0.08,0.07,0.14,0.17,0.14,0.27c0.01,0.16,0.03,0.43,0.07,0.69
			c0,0.02,0,0.04,0.01,0.06c0,0-0.81-0.15-0.95,0.3c-0.13,0.45,0.13,1.17,0.13,1.33c-0.01,0.15-0.42,0.28-0.48,0.43
			c-0.03,0.07,0.15,0.07,0.35-0.01c0,0,0,0,0,0c0.09-0.05,0.19-0.11,0.28-0.16c0,0,0,0,0,0c0.07-0.07,0.12-0.14,0.11-0.23
			c-0.01-0.25-0.14-0.57-0.18-0.86c0.02,0.02,0.04,0.02,0.05,0.03c0.25,0.19,0.37,0.03,0.4,0c0.01-0.02,0.04,0,0.07,0.02
			c0.02,0.02,0.04,0.04,0.05,0.05c-0.01,0.06-0.01,0.1,0,0.15c0.02,0.1,0.06,0.28,0.09,0.47c0.18-0.12,0.35-0.24,0.51-0.36
			C21.69,8.08,22.57,6.71,22.15,5.8z M19.5,8.83c-0.21-0.2-0.63-0.12-0.63-0.12c0.01-0.04,0.02-0.08,0.03-0.12
			c0.15-0.32,0.69-0.16,0.69-0.16C19.58,8.57,19.54,8.71,19.5,8.83z"/>
		<path class="st0" d="M17.07,16.38c-0.37-0.02-0.51-0.04-0.51-0.04s0,0.01,0.01,0.02v0c0.03,0.1,0.2,0.57,0.54,1.03c0,0,0,0,0,0
			c0,0,0,0,0,0h0l0.4-0.98C17.34,16.4,17.19,16.39,17.07,16.38z M19.05,17.51c-0.26-0.22-0.57-0.42-0.87-0.51
			c0.15,0.04,0.51,0.15,0.87,0.34V16.8c-0.18-0.09-0.33-0.21-0.48-0.34c-0.07-0.01-0.14-0.02-0.21-0.02
			c-0.34-0.01-0.62-0.02-0.85-0.03c-0.17-0.01-0.32-0.02-0.44-0.02c-0.37-0.02-0.51-0.04-0.51-0.04s0,0.01,0.01,0.02v0
			c0.03,0.1,0.2,0.57,0.54,1.03c0,0,0,0,0,0c0,0,0,0,0,0h0c0.15,0.21,0.35,0.42,0.58,0.6c0.33,0.24,0.73,0.41,1.22,0.41
			c0.22,0,0.45-0.03,0.7-0.11c0.01-0.07,0.02-0.14,0.03-0.21C19.51,17.94,19.3,17.72,19.05,17.51z M19.83,17.82L19.83,17.82
			c-0.01-0.07-0.04-0.15-0.06-0.24c-0.06-0.19-0.16-0.42-0.32-0.62c-0.07-0.09-0.15-0.17-0.24-0.24l0,0
			c-0.05-0.04-0.1-0.07-0.16-0.11c-0.05-0.03-0.1-0.05-0.16-0.08c0,0,0,0,0,0c-0.1-0.04-0.2-0.07-0.31-0.09
			c-0.07-0.01-0.14-0.02-0.21-0.02c-0.34-0.01-0.62-0.02-0.85-0.03c-0.17-0.01-0.32-0.02-0.44-0.02c-0.37-0.02-0.51-0.04-0.51-0.04
			s0,0.01,0.01,0.02v0c0.03,0.1,0.2,0.57,0.54,1.03c0,0,0,0,0,0c0,0,0,0,0,0h0c0.15,0.21,0.35,0.42,0.58,0.6
			c0.33,0.24,0.73,0.41,1.22,0.41c0.22,0,0.45-0.03,0.7-0.11c0.01-0.07,0.02-0.14,0.03-0.21c-0.13-0.14-0.34-0.36-0.59-0.57
			c-0.26-0.22-0.57-0.42-0.87-0.51c0.15,0.04,0.51,0.15,0.87,0.34c0.23,0.12,0.47,0.28,0.65,0.47c0.04,0.04,0.07,0.08,0.1,0.12
			c0.02,0.03,0.04,0.06,0.06,0.09C19.86,18.03,19.86,17.95,19.83,17.82z M19.7,17.81c0.04,0.04,0.07,0.08,0.1,0.12
			c0.02,0.03,0.04,0.06,0.06,0.09c0,0-0.01-0.08-0.03-0.2v0c-0.01-0.07-0.04-0.15-0.06-0.24c-0.06-0.19-0.16-0.42-0.32-0.62
			c-0.07-0.09-0.15-0.17-0.24-0.24l0,0c-0.05-0.04-0.1-0.07-0.16-0.11c-0.05-0.03-0.1-0.05-0.16-0.08c0,0,0,0,0,0
			c-0.1-0.04-0.2-0.07-0.31-0.09c-0.07-0.01-0.14-0.02-0.21-0.02c-0.34-0.01-0.62-0.02-0.85-0.03c-0.17-0.01-0.32-0.02-0.44-0.02
			c-0.37-0.02-0.51-0.04-0.51-0.04s0,0.01,0.01,0.02v0c0.03,0.1,0.2,0.57,0.54,1.03c0,0,0,0,0,0c0,0,0,0,0,0h0
			c0.15,0.21,0.35,0.42,0.58,0.6c0.33,0.24,0.73,0.41,1.22,0.41c0.22,0,0.45-0.03,0.7-0.11c0.04-0.01,0.09-0.03,0.14-0.04
			c0.01,0,0.02-0.01,0.03-0.01c0,0-0.01-0.01-0.02-0.03c-0.02-0.03-0.06-0.07-0.11-0.13c-0.13-0.14-0.34-0.36-0.59-0.57
			c-0.26-0.22-0.57-0.42-0.87-0.51c0.15,0.04,0.51,0.15,0.87,0.34C19.28,17.46,19.52,17.62,19.7,17.81z M19.7,17.81
			c0.04,0.04,0.07,0.08,0.1,0.12c0.02,0.03,0.04,0.06,0.06,0.09c0,0-0.01-0.08-0.03-0.2v0c-0.01-0.07-0.04-0.15-0.06-0.24
			c-0.06-0.19-0.16-0.42-0.32-0.62c-0.07-0.09-0.15-0.17-0.24-0.24l0,0c-0.05-0.04-0.1-0.07-0.16-0.11
			c-0.05-0.03-0.1-0.05-0.16-0.08c0,0,0,0,0,0c-0.1-0.04-0.2-0.07-0.31-0.09c-0.07-0.01-0.14-0.02-0.21-0.02
			c-0.34-0.01-0.62-0.02-0.85-0.03c-0.17-0.01-0.32-0.02-0.44-0.02c-0.37-0.02-0.51-0.04-0.51-0.04s0,0.01,0.01,0.02v0
			c0.03,0.1,0.2,0.57,0.54,1.03c0,0,0,0,0,0c0,0,0,0,0,0h0c0.15,0.21,0.35,0.42,0.58,0.6c0.33,0.24,0.73,0.41,1.22,0.41
			c0.22,0,0.45-0.03,0.7-0.11c0.04-0.01,0.09-0.03,0.14-0.04c0.01,0,0.02-0.01,0.03-0.01c0,0-0.01-0.01-0.02-0.03
			c-0.02-0.03-0.06-0.07-0.11-0.13c-0.13-0.14-0.34-0.36-0.59-0.57c-0.26-0.22-0.57-0.42-0.87-0.51c0.15,0.04,0.51,0.15,0.87,0.34
			C19.28,17.46,19.52,17.62,19.7,17.81z M19.7,17.81c0.04,0.04,0.07,0.08,0.1,0.12c0.02,0.03,0.04,0.06,0.06,0.09
			c0,0-0.01-0.08-0.03-0.2v0c-0.01-0.07-0.04-0.15-0.06-0.24c-0.06-0.19-0.16-0.42-0.32-0.62c-0.07-0.09-0.15-0.17-0.24-0.24l0,0
			c-0.05-0.04-0.1-0.07-0.16-0.11c-0.05-0.03-0.1-0.05-0.16-0.08c0,0,0,0,0,0c-0.1-0.04-0.2-0.07-0.31-0.09
			c-0.07-0.01-0.14-0.02-0.21-0.02c-0.34-0.01-0.62-0.02-0.85-0.03c-0.17-0.01-0.32-0.02-0.44-0.02c-0.37-0.02-0.51-0.04-0.51-0.04
			s0,0.01,0.01,0.02v0c0.03,0.1,0.2,0.57,0.54,1.03c0,0,0,0,0,0c0,0,0,0,0,0h0c0.15,0.21,0.35,0.42,0.58,0.6
			c0.33,0.24,0.73,0.41,1.22,0.41c0.22,0,0.45-0.03,0.7-0.11c0.04-0.01,0.09-0.03,0.14-0.04c0.01,0,0.02-0.01,0.03-0.01
			c0,0-0.01-0.01-0.02-0.03c-0.02-0.03-0.06-0.07-0.11-0.13c-0.13-0.14-0.34-0.36-0.59-0.57c-0.26-0.22-0.57-0.42-0.87-0.51
			c0.15,0.04,0.51,0.15,0.87,0.34C19.28,17.46,19.52,17.62,19.7,17.81z M19.7,17.81c0.04,0.04,0.07,0.08,0.1,0.12
			c0.02,0.03,0.04,0.06,0.06,0.09c0,0-0.01-0.08-0.03-0.2v0c-0.01-0.07-0.04-0.15-0.06-0.24c-0.06-0.19-0.16-0.42-0.32-0.62
			c-0.07-0.09-0.15-0.17-0.24-0.24l0,0c-0.05-0.04-0.1-0.07-0.16-0.11c-0.05-0.03-0.1-0.05-0.16-0.08c0,0,0,0,0,0
			c-0.1-0.04-0.2-0.07-0.31-0.09c-0.07-0.01-0.14-0.02-0.21-0.02c-0.34-0.01-0.62-0.02-0.85-0.03c-0.17-0.01-0.32-0.02-0.44-0.02
			c-0.37-0.02-0.51-0.04-0.51-0.04s0,0.01,0.01,0.02v0c0.03,0.1,0.2,0.57,0.54,1.03c0,0,0,0,0,0c0,0,0,0,0,0h0
			c0.15,0.21,0.35,0.42,0.58,0.6c0.33,0.24,0.73,0.41,1.22,0.41c0.22,0,0.45-0.03,0.7-0.11c0.04-0.01,0.09-0.03,0.14-0.04
			c0.01,0,0.02-0.01,0.03-0.01c0,0-0.01-0.01-0.02-0.03c-0.02-0.03-0.06-0.07-0.11-0.13c-0.13-0.14-0.34-0.36-0.59-0.57
			c-0.26-0.22-0.57-0.42-0.87-0.51c0.15,0.04,0.51,0.15,0.87,0.34C19.28,17.46,19.52,17.62,19.7,17.81z M19.7,17.81
			c0.04,0.04,0.07,0.08,0.1,0.12c0.02,0.03,0.04,0.06,0.06,0.09c0,0-0.01-0.08-0.03-0.2v0c-0.01-0.07-0.04-0.15-0.06-0.24
			c-0.06-0.19-0.16-0.42-0.32-0.62c-0.07-0.09-0.15-0.17-0.24-0.24l0,0c-0.05-0.04-0.1-0.07-0.16-0.11
			c-0.05-0.03-0.1-0.05-0.16-0.08c0,0,0,0,0,0c-0.1-0.04-0.2-0.07-0.31-0.09c-0.07-0.01-0.14-0.02-0.21-0.02
			c-0.34-0.01-0.62-0.02-0.85-0.03c-0.17-0.01-0.32-0.02-0.44-0.02c-0.37-0.02-0.51-0.04-0.51-0.04s0,0.01,0.01,0.02v0
			c0.03,0.1,0.2,0.57,0.54,1.03c0,0,0,0,0,0c0,0,0,0,0,0h0c0.15,0.21,0.35,0.42,0.58,0.6c0.33,0.24,0.73,0.41,1.22,0.41
			c0.22,0,0.45-0.03,0.7-0.11c0.04-0.01,0.09-0.03,0.14-0.04c0.01,0,0.02-0.01,0.03-0.01c0,0-0.01-0.01-0.02-0.03
			c-0.02-0.03-0.06-0.07-0.11-0.13c-0.13-0.14-0.34-0.36-0.59-0.57c-0.26-0.22-0.57-0.42-0.87-0.51c0.15,0.04,0.51,0.15,0.87,0.34
			C19.28,17.46,19.52,17.62,19.7,17.81z M19.7,17.81c0.04,0.04,0.07,0.08,0.1,0.12c0.02,0.03,0.04,0.06,0.06,0.09
			c0,0-0.01-0.08-0.03-0.2v0c-0.01-0.07-0.04-0.15-0.06-0.24c-0.06-0.19-0.16-0.42-0.32-0.62c-0.07-0.09-0.15-0.17-0.24-0.24l0,0
			c-0.05-0.04-0.1-0.07-0.16-0.11c-0.05-0.03-0.1-0.05-0.16-0.08c0,0,0,0,0,0c-0.1-0.04-0.2-0.07-0.31-0.09
			c-0.07-0.01-0.14-0.02-0.21-0.02c-0.34-0.01-0.62-0.02-0.85-0.03c-0.17-0.01-0.32-0.02-0.44-0.02c-0.37-0.02-0.51-0.04-0.51-0.04
			s0,0.01,0.01,0.02v0c0.03,0.1,0.2,0.57,0.54,1.03c0,0,0,0,0,0c0,0,0,0,0,0h0c0.15,0.21,0.35,0.42,0.58,0.6
			c0.33,0.24,0.73,0.41,1.22,0.41c0.22,0,0.45-0.03,0.7-0.11c0.04-0.01,0.09-0.03,0.14-0.04c0.01,0,0.02-0.01,0.03-0.01
			c0,0-0.01-0.01-0.02-0.03c-0.02-0.03-0.06-0.07-0.11-0.13c-0.13-0.14-0.34-0.36-0.59-0.57c-0.26-0.22-0.57-0.42-0.87-0.51
			c0.15,0.04,0.51,0.15,0.87,0.34C19.28,17.46,19.52,17.62,19.7,17.81z M19.7,17.81c0.04,0.04,0.07,0.08,0.1,0.12
			c0.02,0.03,0.04,0.06,0.06,0.09c0,0-0.01-0.08-0.03-0.2v0c-0.01-0.07-0.04-0.15-0.06-0.24c-0.06-0.19-0.16-0.42-0.32-0.62
			c-0.07-0.09-0.15-0.17-0.24-0.24l0,0c-0.05-0.04-0.1-0.07-0.16-0.11c-0.05-0.03-0.1-0.05-0.16-0.08c0,0,0,0,0,0
			c-0.1-0.04-0.2-0.07-0.31-0.09c-0.07-0.01-0.14-0.02-0.21-0.02c-0.34-0.01-0.62-0.02-0.85-0.03c-0.17-0.01-0.32-0.02-0.44-0.02
			c-0.37-0.02-0.51-0.04-0.51-0.04s0,0.01,0.01,0.02v0c0.03,0.1,0.2,0.57,0.54,1.03c0,0,0,0,0,0c0,0,0,0,0,0h0
			c0.15,0.21,0.35,0.42,0.58,0.6c0.33,0.24,0.73,0.41,1.22,0.41c0.22,0,0.45-0.03,0.7-0.11c0.04-0.01,0.09-0.03,0.14-0.04
			c0.01,0,0.02-0.01,0.03-0.01c0,0-0.01-0.01-0.02-0.03c-0.02-0.03-0.06-0.07-0.11-0.13c-0.13-0.14-0.34-0.36-0.59-0.57
			c-0.26-0.22-0.57-0.42-0.87-0.51c0.15,0.04,0.51,0.15,0.87,0.34C19.28,17.46,19.52,17.62,19.7,17.81z M19.7,17.81
			c0.04,0.04,0.07,0.08,0.1,0.12c0.02,0.03,0.04,0.06,0.06,0.09c0,0-0.01-0.08-0.03-0.2v0c-0.01-0.07-0.04-0.15-0.06-0.24
			c-0.06-0.19-0.16-0.42-0.32-0.62c-0.07-0.09-0.15-0.17-0.24-0.24l0,0c-0.05-0.04-0.1-0.07-0.16-0.11
			c-0.05-0.03-0.1-0.05-0.16-0.08c0,0,0,0,0,0c-0.1-0.04-0.2-0.07-0.31-0.09c-0.07-0.01-0.14-0.02-0.21-0.02
			c-0.34-0.01-0.62-0.02-0.85-0.03c-0.17-0.01-0.32-0.02-0.44-0.02c-0.37-0.02-0.51-0.04-0.51-0.04s0,0.01,0.01,0.02v0
			c0.03,0.1,0.2,0.57,0.54,1.03c0,0,0,0,0,0c0,0,0,0,0,0h0c0.15,0.21,0.35,0.42,0.58,0.6c0.33,0.24,0.73,0.41,1.22,0.41
			c0.22,0,0.45-0.03,0.7-0.11c0.04-0.01,0.09-0.03,0.14-0.04c0.01,0,0.02-0.01,0.03-0.01c0,0-0.01-0.01-0.02-0.03
			c-0.02-0.03-0.06-0.07-0.11-0.13c-0.13-0.14-0.34-0.36-0.59-0.57c-0.26-0.22-0.57-0.42-0.87-0.51c0.15,0.04,0.51,0.15,0.87,0.34
			C19.28,17.46,19.52,17.62,19.7,17.81z M19.7,17.81c0.04,0.04,0.07,0.08,0.1,0.12c0.02,0.03,0.04,0.06,0.06,0.09
			c0,0-0.01-0.08-0.03-0.2v0c-0.01-0.07-0.04-0.15-0.06-0.24c-0.06-0.19-0.16-0.42-0.32-0.62c-0.07-0.09-0.15-0.17-0.24-0.24l0,0
			c-0.05-0.04-0.1-0.07-0.16-0.11c-0.05-0.03-0.1-0.05-0.16-0.08c0,0,0,0,0,0c-0.1-0.04-0.2-0.07-0.31-0.09
			c-0.07-0.01-0.14-0.02-0.21-0.02c-0.34-0.01-0.62-0.02-0.85-0.03c-0.17-0.01-0.32-0.02-0.44-0.02c-0.37-0.02-0.51-0.04-0.51-0.04
			s0,0.01,0.01,0.02v0c0.03,0.1,0.2,0.57,0.54,1.03c0,0,0,0,0,0c0,0,0,0,0,0h0c0.15,0.21,0.35,0.42,0.58,0.6
			c0.33,0.24,0.73,0.41,1.22,0.41c0.22,0,0.45-0.03,0.7-0.11c0.04-0.01,0.09-0.03,0.14-0.04c0.01,0,0.02-0.01,0.03-0.01
			c0,0-0.01-0.01-0.02-0.03c-0.02-0.03-0.06-0.07-0.11-0.13c-0.13-0.14-0.34-0.36-0.59-0.57c-0.26-0.22-0.57-0.42-0.87-0.51
			c0.15,0.04,0.51,0.15,0.87,0.34C19.28,17.46,19.52,17.62,19.7,17.81z M19.7,17.81c0.04,0.04,0.07,0.08,0.1,0.12
			c0.02,0.03,0.04,0.06,0.06,0.09c0,0-0.01-0.08-0.03-0.2v0c-0.01-0.07-0.04-0.15-0.06-0.24c-0.06-0.19-0.16-0.42-0.32-0.62
			c-0.07-0.09-0.15-0.17-0.24-0.24l0,0c-0.05-0.04-0.1-0.07-0.16-0.11c-0.05-0.03-0.1-0.05-0.16-0.08c0,0,0,0,0,0
			c-0.1-0.04-0.2-0.07-0.31-0.09c-0.07-0.01-0.14-0.02-0.21-0.02c-0.34-0.01-0.62-0.02-0.85-0.03c-0.17-0.01-0.32-0.02-0.44-0.02
			c-0.37-0.02-0.51-0.04-0.51-0.04s0,0.01,0.01,0.02v0c0.03,0.1,0.2,0.57,0.54,1.03c0,0,0,0,0,0c0,0,0,0,0,0h0
			c0.15,0.21,0.35,0.42,0.58,0.6c0.33,0.24,0.73,0.41,1.22,0.41c0.22,0,0.45-0.03,0.7-0.11c0.04-0.01,0.09-0.03,0.14-0.04
			c0.01,0,0.02-0.01,0.03-0.01c0,0-0.01-0.01-0.02-0.03c-0.02-0.03-0.06-0.07-0.11-0.13c-0.13-0.14-0.34-0.36-0.59-0.57
			c-0.26-0.22-0.57-0.42-0.87-0.51c0.15,0.04,0.51,0.15,0.87,0.34C19.28,17.46,19.52,17.62,19.7,17.81z M19.7,17.81
			c0.04,0.04,0.07,0.08,0.1,0.12c0.02,0.03,0.04,0.06,0.06,0.09c0,0-0.01-0.08-0.03-0.2v0c-0.01-0.07-0.04-0.15-0.06-0.24
			c-0.06-0.19-0.16-0.42-0.32-0.62c-0.07-0.09-0.15-0.17-0.24-0.24l0,0c-0.05-0.04-0.1-0.07-0.16-0.11
			c-0.05-0.03-0.1-0.05-0.16-0.08c0,0,0,0,0,0c-0.1-0.04-0.2-0.07-0.31-0.09c-0.07-0.01-0.14-0.02-0.21-0.02
			c-0.34-0.01-0.62-0.02-0.85-0.03c-0.17-0.01-0.32-0.02-0.44-0.02c-0.37-0.02-0.51-0.04-0.51-0.04s0,0.01,0.01,0.02v0
			c0.03,0.1,0.2,0.57,0.54,1.03c0,0,0,0,0,0c0,0,0,0,0,0h0c0.15,0.21,0.35,0.42,0.58,0.6c0.33,0.24,0.73,0.41,1.22,0.41
			c0.22,0,0.45-0.03,0.7-0.11c0.04-0.01,0.09-0.03,0.14-0.04c0.01,0,0.02-0.01,0.03-0.01c0,0-0.01-0.01-0.02-0.03
			c-0.02-0.03-0.06-0.07-0.11-0.13c-0.13-0.14-0.34-0.36-0.59-0.57c-0.26-0.22-0.57-0.42-0.87-0.51c0.15,0.04,0.51,0.15,0.87,0.34
			C19.28,17.46,19.52,17.62,19.7,17.81z M19.7,17.81c0.04,0.04,0.07,0.08,0.1,0.12c0.02,0.03,0.04,0.06,0.06,0.09
			c0,0-0.01-0.08-0.03-0.2v0c-0.01-0.07-0.04-0.15-0.06-0.24c-0.06-0.19-0.16-0.42-0.32-0.62c-0.07-0.09-0.15-0.17-0.24-0.24l0,0
			c-0.05-0.04-0.1-0.07-0.16-0.11c-0.05-0.03-0.1-0.05-0.16-0.08c0,0,0,0,0,0c-0.1-0.04-0.2-0.07-0.31-0.09
			c-0.07-0.01-0.14-0.02-0.21-0.02c-0.34-0.01-0.62-0.02-0.85-0.03c-0.17-0.01-0.32-0.02-0.44-0.02c-0.37-0.02-0.51-0.04-0.51-0.04
			s0,0.01,0.01,0.02v0c0.03,0.1,0.2,0.57,0.54,1.03c0,0,0,0,0,0c0,0,0,0,0,0h0c0.15,0.21,0.35,0.42,0.58,0.6
			c0.33,0.24,0.73,0.41,1.22,0.41c0.22,0,0.45-0.03,0.7-0.11c0.04-0.01,0.09-0.03,0.14-0.04c0.01,0,0.02-0.01,0.03-0.01
			c0,0-0.01-0.01-0.02-0.03c-0.02-0.03-0.06-0.07-0.11-0.13c-0.13-0.14-0.34-0.36-0.59-0.57c-0.26-0.22-0.57-0.42-0.87-0.51
			c0.15,0.04,0.51,0.15,0.87,0.34C19.28,17.46,19.52,17.62,19.7,17.81z M19.05,16.48c-0.03-0.02-0.06-0.03-0.1-0.05
			c0.03,0.02,0.06,0.04,0.1,0.07c0.07,0.04,0.14,0.08,0.22,0.12C19.2,16.57,19.13,16.52,19.05,16.48z M19.7,17.81
			c0.04,0.04,0.07,0.08,0.1,0.12c0.02,0.03,0.04,0.06,0.06,0.09c0,0-0.01-0.08-0.03-0.2v0c-0.01-0.07-0.04-0.15-0.06-0.24
			c-0.06-0.19-0.16-0.42-0.32-0.62c-0.07-0.09-0.15-0.17-0.24-0.24l0,0c-0.05-0.04-0.1-0.07-0.16-0.11
			c-0.05-0.03-0.1-0.05-0.16-0.08c0,0,0,0,0,0c-0.1-0.04-0.2-0.07-0.31-0.09c-0.07-0.01-0.14-0.02-0.21-0.02
			c-0.34-0.01-0.62-0.02-0.85-0.03c-0.17-0.01-0.32-0.02-0.44-0.02c-0.37-0.02-0.51-0.04-0.51-0.04s0,0.01,0.01,0.02v0
			c0.03,0.1,0.2,0.57,0.54,1.03c0,0,0,0,0,0c0,0,0,0,0,0h0c0.15,0.21,0.35,0.42,0.58,0.6c0.33,0.24,0.73,0.41,1.22,0.41
			c0.22,0,0.45-0.03,0.7-0.11c0.04-0.01,0.09-0.03,0.14-0.04c0.01,0,0.02-0.01,0.03-0.01c0,0-0.01-0.01-0.02-0.03
			c-0.02-0.03-0.06-0.07-0.11-0.13c-0.13-0.14-0.34-0.36-0.59-0.57c-0.26-0.22-0.57-0.42-0.87-0.51c0.15,0.04,0.51,0.15,0.87,0.34
			C19.28,17.46,19.52,17.62,19.7,17.81z M19.05,16.48c-0.03-0.02-0.06-0.03-0.1-0.05c0.03,0.02,0.06,0.04,0.1,0.07
			c0.07,0.04,0.14,0.08,0.22,0.12C19.2,16.57,19.13,16.52,19.05,16.48z M19.7,17.81c0.04,0.04,0.07,0.08,0.1,0.12
			c0.02,0.03,0.04,0.06,0.06,0.09c0,0-0.01-0.08-0.03-0.2v0c-0.01-0.07-0.04-0.15-0.06-0.24c-0.06-0.19-0.16-0.42-0.32-0.62
			c-0.07-0.09-0.15-0.17-0.24-0.24l0,0c-0.05-0.04-0.1-0.07-0.16-0.11c-0.05-0.03-0.1-0.05-0.16-0.08c0,0,0,0,0,0
			c-0.1-0.04-0.2-0.07-0.31-0.09c-0.07-0.01-0.14-0.02-0.21-0.02c-0.34-0.01-0.62-0.02-0.85-0.03c-0.17-0.01-0.32-0.02-0.44-0.02
			c-0.37-0.02-0.51-0.04-0.51-0.04s0,0.01,0.01,0.02v0c0.03,0.1,0.2,0.57,0.54,1.03c0,0,0,0,0,0c0,0,0,0,0,0h0
			c0.15,0.21,0.35,0.42,0.58,0.6c0.33,0.24,0.73,0.41,1.22,0.41c0.22,0,0.45-0.03,0.7-0.11c0.04-0.01,0.09-0.03,0.14-0.04
			c0.01,0,0.02-0.01,0.03-0.01c0,0-0.01-0.01-0.02-0.03c-0.02-0.03-0.06-0.07-0.11-0.13c-0.13-0.14-0.34-0.36-0.59-0.57
			c-0.26-0.22-0.57-0.42-0.87-0.51c0.15,0.04,0.51,0.15,0.87,0.34C19.28,17.46,19.52,17.62,19.7,17.81z M19.05,16.48
			c-0.03-0.02-0.06-0.03-0.1-0.05c0.03,0.02,0.06,0.04,0.1,0.07c0.07,0.04,0.14,0.08,0.22,0.12C19.2,16.57,19.13,16.52,19.05,16.48z
			 M19.7,17.81c0.04,0.04,0.07,0.08,0.1,0.12c0.02,0.03,0.04,0.06,0.06,0.09c0,0-0.01-0.08-0.03-0.2v0
			c-0.01-0.07-0.04-0.15-0.06-0.24c-0.06-0.19-0.16-0.42-0.32-0.62c-0.07-0.09-0.15-0.17-0.24-0.24l0,0
			c-0.05-0.04-0.1-0.07-0.16-0.11c-0.05-0.03-0.1-0.05-0.16-0.08c0,0,0,0,0,0c-0.1-0.04-0.2-0.07-0.31-0.09
			c-0.07-0.01-0.14-0.02-0.21-0.02c-0.34-0.01-0.62-0.02-0.85-0.03c-0.17-0.01-0.32-0.02-0.44-0.02c-0.37-0.02-0.51-0.04-0.51-0.04
			s0,0.01,0.01,0.02v0c0.03,0.1,0.2,0.57,0.54,1.03c0,0,0,0,0,0c0,0,0,0,0,0h0c0.15,0.21,0.35,0.42,0.58,0.6
			c0.33,0.24,0.73,0.41,1.22,0.41c0.22,0,0.45-0.03,0.7-0.11c0.04-0.01,0.09-0.03,0.14-0.04c0.01,0,0.02-0.01,0.03-0.01
			c0,0-0.01-0.01-0.02-0.03c-0.02-0.03-0.06-0.07-0.11-0.13c-0.13-0.14-0.34-0.36-0.59-0.57c-0.26-0.22-0.57-0.42-0.87-0.51
			c0.15,0.04,0.51,0.15,0.87,0.34C19.28,17.46,19.52,17.62,19.7,17.81z M19.05,16.48c-0.03-0.02-0.06-0.03-0.1-0.05
			c0.03,0.02,0.06,0.04,0.1,0.07c0.07,0.04,0.14,0.08,0.22,0.12C19.2,16.57,19.13,16.52,19.05,16.48z M19.7,17.81
			c0.04,0.04,0.07,0.08,0.1,0.12c0.02,0.03,0.04,0.06,0.06,0.09c0,0-0.01-0.08-0.03-0.2v0c-0.01-0.07-0.04-0.15-0.06-0.24
			c-0.06-0.19-0.16-0.42-0.32-0.62c-0.07-0.09-0.15-0.17-0.24-0.24l0,0c-0.05-0.04-0.1-0.07-0.16-0.11
			c-0.05-0.03-0.1-0.05-0.16-0.08c0,0,0,0,0,0c-0.1-0.04-0.2-0.07-0.31-0.09c-0.07-0.01-0.14-0.02-0.21-0.02
			c-0.34-0.01-0.62-0.02-0.85-0.03c-0.17-0.01-0.32-0.02-0.44-0.02c-0.37-0.02-0.51-0.04-0.51-0.04s0,0.01,0.01,0.02v0
			c0.03,0.1,0.2,0.57,0.54,1.03c0,0,0,0,0,0c0,0,0,0,0,0h0c0.15,0.21,0.35,0.42,0.58,0.6c0.33,0.24,0.73,0.41,1.22,0.41
			c0.22,0,0.45-0.03,0.7-0.11c0.04-0.01,0.09-0.03,0.14-0.04c0.01,0,0.02-0.01,0.03-0.01c0,0-0.01-0.01-0.02-0.03
			c-0.02-0.03-0.06-0.07-0.11-0.13c-0.13-0.14-0.34-0.36-0.59-0.57c-0.26-0.22-0.57-0.42-0.87-0.51c0.15,0.04,0.51,0.15,0.87,0.34
			C19.28,17.46,19.52,17.62,19.7,17.81z M19.05,16.48c-0.03-0.02-0.06-0.03-0.1-0.05c0.03,0.02,0.06,0.04,0.1,0.07
			c0.07,0.04,0.14,0.08,0.22,0.12C19.2,16.57,19.13,16.52,19.05,16.48z M19.7,17.81c0.04,0.04,0.07,0.08,0.1,0.12
			c0.02,0.03,0.04,0.06,0.06,0.09c0,0-0.01-0.08-0.03-0.2v0c-0.01-0.07-0.04-0.15-0.06-0.24c-0.06-0.19-0.16-0.42-0.32-0.62
			c-0.07-0.09-0.15-0.17-0.24-0.24l0,0c-0.05-0.04-0.1-0.07-0.16-0.11c-0.05-0.03-0.1-0.05-0.16-0.08c0,0,0,0,0,0
			c-0.1-0.04-0.2-0.07-0.31-0.09c-0.07-0.01-0.14-0.02-0.21-0.02c-0.34-0.01-0.62-0.02-0.85-0.03c-0.17-0.01-0.32-0.02-0.44-0.02
			c-0.37-0.02-0.51-0.04-0.51-0.04s0,0.01,0.01,0.02v0c0.03,0.1,0.2,0.57,0.54,1.03c0,0,0,0,0,0c0,0,0,0,0,0h0
			c0.15,0.21,0.35,0.42,0.58,0.6c0.33,0.24,0.73,0.41,1.22,0.41c0.22,0,0.45-0.03,0.7-0.11c0.04-0.01,0.09-0.03,0.14-0.04
			c0.01,0,0.02-0.01,0.03-0.01c0,0-0.01-0.01-0.02-0.03c-0.02-0.03-0.06-0.07-0.11-0.13c-0.13-0.14-0.34-0.36-0.59-0.57
			c-0.26-0.22-0.57-0.42-0.87-0.51c0.15,0.04,0.51,0.15,0.87,0.34C19.28,17.46,19.52,17.62,19.7,17.81z M19.05,16.48
			c-0.03-0.02-0.06-0.03-0.1-0.05c0.03,0.02,0.06,0.04,0.1,0.07c0.07,0.04,0.14,0.08,0.22,0.12C19.2,16.57,19.13,16.52,19.05,16.48z
			 M17.2,8.44c-0.38,0.04-0.61,0.27-0.7,0.37c-0.01,0.01,0,0.03,0.02,0.02c0.08-0.03,0.23-0.08,0.33-0.03
			c0.14,0.06,0.62-0.03,0.72,0.06c0.11,0.09,0.12,0.13,0.12,0.13S17.69,8.38,17.2,8.44z M17.83,10.65
			c-0.46-0.17-0.61-0.48-0.64-0.53c0.11,0.29,0.25,0.5,0.39,0.65c0.65,0.65,1.5-0.03,1.5-0.03C18.52,10.82,18.11,10.76,17.83,10.65z
			 M17.9,8.2c-0.07-0.1-0.54-0.65-1.7,0.04c-0.01,0,0,0.01,0,0.01C16.42,8.19,17.21,7.98,17.9,8.2C17.9,8.21,17.91,8.21,17.9,8.2z
			 M18.2,11.42c-0.14-0.01-0.26-0.04-0.33-0.07c0.01,0.02,0.16,0.29,0.33,0.3c0.15,0.01,0.29-0.11,0.33-0.27
			C18.44,11.41,18.33,11.43,18.2,11.42z M17.83,10.65c-0.46-0.17-0.61-0.48-0.64-0.53c0.11,0.29,0.25,0.5,0.39,0.65
			c0.65,0.65,1.5-0.03,1.5-0.03C18.52,10.82,18.11,10.76,17.83,10.65z M18.2,11.42c-0.14-0.01-0.26-0.04-0.33-0.07
			c0.01,0.02,0.16,0.29,0.33,0.3c0.15,0.01,0.29-0.11,0.33-0.27C18.44,11.41,18.33,11.43,18.2,11.42z M17.9,8.2
			c-0.07-0.1-0.54-0.65-1.7,0.04c-0.01,0,0,0.01,0,0.01C16.42,8.19,17.21,7.98,17.9,8.2C17.9,8.21,17.91,8.21,17.9,8.2z M17.2,8.44
			c-0.38,0.04-0.61,0.27-0.7,0.37c-0.01,0.01,0,0.03,0.02,0.02c0.08-0.03,0.23-0.08,0.33-0.03c0.14,0.06,0.62-0.03,0.72,0.06
			c0.11,0.09,0.12,0.13,0.12,0.13S17.69,8.38,17.2,8.44z M17.2,8.44c-0.38,0.04-0.61,0.27-0.7,0.37c-0.01,0.01,0,0.03,0.02,0.02
			c0.08-0.03,0.23-0.08,0.33-0.03c0.14,0.06,0.62-0.03,0.72,0.06c0.11,0.09,0.12,0.13,0.12,0.13S17.69,8.38,17.2,8.44z M17.83,10.65
			c-0.46-0.17-0.61-0.48-0.64-0.53c0.11,0.29,0.25,0.5,0.39,0.65c0.65,0.65,1.5-0.03,1.5-0.03C18.52,10.82,18.11,10.76,17.83,10.65z
			 M17.9,8.2c-0.07-0.1-0.54-0.65-1.7,0.04c-0.01,0,0,0.01,0,0.01C16.42,8.19,17.21,7.98,17.9,8.2C17.9,8.21,17.91,8.21,17.9,8.2z
			 M18.2,11.42c-0.14-0.01-0.26-0.04-0.33-0.07c0.01,0.02,0.16,0.29,0.33,0.3c0.15,0.01,0.29-0.11,0.33-0.27
			C18.44,11.41,18.33,11.43,18.2,11.42z M17.83,10.65c-0.46-0.17-0.61-0.48-0.64-0.53c0.11,0.29,0.25,0.5,0.39,0.65
			c0.65,0.65,1.5-0.03,1.5-0.03C18.52,10.82,18.11,10.76,17.83,10.65z M18.2,11.42c-0.14-0.01-0.26-0.04-0.33-0.07
			c0.01,0.02,0.16,0.29,0.33,0.3c0.15,0.01,0.29-0.11,0.33-0.27C18.44,11.41,18.33,11.43,18.2,11.42z M17.9,8.2
			c-0.07-0.1-0.54-0.65-1.7,0.04c-0.01,0,0,0.01,0,0.01C16.42,8.19,17.21,7.98,17.9,8.2C17.9,8.21,17.91,8.21,17.9,8.2z M17.2,8.44
			c-0.38,0.04-0.61,0.27-0.7,0.37c-0.01,0.01,0,0.03,0.02,0.02c0.08-0.03,0.23-0.08,0.33-0.03c0.14,0.06,0.62-0.03,0.72,0.06
			c0.11,0.09,0.12,0.13,0.12,0.13S17.69,8.38,17.2,8.44z M17.2,8.44c-0.38,0.04-0.61,0.27-0.7,0.37c-0.01,0.01,0,0.03,0.02,0.02
			c0.08-0.03,0.23-0.08,0.33-0.03c0.14,0.06,0.62-0.03,0.72,0.06c0.11,0.09,0.12,0.13,0.12,0.13S17.69,8.38,17.2,8.44z M17.9,8.2
			c-0.07-0.1-0.54-0.65-1.7,0.04c-0.01,0,0,0.01,0,0.01C16.42,8.19,17.21,7.98,17.9,8.2C17.9,8.21,17.91,8.21,17.9,8.2z M18.2,11.42
			c-0.14-0.01-0.26-0.04-0.33-0.07c0.01,0.02,0.16,0.29,0.33,0.3c0.15,0.01,0.29-0.11,0.33-0.27C18.44,11.41,18.33,11.43,18.2,11.42
			z M17.83,10.65c-0.46-0.17-0.61-0.48-0.64-0.53c0.11,0.29,0.25,0.5,0.39,0.65c0.65,0.65,1.5-0.03,1.5-0.03
			C18.52,10.82,18.11,10.76,17.83,10.65z M17.83,10.65c-0.46-0.17-0.61-0.48-0.64-0.53c0.11,0.29,0.25,0.5,0.39,0.65
			c0.65,0.65,1.5-0.03,1.5-0.03C18.52,10.82,18.11,10.76,17.83,10.65z M18.2,11.42c-0.14-0.01-0.26-0.04-0.33-0.07
			c0.01,0.02,0.16,0.29,0.33,0.3c0.15,0.01,0.29-0.11,0.33-0.27C18.44,11.41,18.33,11.43,18.2,11.42z M17.9,8.2
			c-0.07-0.1-0.54-0.65-1.7,0.04c-0.01,0,0,0.01,0,0.01C16.42,8.19,17.21,7.98,17.9,8.2C17.9,8.21,17.91,8.21,17.9,8.2z M17.2,8.44
			c-0.38,0.04-0.61,0.27-0.7,0.37c-0.01,0.01,0,0.03,0.02,0.02c0.08-0.03,0.23-0.08,0.33-0.03c0.14,0.06,0.62-0.03,0.72,0.06
			c0.11,0.09,0.12,0.13,0.12,0.13S17.69,8.38,17.2,8.44z M17.2,8.44c-0.38,0.04-0.61,0.27-0.7,0.37c-0.01,0.01,0,0.03,0.02,0.02
			c0.08-0.03,0.23-0.08,0.33-0.03c0.14,0.06,0.62-0.03,0.72,0.06c0.11,0.09,0.12,0.13,0.12,0.13S17.69,8.38,17.2,8.44z M17.9,8.2
			c-0.07-0.1-0.54-0.65-1.7,0.04c-0.01,0,0,0.01,0,0.01C16.42,8.19,17.21,7.98,17.9,8.2C17.9,8.21,17.91,8.21,17.9,8.2z M18.2,11.42
			c-0.14-0.01-0.26-0.04-0.33-0.07c0.01,0.02,0.16,0.29,0.33,0.3c0.15,0.01,0.29-0.11,0.33-0.27C18.44,11.41,18.33,11.43,18.2,11.42
			z M17.83,10.65c-0.46-0.17-0.61-0.48-0.64-0.53c0.11,0.29,0.25,0.5,0.39,0.65c0.65,0.65,1.5-0.03,1.5-0.03
			C18.52,10.82,18.11,10.76,17.83,10.65z M17.83,10.65c-0.46-0.17-0.61-0.48-0.64-0.53c0.11,0.29,0.25,0.5,0.39,0.65
			c0.65,0.65,1.5-0.03,1.5-0.03C18.52,10.82,18.11,10.76,17.83,10.65z M18.2,11.42c-0.14-0.01-0.26-0.04-0.33-0.07
			c0.01,0.02,0.16,0.29,0.33,0.3c0.15,0.01,0.29-0.11,0.33-0.27C18.44,11.41,18.33,11.43,18.2,11.42z M17.9,8.2
			c-0.07-0.1-0.54-0.65-1.7,0.04c-0.01,0,0,0.01,0,0.01C16.42,8.19,17.21,7.98,17.9,8.2C17.9,8.21,17.91,8.21,17.9,8.2z M17.2,8.44
			c-0.38,0.04-0.61,0.27-0.7,0.37c-0.01,0.01,0,0.03,0.02,0.02c0.08-0.03,0.23-0.08,0.33-0.03c0.14,0.06,0.62-0.03,0.72,0.06
			c0.11,0.09,0.12,0.13,0.12,0.13S17.69,8.38,17.2,8.44z M17.2,8.44c-0.38,0.04-0.61,0.27-0.7,0.37c-0.01,0.01,0,0.03,0.02,0.02
			c0.08-0.03,0.23-0.08,0.33-0.03c0.14,0.06,0.62-0.03,0.72,0.06c0.11,0.09,0.12,0.13,0.12,0.13S17.69,8.38,17.2,8.44z M17.9,8.2
			c-0.07-0.1-0.54-0.65-1.7,0.04c-0.01,0,0,0.01,0,0.01C16.42,8.19,17.21,7.98,17.9,8.2C17.9,8.21,17.91,8.21,17.9,8.2z M18.2,11.42
			c-0.14-0.01-0.26-0.04-0.33-0.07c0.01,0.02,0.16,0.29,0.33,0.3c0.15,0.01,0.29-0.11,0.33-0.27C18.44,11.41,18.33,11.43,18.2,11.42
			z M17.83,10.65c-0.46-0.17-0.61-0.48-0.64-0.53c0.11,0.29,0.25,0.5,0.39,0.65c0.65,0.65,1.5-0.03,1.5-0.03
			C18.52,10.82,18.11,10.76,17.83,10.65z M17.83,10.65c-0.46-0.17-0.61-0.48-0.64-0.53c0.11,0.29,0.25,0.5,0.39,0.65
			c0.65,0.65,1.5-0.03,1.5-0.03C18.52,10.82,18.11,10.76,17.83,10.65z M18.2,11.42c-0.14-0.01-0.26-0.04-0.33-0.07
			c0.01,0.02,0.16,0.29,0.33,0.3c0.15,0.01,0.29-0.11,0.33-0.27C18.44,11.41,18.33,11.43,18.2,11.42z M17.9,8.2
			c-0.07-0.1-0.54-0.65-1.7,0.04c-0.01,0,0,0.01,0,0.01C16.42,8.19,17.21,7.98,17.9,8.2C17.9,8.21,17.91,8.21,17.9,8.2z M17.2,8.44
			c-0.38,0.04-0.61,0.27-0.7,0.37c-0.01,0.01,0,0.03,0.02,0.02c0.08-0.03,0.23-0.08,0.33-0.03c0.14,0.06,0.62-0.03,0.72,0.06
			c0.11,0.09,0.12,0.13,0.12,0.13S17.69,8.38,17.2,8.44z M19.09,22.27c2.7,0.25,4.69-0.44,4.69-0.44l0.12-0.94
			c-1.24,0.15-2.51,0.23-3.76,0.23h-0.07c-1.23,0-2.47-0.08-3.69-0.23l0.16,1.25c0.23-0.14,0.45-0.26,0.61-0.39
			c0.39-0.32,0.56-0.47,0.56-0.47s0.08,0.04,0.12,0.26c0.03,0.22-0.4,0.66-0.72,1c-0.32,0.34-0.24,0.4-0.24,0.4
			c0.62,0.99,2.61,0.86,2.39,1.12c-0.22,0.26-1.67,0.08-1.67,0.08c0.48,0.41,1.81,0.41,1.43,0.56c-0.38,0.15-1.56-0.01-1.56-0.01
			c0.29,0.2,1,0.29,1.2,0.26c0.2-0.03,0.34,0.05,0.24,0.12c-0.63,0.28-1.33,0.28-1.95,0.18l0.03,0.25c0.03,0.25,0.24,0.45,0.5,0.48
			c0.28,0.04,0.57,0.06,0.85,0.1c0.61,0.08,1.22,0.13,1.83,0.13c0.43,0,0.86-0.02,1.28-0.06c0.83-0.75,1.47-1.64,1.92-2.41
			c-1.68,0.4-3,0.11-3.67-0.12c-0.08-0.03-0.06-0.15,0.03-0.14c2.1,0.19,3.68-0.29,3.89-0.36v0l0.08-0.6
			c-2.13,0.56-3.79,0.2-4.63-0.08C18.95,22.41,18.99,22.26,19.09,22.27z M17.2,8.44c-0.38,0.04-0.61,0.27-0.7,0.37
			c-0.01,0.01,0,0.03,0.02,0.02c0.08-0.03,0.23-0.08,0.33-0.03c0.14,0.06,0.62-0.03,0.72,0.06c0.11,0.09,0.12,0.13,0.12,0.13
			S17.69,8.38,17.2,8.44z M17.9,8.2c-0.07-0.1-0.54-0.65-1.7,0.04c-0.01,0,0,0.01,0,0.01C16.42,8.19,17.21,7.98,17.9,8.2
			C17.9,8.21,17.91,8.21,17.9,8.2z M18.2,11.42c-0.14-0.01-0.26-0.04-0.33-0.07c0.01,0.02,0.16,0.29,0.33,0.3
			c0.15,0.01,0.29-0.11,0.33-0.27C18.44,11.41,18.33,11.43,18.2,11.42z M17.83,10.65c-0.46-0.17-0.61-0.48-0.64-0.53
			c0.11,0.29,0.25,0.5,0.39,0.65c0.65,0.65,1.5-0.03,1.5-0.03C18.52,10.82,18.11,10.76,17.83,10.65z M17.83,10.65
			c-0.46-0.17-0.61-0.48-0.64-0.53c0.11,0.29,0.25,0.5,0.39,0.65c0.65,0.65,1.5-0.03,1.5-0.03C18.52,10.82,18.11,10.76,17.83,10.65z
			 M18.2,11.42c-0.14-0.01-0.26-0.04-0.33-0.07c0.01,0.02,0.16,0.29,0.33,0.3c0.15,0.01,0.29-0.11,0.33-0.27
			C18.44,11.41,18.33,11.43,18.2,11.42z M17.9,8.2c-0.07-0.1-0.54-0.65-1.7,0.04c-0.01,0,0,0.01,0,0.01
			C16.42,8.19,17.21,7.98,17.9,8.2C17.9,8.21,17.91,8.21,17.9,8.2z M17.2,8.44c-0.38,0.04-0.61,0.27-0.7,0.37
			c-0.01,0.01,0,0.03,0.02,0.02c0.08-0.03,0.23-0.08,0.33-0.03c0.14,0.06,0.62-0.03,0.72,0.06c0.11,0.09,0.12,0.13,0.12,0.13
			S17.69,8.38,17.2,8.44z M17.2,8.44c-0.38,0.04-0.61,0.27-0.7,0.37c-0.01,0.01,0,0.03,0.02,0.02c0.08-0.03,0.23-0.08,0.33-0.03
			c0.14,0.06,0.62-0.03,0.72,0.06c0.11,0.09,0.12,0.13,0.12,0.13S17.69,8.38,17.2,8.44z M17.9,8.2c-0.07-0.1-0.54-0.65-1.7,0.04
			c-0.01,0,0,0.01,0,0.01C16.42,8.19,17.21,7.98,17.9,8.2C17.9,8.21,17.91,8.21,17.9,8.2z M18.2,11.42
			c-0.14-0.01-0.26-0.04-0.33-0.07c0.01,0.02,0.16,0.29,0.33,0.3c0.15,0.01,0.29-0.11,0.33-0.27C18.44,11.41,18.33,11.43,18.2,11.42
			z M17.83,10.65c-0.46-0.17-0.61-0.48-0.64-0.53c0.11,0.29,0.25,0.5,0.39,0.65c0.65,0.65,1.5-0.03,1.5-0.03
			C18.52,10.82,18.11,10.76,17.83,10.65z M17.83,10.65c-0.46-0.17-0.61-0.48-0.64-0.53c0.11,0.29,0.25,0.5,0.39,0.65
			c0.65,0.65,1.5-0.03,1.5-0.03C18.52,10.82,18.11,10.76,17.83,10.65z M18.2,11.42c-0.14-0.01-0.26-0.04-0.33-0.07
			c0.01,0.02,0.16,0.29,0.33,0.3c0.15,0.01,0.29-0.11,0.33-0.27C18.44,11.41,18.33,11.43,18.2,11.42z M17.9,8.2
			c-0.07-0.1-0.54-0.65-1.7,0.04c-0.01,0,0,0.01,0,0.01C16.42,8.19,17.21,7.98,17.9,8.2C17.9,8.21,17.91,8.21,17.9,8.2z M17.2,8.44
			c-0.38,0.04-0.61,0.27-0.7,0.37c-0.01,0.01,0,0.03,0.02,0.02c0.08-0.03,0.23-0.08,0.33-0.03c0.14,0.06,0.62-0.03,0.72,0.06
			c0.11,0.09,0.12,0.13,0.12,0.13S17.69,8.38,17.2,8.44z M17.2,8.44c-0.38,0.04-0.61,0.27-0.7,0.37c-0.01,0.01,0,0.03,0.02,0.02
			c0.08-0.03,0.23-0.08,0.33-0.03c0.14,0.06,0.62-0.03,0.72,0.06c0.11,0.09,0.12,0.13,0.12,0.13S17.69,8.38,17.2,8.44z M17.9,8.2
			c-0.07-0.1-0.54-0.65-1.7,0.04c-0.01,0,0,0.01,0,0.01C16.42,8.19,17.21,7.98,17.9,8.2C17.9,8.21,17.91,8.21,17.9,8.2z M18.2,11.42
			c-0.14-0.01-0.26-0.04-0.33-0.07c0.01,0.02,0.16,0.29,0.33,0.3c0.15,0.01,0.29-0.11,0.33-0.27C18.44,11.41,18.33,11.43,18.2,11.42
			z M17.83,10.65c-0.46-0.17-0.61-0.48-0.64-0.53c0.11,0.29,0.25,0.5,0.39,0.65c0.65,0.65,1.5-0.03,1.5-0.03
			C18.52,10.82,18.11,10.76,17.83,10.65z M19.08,10.73c-0.56,0.09-0.97,0.03-1.25-0.08c-0.46-0.17-0.61-0.48-0.64-0.53
			c0.11,0.29,0.25,0.5,0.39,0.65C18.24,11.42,19.08,10.73,19.08,10.73z M17.87,11.35c0.01,0.02,0.16,0.29,0.33,0.3
			c0.15,0.01,0.29-0.11,0.33-0.27c-0.07,0.02-0.18,0.04-0.32,0.04C18.06,11.42,17.94,11.38,17.87,11.35z M17.9,8.21
			C17.9,8.21,17.91,8.21,17.9,8.21c-0.07-0.11-0.54-0.66-1.69,0.03c-0.01,0,0,0.01,0,0.01C16.42,8.19,17.21,7.98,17.9,8.21z
			 M17.57,8.86c0.11,0.09,0.12,0.13,0.12,0.13s0.01-0.61-0.49-0.55c-0.38,0.04-0.61,0.27-0.7,0.37c-0.01,0.01,0,0.03,0.02,0.02
			c0.08-0.03,0.23-0.08,0.33-0.03C16.98,8.86,17.46,8.77,17.57,8.86z M17.71,27.87c1.36-0.14,2.48-0.71,3.39-1.44
			c-0.32,0.02-0.63,0.03-0.95,0.03c-0.62,0-1.25-0.04-1.87-0.13c-0.14-0.02-0.29-0.04-0.43-0.05c-0.13-0.01-0.27-0.03-0.41-0.05
			c-0.38-0.05-0.67-0.34-0.72-0.71l-0.04-0.34c-0.76-0.16-1.36-0.46-1.48-0.49c-0.23-0.07-2.03,0.31-4.35,0.36
			c-2.31,0.06-2.21-0.86-2.21-0.86c0.16-0.99,1.45-1.03,2.3-1.03c0.86,0,3.68,0.2,3.91,0.16s0.57-0.07,0.86-0.51
			c0.13-0.2,0.35-0.37,0.59-0.53l-0.19-1.46c-0.25-0.09-0.42-0.33-0.42-0.61v-0.86c0-0.36,0.29-0.65,0.65-0.65c0.01,0,0.03,0,0.04,0
			c1.07,0.07,2.15,0.1,3.22,0.11c-0.01-0.09-0.01-0.18-0.01-0.27c-0.24,0.06-0.46,0.09-0.69,0.09c-0.6,0-1.15-0.23-1.61-0.66
			l-3.01,0.08l-1.33-2.82l0.76-0.3L16.56,17c-0.17-0.32-0.24-0.57-0.25-0.59c-0.02-0.08-0.01-0.16,0.03-0.22l-2.16-1.65
			c0.63-0.46,0.69-2.46,0.69-2.46s1.45,1.01,1.96,1.6c0.51,0.59,0.63,1.43,0.63,1.43l0.24-0.17l-0.53,1.19
			c0.12,0.01,0.26,0.01,0.43,0.02l0.31-0.75v0c-0.17-0.52-0.18-1.05-0.16-1.4c-0.1-0.43-0.13-0.92-0.14-1.02
			c0.02,0.01,0.08,0.03,0.21,0.07c0.3,0.07,0.98,0.02,1.31-0.58c0.33-0.61,0.75-1.26,0.8-1.84c0.03-0.36,0.07-0.93,0.1-1.31
			c0.02-0.22,0.03-0.38,0.03-0.38l-0.21-1.93l-1.17-1.12l-1.37,0.17l-2.22,1.12l-1.32,1.49l0.17,2.93c0.02,0.08,0.04,0.16,0.06,0.24
			c0.56,2.51-1.14,3.11-1.14,3.11l-0.34-0.27c-3.42,0.42-3.89,5.04-3.81,5.58c0.07,0.54-0.15,0.46-0.44,0.66
			c-0.29,0.2-0.27,0.12-0.34,0.61c-0.07,0.49,0.02,0.64-0.07,1.03c-0.1,0.39-0.22,0.29-0.17,0.71c0.05,0.42,0.37,0.39,0.34,0.86
			c-0.02,0.46,0,1,0,1c0.59,1.08,4.03,0.32,4.03,0.32c1.86,3.96,5.43,3.42,5.43,3.42c-3.94-0.91-4.79-3.55-4.79-3.55l0.27-0.02
			C14.75,27.72,17.71,27.87,17.71,27.87z M14.09,9.08c0.2-0.69,1.55,0.13,2.73-1.95c0.1-0.18,0.27-0.3,0.45-0.38
			c0.42-0.18,1.19-0.33,2.12,0.4c0.08,0.07,0.14,0.17,0.14,0.27c0.01,0.16,0.03,0.43,0.07,0.69c0,0.02,0,0.04,0.01,0.06
			c0,0-0.81-0.15-0.95,0.3c-0.13,0.45,0.13,1.17,0.13,1.33c-0.01,0.15-0.42,0.28-0.48,0.43c-0.03,0.07,0.15,0.07,0.35-0.01
			c0,0,0,0,0,0c0.1-0.04,0.2-0.09,0.28-0.16c0,0,0,0,0,0c0.07-0.07,0.12-0.14,0.11-0.23c-0.01-0.25-0.14-0.57-0.18-0.86
			c0.02,0.02,0.04,0.02,0.05,0.03c0.25,0.19,0.37,0.03,0.4,0c0.01-0.02,0.04,0,0.07,0.02c0.02,0.02,0.04,0.04,0.05,0.05
			c-0.01,0.06-0.01,0.1,0,0.15c0.02,0.1,0.06,0.28,0.09,0.47c0.03,0.22,0.05,0.47,0,0.68c-0.11,0.38-0.65,1.51-0.82,1.86
			c-0.17,0.36-0.36,0.6-1.19,0.45c-0.56-0.1-1.58-0.35-2.2-1.08c-0.3-0.35-0.5-0.82-0.51-1.44C14.81,10.15,13.88,9.79,14.09,9.08z
			 M19.6,8.43c-0.02,0.14-0.06,0.27-0.1,0.4c-0.21-0.2-0.63-0.12-0.63-0.12c0.01-0.04,0.02-0.08,0.03-0.12
			C19.06,8.28,19.6,8.43,19.6,8.43z M12.02,15.49c0,0,2.36,6.27,0.67,7.05c-0.34,0.11-0.44,0-0.44,0l-0.23-3.41l-0.8,2.36
			c0,0-0.91-0.57-1.85-0.72C9.37,20.77,9.41,16.4,12.02,15.49z M10.29,21.94c-0.29-0.17-1.51-0.09-1.51-0.09
			c1.93-0.87,2.75,0.51,2.75,0.51l-0.54-0.09l0.35,0.45c-1.2-0.78-2.94,0.16-2.94,0.16C8.87,22.01,10.29,21.94,10.29,21.94z
			 M17.19,10.12c0.11,0.29,0.25,0.5,0.39,0.65c0.65,0.65,1.5-0.03,1.5-0.03c-0.56,0.09-0.97,0.03-1.25-0.08
			C17.37,10.47,17.22,10.17,17.19,10.12z M17.87,11.35c0.01,0.02,0.16,0.29,0.33,0.3c0.15,0.01,0.29-0.11,0.33-0.27
			c-0.07,0.02-0.18,0.04-0.32,0.04C18.06,11.42,17.94,11.38,17.87,11.35z M16.21,8.25c0.21-0.06,1-0.28,1.69-0.04
			c0.01,0,0.01,0,0.01-0.01c-0.07-0.1-0.54-0.65-1.7,0.04C16.2,8.24,16.21,8.26,16.21,8.25z M17.57,8.86
			c0.11,0.09,0.12,0.13,0.12,0.13s0.01-0.61-0.49-0.55c-0.38,0.04-0.61,0.27-0.7,0.37c-0.01,0.01,0,0.03,0.02,0.02
			c0.08-0.03,0.23-0.08,0.33-0.03C16.98,8.86,17.46,8.77,17.57,8.86z M17.2,8.44c-0.38,0.04-0.61,0.27-0.7,0.37
			c-0.01,0.01,0,0.03,0.02,0.02c0.08-0.03,0.23-0.08,0.33-0.03c0.14,0.06,0.62-0.03,0.72,0.06c0.11,0.09,0.12,0.13,0.12,0.13
			S17.69,8.38,17.2,8.44z M17.9,8.2c-0.07-0.1-0.54-0.65-1.7,0.04c-0.01,0,0,0.01,0,0.01C16.42,8.19,17.21,7.98,17.9,8.2
			C17.9,8.21,17.91,8.21,17.9,8.2z M18.2,11.42c-0.14-0.01-0.26-0.04-0.33-0.07c0.01,0.02,0.16,0.29,0.33,0.3
			c0.15,0.01,0.29-0.11,0.33-0.27C18.44,11.41,18.33,11.43,18.2,11.42z M17.83,10.65c-0.46-0.17-0.61-0.48-0.64-0.53
			c0.11,0.29,0.25,0.5,0.39,0.65c0.65,0.65,1.5-0.03,1.5-0.03C18.52,10.82,18.11,10.76,17.83,10.65z M17.83,10.65
			c-0.46-0.17-0.61-0.48-0.64-0.53c0.11,0.29,0.25,0.5,0.39,0.65c0.65,0.65,1.5-0.03,1.5-0.03C18.52,10.82,18.11,10.76,17.83,10.65z
			 M18.2,11.42c-0.14-0.01-0.26-0.04-0.33-0.07c0.01,0.02,0.16,0.29,0.33,0.3c0.15,0.01,0.29-0.11,0.33-0.27
			C18.44,11.41,18.33,11.43,18.2,11.42z M17.9,8.2c-0.07-0.1-0.54-0.65-1.7,0.04c-0.01,0,0,0.01,0,0.01
			C16.42,8.19,17.21,7.98,17.9,8.2C17.9,8.21,17.91,8.21,17.9,8.2z M17.2,8.44c-0.38,0.04-0.61,0.27-0.7,0.37
			c-0.01,0.01,0,0.03,0.02,0.02c0.08-0.03,0.23-0.08,0.33-0.03c0.14,0.06,0.62-0.03,0.72,0.06c0.11,0.09,0.12,0.13,0.12,0.13
			S17.69,8.38,17.2,8.44z M17.2,8.44c-0.38,0.04-0.61,0.27-0.7,0.37c-0.01,0.01,0,0.03,0.02,0.02c0.08-0.03,0.23-0.08,0.33-0.03
			c0.14,0.06,0.62-0.03,0.72,0.06c0.11,0.09,0.12,0.13,0.12,0.13S17.69,8.38,17.2,8.44z M17.9,8.2c-0.07-0.1-0.54-0.65-1.7,0.04
			c-0.01,0,0,0.01,0,0.01C16.42,8.19,17.21,7.98,17.9,8.2C17.9,8.21,17.91,8.21,17.9,8.2z M18.2,11.42
			c-0.14-0.01-0.26-0.04-0.33-0.07c0.01,0.02,0.16,0.29,0.33,0.3c0.15,0.01,0.29-0.11,0.33-0.27C18.44,11.41,18.33,11.43,18.2,11.42
			z M17.83,10.65c-0.46-0.17-0.61-0.48-0.64-0.53c0.11,0.29,0.25,0.5,0.39,0.65c0.65,0.65,1.5-0.03,1.5-0.03
			C18.52,10.82,18.11,10.76,17.83,10.65z M17.83,10.65c-0.46-0.17-0.61-0.48-0.64-0.53c0.11,0.29,0.25,0.5,0.39,0.65
			c0.65,0.65,1.5-0.03,1.5-0.03C18.52,10.82,18.11,10.76,17.83,10.65z M18.2,11.42c-0.14-0.01-0.26-0.04-0.33-0.07
			c0.01,0.02,0.16,0.29,0.33,0.3c0.15,0.01,0.29-0.11,0.33-0.27C18.44,11.41,18.33,11.43,18.2,11.42z M17.9,8.2
			c-0.07-0.1-0.54-0.65-1.7,0.04c-0.01,0,0,0.01,0,0.01C16.42,8.19,17.21,7.98,17.9,8.2C17.9,8.21,17.91,8.21,17.9,8.2z M17.2,8.44
			c-0.38,0.04-0.61,0.27-0.7,0.37c-0.01,0.01,0,0.03,0.02,0.02c0.08-0.03,0.23-0.08,0.33-0.03c0.14,0.06,0.62-0.03,0.72,0.06
			c0.11,0.09,0.12,0.13,0.12,0.13S17.69,8.38,17.2,8.44z M17.2,8.44c-0.38,0.04-0.61,0.27-0.7,0.37c-0.01,0.01,0,0.03,0.02,0.02
			c0.08-0.03,0.23-0.08,0.33-0.03c0.14,0.06,0.62-0.03,0.72,0.06c0.11,0.09,0.12,0.13,0.12,0.13S17.69,8.38,17.2,8.44z M17.9,8.2
			c-0.07-0.1-0.54-0.65-1.7,0.04c-0.01,0,0,0.01,0,0.01C16.42,8.19,17.21,7.98,17.9,8.2C17.9,8.21,17.91,8.21,17.9,8.2z M18.2,11.42
			c-0.14-0.01-0.26-0.04-0.33-0.07c0.01,0.02,0.16,0.29,0.33,0.3c0.15,0.01,0.29-0.11,0.33-0.27C18.44,11.41,18.33,11.43,18.2,11.42
			z M17.83,10.65c-0.46-0.17-0.61-0.48-0.64-0.53c0.11,0.29,0.25,0.5,0.39,0.65c0.65,0.65,1.5-0.03,1.5-0.03
			C18.52,10.82,18.11,10.76,17.83,10.65z M17.83,10.65c-0.46-0.17-0.61-0.48-0.64-0.53c0.11,0.29,0.25,0.5,0.39,0.65
			c0.65,0.65,1.5-0.03,1.5-0.03C18.52,10.82,18.11,10.76,17.83,10.65z M18.2,11.42c-0.14-0.01-0.26-0.04-0.33-0.07
			c0.01,0.02,0.16,0.29,0.33,0.3c0.15,0.01,0.29-0.11,0.33-0.27C18.44,11.41,18.33,11.43,18.2,11.42z M17.9,8.2
			c-0.07-0.1-0.54-0.65-1.7,0.04c-0.01,0,0,0.01,0,0.01C16.42,8.19,17.21,7.98,17.9,8.2C17.9,8.21,17.91,8.21,17.9,8.2z M17.2,8.44
			c-0.38,0.04-0.61,0.27-0.7,0.37c-0.01,0.01,0,0.03,0.02,0.02c0.08-0.03,0.23-0.08,0.33-0.03c0.14,0.06,0.62-0.03,0.72,0.06
			c0.11,0.09,0.12,0.13,0.12,0.13S17.69,8.38,17.2,8.44z M17.2,8.44c-0.38,0.04-0.61,0.27-0.7,0.37c-0.01,0.01,0,0.03,0.02,0.02
			c0.08-0.03,0.23-0.08,0.33-0.03c0.14,0.06,0.62-0.03,0.72,0.06c0.11,0.09,0.12,0.13,0.12,0.13S17.69,8.38,17.2,8.44z M17.9,8.2
			c-0.07-0.1-0.54-0.65-1.7,0.04c-0.01,0,0,0.01,0,0.01C16.42,8.19,17.21,7.98,17.9,8.2C17.9,8.21,17.91,8.21,17.9,8.2z M18.2,11.42
			c-0.14-0.01-0.26-0.04-0.33-0.07c0.01,0.02,0.16,0.29,0.33,0.3c0.15,0.01,0.29-0.11,0.33-0.27C18.44,11.41,18.33,11.43,18.2,11.42
			z M17.83,10.65c-0.46-0.17-0.61-0.48-0.64-0.53c0.11,0.29,0.25,0.5,0.39,0.65c0.65,0.65,1.5-0.03,1.5-0.03
			C18.52,10.82,18.11,10.76,17.83,10.65z M17.83,10.65c-0.46-0.17-0.61-0.48-0.64-0.53c0.11,0.29,0.25,0.5,0.39,0.65
			c0.65,0.65,1.5-0.03,1.5-0.03C18.52,10.82,18.11,10.76,17.83,10.65z M18.2,11.42c-0.14-0.01-0.26-0.04-0.33-0.07
			c0.01,0.02,0.16,0.29,0.33,0.3c0.15,0.01,0.29-0.11,0.33-0.27C18.44,11.41,18.33,11.43,18.2,11.42z M17.9,8.2
			c-0.07-0.1-0.54-0.65-1.7,0.04c-0.01,0,0,0.01,0,0.01C16.42,8.19,17.21,7.98,17.9,8.2C17.9,8.21,17.91,8.21,17.9,8.2z M17.2,8.44
			c-0.38,0.04-0.61,0.27-0.7,0.37c-0.01,0.01,0,0.03,0.02,0.02c0.08-0.03,0.23-0.08,0.33-0.03c0.14,0.06,0.62-0.03,0.72,0.06
			c0.11,0.09,0.12,0.13,0.12,0.13S17.69,8.38,17.2,8.44z M24.11,21.3l-0.18,1.35c0.24-0.52,0.35-0.85,0.35-0.85
			C24.23,21.63,24.17,21.47,24.11,21.3z M17.2,8.44c-0.38,0.04-0.61,0.27-0.7,0.37c-0.01,0.01,0,0.03,0.02,0.02
			c0.08-0.03,0.23-0.08,0.33-0.03c0.14,0.06,0.62-0.03,0.72,0.06c0.11,0.09,0.12,0.13,0.12,0.13S17.69,8.38,17.2,8.44z M17.9,8.2
			c-0.07-0.1-0.54-0.65-1.7,0.04c-0.01,0,0,0.01,0,0.01C16.42,8.19,17.21,7.98,17.9,8.2C17.9,8.21,17.91,8.21,17.9,8.2z M18.2,11.42
			c-0.14-0.01-0.26-0.04-0.33-0.07c0.01,0.02,0.16,0.29,0.33,0.3c0.15,0.01,0.29-0.11,0.33-0.27C18.44,11.41,18.33,11.43,18.2,11.42
			z M17.83,10.65c-0.46-0.17-0.61-0.48-0.64-0.53c0.11,0.29,0.25,0.5,0.39,0.65c0.65,0.65,1.5-0.03,1.5-0.03
			C18.52,10.82,18.11,10.76,17.83,10.65z M17.83,10.65c-0.46-0.17-0.61-0.48-0.64-0.53c0.11,0.29,0.25,0.5,0.39,0.65
			c0.65,0.65,1.5-0.03,1.5-0.03C18.52,10.82,18.11,10.76,17.83,10.65z M18.2,11.42c-0.14-0.01-0.26-0.04-0.33-0.07
			c0.01,0.02,0.16,0.29,0.33,0.3c0.15,0.01,0.29-0.11,0.33-0.27C18.44,11.41,18.33,11.43,18.2,11.42z M17.9,8.2
			c-0.07-0.1-0.54-0.65-1.7,0.04c-0.01,0,0,0.01,0,0.01C16.42,8.19,17.21,7.98,17.9,8.2C17.9,8.21,17.91,8.21,17.9,8.2z M17.2,8.44
			c-0.38,0.04-0.61,0.27-0.7,0.37c-0.01,0.01,0,0.03,0.02,0.02c0.08-0.03,0.23-0.08,0.33-0.03c0.14,0.06,0.62-0.03,0.72,0.06
			c0.11,0.09,0.12,0.13,0.12,0.13S17.69,8.38,17.2,8.44z M17.2,8.44c-0.38,0.04-0.61,0.27-0.7,0.37c-0.01,0.01,0,0.03,0.02,0.02
			c0.08-0.03,0.23-0.08,0.33-0.03c0.14,0.06,0.62-0.03,0.72,0.06c0.11,0.09,0.12,0.13,0.12,0.13S17.69,8.38,17.2,8.44z M17.9,8.2
			c-0.07-0.1-0.54-0.65-1.7,0.04c-0.01,0,0,0.01,0,0.01C16.42,8.19,17.21,7.98,17.9,8.2C17.9,8.21,17.91,8.21,17.9,8.2z M18.2,11.42
			c-0.14-0.01-0.26-0.04-0.33-0.07c0.01,0.02,0.16,0.29,0.33,0.3c0.15,0.01,0.29-0.11,0.33-0.27C18.44,11.41,18.33,11.43,18.2,11.42
			z M17.83,10.65c-0.46-0.17-0.61-0.48-0.64-0.53c0.11,0.29,0.25,0.5,0.39,0.65c0.65,0.65,1.5-0.03,1.5-0.03
			C18.52,10.82,18.11,10.76,17.83,10.65z M22.72,18.18c-0.41,0.31-0.89,0.47-1.41,0.47c-0.26,0-0.53-0.04-0.81-0.12
			c0,0.11,0.01,0.21,0.02,0.3c0.83,0,1.67-0.03,2.5-0.07C22.92,18.56,22.82,18.37,22.72,18.18z M20.87,16.37
			c-0.21,0.2-0.6,0.61-0.83,1.22c-0.03,0.07-0.05,0.15-0.08,0.23c-0.03,0.1-0.05,0.22-0.07,0.33c0,0-0.01,0-0.01,0
			c0,0,0.01,0.01,0.01,0.01v0c-0.01,0.05-0.02,0.11-0.02,0.16v0c0,0.05-0.01,0.1-0.01,0.15c0,0.11,0,0.23,0.01,0.35
			c0.09,0,0.17,0,0.26,0h0.02c0.04,0,0.08,0,0.12,0c-0.02-0.17-0.02-0.37-0.01-0.6c0.03-0.45,0.15-0.98,0.46-1.53
			c0.06-0.11,0.14-0.23,0.22-0.34c0.03-0.04,0.06-0.08,0.09-0.12C21.02,16.25,20.96,16.29,20.87,16.37z M17.83,10.65
			c-0.46-0.17-0.61-0.48-0.64-0.53c0.11,0.29,0.25,0.5,0.39,0.65c0.65,0.65,1.5-0.03,1.5-0.03C18.52,10.82,18.11,10.76,17.83,10.65z
			 M18.2,11.42c-0.14-0.01-0.26-0.04-0.33-0.07c0.01,0.02,0.16,0.29,0.33,0.3c0.15,0.01,0.29-0.11,0.33-0.27
			C18.44,11.41,18.33,11.43,18.2,11.42z M17.9,8.2c-0.07-0.1-0.54-0.65-1.7,0.04c-0.01,0,0,0.01,0,0.01
			C16.42,8.19,17.21,7.98,17.9,8.2C17.9,8.21,17.91,8.21,17.9,8.2z M17.2,8.44c-0.38,0.04-0.61,0.27-0.7,0.37
			c-0.01,0.01,0,0.03,0.02,0.02c0.08-0.03,0.23-0.08,0.33-0.03c0.14,0.06,0.62-0.03,0.72,0.06c0.11,0.09,0.12,0.13,0.12,0.13
			S17.69,8.38,17.2,8.44z M17.2,8.44c-0.38,0.04-0.61,0.27-0.7,0.37c-0.01,0.01,0,0.03,0.02,0.02c0.08-0.03,0.23-0.08,0.33-0.03
			c0.14,0.06,0.62-0.03,0.72,0.06c0.11,0.09,0.12,0.13,0.12,0.13S17.69,8.38,17.2,8.44z M17.9,8.2c-0.07-0.1-0.54-0.65-1.7,0.04
			c-0.01,0,0,0.01,0,0.01C16.42,8.19,17.21,7.98,17.9,8.2C17.9,8.21,17.91,8.21,17.9,8.2z M18.2,11.42
			c-0.14-0.01-0.26-0.04-0.33-0.07c0.01,0.02,0.16,0.29,0.33,0.3c0.15,0.01,0.29-0.11,0.33-0.27C18.44,11.41,18.33,11.43,18.2,11.42
			z M17.83,10.65c-0.46-0.17-0.61-0.48-0.64-0.53c0.11,0.29,0.25,0.5,0.39,0.65c0.65,0.65,1.5-0.03,1.5-0.03
			C18.52,10.82,18.11,10.76,17.83,10.65z M18.2,11.42c-0.14-0.01-0.26-0.04-0.33-0.07c0.01,0.02,0.16,0.29,0.33,0.3
			c0.15,0.01,0.29-0.11,0.33-0.27C18.44,11.41,18.33,11.43,18.2,11.42z M17.9,8.2c-0.07-0.1-0.54-0.65-1.7,0.04
			c-0.01,0,0,0.01,0,0.01C16.42,8.19,17.21,7.98,17.9,8.2C17.9,8.21,17.91,8.21,17.9,8.2z M17.83,10.65
			c-0.46-0.17-0.61-0.48-0.64-0.53c0.11,0.29,0.25,0.5,0.39,0.65c0.65,0.65,1.5-0.03,1.5-0.03C18.52,10.82,18.11,10.76,17.83,10.65z
			 M17.2,8.44c-0.38,0.04-0.61,0.27-0.7,0.37c-0.01,0.01,0,0.03,0.02,0.02c0.08-0.03,0.23-0.08,0.33-0.03
			c0.14,0.06,0.62-0.03,0.72,0.06c0.11,0.09,0.12,0.13,0.12,0.13S17.69,8.38,17.2,8.44z M17.2,8.44c-0.38,0.04-0.61,0.27-0.7,0.37
			c-0.01,0.01,0,0.03,0.02,0.02c0.08-0.03,0.23-0.08,0.33-0.03c0.14,0.06,0.62-0.03,0.72,0.06c0.11,0.09,0.12,0.13,0.12,0.13
			S17.69,8.38,17.2,8.44z M17.9,8.2c-0.07-0.1-0.54-0.65-1.7,0.04c-0.01,0,0,0.01,0,0.01C16.42,8.19,17.21,7.98,17.9,8.2
			C17.9,8.21,17.91,8.21,17.9,8.2z M17.9,8.2c-0.07-0.1-0.54-0.65-1.7,0.04c-0.01,0,0,0.01,0,0.01C16.42,8.19,17.21,7.98,17.9,8.2
			C17.9,8.21,17.91,8.21,17.9,8.2z M17.2,8.44c-0.38,0.04-0.61,0.27-0.7,0.37c-0.01,0.01,0,0.03,0.02,0.02
			c0.08-0.03,0.23-0.08,0.33-0.03c0.14,0.06,0.62-0.03,0.72,0.06c0.11,0.09,0.12,0.13,0.12,0.13S17.69,8.38,17.2,8.44z M19.05,16.48
			c-0.03-0.02-0.06-0.03-0.1-0.05c0.03,0.02,0.06,0.04,0.1,0.07c0.07,0.04,0.14,0.08,0.22,0.12C19.2,16.57,19.13,16.52,19.05,16.48z
			 M19.7,17.81c0.04,0.04,0.07,0.08,0.1,0.12c0.02,0.03,0.04,0.06,0.06,0.09c0,0-0.01-0.08-0.03-0.2v0
			c-0.01-0.07-0.04-0.15-0.06-0.24c-0.06-0.19-0.16-0.42-0.32-0.62c-0.07-0.09-0.15-0.17-0.24-0.24l0,0
			c-0.05-0.04-0.1-0.07-0.16-0.11c-0.05-0.03-0.1-0.05-0.16-0.08c0,0,0,0,0,0c-0.1-0.04-0.2-0.07-0.31-0.09
			c-0.07-0.01-0.14-0.02-0.21-0.02c-0.34-0.01-0.62-0.02-0.85-0.03c-0.17-0.01-0.32-0.02-0.44-0.02c-0.37-0.02-0.51-0.04-0.51-0.04
			s0,0.01,0.01,0.02v0c0.03,0.1,0.2,0.57,0.54,1.03c0,0,0,0,0,0c0,0,0,0,0,0h0c0.15,0.21,0.35,0.42,0.58,0.6
			c0.33,0.24,0.73,0.41,1.22,0.41c0.22,0,0.45-0.03,0.7-0.11c0.04-0.01,0.09-0.03,0.14-0.04c0.01,0,0.02-0.01,0.03-0.01
			c0,0-0.01-0.01-0.02-0.03c-0.02-0.03-0.06-0.07-0.11-0.13c-0.13-0.14-0.34-0.36-0.59-0.57c-0.26-0.22-0.57-0.42-0.87-0.51
			c0.15,0.04,0.51,0.15,0.87,0.34C19.28,17.46,19.52,17.62,19.7,17.81z M19.05,16.48c-0.03-0.02-0.06-0.03-0.1-0.05
			c0.03,0.02,0.06,0.04,0.1,0.07c0.07,0.04,0.14,0.08,0.22,0.12C19.2,16.57,19.13,16.52,19.05,16.48z M19.7,17.81
			c0.04,0.04,0.07,0.08,0.1,0.12c0.02,0.03,0.04,0.06,0.06,0.09c0,0-0.01-0.08-0.03-0.2v0c-0.01-0.07-0.04-0.15-0.06-0.24
			c-0.06-0.19-0.16-0.42-0.32-0.62c-0.07-0.09-0.15-0.17-0.24-0.24l0,0c-0.05-0.04-0.1-0.07-0.16-0.11
			c-0.05-0.03-0.1-0.05-0.16-0.08c0,0,0,0,0,0c-0.1-0.04-0.2-0.07-0.31-0.09c-0.07-0.01-0.14-0.02-0.21-0.02
			c-0.34-0.01-0.62-0.02-0.85-0.03c-0.17-0.01-0.32-0.02-0.44-0.02c-0.37-0.02-0.51-0.04-0.51-0.04s0,0.01,0.01,0.02v0
			c0.03,0.1,0.2,0.57,0.54,1.03c0,0,0,0,0,0c0,0,0,0,0,0h0c0.15,0.21,0.35,0.42,0.58,0.6c0.33,0.24,0.73,0.41,1.22,0.41
			c0.22,0,0.45-0.03,0.7-0.11c0.04-0.01,0.09-0.03,0.14-0.04c0.01,0,0.02-0.01,0.03-0.01c0,0-0.01-0.01-0.02-0.03
			c-0.02-0.03-0.06-0.07-0.11-0.13c-0.13-0.14-0.34-0.36-0.59-0.57c-0.26-0.22-0.57-0.42-0.87-0.51c0.15,0.04,0.51,0.15,0.87,0.34
			C19.28,17.46,19.52,17.62,19.7,17.81z M19.05,16.48c-0.03-0.02-0.06-0.03-0.1-0.05c0.03,0.02,0.06,0.04,0.1,0.07
			c0.07,0.04,0.14,0.08,0.22,0.12C19.2,16.57,19.13,16.52,19.05,16.48z M19.7,17.81c0.04,0.04,0.07,0.08,0.1,0.12
			c0.02,0.03,0.04,0.06,0.06,0.09c0,0-0.01-0.08-0.03-0.2v0c-0.01-0.07-0.04-0.15-0.06-0.24c-0.06-0.19-0.16-0.42-0.32-0.62
			c-0.07-0.09-0.15-0.17-0.24-0.24l0,0c-0.05-0.04-0.1-0.07-0.16-0.11c-0.05-0.03-0.1-0.05-0.16-0.08c0,0,0,0,0,0
			c-0.1-0.04-0.2-0.07-0.31-0.09c-0.07-0.01-0.14-0.02-0.21-0.02c-0.34-0.01-0.62-0.02-0.85-0.03c-0.17-0.01-0.32-0.02-0.44-0.02
			c-0.37-0.02-0.51-0.04-0.51-0.04s0,0.01,0.01,0.02v0c0.03,0.1,0.2,0.57,0.54,1.03c0,0,0,0,0,0c0,0,0,0,0,0h0
			c0.15,0.21,0.35,0.42,0.58,0.6c0.33,0.24,0.73,0.41,1.22,0.41c0.22,0,0.45-0.03,0.7-0.11c0.04-0.01,0.09-0.03,0.14-0.04
			c0.01,0,0.02-0.01,0.03-0.01c0,0-0.01-0.01-0.02-0.03c-0.02-0.03-0.06-0.07-0.11-0.13c-0.13-0.14-0.34-0.36-0.59-0.57
			c-0.26-0.22-0.57-0.42-0.87-0.51c0.15,0.04,0.51,0.15,0.87,0.34C19.28,17.46,19.52,17.62,19.7,17.81z M19.05,16.48
			c-0.03-0.02-0.06-0.03-0.1-0.05c0.03,0.02,0.06,0.04,0.1,0.07c0.07,0.04,0.14,0.08,0.22,0.12C19.2,16.57,19.13,16.52,19.05,16.48z
			 M19.7,17.81c0.04,0.04,0.07,0.08,0.1,0.12c0.02,0.03,0.04,0.06,0.06,0.09c0,0-0.01-0.08-0.03-0.2v0
			c-0.01-0.07-0.04-0.15-0.06-0.24c-0.06-0.19-0.16-0.42-0.32-0.62c-0.07-0.09-0.15-0.17-0.24-0.24l0,0
			c-0.05-0.04-0.1-0.07-0.16-0.11c-0.05-0.03-0.1-0.05-0.16-0.08c0,0,0,0,0,0c-0.1-0.04-0.2-0.07-0.31-0.09
			c-0.07-0.01-0.14-0.02-0.21-0.02c-0.34-0.01-0.62-0.02-0.85-0.03c-0.17-0.01-0.32-0.02-0.44-0.02c-0.37-0.02-0.51-0.04-0.51-0.04
			s0,0.01,0.01,0.02v0c0.03,0.1,0.2,0.57,0.54,1.03c0,0,0,0,0,0c0,0,0,0,0,0h0c0.15,0.21,0.35,0.42,0.58,0.6
			c0.33,0.24,0.73,0.41,1.22,0.41c0.22,0,0.45-0.03,0.7-0.11c0.04-0.01,0.09-0.03,0.14-0.04c0.01,0,0.02-0.01,0.03-0.01
			c0,0-0.01-0.01-0.02-0.03c-0.02-0.03-0.06-0.07-0.11-0.13c-0.13-0.14-0.34-0.36-0.59-0.57c-0.26-0.22-0.57-0.42-0.87-0.51
			c0.15,0.04,0.51,0.15,0.87,0.34C19.28,17.46,19.52,17.62,19.7,17.81z M19.05,16.48c-0.03-0.02-0.06-0.03-0.1-0.05
			c0.03,0.02,0.06,0.04,0.1,0.07c0.07,0.04,0.14,0.08,0.22,0.12C19.2,16.57,19.13,16.52,19.05,16.48z M19.7,17.81
			c0.04,0.04,0.07,0.08,0.1,0.12c0.02,0.03,0.04,0.06,0.06,0.09c0,0-0.01-0.08-0.03-0.2v0c-0.01-0.07-0.04-0.15-0.06-0.24
			c-0.06-0.19-0.16-0.42-0.32-0.62c-0.07-0.09-0.15-0.17-0.24-0.24l0,0c-0.05-0.04-0.1-0.07-0.16-0.11
			c-0.05-0.03-0.1-0.05-0.16-0.08c0,0,0,0,0,0c-0.1-0.04-0.2-0.07-0.31-0.09c-0.07-0.01-0.14-0.02-0.21-0.02
			c-0.34-0.01-0.62-0.02-0.85-0.03c-0.17-0.01-0.32-0.02-0.44-0.02c-0.37-0.02-0.51-0.04-0.51-0.04s0,0.01,0.01,0.02v0
			c0.03,0.1,0.2,0.57,0.54,1.03c0,0,0,0,0,0c0,0,0,0,0,0h0c0.15,0.21,0.35,0.42,0.58,0.6c0.33,0.24,0.73,0.41,1.22,0.41
			c0.22,0,0.45-0.03,0.7-0.11c0.04-0.01,0.09-0.03,0.14-0.04c0.01,0,0.02-0.01,0.03-0.01c0,0-0.01-0.01-0.02-0.03
			c-0.02-0.03-0.06-0.07-0.11-0.13c-0.13-0.14-0.34-0.36-0.59-0.57c-0.26-0.22-0.57-0.42-0.87-0.51c0.15,0.04,0.51,0.15,0.87,0.34
			C19.28,17.46,19.52,17.62,19.7,17.81z M19.7,17.81c0.04,0.04,0.07,0.08,0.1,0.12c0.02,0.03,0.04,0.06,0.06,0.09
			c0,0-0.01-0.08-0.03-0.2v0c-0.01-0.07-0.04-0.15-0.06-0.24c-0.06-0.19-0.16-0.42-0.32-0.62c-0.07-0.09-0.15-0.17-0.24-0.24l0,0
			c-0.05-0.04-0.1-0.07-0.16-0.11c-0.05-0.03-0.1-0.05-0.16-0.08c0,0,0,0,0,0c-0.1-0.04-0.2-0.07-0.31-0.09
			c-0.07-0.01-0.14-0.02-0.21-0.02c-0.34-0.01-0.62-0.02-0.85-0.03c-0.17-0.01-0.32-0.02-0.44-0.02c-0.37-0.02-0.51-0.04-0.51-0.04
			s0,0.01,0.01,0.02v0c0.03,0.1,0.2,0.57,0.54,1.03c0,0,0,0,0,0c0,0,0,0,0,0h0c0.15,0.21,0.35,0.42,0.58,0.6
			c0.33,0.24,0.73,0.41,1.22,0.41c0.22,0,0.45-0.03,0.7-0.11c0.04-0.01,0.09-0.03,0.14-0.04c0.01,0,0.02-0.01,0.03-0.01
			c0,0-0.01-0.01-0.02-0.03c-0.02-0.03-0.06-0.07-0.11-0.13c-0.13-0.14-0.34-0.36-0.59-0.57c-0.26-0.22-0.57-0.42-0.87-0.51
			c0.15,0.04,0.51,0.15,0.87,0.34C19.28,17.46,19.52,17.62,19.7,17.81z M19.7,17.81c0.04,0.04,0.07,0.08,0.1,0.12
			c0.02,0.03,0.04,0.06,0.06,0.09c0,0-0.01-0.08-0.03-0.2v0c-0.01-0.07-0.04-0.15-0.06-0.24c-0.06-0.19-0.16-0.42-0.32-0.62
			c-0.07-0.09-0.15-0.17-0.24-0.24l0,0c-0.05-0.04-0.1-0.07-0.16-0.11c-0.05-0.03-0.1-0.05-0.16-0.08c0,0,0,0,0,0
			c-0.1-0.04-0.2-0.07-0.31-0.09c-0.07-0.01-0.14-0.02-0.21-0.02c-0.34-0.01-0.62-0.02-0.85-0.03c-0.17-0.01-0.32-0.02-0.44-0.02
			c-0.37-0.02-0.51-0.04-0.51-0.04s0,0.01,0.01,0.02v0c0.03,0.1,0.2,0.57,0.54,1.03c0,0,0,0,0,0c0,0,0,0,0,0h0
			c0.15,0.21,0.35,0.42,0.58,0.6c0.33,0.24,0.73,0.41,1.22,0.41c0.22,0,0.45-0.03,0.7-0.11c0.04-0.01,0.09-0.03,0.14-0.04
			c0.01,0,0.02-0.01,0.03-0.01c0,0-0.01-0.01-0.02-0.03c-0.02-0.03-0.06-0.07-0.11-0.13c-0.13-0.14-0.34-0.36-0.59-0.57
			c-0.26-0.22-0.57-0.42-0.87-0.51c0.15,0.04,0.51,0.15,0.87,0.34C19.28,17.46,19.52,17.62,19.7,17.81z M19.7,17.81
			c0.04,0.04,0.07,0.08,0.1,0.12c0.02,0.03,0.04,0.06,0.06,0.09c0,0-0.01-0.08-0.03-0.2v0c-0.01-0.07-0.04-0.15-0.06-0.24
			c-0.06-0.19-0.16-0.42-0.32-0.62c-0.07-0.09-0.15-0.17-0.24-0.24l0,0c-0.05-0.04-0.1-0.07-0.16-0.11
			c-0.05-0.03-0.1-0.05-0.16-0.08c0,0,0,0,0,0c-0.1-0.04-0.2-0.07-0.31-0.09c-0.07-0.01-0.14-0.02-0.21-0.02
			c-0.34-0.01-0.62-0.02-0.85-0.03c-0.17-0.01-0.32-0.02-0.44-0.02c-0.37-0.02-0.51-0.04-0.51-0.04s0,0.01,0.01,0.02v0
			c0.03,0.1,0.2,0.57,0.54,1.03c0,0,0,0,0,0c0,0,0,0,0,0h0c0.15,0.21,0.35,0.42,0.58,0.6c0.33,0.24,0.73,0.41,1.22,0.41
			c0.22,0,0.45-0.03,0.7-0.11c0.04-0.01,0.09-0.03,0.14-0.04c0.01,0,0.02-0.01,0.03-0.01c0,0-0.01-0.01-0.02-0.03
			c-0.02-0.03-0.06-0.07-0.11-0.13c-0.13-0.14-0.34-0.36-0.59-0.57c-0.26-0.22-0.57-0.42-0.87-0.51c0.15,0.04,0.51,0.15,0.87,0.34
			C19.28,17.46,19.52,17.62,19.7,17.81z M19.7,17.81c0.04,0.04,0.07,0.08,0.1,0.12c0.02,0.03,0.04,0.06,0.06,0.09
			c0,0-0.01-0.08-0.03-0.2v0c-0.01-0.07-0.04-0.15-0.06-0.24c-0.06-0.19-0.16-0.42-0.32-0.62c-0.07-0.09-0.15-0.17-0.24-0.24l0,0
			c-0.05-0.04-0.1-0.07-0.16-0.11c-0.05-0.03-0.1-0.05-0.16-0.08c0,0,0,0,0,0c-0.1-0.04-0.2-0.07-0.31-0.09
			c-0.07-0.01-0.14-0.02-0.21-0.02c-0.34-0.01-0.62-0.02-0.85-0.03c-0.17-0.01-0.32-0.02-0.44-0.02c-0.37-0.02-0.51-0.04-0.51-0.04
			s0,0.01,0.01,0.02v0c0.03,0.1,0.2,0.57,0.54,1.03c0,0,0,0,0,0c0,0,0,0,0,0h0c0.15,0.21,0.35,0.42,0.58,0.6
			c0.33,0.24,0.73,0.41,1.22,0.41c0.22,0,0.45-0.03,0.7-0.11c0.04-0.01,0.09-0.03,0.14-0.04c0.01,0,0.02-0.01,0.03-0.01
			c0,0-0.01-0.01-0.02-0.03c-0.02-0.03-0.06-0.07-0.11-0.13c-0.13-0.14-0.34-0.36-0.59-0.57c-0.26-0.22-0.57-0.42-0.87-0.51
			c0.15,0.04,0.51,0.15,0.87,0.34C19.28,17.46,19.52,17.62,19.7,17.81z M19.7,17.81c0.04,0.04,0.07,0.08,0.1,0.12
			c0.02,0.03,0.04,0.06,0.06,0.09c0,0-0.01-0.08-0.03-0.2v0c-0.01-0.07-0.04-0.15-0.06-0.24c-0.06-0.19-0.16-0.42-0.32-0.62
			c-0.07-0.09-0.15-0.17-0.24-0.24l0,0c-0.05-0.04-0.1-0.07-0.16-0.11c-0.05-0.03-0.1-0.05-0.16-0.08c0,0,0,0,0,0
			c-0.1-0.04-0.2-0.07-0.31-0.09c-0.07-0.01-0.14-0.02-0.21-0.02c-0.34-0.01-0.62-0.02-0.85-0.03c-0.17-0.01-0.32-0.02-0.44-0.02
			c-0.37-0.02-0.51-0.04-0.51-0.04s0,0.01,0.01,0.02v0c0.03,0.1,0.2,0.57,0.54,1.03c0,0,0,0,0,0c0,0,0,0,0,0h0
			c0.15,0.21,0.35,0.42,0.58,0.6c0.33,0.24,0.73,0.41,1.22,0.41c0.22,0,0.45-0.03,0.7-0.11c0.04-0.01,0.09-0.03,0.14-0.04
			c0.01,0,0.02-0.01,0.03-0.01c0,0-0.01-0.01-0.02-0.03c-0.02-0.03-0.06-0.07-0.11-0.13c-0.13-0.14-0.34-0.36-0.59-0.57
			c-0.26-0.22-0.57-0.42-0.87-0.51c0.15,0.04,0.51,0.15,0.87,0.34C19.28,17.46,19.52,17.62,19.7,17.81z M19.7,17.81
			c0.04,0.04,0.07,0.08,0.1,0.12c0.02,0.03,0.04,0.06,0.06,0.09c0,0-0.01-0.08-0.03-0.2v0c-0.01-0.07-0.04-0.15-0.06-0.24
			c-0.06-0.19-0.16-0.42-0.32-0.62c-0.07-0.09-0.15-0.17-0.24-0.24l0,0c-0.05-0.04-0.1-0.07-0.16-0.11
			c-0.05-0.03-0.1-0.05-0.16-0.08c0,0,0,0,0,0c-0.1-0.04-0.2-0.07-0.31-0.09c-0.07-0.01-0.14-0.02-0.21-0.02
			c-0.34-0.01-0.62-0.02-0.85-0.03c-0.17-0.01-0.32-0.02-0.44-0.02c-0.37-0.02-0.51-0.04-0.51-0.04s0,0.01,0.01,0.02v0
			c0.03,0.1,0.2,0.57,0.54,1.03c0,0,0,0,0,0c0,0,0,0,0,0h0c0.15,0.21,0.35,0.42,0.58,0.6c0.33,0.24,0.73,0.41,1.22,0.41
			c0.22,0,0.45-0.03,0.7-0.11c0.04-0.01,0.09-0.03,0.14-0.04c0.01,0,0.02-0.01,0.03-0.01c0,0-0.01-0.01-0.02-0.03
			c-0.02-0.03-0.06-0.07-0.11-0.13c-0.13-0.14-0.34-0.36-0.59-0.57c-0.26-0.22-0.57-0.42-0.87-0.51c0.15,0.04,0.51,0.15,0.87,0.34
			C19.28,17.46,19.52,17.62,19.7,17.81z M19.7,17.81c0.04,0.04,0.07,0.08,0.1,0.12c0.02,0.03,0.04,0.06,0.06,0.09
			c0,0-0.01-0.08-0.03-0.2v0c-0.01-0.07-0.04-0.15-0.06-0.24c-0.06-0.19-0.16-0.42-0.32-0.62c-0.07-0.09-0.15-0.17-0.24-0.24l0,0
			c-0.05-0.04-0.1-0.07-0.16-0.11c-0.05-0.03-0.1-0.05-0.16-0.08c0,0,0,0,0,0c-0.1-0.04-0.2-0.07-0.31-0.09
			c-0.07-0.01-0.14-0.02-0.21-0.02c-0.34-0.01-0.62-0.02-0.85-0.03c-0.17-0.01-0.32-0.02-0.44-0.02c-0.37-0.02-0.51-0.04-0.51-0.04
			s0,0.01,0.01,0.02v0c0.03,0.1,0.2,0.57,0.54,1.03c0,0,0,0,0,0c0,0,0,0,0,0h0c0.15,0.21,0.35,0.42,0.58,0.6
			c0.33,0.24,0.73,0.41,1.22,0.41c0.22,0,0.45-0.03,0.7-0.11c0.04-0.01,0.09-0.03,0.14-0.04c0.01,0,0.02-0.01,0.03-0.01
			c0,0-0.01-0.01-0.02-0.03c-0.02-0.03-0.06-0.07-0.11-0.13c-0.13-0.14-0.34-0.36-0.59-0.57c-0.26-0.22-0.57-0.42-0.87-0.51
			c0.15,0.04,0.51,0.15,0.87,0.34C19.28,17.46,19.52,17.62,19.7,17.81z M19.7,17.81c0.04,0.04,0.07,0.08,0.1,0.12
			c0.02,0.03,0.04,0.06,0.06,0.09c0,0-0.01-0.08-0.03-0.2v0c-0.01-0.07-0.04-0.15-0.06-0.24c-0.06-0.19-0.16-0.42-0.32-0.62
			c-0.07-0.09-0.15-0.17-0.24-0.24l0,0c-0.05-0.04-0.1-0.07-0.16-0.11c-0.05-0.03-0.1-0.05-0.16-0.08c0,0,0,0,0,0
			c-0.1-0.04-0.2-0.07-0.31-0.09c-0.07-0.01-0.14-0.02-0.21-0.02c-0.34-0.01-0.62-0.02-0.85-0.03c-0.17-0.01-0.32-0.02-0.44-0.02
			c-0.37-0.02-0.51-0.04-0.51-0.04s0,0.01,0.01,0.02v0c0.03,0.1,0.2,0.57,0.54,1.03c0,0,0,0,0,0c0,0,0,0,0,0h0
			c0.15,0.21,0.35,0.42,0.58,0.6c0.33,0.24,0.73,0.41,1.22,0.41c0.22,0,0.45-0.03,0.7-0.11c0.04-0.01,0.09-0.03,0.14-0.04
			c0.01,0,0.02-0.01,0.03-0.01c0,0-0.01-0.01-0.02-0.03c-0.02-0.03-0.06-0.07-0.11-0.13c-0.13-0.14-0.34-0.36-0.59-0.57
			c-0.26-0.22-0.57-0.42-0.87-0.51c0.15,0.04,0.51,0.15,0.87,0.34C19.28,17.46,19.52,17.62,19.7,17.81z M19.7,17.81
			c0.04,0.04,0.07,0.08,0.1,0.12c0.02,0.03,0.04,0.06,0.06,0.09c0,0-0.01-0.08-0.03-0.2v0c-0.01-0.07-0.04-0.15-0.06-0.24
			c-0.06-0.19-0.16-0.42-0.32-0.62c-0.07-0.09-0.15-0.17-0.24-0.24l0,0c-0.05-0.04-0.1-0.07-0.16-0.11
			c-0.05-0.03-0.1-0.05-0.16-0.08c0,0,0,0,0,0c-0.1-0.04-0.2-0.07-0.31-0.09c-0.07-0.01-0.14-0.02-0.21-0.02
			c-0.34-0.01-0.62-0.02-0.85-0.03c-0.17-0.01-0.32-0.02-0.44-0.02c-0.37-0.02-0.51-0.04-0.51-0.04s0,0.01,0.01,0.02v0
			c0.03,0.1,0.2,0.57,0.54,1.03c0,0,0,0,0,0c0,0,0,0,0,0h0c0.15,0.21,0.35,0.42,0.58,0.6c0.33,0.24,0.73,0.41,1.22,0.41
			c0.22,0,0.45-0.03,0.7-0.11c0.04-0.01,0.09-0.03,0.14-0.04c0.01,0,0.02-0.01,0.03-0.01c0,0-0.01-0.01-0.02-0.03
			c-0.02-0.03-0.06-0.07-0.11-0.13c-0.13-0.14-0.34-0.36-0.59-0.57c-0.26-0.22-0.57-0.42-0.87-0.51c0.15,0.04,0.51,0.15,0.87,0.34
			C19.28,17.46,19.52,17.62,19.7,17.81z M19.7,17.81c0.04,0.04,0.07,0.08,0.1,0.12c0.02,0.03,0.04,0.06,0.06,0.09
			c0,0-0.01-0.08-0.03-0.2v0c-0.01-0.07-0.04-0.15-0.06-0.24c-0.06-0.19-0.16-0.42-0.32-0.62c-0.07-0.09-0.15-0.17-0.24-0.24l0,0
			c-0.05-0.04-0.1-0.07-0.16-0.11c-0.05-0.03-0.1-0.05-0.16-0.08c0,0,0,0,0,0c-0.1-0.04-0.2-0.07-0.31-0.09
			c-0.07-0.01-0.14-0.02-0.21-0.02c-0.34-0.01-0.62-0.02-0.85-0.03c-0.17-0.01-0.32-0.02-0.44-0.02c-0.37-0.02-0.51-0.04-0.51-0.04
			s0,0.01,0.01,0.02v0c0.03,0.1,0.2,0.57,0.54,1.03c0,0,0,0,0,0c0,0,0,0,0,0h0c0.15,0.21,0.35,0.42,0.58,0.6
			c0.33,0.24,0.73,0.41,1.22,0.41c0.22,0,0.45-0.03,0.7-0.11c0.04-0.01,0.09-0.03,0.14-0.04c0.01,0,0.02-0.01,0.03-0.01
			c0,0-0.01-0.01-0.02-0.03c-0.02-0.03-0.06-0.07-0.11-0.13c-0.13-0.14-0.34-0.36-0.59-0.57c-0.26-0.22-0.57-0.42-0.87-0.51
			c0.15,0.04,0.51,0.15,0.87,0.34C19.28,17.46,19.52,17.62,19.7,17.81z M19.7,17.81c0.04,0.04,0.07,0.08,0.1,0.12
			c0.02,0.03,0.04,0.06,0.06,0.09c0,0-0.01-0.08-0.03-0.2v0c-0.01-0.07-0.04-0.15-0.06-0.24c-0.06-0.19-0.16-0.42-0.32-0.62
			c-0.07-0.09-0.15-0.17-0.24-0.24l0,0c-0.05-0.04-0.1-0.07-0.16-0.11c-0.05-0.03-0.1-0.05-0.16-0.08c0,0,0,0,0,0
			c-0.1-0.04-0.2-0.07-0.31-0.09c-0.07-0.01-0.14-0.02-0.21-0.02c-0.34-0.01-0.62-0.02-0.85-0.03c-0.17-0.01-0.32-0.02-0.44-0.02
			c-0.37-0.02-0.51-0.04-0.51-0.04s0,0.01,0.01,0.02v0c0.03,0.1,0.2,0.57,0.54,1.03c0,0,0,0,0,0c0,0,0,0,0,0h0
			c0.15,0.21,0.35,0.42,0.58,0.6c0.33,0.24,0.73,0.41,1.22,0.41c0.22,0,0.45-0.03,0.7-0.11c0.04-0.01,0.09-0.03,0.14-0.04
			c0.01,0,0.02-0.01,0.03-0.01c0,0-0.01-0.01-0.02-0.03c-0.02-0.03-0.06-0.07-0.11-0.13c-0.13-0.14-0.34-0.36-0.59-0.57
			c-0.26-0.22-0.57-0.42-0.87-0.51c0.15,0.04,0.51,0.15,0.87,0.34C19.28,17.46,19.52,17.62,19.7,17.81z M19.7,17.81
			c0.04,0.04,0.07,0.08,0.1,0.12c0.02,0.03,0.04,0.06,0.06,0.09c0,0-0.01-0.08-0.03-0.2v0c-0.01-0.07-0.04-0.15-0.06-0.24
			c-0.06-0.19-0.16-0.42-0.32-0.62c-0.07-0.09-0.15-0.17-0.24-0.24l0,0c-0.05-0.04-0.1-0.07-0.16-0.11
			c-0.05-0.03-0.1-0.05-0.16-0.08c0,0,0,0,0,0c-0.1-0.04-0.2-0.07-0.31-0.09c-0.07-0.01-0.14-0.02-0.21-0.02
			c-0.34-0.01-0.62-0.02-0.85-0.03c-0.17-0.01-0.32-0.02-0.44-0.02c-0.37-0.02-0.51-0.04-0.51-0.04s0,0.01,0.01,0.02v0
			c0.03,0.1,0.2,0.57,0.54,1.03c0,0,0,0,0,0c0,0,0,0,0,0h0c0.15,0.21,0.35,0.42,0.58,0.6c0.33,0.24,0.73,0.41,1.22,0.41
			c0.22,0,0.45-0.03,0.7-0.11c0.04-0.01,0.09-0.03,0.14-0.04c0.01,0,0.02-0.01,0.03-0.01c0,0-0.01-0.01-0.02-0.03
			c-0.02-0.03-0.06-0.07-0.11-0.13c-0.13-0.14-0.34-0.36-0.59-0.57c-0.26-0.22-0.57-0.42-0.87-0.51c0.15,0.04,0.51,0.15,0.87,0.34
			C19.28,17.46,19.52,17.62,19.7,17.81z M19.7,17.81c0.04,0.04,0.07,0.08,0.1,0.12c0.02,0.03,0.04,0.06,0.06,0.09
			c0,0-0.01-0.08-0.03-0.2v0c-0.01-0.07-0.04-0.15-0.06-0.24c-0.06-0.19-0.16-0.42-0.32-0.62c-0.07-0.09-0.15-0.17-0.24-0.24l0,0
			c-0.05-0.04-0.1-0.07-0.16-0.11c-0.05-0.03-0.1-0.05-0.16-0.08c0,0,0,0,0,0c-0.1-0.04-0.2-0.07-0.31-0.09
			c-0.07-0.01-0.14-0.02-0.21-0.02c-0.34-0.01-0.62-0.02-0.85-0.03c-0.17-0.01-0.32-0.02-0.44-0.02c-0.37-0.02-0.51-0.04-0.51-0.04
			s0,0.01,0.01,0.02v0c0.03,0.1,0.2,0.57,0.54,1.03c0,0,0,0,0,0c0,0,0,0,0,0h0c0.15,0.21,0.35,0.42,0.58,0.6
			c0.33,0.24,0.73,0.41,1.22,0.41c0.22,0,0.45-0.03,0.7-0.11c0.04-0.01,0.09-0.03,0.14-0.04c0.01,0,0.02-0.01,0.03-0.01
			c0,0-0.01-0.01-0.02-0.03c-0.02-0.03-0.06-0.07-0.11-0.13c-0.13-0.14-0.34-0.36-0.59-0.57c-0.26-0.22-0.57-0.42-0.87-0.51
			c0.15,0.04,0.51,0.15,0.87,0.34C19.28,17.46,19.52,17.62,19.7,17.81z M19.7,17.81c0.04,0.04,0.07,0.08,0.1,0.12
			c0.02,0.03,0.04,0.06,0.06,0.09c0,0-0.01-0.08-0.03-0.2v0c-0.01-0.07-0.04-0.15-0.06-0.24c-0.06-0.19-0.16-0.42-0.32-0.62
			c-0.07-0.09-0.15-0.17-0.24-0.24l0,0c-0.05-0.04-0.1-0.07-0.16-0.11c-0.05-0.03-0.1-0.05-0.16-0.08c0,0,0,0,0,0
			c-0.1-0.04-0.2-0.07-0.31-0.09c-0.07-0.01-0.14-0.02-0.21-0.02c-0.34-0.01-0.62-0.02-0.85-0.03c-0.17-0.01-0.32-0.02-0.44-0.02
			c-0.37-0.02-0.51-0.04-0.51-0.04s0,0.01,0.01,0.02v0c0.03,0.1,0.2,0.57,0.54,1.03c0,0,0,0,0,0c0,0,0,0,0,0h0
			c0.15,0.21,0.35,0.42,0.58,0.6c0.33,0.24,0.73,0.41,1.22,0.41c0.22,0,0.45-0.03,0.7-0.11c0.04-0.01,0.09-0.03,0.14-0.04
			c0.01,0,0.02-0.01,0.03-0.01c0,0-0.01-0.01-0.02-0.03c-0.02-0.03-0.06-0.07-0.11-0.13c-0.13-0.14-0.34-0.36-0.59-0.57
			c-0.26-0.22-0.57-0.42-0.87-0.51c0.15,0.04,0.51,0.15,0.87,0.34C19.28,17.46,19.52,17.62,19.7,17.81z M19.83,17.82L19.83,17.82
			c-0.01-0.07-0.04-0.15-0.06-0.24c-0.06-0.19-0.16-0.42-0.32-0.62c-0.07-0.09-0.15-0.17-0.24-0.24l0,0
			c-0.05-0.04-0.1-0.07-0.16-0.11c-0.05-0.03-0.1-0.05-0.16-0.08c0,0,0,0,0,0c-0.1-0.04-0.2-0.07-0.31-0.09
			c-0.07-0.01-0.14-0.02-0.21-0.02c-0.34-0.01-0.62-0.02-0.85-0.03c-0.17-0.01-0.32-0.02-0.44-0.02c-0.37-0.02-0.51-0.04-0.51-0.04
			s0,0.01,0.01,0.02v0c0.03,0.1,0.2,0.57,0.54,1.03c0,0,0,0,0,0c0,0,0,0,0,0h0c0.15,0.21,0.35,0.42,0.58,0.6
			c0.33,0.24,0.73,0.41,1.22,0.41c0.22,0,0.45-0.03,0.7-0.11c0.01-0.07,0.02-0.14,0.03-0.21c-0.13-0.14-0.34-0.36-0.59-0.57
			c-0.26-0.22-0.57-0.42-0.87-0.51c0.15,0.04,0.51,0.15,0.87,0.34c0.23,0.12,0.47,0.28,0.65,0.47c0.04,0.04,0.07,0.08,0.1,0.12
			c0.02,0.03,0.04,0.06,0.06,0.09C19.86,18.03,19.86,17.95,19.83,17.82z M19.05,17.51c-0.26-0.22-0.57-0.42-0.87-0.51
			c0.15,0.04,0.51,0.15,0.87,0.34V16.8c-0.18-0.09-0.33-0.21-0.48-0.34c-0.07-0.01-0.14-0.02-0.21-0.02
			c-0.34-0.01-0.62-0.02-0.85-0.03c-0.17-0.01-0.32-0.02-0.44-0.02c-0.37-0.02-0.51-0.04-0.51-0.04s0,0.01,0.01,0.02v0
			c0.03,0.1,0.2,0.57,0.54,1.03c0,0,0,0,0,0c0,0,0,0,0,0h0c0.15,0.21,0.35,0.42,0.58,0.6c0.33,0.24,0.73,0.41,1.22,0.41
			c0.22,0,0.45-0.03,0.7-0.11c0.01-0.07,0.02-0.14,0.03-0.21C19.51,17.94,19.3,17.72,19.05,17.51z M17.07,16.38
			c-0.37-0.02-0.51-0.04-0.51-0.04s0,0.01,0.01,0.02v0c0.03,0.1,0.2,0.57,0.54,1.03c0,0,0,0,0,0c0,0,0,0,0,0h0l0.4-0.98
			C17.34,16.4,17.19,16.39,17.07,16.38z"/>
		<path class="st0" d="M19.6,16.75c-0.12-0.04-0.22-0.08-0.32-0.13h0c-0.07-0.05-0.14-0.1-0.22-0.14c-0.03-0.02-0.06-0.03-0.1-0.05
			c-0.09-0.07-0.18-0.14-0.25-0.21c0.12,0.03,0.24,0.06,0.35,0.11C19.26,16.43,19.44,16.57,19.6,16.75z"/>
		<path class="st0" d="M17.68,8.99c0,0-0.01-0.04-0.12-0.13c-0.11-0.09-0.59,0.01-0.72-0.06c-0.1-0.05-0.25,0-0.33,0.03
			c-0.01,0.01-0.03-0.01-0.02-0.02c0.09-0.1,0.32-0.33,0.7-0.37C17.69,8.38,17.68,8.99,17.68,8.99z"/>
		<path class="st0" d="M16.21,8.24c1.15-0.69,1.62-0.14,1.7-0.04c0,0,0,0.01-0.01,0.01c-0.68-0.23-1.48-0.02-1.69,0.04
			C16.21,8.26,16.2,8.24,16.21,8.24z"/>
		<path class="st0" d="M18.2,11.42c0.13,0,0.24-0.02,0.32-0.04c-0.03,0.16-0.17,0.27-0.33,0.27c-0.16-0.01-0.32-0.28-0.33-0.3
			C17.94,11.38,18.06,11.42,18.2,11.42z"/>
		<path class="st0" d="M19.08,10.73c0,0-0.85,0.69-1.5,0.03c-0.14-0.14-0.28-0.35-0.39-0.65c0.02,0.05,0.18,0.36,0.64,0.53
			C18.11,10.76,18.52,10.82,19.08,10.73z"/>
		<path class="st0" d="M19.62,8.16L19.62,8.16c0,0.09,0,0.18-0.02,0.26c0,0,0,0,0,0c0,0-0.54-0.16-0.69,0.16
			c-0.02,0.04-0.03,0.07-0.03,0.12c0,0,0.41-0.08,0.63,0.12v0c-0.02,0.08-0.04,0.16-0.06,0.23c-0.01-0.01-0.03-0.03-0.05-0.05
			c-0.03-0.02-0.06-0.04-0.07-0.02c-0.02,0.03-0.14,0.19-0.4,0c-0.01,0-0.03-0.01-0.05-0.03c0.04,0.28,0.17,0.61,0.18,0.86
			c0,0.09-0.04,0.17-0.11,0.23c0,0,0,0,0,0c-0.08,0.07-0.18,0.12-0.28,0.16c0,0,0,0,0,0c-0.19,0.07-0.38,0.08-0.35,0.01
			c0.06-0.15,0.48-0.28,0.48-0.43c0.01-0.15-0.26-0.87-0.13-1.33C18.8,8.01,19.62,8.16,19.62,8.16z"/>
		<path class="st0" d="M17.07,16.38l-0.12,0.27l-0.38-0.29v0c0-0.01-0.01-0.02-0.01-0.02S16.7,16.36,17.07,16.38z"/>
		<path class="st0" d="M19.05,16.48v0.02c-0.03-0.02-0.07-0.04-0.1-0.07C18.99,16.45,19.02,16.46,19.05,16.48z"/>
		<path class="st0" d="M19.05,16.63v0.71c-0.36-0.19-0.72-0.3-0.87-0.34c0.3,0.09,0.61,0.29,0.87,0.51v0.44l-1.36,0.04
			c-0.23-0.17-0.43-0.38-0.58-0.6l0.4-0.98c0.23,0.01,0.51,0.02,0.85,0.03c0.07,0,0.15,0.01,0.21,0.02
			c0.11,0.02,0.22,0.05,0.31,0.09c0,0,0,0,0,0C18.95,16.57,19,16.6,19.05,16.63z"/>
		<g>
			<g>
				<path class="st0" d="M22.75,13.64c0,0.02-0.01,0.04-0.01,0.05 M22.76,13.61C22.76,13.62,22.76,13.62,22.76,13.61
					C22.76,13.62,22.76,13.62,22.76,13.61c0,0.01,0,0.02-0.01,0.03c0,0.02-0.01,0.04-0.01,0.05c0,0.01,0,0.02-0.01,0.03
					 M20.87,16.37c0,0,0.01,0,0.01,0c0.02,0,0.03,0,0.05,0c0.03-0.04,0.06-0.08,0.09-0.12C21.02,16.25,20.96,16.29,20.87,16.37z
					 M21.15,16.49C21.15,16.49,21.16,16.49,21.15,16.49c0.01,0,0.01,0,0.01-0.01C21.16,16.49,21.16,16.49,21.15,16.49z"/>
				<path class="st0" d="M23.72,11.33c0,0-0.09,0.64-0.16,2.68c-0.05,1.67-1.61,2.1-2.17,2.21c-0.04,0.01-0.08,0.01-0.11,0.02
					c-0.05,0.01-0.08,0.01-0.08,0.01c0.03-0.02,0.05-0.03,0.08-0.05c0.02-0.01,0.04-0.03,0.06-0.04c0.87-0.66,1.29-2.01,1.39-2.41
					c-0.25,0.88-1.17,1.78-1.61,2.18c-0.03,0.03-0.06,0.05-0.09,0.08c-0.09,0.08-0.15,0.13-0.15,0.13
					c-0.01-0.02-0.02-0.05-0.02-0.07c-0.06-0.18-0.1-0.35-0.14-0.51C20.1,12.42,23.72,11.33,23.72,11.33z"/>
			</g>
			<g>
				<path class="st0" d="M19.21,16.73c-0.05-0.02-0.11-0.05-0.16-0.08c-0.05-0.03-0.11-0.06-0.16-0.1c0.06,0.02,0.11,0.05,0.16,0.08
					C19.11,16.66,19.16,16.69,19.21,16.73z"/>
				<path class="st0" d="M19.27,16.62c-0.08-0.04-0.15-0.08-0.22-0.12c-0.03-0.02-0.07-0.04-0.1-0.07c0.03,0.01,0.07,0.03,0.1,0.05
					C19.13,16.52,19.2,16.57,19.27,16.62z"/>
				<path class="st0" d="M20.14,16.82C20.15,16.82,20.15,16.82,20.14,16.82C20.15,16.82,20.15,16.82,20.14,16.82
					C20.15,16.82,20.15,16.82,20.14,16.82C20.15,16.82,20.15,16.82,20.14,16.82z M19.05,16.48c-0.03-0.02-0.06-0.03-0.1-0.05
					c0.03,0.02,0.06,0.04,0.1,0.07c0.07,0.04,0.14,0.08,0.22,0.12C19.2,16.57,19.13,16.52,19.05,16.48z M19.21,16.73L19.21,16.73
					c-0.05-0.04-0.1-0.07-0.16-0.11c-0.05-0.03-0.1-0.05-0.16-0.08c0,0,0,0,0,0c-0.1-0.04-0.2-0.07-0.31-0.09
					c0.14,0.13,0.3,0.24,0.48,0.34c0.12,0.07,0.26,0.12,0.39,0.17C19.38,16.88,19.3,16.8,19.21,16.73z M19.05,16.48
					c-0.03-0.02-0.06-0.03-0.1-0.05c0.03,0.02,0.06,0.04,0.1,0.07c0.07,0.04,0.14,0.08,0.22,0.12
					C19.2,16.57,19.13,16.52,19.05,16.48z M19.13,14.93L19.13,14.93L19.13,14.93c0.02,0.02,0.04,0.03,0.06,0.05 M19.27,16.62
					L19.27,16.62 M19.27,16.62L19.27,16.62 M18.95,16.43c0.03,0.02,0.06,0.04,0.1,0.07c0.07,0.04,0.14,0.08,0.22,0.12 M19.27,16.62
					L19.27,16.62"/>
				<path class="st0" d="M19.18,14.98c0.59,0.57,0.83,1.86,0.83,1.86c-0.15-0.02-0.29-0.06-0.42-0.1c-0.15-0.18-0.34-0.32-0.55-0.41
					c-0.11-0.05-0.23-0.09-0.35-0.11c-0.32-0.31-0.49-0.7-0.59-1.08c-0.05-0.19-0.07-0.37-0.09-0.55c-0.04-0.54,0.04-0.97,0.04-0.97
					s0.35,0.26,1.55,0.95c0.26,0.15,0.43,0.33,0.54,0.53c0.42,0.72,0.03,1.6,0.03,1.6C20.14,15.93,19.4,15.18,19.18,14.98z"/>
			</g>
			<g>
				<path class="st0" d="M19.27,16.62c-0.08-0.04-0.15-0.08-0.22-0.12c-0.03-0.02-0.07-0.04-0.1-0.07c0.03,0.01,0.07,0.03,0.1,0.05
					C19.13,16.52,19.2,16.57,19.27,16.62z"/>
				<path class="st0" d="M19.05,17.34c-0.36-0.19-0.72-0.3-0.87-0.34c0.3,0.09,0.61,0.29,0.87,0.51c0.25,0.21,0.46,0.43,0.59,0.57
					c0.05,0.06,0.09,0.1,0.11,0.13c0.02,0.02,0.02,0.03,0.02,0.03c-0.01,0-0.02,0.01-0.03,0.01c-0.05,0.02-0.09,0.03-0.14,0.04
					c-0.25,0.07-0.49,0.11-0.7,0.11c-0.49,0-0.9-0.17-1.22-0.41c-0.23-0.17-0.43-0.38-0.58-0.6h0c0,0,0,0,0,0c0,0,0,0,0,0
					c-0.34-0.46-0.5-0.93-0.54-1.03v0c0-0.01-0.01-0.02-0.01-0.02s0.14,0.02,0.51,0.04c0.12,0.01,0.27,0.02,0.44,0.02
					c0.23,0.01,0.51,0.02,0.85,0.03c0.07,0,0.15,0.01,0.21,0.02c0.11,0.02,0.22,0.05,0.31,0.09c0,0,0,0,0,0
					c0.06,0.02,0.11,0.05,0.16,0.08c0.06,0.03,0.11,0.07,0.16,0.11l0,0c0.09,0.07,0.17,0.15,0.24,0.24c0.16,0.2,0.26,0.43,0.32,0.62
					c0.03,0.09,0.05,0.17,0.06,0.24v0c0.03,0.12,0.03,0.2,0.03,0.2c-0.02-0.03-0.04-0.06-0.06-0.09c-0.03-0.04-0.07-0.08-0.1-0.12
					C19.52,17.62,19.28,17.46,19.05,17.34z"/>
				<polygon class="st0" points="19.89,18.15 19.89,18.16 19.88,18.16 				"/>
				<path class="st0" d="M19.9,18.27c-0.01,0.02-0.02,0.04-0.04,0.06c0-0.06,0.01-0.11,0.02-0.16C19.91,18.2,19.91,18.24,19.9,18.27
					z"/>
				<path class="st0" d="M19.99,18.02c0,0.06-0.03,0.11-0.09,0.13c-0.01,0-0.01,0-0.02,0c0.02-0.11,0.04-0.23,0.07-0.33
					C19.99,17.94,19.99,18.01,19.99,18.02z"/>
				<path class="st0" d="M20.04,17.59c-0.03,0.07-0.05,0.15-0.08,0.23c-0.03,0.1-0.05,0.22-0.07,0.33c0,0-0.01,0-0.01,0
					c0,0,0.01,0.01,0.01,0.01v0c-0.01,0.05-0.02,0.11-0.02,0.16v0c0,0.05-0.01,0.1-0.01,0.15c0,0,0,0,0.01,0
					c0.08-0.03,0.14-0.09,0.16-0.17c0.01-0.03,0.01-0.06,0.01-0.09c0.06-0.05,0.09-0.13,0.09-0.22
					C20.12,17.99,20.11,17.82,20.04,17.59z M19.7,17.81c0.04,0.04,0.07,0.08,0.1,0.12c0.02,0.03,0.04,0.06,0.06,0.09
					c0,0-0.01-0.08-0.03-0.2v0c-0.01-0.07-0.04-0.15-0.06-0.24c-0.06-0.19-0.16-0.42-0.32-0.62c-0.07-0.09-0.15-0.17-0.24-0.24l0,0
					c-0.05-0.04-0.1-0.07-0.16-0.11c-0.05-0.03-0.1-0.05-0.16-0.08c0,0,0,0,0,0c-0.1-0.04-0.2-0.07-0.31-0.09
					c-0.07-0.01-0.14-0.02-0.21-0.02c-0.34-0.01-0.62-0.02-0.85-0.03c-0.17-0.01-0.32-0.02-0.44-0.02
					c-0.37-0.02-0.51-0.04-0.51-0.04s0,0.01,0.01,0.02v0c0.03,0.1,0.2,0.57,0.54,1.03c0,0,0,0,0,0c0,0,0,0,0,0h0
					c0.15,0.21,0.35,0.42,0.58,0.6c0.33,0.24,0.73,0.41,1.22,0.41c0.22,0,0.45-0.03,0.7-0.11c0.04-0.01,0.09-0.03,0.14-0.04
					c0.01,0,0.02-0.01,0.03-0.01c0,0-0.01-0.01-0.02-0.03c-0.02-0.03-0.06-0.07-0.11-0.13c-0.13-0.14-0.34-0.36-0.59-0.57
					c-0.26-0.22-0.57-0.42-0.87-0.51c0.15,0.04,0.51,0.15,0.87,0.34C19.28,17.46,19.52,17.62,19.7,17.81z M19.05,16.48
					c-0.03-0.02-0.06-0.03-0.1-0.05c0.03,0.02,0.06,0.04,0.1,0.07c0.07,0.04,0.14,0.08,0.22,0.12
					C19.2,16.57,19.13,16.52,19.05,16.48z M19.7,17.81c0.04,0.04,0.07,0.08,0.1,0.12c0.02,0.03,0.04,0.06,0.06,0.09
					c0,0-0.01-0.08-0.03-0.2v0c-0.01-0.07-0.04-0.15-0.06-0.24c-0.06-0.19-0.16-0.42-0.32-0.62c-0.07-0.09-0.15-0.17-0.24-0.24l0,0
					c-0.05-0.04-0.1-0.07-0.16-0.11c-0.05-0.03-0.1-0.05-0.16-0.08c0,0,0,0,0,0c-0.1-0.04-0.2-0.07-0.31-0.09
					c-0.07-0.01-0.14-0.02-0.21-0.02c-0.34-0.01-0.62-0.02-0.85-0.03c-0.17-0.01-0.32-0.02-0.44-0.02
					c-0.37-0.02-0.51-0.04-0.51-0.04s0,0.01,0.01,0.02v0c0.03,0.1,0.2,0.57,0.54,1.03c0,0,0,0,0,0c0,0,0,0,0,0h0
					c0.15,0.21,0.35,0.42,0.58,0.6c0.33,0.24,0.73,0.41,1.22,0.41c0.22,0,0.45-0.03,0.7-0.11c0.04-0.01,0.09-0.03,0.14-0.04
					c0.01,0,0.02-0.01,0.03-0.01c0,0-0.01-0.01-0.02-0.03c-0.02-0.03-0.06-0.07-0.11-0.13c-0.13-0.14-0.34-0.36-0.59-0.57
					c-0.26-0.22-0.57-0.42-0.87-0.51c0.15,0.04,0.51,0.15,0.87,0.34C19.28,17.46,19.52,17.62,19.7,17.81z M18.1,16.98
					c0,0,0.01,0,0.01,0c0.01,0,0.02,0.01,0.05,0.01c0.01,0,0.01,0,0.02,0 M19.05,16.63c0.06,0.03,0.11,0.07,0.16,0.11l0,0
					c0.09,0.07,0.17,0.15,0.24,0.24c0.16,0.2,0.26,0.43,0.32,0.62c0.03,0.09,0.05,0.17,0.06,0.24v0c0.03,0.12,0.03,0.2,0.03,0.2
					c-0.02-0.03-0.04-0.06-0.06-0.09c-0.03-0.04-0.07-0.08-0.1-0.12c-0.18-0.2-0.42-0.35-0.65-0.47c-0.36-0.19-0.72-0.3-0.87-0.34
					c0.3,0.09,0.61,0.29,0.87,0.51c0.25,0.21,0.46,0.43,0.59,0.57c0.05,0.06,0.09,0.1,0.11,0.13c0.02,0.02,0.02,0.03,0.02,0.03
					c-0.01,0-0.02,0.01-0.03,0.01c-0.05,0.02-0.09,0.03-0.14,0.04c-0.25,0.07-0.49,0.11-0.7,0.11c-0.49,0-0.9-0.17-1.22-0.41
					c-0.23-0.17-0.43-0.38-0.58-0.6h0c0,0,0,0,0,0c0,0,0,0,0,0c-0.34-0.46-0.5-0.93-0.54-1.03v0c0-0.01-0.01-0.02-0.01-0.02
					s0.14,0.02,0.51,0.04c0.12,0.01,0.27,0.02,0.44,0.02c0.23,0.01,0.51,0.02,0.85,0.03c0.07,0,0.15,0.01,0.21,0.02
					c0.11,0.02,0.22,0.05,0.31,0.09c0,0,0,0,0,0C18.95,16.57,19,16.6,19.05,16.63"/>
			</g>
			<g>
				<path class="st0" d="M21.16,16.49C21.16,16.49,21.16,16.49,21.16,16.49c-0.01,0.01-0.01,0.01-0.01,0.01
					C21.16,16.49,21.16,16.49,21.16,16.49z"/>
				<path class="st0" d="M22.1,16.94c-0.04,0.01-0.08,0.03-0.11,0.05c0,0,0,0,0,0C22.03,16.97,22.07,16.95,22.1,16.94z"/>
				<path class="st0" d="M21.15,16.49C21.15,16.49,21.16,16.49,21.15,16.49c0.01,0,0.01,0,0.01-0.01
					C21.16,16.49,21.16,16.49,21.15,16.49z M21.99,16.98C21.99,16.98,21.99,16.99,21.99,16.98c0.04-0.01,0.08-0.03,0.12-0.04
					C22.07,16.95,22.03,16.97,21.99,16.98z M20.42,17.17c-0.2,0.45-0.21,0.88-0.21,0.9c0,0.06,0.02,0.11,0.05,0.16
					c0.03-0.45,0.15-0.98,0.46-1.53C20.6,16.84,20.5,17,20.42,17.17z M22.11,16.94c0.01,0,0.01,0,0.02-0.01c0.01,0,0.01,0,0.02-0.01
					c0,0,0,0,0.01,0c0,0,0.01,0,0.01,0c0,0,0,0,0,0c0,0,0,0,0,0"/>
				<path class="st0" d="M23.69,16.17c0,0-0.27,1.13-1.09,1.78c-0.33,0.26-0.75,0.44-1.28,0.44c-0.23,0-0.48-0.03-0.75-0.11
					c0,0,0.69-0.97,1.42-1.3c0.04-0.02,0.07-0.03,0.11-0.05c-0.03,0.01-0.07,0.02-0.12,0.04c-0.35,0.13-1.07,0.44-1.44,0.97
					c-0.03,0.04-0.06,0.08-0.08,0.13c0,0,0.02-0.72,0.46-1.22c0.16-0.18,0.37-0.33,0.66-0.41c0.09-0.02,0.19-0.04,0.29-0.05
					C23.26,16.26,23.69,16.17,23.69,16.17z"/>
			</g>
			<g>
				<path class="st0" d="M19.78,18.24c-0.01,0-0.02,0.01-0.03,0.01c0-0.01,0-0.03,0-0.04C19.77,18.23,19.78,18.24,19.78,18.24z"/>
				<path class="st0" d="M19.86,18.03c-0.02-0.03-0.04-0.06-0.06-0.09c0.01-0.04,0.02-0.08,0.03-0.12
					C19.86,17.95,19.86,18.03,19.86,18.03z"/>
				<path class="st0" d="M20.15,17.06c-0.01,0.01-0.01,0.02-0.02,0.03C20.14,17.09,20.15,17.07,20.15,17.06L20.15,17.06z"/>
			</g>
		</g>
		<g>
			<path class="st0" d="M19.09,22.27c2.7,0.25,4.69-0.44,4.69-0.44l0.12-0.94c-1.24,0.15-2.51,0.23-3.76,0.23h-0.07
				c-1.23,0-2.47-0.08-3.69-0.23l0.16,1.25c0.23-0.14,0.45-0.26,0.61-0.39c0.39-0.32,0.56-0.47,0.56-0.47s0.08,0.04,0.12,0.26
				c0.03,0.22-0.4,0.66-0.72,1c-0.32,0.34-0.24,0.4-0.24,0.4c0.62,0.99,2.61,0.86,2.39,1.12c-0.22,0.26-1.67,0.08-1.67,0.08
				c0.48,0.41,1.81,0.41,1.43,0.56c-0.38,0.15-1.56-0.01-1.56-0.01c0.29,0.2,1,0.29,1.2,0.26c0.2-0.03,0.34,0.05,0.24,0.12
				c-0.63,0.28-1.33,0.28-1.95,0.18l0.03,0.25c0.03,0.25,0.24,0.45,0.5,0.48c0.28,0.04,0.57,0.06,0.85,0.1
				c0.61,0.08,1.22,0.13,1.83,0.13c0.43,0,0.86-0.02,1.28-0.06c0.11-0.01,0.22-0.02,0.33-0.04c0.34-0.04,0.68-0.08,1.03-0.12
				c0.27-0.03,0.47-0.23,0.51-0.48l0.23-1.8c-0.06,0.01-0.12,0.03-0.17,0.04c-1.68,0.4-3,0.11-3.67-0.12
				c-0.08-0.03-0.06-0.15,0.03-0.14c2.1,0.19,3.68-0.29,3.89-0.36v0l0.08-0.6c-2.13,0.56-3.79,0.2-4.63-0.08
				C18.95,22.41,18.99,22.26,19.09,22.27z"/>
		</g>
		<g>
			<path class="st0" d="M24.33,19.37v0.86c0,0.11-0.04,0.21-0.12,0.28c-0.04,0.04-0.09,0.07-0.14,0.09
				c-0.03,0.01-0.05,0.02-0.08,0.02c-0.02,0-0.03,0-0.05,0.01c-0.03,0-0.05,0.01-0.08,0.01c-1.12,0.14-2.37,0.23-3.71,0.23h-0.07
				c-1.35,0-2.6-0.1-3.72-0.23c-0.02,0-0.03,0-0.05-0.01c-0.03,0-0.06-0.01-0.08-0.02c-0.05-0.02-0.1-0.05-0.14-0.09
				c-0.07-0.07-0.12-0.17-0.12-0.28v-0.86c0-0.22,0.18-0.39,0.39-0.39c0.01,0,0.02,0,0.02,0c1.04,0.06,2.13,0.11,3.26,0.11
				c0.04,0,0.09,0,0.13,0c0.04,0,0.09,0,0.13,0c0.07,0,0.15,0,0.22,0h0.02c0.05,0,0.11,0,0.16,0c0.04,0,0.09,0,0.13,0
				c0.04,0,0.09,0,0.13,0c0.89-0.01,1.75-0.03,2.59-0.07c0.26-0.01,0.51-0.03,0.76-0.04c0.01,0,0.02,0,0.02,0
				C24.15,18.97,24.33,19.15,24.33,19.37z"/>
		</g>
		<path class="st0" d="M16.31,3.21c-0.19-0.11-0.41-0.13-0.62-0.06c-0.73,0.24-2.5,0.9-3.51,1.95c-0.11,0.11-0.19,0.26-0.23,0.41
			c-0.09,0.34-0.24,1.03-0.29,1.84c2.53-2.98,4.96-3.09,4.96-3.09c-2.64,0.61-4.29,2.83-4.85,3.71c0.56-0.6,2.99-2.99,6.76-3.51
			L16.31,3.21z"/>
		<path class="st0" d="M17.68,8.99c0,0-0.01-0.04-0.12-0.13c-0.11-0.09-0.59,0.01-0.72-0.06c-0.1-0.05-0.25,0-0.33,0.03
			c-0.01,0.01-0.03-0.01-0.02-0.02c0.09-0.1,0.32-0.33,0.7-0.37C17.69,8.38,17.68,8.99,17.68,8.99z"/>
		<path class="st0" d="M17.9,8.21c-0.68-0.23-1.48-0.02-1.69,0.04c-0.01,0-0.01-0.01,0-0.01C17.36,7.55,17.83,8.1,17.9,8.21
			C17.91,8.21,17.9,8.21,17.9,8.21z"/>
		<path class="st0" d="M19.62,8.3c0,0.05-0.01,0.09-0.02,0.13c0,0,0,0,0,0c0,0-0.54-0.16-0.69,0.16c-0.02,0.04-0.03,0.07-0.03,0.12
			c-0.01,0.08-0.01,0.16,0,0.25v0c0.04,0.28,0.17,0.61,0.18,0.86c0,0.09-0.04,0.17-0.11,0.23c0,0,0,0,0,0
			c-0.08,0.07-0.18,0.12-0.28,0.16c0,0,0,0,0,0c-0.19,0.07-0.38,0.08-0.35,0.01c0.06-0.15,0.48-0.28,0.48-0.43
			c0.01-0.15-0.26-0.87-0.13-1.33c0.13-0.45,0.95-0.3,0.95-0.3v0C19.62,8.2,19.63,8.25,19.62,8.3z"/>
		<path class="st0" d="M19.5,8.83L19.5,8.83c0,0.03,0,0.06-0.01,0.1c-0.01,0.06-0.03,0.1-0.05,0.13c-0.01-0.01-0.03-0.03-0.05-0.05
			c-0.03-0.02-0.06-0.04-0.07-0.02c-0.02,0.03-0.14,0.19-0.4,0c-0.01,0-0.03-0.01-0.05-0.03v0c-0.01-0.01-0.03-0.03-0.04-0.05
			c-0.03-0.06-0.02-0.14,0.04-0.2C18.87,8.71,19.29,8.63,19.5,8.83z"/>
		<path class="st0" d="M19.08,10.73c0,0-0.85,0.69-1.5,0.03c-0.14-0.14-0.28-0.35-0.39-0.65c0.02,0.05,0.18,0.36,0.64,0.53
			C18.11,10.76,18.52,10.82,19.08,10.73z"/>
		<path class="st0" d="M18.52,11.39c-0.03,0.16-0.17,0.27-0.33,0.27c-0.16-0.01-0.32-0.28-0.33-0.3c0.07,0.03,0.19,0.06,0.33,0.07
			C18.33,11.43,18.44,11.41,18.52,11.39z"/>
		<path class="st0" d="M18.93,8.88L18.93,8.88z"/>
	</g>
	<path class="st0" d="M11.22,7.72c0,0-1.19-0.92-2.5-0.31C8.72,7.42,10.39,9.03,11.22,7.72z"/>
	<path class="st0" d="M11.15,7.34c0,0-0.01-0.78-0.68-1.11C10.47,6.23,10.36,7.42,11.15,7.34z"/>
</g>
</svg>
