<?xml version="1.0" encoding="utf-8"?>
<!-- Generator: Adobe Illustrator 28.3.0, SVG Export Plug-In . SVG Version: 6.00 Build 0)  -->
<svg version="1.1" id="Layer_1" xmlns="http://www.w3.org/2000/svg" xmlns:xlink="http://www.w3.org/1999/xlink" x="0px" y="0px"
	 viewBox="0 0 64 64" style="enable-background:new 0 0 64 64;" xml:space="preserve">
<style type="text/css">
	.st0{fill:#2B623D;}
</style>
<g>
	<g>
		<path class="st0" d="M33.69,17.6c-0.19-0.09-0.5,0-0.66,0.07c-0.03,0.01-0.06-0.02-0.03-0.05c0.17-0.2,0.64-0.65,1.4-0.74
			c0.99-0.12,0.97,1.1,0.97,1.1s-0.01-0.09-0.23-0.26C34.92,17.54,33.96,17.73,33.69,17.6z"/>
		<path class="st0" d="M35.66,21.3c-0.16,0.08-0.32,0.15-0.48,0.23c0,0,0,0-0.01,0c-0.29-0.29-0.55-0.7-0.78-1.29
			C34.43,20.34,34.74,20.95,35.66,21.3z"/>
		<path class="st0" d="M35.81,16.41c0.01,0.01,0,0.02-0.01,0.02c-1.37-0.47-2.96-0.04-3.37,0.08c-0.01,0-0.02-0.02-0.01-0.02
			C34.72,15.1,35.66,16.2,35.81,16.41z"/>
		<path class="st0" d="M44.3,11.6c-1.2-2.61-7.23-2.39-13.48,0.49c-6.24,2.87-10.33,7.32-9.13,9.93c0.71,1.55,3.14,2.1,6.31,1.69
			c0.83-0.11,1.72-0.29,2.64-0.53c-0.6-0.71-1-1.64-1.03-2.87c0,0-1.85-0.71-1.44-2.14c0.4-1.37,3.1,0.25,5.47-3.91
			c0.2-0.35,0.54-0.61,0.91-0.77c0.83-0.36,2.39-0.65,4.24,0.8c0.17,0.13,0.27,0.33,0.29,0.54c0.02,0.33,0.06,0.86,0.13,1.38
			c0.01,0.04,0.01,0.08,0.01,0.13c0,0-1.62-0.3-1.89,0.6c-0.27,0.9,0.27,2.35,0.25,2.65c-0.02,0.3-0.84,0.56-0.97,0.86
			c-0.06,0.15,0.31,0.13,0.7-0.01c0,0,0,0,0,0c0.19-0.11,0.38-0.21,0.56-0.32c0,0,0,0,0,0c0.14-0.13,0.24-0.29,0.23-0.47
			c-0.02-0.49-0.29-1.15-0.37-1.71c0.04,0.03,0.08,0.05,0.1,0.06c0.51,0.37,0.74,0.07,0.79,0c0.02-0.03,0.09,0,0.14,0.05
			c0.05,0.04,0.09,0.07,0.11,0.1c-0.02,0.11-0.02,0.21-0.01,0.29c0.03,0.21,0.12,0.56,0.18,0.94c0.36-0.24,0.7-0.48,1.03-0.73
			C43.38,16.17,45.15,13.43,44.3,11.6z M39,17.66c-0.43-0.4-1.26-0.24-1.26-0.24c0.01-0.08,0.04-0.16,0.07-0.23
			c0.3-0.64,1.38-0.32,1.38-0.32C39.15,17.14,39.07,17.41,39,17.66z"/>
		<path class="st0" d="M34.14,32.76c-0.74-0.05-1.02-0.09-1.02-0.09s0,0.01,0.01,0.04v0c0.07,0.21,0.4,1.14,1.07,2.06c0,0,0,0,0,0
			c0,0,0,0,0,0h0l0.8-1.97C34.67,32.8,34.38,32.78,34.14,32.76z M38.1,35.02c-0.53-0.44-1.14-0.84-1.75-1.02
			c0.3,0.08,1.02,0.29,1.75,0.68V33.6c-0.35-0.19-0.67-0.41-0.95-0.67c-0.14-0.02-0.28-0.04-0.43-0.04
			c-0.68-0.02-1.24-0.04-1.7-0.07c-0.35-0.02-0.64-0.03-0.88-0.05c-0.74-0.05-1.02-0.09-1.02-0.09s0,0.01,0.01,0.04v0
			c0.07,0.21,0.4,1.14,1.07,2.06c0,0,0,0,0,0c0,0,0,0,0,0h0c0.31,0.42,0.69,0.84,1.16,1.19c0.65,0.48,1.46,0.82,2.45,0.82
			c0.43,0,0.9-0.06,1.4-0.21c0.01-0.14,0.03-0.28,0.06-0.42C39.02,35.87,38.6,35.43,38.1,35.02z M39.66,35.65L39.66,35.65
			c-0.03-0.14-0.07-0.3-0.13-0.47c-0.12-0.38-0.32-0.84-0.64-1.24c-0.14-0.17-0.29-0.33-0.48-0.47l0,0c-0.1-0.08-0.2-0.15-0.31-0.21
			c-0.1-0.06-0.2-0.11-0.32-0.15c0,0,0,0,0,0c-0.19-0.08-0.4-0.14-0.63-0.17c-0.14-0.02-0.28-0.04-0.43-0.04
			c-0.68-0.02-1.24-0.04-1.7-0.07c-0.35-0.02-0.64-0.03-0.88-0.05c-0.74-0.05-1.02-0.09-1.02-0.09s0,0.01,0.01,0.04v0
			c0.07,0.21,0.4,1.14,1.07,2.06c0,0,0,0,0,0c0,0,0,0,0,0h0c0.31,0.42,0.69,0.84,1.16,1.19c0.65,0.48,1.46,0.82,2.45,0.82
			c0.43,0,0.9-0.06,1.4-0.21c0.01-0.14,0.03-0.28,0.06-0.42c-0.26-0.29-0.68-0.73-1.18-1.14c-0.53-0.44-1.14-0.84-1.75-1.02
			c0.3,0.08,1.02,0.29,1.75,0.68c0.46,0.24,0.93,0.56,1.3,0.95c0.07,0.08,0.14,0.16,0.21,0.25c0.04,0.06,0.09,0.12,0.12,0.18
			C39.73,36.06,39.72,35.9,39.66,35.65z M39.4,35.63c0.07,0.08,0.14,0.16,0.21,0.25c0.04,0.06,0.09,0.12,0.12,0.18
			c0,0-0.01-0.16-0.07-0.41v0c-0.03-0.13-0.07-0.29-0.13-0.47c-0.12-0.38-0.32-0.84-0.64-1.24c-0.14-0.17-0.29-0.33-0.48-0.47l0,0
			c-0.1-0.08-0.2-0.15-0.31-0.21c-0.1-0.06-0.2-0.11-0.32-0.15c0,0,0,0,0,0c-0.19-0.08-0.4-0.14-0.63-0.17
			c-0.14-0.02-0.28-0.04-0.43-0.04c-0.68-0.02-1.24-0.04-1.7-0.07c-0.35-0.02-0.64-0.03-0.88-0.05c-0.74-0.05-1.02-0.09-1.02-0.09
			s0,0.01,0.01,0.04v0c0.07,0.21,0.4,1.14,1.07,2.06c0,0,0,0,0,0c0,0,0,0,0,0h0c0.31,0.42,0.69,0.84,1.16,1.19
			c0.65,0.48,1.46,0.82,2.45,0.82c0.43,0,0.9-0.06,1.4-0.21c0.09-0.02,0.18-0.05,0.27-0.08c0.02-0.01,0.04-0.01,0.06-0.02
			c0,0-0.02-0.02-0.05-0.06c-0.04-0.05-0.12-0.14-0.22-0.26c-0.26-0.29-0.68-0.73-1.18-1.14c-0.53-0.44-1.14-0.84-1.75-1.02
			c0.3,0.08,1.02,0.29,1.75,0.68C38.56,34.92,39.03,35.24,39.4,35.63z M39.4,35.63c0.07,0.08,0.14,0.16,0.21,0.25
			c0.04,0.06,0.09,0.12,0.12,0.18c0,0-0.01-0.16-0.07-0.41v0c-0.03-0.13-0.07-0.29-0.13-0.47c-0.12-0.38-0.32-0.84-0.64-1.24
			c-0.14-0.17-0.29-0.33-0.48-0.47l0,0c-0.1-0.08-0.2-0.15-0.31-0.21c-0.1-0.06-0.2-0.11-0.32-0.15c0,0,0,0,0,0
			c-0.19-0.08-0.4-0.14-0.63-0.17c-0.14-0.02-0.28-0.04-0.43-0.04c-0.68-0.02-1.24-0.04-1.7-0.07c-0.35-0.02-0.64-0.03-0.88-0.05
			c-0.74-0.05-1.02-0.09-1.02-0.09s0,0.01,0.01,0.04v0c0.07,0.21,0.4,1.14,1.07,2.06c0,0,0,0,0,0c0,0,0,0,0,0h0
			c0.31,0.42,0.69,0.84,1.16,1.19c0.65,0.48,1.46,0.82,2.45,0.82c0.43,0,0.9-0.06,1.4-0.21c0.09-0.02,0.18-0.05,0.27-0.08
			c0.02-0.01,0.04-0.01,0.06-0.02c0,0-0.02-0.02-0.05-0.06c-0.04-0.05-0.12-0.14-0.22-0.26c-0.26-0.29-0.68-0.73-1.18-1.14
			c-0.53-0.44-1.14-0.84-1.75-1.02c0.3,0.08,1.02,0.29,1.75,0.68C38.56,34.92,39.03,35.24,39.4,35.63z M39.4,35.63
			c0.07,0.08,0.14,0.16,0.21,0.25c0.04,0.06,0.09,0.12,0.12,0.18c0,0-0.01-0.16-0.07-0.41v0c-0.03-0.13-0.07-0.29-0.13-0.47
			c-0.12-0.38-0.32-0.84-0.64-1.24c-0.14-0.17-0.29-0.33-0.48-0.47l0,0c-0.1-0.08-0.2-0.15-0.31-0.21c-0.1-0.06-0.2-0.11-0.32-0.15
			c0,0,0,0,0,0c-0.19-0.08-0.4-0.14-0.63-0.17c-0.14-0.02-0.28-0.04-0.43-0.04c-0.68-0.02-1.24-0.04-1.7-0.07
			c-0.35-0.02-0.64-0.03-0.88-0.05c-0.74-0.05-1.02-0.09-1.02-0.09s0,0.01,0.01,0.04v0c0.07,0.21,0.4,1.14,1.07,2.06c0,0,0,0,0,0
			c0,0,0,0,0,0h0c0.31,0.42,0.69,0.84,1.16,1.19c0.65,0.48,1.46,0.82,2.45,0.82c0.43,0,0.9-0.06,1.4-0.21
			c0.09-0.02,0.18-0.05,0.27-0.08c0.02-0.01,0.04-0.01,0.06-0.02c0,0-0.02-0.02-0.05-0.06c-0.04-0.05-0.12-0.14-0.22-0.26
			c-0.26-0.29-0.68-0.73-1.18-1.14c-0.53-0.44-1.14-0.84-1.75-1.02c0.3,0.08,1.02,0.29,1.75,0.68
			C38.56,34.92,39.03,35.24,39.4,35.63z M39.4,35.63c0.07,0.08,0.14,0.16,0.21,0.25c0.04,0.06,0.09,0.12,0.12,0.18
			c0,0-0.01-0.16-0.07-0.41v0c-0.03-0.13-0.07-0.29-0.13-0.47c-0.12-0.38-0.32-0.84-0.64-1.24c-0.14-0.17-0.29-0.33-0.48-0.47l0,0
			c-0.1-0.08-0.2-0.15-0.31-0.21c-0.1-0.06-0.2-0.11-0.32-0.15c0,0,0,0,0,0c-0.19-0.08-0.4-0.14-0.63-0.17
			c-0.14-0.02-0.28-0.04-0.43-0.04c-0.68-0.02-1.24-0.04-1.7-0.07c-0.35-0.02-0.64-0.03-0.88-0.05c-0.74-0.05-1.02-0.09-1.02-0.09
			s0,0.01,0.01,0.04v0c0.07,0.21,0.4,1.14,1.07,2.06c0,0,0,0,0,0c0,0,0,0,0,0h0c0.31,0.42,0.69,0.84,1.16,1.19
			c0.65,0.48,1.46,0.82,2.45,0.82c0.43,0,0.9-0.06,1.4-0.21c0.09-0.02,0.18-0.05,0.27-0.08c0.02-0.01,0.04-0.01,0.06-0.02
			c0,0-0.02-0.02-0.05-0.06c-0.04-0.05-0.12-0.14-0.22-0.26c-0.26-0.29-0.68-0.73-1.18-1.14c-0.53-0.44-1.14-0.84-1.75-1.02
			c0.3,0.08,1.02,0.29,1.75,0.68C38.56,34.92,39.03,35.24,39.4,35.63z M39.4,35.63c0.07,0.08,0.14,0.16,0.21,0.25
			c0.04,0.06,0.09,0.12,0.12,0.18c0,0-0.01-0.16-0.07-0.41v0c-0.03-0.13-0.07-0.29-0.13-0.47c-0.12-0.38-0.32-0.84-0.64-1.24
			c-0.14-0.17-0.29-0.33-0.48-0.47l0,0c-0.1-0.08-0.2-0.15-0.31-0.21c-0.1-0.06-0.2-0.11-0.32-0.15c0,0,0,0,0,0
			c-0.19-0.08-0.4-0.14-0.63-0.17c-0.14-0.02-0.28-0.04-0.43-0.04c-0.68-0.02-1.24-0.04-1.7-0.07c-0.35-0.02-0.64-0.03-0.88-0.05
			c-0.74-0.05-1.02-0.09-1.02-0.09s0,0.01,0.01,0.04v0c0.07,0.21,0.4,1.14,1.07,2.06c0,0,0,0,0,0c0,0,0,0,0,0h0
			c0.31,0.42,0.69,0.84,1.16,1.19c0.65,0.48,1.46,0.82,2.45,0.82c0.43,0,0.9-0.06,1.4-0.21c0.09-0.02,0.18-0.05,0.27-0.08
			c0.02-0.01,0.04-0.01,0.06-0.02c0,0-0.02-0.02-0.05-0.06c-0.04-0.05-0.12-0.14-0.22-0.26c-0.26-0.29-0.68-0.73-1.18-1.14
			c-0.53-0.44-1.14-0.84-1.75-1.02c0.3,0.08,1.02,0.29,1.75,0.68C38.56,34.92,39.03,35.24,39.4,35.63z M39.4,35.63
			c0.07,0.08,0.14,0.16,0.21,0.25c0.04,0.06,0.09,0.12,0.12,0.18c0,0-0.01-0.16-0.07-0.41v0c-0.03-0.13-0.07-0.29-0.13-0.47
			c-0.12-0.38-0.32-0.84-0.64-1.24c-0.14-0.17-0.29-0.33-0.48-0.47l0,0c-0.1-0.08-0.2-0.15-0.31-0.21c-0.1-0.06-0.2-0.11-0.32-0.15
			c0,0,0,0,0,0c-0.19-0.08-0.4-0.14-0.63-0.17c-0.14-0.02-0.28-0.04-0.43-0.04c-0.68-0.02-1.24-0.04-1.7-0.07
			c-0.35-0.02-0.64-0.03-0.88-0.05c-0.74-0.05-1.02-0.09-1.02-0.09s0,0.01,0.01,0.04v0c0.07,0.21,0.4,1.14,1.07,2.06c0,0,0,0,0,0
			c0,0,0,0,0,0h0c0.31,0.42,0.69,0.84,1.16,1.19c0.65,0.48,1.46,0.82,2.45,0.82c0.43,0,0.9-0.06,1.4-0.21
			c0.09-0.02,0.18-0.05,0.27-0.08c0.02-0.01,0.04-0.01,0.06-0.02c0,0-0.02-0.02-0.05-0.06c-0.04-0.05-0.12-0.14-0.22-0.26
			c-0.26-0.29-0.68-0.73-1.18-1.14c-0.53-0.44-1.14-0.84-1.75-1.02c0.3,0.08,1.02,0.29,1.75,0.68
			C38.56,34.92,39.03,35.24,39.4,35.63z M39.4,35.63c0.07,0.08,0.14,0.16,0.21,0.25c0.04,0.06,0.09,0.12,0.12,0.18
			c0,0-0.01-0.16-0.07-0.41v0c-0.03-0.13-0.07-0.29-0.13-0.47c-0.12-0.38-0.32-0.84-0.64-1.24c-0.14-0.17-0.29-0.33-0.48-0.47l0,0
			c-0.1-0.08-0.2-0.15-0.31-0.21c-0.1-0.06-0.2-0.11-0.32-0.15c0,0,0,0,0,0c-0.19-0.08-0.4-0.14-0.63-0.17
			c-0.14-0.02-0.28-0.04-0.43-0.04c-0.68-0.02-1.24-0.04-1.7-0.07c-0.35-0.02-0.64-0.03-0.88-0.05c-0.74-0.05-1.02-0.09-1.02-0.09
			s0,0.01,0.01,0.04v0c0.07,0.21,0.4,1.14,1.07,2.06c0,0,0,0,0,0c0,0,0,0,0,0h0c0.31,0.42,0.69,0.84,1.16,1.19
			c0.65,0.48,1.46,0.82,2.45,0.82c0.43,0,0.9-0.06,1.4-0.21c0.09-0.02,0.18-0.05,0.27-0.08c0.02-0.01,0.04-0.01,0.06-0.02
			c0,0-0.02-0.02-0.05-0.06c-0.04-0.05-0.12-0.14-0.22-0.26c-0.26-0.29-0.68-0.73-1.18-1.14c-0.53-0.44-1.14-0.84-1.75-1.02
			c0.3,0.08,1.02,0.29,1.75,0.68C38.56,34.92,39.03,35.24,39.4,35.63z M39.4,35.63c0.07,0.08,0.14,0.16,0.21,0.25
			c0.04,0.06,0.09,0.12,0.12,0.18c0,0-0.01-0.16-0.07-0.41v0c-0.03-0.13-0.07-0.29-0.13-0.47c-0.12-0.38-0.32-0.84-0.64-1.24
			c-0.14-0.17-0.29-0.33-0.48-0.47l0,0c-0.1-0.08-0.2-0.15-0.31-0.21c-0.1-0.06-0.2-0.11-0.32-0.15c0,0,0,0,0,0
			c-0.19-0.08-0.4-0.14-0.63-0.17c-0.14-0.02-0.28-0.04-0.43-0.04c-0.68-0.02-1.24-0.04-1.7-0.07c-0.35-0.02-0.64-0.03-0.88-0.05
			c-0.74-0.05-1.02-0.09-1.02-0.09s0,0.01,0.01,0.04v0c0.07,0.21,0.4,1.14,1.07,2.06c0,0,0,0,0,0c0,0,0,0,0,0h0
			c0.31,0.42,0.69,0.84,1.16,1.19c0.65,0.48,1.46,0.82,2.45,0.82c0.43,0,0.9-0.06,1.4-0.21c0.09-0.02,0.18-0.05,0.27-0.08
			c0.02-0.01,0.04-0.01,0.06-0.02c0,0-0.02-0.02-0.05-0.06c-0.04-0.05-0.12-0.14-0.22-0.26c-0.26-0.29-0.68-0.73-1.18-1.14
			c-0.53-0.44-1.14-0.84-1.75-1.02c0.3,0.08,1.02,0.29,1.75,0.68C38.56,34.92,39.03,35.24,39.4,35.63z M39.4,35.63
			c0.07,0.08,0.14,0.16,0.21,0.25c0.04,0.06,0.09,0.12,0.12,0.18c0,0-0.01-0.16-0.07-0.41v0c-0.03-0.13-0.07-0.29-0.13-0.47
			c-0.12-0.38-0.32-0.84-0.64-1.24c-0.14-0.17-0.29-0.33-0.48-0.47l0,0c-0.1-0.08-0.2-0.15-0.31-0.21c-0.1-0.06-0.2-0.11-0.32-0.15
			c0,0,0,0,0,0c-0.19-0.08-0.4-0.14-0.63-0.17c-0.14-0.02-0.28-0.04-0.43-0.04c-0.68-0.02-1.24-0.04-1.7-0.07
			c-0.35-0.02-0.64-0.03-0.88-0.05c-0.74-0.05-1.02-0.09-1.02-0.09s0,0.01,0.01,0.04v0c0.07,0.21,0.4,1.14,1.07,2.06c0,0,0,0,0,0
			c0,0,0,0,0,0h0c0.31,0.42,0.69,0.84,1.16,1.19c0.65,0.48,1.46,0.82,2.45,0.82c0.43,0,0.9-0.06,1.4-0.21
			c0.09-0.02,0.18-0.05,0.27-0.08c0.02-0.01,0.04-0.01,0.06-0.02c0,0-0.02-0.02-0.05-0.06c-0.04-0.05-0.12-0.14-0.22-0.26
			c-0.26-0.29-0.68-0.73-1.18-1.14c-0.53-0.44-1.14-0.84-1.75-1.02c0.3,0.08,1.02,0.29,1.75,0.68
			C38.56,34.92,39.03,35.24,39.4,35.63z M39.4,35.63c0.07,0.08,0.14,0.16,0.21,0.25c0.04,0.06,0.09,0.12,0.12,0.18
			c0,0-0.01-0.16-0.07-0.41v0c-0.03-0.13-0.07-0.29-0.13-0.47c-0.12-0.38-0.32-0.84-0.64-1.24c-0.14-0.17-0.29-0.33-0.48-0.47l0,0
			c-0.1-0.08-0.2-0.15-0.31-0.21c-0.1-0.06-0.2-0.11-0.32-0.15c0,0,0,0,0,0c-0.19-0.08-0.4-0.14-0.63-0.17
			c-0.14-0.02-0.28-0.04-0.43-0.04c-0.68-0.02-1.24-0.04-1.7-0.07c-0.35-0.02-0.64-0.03-0.88-0.05c-0.74-0.05-1.02-0.09-1.02-0.09
			s0,0.01,0.01,0.04v0c0.07,0.21,0.4,1.14,1.07,2.06c0,0,0,0,0,0c0,0,0,0,0,0h0c0.31,0.42,0.69,0.84,1.16,1.19
			c0.65,0.48,1.46,0.82,2.45,0.82c0.43,0,0.9-0.06,1.4-0.21c0.09-0.02,0.18-0.05,0.27-0.08c0.02-0.01,0.04-0.01,0.06-0.02
			c0,0-0.02-0.02-0.05-0.06c-0.04-0.05-0.12-0.14-0.22-0.26c-0.26-0.29-0.68-0.73-1.18-1.14c-0.53-0.44-1.14-0.84-1.75-1.02
			c0.3,0.08,1.02,0.29,1.75,0.68C38.56,34.92,39.03,35.24,39.4,35.63z M39.4,35.63c0.07,0.08,0.14,0.16,0.21,0.25
			c0.04,0.06,0.09,0.12,0.12,0.18c0,0-0.01-0.16-0.07-0.41v0c-0.03-0.13-0.07-0.29-0.13-0.47c-0.12-0.38-0.32-0.84-0.64-1.24
			c-0.14-0.17-0.29-0.33-0.48-0.47l0,0c-0.1-0.08-0.2-0.15-0.31-0.21c-0.1-0.06-0.2-0.11-0.32-0.15c0,0,0,0,0,0
			c-0.19-0.08-0.4-0.14-0.63-0.17c-0.14-0.02-0.28-0.04-0.43-0.04c-0.68-0.02-1.24-0.04-1.7-0.07c-0.35-0.02-0.64-0.03-0.88-0.05
			c-0.74-0.05-1.02-0.09-1.02-0.09s0,0.01,0.01,0.04v0c0.07,0.21,0.4,1.14,1.07,2.06c0,0,0,0,0,0c0,0,0,0,0,0h0
			c0.31,0.42,0.69,0.84,1.16,1.19c0.65,0.48,1.46,0.82,2.45,0.82c0.43,0,0.9-0.06,1.4-0.21c0.09-0.02,0.18-0.05,0.27-0.08
			c0.02-0.01,0.04-0.01,0.06-0.02c0,0-0.02-0.02-0.05-0.06c-0.04-0.05-0.12-0.14-0.22-0.26c-0.26-0.29-0.68-0.73-1.18-1.14
			c-0.53-0.44-1.14-0.84-1.75-1.02c0.3,0.08,1.02,0.29,1.75,0.68C38.56,34.92,39.03,35.24,39.4,35.63z M39.4,35.63
			c0.07,0.08,0.14,0.16,0.21,0.25c0.04,0.06,0.09,0.12,0.12,0.18c0,0-0.01-0.16-0.07-0.41v0c-0.03-0.13-0.07-0.29-0.13-0.47
			c-0.12-0.38-0.32-0.84-0.64-1.24c-0.14-0.17-0.29-0.33-0.48-0.47l0,0c-0.1-0.08-0.2-0.15-0.31-0.21c-0.1-0.06-0.2-0.11-0.32-0.15
			c0,0,0,0,0,0c-0.19-0.08-0.4-0.14-0.63-0.17c-0.14-0.02-0.28-0.04-0.43-0.04c-0.68-0.02-1.24-0.04-1.7-0.07
			c-0.35-0.02-0.64-0.03-0.88-0.05c-0.74-0.05-1.02-0.09-1.02-0.09s0,0.01,0.01,0.04v0c0.07,0.21,0.4,1.14,1.07,2.06c0,0,0,0,0,0
			c0,0,0,0,0,0h0c0.31,0.42,0.69,0.84,1.16,1.19c0.65,0.48,1.46,0.82,2.45,0.82c0.43,0,0.9-0.06,1.4-0.21
			c0.09-0.02,0.18-0.05,0.27-0.08c0.02-0.01,0.04-0.01,0.06-0.02c0,0-0.02-0.02-0.05-0.06c-0.04-0.05-0.12-0.14-0.22-0.26
			c-0.26-0.29-0.68-0.73-1.18-1.14c-0.53-0.44-1.14-0.84-1.75-1.02c0.3,0.08,1.02,0.29,1.75,0.68
			C38.56,34.92,39.03,35.24,39.4,35.63z M38.1,32.96c-0.06-0.03-0.13-0.06-0.2-0.09c0.06,0.05,0.13,0.09,0.2,0.13
			c0.14,0.09,0.28,0.17,0.44,0.24C38.41,33.13,38.26,33.04,38.1,32.96z M39.4,35.63c0.07,0.08,0.14,0.16,0.21,0.25
			c0.04,0.06,0.09,0.12,0.12,0.18c0,0-0.01-0.16-0.07-0.41v0c-0.03-0.13-0.07-0.29-0.13-0.47c-0.12-0.38-0.32-0.84-0.64-1.24
			c-0.14-0.17-0.29-0.33-0.48-0.47l0,0c-0.1-0.08-0.2-0.15-0.31-0.21c-0.1-0.06-0.2-0.11-0.32-0.15c0,0,0,0,0,0
			c-0.19-0.08-0.4-0.14-0.63-0.17c-0.14-0.02-0.28-0.04-0.43-0.04c-0.68-0.02-1.24-0.04-1.7-0.07c-0.35-0.02-0.64-0.03-0.88-0.05
			c-0.74-0.05-1.02-0.09-1.02-0.09s0,0.01,0.01,0.04v0c0.07,0.21,0.4,1.14,1.07,2.06c0,0,0,0,0,0c0,0,0,0,0,0h0
			c0.31,0.42,0.69,0.84,1.16,1.19c0.65,0.48,1.46,0.82,2.45,0.82c0.43,0,0.9-0.06,1.4-0.21c0.09-0.02,0.18-0.05,0.27-0.08
			c0.02-0.01,0.04-0.01,0.06-0.02c0,0-0.02-0.02-0.05-0.06c-0.04-0.05-0.12-0.14-0.22-0.26c-0.26-0.29-0.68-0.73-1.18-1.14
			c-0.53-0.44-1.14-0.84-1.75-1.02c0.3,0.08,1.02,0.29,1.75,0.68C38.56,34.92,39.03,35.24,39.4,35.63z M38.1,32.96
			c-0.06-0.03-0.13-0.06-0.2-0.09c0.06,0.05,0.13,0.09,0.2,0.13c0.14,0.09,0.28,0.17,0.44,0.24C38.41,33.13,38.26,33.04,38.1,32.96z
			 M39.4,35.63c0.07,0.08,0.14,0.16,0.21,0.25c0.04,0.06,0.09,0.12,0.12,0.18c0,0-0.01-0.16-0.07-0.41v0
			c-0.03-0.13-0.07-0.29-0.13-0.47c-0.12-0.38-0.32-0.84-0.64-1.24c-0.14-0.17-0.29-0.33-0.48-0.47l0,0
			c-0.1-0.08-0.2-0.15-0.31-0.21c-0.1-0.06-0.2-0.11-0.32-0.15c0,0,0,0,0,0c-0.19-0.08-0.4-0.14-0.63-0.17
			c-0.14-0.02-0.28-0.04-0.43-0.04c-0.68-0.02-1.24-0.04-1.7-0.07c-0.35-0.02-0.64-0.03-0.88-0.05c-0.74-0.05-1.02-0.09-1.02-0.09
			s0,0.01,0.01,0.04v0c0.07,0.21,0.4,1.14,1.07,2.06c0,0,0,0,0,0c0,0,0,0,0,0h0c0.31,0.42,0.69,0.84,1.16,1.19
			c0.65,0.48,1.46,0.82,2.45,0.82c0.43,0,0.9-0.06,1.4-0.21c0.09-0.02,0.18-0.05,0.27-0.08c0.02-0.01,0.04-0.01,0.06-0.02
			c0,0-0.02-0.02-0.05-0.06c-0.04-0.05-0.12-0.14-0.22-0.26c-0.26-0.29-0.68-0.73-1.18-1.14c-0.53-0.44-1.14-0.84-1.75-1.02
			c0.3,0.08,1.02,0.29,1.75,0.68C38.56,34.92,39.03,35.24,39.4,35.63z M38.1,32.96c-0.06-0.03-0.13-0.06-0.2-0.09
			c0.06,0.05,0.13,0.09,0.2,0.13c0.14,0.09,0.28,0.17,0.44,0.24C38.41,33.13,38.26,33.04,38.1,32.96z M39.4,35.63
			c0.07,0.08,0.14,0.16,0.21,0.25c0.04,0.06,0.09,0.12,0.12,0.18c0,0-0.01-0.16-0.07-0.41v0c-0.03-0.13-0.07-0.29-0.13-0.47
			c-0.12-0.38-0.32-0.84-0.64-1.24c-0.14-0.17-0.29-0.33-0.48-0.47l0,0c-0.1-0.08-0.2-0.15-0.31-0.21c-0.1-0.06-0.2-0.11-0.32-0.15
			c0,0,0,0,0,0c-0.19-0.08-0.4-0.14-0.63-0.17c-0.14-0.02-0.28-0.04-0.43-0.04c-0.68-0.02-1.24-0.04-1.7-0.07
			c-0.35-0.02-0.64-0.03-0.88-0.05c-0.74-0.05-1.02-0.09-1.02-0.09s0,0.01,0.01,0.04v0c0.07,0.21,0.4,1.14,1.07,2.06c0,0,0,0,0,0
			c0,0,0,0,0,0h0c0.31,0.42,0.69,0.84,1.16,1.19c0.65,0.48,1.46,0.82,2.45,0.82c0.43,0,0.9-0.06,1.4-0.21
			c0.09-0.02,0.18-0.05,0.27-0.08c0.02-0.01,0.04-0.01,0.06-0.02c0,0-0.02-0.02-0.05-0.06c-0.04-0.05-0.12-0.14-0.22-0.26
			c-0.26-0.29-0.68-0.73-1.18-1.14c-0.53-0.44-1.14-0.84-1.75-1.02c0.3,0.08,1.02,0.29,1.75,0.68
			C38.56,34.92,39.03,35.24,39.4,35.63z M38.1,32.96c-0.06-0.03-0.13-0.06-0.2-0.09c0.06,0.05,0.13,0.09,0.2,0.13
			c0.14,0.09,0.28,0.17,0.44,0.24C38.41,33.13,38.26,33.04,38.1,32.96z M39.4,35.63c0.07,0.08,0.14,0.16,0.21,0.25
			c0.04,0.06,0.09,0.12,0.12,0.18c0,0-0.01-0.16-0.07-0.41v0c-0.03-0.13-0.07-0.29-0.13-0.47c-0.12-0.38-0.32-0.84-0.64-1.24
			c-0.14-0.17-0.29-0.33-0.48-0.47l0,0c-0.1-0.08-0.2-0.15-0.31-0.21c-0.1-0.06-0.2-0.11-0.32-0.15c0,0,0,0,0,0
			c-0.19-0.08-0.4-0.14-0.63-0.17c-0.14-0.02-0.28-0.04-0.43-0.04c-0.68-0.02-1.24-0.04-1.7-0.07c-0.35-0.02-0.64-0.03-0.88-0.05
			c-0.74-0.05-1.02-0.09-1.02-0.09s0,0.01,0.01,0.04v0c0.07,0.21,0.4,1.14,1.07,2.06c0,0,0,0,0,0c0,0,0,0,0,0h0
			c0.31,0.42,0.69,0.84,1.16,1.19c0.65,0.48,1.46,0.82,2.45,0.82c0.43,0,0.9-0.06,1.4-0.21c0.09-0.02,0.18-0.05,0.27-0.08
			c0.02-0.01,0.04-0.01,0.06-0.02c0,0-0.02-0.02-0.05-0.06c-0.04-0.05-0.12-0.14-0.22-0.26c-0.26-0.29-0.68-0.73-1.18-1.14
			c-0.53-0.44-1.14-0.84-1.75-1.02c0.3,0.08,1.02,0.29,1.75,0.68C38.56,34.92,39.03,35.24,39.4,35.63z M38.1,32.96
			c-0.06-0.03-0.13-0.06-0.2-0.09c0.06,0.05,0.13,0.09,0.2,0.13c0.14,0.09,0.28,0.17,0.44,0.24C38.41,33.13,38.26,33.04,38.1,32.96z
			 M39.4,35.63c0.07,0.08,0.14,0.16,0.21,0.25c0.04,0.06,0.09,0.12,0.12,0.18c0,0-0.01-0.16-0.07-0.41v0
			c-0.03-0.13-0.07-0.29-0.13-0.47c-0.12-0.38-0.32-0.84-0.64-1.24c-0.14-0.17-0.29-0.33-0.48-0.47l0,0
			c-0.1-0.08-0.2-0.15-0.31-0.21c-0.1-0.06-0.2-0.11-0.32-0.15c0,0,0,0,0,0c-0.19-0.08-0.4-0.14-0.63-0.17
			c-0.14-0.02-0.28-0.04-0.43-0.04c-0.68-0.02-1.24-0.04-1.7-0.07c-0.35-0.02-0.64-0.03-0.88-0.05c-0.74-0.05-1.02-0.09-1.02-0.09
			s0,0.01,0.01,0.04v0c0.07,0.21,0.4,1.14,1.07,2.06c0,0,0,0,0,0c0,0,0,0,0,0h0c0.31,0.42,0.69,0.84,1.16,1.19
			c0.65,0.48,1.46,0.82,2.45,0.82c0.43,0,0.9-0.06,1.4-0.21c0.09-0.02,0.18-0.05,0.27-0.08c0.02-0.01,0.04-0.01,0.06-0.02
			c0,0-0.02-0.02-0.05-0.06c-0.04-0.05-0.12-0.14-0.22-0.26c-0.26-0.29-0.68-0.73-1.18-1.14c-0.53-0.44-1.14-0.84-1.75-1.02
			c0.3,0.08,1.02,0.29,1.75,0.68C38.56,34.92,39.03,35.24,39.4,35.63z M38.1,32.96c-0.06-0.03-0.13-0.06-0.2-0.09
			c0.06,0.05,0.13,0.09,0.2,0.13c0.14,0.09,0.28,0.17,0.44,0.24C38.41,33.13,38.26,33.04,38.1,32.96z M34.4,16.87
			c-0.76,0.09-1.23,0.54-1.4,0.74c-0.02,0.02,0,0.06,0.03,0.05c0.16-0.06,0.46-0.16,0.66-0.07c0.27,0.13,1.23-0.06,1.45,0.12
			c0.22,0.17,0.23,0.26,0.23,0.26S35.38,16.75,34.4,16.87z M35.66,21.3c-0.91-0.35-1.22-0.96-1.27-1.06c0.23,0.59,0.49,1,0.78,1.29
			c1.31,1.31,3-0.07,3-0.07C37.04,21.63,36.23,21.52,35.66,21.3z M35.81,16.41c-0.15-0.2-1.09-1.31-3.39,0.08
			c-0.01,0.01,0,0.03,0.01,0.02c0.41-0.12,2-0.55,3.37-0.08C35.81,16.43,35.82,16.42,35.81,16.41z M36.4,22.84
			c-0.28-0.01-0.51-0.08-0.66-0.14c0.02,0.03,0.32,0.58,0.65,0.59c0.31,0.01,0.58-0.22,0.65-0.53
			C36.89,22.81,36.67,22.85,36.4,22.84z M35.66,21.3c-0.91-0.35-1.22-0.96-1.27-1.06c0.23,0.59,0.49,1,0.78,1.29
			c1.31,1.31,3-0.07,3-0.07C37.04,21.63,36.23,21.52,35.66,21.3z M36.4,22.84c-0.28-0.01-0.51-0.08-0.66-0.14
			c0.02,0.03,0.32,0.58,0.65,0.59c0.31,0.01,0.58-0.22,0.65-0.53C36.89,22.81,36.67,22.85,36.4,22.84z M35.81,16.41
			c-0.15-0.2-1.09-1.31-3.39,0.08c-0.01,0.01,0,0.03,0.01,0.02c0.41-0.12,2-0.55,3.37-0.08C35.81,16.43,35.82,16.42,35.81,16.41z
			 M34.4,16.87c-0.76,0.09-1.23,0.54-1.4,0.74c-0.02,0.02,0,0.06,0.03,0.05c0.16-0.06,0.46-0.16,0.66-0.07
			c0.27,0.13,1.23-0.06,1.45,0.12c0.22,0.17,0.23,0.26,0.23,0.26S35.38,16.75,34.4,16.87z M34.4,16.87
			c-0.76,0.09-1.23,0.54-1.4,0.74c-0.02,0.02,0,0.06,0.03,0.05c0.16-0.06,0.46-0.16,0.66-0.07c0.27,0.13,1.23-0.06,1.45,0.12
			c0.22,0.17,0.23,0.26,0.23,0.26S35.38,16.75,34.4,16.87z M35.66,21.3c-0.91-0.35-1.22-0.96-1.27-1.06c0.23,0.59,0.49,1,0.78,1.29
			c1.31,1.31,3-0.07,3-0.07C37.04,21.63,36.23,21.52,35.66,21.3z M35.81,16.41c-0.15-0.2-1.09-1.31-3.39,0.08
			c-0.01,0.01,0,0.03,0.01,0.02c0.41-0.12,2-0.55,3.37-0.08C35.81,16.43,35.82,16.42,35.81,16.41z M36.4,22.84
			c-0.28-0.01-0.51-0.08-0.66-0.14c0.02,0.03,0.32,0.58,0.65,0.59c0.31,0.01,0.58-0.22,0.65-0.53
			C36.89,22.81,36.67,22.85,36.4,22.84z M35.66,21.3c-0.91-0.35-1.22-0.96-1.27-1.06c0.23,0.59,0.49,1,0.78,1.29
			c1.31,1.31,3-0.07,3-0.07C37.04,21.63,36.23,21.52,35.66,21.3z M36.4,22.84c-0.28-0.01-0.51-0.08-0.66-0.14
			c0.02,0.03,0.32,0.58,0.65,0.59c0.31,0.01,0.58-0.22,0.65-0.53C36.89,22.81,36.67,22.85,36.4,22.84z M35.81,16.41
			c-0.15-0.2-1.09-1.31-3.39,0.08c-0.01,0.01,0,0.03,0.01,0.02c0.41-0.12,2-0.55,3.37-0.08C35.81,16.43,35.82,16.42,35.81,16.41z
			 M34.4,16.87c-0.76,0.09-1.23,0.54-1.4,0.74c-0.02,0.02,0,0.06,0.03,0.05c0.16-0.06,0.46-0.16,0.66-0.07
			c0.27,0.13,1.23-0.06,1.45,0.12c0.22,0.17,0.23,0.26,0.23,0.26S35.38,16.75,34.4,16.87z M34.4,16.87
			c-0.76,0.09-1.23,0.54-1.4,0.74c-0.02,0.02,0,0.06,0.03,0.05c0.16-0.06,0.46-0.16,0.66-0.07c0.27,0.13,1.23-0.06,1.45,0.12
			c0.22,0.17,0.23,0.26,0.23,0.26S35.38,16.75,34.4,16.87z M35.81,16.41c-0.15-0.2-1.09-1.31-3.39,0.08c-0.01,0.01,0,0.03,0.01,0.02
			c0.41-0.12,2-0.55,3.37-0.08C35.81,16.43,35.82,16.42,35.81,16.41z M36.4,22.84c-0.28-0.01-0.51-0.08-0.66-0.14
			c0.02,0.03,0.32,0.58,0.65,0.59c0.31,0.01,0.58-0.22,0.65-0.53C36.89,22.81,36.67,22.85,36.4,22.84z M35.66,21.3
			c-0.91-0.35-1.22-0.96-1.27-1.06c0.23,0.59,0.49,1,0.78,1.29c1.31,1.31,3-0.07,3-0.07C37.04,21.63,36.23,21.52,35.66,21.3z
			 M35.66,21.3c-0.91-0.35-1.22-0.96-1.27-1.06c0.23,0.59,0.49,1,0.78,1.29c1.31,1.31,3-0.07,3-0.07
			C37.04,21.63,36.23,21.52,35.66,21.3z M36.4,22.84c-0.28-0.01-0.51-0.08-0.66-0.14c0.02,0.03,0.32,0.58,0.65,0.59
			c0.31,0.01,0.58-0.22,0.65-0.53C36.89,22.81,36.67,22.85,36.4,22.84z M35.81,16.41c-0.15-0.2-1.09-1.31-3.39,0.08
			c-0.01,0.01,0,0.03,0.01,0.02c0.41-0.12,2-0.55,3.37-0.08C35.81,16.43,35.82,16.42,35.81,16.41z M34.4,16.87
			c-0.76,0.09-1.23,0.54-1.4,0.74c-0.02,0.02,0,0.06,0.03,0.05c0.16-0.06,0.46-0.16,0.66-0.07c0.27,0.13,1.23-0.06,1.45,0.12
			c0.22,0.17,0.23,0.26,0.23,0.26S35.38,16.75,34.4,16.87z M34.4,16.87c-0.76,0.09-1.23,0.54-1.4,0.74c-0.02,0.02,0,0.06,0.03,0.05
			c0.16-0.06,0.46-0.16,0.66-0.07c0.27,0.13,1.23-0.06,1.45,0.12c0.22,0.17,0.23,0.26,0.23,0.26S35.38,16.75,34.4,16.87z
			 M35.81,16.41c-0.15-0.2-1.09-1.31-3.39,0.08c-0.01,0.01,0,0.03,0.01,0.02c0.41-0.12,2-0.55,3.37-0.08
			C35.81,16.43,35.82,16.42,35.81,16.41z M36.4,22.84c-0.28-0.01-0.51-0.08-0.66-0.14c0.02,0.03,0.32,0.58,0.65,0.59
			c0.31,0.01,0.58-0.22,0.65-0.53C36.89,22.81,36.67,22.85,36.4,22.84z M35.66,21.3c-0.91-0.35-1.22-0.96-1.27-1.06
			c0.23,0.59,0.49,1,0.78,1.29c1.31,1.31,3-0.07,3-0.07C37.04,21.63,36.23,21.52,35.66,21.3z M35.66,21.3
			c-0.91-0.35-1.22-0.96-1.27-1.06c0.23,0.59,0.49,1,0.78,1.29c1.31,1.31,3-0.07,3-0.07C37.04,21.63,36.23,21.52,35.66,21.3z
			 M36.4,22.84c-0.28-0.01-0.51-0.08-0.66-0.14c0.02,0.03,0.32,0.58,0.65,0.59c0.31,0.01,0.58-0.22,0.65-0.53
			C36.89,22.81,36.67,22.85,36.4,22.84z M35.81,16.41c-0.15-0.2-1.09-1.31-3.39,0.08c-0.01,0.01,0,0.03,0.01,0.02
			c0.41-0.12,2-0.55,3.37-0.08C35.81,16.43,35.82,16.42,35.81,16.41z M34.4,16.87c-0.76,0.09-1.23,0.54-1.4,0.74
			c-0.02,0.02,0,0.06,0.03,0.05c0.16-0.06,0.46-0.16,0.66-0.07c0.27,0.13,1.23-0.06,1.45,0.12c0.22,0.17,0.23,0.26,0.23,0.26
			S35.38,16.75,34.4,16.87z M34.4,16.87c-0.76,0.09-1.23,0.54-1.4,0.74c-0.02,0.02,0,0.06,0.03,0.05c0.16-0.06,0.46-0.16,0.66-0.07
			c0.27,0.13,1.23-0.06,1.45,0.12c0.22,0.17,0.23,0.26,0.23,0.26S35.38,16.75,34.4,16.87z M35.81,16.41
			c-0.15-0.2-1.09-1.31-3.39,0.08c-0.01,0.01,0,0.03,0.01,0.02c0.41-0.12,2-0.55,3.37-0.08C35.81,16.43,35.82,16.42,35.81,16.41z
			 M36.4,22.84c-0.28-0.01-0.51-0.08-0.66-0.14c0.02,0.03,0.32,0.58,0.65,0.59c0.31,0.01,0.58-0.22,0.65-0.53
			C36.89,22.81,36.67,22.85,36.4,22.84z M35.66,21.3c-0.91-0.35-1.22-0.96-1.27-1.06c0.23,0.59,0.49,1,0.78,1.29
			c1.31,1.31,3-0.07,3-0.07C37.04,21.63,36.23,21.52,35.66,21.3z M35.66,21.3c-0.91-0.35-1.22-0.96-1.27-1.06
			c0.23,0.59,0.49,1,0.78,1.29c1.31,1.31,3-0.07,3-0.07C37.04,21.63,36.23,21.52,35.66,21.3z M36.4,22.84
			c-0.28-0.01-0.51-0.08-0.66-0.14c0.02,0.03,0.32,0.58,0.65,0.59c0.31,0.01,0.58-0.22,0.65-0.53
			C36.89,22.81,36.67,22.85,36.4,22.84z M35.81,16.41c-0.15-0.2-1.09-1.31-3.39,0.08c-0.01,0.01,0,0.03,0.01,0.02
			c0.41-0.12,2-0.55,3.37-0.08C35.81,16.43,35.82,16.42,35.81,16.41z M34.4,16.87c-0.76,0.09-1.23,0.54-1.4,0.74
			c-0.02,0.02,0,0.06,0.03,0.05c0.16-0.06,0.46-0.16,0.66-0.07c0.27,0.13,1.23-0.06,1.45,0.12c0.22,0.17,0.23,0.26,0.23,0.26
			S35.38,16.75,34.4,16.87z M38.18,44.54c5.4,0.5,9.37-0.88,9.37-0.88l0.24-1.88c-2.49,0.3-5.02,0.46-7.52,0.46h-0.14
			c-2.45,0-4.93-0.16-7.38-0.46l0.32,2.51c0.45-0.27,0.89-0.53,1.22-0.79c0.78-0.64,1.12-0.95,1.12-0.95s0.17,0.08,0.23,0.52
			c0.07,0.44-0.8,1.32-1.44,1.99c-0.64,0.67-0.49,0.8-0.49,0.8c1.24,1.98,5.22,1.72,4.78,2.24c-0.44,0.52-3.35,0.16-3.35,0.16
			c0.96,0.82,3.62,0.82,2.86,1.11c-0.77,0.29-3.12-0.02-3.12-0.02c0.57,0.41,1.99,0.59,2.4,0.52c0.41-0.06,0.69,0.1,0.48,0.25
			c-1.26,0.57-2.65,0.57-3.89,0.36l0.06,0.5c0.06,0.5,0.48,0.9,1,0.97c0.56,0.07,1.13,0.12,1.69,0.2c1.21,0.17,2.44,0.25,3.66,0.25
			c0.86,0,1.71-0.04,2.57-0.12c1.67-1.51,2.94-3.27,3.85-4.81c-3.37,0.8-5.99,0.23-7.34-0.23c-0.17-0.05-0.11-0.3,0.06-0.28
			c4.2,0.39,7.36-0.58,7.77-0.72v0l0.16-1.2c-4.26,1.13-7.59,0.41-9.27-0.16C37.91,44.81,37.97,44.52,38.18,44.54z M34.4,16.87
			c-0.76,0.09-1.23,0.54-1.4,0.74c-0.02,0.02,0,0.06,0.03,0.05c0.16-0.06,0.46-0.16,0.66-0.07c0.27,0.13,1.23-0.06,1.45,0.12
			c0.22,0.17,0.23,0.26,0.23,0.26S35.38,16.75,34.4,16.87z M35.81,16.41c-0.15-0.2-1.09-1.31-3.39,0.08c-0.01,0.01,0,0.03,0.01,0.02
			c0.41-0.12,2-0.55,3.37-0.08C35.81,16.43,35.82,16.42,35.81,16.41z M36.4,22.84c-0.28-0.01-0.51-0.08-0.66-0.14
			c0.02,0.03,0.32,0.58,0.65,0.59c0.31,0.01,0.58-0.22,0.65-0.53C36.89,22.81,36.67,22.85,36.4,22.84z M35.66,21.3
			c-0.91-0.35-1.22-0.96-1.27-1.06c0.23,0.59,0.49,1,0.78,1.29c1.31,1.31,3-0.07,3-0.07C37.04,21.63,36.23,21.52,35.66,21.3z
			 M35.66,21.3c-0.91-0.35-1.22-0.96-1.27-1.06c0.23,0.59,0.49,1,0.78,1.29c1.31,1.31,3-0.07,3-0.07
			C37.04,21.63,36.23,21.52,35.66,21.3z M36.4,22.84c-0.28-0.01-0.51-0.08-0.66-0.14c0.02,0.03,0.32,0.58,0.65,0.59
			c0.31,0.01,0.58-0.22,0.65-0.53C36.89,22.81,36.67,22.85,36.4,22.84z M35.81,16.41c-0.15-0.2-1.09-1.31-3.39,0.08
			c-0.01,0.01,0,0.03,0.01,0.02c0.41-0.12,2-0.55,3.37-0.08C35.81,16.43,35.82,16.42,35.81,16.41z M34.4,16.87
			c-0.76,0.09-1.23,0.54-1.4,0.74c-0.02,0.02,0,0.06,0.03,0.05c0.16-0.06,0.46-0.16,0.66-0.07c0.27,0.13,1.23-0.06,1.45,0.12
			c0.22,0.17,0.23,0.26,0.23,0.26S35.38,16.75,34.4,16.87z M34.4,16.87c-0.76,0.09-1.23,0.54-1.4,0.74c-0.02,0.02,0,0.06,0.03,0.05
			c0.16-0.06,0.46-0.16,0.66-0.07c0.27,0.13,1.23-0.06,1.45,0.12c0.22,0.17,0.23,0.26,0.23,0.26S35.38,16.75,34.4,16.87z
			 M35.81,16.41c-0.15-0.2-1.09-1.31-3.39,0.08c-0.01,0.01,0,0.03,0.01,0.02c0.41-0.12,2-0.55,3.37-0.08
			C35.81,16.43,35.82,16.42,35.81,16.41z M36.4,22.84c-0.28-0.01-0.51-0.08-0.66-0.14c0.02,0.03,0.32,0.58,0.65,0.59
			c0.31,0.01,0.58-0.22,0.65-0.53C36.89,22.81,36.67,22.85,36.4,22.84z M35.66,21.3c-0.91-0.35-1.22-0.96-1.27-1.06
			c0.23,0.59,0.49,1,0.78,1.29c1.31,1.31,3-0.07,3-0.07C37.04,21.63,36.23,21.52,35.66,21.3z M35.66,21.3
			c-0.91-0.35-1.22-0.96-1.27-1.06c0.23,0.59,0.49,1,0.78,1.29c1.31,1.31,3-0.07,3-0.07C37.04,21.63,36.23,21.52,35.66,21.3z
			 M36.4,22.84c-0.28-0.01-0.51-0.08-0.66-0.14c0.02,0.03,0.32,0.58,0.65,0.59c0.31,0.01,0.58-0.22,0.65-0.53
			C36.89,22.81,36.67,22.85,36.4,22.84z M35.81,16.41c-0.15-0.2-1.09-1.31-3.39,0.08c-0.01,0.01,0,0.03,0.01,0.02
			c0.41-0.12,2-0.55,3.37-0.08C35.81,16.43,35.82,16.42,35.81,16.41z M34.4,16.87c-0.76,0.09-1.23,0.54-1.4,0.74
			c-0.02,0.02,0,0.06,0.03,0.05c0.16-0.06,0.46-0.16,0.66-0.07c0.27,0.13,1.23-0.06,1.45,0.12c0.22,0.17,0.23,0.26,0.23,0.26
			S35.38,16.75,34.4,16.87z M34.4,16.87c-0.76,0.09-1.23,0.54-1.4,0.74c-0.02,0.02,0,0.06,0.03,0.05c0.16-0.06,0.46-0.16,0.66-0.07
			c0.27,0.13,1.23-0.06,1.45,0.12c0.22,0.17,0.23,0.26,0.23,0.26S35.38,16.75,34.4,16.87z M35.81,16.41
			c-0.15-0.2-1.09-1.31-3.39,0.08c-0.01,0.01,0,0.03,0.01,0.02c0.41-0.12,2-0.55,3.37-0.08C35.81,16.43,35.82,16.42,35.81,16.41z
			 M36.4,22.84c-0.28-0.01-0.51-0.08-0.66-0.14c0.02,0.03,0.32,0.58,0.65,0.59c0.31,0.01,0.58-0.22,0.65-0.53
			C36.89,22.81,36.67,22.85,36.4,22.84z M35.66,21.3c-0.91-0.35-1.22-0.96-1.27-1.06c0.23,0.59,0.49,1,0.78,1.29
			c1.31,1.31,3-0.07,3-0.07C37.04,21.63,36.23,21.52,35.66,21.3z M38.16,21.46c-1.13,0.17-1.94,0.06-2.51-0.16
			c-0.91-0.35-1.22-0.96-1.27-1.06c0.23,0.59,0.49,1,0.78,1.29C36.47,22.83,38.16,21.46,38.16,21.46z M35.73,22.71
			c0.02,0.03,0.32,0.58,0.65,0.59c0.31,0.01,0.58-0.22,0.65-0.53c-0.15,0.04-0.37,0.08-0.64,0.07
			C36.11,22.83,35.88,22.77,35.73,22.71z M35.8,16.42c0.01,0,0.02-0.01,0.01-0.02c-0.15-0.2-1.09-1.31-3.39,0.08
			c-0.01,0.01,0,0.03,0.01,0.02C32.84,16.38,34.43,15.96,35.8,16.42z M35.13,17.71c0.22,0.17,0.23,0.26,0.23,0.26
			s0.01-1.22-0.97-1.1c-0.76,0.09-1.23,0.54-1.4,0.74c-0.02,0.02,0,0.06,0.03,0.05c0.16-0.06,0.46-0.16,0.66-0.07
			C33.96,17.73,34.92,17.54,35.13,17.71z M35.43,55.73c2.71-0.28,4.96-1.41,6.78-2.88c-0.63,0.04-1.26,0.07-1.89,0.07
			c-1.24,0-2.5-0.09-3.73-0.26c-0.29-0.04-0.58-0.07-0.87-0.1c-0.27-0.03-0.55-0.06-0.83-0.09c-0.75-0.1-1.35-0.68-1.44-1.41
			l-0.09-0.67c-1.52-0.33-2.71-0.91-2.96-0.99c-0.46-0.15-4.07,0.61-8.69,0.73c-4.62,0.12-4.42-1.72-4.42-1.72
			c0.31-1.98,2.89-2.07,4.61-2.07c1.72,0,7.37,0.41,7.82,0.33s1.14-0.13,1.71-1.03c0.25-0.4,0.69-0.74,1.17-1.05l-0.38-2.91
			c-0.5-0.19-0.84-0.67-0.84-1.22v-1.72c0-0.72,0.59-1.31,1.31-1.31c0.03,0,0.05,0,0.08,0c2.13,0.13,4.29,0.21,6.43,0.23
			c-0.01-0.18-0.02-0.36-0.01-0.54c-0.47,0.12-0.93,0.18-1.37,0.18c-1.2,0-2.3-0.45-3.23-1.32l-6.03,0.17l-2.66-5.64l1.52-0.61
			L33.12,34c-0.33-0.65-0.49-1.14-0.5-1.17c-0.05-0.15-0.02-0.32,0.07-0.45l-4.31-3.31c1.26-0.91,1.37-4.91,1.37-4.91
			s2.9,2.02,3.92,3.2c1.03,1.18,1.26,2.86,1.26,2.86l0.49-0.34l-1.06,2.39c0.24,0.01,0.53,0.03,0.86,0.05l0.61-1.49v0
			c-0.34-1.04-0.36-2.09-0.31-2.8c-0.21-0.85-0.27-1.84-0.28-2.04c0.04,0.03,0.16,0.07,0.42,0.13c0.59,0.15,1.96,0.05,2.62-1.16
			c0.67-1.21,1.51-2.53,1.61-3.69c0.06-0.73,0.14-1.87,0.2-2.62c0.03-0.45,0.05-0.75,0.05-0.75l-0.43-3.86l-2.35-2.25l-2.74,0.34
			l-4.45,2.25l-2.64,2.98l0.34,5.87c0.04,0.17,0.08,0.33,0.12,0.49c1.13,5.02-2.27,6.21-2.27,6.21l-0.68-0.54
			c-6.85,0.83-7.78,10.07-7.63,11.15c0.15,1.08-0.29,0.93-0.88,1.32c-0.59,0.39-0.54,0.24-0.68,1.22c-0.15,0.98,0.05,1.27-0.15,2.05
			c-0.2,0.78-0.44,0.59-0.34,1.42c0.1,0.83,0.73,0.78,0.68,1.71c-0.05,0.93,0,2.01,0,2.01c1.17,2.15,8.07,0.64,8.07,0.64
			c3.72,7.92,10.86,6.85,10.86,6.85c-7.87-1.81-9.58-7.09-9.58-7.09l0.54-0.05C29.5,55.44,35.43,55.73,35.43,55.73z M28.18,18.16
			c0.4-1.37,3.1,0.25,5.47-3.91c0.2-0.35,0.54-0.61,0.91-0.77c0.83-0.36,2.39-0.65,4.24,0.8c0.17,0.13,0.27,0.33,0.29,0.54
			c0.02,0.33,0.06,0.86,0.13,1.38c0.01,0.04,0.01,0.08,0.01,0.13c0,0-1.62-0.3-1.89,0.6c-0.27,0.9,0.27,2.35,0.25,2.65
			c-0.02,0.3-0.84,0.56-0.97,0.86c-0.06,0.15,0.31,0.13,0.7-0.01c0,0,0,0,0,0c0.2-0.07,0.41-0.18,0.56-0.32c0,0,0,0,0,0
			c0.14-0.13,0.24-0.29,0.23-0.47c-0.02-0.49-0.29-1.15-0.37-1.71c0.04,0.03,0.08,0.05,0.1,0.06c0.51,0.37,0.74,0.07,0.79,0
			c0.02-0.03,0.09,0,0.14,0.05c0.05,0.04,0.09,0.07,0.11,0.1c-0.02,0.11-0.02,0.21-0.01,0.29c0.03,0.21,0.12,0.56,0.18,0.94
			c0.07,0.45,0.1,0.95-0.01,1.35c-0.21,0.75-1.3,3.01-1.64,3.73c-0.34,0.71-0.71,1.21-2.37,0.9c-1.12-0.2-3.16-0.7-4.39-2.17
			c-0.6-0.71-1-1.64-1.03-2.87C29.62,20.29,27.77,19.59,28.18,18.16z M39.2,16.86c-0.04,0.28-0.12,0.55-0.19,0.79
			c-0.43-0.4-1.26-0.24-1.26-0.24c0.01-0.08,0.04-0.16,0.07-0.23C38.12,16.55,39.2,16.86,39.2,16.86z M24.04,30.98
			c0,0,4.72,12.54,1.33,14.1c-0.69,0.23-0.88,0-0.88,0l-0.46-6.82l-1.6,4.72c0,0-1.83-1.14-3.7-1.45
			C18.74,41.53,18.82,32.81,24.04,30.98z M20.58,43.87c-0.58-0.35-3.02-0.17-3.02-0.17c3.87-1.74,5.49,1.02,5.49,1.02l-1.08-0.17
			l0.7,0.9c-2.41-1.57-5.88,0.32-5.88,0.32C17.73,44.02,20.58,43.87,20.58,43.87z M34.39,20.24c0.23,0.59,0.49,1,0.78,1.29
			c1.31,1.31,3-0.07,3-0.07c-1.13,0.17-1.94,0.06-2.51-0.16C34.74,20.95,34.43,20.34,34.39,20.24z M35.73,22.71
			c0.02,0.03,0.32,0.58,0.65,0.59c0.31,0.01,0.58-0.22,0.65-0.53c-0.15,0.04-0.37,0.08-0.64,0.07
			C36.11,22.83,35.88,22.77,35.73,22.71z M32.42,16.51c0.41-0.12,2-0.55,3.37-0.08c0.01,0,0.02-0.01,0.01-0.02
			c-0.15-0.2-1.09-1.31-3.39,0.08C32.4,16.49,32.41,16.51,32.42,16.51z M35.13,17.71c0.22,0.17,0.23,0.26,0.23,0.26
			s0.01-1.22-0.97-1.1c-0.76,0.09-1.23,0.54-1.4,0.74c-0.02,0.02,0,0.06,0.03,0.05c0.16-0.06,0.46-0.16,0.66-0.07
			C33.96,17.73,34.92,17.54,35.13,17.71z M34.4,16.87c-0.76,0.09-1.23,0.54-1.4,0.74c-0.02,0.02,0,0.06,0.03,0.05
			c0.16-0.06,0.46-0.16,0.66-0.07c0.27,0.13,1.23-0.06,1.45,0.12c0.22,0.17,0.23,0.26,0.23,0.26S35.38,16.75,34.4,16.87z
			 M35.81,16.41c-0.15-0.2-1.09-1.31-3.39,0.08c-0.01,0.01,0,0.03,0.01,0.02c0.41-0.12,2-0.55,3.37-0.08
			C35.81,16.43,35.82,16.42,35.81,16.41z M36.4,22.84c-0.28-0.01-0.51-0.08-0.66-0.14c0.02,0.03,0.32,0.58,0.65,0.59
			c0.31,0.01,0.58-0.22,0.65-0.53C36.89,22.81,36.67,22.85,36.4,22.84z M35.66,21.3c-0.91-0.35-1.22-0.96-1.27-1.06
			c0.23,0.59,0.49,1,0.78,1.29c1.31,1.31,3-0.07,3-0.07C37.04,21.63,36.23,21.52,35.66,21.3z M35.66,21.3
			c-0.91-0.35-1.22-0.96-1.27-1.06c0.23,0.59,0.49,1,0.78,1.29c1.31,1.31,3-0.07,3-0.07C37.04,21.63,36.23,21.52,35.66,21.3z
			 M36.4,22.84c-0.28-0.01-0.51-0.08-0.66-0.14c0.02,0.03,0.32,0.58,0.65,0.59c0.31,0.01,0.58-0.22,0.65-0.53
			C36.89,22.81,36.67,22.85,36.4,22.84z M35.81,16.41c-0.15-0.2-1.09-1.31-3.39,0.08c-0.01,0.01,0,0.03,0.01,0.02
			c0.41-0.12,2-0.55,3.37-0.08C35.81,16.43,35.82,16.42,35.81,16.41z M34.4,16.87c-0.76,0.09-1.23,0.54-1.4,0.74
			c-0.02,0.02,0,0.06,0.03,0.05c0.16-0.06,0.46-0.16,0.66-0.07c0.27,0.13,1.23-0.06,1.45,0.12c0.22,0.17,0.23,0.26,0.23,0.26
			S35.38,16.75,34.4,16.87z M34.4,16.87c-0.76,0.09-1.23,0.54-1.4,0.74c-0.02,0.02,0,0.06,0.03,0.05c0.16-0.06,0.46-0.16,0.66-0.07
			c0.27,0.13,1.23-0.06,1.45,0.12c0.22,0.17,0.23,0.26,0.23,0.26S35.38,16.75,34.4,16.87z M35.81,16.41
			c-0.15-0.2-1.09-1.31-3.39,0.08c-0.01,0.01,0,0.03,0.01,0.02c0.41-0.12,2-0.55,3.37-0.08C35.81,16.43,35.82,16.42,35.81,16.41z
			 M36.4,22.84c-0.28-0.01-0.51-0.08-0.66-0.14c0.02,0.03,0.32,0.58,0.65,0.59c0.31,0.01,0.58-0.22,0.65-0.53
			C36.89,22.81,36.67,22.85,36.4,22.84z M35.66,21.3c-0.91-0.35-1.22-0.96-1.27-1.06c0.23,0.59,0.49,1,0.78,1.29
			c1.31,1.31,3-0.07,3-0.07C37.04,21.63,36.23,21.52,35.66,21.3z M35.66,21.3c-0.91-0.35-1.22-0.96-1.27-1.06
			c0.23,0.59,0.49,1,0.78,1.29c1.31,1.31,3-0.07,3-0.07C37.04,21.63,36.23,21.52,35.66,21.3z M36.4,22.84
			c-0.28-0.01-0.51-0.08-0.66-0.14c0.02,0.03,0.32,0.58,0.65,0.59c0.31,0.01,0.58-0.22,0.65-0.53
			C36.89,22.81,36.67,22.85,36.4,22.84z M35.81,16.41c-0.15-0.2-1.09-1.31-3.39,0.08c-0.01,0.01,0,0.03,0.01,0.02
			c0.41-0.12,2-0.55,3.37-0.08C35.81,16.43,35.82,16.42,35.81,16.41z M34.4,16.87c-0.76,0.09-1.23,0.54-1.4,0.74
			c-0.02,0.02,0,0.06,0.03,0.05c0.16-0.06,0.46-0.16,0.66-0.07c0.27,0.13,1.23-0.06,1.45,0.12c0.22,0.17,0.23,0.26,0.23,0.26
			S35.38,16.75,34.4,16.87z M34.4,16.87c-0.76,0.09-1.23,0.54-1.4,0.74c-0.02,0.02,0,0.06,0.03,0.05c0.16-0.06,0.46-0.16,0.66-0.07
			c0.27,0.13,1.23-0.06,1.45,0.12c0.22,0.17,0.23,0.26,0.23,0.26S35.38,16.75,34.4,16.87z M35.81,16.41
			c-0.15-0.2-1.09-1.31-3.39,0.08c-0.01,0.01,0,0.03,0.01,0.02c0.41-0.12,2-0.55,3.37-0.08C35.81,16.43,35.82,16.42,35.81,16.41z
			 M36.4,22.84c-0.28-0.01-0.51-0.08-0.66-0.14c0.02,0.03,0.32,0.58,0.65,0.59c0.31,0.01,0.58-0.22,0.65-0.53
			C36.89,22.81,36.67,22.85,36.4,22.84z M35.66,21.3c-0.91-0.35-1.22-0.96-1.27-1.06c0.23,0.59,0.49,1,0.78,1.29
			c1.31,1.31,3-0.07,3-0.07C37.04,21.63,36.23,21.52,35.66,21.3z M35.66,21.3c-0.91-0.35-1.22-0.96-1.27-1.06
			c0.23,0.59,0.49,1,0.78,1.29c1.31,1.31,3-0.07,3-0.07C37.04,21.63,36.23,21.52,35.66,21.3z M36.4,22.84
			c-0.28-0.01-0.51-0.08-0.66-0.14c0.02,0.03,0.32,0.58,0.65,0.59c0.31,0.01,0.58-0.22,0.65-0.53
			C36.89,22.81,36.67,22.85,36.4,22.84z M35.81,16.41c-0.15-0.2-1.09-1.31-3.39,0.08c-0.01,0.01,0,0.03,0.01,0.02
			c0.41-0.12,2-0.55,3.37-0.08C35.81,16.43,35.82,16.42,35.81,16.41z M34.4,16.87c-0.76,0.09-1.23,0.54-1.4,0.74
			c-0.02,0.02,0,0.06,0.03,0.05c0.16-0.06,0.46-0.16,0.66-0.07c0.27,0.13,1.23-0.06,1.45,0.12c0.22,0.17,0.23,0.26,0.23,0.26
			S35.38,16.75,34.4,16.87z M34.4,16.87c-0.76,0.09-1.23,0.54-1.4,0.74c-0.02,0.02,0,0.06,0.03,0.05c0.16-0.06,0.46-0.16,0.66-0.07
			c0.27,0.13,1.23-0.06,1.45,0.12c0.22,0.17,0.23,0.26,0.23,0.26S35.38,16.75,34.4,16.87z M35.81,16.41
			c-0.15-0.2-1.09-1.31-3.39,0.08c-0.01,0.01,0,0.03,0.01,0.02c0.41-0.12,2-0.55,3.37-0.08C35.81,16.43,35.82,16.42,35.81,16.41z
			 M36.4,22.84c-0.28-0.01-0.51-0.08-0.66-0.14c0.02,0.03,0.32,0.58,0.65,0.59c0.31,0.01,0.58-0.22,0.65-0.53
			C36.89,22.81,36.67,22.85,36.4,22.84z M35.66,21.3c-0.91-0.35-1.22-0.96-1.27-1.06c0.23,0.59,0.49,1,0.78,1.29
			c1.31,1.31,3-0.07,3-0.07C37.04,21.63,36.23,21.52,35.66,21.3z M35.66,21.3c-0.91-0.35-1.22-0.96-1.27-1.06
			c0.23,0.59,0.49,1,0.78,1.29c1.31,1.31,3-0.07,3-0.07C37.04,21.63,36.23,21.52,35.66,21.3z M36.4,22.84
			c-0.28-0.01-0.51-0.08-0.66-0.14c0.02,0.03,0.32,0.58,0.65,0.59c0.31,0.01,0.58-0.22,0.65-0.53
			C36.89,22.81,36.67,22.85,36.4,22.84z M35.81,16.41c-0.15-0.2-1.09-1.31-3.39,0.08c-0.01,0.01,0,0.03,0.01,0.02
			c0.41-0.12,2-0.55,3.37-0.08C35.81,16.43,35.82,16.42,35.81,16.41z M34.4,16.87c-0.76,0.09-1.23,0.54-1.4,0.74
			c-0.02,0.02,0,0.06,0.03,0.05c0.16-0.06,0.46-0.16,0.66-0.07c0.27,0.13,1.23-0.06,1.45,0.12c0.22,0.17,0.23,0.26,0.23,0.26
			S35.38,16.75,34.4,16.87z M48.21,42.61l-0.35,2.7c0.48-1.03,0.71-1.71,0.71-1.71C48.45,43.27,48.33,42.93,48.21,42.61z
			 M34.4,16.87c-0.76,0.09-1.23,0.54-1.4,0.74c-0.02,0.02,0,0.06,0.03,0.05c0.16-0.06,0.46-0.16,0.66-0.07
			c0.27,0.13,1.23-0.06,1.45,0.12c0.22,0.17,0.23,0.26,0.23,0.26S35.38,16.75,34.4,16.87z M35.81,16.41
			c-0.15-0.2-1.09-1.31-3.39,0.08c-0.01,0.01,0,0.03,0.01,0.02c0.41-0.12,2-0.55,3.37-0.08C35.81,16.43,35.82,16.42,35.81,16.41z
			 M36.4,22.84c-0.28-0.01-0.51-0.08-0.66-0.14c0.02,0.03,0.32,0.58,0.65,0.59c0.31,0.01,0.58-0.22,0.65-0.53
			C36.89,22.81,36.67,22.85,36.4,22.84z M35.66,21.3c-0.91-0.35-1.22-0.96-1.27-1.06c0.23,0.59,0.49,1,0.78,1.29
			c1.31,1.31,3-0.07,3-0.07C37.04,21.63,36.23,21.52,35.66,21.3z M35.66,21.3c-0.91-0.35-1.22-0.96-1.27-1.06
			c0.23,0.59,0.49,1,0.78,1.29c1.31,1.31,3-0.07,3-0.07C37.04,21.63,36.23,21.52,35.66,21.3z M36.4,22.84
			c-0.28-0.01-0.51-0.08-0.66-0.14c0.02,0.03,0.32,0.58,0.65,0.59c0.31,0.01,0.58-0.22,0.65-0.53
			C36.89,22.81,36.67,22.85,36.4,22.84z M35.81,16.41c-0.15-0.2-1.09-1.31-3.39,0.08c-0.01,0.01,0,0.03,0.01,0.02
			c0.41-0.12,2-0.55,3.37-0.08C35.81,16.43,35.82,16.42,35.81,16.41z M34.4,16.87c-0.76,0.09-1.23,0.54-1.4,0.74
			c-0.02,0.02,0,0.06,0.03,0.05c0.16-0.06,0.46-0.16,0.66-0.07c0.27,0.13,1.23-0.06,1.45,0.12c0.22,0.17,0.23,0.26,0.23,0.26
			S35.38,16.75,34.4,16.87z M34.4,16.87c-0.76,0.09-1.23,0.54-1.4,0.74c-0.02,0.02,0,0.06,0.03,0.05c0.16-0.06,0.46-0.16,0.66-0.07
			c0.27,0.13,1.23-0.06,1.45,0.12c0.22,0.17,0.23,0.26,0.23,0.26S35.38,16.75,34.4,16.87z M35.81,16.41
			c-0.15-0.2-1.09-1.31-3.39,0.08c-0.01,0.01,0,0.03,0.01,0.02c0.41-0.12,2-0.55,3.37-0.08C35.81,16.43,35.82,16.42,35.81,16.41z
			 M36.4,22.84c-0.28-0.01-0.51-0.08-0.66-0.14c0.02,0.03,0.32,0.58,0.65,0.59c0.31,0.01,0.58-0.22,0.65-0.53
			C36.89,22.81,36.67,22.85,36.4,22.84z M35.66,21.3c-0.91-0.35-1.22-0.96-1.27-1.06c0.23,0.59,0.49,1,0.78,1.29
			c1.31,1.31,3-0.07,3-0.07C37.04,21.63,36.23,21.52,35.66,21.3z M45.44,36.36c-0.82,0.62-1.77,0.95-2.82,0.95
			c-0.52,0-1.06-0.08-1.62-0.23c0,0.22,0.02,0.42,0.04,0.59c1.66-0.01,3.34-0.05,5.01-0.13C45.85,37.12,45.64,36.73,45.44,36.36z
			 M41.75,32.74c-0.43,0.39-1.21,1.23-1.67,2.45c-0.06,0.15-0.11,0.3-0.15,0.47c-0.06,0.21-0.11,0.43-0.15,0.66
			c-0.01,0-0.01,0-0.02,0c0.01,0.01,0.01,0.01,0.02,0.02v0c-0.02,0.11-0.03,0.21-0.04,0.32v0c-0.01,0.1-0.02,0.2-0.02,0.31
			c-0.01,0.22,0,0.46,0.01,0.69c0.17,0,0.34,0,0.51,0h0.05c0.08,0,0.16,0,0.25,0c-0.03-0.34-0.05-0.74-0.02-1.2
			c0.06-0.89,0.3-1.96,0.92-3.06c0.13-0.22,0.27-0.45,0.43-0.68c0.06-0.08,0.12-0.16,0.18-0.25C42.04,32.49,41.92,32.58,41.75,32.74
			z M35.66,21.3c-0.91-0.35-1.22-0.96-1.27-1.06c0.23,0.59,0.49,1,0.78,1.29c1.31,1.31,3-0.07,3-0.07
			C37.04,21.63,36.23,21.52,35.66,21.3z M36.4,22.84c-0.28-0.01-0.51-0.08-0.66-0.14c0.02,0.03,0.32,0.58,0.65,0.59
			c0.31,0.01,0.58-0.22,0.65-0.53C36.89,22.81,36.67,22.85,36.4,22.84z M35.81,16.41c-0.15-0.2-1.09-1.31-3.39,0.08
			c-0.01,0.01,0,0.03,0.01,0.02c0.41-0.12,2-0.55,3.37-0.08C35.81,16.43,35.82,16.42,35.81,16.41z M34.4,16.87
			c-0.76,0.09-1.23,0.54-1.4,0.74c-0.02,0.02,0,0.06,0.03,0.05c0.16-0.06,0.46-0.16,0.66-0.07c0.27,0.13,1.23-0.06,1.45,0.12
			c0.22,0.17,0.23,0.26,0.23,0.26S35.38,16.75,34.4,16.87z M34.4,16.87c-0.76,0.09-1.23,0.54-1.4,0.74c-0.02,0.02,0,0.06,0.03,0.05
			c0.16-0.06,0.46-0.16,0.66-0.07c0.27,0.13,1.23-0.06,1.45,0.12c0.22,0.17,0.23,0.26,0.23,0.26S35.38,16.75,34.4,16.87z
			 M35.81,16.41c-0.15-0.2-1.09-1.31-3.39,0.08c-0.01,0.01,0,0.03,0.01,0.02c0.41-0.12,2-0.55,3.37-0.08
			C35.81,16.43,35.82,16.42,35.81,16.41z M36.4,22.84c-0.28-0.01-0.51-0.08-0.66-0.14c0.02,0.03,0.32,0.58,0.65,0.59
			c0.31,0.01,0.58-0.22,0.65-0.53C36.89,22.81,36.67,22.85,36.4,22.84z M35.66,21.3c-0.91-0.35-1.22-0.96-1.27-1.06
			c0.23,0.59,0.49,1,0.78,1.29c1.31,1.31,3-0.07,3-0.07C37.04,21.63,36.23,21.52,35.66,21.3z M36.4,22.84
			c-0.28-0.01-0.51-0.08-0.66-0.14c0.02,0.03,0.32,0.58,0.65,0.59c0.31,0.01,0.58-0.22,0.65-0.53
			C36.89,22.81,36.67,22.85,36.4,22.84z M35.81,16.41c-0.15-0.2-1.09-1.31-3.39,0.08c-0.01,0.01,0,0.03,0.01,0.02
			c0.41-0.12,2-0.55,3.37-0.08C35.81,16.43,35.82,16.42,35.81,16.41z M35.66,21.3c-0.91-0.35-1.22-0.96-1.27-1.06
			c0.23,0.59,0.49,1,0.78,1.29c1.31,1.31,3-0.07,3-0.07C37.04,21.63,36.23,21.52,35.66,21.3z M34.4,16.87
			c-0.76,0.09-1.23,0.54-1.4,0.74c-0.02,0.02,0,0.06,0.03,0.05c0.16-0.06,0.46-0.16,0.66-0.07c0.27,0.13,1.23-0.06,1.45,0.12
			c0.22,0.17,0.23,0.26,0.23,0.26S35.38,16.75,34.4,16.87z M34.4,16.87c-0.76,0.09-1.23,0.54-1.4,0.74c-0.02,0.02,0,0.06,0.03,0.05
			c0.16-0.06,0.46-0.16,0.66-0.07c0.27,0.13,1.23-0.06,1.45,0.12c0.22,0.17,0.23,0.26,0.23,0.26S35.38,16.75,34.4,16.87z
			 M35.81,16.41c-0.15-0.2-1.09-1.31-3.39,0.08c-0.01,0.01,0,0.03,0.01,0.02c0.41-0.12,2-0.55,3.37-0.08
			C35.81,16.43,35.82,16.42,35.81,16.41z M35.81,16.41c-0.15-0.2-1.09-1.31-3.39,0.08c-0.01,0.01,0,0.03,0.01,0.02
			c0.41-0.12,2-0.55,3.37-0.08C35.81,16.43,35.82,16.42,35.81,16.41z M34.4,16.87c-0.76,0.09-1.23,0.54-1.4,0.74
			c-0.02,0.02,0,0.06,0.03,0.05c0.16-0.06,0.46-0.16,0.66-0.07c0.27,0.13,1.23-0.06,1.45,0.12c0.22,0.17,0.23,0.26,0.23,0.26
			S35.38,16.75,34.4,16.87z M38.1,32.96c-0.06-0.03-0.13-0.06-0.2-0.09c0.06,0.05,0.13,0.09,0.2,0.13c0.14,0.09,0.28,0.17,0.44,0.24
			C38.41,33.13,38.26,33.04,38.1,32.96z M39.4,35.63c0.07,0.08,0.14,0.16,0.21,0.25c0.04,0.06,0.09,0.12,0.12,0.18
			c0,0-0.01-0.16-0.07-0.41v0c-0.03-0.13-0.07-0.29-0.13-0.47c-0.12-0.38-0.32-0.84-0.64-1.24c-0.14-0.17-0.29-0.33-0.48-0.47l0,0
			c-0.1-0.08-0.2-0.15-0.31-0.21c-0.1-0.06-0.2-0.11-0.32-0.15c0,0,0,0,0,0c-0.19-0.08-0.4-0.14-0.63-0.17
			c-0.14-0.02-0.28-0.04-0.43-0.04c-0.68-0.02-1.24-0.04-1.7-0.07c-0.35-0.02-0.64-0.03-0.88-0.05c-0.74-0.05-1.02-0.09-1.02-0.09
			s0,0.01,0.01,0.04v0c0.07,0.21,0.4,1.14,1.07,2.06c0,0,0,0,0,0c0,0,0,0,0,0h0c0.31,0.42,0.69,0.84,1.16,1.19
			c0.65,0.48,1.46,0.82,2.45,0.82c0.43,0,0.9-0.06,1.4-0.21c0.09-0.02,0.18-0.05,0.27-0.08c0.02-0.01,0.04-0.01,0.06-0.02
			c0,0-0.02-0.02-0.05-0.06c-0.04-0.05-0.12-0.14-0.22-0.26c-0.26-0.29-0.68-0.73-1.18-1.14c-0.53-0.44-1.14-0.84-1.75-1.02
			c0.3,0.08,1.02,0.29,1.75,0.68C38.56,34.92,39.03,35.24,39.4,35.63z M38.1,32.96c-0.06-0.03-0.13-0.06-0.2-0.09
			c0.06,0.05,0.13,0.09,0.2,0.13c0.14,0.09,0.28,0.17,0.44,0.24C38.41,33.13,38.26,33.04,38.1,32.96z M39.4,35.63
			c0.07,0.08,0.14,0.16,0.21,0.25c0.04,0.06,0.09,0.12,0.12,0.18c0,0-0.01-0.16-0.07-0.41v0c-0.03-0.13-0.07-0.29-0.13-0.47
			c-0.12-0.38-0.32-0.84-0.64-1.24c-0.14-0.17-0.29-0.33-0.48-0.47l0,0c-0.1-0.08-0.2-0.15-0.31-0.21c-0.1-0.06-0.2-0.11-0.32-0.15
			c0,0,0,0,0,0c-0.19-0.08-0.4-0.14-0.63-0.17c-0.14-0.02-0.28-0.04-0.43-0.04c-0.68-0.02-1.24-0.04-1.7-0.07
			c-0.35-0.02-0.64-0.03-0.88-0.05c-0.74-0.05-1.02-0.09-1.02-0.09s0,0.01,0.01,0.04v0c0.07,0.21,0.4,1.14,1.07,2.06c0,0,0,0,0,0
			c0,0,0,0,0,0h0c0.31,0.42,0.69,0.84,1.16,1.19c0.65,0.48,1.46,0.82,2.45,0.82c0.43,0,0.9-0.06,1.4-0.21
			c0.09-0.02,0.18-0.05,0.27-0.08c0.02-0.01,0.04-0.01,0.06-0.02c0,0-0.02-0.02-0.05-0.06c-0.04-0.05-0.12-0.14-0.22-0.26
			c-0.26-0.29-0.68-0.73-1.18-1.14c-0.53-0.44-1.14-0.84-1.75-1.02c0.3,0.08,1.02,0.29,1.75,0.68
			C38.56,34.92,39.03,35.24,39.4,35.63z M38.1,32.96c-0.06-0.03-0.13-0.06-0.2-0.09c0.06,0.05,0.13,0.09,0.2,0.13
			c0.14,0.09,0.28,0.17,0.44,0.24C38.41,33.13,38.26,33.04,38.1,32.96z M39.4,35.63c0.07,0.08,0.14,0.16,0.21,0.25
			c0.04,0.06,0.09,0.12,0.12,0.18c0,0-0.01-0.16-0.07-0.41v0c-0.03-0.13-0.07-0.29-0.13-0.47c-0.12-0.38-0.32-0.84-0.64-1.24
			c-0.14-0.17-0.29-0.33-0.48-0.47l0,0c-0.1-0.08-0.2-0.15-0.31-0.21c-0.1-0.06-0.2-0.11-0.32-0.15c0,0,0,0,0,0
			c-0.19-0.08-0.4-0.14-0.63-0.17c-0.14-0.02-0.28-0.04-0.43-0.04c-0.68-0.02-1.24-0.04-1.7-0.07c-0.35-0.02-0.64-0.03-0.88-0.05
			c-0.74-0.05-1.02-0.09-1.02-0.09s0,0.01,0.01,0.04v0c0.07,0.21,0.4,1.14,1.07,2.06c0,0,0,0,0,0c0,0,0,0,0,0h0
			c0.31,0.42,0.69,0.84,1.16,1.19c0.65,0.48,1.46,0.82,2.45,0.82c0.43,0,0.9-0.06,1.4-0.21c0.09-0.02,0.18-0.05,0.27-0.08
			c0.02-0.01,0.04-0.01,0.06-0.02c0,0-0.02-0.02-0.05-0.06c-0.04-0.05-0.12-0.14-0.22-0.26c-0.26-0.29-0.68-0.73-1.18-1.14
			c-0.53-0.44-1.14-0.84-1.75-1.02c0.3,0.08,1.02,0.29,1.75,0.68C38.56,34.92,39.03,35.24,39.4,35.63z M38.1,32.96
			c-0.06-0.03-0.13-0.06-0.2-0.09c0.06,0.05,0.13,0.09,0.2,0.13c0.14,0.09,0.28,0.17,0.44,0.24C38.41,33.13,38.26,33.04,38.1,32.96z
			 M39.4,35.63c0.07,0.08,0.14,0.16,0.21,0.25c0.04,0.06,0.09,0.12,0.12,0.18c0,0-0.01-0.16-0.07-0.41v0
			c-0.03-0.13-0.07-0.29-0.13-0.47c-0.12-0.38-0.32-0.84-0.64-1.24c-0.14-0.17-0.29-0.33-0.48-0.47l0,0
			c-0.1-0.08-0.2-0.15-0.31-0.21c-0.1-0.06-0.2-0.11-0.32-0.15c0,0,0,0,0,0c-0.19-0.08-0.4-0.14-0.63-0.17
			c-0.14-0.02-0.28-0.04-0.43-0.04c-0.68-0.02-1.24-0.04-1.7-0.07c-0.35-0.02-0.64-0.03-0.88-0.05c-0.74-0.05-1.02-0.09-1.02-0.09
			s0,0.01,0.01,0.04v0c0.07,0.21,0.4,1.14,1.07,2.06c0,0,0,0,0,0c0,0,0,0,0,0h0c0.31,0.42,0.69,0.84,1.16,1.19
			c0.65,0.48,1.46,0.82,2.45,0.82c0.43,0,0.9-0.06,1.4-0.21c0.09-0.02,0.18-0.05,0.27-0.08c0.02-0.01,0.04-0.01,0.06-0.02
			c0,0-0.02-0.02-0.05-0.06c-0.04-0.05-0.12-0.14-0.22-0.26c-0.26-0.29-0.68-0.73-1.18-1.14c-0.53-0.44-1.14-0.84-1.75-1.02
			c0.3,0.08,1.02,0.29,1.75,0.68C38.56,34.92,39.03,35.24,39.4,35.63z M38.1,32.96c-0.06-0.03-0.13-0.06-0.2-0.09
			c0.06,0.05,0.13,0.09,0.2,0.13c0.14,0.09,0.28,0.17,0.44,0.24C38.41,33.13,38.26,33.04,38.1,32.96z M39.4,35.63
			c0.07,0.08,0.14,0.16,0.21,0.25c0.04,0.06,0.09,0.12,0.12,0.18c0,0-0.01-0.16-0.07-0.41v0c-0.03-0.13-0.07-0.29-0.13-0.47
			c-0.12-0.38-0.32-0.84-0.64-1.24c-0.14-0.17-0.29-0.33-0.48-0.47l0,0c-0.1-0.08-0.2-0.15-0.31-0.21c-0.1-0.06-0.2-0.11-0.32-0.15
			c0,0,0,0,0,0c-0.19-0.08-0.4-0.14-0.63-0.17c-0.14-0.02-0.28-0.04-0.43-0.04c-0.68-0.02-1.24-0.04-1.7-0.07
			c-0.35-0.02-0.64-0.03-0.88-0.05c-0.74-0.05-1.02-0.09-1.02-0.09s0,0.01,0.01,0.04v0c0.07,0.21,0.4,1.14,1.07,2.06c0,0,0,0,0,0
			c0,0,0,0,0,0h0c0.31,0.42,0.69,0.84,1.16,1.19c0.65,0.48,1.46,0.82,2.45,0.82c0.43,0,0.9-0.06,1.4-0.21
			c0.09-0.02,0.18-0.05,0.27-0.08c0.02-0.01,0.04-0.01,0.06-0.02c0,0-0.02-0.02-0.05-0.06c-0.04-0.05-0.12-0.14-0.22-0.26
			c-0.26-0.29-0.68-0.73-1.18-1.14c-0.53-0.44-1.14-0.84-1.75-1.02c0.3,0.08,1.02,0.29,1.75,0.68
			C38.56,34.92,39.03,35.24,39.4,35.63z M39.4,35.63c0.07,0.08,0.14,0.16,0.21,0.25c0.04,0.06,0.09,0.12,0.12,0.18
			c0,0-0.01-0.16-0.07-0.41v0c-0.03-0.13-0.07-0.29-0.13-0.47c-0.12-0.38-0.32-0.84-0.64-1.24c-0.14-0.17-0.29-0.33-0.48-0.47l0,0
			c-0.1-0.08-0.2-0.15-0.31-0.21c-0.1-0.06-0.2-0.11-0.32-0.15c0,0,0,0,0,0c-0.19-0.08-0.4-0.14-0.63-0.17
			c-0.14-0.02-0.28-0.04-0.43-0.04c-0.68-0.02-1.24-0.04-1.7-0.07c-0.35-0.02-0.64-0.03-0.88-0.05c-0.74-0.05-1.02-0.09-1.02-0.09
			s0,0.01,0.01,0.04v0c0.07,0.21,0.4,1.14,1.07,2.06c0,0,0,0,0,0c0,0,0,0,0,0h0c0.31,0.42,0.69,0.84,1.16,1.19
			c0.65,0.48,1.46,0.82,2.45,0.82c0.43,0,0.9-0.06,1.4-0.21c0.09-0.02,0.18-0.05,0.27-0.08c0.02-0.01,0.04-0.01,0.06-0.02
			c0,0-0.02-0.02-0.05-0.06c-0.04-0.05-0.12-0.14-0.22-0.26c-0.26-0.29-0.68-0.73-1.18-1.14c-0.53-0.44-1.14-0.84-1.75-1.02
			c0.3,0.08,1.02,0.29,1.75,0.68C38.56,34.92,39.03,35.24,39.4,35.63z M39.4,35.63c0.07,0.08,0.14,0.16,0.21,0.25
			c0.04,0.06,0.09,0.12,0.12,0.18c0,0-0.01-0.16-0.07-0.41v0c-0.03-0.13-0.07-0.29-0.13-0.47c-0.12-0.38-0.32-0.84-0.64-1.24
			c-0.14-0.17-0.29-0.33-0.48-0.47l0,0c-0.1-0.08-0.2-0.15-0.31-0.21c-0.1-0.06-0.2-0.11-0.32-0.15c0,0,0,0,0,0
			c-0.19-0.08-0.4-0.14-0.63-0.17c-0.14-0.02-0.28-0.04-0.43-0.04c-0.68-0.02-1.24-0.04-1.7-0.07c-0.35-0.02-0.64-0.03-0.88-0.05
			c-0.74-0.05-1.02-0.09-1.02-0.09s0,0.01,0.01,0.04v0c0.07,0.21,0.4,1.14,1.07,2.06c0,0,0,0,0,0c0,0,0,0,0,0h0
			c0.31,0.42,0.69,0.84,1.16,1.19c0.65,0.48,1.46,0.82,2.45,0.82c0.43,0,0.9-0.06,1.4-0.21c0.09-0.02,0.18-0.05,0.27-0.08
			c0.02-0.01,0.04-0.01,0.06-0.02c0,0-0.02-0.02-0.05-0.06c-0.04-0.05-0.12-0.14-0.22-0.26c-0.26-0.29-0.68-0.73-1.18-1.14
			c-0.53-0.44-1.14-0.84-1.75-1.02c0.3,0.08,1.02,0.29,1.75,0.68C38.56,34.92,39.03,35.24,39.4,35.63z M39.4,35.63
			c0.07,0.08,0.14,0.16,0.21,0.25c0.04,0.06,0.09,0.12,0.12,0.18c0,0-0.01-0.16-0.07-0.41v0c-0.03-0.13-0.07-0.29-0.13-0.47
			c-0.12-0.38-0.32-0.84-0.64-1.24c-0.14-0.17-0.29-0.33-0.48-0.47l0,0c-0.1-0.08-0.2-0.15-0.31-0.21c-0.1-0.06-0.2-0.11-0.32-0.15
			c0,0,0,0,0,0c-0.19-0.08-0.4-0.14-0.63-0.17c-0.14-0.02-0.28-0.04-0.43-0.04c-0.68-0.02-1.24-0.04-1.7-0.07
			c-0.35-0.02-0.64-0.03-0.88-0.05c-0.74-0.05-1.02-0.09-1.02-0.09s0,0.01,0.01,0.04v0c0.07,0.21,0.4,1.14,1.07,2.06c0,0,0,0,0,0
			c0,0,0,0,0,0h0c0.31,0.42,0.69,0.84,1.16,1.19c0.65,0.48,1.46,0.82,2.45,0.82c0.43,0,0.9-0.06,1.4-0.21
			c0.09-0.02,0.18-0.05,0.27-0.08c0.02-0.01,0.04-0.01,0.06-0.02c0,0-0.02-0.02-0.05-0.06c-0.04-0.05-0.12-0.14-0.22-0.26
			c-0.26-0.29-0.68-0.73-1.18-1.14c-0.53-0.44-1.14-0.84-1.75-1.02c0.3,0.08,1.02,0.29,1.75,0.68
			C38.56,34.92,39.03,35.24,39.4,35.63z M39.4,35.63c0.07,0.08,0.14,0.16,0.21,0.25c0.04,0.06,0.09,0.12,0.12,0.18
			c0,0-0.01-0.16-0.07-0.41v0c-0.03-0.13-0.07-0.29-0.13-0.47c-0.12-0.38-0.32-0.84-0.64-1.24c-0.14-0.17-0.29-0.33-0.48-0.47l0,0
			c-0.1-0.08-0.2-0.15-0.31-0.21c-0.1-0.06-0.2-0.11-0.32-0.15c0,0,0,0,0,0c-0.19-0.08-0.4-0.14-0.63-0.17
			c-0.14-0.02-0.28-0.04-0.43-0.04c-0.68-0.02-1.24-0.04-1.7-0.07c-0.35-0.02-0.64-0.03-0.88-0.05c-0.74-0.05-1.02-0.09-1.02-0.09
			s0,0.01,0.01,0.04v0c0.07,0.21,0.4,1.14,1.07,2.06c0,0,0,0,0,0c0,0,0,0,0,0h0c0.31,0.42,0.69,0.84,1.16,1.19
			c0.65,0.48,1.46,0.82,2.45,0.82c0.43,0,0.9-0.06,1.4-0.21c0.09-0.02,0.18-0.05,0.27-0.08c0.02-0.01,0.04-0.01,0.06-0.02
			c0,0-0.02-0.02-0.05-0.06c-0.04-0.05-0.12-0.14-0.22-0.26c-0.26-0.29-0.68-0.73-1.18-1.14c-0.53-0.44-1.14-0.84-1.75-1.02
			c0.3,0.08,1.02,0.29,1.75,0.68C38.56,34.92,39.03,35.24,39.4,35.63z M39.4,35.63c0.07,0.08,0.14,0.16,0.21,0.25
			c0.04,0.06,0.09,0.12,0.12,0.18c0,0-0.01-0.16-0.07-0.41v0c-0.03-0.13-0.07-0.29-0.13-0.47c-0.12-0.38-0.32-0.84-0.64-1.24
			c-0.14-0.17-0.29-0.33-0.48-0.47l0,0c-0.1-0.08-0.2-0.15-0.31-0.21c-0.1-0.06-0.2-0.11-0.32-0.15c0,0,0,0,0,0
			c-0.19-0.08-0.4-0.14-0.63-0.17c-0.14-0.02-0.28-0.04-0.43-0.04c-0.68-0.02-1.24-0.04-1.7-0.07c-0.35-0.02-0.64-0.03-0.88-0.05
			c-0.74-0.05-1.02-0.09-1.02-0.09s0,0.01,0.01,0.04v0c0.07,0.21,0.4,1.14,1.07,2.06c0,0,0,0,0,0c0,0,0,0,0,0h0
			c0.31,0.42,0.69,0.84,1.16,1.19c0.65,0.48,1.46,0.82,2.45,0.82c0.43,0,0.9-0.06,1.4-0.21c0.09-0.02,0.18-0.05,0.27-0.08
			c0.02-0.01,0.04-0.01,0.06-0.02c0,0-0.02-0.02-0.05-0.06c-0.04-0.05-0.12-0.14-0.22-0.26c-0.26-0.29-0.68-0.73-1.18-1.14
			c-0.53-0.44-1.14-0.84-1.75-1.02c0.3,0.08,1.02,0.29,1.75,0.68C38.56,34.92,39.03,35.24,39.4,35.63z M39.4,35.63
			c0.07,0.08,0.14,0.16,0.21,0.25c0.04,0.06,0.09,0.12,0.12,0.18c0,0-0.01-0.16-0.07-0.41v0c-0.03-0.13-0.07-0.29-0.13-0.47
			c-0.12-0.38-0.32-0.84-0.64-1.24c-0.14-0.17-0.29-0.33-0.48-0.47l0,0c-0.1-0.08-0.2-0.15-0.31-0.21c-0.1-0.06-0.2-0.11-0.32-0.15
			c0,0,0,0,0,0c-0.19-0.08-0.4-0.14-0.63-0.17c-0.14-0.02-0.28-0.04-0.43-0.04c-0.68-0.02-1.24-0.04-1.7-0.07
			c-0.35-0.02-0.64-0.03-0.88-0.05c-0.74-0.05-1.02-0.09-1.02-0.09s0,0.01,0.01,0.04v0c0.07,0.21,0.4,1.14,1.07,2.06c0,0,0,0,0,0
			c0,0,0,0,0,0h0c0.31,0.42,0.69,0.84,1.16,1.19c0.65,0.48,1.46,0.82,2.45,0.82c0.43,0,0.9-0.06,1.4-0.21
			c0.09-0.02,0.18-0.05,0.27-0.08c0.02-0.01,0.04-0.01,0.06-0.02c0,0-0.02-0.02-0.05-0.06c-0.04-0.05-0.12-0.14-0.22-0.26
			c-0.26-0.29-0.68-0.73-1.18-1.14c-0.53-0.44-1.14-0.84-1.75-1.02c0.3,0.08,1.02,0.29,1.75,0.68
			C38.56,34.92,39.03,35.24,39.4,35.63z M39.4,35.63c0.07,0.08,0.14,0.16,0.21,0.25c0.04,0.06,0.09,0.12,0.12,0.18
			c0,0-0.01-0.16-0.07-0.41v0c-0.03-0.13-0.07-0.29-0.13-0.47c-0.12-0.38-0.32-0.84-0.64-1.24c-0.14-0.17-0.29-0.33-0.48-0.47l0,0
			c-0.1-0.08-0.2-0.15-0.31-0.21c-0.1-0.06-0.2-0.11-0.32-0.15c0,0,0,0,0,0c-0.19-0.08-0.4-0.14-0.63-0.17
			c-0.14-0.02-0.28-0.04-0.43-0.04c-0.68-0.02-1.24-0.04-1.7-0.07c-0.35-0.02-0.64-0.03-0.88-0.05c-0.74-0.05-1.02-0.09-1.02-0.09
			s0,0.01,0.01,0.04v0c0.07,0.21,0.4,1.14,1.07,2.06c0,0,0,0,0,0c0,0,0,0,0,0h0c0.31,0.42,0.69,0.84,1.16,1.19
			c0.65,0.48,1.46,0.82,2.45,0.82c0.43,0,0.9-0.06,1.4-0.21c0.09-0.02,0.18-0.05,0.27-0.08c0.02-0.01,0.04-0.01,0.06-0.02
			c0,0-0.02-0.02-0.05-0.06c-0.04-0.05-0.12-0.14-0.22-0.26c-0.26-0.29-0.68-0.73-1.18-1.14c-0.53-0.44-1.14-0.84-1.75-1.02
			c0.3,0.08,1.02,0.29,1.75,0.68C38.56,34.92,39.03,35.24,39.4,35.63z M39.4,35.63c0.07,0.08,0.14,0.16,0.21,0.25
			c0.04,0.06,0.09,0.12,0.12,0.18c0,0-0.01-0.16-0.07-0.41v0c-0.03-0.13-0.07-0.29-0.13-0.47c-0.12-0.38-0.32-0.84-0.64-1.24
			c-0.14-0.17-0.29-0.33-0.48-0.47l0,0c-0.1-0.08-0.2-0.15-0.31-0.21c-0.1-0.06-0.2-0.11-0.32-0.15c0,0,0,0,0,0
			c-0.19-0.08-0.4-0.14-0.63-0.17c-0.14-0.02-0.28-0.04-0.43-0.04c-0.68-0.02-1.24-0.04-1.7-0.07c-0.35-0.02-0.64-0.03-0.88-0.05
			c-0.74-0.05-1.02-0.09-1.02-0.09s0,0.01,0.01,0.04v0c0.07,0.21,0.4,1.14,1.07,2.06c0,0,0,0,0,0c0,0,0,0,0,0h0
			c0.31,0.42,0.69,0.84,1.16,1.19c0.65,0.48,1.46,0.82,2.45,0.82c0.43,0,0.9-0.06,1.4-0.21c0.09-0.02,0.18-0.05,0.27-0.08
			c0.02-0.01,0.04-0.01,0.06-0.02c0,0-0.02-0.02-0.05-0.06c-0.04-0.05-0.12-0.14-0.22-0.26c-0.26-0.29-0.68-0.73-1.18-1.14
			c-0.53-0.44-1.14-0.84-1.75-1.02c0.3,0.08,1.02,0.29,1.75,0.68C38.56,34.92,39.03,35.24,39.4,35.63z M39.4,35.63
			c0.07,0.08,0.14,0.16,0.21,0.25c0.04,0.06,0.09,0.12,0.12,0.18c0,0-0.01-0.16-0.07-0.41v0c-0.03-0.13-0.07-0.29-0.13-0.47
			c-0.12-0.38-0.32-0.84-0.64-1.24c-0.14-0.17-0.29-0.33-0.48-0.47l0,0c-0.1-0.08-0.2-0.15-0.31-0.21c-0.1-0.06-0.2-0.11-0.32-0.15
			c0,0,0,0,0,0c-0.19-0.08-0.4-0.14-0.63-0.17c-0.14-0.02-0.28-0.04-0.43-0.04c-0.68-0.02-1.24-0.04-1.7-0.07
			c-0.35-0.02-0.64-0.03-0.88-0.05c-0.74-0.05-1.02-0.09-1.02-0.09s0,0.01,0.01,0.04v0c0.07,0.21,0.4,1.14,1.07,2.06c0,0,0,0,0,0
			c0,0,0,0,0,0h0c0.31,0.42,0.69,0.84,1.16,1.19c0.65,0.48,1.46,0.82,2.45,0.82c0.43,0,0.9-0.06,1.4-0.21
			c0.09-0.02,0.18-0.05,0.27-0.08c0.02-0.01,0.04-0.01,0.06-0.02c0,0-0.02-0.02-0.05-0.06c-0.04-0.05-0.12-0.14-0.22-0.26
			c-0.26-0.29-0.68-0.73-1.18-1.14c-0.53-0.44-1.14-0.84-1.75-1.02c0.3,0.08,1.02,0.29,1.75,0.68
			C38.56,34.92,39.03,35.24,39.4,35.63z M39.4,35.63c0.07,0.08,0.14,0.16,0.21,0.25c0.04,0.06,0.09,0.12,0.12,0.18
			c0,0-0.01-0.16-0.07-0.41v0c-0.03-0.13-0.07-0.29-0.13-0.47c-0.12-0.38-0.32-0.84-0.64-1.24c-0.14-0.17-0.29-0.33-0.48-0.47l0,0
			c-0.1-0.08-0.2-0.15-0.31-0.21c-0.1-0.06-0.2-0.11-0.32-0.15c0,0,0,0,0,0c-0.19-0.08-0.4-0.14-0.63-0.17
			c-0.14-0.02-0.28-0.04-0.43-0.04c-0.68-0.02-1.24-0.04-1.7-0.07c-0.35-0.02-0.64-0.03-0.88-0.05c-0.74-0.05-1.02-0.09-1.02-0.09
			s0,0.01,0.01,0.04v0c0.07,0.21,0.4,1.14,1.07,2.06c0,0,0,0,0,0c0,0,0,0,0,0h0c0.31,0.42,0.69,0.84,1.16,1.19
			c0.65,0.48,1.46,0.82,2.45,0.82c0.43,0,0.9-0.06,1.4-0.21c0.09-0.02,0.18-0.05,0.27-0.08c0.02-0.01,0.04-0.01,0.06-0.02
			c0,0-0.02-0.02-0.05-0.06c-0.04-0.05-0.12-0.14-0.22-0.26c-0.26-0.29-0.68-0.73-1.18-1.14c-0.53-0.44-1.14-0.84-1.75-1.02
			c0.3,0.08,1.02,0.29,1.75,0.68C38.56,34.92,39.03,35.24,39.4,35.63z M39.4,35.63c0.07,0.08,0.14,0.16,0.21,0.25
			c0.04,0.06,0.09,0.12,0.12,0.18c0,0-0.01-0.16-0.07-0.41v0c-0.03-0.13-0.07-0.29-0.13-0.47c-0.12-0.38-0.32-0.84-0.64-1.24
			c-0.14-0.17-0.29-0.33-0.48-0.47l0,0c-0.1-0.08-0.2-0.15-0.31-0.21c-0.1-0.06-0.2-0.11-0.32-0.15c0,0,0,0,0,0
			c-0.19-0.08-0.4-0.14-0.63-0.17c-0.14-0.02-0.28-0.04-0.43-0.04c-0.68-0.02-1.24-0.04-1.7-0.07c-0.35-0.02-0.64-0.03-0.88-0.05
			c-0.74-0.05-1.02-0.09-1.02-0.09s0,0.01,0.01,0.04v0c0.07,0.21,0.4,1.14,1.07,2.06c0,0,0,0,0,0c0,0,0,0,0,0h0
			c0.31,0.42,0.69,0.84,1.16,1.19c0.65,0.48,1.46,0.82,2.45,0.82c0.43,0,0.9-0.06,1.4-0.21c0.09-0.02,0.18-0.05,0.27-0.08
			c0.02-0.01,0.04-0.01,0.06-0.02c0,0-0.02-0.02-0.05-0.06c-0.04-0.05-0.12-0.14-0.22-0.26c-0.26-0.29-0.68-0.73-1.18-1.14
			c-0.53-0.44-1.14-0.84-1.75-1.02c0.3,0.08,1.02,0.29,1.75,0.68C38.56,34.92,39.03,35.24,39.4,35.63z M39.4,35.63
			c0.07,0.08,0.14,0.16,0.21,0.25c0.04,0.06,0.09,0.12,0.12,0.18c0,0-0.01-0.16-0.07-0.41v0c-0.03-0.13-0.07-0.29-0.13-0.47
			c-0.12-0.38-0.32-0.84-0.64-1.24c-0.14-0.17-0.29-0.33-0.48-0.47l0,0c-0.1-0.08-0.2-0.15-0.31-0.21c-0.1-0.06-0.2-0.11-0.32-0.15
			c0,0,0,0,0,0c-0.19-0.08-0.4-0.14-0.63-0.17c-0.14-0.02-0.28-0.04-0.43-0.04c-0.68-0.02-1.24-0.04-1.7-0.07
			c-0.35-0.02-0.64-0.03-0.88-0.05c-0.74-0.05-1.02-0.09-1.02-0.09s0,0.01,0.01,0.04v0c0.07,0.21,0.4,1.14,1.07,2.06c0,0,0,0,0,0
			c0,0,0,0,0,0h0c0.31,0.42,0.69,0.84,1.16,1.19c0.65,0.48,1.46,0.82,2.45,0.82c0.43,0,0.9-0.06,1.4-0.21
			c0.09-0.02,0.18-0.05,0.27-0.08c0.02-0.01,0.04-0.01,0.06-0.02c0,0-0.02-0.02-0.05-0.06c-0.04-0.05-0.12-0.14-0.22-0.26
			c-0.26-0.29-0.68-0.73-1.18-1.14c-0.53-0.44-1.14-0.84-1.75-1.02c0.3,0.08,1.02,0.29,1.75,0.68
			C38.56,34.92,39.03,35.24,39.4,35.63z M39.4,35.63c0.07,0.08,0.14,0.16,0.21,0.25c0.04,0.06,0.09,0.12,0.12,0.18
			c0,0-0.01-0.16-0.07-0.41v0c-0.03-0.13-0.07-0.29-0.13-0.47c-0.12-0.38-0.32-0.84-0.64-1.24c-0.14-0.17-0.29-0.33-0.48-0.47l0,0
			c-0.1-0.08-0.2-0.15-0.31-0.21c-0.1-0.06-0.2-0.11-0.32-0.15c0,0,0,0,0,0c-0.19-0.08-0.4-0.14-0.63-0.17
			c-0.14-0.02-0.28-0.04-0.43-0.04c-0.68-0.02-1.24-0.04-1.7-0.07c-0.35-0.02-0.64-0.03-0.88-0.05c-0.74-0.05-1.02-0.09-1.02-0.09
			s0,0.01,0.01,0.04v0c0.07,0.21,0.4,1.14,1.07,2.06c0,0,0,0,0,0c0,0,0,0,0,0h0c0.31,0.42,0.69,0.84,1.16,1.19
			c0.65,0.48,1.46,0.82,2.45,0.82c0.43,0,0.9-0.06,1.4-0.21c0.09-0.02,0.18-0.05,0.27-0.08c0.02-0.01,0.04-0.01,0.06-0.02
			c0,0-0.02-0.02-0.05-0.06c-0.04-0.05-0.12-0.14-0.22-0.26c-0.26-0.29-0.68-0.73-1.18-1.14c-0.53-0.44-1.14-0.84-1.75-1.02
			c0.3,0.08,1.02,0.29,1.75,0.68C38.56,34.92,39.03,35.24,39.4,35.63z M39.4,35.63c0.07,0.08,0.14,0.16,0.21,0.25
			c0.04,0.06,0.09,0.12,0.12,0.18c0,0-0.01-0.16-0.07-0.41v0c-0.03-0.13-0.07-0.29-0.13-0.47c-0.12-0.38-0.32-0.84-0.64-1.24
			c-0.14-0.17-0.29-0.33-0.48-0.47l0,0c-0.1-0.08-0.2-0.15-0.31-0.21c-0.1-0.06-0.2-0.11-0.32-0.15c0,0,0,0,0,0
			c-0.19-0.08-0.4-0.14-0.63-0.17c-0.14-0.02-0.28-0.04-0.43-0.04c-0.68-0.02-1.24-0.04-1.7-0.07c-0.35-0.02-0.64-0.03-0.88-0.05
			c-0.74-0.05-1.02-0.09-1.02-0.09s0,0.01,0.01,0.04v0c0.07,0.21,0.4,1.14,1.07,2.06c0,0,0,0,0,0c0,0,0,0,0,0h0
			c0.31,0.42,0.69,0.84,1.16,1.19c0.65,0.48,1.46,0.82,2.45,0.82c0.43,0,0.9-0.06,1.4-0.21c0.09-0.02,0.18-0.05,0.27-0.08
			c0.02-0.01,0.04-0.01,0.06-0.02c0,0-0.02-0.02-0.05-0.06c-0.04-0.05-0.12-0.14-0.22-0.26c-0.26-0.29-0.68-0.73-1.18-1.14
			c-0.53-0.44-1.14-0.84-1.75-1.02c0.3,0.08,1.02,0.29,1.75,0.68C38.56,34.92,39.03,35.24,39.4,35.63z M39.66,35.65L39.66,35.65
			c-0.03-0.14-0.07-0.3-0.13-0.47c-0.12-0.38-0.32-0.84-0.64-1.24c-0.14-0.17-0.29-0.33-0.48-0.47l0,0c-0.1-0.08-0.2-0.15-0.31-0.21
			c-0.1-0.06-0.2-0.11-0.32-0.15c0,0,0,0,0,0c-0.19-0.08-0.4-0.14-0.63-0.17c-0.14-0.02-0.28-0.04-0.43-0.04
			c-0.68-0.02-1.24-0.04-1.7-0.07c-0.35-0.02-0.64-0.03-0.88-0.05c-0.74-0.05-1.02-0.09-1.02-0.09s0,0.01,0.01,0.04v0
			c0.07,0.21,0.4,1.14,1.07,2.06c0,0,0,0,0,0c0,0,0,0,0,0h0c0.31,0.42,0.69,0.84,1.16,1.19c0.65,0.48,1.46,0.82,2.45,0.82
			c0.43,0,0.9-0.06,1.4-0.21c0.01-0.14,0.03-0.28,0.06-0.42c-0.26-0.29-0.68-0.73-1.18-1.14c-0.53-0.44-1.14-0.84-1.75-1.02
			c0.3,0.08,1.02,0.29,1.75,0.68c0.46,0.24,0.93,0.56,1.3,0.95c0.07,0.08,0.14,0.16,0.21,0.25c0.04,0.06,0.09,0.12,0.12,0.18
			C39.73,36.06,39.72,35.9,39.66,35.65z M38.1,35.02c-0.53-0.44-1.14-0.84-1.75-1.02c0.3,0.08,1.02,0.29,1.75,0.68V33.6
			c-0.35-0.19-0.67-0.41-0.95-0.67c-0.14-0.02-0.28-0.04-0.43-0.04c-0.68-0.02-1.24-0.04-1.7-0.07c-0.35-0.02-0.64-0.03-0.88-0.05
			c-0.74-0.05-1.02-0.09-1.02-0.09s0,0.01,0.01,0.04v0c0.07,0.21,0.4,1.14,1.07,2.06c0,0,0,0,0,0c0,0,0,0,0,0h0
			c0.31,0.42,0.69,0.84,1.16,1.19c0.65,0.48,1.46,0.82,2.45,0.82c0.43,0,0.9-0.06,1.4-0.21c0.01-0.14,0.03-0.28,0.06-0.42
			C39.02,35.87,38.6,35.43,38.1,35.02z M34.14,32.76c-0.74-0.05-1.02-0.09-1.02-0.09s0,0.01,0.01,0.04v0
			c0.07,0.21,0.4,1.14,1.07,2.06c0,0,0,0,0,0c0,0,0,0,0,0h0l0.8-1.97C34.67,32.8,34.38,32.78,34.14,32.76z"/>
		<path class="st0" d="M39.19,33.49c-0.23-0.07-0.45-0.16-0.65-0.25h0c-0.13-0.1-0.28-0.2-0.44-0.28c-0.06-0.03-0.13-0.06-0.2-0.09
			c-0.19-0.13-0.35-0.27-0.51-0.43c0.25,0.05,0.48,0.13,0.7,0.23C38.52,32.86,38.88,33.13,39.19,33.49z"/>
		<path class="st0" d="M35.37,17.97c0,0-0.01-0.09-0.23-0.26c-0.22-0.17-1.17,0.01-1.45-0.12c-0.19-0.09-0.5,0-0.66,0.07
			c-0.03,0.01-0.06-0.02-0.03-0.05c0.17-0.2,0.64-0.65,1.4-0.74C35.38,16.75,35.37,17.97,35.37,17.97z"/>
		<path class="st0" d="M32.42,16.48c2.3-1.38,3.25-0.28,3.39-0.08c0.01,0.01,0,0.02-0.01,0.02c-1.37-0.47-2.96-0.04-3.37,0.08
			C32.41,16.51,32.4,16.49,32.42,16.48z"/>
		<path class="st0" d="M36.4,22.84c0.27,0.01,0.49-0.03,0.64-0.07c-0.07,0.31-0.34,0.54-0.65,0.53c-0.33-0.01-0.63-0.56-0.65-0.59
			C35.88,22.77,36.11,22.83,36.4,22.84z"/>
		<path class="st0" d="M38.16,21.46c0,0-1.69,1.37-3,0.07c-0.29-0.29-0.55-0.7-0.78-1.29c0.05,0.1,0.36,0.71,1.27,1.06
			C36.23,21.52,37.04,21.63,38.16,21.46z"/>
		<path class="st0" d="M39.23,16.33L39.23,16.33c0.01,0.17,0,0.35-0.03,0.53c0,0,0,0,0,0.01c0,0-1.08-0.31-1.38,0.32
			c-0.03,0.07-0.06,0.15-0.07,0.23c0,0,0.83-0.16,1.26,0.24v0c-0.05,0.17-0.09,0.33-0.11,0.46c-0.02-0.03-0.06-0.06-0.11-0.1
			c-0.06-0.05-0.12-0.08-0.14-0.05c-0.05,0.07-0.29,0.37-0.79,0c-0.02-0.01-0.06-0.02-0.1-0.06c0.08,0.57,0.35,1.22,0.37,1.71
			c0.01,0.18-0.09,0.34-0.23,0.47c0,0,0,0,0,0c-0.15,0.14-0.36,0.25-0.56,0.32c0,0,0,0,0,0c-0.39,0.14-0.76,0.16-0.7,0.01
			c0.13-0.3,0.95-0.56,0.97-0.86c0.01-0.3-0.52-1.75-0.25-2.65C37.61,16.03,39.23,16.33,39.23,16.33z"/>
		<path class="st0" d="M34.14,32.76L33.9,33.3l-0.76-0.59v0c-0.01-0.03-0.01-0.04-0.01-0.04S33.4,32.72,34.14,32.76z"/>
		<path class="st0" d="M38.1,32.96V33c-0.07-0.04-0.13-0.08-0.2-0.13C37.97,32.89,38.04,32.92,38.1,32.96z"/>
		<path class="st0" d="M38.1,33.25v1.43c-0.73-0.38-1.44-0.6-1.75-0.68c0.61,0.17,1.22,0.58,1.75,1.02v0.87l-2.73,0.08
			c-0.47-0.35-0.85-0.77-1.16-1.19l0.8-1.97c0.46,0.02,1.02,0.05,1.7,0.07c0.15,0,0.29,0.02,0.43,0.04
			c0.23,0.03,0.44,0.09,0.63,0.17c0,0,0,0,0,0C37.9,33.14,38,33.19,38.1,33.25z"/>
		<g>
			<g>
				<path class="st0" d="M45.5,27.29c-0.01,0.04-0.02,0.07-0.03,0.11 M45.52,27.23c0,0,0,0.01,0,0.01c0,0,0,0,0,0
					c0,0.01-0.01,0.03-0.01,0.04c-0.01,0.04-0.02,0.07-0.03,0.11c0,0.02-0.01,0.03-0.01,0.05 M41.75,32.74c0.01,0,0.02,0,0.03,0
					c0.03,0,0.06,0,0.09-0.01c0.06-0.08,0.12-0.16,0.18-0.25C42.04,32.49,41.92,32.58,41.75,32.74z M42.3,32.99c0,0,0.01,0,0.01,0
					c0,0,0.01-0.01,0.01-0.02C42.32,32.98,42.31,32.98,42.3,32.99z"/>
				<path class="st0" d="M47.44,22.66c0,0-0.18,1.27-0.31,5.35c-0.11,3.34-3.21,4.21-4.33,4.41c-0.09,0.02-0.17,0.03-0.23,0.04
					c-0.11,0.02-0.17,0.02-0.17,0.02c0.05-0.03,0.11-0.07,0.16-0.11c0.04-0.03,0.08-0.06,0.12-0.09c1.74-1.32,2.57-4.03,2.78-4.83
					c-0.5,1.75-2.34,3.57-3.21,4.36c-0.06,0.06-0.12,0.11-0.17,0.15c-0.19,0.16-0.3,0.26-0.3,0.26c-0.02-0.05-0.03-0.1-0.05-0.14
					c-0.12-0.35-0.21-0.7-0.28-1.03C40.21,24.84,47.44,22.66,47.44,22.66z"/>
			</g>
			<g>
				<path class="st0" d="M38.41,33.46c-0.11-0.05-0.21-0.1-0.31-0.16c-0.11-0.06-0.22-0.13-0.32-0.2c0.11,0.04,0.22,0.1,0.32,0.15
					C38.21,33.31,38.32,33.39,38.41,33.46z"/>
				<path class="st0" d="M38.54,33.24c-0.16-0.07-0.3-0.15-0.44-0.24c-0.07-0.04-0.13-0.08-0.2-0.13c0.07,0.03,0.13,0.06,0.2,0.09
					C38.26,33.04,38.41,33.13,38.54,33.24z"/>
				<path class="st0" d="M40.29,33.63C40.29,33.64,40.29,33.64,40.29,33.63c0,0.01,0,0.01,0,0.01
					C40.29,33.64,40.3,33.64,40.29,33.63C40.29,33.64,40.29,33.64,40.29,33.63z M38.1,32.96c-0.06-0.03-0.13-0.06-0.2-0.09
					c0.06,0.05,0.13,0.09,0.2,0.13c0.14,0.09,0.28,0.17,0.44,0.24C38.41,33.13,38.26,33.04,38.1,32.96z M38.41,33.46L38.41,33.46
					c-0.1-0.08-0.2-0.15-0.31-0.21c-0.1-0.06-0.2-0.11-0.32-0.15c0,0,0,0,0,0c-0.19-0.08-0.4-0.14-0.63-0.17
					c0.28,0.26,0.6,0.49,0.95,0.67c0.25,0.13,0.51,0.25,0.79,0.34C38.75,33.77,38.6,33.61,38.41,33.46z M38.1,32.96
					c-0.06-0.03-0.13-0.06-0.2-0.09c0.06,0.05,0.13,0.09,0.2,0.13c0.14,0.09,0.28,0.17,0.44,0.24
					C38.41,33.13,38.26,33.04,38.1,32.96z M38.25,29.85L38.25,29.85L38.25,29.85c0.04,0.03,0.08,0.07,0.11,0.1 M38.54,33.24
					L38.54,33.24 M38.54,33.24L38.54,33.24 M37.9,32.86c0.06,0.05,0.13,0.09,0.2,0.13c0.14,0.09,0.28,0.17,0.44,0.24 M38.54,33.24
					L38.54,33.24"/>
				<path class="st0" d="M38.37,29.96c1.18,1.14,1.67,3.73,1.67,3.73c-0.3-0.05-0.59-0.11-0.84-0.19c-0.31-0.36-0.68-0.64-1.09-0.82
					c-0.22-0.1-0.46-0.18-0.7-0.23c-0.63-0.63-0.98-1.4-1.17-2.16c-0.09-0.38-0.15-0.75-0.17-1.1c-0.09-1.09,0.08-1.94,0.08-1.94
					s0.7,0.52,3.1,1.9c0.51,0.3,0.86,0.66,1.09,1.05c0.83,1.43,0.07,3.21,0.07,3.21C40.28,31.85,38.8,30.36,38.37,29.96z"/>
			</g>
			<g>
				<path class="st0" d="M38.54,33.24c-0.16-0.07-0.3-0.15-0.44-0.24c-0.07-0.04-0.13-0.08-0.2-0.13c0.07,0.03,0.13,0.06,0.2,0.09
					C38.26,33.04,38.41,33.13,38.54,33.24z"/>
				<path class="st0" d="M38.1,34.68c-0.73-0.38-1.44-0.6-1.75-0.68c0.61,0.17,1.22,0.58,1.75,1.02c0.5,0.41,0.92,0.85,1.18,1.14
					c0.1,0.11,0.18,0.2,0.22,0.26c0.03,0.04,0.05,0.06,0.05,0.06c-0.02,0.01-0.04,0.01-0.06,0.02c-0.09,0.03-0.18,0.06-0.27,0.08
					c-0.5,0.15-0.97,0.21-1.4,0.21c-0.99,0-1.8-0.34-2.45-0.82c-0.47-0.35-0.85-0.77-1.16-1.19h0c0,0,0,0,0,0c0,0,0,0,0,0
					c-0.67-0.92-1-1.85-1.07-2.06v0c-0.01-0.03-0.01-0.04-0.01-0.04s0.28,0.04,1.02,0.09c0.24,0.02,0.53,0.03,0.88,0.05
					c0.46,0.02,1.02,0.05,1.7,0.07c0.15,0,0.29,0.02,0.43,0.04c0.23,0.03,0.44,0.09,0.63,0.17c0,0,0,0,0,0
					c0.11,0.04,0.22,0.1,0.32,0.15c0.11,0.06,0.22,0.13,0.31,0.21l0,0c0.18,0.14,0.34,0.3,0.48,0.47c0.32,0.4,0.52,0.85,0.64,1.24
					c0.06,0.18,0.1,0.34,0.13,0.47v0c0.05,0.25,0.07,0.41,0.07,0.41c-0.04-0.06-0.08-0.12-0.12-0.18c-0.06-0.09-0.13-0.17-0.21-0.25
					C39.03,35.24,38.56,34.92,38.1,34.68z"/>
				<path class="st0" d="M39.78,36.31L39.78,36.31c-0.01,0-0.01,0-0.02,0C39.76,36.31,39.77,36.31,39.78,36.31z"/>
				<path class="st0" d="M39.8,36.55c-0.01,0.04-0.04,0.08-0.07,0.11c0.01-0.11,0.02-0.22,0.04-0.32
					C39.81,36.4,39.82,36.48,39.8,36.55z"/>
				<path class="st0" d="M39.99,36.03c0.01,0.12-0.06,0.23-0.17,0.27c-0.01,0-0.02,0.01-0.03,0.01c0.04-0.23,0.09-0.45,0.15-0.66
					C39.97,35.88,39.99,36.03,39.99,36.03z"/>
				<path class="st0" d="M40.08,35.18c-0.06,0.15-0.11,0.3-0.15,0.47c-0.06,0.21-0.11,0.43-0.15,0.66c-0.01,0-0.01,0-0.02,0
					c0.01,0.01,0.01,0.01,0.02,0.02v0c-0.02,0.11-0.03,0.21-0.04,0.32v0c-0.01,0.1-0.02,0.2-0.02,0.31c0,0,0.01,0,0.01,0
					c0.16-0.05,0.28-0.18,0.33-0.35c0.02-0.06,0.02-0.11,0.02-0.17c0.12-0.11,0.19-0.26,0.17-0.43
					C40.24,35.99,40.21,35.65,40.08,35.18z M39.4,35.63c0.07,0.08,0.14,0.16,0.21,0.25c0.04,0.06,0.09,0.12,0.12,0.18
					c0,0-0.01-0.16-0.07-0.41v0c-0.03-0.13-0.07-0.29-0.13-0.47c-0.12-0.38-0.32-0.84-0.64-1.24c-0.14-0.17-0.29-0.33-0.48-0.47l0,0
					c-0.1-0.08-0.2-0.15-0.31-0.21c-0.1-0.06-0.2-0.11-0.32-0.15c0,0,0,0,0,0c-0.19-0.08-0.4-0.14-0.63-0.17
					c-0.14-0.02-0.28-0.04-0.43-0.04c-0.68-0.02-1.24-0.04-1.7-0.07c-0.35-0.02-0.64-0.03-0.88-0.05c-0.74-0.05-1.02-0.09-1.02-0.09
					s0,0.01,0.01,0.04v0c0.07,0.21,0.4,1.14,1.07,2.06c0,0,0,0,0,0c0,0,0,0,0,0h0c0.31,0.42,0.69,0.84,1.16,1.19
					c0.65,0.48,1.46,0.82,2.45,0.82c0.43,0,0.9-0.06,1.4-0.21c0.09-0.02,0.18-0.05,0.27-0.08c0.02-0.01,0.04-0.01,0.06-0.02
					c0,0-0.02-0.02-0.05-0.06c-0.04-0.05-0.12-0.14-0.22-0.26c-0.26-0.29-0.68-0.73-1.18-1.14c-0.53-0.44-1.14-0.84-1.75-1.02
					c0.3,0.08,1.02,0.29,1.75,0.68C38.56,34.92,39.03,35.24,39.4,35.63z M38.1,32.96c-0.06-0.03-0.13-0.06-0.2-0.09
					c0.06,0.05,0.13,0.09,0.2,0.13c0.14,0.09,0.28,0.17,0.44,0.24C38.41,33.13,38.26,33.04,38.1,32.96z M39.4,35.63
					c0.07,0.08,0.14,0.16,0.21,0.25c0.04,0.06,0.09,0.12,0.12,0.18c0,0-0.01-0.16-0.07-0.41v0c-0.03-0.13-0.07-0.29-0.13-0.47
					c-0.12-0.38-0.32-0.84-0.64-1.24c-0.14-0.17-0.29-0.33-0.48-0.47l0,0c-0.1-0.08-0.2-0.15-0.31-0.21
					c-0.1-0.06-0.2-0.11-0.32-0.15c0,0,0,0,0,0c-0.19-0.08-0.4-0.14-0.63-0.17c-0.14-0.02-0.28-0.04-0.43-0.04
					c-0.68-0.02-1.24-0.04-1.7-0.07c-0.35-0.02-0.64-0.03-0.88-0.05c-0.74-0.05-1.02-0.09-1.02-0.09s0,0.01,0.01,0.04v0
					c0.07,0.21,0.4,1.14,1.07,2.06c0,0,0,0,0,0c0,0,0,0,0,0h0c0.31,0.42,0.69,0.84,1.16,1.19c0.65,0.48,1.46,0.82,2.45,0.82
					c0.43,0,0.9-0.06,1.4-0.21c0.09-0.02,0.18-0.05,0.27-0.08c0.02-0.01,0.04-0.01,0.06-0.02c0,0-0.02-0.02-0.05-0.06
					c-0.04-0.05-0.12-0.14-0.22-0.26c-0.26-0.29-0.68-0.73-1.18-1.14c-0.53-0.44-1.14-0.84-1.75-1.02c0.3,0.08,1.02,0.29,1.75,0.68
					C38.56,34.92,39.03,35.24,39.4,35.63z M36.2,33.96c0.01,0,0.01,0,0.02,0c0.02,0,0.05,0.01,0.09,0.02c0.01,0,0.02,0,0.03,0.01
					 M38.1,33.25c0.11,0.06,0.22,0.13,0.31,0.21l0,0c0.18,0.14,0.34,0.3,0.48,0.47c0.32,0.4,0.52,0.85,0.64,1.24
					c0.06,0.18,0.1,0.34,0.13,0.47v0c0.05,0.25,0.07,0.41,0.07,0.41c-0.04-0.06-0.08-0.12-0.12-0.18c-0.06-0.09-0.13-0.17-0.21-0.25
					c-0.37-0.39-0.83-0.71-1.3-0.95c-0.73-0.38-1.44-0.6-1.75-0.68c0.61,0.17,1.22,0.58,1.75,1.02c0.5,0.41,0.92,0.85,1.18,1.14
					c0.1,0.11,0.18,0.2,0.22,0.26c0.03,0.04,0.05,0.06,0.05,0.06c-0.02,0.01-0.04,0.01-0.06,0.02c-0.09,0.03-0.18,0.06-0.27,0.08
					c-0.5,0.15-0.97,0.21-1.4,0.21c-0.99,0-1.8-0.34-2.45-0.82c-0.47-0.35-0.85-0.77-1.16-1.19h0c0,0,0,0,0,0c0,0,0,0,0,0
					c-0.67-0.92-1-1.85-1.07-2.06v0c-0.01-0.03-0.01-0.04-0.01-0.04s0.28,0.04,1.02,0.09c0.24,0.02,0.53,0.03,0.88,0.05
					c0.46,0.02,1.02,0.05,1.7,0.07c0.15,0,0.29,0.02,0.43,0.04c0.23,0.03,0.44,0.09,0.63,0.17c0,0,0,0,0,0
					C37.9,33.14,38,33.19,38.1,33.25"/>
			</g>
			<g>
				<path class="st0" d="M42.33,32.97c0,0.01-0.01,0.01-0.01,0.02c0,0-0.01,0-0.01,0C42.31,32.98,42.32,32.98,42.33,32.97z"/>
				<path class="st0" d="M44.21,33.88c-0.08,0.03-0.15,0.06-0.23,0.09c0,0,0-0.01-0.01-0.01C44.07,33.93,44.15,33.9,44.21,33.88z"/>
				<path class="st0" d="M42.3,32.99c0,0,0.01,0,0.01,0c0,0,0.01-0.01,0.01-0.02C42.32,32.98,42.31,32.98,42.3,32.99z M43.97,33.96
					C43.98,33.97,43.98,33.97,43.97,33.96c0.08-0.02,0.16-0.05,0.23-0.08C44.15,33.9,44.07,33.93,43.97,33.96z M40.84,34.35
					c-0.4,0.9-0.43,1.76-0.43,1.8c0,0.12,0.03,0.23,0.1,0.32c0.06-0.89,0.3-1.96,0.92-3.06C41.2,33.67,41,33.99,40.84,34.35z
					 M44.21,33.88c0.01,0,0.03-0.01,0.04-0.01c0.01,0,0.03-0.01,0.04-0.01c0,0,0.01,0,0.01,0c0.01,0,0.02-0.01,0.03-0.01
					c0,0,0.01,0,0.01,0c0.01,0,0.01,0,0.01,0"/>
				<path class="st0" d="M47.38,32.35c0,0-0.54,2.26-2.19,3.55c-0.66,0.52-1.5,0.88-2.56,0.88c-0.46,0-0.95-0.07-1.49-0.22
					c0,0,1.38-1.94,2.85-2.6c0.07-0.03,0.15-0.06,0.23-0.09c-0.06,0.02-0.14,0.05-0.23,0.08c-0.69,0.25-2.15,0.89-2.88,1.94
					c-0.06,0.08-0.11,0.17-0.16,0.25c0,0,0.04-1.44,0.92-2.45c0.32-0.36,0.75-0.67,1.32-0.83c0.18-0.05,0.38-0.09,0.59-0.11
					C46.52,32.52,47.38,32.35,47.38,32.35z"/>
			</g>
			<g>
				<path class="st0" d="M39.55,36.48c-0.02,0.01-0.04,0.01-0.06,0.02c0-0.03,0.01-0.05,0.01-0.08
					C39.54,36.45,39.55,36.48,39.55,36.48z"/>
				<path class="st0" d="M39.73,36.06c-0.04-0.06-0.08-0.12-0.12-0.18c0.02-0.08,0.04-0.15,0.06-0.23
					C39.72,35.9,39.73,36.06,39.73,36.06z"/>
				<path class="st0" d="M40.31,34.13c-0.01,0.02-0.02,0.04-0.04,0.06C40.28,34.17,40.3,34.15,40.31,34.13L40.31,34.13z"/>
			</g>
		</g>
		<g>
			<path class="st0" d="M38.18,44.54c5.4,0.5,9.37-0.88,9.37-0.88l0.24-1.88c-2.49,0.3-5.02,0.46-7.52,0.46h-0.14
				c-2.45,0-4.93-0.16-7.38-0.46l0.32,2.51c0.45-0.27,0.89-0.53,1.22-0.79c0.78-0.64,1.12-0.95,1.12-0.95s0.17,0.08,0.23,0.52
				c0.07,0.44-0.8,1.32-1.44,1.99c-0.64,0.67-0.49,0.8-0.49,0.8c1.24,1.98,5.22,1.72,4.78,2.24c-0.44,0.52-3.35,0.16-3.35,0.16
				c0.96,0.82,3.62,0.82,2.86,1.11c-0.77,0.29-3.12-0.02-3.12-0.02c0.57,0.41,1.99,0.59,2.4,0.52c0.41-0.06,0.69,0.1,0.48,0.25
				c-1.26,0.57-2.65,0.57-3.89,0.36l0.06,0.5c0.06,0.5,0.48,0.9,1,0.97c0.56,0.07,1.13,0.12,1.69,0.2c1.21,0.17,2.44,0.25,3.66,0.25
				c0.86,0,1.71-0.04,2.57-0.12c0.22-0.02,0.44-0.05,0.66-0.07c0.68-0.08,1.37-0.17,2.05-0.25c0.53-0.06,0.95-0.46,1.01-0.97
				l0.47-3.61c-0.12,0.03-0.23,0.06-0.35,0.09c-3.37,0.8-5.99,0.23-7.34-0.23c-0.17-0.05-0.11-0.3,0.06-0.28
				c4.2,0.39,7.36-0.58,7.77-0.72v0l0.16-1.2c-4.26,1.13-7.59,0.41-9.27-0.16C37.91,44.81,37.97,44.52,38.18,44.54z"/>
		</g>
		<g>
			<path class="st0" d="M48.66,38.74v1.72c0,0.22-0.09,0.42-0.24,0.56c-0.08,0.08-0.18,0.14-0.28,0.18
				c-0.05,0.02-0.11,0.03-0.17,0.04c-0.03,0-0.07,0.01-0.1,0.01c-0.05,0.01-0.11,0.01-0.16,0.02c-2.25,0.27-4.73,0.45-7.42,0.45
				h-0.14c-2.7-0.01-5.2-0.19-7.45-0.47c-0.03,0-0.07-0.01-0.1-0.01c-0.06-0.01-0.11-0.02-0.17-0.04c-0.11-0.04-0.2-0.1-0.28-0.18
				c-0.15-0.14-0.24-0.34-0.24-0.56v-1.72c0-0.44,0.35-0.79,0.79-0.79c0.01,0,0.03,0,0.05,0c2.08,0.13,4.26,0.21,6.52,0.23
				c0.09,0,0.17,0,0.26,0c0.09,0,0.17,0,0.26,0c0.15,0,0.3,0,0.45,0h0.05c0.11,0,0.21,0,0.32,0c0.09,0,0.17,0,0.26,0
				c0.09,0,0.17,0,0.26,0c1.78-0.01,3.51-0.06,5.18-0.15c0.51-0.02,1.02-0.05,1.52-0.08c0.02,0,0.03,0,0.05,0
				C48.3,37.95,48.66,38.3,48.66,38.74z"/>
		</g>
		<path class="st0" d="M32.62,6.41c-0.38-0.21-0.83-0.26-1.24-0.12c-1.46,0.48-5,1.8-7.03,3.9c-0.22,0.23-0.37,0.51-0.45,0.82
			c-0.17,0.68-0.47,2.06-0.57,3.67c5.07-5.96,9.91-6.18,9.91-6.18c-5.27,1.21-8.57,5.66-9.69,7.42c1.11-1.19,5.98-5.99,13.52-7.02
			L32.62,6.41z"/>
		<path class="st0" d="M35.37,17.97c0,0-0.01-0.09-0.23-0.26c-0.22-0.17-1.17,0.01-1.45-0.12c-0.19-0.09-0.5,0-0.66,0.07
			c-0.03,0.01-0.06-0.02-0.03-0.05c0.17-0.2,0.64-0.65,1.4-0.74C35.38,16.75,35.37,17.97,35.37,17.97z"/>
		<path class="st0" d="M35.8,16.42c-1.37-0.47-2.96-0.04-3.37,0.08c-0.01,0-0.02-0.02-0.01-0.02c2.3-1.38,3.25-0.28,3.39-0.08
			C35.82,16.42,35.81,16.43,35.8,16.42z"/>
		<path class="st0" d="M39.24,16.61c-0.01,0.1-0.02,0.18-0.04,0.25c0,0,0,0,0,0.01c0,0-1.08-0.31-1.38,0.32
			c-0.03,0.07-0.06,0.15-0.07,0.23c-0.03,0.15-0.02,0.32,0,0.5v0c0.08,0.57,0.35,1.22,0.37,1.71c0.01,0.18-0.09,0.34-0.23,0.47
			c0,0,0,0,0,0c-0.15,0.14-0.36,0.25-0.56,0.32c0,0,0,0,0,0c-0.39,0.14-0.76,0.16-0.7,0.01c0.13-0.3,0.95-0.56,0.97-0.86
			c0.01-0.3-0.52-1.75-0.25-2.65c0.27-0.9,1.89-0.6,1.89-0.6v0C39.24,16.4,39.25,16.5,39.24,16.61z"/>
		<path class="st0" d="M39,17.66L39,17.66c0,0.06,0,0.13-0.02,0.2c-0.02,0.11-0.06,0.2-0.1,0.26c-0.02-0.03-0.06-0.06-0.11-0.1
			c-0.06-0.05-0.12-0.08-0.14-0.05c-0.05,0.07-0.29,0.37-0.79,0c-0.02-0.01-0.06-0.02-0.1-0.06v0c-0.03-0.02-0.06-0.05-0.08-0.09
			c-0.06-0.12-0.03-0.28,0.07-0.4C37.75,17.42,38.58,17.26,39,17.66z"/>
		<path class="st0" d="M38.16,21.46c0,0-1.69,1.37-3,0.07c-0.29-0.29-0.55-0.7-0.78-1.29c0.05,0.1,0.36,0.71,1.27,1.06
			C36.23,21.52,37.04,21.63,38.16,21.46z"/>
		<path class="st0" d="M37.03,22.77c-0.07,0.31-0.34,0.54-0.65,0.53c-0.33-0.01-0.63-0.56-0.65-0.59c0.15,0.06,0.38,0.12,0.66,0.14
			C36.67,22.85,36.89,22.81,37.03,22.77z"/>
		<path class="st0" d="M37.86,17.77L37.86,17.77z"/>
	</g>
	<path class="st0" d="M22.44,15.44c0,0-2.39-1.83-4.99-0.61C17.45,14.83,20.77,18.05,22.44,15.44z"/>
	<path class="st0" d="M22.3,14.67c0,0-0.02-1.55-1.35-2.22C20.95,12.46,20.71,14.84,22.3,14.67z"/>
</g>
</svg>
