<?xml version="1.0" encoding="utf-8"?>
<!-- Generator: Adobe Illustrator 28.3.0, SVG Export Plug-In . SVG Version: 6.00 Build 0)  -->
<svg version="1.1" id="Layer_1" xmlns="http://www.w3.org/2000/svg" xmlns:xlink="http://www.w3.org/1999/xlink" x="0px" y="0px"
	 viewBox="0 0 2911.6 666.08" style="enable-background:new 0 0 2911.6 666.08;" xml:space="preserve">
<style type="text/css">
	.st0{fill:#2B623D;}
	.st1{fill:none;stroke:#2B623D;stroke-width:5;stroke-miterlimit:10;}
</style>
<g>
	<g>
		<g>
			<path class="st0" d="M398.69,190.68c-1.92-0.9-4.9,0.03-6.49,0.66c-0.3,0.13-0.56-0.23-0.35-0.48c1.71-1.99,6.33-6.46,13.85-7.35
				c9.74-1.15,9.6,10.89,9.6,10.89s-0.15-0.87-2.3-2.58C410.87,190.1,401.41,191.96,398.69,190.68z"/>
			<path class="st0" d="M418.17,227.27c-1.58,0.76-3.17,1.5-4.77,2.23c-0.03,0.02-0.05,0.03-0.08,0.03
				c-2.83-2.84-5.47-6.95-7.71-12.75C406.07,217.81,409.14,223.82,418.17,227.27z"/>
			<path class="st0" d="M419.68,178.91c0.08,0.1-0.02,0.23-0.13,0.18c-13.52-4.63-29.25-0.43-33.32,0.81
				c-0.13,0.05-0.21-0.16-0.08-0.23C408.91,165.98,418.23,176.91,419.68,178.91z"/>
			<path class="st0" d="M503.63,131.41c-11.86-25.77-71.5-23.6-133.2,4.83c-61.7,28.41-102.11,72.35-90.24,98.1
				c7.07,15.35,31.07,20.79,62.36,16.66c8.25-1.08,17.01-2.83,26.11-5.24c-5.88-6.98-9.89-16.22-10.14-28.41
				c0,0-18.31-7-14.21-21.13c3.91-13.56,30.63,2.51,54.04-38.63c1.97-3.47,5.29-6.01,8.96-7.59c8.25-3.55,23.6-6.42,41.95,7.9
				c1.68,1.3,2.68,3.27,2.83,5.37c0.2,3.25,0.61,8.54,1.3,13.61c0.07,0.41,0.1,0.84,0.13,1.27c0,0-16.04-2.97-18.7,5.96
				s2.66,23.22,2.51,26.19c-0.16,2.97-8.31,5.49-9.56,8.46c-0.62,1.48,3.06,1.3,6.89-0.11c0.02,0,0.02,0,0.02-0.02
				c1.87-1.05,3.73-2.12,5.54-3.2c0,0,0.02,0,0.03-0.02c1.41-1.3,2.35-2.86,2.27-4.63c-0.21-4.86-2.86-11.32-3.63-16.92
				c0.39,0.31,0.77,0.48,0.97,0.56c5.01,3.7,7.36,0.67,7.84,0c0.23-0.35,0.85,0.02,1.41,0.48c0.49,0.39,0.87,0.72,1.05,0.99
				c-0.18,1.1-0.23,2.07-0.1,2.88c0.35,2.07,1.18,5.5,1.79,9.33c3.53-2.35,6.93-4.75,10.17-7.18
				C494.51,176.55,511.96,149.5,503.63,131.41z M451.26,191.27c-4.24-3.96-12.44-2.35-12.44-2.35c0.13-0.82,0.36-1.59,0.69-2.3
				c2.99-6.28,13.65-3.19,13.65-3.19C452.72,186.16,451.93,188.84,451.26,191.27z"/>
			<path class="st0" d="M403.18,340.58c-7.33-0.48-10.06-0.87-10.06-0.87s0.05,0.13,0.13,0.39v0.02c0.67,2.04,3.93,11.26,10.6,20.36
				c0.02,0,0.02,0.02,0.02,0.02c0.02,0,0.02,0.02,0.02,0.02h0.02l7.95-19.44C408.44,340.91,405.56,340.75,403.18,340.58z
				 M442.32,362.88c-5.23-4.31-11.31-8.35-17.29-10.06c3.01,0.81,10.11,2.91,17.29,6.7v-10.71c-3.47-1.86-6.61-4.08-9.4-6.67
				c-1.35-0.23-2.76-0.36-4.24-0.41c-6.7-0.2-12.26-0.43-16.83-0.66c-3.42-0.16-6.29-0.33-8.68-0.49
				c-7.33-0.48-10.06-0.87-10.06-0.87s0.05,0.13,0.13,0.39v0.02c0.67,2.04,3.93,11.26,10.6,20.36c0.02,0,0.02,0.02,0.02,0.02
				c0.02,0,0.02,0.02,0.02,0.02h0.02c3.06,4.17,6.87,8.33,11.47,11.77c6.43,4.77,14.41,8.12,24.19,8.12c4.27,0,8.89-0.64,13.87-2.1
				c0.15-1.41,0.33-2.79,0.56-4.14C451.44,371.33,447.27,366.97,442.32,362.88z M457.77,369.09v-0.02c-0.3-1.33-0.71-2.91-1.28-4.65
				c-1.22-3.8-3.19-8.27-6.36-12.24c-1.35-1.69-2.89-3.27-4.7-4.68l-0.02-0.02c-0.95-0.76-1.99-1.46-3.09-2.09
				c-0.99-0.56-2.02-1.08-3.14-1.53c-0.02,0-0.03-0.02-0.05-0.02c-1.89-0.77-3.94-1.36-6.21-1.71c-1.35-0.23-2.76-0.36-4.24-0.41
				c-6.7-0.2-12.26-0.43-16.83-0.66c-3.42-0.16-6.29-0.33-8.68-0.49c-7.33-0.48-10.06-0.87-10.06-0.87s0.05,0.13,0.13,0.39v0.02
				c0.67,2.04,3.93,11.26,10.6,20.36c0.02,0,0.02,0.02,0.02,0.02c0.02,0,0.02,0.02,0.02,0.02h0.02c3.06,4.17,6.87,8.33,11.47,11.77
				c6.43,4.77,14.41,8.12,24.19,8.12c4.27,0,8.89-0.64,13.87-2.1c0.15-1.41,0.33-2.79,0.56-4.14c-2.55-2.83-6.72-7.18-11.67-11.27
				c-5.23-4.31-11.31-8.35-17.29-10.06c3.01,0.81,10.11,2.91,17.29,6.7c4.58,2.4,9.2,5.5,12.82,9.38c0.72,0.79,1.43,1.61,2.05,2.46
				c0.44,0.56,0.85,1.15,1.23,1.76C458.42,373.14,458.29,371.56,457.77,369.09z M455.14,368.91c0.72,0.79,1.43,1.61,2.05,2.46
				c0.44,0.56,0.85,1.15,1.23,1.76c0,0-0.13-1.58-0.66-4.04v-0.02c-0.3-1.33-0.71-2.91-1.28-4.65c-1.22-3.8-3.19-8.27-6.36-12.24
				c-1.35-1.69-2.89-3.27-4.7-4.68l-0.02-0.02c-0.95-0.76-1.99-1.46-3.09-2.09c-0.99-0.56-2.02-1.08-3.14-1.53
				c-0.02,0-0.03-0.02-0.05-0.02c-1.89-0.77-3.94-1.36-6.21-1.71c-1.35-0.23-2.76-0.36-4.24-0.41c-6.7-0.2-12.26-0.43-16.83-0.66
				c-3.42-0.16-6.29-0.33-8.68-0.49c-7.33-0.48-10.06-0.87-10.06-0.87s0.05,0.13,0.13,0.39v0.02c0.67,2.04,3.93,11.26,10.6,20.36
				c0.02,0,0.02,0.02,0.02,0.02c0.02,0,0.02,0.02,0.02,0.02h0.02c3.06,4.17,6.87,8.33,11.47,11.77c6.43,4.77,14.41,8.12,24.19,8.12
				c4.27,0,8.89-0.64,13.87-2.1c0.87-0.23,1.77-0.51,2.68-0.82c0.2-0.07,0.39-0.13,0.59-0.2c0,0-0.16-0.21-0.49-0.59
				c-0.44-0.53-1.2-1.41-2.22-2.53c-2.55-2.83-6.72-7.18-11.67-11.27c-5.23-4.31-11.31-8.35-17.29-10.06
				c3.01,0.81,10.11,2.91,17.29,6.7C446.91,361.93,451.52,365.04,455.14,368.91z M455.14,368.91c0.72,0.79,1.43,1.61,2.05,2.46
				c0.44,0.56,0.85,1.15,1.23,1.76c0,0-0.13-1.58-0.66-4.04v-0.02c-0.3-1.33-0.71-2.91-1.28-4.65c-1.22-3.8-3.19-8.27-6.36-12.24
				c-1.35-1.69-2.89-3.27-4.7-4.68l-0.02-0.02c-0.95-0.76-1.99-1.46-3.09-2.09c-0.99-0.56-2.02-1.08-3.14-1.53
				c-0.02,0-0.03-0.02-0.05-0.02c-1.89-0.77-3.94-1.36-6.21-1.71c-1.35-0.23-2.76-0.36-4.24-0.41c-6.7-0.2-12.26-0.43-16.83-0.66
				c-3.42-0.16-6.29-0.33-8.68-0.49c-7.33-0.48-10.06-0.87-10.06-0.87s0.05,0.13,0.13,0.39v0.02c0.67,2.04,3.93,11.26,10.6,20.36
				c0.02,0,0.02,0.02,0.02,0.02c0.02,0,0.02,0.02,0.02,0.02h0.02c3.06,4.17,6.87,8.33,11.47,11.77c6.43,4.77,14.41,8.12,24.19,8.12
				c4.27,0,8.89-0.64,13.87-2.1c0.87-0.23,1.77-0.51,2.68-0.82c0.2-0.07,0.39-0.13,0.59-0.2c0,0-0.16-0.21-0.49-0.59
				c-0.44-0.53-1.2-1.41-2.22-2.53c-2.55-2.83-6.72-7.18-11.67-11.27c-5.23-4.31-11.31-8.35-17.29-10.06
				c3.01,0.81,10.11,2.91,17.29,6.7C446.91,361.93,451.52,365.04,455.14,368.91z M455.14,368.91c0.72,0.79,1.43,1.61,2.05,2.46
				c0.44,0.56,0.85,1.15,1.23,1.76c0,0-0.13-1.58-0.66-4.04v-0.02c-0.3-1.33-0.71-2.91-1.28-4.65c-1.22-3.8-3.19-8.27-6.36-12.24
				c-1.35-1.69-2.89-3.27-4.7-4.68l-0.02-0.02c-0.95-0.76-1.99-1.46-3.09-2.09c-0.99-0.56-2.02-1.08-3.14-1.53
				c-0.02,0-0.03-0.02-0.05-0.02c-1.89-0.77-3.94-1.36-6.21-1.71c-1.35-0.23-2.76-0.36-4.24-0.41c-6.7-0.2-12.26-0.43-16.83-0.66
				c-3.42-0.16-6.29-0.33-8.68-0.49c-7.33-0.48-10.06-0.87-10.06-0.87s0.05,0.13,0.13,0.39v0.02c0.67,2.04,3.93,11.26,10.6,20.36
				c0.02,0,0.02,0.02,0.02,0.02c0.02,0,0.02,0.02,0.02,0.02h0.02c3.06,4.17,6.87,8.33,11.47,11.77c6.43,4.77,14.41,8.12,24.19,8.12
				c4.27,0,8.89-0.64,13.87-2.1c0.87-0.23,1.77-0.51,2.68-0.82c0.2-0.07,0.39-0.13,0.59-0.2c0,0-0.16-0.21-0.49-0.59
				c-0.44-0.53-1.2-1.41-2.22-2.53c-2.55-2.83-6.72-7.18-11.67-11.27c-5.23-4.31-11.31-8.35-17.29-10.06
				c3.01,0.81,10.11,2.91,17.29,6.7C446.91,361.93,451.52,365.04,455.14,368.91z M455.14,368.91c0.72,0.79,1.43,1.61,2.05,2.46
				c0.44,0.56,0.85,1.15,1.23,1.76c0,0-0.13-1.58-0.66-4.04v-0.02c-0.3-1.33-0.71-2.91-1.28-4.65c-1.22-3.8-3.19-8.27-6.36-12.24
				c-1.35-1.69-2.89-3.27-4.7-4.68l-0.02-0.02c-0.95-0.76-1.99-1.46-3.09-2.09c-0.99-0.56-2.02-1.08-3.14-1.53
				c-0.02,0-0.03-0.02-0.05-0.02c-1.89-0.77-3.94-1.36-6.21-1.71c-1.35-0.23-2.76-0.36-4.24-0.41c-6.7-0.2-12.26-0.43-16.83-0.66
				c-3.42-0.16-6.29-0.33-8.68-0.49c-7.33-0.48-10.06-0.87-10.06-0.87s0.05,0.13,0.13,0.39v0.02c0.67,2.04,3.93,11.26,10.6,20.36
				c0.02,0,0.02,0.02,0.02,0.02c0.02,0,0.02,0.02,0.02,0.02h0.02c3.06,4.17,6.87,8.33,11.47,11.77c6.43,4.77,14.41,8.12,24.19,8.12
				c4.27,0,8.89-0.64,13.87-2.1c0.87-0.23,1.77-0.51,2.68-0.82c0.2-0.07,0.39-0.13,0.59-0.2c0,0-0.16-0.21-0.49-0.59
				c-0.44-0.53-1.2-1.41-2.22-2.53c-2.55-2.83-6.72-7.18-11.67-11.27c-5.23-4.31-11.31-8.35-17.29-10.06
				c3.01,0.81,10.11,2.91,17.29,6.7C446.91,361.93,451.52,365.04,455.14,368.91z M455.14,368.91c0.72,0.79,1.43,1.61,2.05,2.46
				c0.44,0.56,0.85,1.15,1.23,1.76c0,0-0.13-1.58-0.66-4.04v-0.02c-0.3-1.33-0.71-2.91-1.28-4.65c-1.22-3.8-3.19-8.27-6.36-12.24
				c-1.35-1.69-2.89-3.27-4.7-4.68l-0.02-0.02c-0.95-0.76-1.99-1.46-3.09-2.09c-0.99-0.56-2.02-1.08-3.14-1.53
				c-0.02,0-0.03-0.02-0.05-0.02c-1.89-0.77-3.94-1.36-6.21-1.71c-1.35-0.23-2.76-0.36-4.24-0.41c-6.7-0.2-12.26-0.43-16.83-0.66
				c-3.42-0.16-6.29-0.33-8.68-0.49c-7.33-0.48-10.06-0.87-10.06-0.87s0.05,0.13,0.13,0.39v0.02c0.67,2.04,3.93,11.26,10.6,20.36
				c0.02,0,0.02,0.02,0.02,0.02c0.02,0,0.02,0.02,0.02,0.02h0.02c3.06,4.17,6.87,8.33,11.47,11.77c6.43,4.77,14.41,8.12,24.19,8.12
				c4.27,0,8.89-0.64,13.87-2.1c0.87-0.23,1.77-0.51,2.68-0.82c0.2-0.07,0.39-0.13,0.59-0.2c0,0-0.16-0.21-0.49-0.59
				c-0.44-0.53-1.2-1.41-2.22-2.53c-2.55-2.83-6.72-7.18-11.67-11.27c-5.23-4.31-11.31-8.35-17.29-10.06
				c3.01,0.81,10.11,2.91,17.29,6.7C446.91,361.93,451.52,365.04,455.14,368.91z M455.14,368.91c0.72,0.79,1.43,1.61,2.05,2.46
				c0.44,0.56,0.85,1.15,1.23,1.76c0,0-0.13-1.58-0.66-4.04v-0.02c-0.3-1.33-0.71-2.91-1.28-4.65c-1.22-3.8-3.19-8.27-6.36-12.24
				c-1.35-1.69-2.89-3.27-4.7-4.68l-0.02-0.02c-0.95-0.76-1.99-1.46-3.09-2.09c-0.99-0.56-2.02-1.08-3.14-1.53
				c-0.02,0-0.03-0.02-0.05-0.02c-1.89-0.77-3.94-1.36-6.21-1.71c-1.35-0.23-2.76-0.36-4.24-0.41c-6.7-0.2-12.26-0.43-16.83-0.66
				c-3.42-0.16-6.29-0.33-8.68-0.49c-7.33-0.48-10.06-0.87-10.06-0.87s0.05,0.13,0.13,0.39v0.02c0.67,2.04,3.93,11.26,10.6,20.36
				c0.02,0,0.02,0.02,0.02,0.02c0.02,0,0.02,0.02,0.02,0.02h0.02c3.06,4.17,6.87,8.33,11.47,11.77c6.43,4.77,14.41,8.12,24.19,8.12
				c4.27,0,8.89-0.64,13.87-2.1c0.87-0.23,1.77-0.51,2.68-0.82c0.2-0.07,0.39-0.13,0.59-0.2c0,0-0.16-0.21-0.49-0.59
				c-0.44-0.53-1.2-1.41-2.22-2.53c-2.55-2.83-6.72-7.18-11.67-11.27c-5.23-4.31-11.31-8.35-17.29-10.06
				c3.01,0.81,10.11,2.91,17.29,6.7C446.91,361.93,451.52,365.04,455.14,368.91z M455.14,368.91c0.72,0.79,1.43,1.61,2.05,2.46
				c0.44,0.56,0.85,1.15,1.23,1.76c0,0-0.13-1.58-0.66-4.04v-0.02c-0.3-1.33-0.71-2.91-1.28-4.65c-1.22-3.8-3.19-8.27-6.36-12.24
				c-1.35-1.69-2.89-3.27-4.7-4.68l-0.02-0.02c-0.95-0.76-1.99-1.46-3.09-2.09c-0.99-0.56-2.02-1.08-3.14-1.53
				c-0.02,0-0.03-0.02-0.05-0.02c-1.89-0.77-3.94-1.36-6.21-1.71c-1.35-0.23-2.76-0.36-4.24-0.41c-6.7-0.2-12.26-0.43-16.83-0.66
				c-3.42-0.16-6.29-0.33-8.68-0.49c-7.33-0.48-10.06-0.87-10.06-0.87s0.05,0.13,0.13,0.39v0.02c0.67,2.04,3.93,11.26,10.6,20.36
				c0.02,0,0.02,0.02,0.02,0.02c0.02,0,0.02,0.02,0.02,0.02h0.02c3.06,4.17,6.87,8.33,11.47,11.77c6.43,4.77,14.41,8.12,24.19,8.12
				c4.27,0,8.89-0.64,13.87-2.1c0.87-0.23,1.77-0.51,2.68-0.82c0.2-0.07,0.39-0.13,0.59-0.2c0,0-0.16-0.21-0.49-0.59
				c-0.44-0.53-1.2-1.41-2.22-2.53c-2.55-2.83-6.72-7.18-11.67-11.27c-5.23-4.31-11.31-8.35-17.29-10.06
				c3.01,0.81,10.11,2.91,17.29,6.7C446.91,361.93,451.52,365.04,455.14,368.91z M455.14,368.91c0.72,0.79,1.43,1.61,2.05,2.46
				c0.44,0.56,0.85,1.15,1.23,1.76c0,0-0.13-1.58-0.66-4.04v-0.02c-0.3-1.33-0.71-2.91-1.28-4.65c-1.22-3.8-3.19-8.27-6.36-12.24
				c-1.35-1.69-2.89-3.27-4.7-4.68l-0.02-0.02c-0.95-0.76-1.99-1.46-3.09-2.09c-0.99-0.56-2.02-1.08-3.14-1.53
				c-0.02,0-0.03-0.02-0.05-0.02c-1.89-0.77-3.94-1.36-6.21-1.71c-1.35-0.23-2.76-0.36-4.24-0.41c-6.7-0.2-12.26-0.43-16.83-0.66
				c-3.42-0.16-6.29-0.33-8.68-0.49c-7.33-0.48-10.06-0.87-10.06-0.87s0.05,0.13,0.13,0.39v0.02c0.67,2.04,3.93,11.26,10.6,20.36
				c0.02,0,0.02,0.02,0.02,0.02c0.02,0,0.02,0.02,0.02,0.02h0.02c3.06,4.17,6.87,8.33,11.47,11.77c6.43,4.77,14.41,8.12,24.19,8.12
				c4.27,0,8.89-0.64,13.87-2.1c0.87-0.23,1.77-0.51,2.68-0.82c0.2-0.07,0.39-0.13,0.59-0.2c0,0-0.16-0.21-0.49-0.59
				c-0.44-0.53-1.2-1.41-2.22-2.53c-2.55-2.83-6.72-7.18-11.67-11.27c-5.23-4.31-11.31-8.35-17.29-10.06
				c3.01,0.81,10.11,2.91,17.29,6.7C446.91,361.93,451.52,365.04,455.14,368.91z M455.14,368.91c0.72,0.79,1.43,1.61,2.05,2.46
				c0.44,0.56,0.85,1.15,1.23,1.76c0,0-0.13-1.58-0.66-4.04v-0.02c-0.3-1.33-0.71-2.91-1.28-4.65c-1.22-3.8-3.19-8.27-6.36-12.24
				c-1.35-1.69-2.89-3.27-4.7-4.68l-0.02-0.02c-0.95-0.76-1.99-1.46-3.09-2.09c-0.99-0.56-2.02-1.08-3.14-1.53
				c-0.02,0-0.03-0.02-0.05-0.02c-1.89-0.77-3.94-1.36-6.21-1.71c-1.35-0.23-2.76-0.36-4.24-0.41c-6.7-0.2-12.26-0.43-16.83-0.66
				c-3.42-0.16-6.29-0.33-8.68-0.49c-7.33-0.48-10.06-0.87-10.06-0.87s0.05,0.13,0.13,0.39v0.02c0.67,2.04,3.93,11.26,10.6,20.36
				c0.02,0,0.02,0.02,0.02,0.02c0.02,0,0.02,0.02,0.02,0.02h0.02c3.06,4.17,6.87,8.33,11.47,11.77c6.43,4.77,14.41,8.12,24.19,8.12
				c4.27,0,8.89-0.64,13.87-2.1c0.87-0.23,1.77-0.51,2.68-0.82c0.2-0.07,0.39-0.13,0.59-0.2c0,0-0.16-0.21-0.49-0.59
				c-0.44-0.53-1.2-1.41-2.22-2.53c-2.55-2.83-6.72-7.18-11.67-11.27c-5.23-4.31-11.31-8.35-17.29-10.06
				c3.01,0.81,10.11,2.91,17.29,6.7C446.91,361.93,451.52,365.04,455.14,368.91z M455.14,368.91c0.72,0.79,1.43,1.61,2.05,2.46
				c0.44,0.56,0.85,1.15,1.23,1.76c0,0-0.13-1.58-0.66-4.04v-0.02c-0.3-1.33-0.71-2.91-1.28-4.65c-1.22-3.8-3.19-8.27-6.36-12.24
				c-1.35-1.69-2.89-3.27-4.7-4.68l-0.02-0.02c-0.95-0.76-1.99-1.46-3.09-2.09c-0.99-0.56-2.02-1.08-3.14-1.53
				c-0.02,0-0.03-0.02-0.05-0.02c-1.89-0.77-3.94-1.36-6.21-1.71c-1.35-0.23-2.76-0.36-4.24-0.41c-6.7-0.2-12.26-0.43-16.83-0.66
				c-3.42-0.16-6.29-0.33-8.68-0.49c-7.33-0.48-10.06-0.87-10.06-0.87s0.05,0.13,0.13,0.39v0.02c0.67,2.04,3.93,11.26,10.6,20.36
				c0.02,0,0.02,0.02,0.02,0.02c0.02,0,0.02,0.02,0.02,0.02h0.02c3.06,4.17,6.87,8.33,11.47,11.77c6.43,4.77,14.41,8.12,24.19,8.12
				c4.27,0,8.89-0.64,13.87-2.1c0.87-0.23,1.77-0.51,2.68-0.82c0.2-0.07,0.39-0.13,0.59-0.2c0,0-0.16-0.21-0.49-0.59
				c-0.44-0.53-1.2-1.41-2.22-2.53c-2.55-2.83-6.72-7.18-11.67-11.27c-5.23-4.31-11.31-8.35-17.29-10.06
				c3.01,0.81,10.11,2.91,17.29,6.7C446.91,361.93,451.52,365.04,455.14,368.91z M455.14,368.91c0.72,0.79,1.43,1.61,2.05,2.46
				c0.44,0.56,0.85,1.15,1.23,1.76c0,0-0.13-1.58-0.66-4.04v-0.02c-0.3-1.33-0.71-2.91-1.28-4.65c-1.22-3.8-3.19-8.27-6.36-12.24
				c-1.35-1.69-2.89-3.27-4.7-4.68l-0.02-0.02c-0.95-0.76-1.99-1.46-3.09-2.09c-0.99-0.56-2.02-1.08-3.14-1.53
				c-0.02,0-0.03-0.02-0.05-0.02c-1.89-0.77-3.94-1.36-6.21-1.71c-1.35-0.23-2.76-0.36-4.24-0.41c-6.7-0.2-12.26-0.43-16.83-0.66
				c-3.42-0.16-6.29-0.33-8.68-0.49c-7.33-0.48-10.06-0.87-10.06-0.87s0.05,0.13,0.13,0.39v0.02c0.67,2.04,3.93,11.26,10.6,20.36
				c0.02,0,0.02,0.02,0.02,0.02c0.02,0,0.02,0.02,0.02,0.02h0.02c3.06,4.17,6.87,8.33,11.47,11.77c6.43,4.77,14.41,8.12,24.19,8.12
				c4.27,0,8.89-0.64,13.87-2.1c0.87-0.23,1.77-0.51,2.68-0.82c0.2-0.07,0.39-0.13,0.59-0.2c0,0-0.16-0.21-0.49-0.59
				c-0.44-0.53-1.2-1.41-2.22-2.53c-2.55-2.83-6.72-7.18-11.67-11.27c-5.23-4.31-11.31-8.35-17.29-10.06
				c3.01,0.81,10.11,2.91,17.29,6.7C446.91,361.93,451.52,365.04,455.14,368.91z M455.14,368.91c0.72,0.79,1.43,1.61,2.05,2.46
				c0.44,0.56,0.85,1.15,1.23,1.76c0,0-0.13-1.58-0.66-4.04v-0.02c-0.3-1.33-0.71-2.91-1.28-4.65c-1.22-3.8-3.19-8.27-6.36-12.24
				c-1.35-1.69-2.89-3.27-4.7-4.68l-0.02-0.02c-0.95-0.76-1.99-1.46-3.09-2.09c-0.99-0.56-2.02-1.08-3.14-1.53
				c-0.02,0-0.03-0.02-0.05-0.02c-1.89-0.77-3.94-1.36-6.21-1.71c-1.35-0.23-2.76-0.36-4.24-0.41c-6.7-0.2-12.26-0.43-16.83-0.66
				c-3.42-0.16-6.29-0.33-8.68-0.49c-7.33-0.48-10.06-0.87-10.06-0.87s0.05,0.13,0.13,0.39v0.02c0.67,2.04,3.93,11.26,10.6,20.36
				c0.02,0,0.02,0.02,0.02,0.02c0.02,0,0.02,0.02,0.02,0.02h0.02c3.06,4.17,6.87,8.33,11.47,11.77c6.43,4.77,14.41,8.12,24.19,8.12
				c4.27,0,8.89-0.64,13.87-2.1c0.87-0.23,1.77-0.51,2.68-0.82c0.2-0.07,0.39-0.13,0.59-0.2c0,0-0.16-0.21-0.49-0.59
				c-0.44-0.53-1.2-1.41-2.22-2.53c-2.55-2.83-6.72-7.18-11.67-11.27c-5.23-4.31-11.31-8.35-17.29-10.06
				c3.01,0.81,10.11,2.91,17.29,6.7C446.91,361.93,451.52,365.04,455.14,368.91z M442.32,342.51c-0.62-0.33-1.28-0.64-1.96-0.92
				c0.62,0.46,1.28,0.89,1.96,1.3c1.36,0.87,2.81,1.68,4.37,2.4C445.36,344.25,443.91,343.31,442.32,342.51z M455.14,368.91
				c0.72,0.79,1.43,1.61,2.05,2.46c0.44,0.56,0.85,1.15,1.23,1.76c0,0-0.13-1.58-0.66-4.04v-0.02c-0.3-1.33-0.71-2.91-1.28-4.65
				c-1.22-3.8-3.19-8.27-6.36-12.24c-1.35-1.69-2.89-3.27-4.7-4.68l-0.02-0.02c-0.95-0.76-1.99-1.46-3.09-2.09
				c-0.99-0.56-2.02-1.08-3.14-1.53c-0.02,0-0.03-0.02-0.05-0.02c-1.89-0.77-3.94-1.36-6.21-1.71c-1.35-0.23-2.76-0.36-4.24-0.41
				c-6.7-0.2-12.26-0.43-16.83-0.66c-3.42-0.16-6.29-0.33-8.68-0.49c-7.33-0.48-10.06-0.87-10.06-0.87s0.05,0.13,0.13,0.39v0.02
				c0.67,2.04,3.93,11.26,10.6,20.36c0.02,0,0.02,0.02,0.02,0.02c0.02,0,0.02,0.02,0.02,0.02h0.02c3.06,4.17,6.87,8.33,11.47,11.77
				c6.43,4.77,14.41,8.12,24.19,8.12c4.27,0,8.89-0.64,13.87-2.1c0.87-0.23,1.77-0.51,2.68-0.82c0.2-0.07,0.39-0.13,0.59-0.2
				c0,0-0.16-0.21-0.49-0.59c-0.44-0.53-1.2-1.41-2.22-2.53c-2.55-2.83-6.72-7.18-11.67-11.27c-5.23-4.31-11.31-8.35-17.29-10.06
				c3.01,0.81,10.11,2.91,17.29,6.7C446.91,361.93,451.52,365.04,455.14,368.91z M442.32,342.51c-0.62-0.33-1.28-0.64-1.96-0.92
				c0.62,0.46,1.28,0.89,1.96,1.3c1.36,0.87,2.81,1.68,4.37,2.4C445.36,344.25,443.91,343.31,442.32,342.51z M455.14,368.91
				c0.72,0.79,1.43,1.61,2.05,2.46c0.44,0.56,0.85,1.15,1.23,1.76c0,0-0.13-1.58-0.66-4.04v-0.02c-0.3-1.33-0.71-2.91-1.28-4.65
				c-1.22-3.8-3.19-8.27-6.36-12.24c-1.35-1.69-2.89-3.27-4.7-4.68l-0.02-0.02c-0.95-0.76-1.99-1.46-3.09-2.09
				c-0.99-0.56-2.02-1.08-3.14-1.53c-0.02,0-0.03-0.02-0.05-0.02c-1.89-0.77-3.94-1.36-6.21-1.71c-1.35-0.23-2.76-0.36-4.24-0.41
				c-6.7-0.2-12.26-0.43-16.83-0.66c-3.42-0.16-6.29-0.33-8.68-0.49c-7.33-0.48-10.06-0.87-10.06-0.87s0.05,0.13,0.13,0.39v0.02
				c0.67,2.04,3.93,11.26,10.6,20.36c0.02,0,0.02,0.02,0.02,0.02c0.02,0,0.02,0.02,0.02,0.02h0.02c3.06,4.17,6.87,8.33,11.47,11.77
				c6.43,4.77,14.41,8.12,24.19,8.12c4.27,0,8.89-0.64,13.87-2.1c0.87-0.23,1.77-0.51,2.68-0.82c0.2-0.07,0.39-0.13,0.59-0.2
				c0,0-0.16-0.21-0.49-0.59c-0.44-0.53-1.2-1.41-2.22-2.53c-2.55-2.83-6.72-7.18-11.67-11.27c-5.23-4.31-11.31-8.35-17.29-10.06
				c3.01,0.81,10.11,2.91,17.29,6.7C446.91,361.93,451.52,365.04,455.14,368.91z M442.32,342.51c-0.62-0.33-1.28-0.64-1.96-0.92
				c0.62,0.46,1.28,0.89,1.96,1.3c1.36,0.87,2.81,1.68,4.37,2.4C445.36,344.25,443.91,343.31,442.32,342.51z M455.14,368.91
				c0.72,0.79,1.43,1.61,2.05,2.46c0.44,0.56,0.85,1.15,1.23,1.76c0,0-0.13-1.58-0.66-4.04v-0.02c-0.3-1.33-0.71-2.91-1.28-4.65
				c-1.22-3.8-3.19-8.27-6.36-12.24c-1.35-1.69-2.89-3.27-4.7-4.68l-0.02-0.02c-0.95-0.76-1.99-1.46-3.09-2.09
				c-0.99-0.56-2.02-1.08-3.14-1.53c-0.02,0-0.03-0.02-0.05-0.02c-1.89-0.77-3.94-1.36-6.21-1.71c-1.35-0.23-2.76-0.36-4.24-0.41
				c-6.7-0.2-12.26-0.43-16.83-0.66c-3.42-0.16-6.29-0.33-8.68-0.49c-7.33-0.48-10.06-0.87-10.06-0.87s0.05,0.13,0.13,0.39v0.02
				c0.67,2.04,3.93,11.26,10.6,20.36c0.02,0,0.02,0.02,0.02,0.02c0.02,0,0.02,0.02,0.02,0.02h0.02c3.06,4.17,6.87,8.33,11.47,11.77
				c6.43,4.77,14.41,8.12,24.19,8.12c4.27,0,8.89-0.64,13.87-2.1c0.87-0.23,1.77-0.51,2.68-0.82c0.2-0.07,0.39-0.13,0.59-0.2
				c0,0-0.16-0.21-0.49-0.59c-0.44-0.53-1.2-1.41-2.22-2.53c-2.55-2.83-6.72-7.18-11.67-11.27c-5.23-4.31-11.31-8.35-17.29-10.06
				c3.01,0.81,10.11,2.91,17.29,6.7C446.91,361.93,451.52,365.04,455.14,368.91z M442.32,342.51c-0.62-0.33-1.28-0.64-1.96-0.92
				c0.62,0.46,1.28,0.89,1.96,1.3c1.36,0.87,2.81,1.68,4.37,2.4C445.36,344.25,443.91,343.31,442.32,342.51z M455.14,368.91
				c0.72,0.79,1.43,1.61,2.05,2.46c0.44,0.56,0.85,1.15,1.23,1.76c0,0-0.13-1.58-0.66-4.04v-0.02c-0.3-1.33-0.71-2.91-1.28-4.65
				c-1.22-3.8-3.19-8.27-6.36-12.24c-1.35-1.69-2.89-3.27-4.7-4.68l-0.02-0.02c-0.95-0.76-1.99-1.46-3.09-2.09
				c-0.99-0.56-2.02-1.08-3.14-1.53c-0.02,0-0.03-0.02-0.05-0.02c-1.89-0.77-3.94-1.36-6.21-1.71c-1.35-0.23-2.76-0.36-4.24-0.41
				c-6.7-0.2-12.26-0.43-16.83-0.66c-3.42-0.16-6.29-0.33-8.68-0.49c-7.33-0.48-10.06-0.87-10.06-0.87s0.05,0.13,0.13,0.39v0.02
				c0.67,2.04,3.93,11.26,10.6,20.36c0.02,0,0.02,0.02,0.02,0.02c0.02,0,0.02,0.02,0.02,0.02h0.02c3.06,4.17,6.87,8.33,11.47,11.77
				c6.43,4.77,14.41,8.12,24.19,8.12c4.27,0,8.89-0.64,13.87-2.1c0.87-0.23,1.77-0.51,2.68-0.82c0.2-0.07,0.39-0.13,0.59-0.2
				c0,0-0.16-0.21-0.49-0.59c-0.44-0.53-1.2-1.41-2.22-2.53c-2.55-2.83-6.72-7.18-11.67-11.27c-5.23-4.31-11.31-8.35-17.29-10.06
				c3.01,0.81,10.11,2.91,17.29,6.7C446.91,361.93,451.52,365.04,455.14,368.91z M442.32,342.51c-0.62-0.33-1.28-0.64-1.96-0.92
				c0.62,0.46,1.28,0.89,1.96,1.3c1.36,0.87,2.81,1.68,4.37,2.4C445.36,344.25,443.91,343.31,442.32,342.51z M455.14,368.91
				c0.72,0.79,1.43,1.61,2.05,2.46c0.44,0.56,0.85,1.15,1.23,1.76c0,0-0.13-1.58-0.66-4.04v-0.02c-0.3-1.33-0.71-2.91-1.28-4.65
				c-1.22-3.8-3.19-8.27-6.36-12.24c-1.35-1.69-2.89-3.27-4.7-4.68l-0.02-0.02c-0.95-0.76-1.99-1.46-3.09-2.09
				c-0.99-0.56-2.02-1.08-3.14-1.53c-0.02,0-0.03-0.02-0.05-0.02c-1.89-0.77-3.94-1.36-6.21-1.71c-1.35-0.23-2.76-0.36-4.24-0.41
				c-6.7-0.2-12.26-0.43-16.83-0.66c-3.42-0.16-6.29-0.33-8.68-0.49c-7.33-0.48-10.06-0.87-10.06-0.87s0.05,0.13,0.13,0.39v0.02
				c0.67,2.04,3.93,11.26,10.6,20.36c0.02,0,0.02,0.02,0.02,0.02c0.02,0,0.02,0.02,0.02,0.02h0.02c3.06,4.17,6.87,8.33,11.47,11.77
				c6.43,4.77,14.41,8.12,24.19,8.12c4.27,0,8.89-0.64,13.87-2.1c0.87-0.23,1.77-0.51,2.68-0.82c0.2-0.07,0.39-0.13,0.59-0.2
				c0,0-0.16-0.21-0.49-0.59c-0.44-0.53-1.2-1.41-2.22-2.53c-2.55-2.83-6.72-7.18-11.67-11.27c-5.23-4.31-11.31-8.35-17.29-10.06
				c3.01,0.81,10.11,2.91,17.29,6.7C446.91,361.93,451.52,365.04,455.14,368.91z M442.32,342.51c-0.62-0.33-1.28-0.64-1.96-0.92
				c0.62,0.46,1.28,0.89,1.96,1.3c1.36,0.87,2.81,1.68,4.37,2.4C445.36,344.25,443.91,343.31,442.32,342.51z M405.71,183.51
				c-7.53,0.89-12.14,5.36-13.85,7.35c-0.21,0.25,0.05,0.61,0.35,0.48c1.59-0.62,4.57-1.56,6.49-0.66
				c2.71,1.28,12.18-0.58,14.31,1.15c2.15,1.71,2.3,2.58,2.3,2.58S415.45,182.36,405.71,183.51z M418.17,227.27
				c-9.02-3.45-12.09-9.46-12.55-10.48c2.23,5.8,4.88,9.91,7.71,12.75c12.9,12.9,29.63-0.66,29.63-0.66
				C431.8,230.59,423.82,229.44,418.17,227.27z M419.68,178.91c-1.45-2-10.76-12.93-33.54,0.76c-0.13,0.07-0.05,0.28,0.08,0.23
				c4.08-1.23,19.8-5.44,33.32-0.81C419.66,179.14,419.76,179.01,419.68,178.91z M425.49,242.55c-2.81-0.12-5.08-0.79-6.56-1.35
				c0.18,0.35,3.2,5.73,6.42,5.85c3.04,0.11,5.77-2.17,6.42-5.24C430.33,242.22,428.14,242.65,425.49,242.55z M418.17,227.27
				c-9.02-3.45-12.09-9.46-12.55-10.48c2.23,5.8,4.88,9.91,7.71,12.75c12.9,12.9,29.63-0.66,29.63-0.66
				C431.8,230.59,423.82,229.44,418.17,227.27z M425.49,242.55c-2.81-0.12-5.08-0.79-6.56-1.35c0.18,0.35,3.2,5.73,6.42,5.85
				c3.04,0.11,5.77-2.17,6.42-5.24C430.33,242.22,428.14,242.65,425.49,242.55z M419.68,178.91c-1.45-2-10.76-12.93-33.54,0.76
				c-0.13,0.07-0.05,0.28,0.08,0.23c4.08-1.23,19.8-5.44,33.32-0.81C419.66,179.14,419.76,179.01,419.68,178.91z M405.71,183.51
				c-7.53,0.89-12.14,5.36-13.85,7.35c-0.21,0.25,0.05,0.61,0.35,0.48c1.59-0.62,4.57-1.56,6.49-0.66
				c2.71,1.28,12.18-0.58,14.31,1.15c2.15,1.71,2.3,2.58,2.3,2.58S415.45,182.36,405.71,183.51z M405.71,183.51
				c-7.53,0.89-12.14,5.36-13.85,7.35c-0.21,0.25,0.05,0.61,0.35,0.48c1.59-0.62,4.57-1.56,6.49-0.66
				c2.71,1.28,12.18-0.58,14.31,1.15c2.15,1.71,2.3,2.58,2.3,2.58S415.45,182.36,405.71,183.51z M418.17,227.27
				c-9.02-3.45-12.09-9.46-12.55-10.48c2.23,5.8,4.88,9.91,7.71,12.75c12.9,12.9,29.63-0.66,29.63-0.66
				C431.8,230.59,423.82,229.44,418.17,227.27z M419.68,178.91c-1.45-2-10.76-12.93-33.54,0.76c-0.13,0.07-0.05,0.28,0.08,0.23
				c4.08-1.23,19.8-5.44,33.32-0.81C419.66,179.14,419.76,179.01,419.68,178.91z M425.49,242.55c-2.81-0.12-5.08-0.79-6.56-1.35
				c0.18,0.35,3.2,5.73,6.42,5.85c3.04,0.11,5.77-2.17,6.42-5.24C430.33,242.22,428.14,242.65,425.49,242.55z M418.17,227.27
				c-9.02-3.45-12.09-9.46-12.55-10.48c2.23,5.8,4.88,9.91,7.71,12.75c12.9,12.9,29.63-0.66,29.63-0.66
				C431.8,230.59,423.82,229.44,418.17,227.27z M425.49,242.55c-2.81-0.12-5.08-0.79-6.56-1.35c0.18,0.35,3.2,5.73,6.42,5.85
				c3.04,0.11,5.77-2.17,6.42-5.24C430.33,242.22,428.14,242.65,425.49,242.55z M419.68,178.91c-1.45-2-10.76-12.93-33.54,0.76
				c-0.13,0.07-0.05,0.28,0.08,0.23c4.08-1.23,19.8-5.44,33.32-0.81C419.66,179.14,419.76,179.01,419.68,178.91z M405.71,183.51
				c-7.53,0.89-12.14,5.36-13.85,7.35c-0.21,0.25,0.05,0.61,0.35,0.48c1.59-0.62,4.57-1.56,6.49-0.66
				c2.71,1.28,12.18-0.58,14.31,1.15c2.15,1.71,2.3,2.58,2.3,2.58S415.45,182.36,405.71,183.51z M405.71,183.51
				c-7.53,0.89-12.14,5.36-13.85,7.35c-0.21,0.25,0.05,0.61,0.35,0.48c1.59-0.62,4.57-1.56,6.49-0.66
				c2.71,1.28,12.18-0.58,14.31,1.15c2.15,1.71,2.3,2.58,2.3,2.58S415.45,182.36,405.71,183.51z M419.68,178.91
				c-1.45-2-10.76-12.93-33.54,0.76c-0.13,0.07-0.05,0.28,0.08,0.23c4.08-1.23,19.8-5.44,33.32-0.81
				C419.66,179.14,419.76,179.01,419.68,178.91z M425.49,242.55c-2.81-0.12-5.08-0.79-6.56-1.35c0.18,0.35,3.2,5.73,6.42,5.85
				c3.04,0.11,5.77-2.17,6.42-5.24C430.33,242.22,428.14,242.65,425.49,242.55z M418.17,227.27c-9.02-3.45-12.09-9.46-12.55-10.48
				c2.23,5.8,4.88,9.91,7.71,12.75c12.9,12.9,29.63-0.66,29.63-0.66C431.8,230.59,423.82,229.44,418.17,227.27z M418.17,227.27
				c-9.02-3.45-12.09-9.46-12.55-10.48c2.23,5.8,4.88,9.91,7.71,12.75c12.9,12.9,29.63-0.66,29.63-0.66
				C431.8,230.59,423.82,229.44,418.17,227.27z M425.49,242.55c-2.81-0.12-5.08-0.79-6.56-1.35c0.18,0.35,3.2,5.73,6.42,5.85
				c3.04,0.11,5.77-2.17,6.42-5.24C430.33,242.22,428.14,242.65,425.49,242.55z M419.68,178.91c-1.45-2-10.76-12.93-33.54,0.76
				c-0.13,0.07-0.05,0.28,0.08,0.23c4.08-1.23,19.8-5.44,33.32-0.81C419.66,179.14,419.76,179.01,419.68,178.91z M405.71,183.51
				c-7.53,0.89-12.14,5.36-13.85,7.35c-0.21,0.25,0.05,0.61,0.35,0.48c1.59-0.62,4.57-1.56,6.49-0.66
				c2.71,1.28,12.18-0.58,14.31,1.15c2.15,1.71,2.3,2.58,2.3,2.58S415.45,182.36,405.71,183.51z M405.71,183.51
				c-7.53,0.89-12.14,5.36-13.85,7.35c-0.21,0.25,0.05,0.61,0.35,0.48c1.59-0.62,4.57-1.56,6.49-0.66
				c2.71,1.28,12.18-0.58,14.31,1.15c2.15,1.71,2.3,2.58,2.3,2.58S415.45,182.36,405.71,183.51z M419.68,178.91
				c-1.45-2-10.76-12.93-33.54,0.76c-0.13,0.07-0.05,0.28,0.08,0.23c4.08-1.23,19.8-5.44,33.32-0.81
				C419.66,179.14,419.76,179.01,419.68,178.91z M425.49,242.55c-2.81-0.12-5.08-0.79-6.56-1.35c0.18,0.35,3.2,5.73,6.42,5.85
				c3.04,0.11,5.77-2.17,6.42-5.24C430.33,242.22,428.14,242.65,425.49,242.55z M418.17,227.27c-9.02-3.45-12.09-9.46-12.55-10.48
				c2.23,5.8,4.88,9.91,7.71,12.75c12.9,12.9,29.63-0.66,29.63-0.66C431.8,230.59,423.82,229.44,418.17,227.27z M418.17,227.27
				c-9.02-3.45-12.09-9.46-12.55-10.48c2.23,5.8,4.88,9.91,7.71,12.75c12.9,12.9,29.63-0.66,29.63-0.66
				C431.8,230.59,423.82,229.44,418.17,227.27z M425.49,242.55c-2.81-0.12-5.08-0.79-6.56-1.35c0.18,0.35,3.2,5.73,6.42,5.85
				c3.04,0.11,5.77-2.17,6.42-5.24C430.33,242.22,428.14,242.65,425.49,242.55z M419.68,178.91c-1.45-2-10.76-12.93-33.54,0.76
				c-0.13,0.07-0.05,0.28,0.08,0.23c4.08-1.23,19.8-5.44,33.32-0.81C419.66,179.14,419.76,179.01,419.68,178.91z M405.71,183.51
				c-7.53,0.89-12.14,5.36-13.85,7.35c-0.21,0.25,0.05,0.61,0.35,0.48c1.59-0.62,4.57-1.56,6.49-0.66
				c2.71,1.28,12.18-0.58,14.31,1.15c2.15,1.71,2.3,2.58,2.3,2.58S415.45,182.36,405.71,183.51z M405.71,183.51
				c-7.53,0.89-12.14,5.36-13.85,7.35c-0.21,0.25,0.05,0.61,0.35,0.48c1.59-0.62,4.57-1.56,6.49-0.66
				c2.71,1.28,12.18-0.58,14.31,1.15c2.15,1.71,2.3,2.58,2.3,2.58S415.45,182.36,405.71,183.51z M419.68,178.91
				c-1.45-2-10.76-12.93-33.54,0.76c-0.13,0.07-0.05,0.28,0.08,0.23c4.08-1.23,19.8-5.44,33.32-0.81
				C419.66,179.14,419.76,179.01,419.68,178.91z M425.49,242.55c-2.81-0.12-5.08-0.79-6.56-1.35c0.18,0.35,3.2,5.73,6.42,5.85
				c3.04,0.11,5.77-2.17,6.42-5.24C430.33,242.22,428.14,242.65,425.49,242.55z M418.17,227.27c-9.02-3.45-12.09-9.46-12.55-10.48
				c2.23,5.8,4.88,9.91,7.71,12.75c12.9,12.9,29.63-0.66,29.63-0.66C431.8,230.59,423.82,229.44,418.17,227.27z M418.17,227.27
				c-9.02-3.45-12.09-9.46-12.55-10.48c2.23,5.8,4.88,9.91,7.71,12.75c12.9,12.9,29.63-0.66,29.63-0.66
				C431.8,230.59,423.82,229.44,418.17,227.27z M425.49,242.55c-2.81-0.12-5.08-0.79-6.56-1.35c0.18,0.35,3.2,5.73,6.42,5.85
				c3.04,0.11,5.77-2.17,6.42-5.24C430.33,242.22,428.14,242.65,425.49,242.55z M419.68,178.91c-1.45-2-10.76-12.93-33.54,0.76
				c-0.13,0.07-0.05,0.28,0.08,0.23c4.08-1.23,19.8-5.44,33.32-0.81C419.66,179.14,419.76,179.01,419.68,178.91z M405.71,183.51
				c-7.53,0.89-12.14,5.36-13.85,7.35c-0.21,0.25,0.05,0.61,0.35,0.48c1.59-0.62,4.57-1.56,6.49-0.66
				c2.71,1.28,12.18-0.58,14.31,1.15c2.15,1.71,2.3,2.58,2.3,2.58S415.45,182.36,405.71,183.51z M443.11,456.96
				c53.39,4.96,92.64-8.68,92.64-8.68l2.42-18.62c-24.6,3.01-49.58,4.52-74.29,4.52h-1.38c-24.25-0.05-48.77-1.56-72.91-4.52
				l3.2,24.78c4.47-2.69,8.84-5.21,12.01-7.79c7.76-6.29,11.09-9.35,11.09-9.35s1.66,0.81,2.3,5.16c0.66,4.35-7.9,13.08-14.2,19.69
				c-6.29,6.62-4.83,7.9-4.83,7.9c12.26,19.54,51.63,16.96,47.27,22.12c-4.35,5.16-33.08,1.61-33.08,1.61
				c9.51,8.07,35.82,8.07,28.25,10.98c-7.59,2.91-30.83-0.16-30.83-0.16c5.64,4.04,19.69,5.82,23.71,5.16
				c4.04-0.64,6.79,0.97,4.72,2.43c-12.42,5.59-26.23,5.59-38.47,3.55l0.64,4.96c0.64,4.96,4.7,8.89,9.88,9.58
				c5.57,0.74,11.17,1.18,16.74,1.94c12,1.66,24.09,2.5,36.17,2.5c8.48,0,16.94-0.41,25.35-1.22c16.5-14.92,29.04-32.34,38.04-47.57
				c-33.27,7.89-59.22,2.23-72.56-2.28c-1.64-0.54-1.12-2.97,0.61-2.81c41.49,3.85,72.74-5.77,76.84-7.08v-0.02l1.54-11.83
				c-42.11,11.16-75.01,4.04-91.61-1.56C440.41,459.67,441.04,456.76,443.11,456.96z M405.71,183.51
				c-7.53,0.89-12.14,5.36-13.85,7.35c-0.21,0.25,0.05,0.61,0.35,0.48c1.59-0.62,4.57-1.56,6.49-0.66
				c2.71,1.28,12.18-0.58,14.31,1.15c2.15,1.71,2.3,2.58,2.3,2.58S415.45,182.36,405.71,183.51z M419.68,178.91
				c-1.45-2-10.76-12.93-33.54,0.76c-0.13,0.07-0.05,0.28,0.08,0.23c4.08-1.23,19.8-5.44,33.32-0.81
				C419.66,179.14,419.76,179.01,419.68,178.91z M425.49,242.55c-2.81-0.12-5.08-0.79-6.56-1.35c0.18,0.35,3.2,5.73,6.42,5.85
				c3.04,0.11,5.77-2.17,6.42-5.24C430.33,242.22,428.14,242.65,425.49,242.55z M418.17,227.27c-9.02-3.45-12.09-9.46-12.55-10.48
				c2.23,5.8,4.88,9.91,7.71,12.75c12.9,12.9,29.63-0.66,29.63-0.66C431.8,230.59,423.82,229.44,418.17,227.27z M418.17,227.27
				c-9.02-3.45-12.09-9.46-12.55-10.48c2.23,5.8,4.88,9.91,7.71,12.75c12.9,12.9,29.63-0.66,29.63-0.66
				C431.8,230.59,423.82,229.44,418.17,227.27z M425.49,242.55c-2.81-0.12-5.08-0.79-6.56-1.35c0.18,0.35,3.2,5.73,6.42,5.85
				c3.04,0.11,5.77-2.17,6.42-5.24C430.33,242.22,428.14,242.65,425.49,242.55z M419.68,178.91c-1.45-2-10.76-12.93-33.54,0.76
				c-0.13,0.07-0.05,0.28,0.08,0.23c4.08-1.23,19.8-5.44,33.32-0.81C419.66,179.14,419.76,179.01,419.68,178.91z M405.71,183.51
				c-7.53,0.89-12.14,5.36-13.85,7.35c-0.21,0.25,0.05,0.61,0.35,0.48c1.59-0.62,4.57-1.56,6.49-0.66
				c2.71,1.28,12.18-0.58,14.31,1.15c2.15,1.71,2.3,2.58,2.3,2.58S415.45,182.36,405.71,183.51z M405.71,183.51
				c-7.53,0.89-12.14,5.36-13.85,7.35c-0.21,0.25,0.05,0.61,0.35,0.48c1.59-0.62,4.57-1.56,6.49-0.66
				c2.71,1.28,12.18-0.58,14.31,1.15c2.15,1.71,2.3,2.58,2.3,2.58S415.45,182.36,405.71,183.51z M419.68,178.91
				c-1.45-2-10.76-12.93-33.54,0.76c-0.13,0.07-0.05,0.28,0.08,0.23c4.08-1.23,19.8-5.44,33.32-0.81
				C419.66,179.14,419.76,179.01,419.68,178.91z M425.49,242.55c-2.81-0.12-5.08-0.79-6.56-1.35c0.18,0.35,3.2,5.73,6.42,5.85
				c3.04,0.11,5.77-2.17,6.42-5.24C430.33,242.22,428.14,242.65,425.49,242.55z M418.17,227.27c-9.02-3.45-12.09-9.46-12.55-10.48
				c2.23,5.8,4.88,9.91,7.71,12.75c12.9,12.9,29.63-0.66,29.63-0.66C431.8,230.59,423.82,229.44,418.17,227.27z M418.17,227.27
				c-9.02-3.45-12.09-9.46-12.55-10.48c2.23,5.8,4.88,9.91,7.71,12.75c12.9,12.9,29.63-0.66,29.63-0.66
				C431.8,230.59,423.82,229.44,418.17,227.27z M425.49,242.55c-2.81-0.12-5.08-0.79-6.56-1.35c0.18,0.35,3.2,5.73,6.42,5.85
				c3.04,0.11,5.77-2.17,6.42-5.24C430.33,242.22,428.14,242.65,425.49,242.55z M419.68,178.91c-1.45-2-10.76-12.93-33.54,0.76
				c-0.13,0.07-0.05,0.28,0.08,0.23c4.08-1.23,19.8-5.44,33.32-0.81C419.66,179.14,419.76,179.01,419.68,178.91z M405.71,183.51
				c-7.53,0.89-12.14,5.36-13.85,7.35c-0.21,0.25,0.05,0.61,0.35,0.48c1.59-0.62,4.57-1.56,6.49-0.66
				c2.71,1.28,12.18-0.58,14.31,1.15c2.15,1.71,2.3,2.58,2.3,2.58S415.45,182.36,405.71,183.51z M405.71,183.51
				c-7.53,0.89-12.14,5.36-13.85,7.35c-0.21,0.25,0.05,0.61,0.35,0.48c1.59-0.62,4.57-1.56,6.49-0.66
				c2.71,1.28,12.18-0.58,14.31,1.15c2.15,1.71,2.3,2.58,2.3,2.58S415.45,182.36,405.71,183.51z M419.68,178.91
				c-1.45-2-10.76-12.93-33.54,0.76c-0.13,0.07-0.05,0.28,0.08,0.23c4.08-1.23,19.8-5.44,33.32-0.81
				C419.66,179.14,419.76,179.01,419.68,178.91z M425.49,242.55c-2.81-0.12-5.08-0.79-6.56-1.35c0.18,0.35,3.2,5.73,6.42,5.85
				c3.04,0.11,5.77-2.17,6.42-5.24C430.33,242.22,428.14,242.65,425.49,242.55z M418.17,227.27c-9.02-3.45-12.09-9.46-12.55-10.48
				c2.23,5.8,4.88,9.91,7.71,12.75c12.9,12.9,29.63-0.66,29.63-0.66C431.8,230.59,423.82,229.44,418.17,227.27z M442.95,228.88
				c-11.14,1.71-19.13,0.56-24.78-1.61c-9.02-3.45-12.09-9.46-12.55-10.48c2.23,5.8,4.88,9.91,7.71,12.75
				C426.22,242.44,442.95,228.88,442.95,228.88z M418.94,241.2c0.18,0.35,3.2,5.73,6.42,5.85c3.04,0.11,5.77-2.17,6.42-5.24
				c-1.46,0.41-3.65,0.84-6.29,0.74C422.68,242.44,420.42,241.76,418.94,241.2z M419.55,179.09c0.12,0.05,0.21-0.08,0.13-0.18
				c-1.45-2-10.76-12.93-33.54,0.76c-0.13,0.07-0.05,0.28,0.08,0.23C390.3,178.66,406.02,174.46,419.55,179.09z M413.01,191.83
				c2.15,1.71,2.3,2.58,2.3,2.58s0.15-12.04-9.6-10.89c-7.53,0.89-12.14,5.36-13.85,7.35c-0.21,0.25,0.05,0.61,0.35,0.48
				c1.59-0.62,4.57-1.56,6.49-0.66C401.41,191.96,410.87,190.1,413.01,191.83z M415.9,567.62c26.83-2.79,49.02-13.97,66.98-28.46
				c-6.23,0.44-12.47,0.66-18.7,0.66c-12.29,0-24.7-0.85-36.87-2.53c-2.83-0.39-5.73-0.71-8.56-1c-2.66-0.28-5.42-0.58-8.17-0.94
				c-7.46-1-13.33-6.75-14.26-13.98l-0.85-6.65c-15.02-3.25-26.8-9-29.23-9.76c-4.58-1.45-40.23,6.03-85.91,7.18
				c-45.68,1.15-43.68-16.96-43.68-16.96c3.07-19.57,28.58-20.44,45.52-20.44c16.96,0,72.79,4.04,77.31,3.24s11.29-1.3,16.94-10.17
				c2.51-3.94,6.87-7.31,11.6-10.38l-3.73-28.8c-4.9-1.84-8.31-6.59-8.31-12.03v-16.96c0-7.11,5.78-12.9,12.9-12.9
				c0.26,0,0.53,0,0.81,0.02c21.07,1.31,42.43,2.07,63.59,2.25c-0.15-1.81-0.18-3.58-0.15-5.29c-4.65,1.22-9.19,1.81-13.56,1.81
				c-11.86,0-22.71-4.45-31.88-13.01l-59.58,1.66l-26.27-55.74l15.05-6.01l56.25,40.37c-3.3-6.41-4.81-11.27-4.9-11.58
				c-0.46-1.5-0.2-3.14,0.69-4.4l-42.62-32.67c12.42-9.04,13.56-48.57,13.56-48.57s28.62,19.95,38.78,31.61
				c10.17,11.68,12.44,28.25,12.44,28.25l4.83-3.38l-10.5,23.58c2.4,0.15,5.23,0.3,8.51,0.46l6.03-14.76v-0.02
				c-3.35-10.32-3.55-20.7-3.11-27.7c-2.07-8.45-2.65-18.14-2.74-20.21c0.44,0.26,1.54,0.67,4.14,1.31
				c5.87,1.46,19.32,0.49,25.93-11.5c6.61-11.98,14.92-24.96,15.91-36.45c0.62-7.21,1.43-18.45,1.94-25.85
				c0.31-4.4,0.51-7.43,0.51-7.43l-4.21-38.14l-23.2-22.23l-27.06,3.39l-43.96,22.23l-26.13,29.48l3.38,58
				c0.44,1.64,0.84,3.24,1.2,4.8c11.14,49.61-22.46,61.42-22.46,61.42l-6.77-5.32c-67.67,8.22-76.85,99.58-75.41,110.21
				c1.45,10.63-2.89,9.19-8.69,13.05c-5.8,3.86-5.32,2.42-6.77,12.08c-1.45,9.68,0.48,12.57-1.45,20.31
				c-1.94,7.72-4.35,5.8-3.38,14.02c0.97,8.22,7.25,7.72,6.77,16.91c-0.49,9.19,0,19.82,0,19.82c11.58,21.28,79.74,6.29,79.74,6.29
				c36.73,78.3,107.3,67.67,107.3,67.67c-77.82-17.89-94.73-70.08-94.73-70.08l5.31-0.49C357.3,564.72,415.9,567.62,415.9,567.62z
				 M344.3,196.21c3.91-13.56,30.63,2.51,54.04-38.63c1.97-3.47,5.29-6.01,8.96-7.59c8.25-3.55,23.6-6.42,41.95,7.9
				c1.68,1.3,2.68,3.27,2.83,5.37c0.2,3.25,0.61,8.54,1.3,13.61c0.07,0.41,0.1,0.84,0.13,1.27c0,0-16.04-2.97-18.7,5.96
				s2.66,23.22,2.51,26.19c-0.16,2.97-8.31,5.49-9.56,8.46c-0.62,1.48,3.06,1.3,6.89-0.11c0.02,0,0.02,0,0.02-0.02
				c2-0.74,4.04-1.82,5.54-3.2c0,0,0.02,0,0.03-0.02c1.41-1.3,2.35-2.86,2.27-4.63c-0.21-4.86-2.86-11.32-3.63-16.92
				c0.39,0.31,0.77,0.48,0.97,0.56c5.01,3.7,7.36,0.67,7.84,0c0.23-0.35,0.85,0.02,1.41,0.48c0.49,0.39,0.87,0.72,1.05,0.99
				c-0.18,1.1-0.23,2.07-0.1,2.88c0.35,2.07,1.18,5.5,1.79,9.33c0.67,4.42,1.04,9.37-0.08,13.36c-2.09,7.44-12.88,29.76-16.22,36.82
				c-3.35,7.07-7.07,11.91-23.45,8.94c-11.06-2.02-31.25-6.9-43.43-21.44c-5.88-6.98-9.89-16.22-10.14-28.41
				C358.52,217.35,340.21,210.35,344.3,196.21z M453.17,183.43c-0.44,2.73-1.23,5.41-1.91,7.84c-4.24-3.96-12.44-2.35-12.44-2.35
				c0.13-0.82,0.36-1.59,0.69-2.3C442.5,180.34,453.17,183.43,453.17,183.43z M303.37,322.94c0,0,46.68,123.9,13.18,139.33
				c-6.79,2.27-8.66,0-8.66,0l-4.52-67.4l-15.82,46.7c0,0-18.08-11.29-36.53-14.31C251.02,427.25,251.78,341.01,303.37,322.94z
				 M269.11,450.37c-5.73-3.45-29.87-1.73-29.87-1.73c38.2-17.24,54.31,10.06,54.31,10.06l-10.63-1.73l6.92,8.91
				c-23.81-15.51-58.07,3.15-58.07,3.15C241,451.88,269.11,450.37,269.11,450.37z M405.61,216.79c2.23,5.8,4.88,9.91,7.71,12.75
				c12.9,12.9,29.63-0.66,29.63-0.66c-11.14,1.71-19.13,0.56-24.78-1.61C409.14,223.82,406.07,217.81,405.61,216.79z M418.94,241.2
				c0.18,0.35,3.2,5.73,6.42,5.85c3.04,0.11,5.77-2.17,6.42-5.24c-1.46,0.41-3.65,0.84-6.29,0.74
				C422.68,242.44,420.42,241.76,418.94,241.2z M386.22,179.9c4.08-1.23,19.8-5.44,33.32-0.81c0.12,0.05,0.21-0.08,0.13-0.18
				c-1.45-2-10.76-12.93-33.54,0.76C386.01,179.73,386.09,179.95,386.22,179.9z M413.01,191.83c2.15,1.71,2.3,2.58,2.3,2.58
				s0.15-12.04-9.6-10.89c-7.53,0.89-12.14,5.36-13.85,7.35c-0.21,0.25,0.05,0.61,0.35,0.48c1.59-0.62,4.57-1.56,6.49-0.66
				C401.41,191.96,410.87,190.1,413.01,191.83z M405.71,183.51c-7.53,0.89-12.14,5.36-13.85,7.35c-0.21,0.25,0.05,0.61,0.35,0.48
				c1.59-0.62,4.57-1.56,6.49-0.66c2.71,1.28,12.18-0.58,14.31,1.15c2.15,1.71,2.3,2.58,2.3,2.58S415.45,182.36,405.71,183.51z
				 M419.68,178.91c-1.45-2-10.76-12.93-33.54,0.76c-0.13,0.07-0.05,0.28,0.08,0.23c4.08-1.23,19.8-5.44,33.32-0.81
				C419.66,179.14,419.76,179.01,419.68,178.91z M425.49,242.55c-2.81-0.12-5.08-0.79-6.56-1.35c0.18,0.35,3.2,5.73,6.42,5.85
				c3.04,0.11,5.77-2.17,6.42-5.24C430.33,242.22,428.14,242.65,425.49,242.55z M418.17,227.27c-9.02-3.45-12.09-9.46-12.55-10.48
				c2.23,5.8,4.88,9.91,7.71,12.75c12.9,12.9,29.63-0.66,29.63-0.66C431.8,230.59,423.82,229.44,418.17,227.27z M418.17,227.27
				c-9.02-3.45-12.09-9.46-12.55-10.48c2.23,5.8,4.88,9.91,7.71,12.75c12.9,12.9,29.63-0.66,29.63-0.66
				C431.8,230.59,423.82,229.44,418.17,227.27z M425.49,242.55c-2.81-0.12-5.08-0.79-6.56-1.35c0.18,0.35,3.2,5.73,6.42,5.85
				c3.04,0.11,5.77-2.17,6.42-5.24C430.33,242.22,428.14,242.65,425.49,242.55z M419.68,178.91c-1.45-2-10.76-12.93-33.54,0.76
				c-0.13,0.07-0.05,0.28,0.08,0.23c4.08-1.23,19.8-5.44,33.32-0.81C419.66,179.14,419.76,179.01,419.68,178.91z M405.71,183.51
				c-7.53,0.89-12.14,5.36-13.85,7.35c-0.21,0.25,0.05,0.61,0.35,0.48c1.59-0.62,4.57-1.56,6.49-0.66
				c2.71,1.28,12.18-0.58,14.31,1.15c2.15,1.71,2.3,2.58,2.3,2.58S415.45,182.36,405.71,183.51z M405.71,183.51
				c-7.53,0.89-12.14,5.36-13.85,7.35c-0.21,0.25,0.05,0.61,0.35,0.48c1.59-0.62,4.57-1.56,6.49-0.66
				c2.71,1.28,12.18-0.58,14.31,1.15c2.15,1.71,2.3,2.58,2.3,2.58S415.45,182.36,405.71,183.51z M419.68,178.91
				c-1.45-2-10.76-12.93-33.54,0.76c-0.13,0.07-0.05,0.28,0.08,0.23c4.08-1.23,19.8-5.44,33.32-0.81
				C419.66,179.14,419.76,179.01,419.68,178.91z M425.49,242.55c-2.81-0.12-5.08-0.79-6.56-1.35c0.18,0.35,3.2,5.73,6.42,5.85
				c3.04,0.11,5.77-2.17,6.42-5.24C430.33,242.22,428.14,242.65,425.49,242.55z M418.17,227.27c-9.02-3.45-12.09-9.46-12.55-10.48
				c2.23,5.8,4.88,9.91,7.71,12.75c12.9,12.9,29.63-0.66,29.63-0.66C431.8,230.59,423.82,229.44,418.17,227.27z M418.17,227.27
				c-9.02-3.45-12.09-9.46-12.55-10.48c2.23,5.8,4.88,9.91,7.71,12.75c12.9,12.9,29.63-0.66,29.63-0.66
				C431.8,230.59,423.82,229.44,418.17,227.27z M425.49,242.55c-2.81-0.12-5.08-0.79-6.56-1.35c0.18,0.35,3.2,5.73,6.42,5.85
				c3.04,0.11,5.77-2.17,6.42-5.24C430.33,242.22,428.14,242.65,425.49,242.55z M419.68,178.91c-1.45-2-10.76-12.93-33.54,0.76
				c-0.13,0.07-0.05,0.28,0.08,0.23c4.08-1.23,19.8-5.44,33.32-0.81C419.66,179.14,419.76,179.01,419.68,178.91z M405.71,183.51
				c-7.53,0.89-12.14,5.36-13.85,7.35c-0.21,0.25,0.05,0.61,0.35,0.48c1.59-0.62,4.57-1.56,6.49-0.66
				c2.71,1.28,12.18-0.58,14.31,1.15c2.15,1.71,2.3,2.58,2.3,2.58S415.45,182.36,405.71,183.51z M405.71,183.51
				c-7.53,0.89-12.14,5.36-13.85,7.35c-0.21,0.25,0.05,0.61,0.35,0.48c1.59-0.62,4.57-1.56,6.49-0.66
				c2.71,1.28,12.18-0.58,14.31,1.15c2.15,1.71,2.3,2.58,2.3,2.58S415.45,182.36,405.71,183.51z M419.68,178.91
				c-1.45-2-10.76-12.93-33.54,0.76c-0.13,0.07-0.05,0.28,0.08,0.23c4.08-1.23,19.8-5.44,33.32-0.81
				C419.66,179.14,419.76,179.01,419.68,178.91z M425.49,242.55c-2.81-0.12-5.08-0.79-6.56-1.35c0.18,0.35,3.2,5.73,6.42,5.85
				c3.04,0.11,5.77-2.17,6.42-5.24C430.33,242.22,428.14,242.65,425.49,242.55z M418.17,227.27c-9.02-3.45-12.09-9.46-12.55-10.48
				c2.23,5.8,4.88,9.91,7.71,12.75c12.9,12.9,29.63-0.66,29.63-0.66C431.8,230.59,423.82,229.44,418.17,227.27z M418.17,227.27
				c-9.02-3.45-12.09-9.46-12.55-10.48c2.23,5.8,4.88,9.91,7.71,12.75c12.9,12.9,29.63-0.66,29.63-0.66
				C431.8,230.59,423.82,229.44,418.17,227.27z M425.49,242.55c-2.81-0.12-5.08-0.79-6.56-1.35c0.18,0.35,3.2,5.73,6.42,5.85
				c3.04,0.11,5.77-2.17,6.42-5.24C430.33,242.22,428.14,242.65,425.49,242.55z M419.68,178.91c-1.45-2-10.76-12.93-33.54,0.76
				c-0.13,0.07-0.05,0.28,0.08,0.23c4.08-1.23,19.8-5.44,33.32-0.81C419.66,179.14,419.76,179.01,419.68,178.91z M405.71,183.51
				c-7.53,0.89-12.14,5.36-13.85,7.35c-0.21,0.25,0.05,0.61,0.35,0.48c1.59-0.62,4.57-1.56,6.49-0.66
				c2.71,1.28,12.18-0.58,14.31,1.15c2.15,1.71,2.3,2.58,2.3,2.58S415.45,182.36,405.71,183.51z M405.71,183.51
				c-7.53,0.89-12.14,5.36-13.85,7.35c-0.21,0.25,0.05,0.61,0.35,0.48c1.59-0.62,4.57-1.56,6.49-0.66
				c2.71,1.28,12.18-0.58,14.31,1.15c2.15,1.71,2.3,2.58,2.3,2.58S415.45,182.36,405.71,183.51z M419.68,178.91
				c-1.45-2-10.76-12.93-33.54,0.76c-0.13,0.07-0.05,0.28,0.08,0.23c4.08-1.23,19.8-5.44,33.32-0.81
				C419.66,179.14,419.76,179.01,419.68,178.91z M425.49,242.55c-2.81-0.12-5.08-0.79-6.56-1.35c0.18,0.35,3.2,5.73,6.42,5.85
				c3.04,0.11,5.77-2.17,6.42-5.24C430.33,242.22,428.14,242.65,425.49,242.55z M418.17,227.27c-9.02-3.45-12.09-9.46-12.55-10.48
				c2.23,5.8,4.88,9.91,7.71,12.75c12.9,12.9,29.63-0.66,29.63-0.66C431.8,230.59,423.82,229.44,418.17,227.27z M418.17,227.27
				c-9.02-3.45-12.09-9.46-12.55-10.48c2.23,5.8,4.88,9.91,7.71,12.75c12.9,12.9,29.63-0.66,29.63-0.66
				C431.8,230.59,423.82,229.44,418.17,227.27z M425.49,242.55c-2.81-0.12-5.08-0.79-6.56-1.35c0.18,0.35,3.2,5.73,6.42,5.85
				c3.04,0.11,5.77-2.17,6.42-5.24C430.33,242.22,428.14,242.65,425.49,242.55z M419.68,178.91c-1.45-2-10.76-12.93-33.54,0.76
				c-0.13,0.07-0.05,0.28,0.08,0.23c4.08-1.23,19.8-5.44,33.32-0.81C419.66,179.14,419.76,179.01,419.68,178.91z M405.71,183.51
				c-7.53,0.89-12.14,5.36-13.85,7.35c-0.21,0.25,0.05,0.61,0.35,0.48c1.59-0.62,4.57-1.56,6.49-0.66
				c2.71,1.28,12.18-0.58,14.31,1.15c2.15,1.71,2.3,2.58,2.3,2.58S415.45,182.36,405.71,183.51z M542.28,437.89l-3.48,26.73
				c4.77-10.2,7-16.88,7-16.88C544.63,444.39,543.44,441.1,542.28,437.89z M405.71,183.51c-7.53,0.89-12.14,5.36-13.85,7.35
				c-0.21,0.25,0.05,0.61,0.35,0.48c1.59-0.62,4.57-1.56,6.49-0.66c2.71,1.28,12.18-0.58,14.31,1.15c2.15,1.71,2.3,2.58,2.3,2.58
				S415.45,182.36,405.71,183.51z M419.68,178.91c-1.45-2-10.76-12.93-33.54,0.76c-0.13,0.07-0.05,0.28,0.08,0.23
				c4.08-1.23,19.8-5.44,33.32-0.81C419.66,179.14,419.76,179.01,419.68,178.91z M425.49,242.55c-2.81-0.12-5.08-0.79-6.56-1.35
				c0.18,0.35,3.2,5.73,6.42,5.85c3.04,0.11,5.77-2.17,6.42-5.24C430.33,242.22,428.14,242.65,425.49,242.55z M418.17,227.27
				c-9.02-3.45-12.09-9.46-12.55-10.48c2.23,5.8,4.88,9.91,7.71,12.75c12.9,12.9,29.63-0.66,29.63-0.66
				C431.8,230.59,423.82,229.44,418.17,227.27z M418.17,227.27c-9.02-3.45-12.09-9.46-12.55-10.48c2.23,5.8,4.88,9.91,7.71,12.75
				c12.9,12.9,29.63-0.66,29.63-0.66C431.8,230.59,423.82,229.44,418.17,227.27z M425.49,242.55c-2.81-0.12-5.08-0.79-6.56-1.35
				c0.18,0.35,3.2,5.73,6.42,5.85c3.04,0.11,5.77-2.17,6.42-5.24C430.33,242.22,428.14,242.65,425.49,242.55z M419.68,178.91
				c-1.45-2-10.76-12.93-33.54,0.76c-0.13,0.07-0.05,0.28,0.08,0.23c4.08-1.23,19.8-5.44,33.32-0.81
				C419.66,179.14,419.76,179.01,419.68,178.91z M405.71,183.51c-7.53,0.89-12.14,5.36-13.85,7.35c-0.21,0.25,0.05,0.61,0.35,0.48
				c1.59-0.62,4.57-1.56,6.49-0.66c2.71,1.28,12.18-0.58,14.31,1.15c2.15,1.71,2.3,2.58,2.3,2.58S415.45,182.36,405.71,183.51z
				 M405.71,183.51c-7.53,0.89-12.14,5.36-13.85,7.35c-0.21,0.25,0.05,0.61,0.35,0.48c1.59-0.62,4.57-1.56,6.49-0.66
				c2.71,1.28,12.18-0.58,14.31,1.15c2.15,1.71,2.3,2.58,2.3,2.58S415.45,182.36,405.71,183.51z M419.68,178.91
				c-1.45-2-10.76-12.93-33.54,0.76c-0.13,0.07-0.05,0.28,0.08,0.23c4.08-1.23,19.8-5.44,33.32-0.81
				C419.66,179.14,419.76,179.01,419.68,178.91z M425.49,242.55c-2.81-0.12-5.08-0.79-6.56-1.35c0.18,0.35,3.2,5.73,6.42,5.85
				c3.04,0.11,5.77-2.17,6.42-5.24C430.33,242.22,428.14,242.65,425.49,242.55z M418.17,227.27c-9.02-3.45-12.09-9.46-12.55-10.48
				c2.23,5.8,4.88,9.91,7.71,12.75c12.9,12.9,29.63-0.66,29.63-0.66C431.8,230.59,423.82,229.44,418.17,227.27z M514.88,376.14
				c-8.13,6.16-17.53,9.35-27.85,9.35c-5.09,0-10.47-0.79-15.97-2.32c0.03,2.15,0.16,4.11,0.36,5.83
				c16.45-0.1,33.01-0.54,49.49-1.33C518.88,383.64,516.87,379.79,514.88,376.14z M478.37,340.31c-4.22,3.88-11.93,12.13-16.5,24.2
				c-0.56,1.48-1.07,3.01-1.53,4.6c-0.59,2.07-1.08,4.26-1.45,6.52c-0.07,0.02-0.13,0.03-0.2,0.03c0.07,0.07,0.11,0.15,0.16,0.23
				v0.02c-0.16,1.05-0.31,2.1-0.41,3.2v0.02c-0.1,0.99-0.16,1.99-0.21,3.02c-0.08,2.22-0.05,4.5,0.12,6.87
				c1.69,0.02,3.37,0.02,5.04,0.02h0.48c0.82,0,1.63,0,2.45-0.02c-0.33-3.34-0.48-7.36-0.16-11.86c0.61-8.81,2.94-19.41,9.09-30.23
				c1.27-2.22,2.68-4.45,4.29-6.69c0.58-0.82,1.2-1.63,1.82-2.45C481.22,337.89,480.08,338.74,478.37,340.31z M418.17,227.27
				c-9.02-3.45-12.09-9.46-12.55-10.48c2.23,5.8,4.88,9.91,7.71,12.75c12.9,12.9,29.63-0.66,29.63-0.66
				C431.8,230.59,423.82,229.44,418.17,227.27z M425.49,242.55c-2.81-0.12-5.08-0.79-6.56-1.35c0.18,0.35,3.2,5.73,6.42,5.85
				c3.04,0.11,5.77-2.17,6.42-5.24C430.33,242.22,428.14,242.65,425.49,242.55z M419.68,178.91c-1.45-2-10.76-12.93-33.54,0.76
				c-0.13,0.07-0.05,0.28,0.08,0.23c4.08-1.23,19.8-5.44,33.32-0.81C419.66,179.14,419.76,179.01,419.68,178.91z M405.71,183.51
				c-7.53,0.89-12.14,5.36-13.85,7.35c-0.21,0.25,0.05,0.61,0.35,0.48c1.59-0.62,4.57-1.56,6.49-0.66
				c2.71,1.28,12.18-0.58,14.31,1.15c2.15,1.71,2.3,2.58,2.3,2.58S415.45,182.36,405.71,183.51z M405.71,183.51
				c-7.53,0.89-12.14,5.36-13.85,7.35c-0.21,0.25,0.05,0.61,0.35,0.48c1.59-0.62,4.57-1.56,6.49-0.66
				c2.71,1.28,12.18-0.58,14.31,1.15c2.15,1.71,2.3,2.58,2.3,2.58S415.45,182.36,405.71,183.51z M419.68,178.91
				c-1.45-2-10.76-12.93-33.54,0.76c-0.13,0.07-0.05,0.28,0.08,0.23c4.08-1.23,19.8-5.44,33.32-0.81
				C419.66,179.14,419.76,179.01,419.68,178.91z M425.49,242.55c-2.81-0.12-5.08-0.79-6.56-1.35c0.18,0.35,3.2,5.73,6.42,5.85
				c3.04,0.11,5.77-2.17,6.42-5.24C430.33,242.22,428.14,242.65,425.49,242.55z M418.17,227.27c-9.02-3.45-12.09-9.46-12.55-10.48
				c2.23,5.8,4.88,9.91,7.71,12.75c12.9,12.9,29.63-0.66,29.63-0.66C431.8,230.59,423.82,229.44,418.17,227.27z M425.49,242.55
				c-2.81-0.12-5.08-0.79-6.56-1.35c0.18,0.35,3.2,5.73,6.42,5.85c3.04,0.11,5.77-2.17,6.42-5.24
				C430.33,242.22,428.14,242.65,425.49,242.55z M419.68,178.91c-1.45-2-10.76-12.93-33.54,0.76c-0.13,0.07-0.05,0.28,0.08,0.23
				c4.08-1.23,19.8-5.44,33.32-0.81C419.66,179.14,419.76,179.01,419.68,178.91z M418.17,227.27c-9.02-3.45-12.09-9.46-12.55-10.48
				c2.23,5.8,4.88,9.91,7.71,12.75c12.9,12.9,29.63-0.66,29.63-0.66C431.8,230.59,423.82,229.44,418.17,227.27z M405.71,183.51
				c-7.53,0.89-12.14,5.36-13.85,7.35c-0.21,0.25,0.05,0.61,0.35,0.48c1.59-0.62,4.57-1.56,6.49-0.66
				c2.71,1.28,12.18-0.58,14.31,1.15c2.15,1.71,2.3,2.58,2.3,2.58S415.45,182.36,405.71,183.51z M405.71,183.51
				c-7.53,0.89-12.14,5.36-13.85,7.35c-0.21,0.25,0.05,0.61,0.35,0.48c1.59-0.62,4.57-1.56,6.49-0.66
				c2.71,1.28,12.18-0.58,14.31,1.15c2.15,1.71,2.3,2.58,2.3,2.58S415.45,182.36,405.71,183.51z M419.68,178.91
				c-1.45-2-10.76-12.93-33.54,0.76c-0.13,0.07-0.05,0.28,0.08,0.23c4.08-1.23,19.8-5.44,33.32-0.81
				C419.66,179.14,419.76,179.01,419.68,178.91z M419.68,178.91c-1.45-2-10.76-12.93-33.54,0.76c-0.13,0.07-0.05,0.28,0.08,0.23
				c4.08-1.23,19.8-5.44,33.32-0.81C419.66,179.14,419.76,179.01,419.68,178.91z M405.71,183.51c-7.53,0.89-12.14,5.36-13.85,7.35
				c-0.21,0.25,0.05,0.61,0.35,0.48c1.59-0.62,4.57-1.56,6.49-0.66c2.71,1.28,12.18-0.58,14.31,1.15c2.15,1.71,2.3,2.58,2.3,2.58
				S415.45,182.36,405.71,183.51z M442.32,342.51c-0.62-0.33-1.28-0.64-1.96-0.92c0.62,0.46,1.28,0.89,1.96,1.3
				c1.36,0.87,2.81,1.68,4.37,2.4C445.36,344.25,443.91,343.31,442.32,342.51z M455.14,368.91c0.72,0.79,1.43,1.61,2.05,2.46
				c0.44,0.56,0.85,1.15,1.23,1.76c0,0-0.13-1.58-0.66-4.04v-0.02c-0.3-1.33-0.71-2.91-1.28-4.65c-1.22-3.8-3.19-8.27-6.36-12.24
				c-1.35-1.69-2.89-3.27-4.7-4.68l-0.02-0.02c-0.95-0.76-1.99-1.46-3.09-2.09c-0.99-0.56-2.02-1.08-3.14-1.53
				c-0.02,0-0.03-0.02-0.05-0.02c-1.89-0.77-3.94-1.36-6.21-1.71c-1.35-0.23-2.76-0.36-4.24-0.41c-6.7-0.2-12.26-0.43-16.83-0.66
				c-3.42-0.16-6.29-0.33-8.68-0.49c-7.33-0.48-10.06-0.87-10.06-0.87s0.05,0.13,0.13,0.39v0.02c0.67,2.04,3.93,11.26,10.6,20.36
				c0.02,0,0.02,0.02,0.02,0.02c0.02,0,0.02,0.02,0.02,0.02h0.02c3.06,4.17,6.87,8.33,11.47,11.77c6.43,4.77,14.41,8.12,24.19,8.12
				c4.27,0,8.89-0.64,13.87-2.1c0.87-0.23,1.77-0.51,2.68-0.82c0.2-0.07,0.39-0.13,0.59-0.2c0,0-0.16-0.21-0.49-0.59
				c-0.44-0.53-1.2-1.41-2.22-2.53c-2.55-2.83-6.72-7.18-11.67-11.27c-5.23-4.31-11.31-8.35-17.29-10.06
				c3.01,0.81,10.11,2.91,17.29,6.7C446.91,361.93,451.52,365.04,455.14,368.91z M442.32,342.51c-0.62-0.33-1.28-0.64-1.96-0.92
				c0.62,0.46,1.28,0.89,1.96,1.3c1.36,0.87,2.81,1.68,4.37,2.4C445.36,344.25,443.91,343.31,442.32,342.51z M455.14,368.91
				c0.72,0.79,1.43,1.61,2.05,2.46c0.44,0.56,0.85,1.15,1.23,1.76c0,0-0.13-1.58-0.66-4.04v-0.02c-0.3-1.33-0.71-2.91-1.28-4.65
				c-1.22-3.8-3.19-8.27-6.36-12.24c-1.35-1.69-2.89-3.27-4.7-4.68l-0.02-0.02c-0.95-0.76-1.99-1.46-3.09-2.09
				c-0.99-0.56-2.02-1.08-3.14-1.53c-0.02,0-0.03-0.02-0.05-0.02c-1.89-0.77-3.94-1.36-6.21-1.71c-1.35-0.23-2.76-0.36-4.24-0.41
				c-6.7-0.2-12.26-0.43-16.83-0.66c-3.42-0.16-6.29-0.33-8.68-0.49c-7.33-0.48-10.06-0.87-10.06-0.87s0.05,0.13,0.13,0.39v0.02
				c0.67,2.04,3.93,11.26,10.6,20.36c0.02,0,0.02,0.02,0.02,0.02c0.02,0,0.02,0.02,0.02,0.02h0.02c3.06,4.17,6.87,8.33,11.47,11.77
				c6.43,4.77,14.41,8.12,24.19,8.12c4.27,0,8.89-0.64,13.87-2.1c0.87-0.23,1.77-0.51,2.68-0.82c0.2-0.07,0.39-0.13,0.59-0.2
				c0,0-0.16-0.21-0.49-0.59c-0.44-0.53-1.2-1.41-2.22-2.53c-2.55-2.83-6.72-7.18-11.67-11.27c-5.23-4.31-11.31-8.35-17.29-10.06
				c3.01,0.81,10.11,2.91,17.29,6.7C446.91,361.93,451.52,365.04,455.14,368.91z M442.32,342.51c-0.62-0.33-1.28-0.64-1.96-0.92
				c0.62,0.46,1.28,0.89,1.96,1.3c1.36,0.87,2.81,1.68,4.37,2.4C445.36,344.25,443.91,343.31,442.32,342.51z M455.14,368.91
				c0.72,0.79,1.43,1.61,2.05,2.46c0.44,0.56,0.85,1.15,1.23,1.76c0,0-0.13-1.58-0.66-4.04v-0.02c-0.3-1.33-0.71-2.91-1.28-4.65
				c-1.22-3.8-3.19-8.27-6.36-12.24c-1.35-1.69-2.89-3.27-4.7-4.68l-0.02-0.02c-0.95-0.76-1.99-1.46-3.09-2.09
				c-0.99-0.56-2.02-1.08-3.14-1.53c-0.02,0-0.03-0.02-0.05-0.02c-1.89-0.77-3.94-1.36-6.21-1.71c-1.35-0.23-2.76-0.36-4.24-0.41
				c-6.7-0.2-12.26-0.43-16.83-0.66c-3.42-0.16-6.29-0.33-8.68-0.49c-7.33-0.48-10.06-0.87-10.06-0.87s0.05,0.13,0.13,0.39v0.02
				c0.67,2.04,3.93,11.26,10.6,20.36c0.02,0,0.02,0.02,0.02,0.02c0.02,0,0.02,0.02,0.02,0.02h0.02c3.06,4.17,6.87,8.33,11.47,11.77
				c6.43,4.77,14.41,8.12,24.19,8.12c4.27,0,8.89-0.64,13.87-2.1c0.87-0.23,1.77-0.51,2.68-0.82c0.2-0.07,0.39-0.13,0.59-0.2
				c0,0-0.16-0.21-0.49-0.59c-0.44-0.53-1.2-1.41-2.22-2.53c-2.55-2.83-6.72-7.18-11.67-11.27c-5.23-4.31-11.31-8.35-17.29-10.06
				c3.01,0.81,10.11,2.91,17.29,6.7C446.91,361.93,451.52,365.04,455.14,368.91z M442.32,342.51c-0.62-0.33-1.28-0.64-1.96-0.92
				c0.62,0.46,1.28,0.89,1.96,1.3c1.36,0.87,2.81,1.68,4.37,2.4C445.36,344.25,443.91,343.31,442.32,342.51z M455.14,368.91
				c0.72,0.79,1.43,1.61,2.05,2.46c0.44,0.56,0.85,1.15,1.23,1.76c0,0-0.13-1.58-0.66-4.04v-0.02c-0.3-1.33-0.71-2.91-1.28-4.65
				c-1.22-3.8-3.19-8.27-6.36-12.24c-1.35-1.69-2.89-3.27-4.7-4.68l-0.02-0.02c-0.95-0.76-1.99-1.46-3.09-2.09
				c-0.99-0.56-2.02-1.08-3.14-1.53c-0.02,0-0.03-0.02-0.05-0.02c-1.89-0.77-3.94-1.36-6.21-1.71c-1.35-0.23-2.76-0.36-4.24-0.41
				c-6.7-0.2-12.26-0.43-16.83-0.66c-3.42-0.16-6.29-0.33-8.68-0.49c-7.33-0.48-10.06-0.87-10.06-0.87s0.05,0.13,0.13,0.39v0.02
				c0.67,2.04,3.93,11.26,10.6,20.36c0.02,0,0.02,0.02,0.02,0.02c0.02,0,0.02,0.02,0.02,0.02h0.02c3.06,4.17,6.87,8.33,11.47,11.77
				c6.43,4.77,14.41,8.12,24.19,8.12c4.27,0,8.89-0.64,13.87-2.1c0.87-0.23,1.77-0.51,2.68-0.82c0.2-0.07,0.39-0.13,0.59-0.2
				c0,0-0.16-0.21-0.49-0.59c-0.44-0.53-1.2-1.41-2.22-2.53c-2.55-2.83-6.72-7.18-11.67-11.27c-5.23-4.31-11.31-8.35-17.29-10.06
				c3.01,0.81,10.11,2.91,17.29,6.7C446.91,361.93,451.52,365.04,455.14,368.91z M442.32,342.51c-0.62-0.33-1.28-0.64-1.96-0.92
				c0.62,0.46,1.28,0.89,1.96,1.3c1.36,0.87,2.81,1.68,4.37,2.4C445.36,344.25,443.91,343.31,442.32,342.51z M455.14,368.91
				c0.72,0.79,1.43,1.61,2.05,2.46c0.44,0.56,0.85,1.15,1.23,1.76c0,0-0.13-1.58-0.66-4.04v-0.02c-0.3-1.33-0.71-2.91-1.28-4.65
				c-1.22-3.8-3.19-8.27-6.36-12.24c-1.35-1.69-2.89-3.27-4.7-4.68l-0.02-0.02c-0.95-0.76-1.99-1.46-3.09-2.09
				c-0.99-0.56-2.02-1.08-3.14-1.53c-0.02,0-0.03-0.02-0.05-0.02c-1.89-0.77-3.94-1.36-6.21-1.71c-1.35-0.23-2.76-0.36-4.24-0.41
				c-6.7-0.2-12.26-0.43-16.83-0.66c-3.42-0.16-6.29-0.33-8.68-0.49c-7.33-0.48-10.06-0.87-10.06-0.87s0.05,0.13,0.13,0.39v0.02
				c0.67,2.04,3.93,11.26,10.6,20.36c0.02,0,0.02,0.02,0.02,0.02c0.02,0,0.02,0.02,0.02,0.02h0.02c3.06,4.17,6.87,8.33,11.47,11.77
				c6.43,4.77,14.41,8.12,24.19,8.12c4.27,0,8.89-0.64,13.87-2.1c0.87-0.23,1.77-0.51,2.68-0.82c0.2-0.07,0.39-0.13,0.59-0.2
				c0,0-0.16-0.21-0.49-0.59c-0.44-0.53-1.2-1.41-2.22-2.53c-2.55-2.83-6.72-7.18-11.67-11.27c-5.23-4.31-11.31-8.35-17.29-10.06
				c3.01,0.81,10.11,2.91,17.29,6.7C446.91,361.93,451.52,365.04,455.14,368.91z M455.14,368.91c0.72,0.79,1.43,1.61,2.05,2.46
				c0.44,0.56,0.85,1.15,1.23,1.76c0,0-0.13-1.58-0.66-4.04v-0.02c-0.3-1.33-0.71-2.91-1.28-4.65c-1.22-3.8-3.19-8.27-6.36-12.24
				c-1.35-1.69-2.89-3.27-4.7-4.68l-0.02-0.02c-0.95-0.76-1.99-1.46-3.09-2.09c-0.99-0.56-2.02-1.08-3.14-1.53
				c-0.02,0-0.03-0.02-0.05-0.02c-1.89-0.77-3.94-1.36-6.21-1.71c-1.35-0.23-2.76-0.36-4.24-0.41c-6.7-0.2-12.26-0.43-16.83-0.66
				c-3.42-0.16-6.29-0.33-8.68-0.49c-7.33-0.48-10.06-0.87-10.06-0.87s0.05,0.13,0.13,0.39v0.02c0.67,2.04,3.93,11.26,10.6,20.36
				c0.02,0,0.02,0.02,0.02,0.02c0.02,0,0.02,0.02,0.02,0.02h0.02c3.06,4.17,6.87,8.33,11.47,11.77c6.43,4.77,14.41,8.12,24.19,8.12
				c4.27,0,8.89-0.64,13.87-2.1c0.87-0.23,1.77-0.51,2.68-0.82c0.2-0.07,0.39-0.13,0.59-0.2c0,0-0.16-0.21-0.49-0.59
				c-0.44-0.53-1.2-1.41-2.22-2.53c-2.55-2.83-6.72-7.18-11.67-11.27c-5.23-4.31-11.31-8.35-17.29-10.06
				c3.01,0.81,10.11,2.91,17.29,6.7C446.91,361.93,451.52,365.04,455.14,368.91z M455.14,368.91c0.72,0.79,1.43,1.61,2.05,2.46
				c0.44,0.56,0.85,1.15,1.23,1.76c0,0-0.13-1.58-0.66-4.04v-0.02c-0.3-1.33-0.71-2.91-1.28-4.65c-1.22-3.8-3.19-8.27-6.36-12.24
				c-1.35-1.69-2.89-3.27-4.7-4.68l-0.02-0.02c-0.95-0.76-1.99-1.46-3.09-2.09c-0.99-0.56-2.02-1.08-3.14-1.53
				c-0.02,0-0.03-0.02-0.05-0.02c-1.89-0.77-3.94-1.36-6.21-1.71c-1.35-0.23-2.76-0.36-4.24-0.41c-6.7-0.2-12.26-0.43-16.83-0.66
				c-3.42-0.16-6.29-0.33-8.68-0.49c-7.33-0.48-10.06-0.87-10.06-0.87s0.05,0.13,0.13,0.39v0.02c0.67,2.04,3.93,11.26,10.6,20.36
				c0.02,0,0.02,0.02,0.02,0.02c0.02,0,0.02,0.02,0.02,0.02h0.02c3.06,4.17,6.87,8.33,11.47,11.77c6.43,4.77,14.41,8.12,24.19,8.12
				c4.27,0,8.89-0.64,13.87-2.1c0.87-0.23,1.77-0.51,2.68-0.82c0.2-0.07,0.39-0.13,0.59-0.2c0,0-0.16-0.21-0.49-0.59
				c-0.44-0.53-1.2-1.41-2.22-2.53c-2.55-2.83-6.72-7.18-11.67-11.27c-5.23-4.31-11.31-8.35-17.29-10.06
				c3.01,0.81,10.11,2.91,17.29,6.7C446.91,361.93,451.52,365.04,455.14,368.91z M455.14,368.91c0.72,0.79,1.43,1.61,2.05,2.46
				c0.44,0.56,0.85,1.15,1.23,1.76c0,0-0.13-1.58-0.66-4.04v-0.02c-0.3-1.33-0.71-2.91-1.28-4.65c-1.22-3.8-3.19-8.27-6.36-12.24
				c-1.35-1.69-2.89-3.27-4.7-4.68l-0.02-0.02c-0.95-0.76-1.99-1.46-3.09-2.09c-0.99-0.56-2.02-1.08-3.14-1.53
				c-0.02,0-0.03-0.02-0.05-0.02c-1.89-0.77-3.94-1.36-6.21-1.71c-1.35-0.23-2.76-0.36-4.24-0.41c-6.7-0.2-12.26-0.43-16.83-0.66
				c-3.42-0.16-6.29-0.33-8.68-0.49c-7.33-0.48-10.06-0.87-10.06-0.87s0.05,0.13,0.13,0.39v0.02c0.67,2.04,3.93,11.26,10.6,20.36
				c0.02,0,0.02,0.02,0.02,0.02c0.02,0,0.02,0.02,0.02,0.02h0.02c3.06,4.17,6.87,8.33,11.47,11.77c6.43,4.77,14.41,8.12,24.19,8.12
				c4.27,0,8.89-0.64,13.87-2.1c0.87-0.23,1.77-0.51,2.68-0.82c0.2-0.07,0.39-0.13,0.59-0.2c0,0-0.16-0.21-0.49-0.59
				c-0.44-0.53-1.2-1.41-2.22-2.53c-2.55-2.83-6.72-7.18-11.67-11.27c-5.23-4.31-11.31-8.35-17.29-10.06
				c3.01,0.81,10.11,2.91,17.29,6.7C446.91,361.93,451.52,365.04,455.14,368.91z M455.14,368.91c0.72,0.79,1.43,1.61,2.05,2.46
				c0.44,0.56,0.85,1.15,1.23,1.76c0,0-0.13-1.58-0.66-4.04v-0.02c-0.3-1.33-0.71-2.91-1.28-4.65c-1.22-3.8-3.19-8.27-6.36-12.24
				c-1.35-1.69-2.89-3.27-4.7-4.68l-0.02-0.02c-0.95-0.76-1.99-1.46-3.09-2.09c-0.99-0.56-2.02-1.08-3.14-1.53
				c-0.02,0-0.03-0.02-0.05-0.02c-1.89-0.77-3.94-1.36-6.21-1.71c-1.35-0.23-2.76-0.36-4.24-0.41c-6.7-0.2-12.26-0.43-16.83-0.66
				c-3.42-0.16-6.29-0.33-8.68-0.49c-7.33-0.48-10.06-0.87-10.06-0.87s0.05,0.13,0.13,0.39v0.02c0.67,2.04,3.93,11.26,10.6,20.36
				c0.02,0,0.02,0.02,0.02,0.02c0.02,0,0.02,0.02,0.02,0.02h0.02c3.06,4.17,6.87,8.33,11.47,11.77c6.43,4.77,14.41,8.12,24.19,8.12
				c4.27,0,8.89-0.64,13.87-2.1c0.87-0.23,1.77-0.51,2.68-0.82c0.2-0.07,0.39-0.13,0.59-0.2c0,0-0.16-0.21-0.49-0.59
				c-0.44-0.53-1.2-1.41-2.22-2.53c-2.55-2.83-6.72-7.18-11.67-11.27c-5.23-4.31-11.31-8.35-17.29-10.06
				c3.01,0.81,10.11,2.91,17.29,6.7C446.91,361.93,451.52,365.04,455.14,368.91z M455.14,368.91c0.72,0.79,1.43,1.61,2.05,2.46
				c0.44,0.56,0.85,1.15,1.23,1.76c0,0-0.13-1.58-0.66-4.04v-0.02c-0.3-1.33-0.71-2.91-1.28-4.65c-1.22-3.8-3.19-8.27-6.36-12.24
				c-1.35-1.69-2.89-3.27-4.7-4.68l-0.02-0.02c-0.95-0.76-1.99-1.46-3.09-2.09c-0.99-0.56-2.02-1.08-3.14-1.53
				c-0.02,0-0.03-0.02-0.05-0.02c-1.89-0.77-3.94-1.36-6.21-1.71c-1.35-0.23-2.76-0.36-4.24-0.41c-6.7-0.2-12.26-0.43-16.83-0.66
				c-3.42-0.16-6.29-0.33-8.68-0.49c-7.33-0.48-10.06-0.87-10.06-0.87s0.05,0.13,0.13,0.39v0.02c0.67,2.04,3.93,11.26,10.6,20.36
				c0.02,0,0.02,0.02,0.02,0.02c0.02,0,0.02,0.02,0.02,0.02h0.02c3.06,4.17,6.87,8.33,11.47,11.77c6.43,4.77,14.41,8.12,24.19,8.12
				c4.27,0,8.89-0.64,13.87-2.1c0.87-0.23,1.77-0.51,2.68-0.82c0.2-0.07,0.39-0.13,0.59-0.2c0,0-0.16-0.21-0.49-0.59
				c-0.44-0.53-1.2-1.41-2.22-2.53c-2.55-2.83-6.72-7.18-11.67-11.27c-5.23-4.31-11.31-8.35-17.29-10.06
				c3.01,0.81,10.11,2.91,17.29,6.7C446.91,361.93,451.52,365.04,455.14,368.91z M455.14,368.91c0.72,0.79,1.43,1.61,2.05,2.46
				c0.44,0.56,0.85,1.15,1.23,1.76c0,0-0.13-1.58-0.66-4.04v-0.02c-0.3-1.33-0.71-2.91-1.28-4.65c-1.22-3.8-3.19-8.27-6.36-12.24
				c-1.35-1.69-2.89-3.27-4.7-4.68l-0.02-0.02c-0.95-0.76-1.99-1.46-3.09-2.09c-0.99-0.56-2.02-1.08-3.14-1.53
				c-0.02,0-0.03-0.02-0.05-0.02c-1.89-0.77-3.94-1.36-6.21-1.71c-1.35-0.23-2.76-0.36-4.24-0.41c-6.7-0.2-12.26-0.43-16.83-0.66
				c-3.42-0.16-6.29-0.33-8.68-0.49c-7.33-0.48-10.06-0.87-10.06-0.87s0.05,0.13,0.13,0.39v0.02c0.67,2.04,3.93,11.26,10.6,20.36
				c0.02,0,0.02,0.02,0.02,0.02c0.02,0,0.02,0.02,0.02,0.02h0.02c3.06,4.17,6.87,8.33,11.47,11.77c6.43,4.77,14.41,8.12,24.19,8.12
				c4.27,0,8.89-0.64,13.87-2.1c0.87-0.23,1.77-0.51,2.68-0.82c0.2-0.07,0.39-0.13,0.59-0.2c0,0-0.16-0.21-0.49-0.59
				c-0.44-0.53-1.2-1.41-2.22-2.53c-2.55-2.83-6.72-7.18-11.67-11.27c-5.23-4.31-11.31-8.35-17.29-10.06
				c3.01,0.81,10.11,2.91,17.29,6.7C446.91,361.93,451.52,365.04,455.14,368.91z M455.14,368.91c0.72,0.79,1.43,1.61,2.05,2.46
				c0.44,0.56,0.85,1.15,1.23,1.76c0,0-0.13-1.58-0.66-4.04v-0.02c-0.3-1.33-0.71-2.91-1.28-4.65c-1.22-3.8-3.19-8.27-6.36-12.24
				c-1.35-1.69-2.89-3.27-4.7-4.68l-0.02-0.02c-0.95-0.76-1.99-1.46-3.09-2.09c-0.99-0.56-2.02-1.08-3.14-1.53
				c-0.02,0-0.03-0.02-0.05-0.02c-1.89-0.77-3.94-1.36-6.21-1.71c-1.35-0.23-2.76-0.36-4.24-0.41c-6.7-0.2-12.26-0.43-16.83-0.66
				c-3.42-0.16-6.29-0.33-8.68-0.49c-7.33-0.48-10.06-0.87-10.06-0.87s0.05,0.13,0.13,0.39v0.02c0.67,2.04,3.93,11.26,10.6,20.36
				c0.02,0,0.02,0.02,0.02,0.02c0.02,0,0.02,0.02,0.02,0.02h0.02c3.06,4.17,6.87,8.33,11.47,11.77c6.43,4.77,14.41,8.12,24.19,8.12
				c4.27,0,8.89-0.64,13.87-2.1c0.87-0.23,1.77-0.51,2.68-0.82c0.2-0.07,0.39-0.13,0.59-0.2c0,0-0.16-0.21-0.49-0.59
				c-0.44-0.53-1.2-1.41-2.22-2.53c-2.55-2.83-6.72-7.18-11.67-11.27c-5.23-4.31-11.31-8.35-17.29-10.06
				c3.01,0.81,10.11,2.91,17.29,6.7C446.91,361.93,451.52,365.04,455.14,368.91z M455.14,368.91c0.72,0.79,1.43,1.61,2.05,2.46
				c0.44,0.56,0.85,1.15,1.23,1.76c0,0-0.13-1.58-0.66-4.04v-0.02c-0.3-1.33-0.71-2.91-1.28-4.65c-1.22-3.8-3.19-8.27-6.36-12.24
				c-1.35-1.69-2.89-3.27-4.7-4.68l-0.02-0.02c-0.95-0.76-1.99-1.46-3.09-2.09c-0.99-0.56-2.02-1.08-3.14-1.53
				c-0.02,0-0.03-0.02-0.05-0.02c-1.89-0.77-3.94-1.36-6.21-1.71c-1.35-0.23-2.76-0.36-4.24-0.41c-6.7-0.2-12.26-0.43-16.83-0.66
				c-3.42-0.16-6.29-0.33-8.68-0.49c-7.33-0.48-10.06-0.87-10.06-0.87s0.05,0.13,0.13,0.39v0.02c0.67,2.04,3.93,11.26,10.6,20.36
				c0.02,0,0.02,0.02,0.02,0.02c0.02,0,0.02,0.02,0.02,0.02h0.02c3.06,4.17,6.87,8.33,11.47,11.77c6.43,4.77,14.41,8.12,24.19,8.12
				c4.27,0,8.89-0.64,13.87-2.1c0.87-0.23,1.77-0.51,2.68-0.82c0.2-0.07,0.39-0.13,0.59-0.2c0,0-0.16-0.21-0.49-0.59
				c-0.44-0.53-1.2-1.41-2.22-2.53c-2.55-2.83-6.72-7.18-11.67-11.27c-5.23-4.31-11.31-8.35-17.29-10.06
				c3.01,0.81,10.11,2.91,17.29,6.7C446.91,361.93,451.52,365.04,455.14,368.91z M455.14,368.91c0.72,0.79,1.43,1.61,2.05,2.46
				c0.44,0.56,0.85,1.15,1.23,1.76c0,0-0.13-1.58-0.66-4.04v-0.02c-0.3-1.33-0.71-2.91-1.28-4.65c-1.22-3.8-3.19-8.27-6.36-12.24
				c-1.35-1.69-2.89-3.27-4.7-4.68l-0.02-0.02c-0.95-0.76-1.99-1.46-3.09-2.09c-0.99-0.56-2.02-1.08-3.14-1.53
				c-0.02,0-0.03-0.02-0.05-0.02c-1.89-0.77-3.94-1.36-6.21-1.71c-1.35-0.23-2.76-0.36-4.24-0.41c-6.7-0.2-12.26-0.43-16.83-0.66
				c-3.42-0.16-6.29-0.33-8.68-0.49c-7.33-0.48-10.06-0.87-10.06-0.87s0.05,0.13,0.13,0.39v0.02c0.67,2.04,3.93,11.26,10.6,20.36
				c0.02,0,0.02,0.02,0.02,0.02c0.02,0,0.02,0.02,0.02,0.02h0.02c3.06,4.17,6.87,8.33,11.47,11.77c6.43,4.77,14.41,8.12,24.19,8.12
				c4.27,0,8.89-0.64,13.87-2.1c0.87-0.23,1.77-0.51,2.68-0.82c0.2-0.07,0.39-0.13,0.59-0.2c0,0-0.16-0.21-0.49-0.59
				c-0.44-0.53-1.2-1.41-2.22-2.53c-2.55-2.83-6.72-7.18-11.67-11.27c-5.23-4.31-11.31-8.35-17.29-10.06
				c3.01,0.81,10.11,2.91,17.29,6.7C446.91,361.93,451.52,365.04,455.14,368.91z M455.14,368.91c0.72,0.79,1.43,1.61,2.05,2.46
				c0.44,0.56,0.85,1.15,1.23,1.76c0,0-0.13-1.58-0.66-4.04v-0.02c-0.3-1.33-0.71-2.91-1.28-4.65c-1.22-3.8-3.19-8.27-6.36-12.24
				c-1.35-1.69-2.89-3.27-4.7-4.68l-0.02-0.02c-0.95-0.76-1.99-1.46-3.09-2.09c-0.99-0.56-2.02-1.08-3.14-1.53
				c-0.02,0-0.03-0.02-0.05-0.02c-1.89-0.77-3.94-1.36-6.21-1.71c-1.35-0.23-2.76-0.36-4.24-0.41c-6.7-0.2-12.26-0.43-16.83-0.66
				c-3.42-0.16-6.29-0.33-8.68-0.49c-7.33-0.48-10.06-0.87-10.06-0.87s0.05,0.13,0.13,0.39v0.02c0.67,2.04,3.93,11.26,10.6,20.36
				c0.02,0,0.02,0.02,0.02,0.02c0.02,0,0.02,0.02,0.02,0.02h0.02c3.06,4.17,6.87,8.33,11.47,11.77c6.43,4.77,14.41,8.12,24.19,8.12
				c4.27,0,8.89-0.64,13.87-2.1c0.87-0.23,1.77-0.51,2.68-0.82c0.2-0.07,0.39-0.13,0.59-0.2c0,0-0.16-0.21-0.49-0.59
				c-0.44-0.53-1.2-1.41-2.22-2.53c-2.55-2.83-6.72-7.18-11.67-11.27c-5.23-4.31-11.31-8.35-17.29-10.06
				c3.01,0.81,10.11,2.91,17.29,6.7C446.91,361.93,451.52,365.04,455.14,368.91z M455.14,368.91c0.72,0.79,1.43,1.61,2.05,2.46
				c0.44,0.56,0.85,1.15,1.23,1.76c0,0-0.13-1.58-0.66-4.04v-0.02c-0.3-1.33-0.71-2.91-1.28-4.65c-1.22-3.8-3.19-8.27-6.36-12.24
				c-1.35-1.69-2.89-3.27-4.7-4.68l-0.02-0.02c-0.95-0.76-1.99-1.46-3.09-2.09c-0.99-0.56-2.02-1.08-3.14-1.53
				c-0.02,0-0.03-0.02-0.05-0.02c-1.89-0.77-3.94-1.36-6.21-1.71c-1.35-0.23-2.76-0.36-4.24-0.41c-6.7-0.2-12.26-0.43-16.83-0.66
				c-3.42-0.16-6.29-0.33-8.68-0.49c-7.33-0.48-10.06-0.87-10.06-0.87s0.05,0.13,0.13,0.39v0.02c0.67,2.04,3.93,11.26,10.6,20.36
				c0.02,0,0.02,0.02,0.02,0.02c0.02,0,0.02,0.02,0.02,0.02h0.02c3.06,4.17,6.87,8.33,11.47,11.77c6.43,4.77,14.41,8.12,24.19,8.12
				c4.27,0,8.89-0.64,13.87-2.1c0.87-0.23,1.77-0.51,2.68-0.82c0.2-0.07,0.39-0.13,0.59-0.2c0,0-0.16-0.21-0.49-0.59
				c-0.44-0.53-1.2-1.41-2.22-2.53c-2.55-2.83-6.72-7.18-11.67-11.27c-5.23-4.31-11.31-8.35-17.29-10.06
				c3.01,0.81,10.11,2.91,17.29,6.7C446.91,361.93,451.52,365.04,455.14,368.91z M455.14,368.91c0.72,0.79,1.43,1.61,2.05,2.46
				c0.44,0.56,0.85,1.15,1.23,1.76c0,0-0.13-1.58-0.66-4.04v-0.02c-0.3-1.33-0.71-2.91-1.28-4.65c-1.22-3.8-3.19-8.27-6.36-12.24
				c-1.35-1.69-2.89-3.27-4.7-4.68l-0.02-0.02c-0.95-0.76-1.99-1.46-3.09-2.09c-0.99-0.56-2.02-1.08-3.14-1.53
				c-0.02,0-0.03-0.02-0.05-0.02c-1.89-0.77-3.94-1.36-6.21-1.71c-1.35-0.23-2.76-0.36-4.24-0.41c-6.7-0.2-12.26-0.43-16.83-0.66
				c-3.42-0.16-6.29-0.33-8.68-0.49c-7.33-0.48-10.06-0.87-10.06-0.87s0.05,0.13,0.13,0.39v0.02c0.67,2.04,3.93,11.26,10.6,20.36
				c0.02,0,0.02,0.02,0.02,0.02c0.02,0,0.02,0.02,0.02,0.02h0.02c3.06,4.17,6.87,8.33,11.47,11.77c6.43,4.77,14.41,8.12,24.19,8.12
				c4.27,0,8.89-0.64,13.87-2.1c0.87-0.23,1.77-0.51,2.68-0.82c0.2-0.07,0.39-0.13,0.59-0.2c0,0-0.16-0.21-0.49-0.59
				c-0.44-0.53-1.2-1.41-2.22-2.53c-2.55-2.83-6.72-7.18-11.67-11.27c-5.23-4.31-11.31-8.35-17.29-10.06
				c3.01,0.81,10.11,2.91,17.29,6.7C446.91,361.93,451.52,365.04,455.14,368.91z M455.14,368.91c0.72,0.79,1.43,1.61,2.05,2.46
				c0.44,0.56,0.85,1.15,1.23,1.76c0,0-0.13-1.58-0.66-4.04v-0.02c-0.3-1.33-0.71-2.91-1.28-4.65c-1.22-3.8-3.19-8.27-6.36-12.24
				c-1.35-1.69-2.89-3.27-4.7-4.68l-0.02-0.02c-0.95-0.76-1.99-1.46-3.09-2.09c-0.99-0.56-2.02-1.08-3.14-1.53
				c-0.02,0-0.03-0.02-0.05-0.02c-1.89-0.77-3.94-1.36-6.21-1.71c-1.35-0.23-2.76-0.36-4.24-0.41c-6.7-0.2-12.26-0.43-16.83-0.66
				c-3.42-0.16-6.29-0.33-8.68-0.49c-7.33-0.48-10.06-0.87-10.06-0.87s0.05,0.13,0.13,0.39v0.02c0.67,2.04,3.93,11.26,10.6,20.36
				c0.02,0,0.02,0.02,0.02,0.02c0.02,0,0.02,0.02,0.02,0.02h0.02c3.06,4.17,6.87,8.33,11.47,11.77c6.43,4.77,14.41,8.12,24.19,8.12
				c4.27,0,8.89-0.64,13.87-2.1c0.87-0.23,1.77-0.51,2.68-0.82c0.2-0.07,0.39-0.13,0.59-0.2c0,0-0.16-0.21-0.49-0.59
				c-0.44-0.53-1.2-1.41-2.22-2.53c-2.55-2.83-6.72-7.18-11.67-11.27c-5.23-4.31-11.31-8.35-17.29-10.06
				c3.01,0.81,10.11,2.91,17.29,6.7C446.91,361.93,451.52,365.04,455.14,368.91z M455.14,368.91c0.72,0.79,1.43,1.61,2.05,2.46
				c0.44,0.56,0.85,1.15,1.23,1.76c0,0-0.13-1.58-0.66-4.04v-0.02c-0.3-1.33-0.71-2.91-1.28-4.65c-1.22-3.8-3.19-8.27-6.36-12.24
				c-1.35-1.69-2.89-3.27-4.7-4.68l-0.02-0.02c-0.95-0.76-1.99-1.46-3.09-2.09c-0.99-0.56-2.02-1.08-3.14-1.53
				c-0.02,0-0.03-0.02-0.05-0.02c-1.89-0.77-3.94-1.36-6.21-1.71c-1.35-0.23-2.76-0.36-4.24-0.41c-6.7-0.2-12.26-0.43-16.83-0.66
				c-3.42-0.16-6.29-0.33-8.68-0.49c-7.33-0.48-10.06-0.87-10.06-0.87s0.05,0.13,0.13,0.39v0.02c0.67,2.04,3.93,11.26,10.6,20.36
				c0.02,0,0.02,0.02,0.02,0.02c0.02,0,0.02,0.02,0.02,0.02h0.02c3.06,4.17,6.87,8.33,11.47,11.77c6.43,4.77,14.41,8.12,24.19,8.12
				c4.27,0,8.89-0.64,13.87-2.1c0.87-0.23,1.77-0.51,2.68-0.82c0.2-0.07,0.39-0.13,0.59-0.2c0,0-0.16-0.21-0.49-0.59
				c-0.44-0.53-1.2-1.41-2.22-2.53c-2.55-2.83-6.72-7.18-11.67-11.27c-5.23-4.31-11.31-8.35-17.29-10.06
				c3.01,0.81,10.11,2.91,17.29,6.7C446.91,361.93,451.52,365.04,455.14,368.91z M457.77,369.09v-0.02
				c-0.3-1.33-0.71-2.91-1.28-4.65c-1.22-3.8-3.19-8.27-6.36-12.24c-1.35-1.69-2.89-3.27-4.7-4.68l-0.02-0.02
				c-0.95-0.76-1.99-1.46-3.09-2.09c-0.99-0.56-2.02-1.08-3.14-1.53c-0.02,0-0.03-0.02-0.05-0.02c-1.89-0.77-3.94-1.36-6.21-1.71
				c-1.35-0.23-2.76-0.36-4.24-0.41c-6.7-0.2-12.26-0.43-16.83-0.66c-3.42-0.16-6.29-0.33-8.68-0.49
				c-7.33-0.48-10.06-0.87-10.06-0.87s0.05,0.13,0.13,0.39v0.02c0.67,2.04,3.93,11.26,10.6,20.36c0.02,0,0.02,0.02,0.02,0.02
				c0.02,0,0.02,0.02,0.02,0.02h0.02c3.06,4.17,6.87,8.33,11.47,11.77c6.43,4.77,14.41,8.12,24.19,8.12c4.27,0,8.89-0.64,13.87-2.1
				c0.15-1.41,0.33-2.79,0.56-4.14c-2.55-2.83-6.72-7.18-11.67-11.27c-5.23-4.31-11.31-8.35-17.29-10.06
				c3.01,0.81,10.11,2.91,17.29,6.7c4.58,2.4,9.2,5.5,12.82,9.38c0.72,0.79,1.43,1.61,2.05,2.46c0.44,0.56,0.85,1.15,1.23,1.76
				C458.42,373.14,458.29,371.56,457.77,369.09z M442.32,362.88c-5.23-4.31-11.31-8.35-17.29-10.06c3.01,0.81,10.11,2.91,17.29,6.7
				v-10.71c-3.47-1.86-6.61-4.08-9.4-6.67c-1.35-0.23-2.76-0.36-4.24-0.41c-6.7-0.2-12.26-0.43-16.83-0.66
				c-3.42-0.16-6.29-0.33-8.68-0.49c-7.33-0.48-10.06-0.87-10.06-0.87s0.05,0.13,0.13,0.39v0.02c0.67,2.04,3.93,11.26,10.6,20.36
				c0.02,0,0.02,0.02,0.02,0.02c0.02,0,0.02,0.02,0.02,0.02h0.02c3.06,4.17,6.87,8.33,11.47,11.77c6.43,4.77,14.41,8.12,24.19,8.12
				c4.27,0,8.89-0.64,13.87-2.1c0.15-1.41,0.33-2.79,0.56-4.14C451.44,371.33,447.27,366.97,442.32,362.88z M403.18,340.58
				c-7.33-0.48-10.06-0.87-10.06-0.87s0.05,0.13,0.13,0.39v0.02c0.67,2.04,3.93,11.26,10.6,20.36c0.02,0,0.02,0.02,0.02,0.02
				c0.02,0,0.02,0.02,0.02,0.02h0.02l7.95-19.44C408.44,340.91,405.56,340.75,403.18,340.58z"/>
			<path class="st0" d="M453.12,347.78c-2.3-0.72-4.44-1.54-6.41-2.5h-0.02c-1.33-1.04-2.78-1.97-4.37-2.78
				c-0.62-0.33-1.28-0.64-1.96-0.92c-1.84-1.3-3.5-2.71-5-4.21c2.45,0.51,4.77,1.27,6.95,2.25
				C446.43,341.51,450.06,344.23,453.12,347.78z"/>
			<path class="st0" d="M415.31,194.41c0,0-0.15-0.87-2.3-2.58c-2.14-1.73-11.6,0.13-14.31-1.15c-1.92-0.9-4.9,0.03-6.49,0.66
				c-0.3,0.13-0.56-0.23-0.35-0.48c1.71-1.99,6.33-6.46,13.85-7.35C415.45,182.36,415.31,194.41,415.31,194.41z"/>
			<path class="st0" d="M386.14,179.67c22.77-13.69,32.09-2.76,33.54-0.76c0.08,0.1-0.02,0.23-0.13,0.18
				c-13.52-4.63-29.25-0.43-33.32,0.81C386.09,179.95,386.01,179.73,386.14,179.67z"/>
			<path class="st0" d="M425.49,242.55c2.65,0.1,4.83-0.33,6.29-0.74c-0.66,3.07-3.38,5.36-6.42,5.24c-3.22-0.12-6.24-5.5-6.42-5.85
				C420.42,241.76,422.68,242.44,425.49,242.55z"/>
			<path class="st0" d="M442.95,228.88c0,0-16.73,13.56-29.63,0.66c-2.83-2.84-5.47-6.95-7.71-12.75
				c0.46,1.02,3.53,7.03,12.55,10.48C423.82,229.44,431.8,230.59,442.95,228.88z"/>
			<path class="st0" d="M453.51,178.14v0.02c0.1,1.71-0.05,3.47-0.33,5.21c0,0.03-0.02,0.05-0.02,0.07c0,0-10.66-3.09-13.65,3.19
				c-0.33,0.71-0.56,1.48-0.69,2.3c0,0,8.2-1.61,12.44,2.35v0.02c-0.48,1.68-0.89,3.22-1.12,4.58c-0.18-0.26-0.56-0.59-1.05-0.99
				c-0.56-0.46-1.18-0.82-1.41-0.48c-0.48,0.67-2.83,3.7-7.84,0c-0.2-0.08-0.58-0.25-0.97-0.56c0.77,5.6,3.42,12.06,3.63,16.92
				c0.08,1.77-0.85,3.34-2.27,4.63c-0.02,0.02-0.03,0.02-0.03,0.02c-1.5,1.38-3.53,2.46-5.54,3.2c0,0.02,0,0.02-0.02,0.02
				c-3.83,1.41-7.51,1.59-6.89,0.11c1.25-2.97,9.4-5.49,9.56-8.46c0.15-2.97-5.18-17.25-2.51-26.19S453.51,178.14,453.51,178.14z"/>
			<path class="st0" d="M403.18,340.58l-2.37,5.32l-7.56-5.78v-0.02c-0.08-0.26-0.13-0.39-0.13-0.39S395.85,340.11,403.18,340.58z"
				/>
			<path class="st0" d="M442.32,342.51v0.38c-0.67-0.41-1.33-0.84-1.96-1.3C441.04,341.87,441.7,342.18,442.32,342.51z"/>
			<path class="st0" d="M442.32,345.4v14.13c-7.18-3.8-14.28-5.9-17.29-6.7c5.98,1.71,12.06,5.75,17.29,10.06v8.64l-26.95,0.76
				c-4.6-3.43-8.41-7.59-11.47-11.77l7.95-19.44c4.57,0.23,10.12,0.46,16.83,0.66c1.48,0.05,2.89,0.18,4.24,0.41
				c2.27,0.35,4.32,0.94,6.21,1.71c0.02,0,0.03,0.02,0.05,0.02C440.3,344.32,441.33,344.84,442.32,345.4z"/>
			<g>
				<g>
					<path class="st0" d="M515.49,286.44c-0.08,0.36-0.16,0.72-0.26,1.08 M515.62,285.88c-0.02,0.05-0.02,0.08-0.03,0.13
						c0,0,0,0,0,0.02c-0.03,0.13-0.07,0.28-0.1,0.41c-0.08,0.36-0.16,0.72-0.26,1.08c-0.05,0.16-0.1,0.33-0.15,0.51 M478.37,340.31
						c0.08,0.02,0.18,0.02,0.26,0.02c0.31,0,0.61-0.03,0.9-0.08c0.58-0.82,1.2-1.63,1.82-2.45
						C481.22,337.89,480.08,338.74,478.37,340.31z M483.86,342.79c0.03,0.02,0.08,0.03,0.11,0.03c0.05-0.05,0.08-0.11,0.13-0.18
						C484.02,342.69,483.94,342.74,483.86,342.79z"/>
					<path class="st0" d="M534.64,240.68c0,0-1.79,12.59-3.09,52.91c-1.05,33.03-31.76,41.61-42.82,43.61
						c-0.89,0.16-1.64,0.28-2.25,0.36c-1.07,0.16-1.68,0.21-1.68,0.21c0.54-0.35,1.07-0.69,1.58-1.07c0.41-0.26,0.81-0.56,1.18-0.87
						c17.2-13,25.4-39.83,27.51-47.72c-4.95,17.32-23.1,35.26-31.76,43.05c-0.62,0.56-1.18,1.05-1.69,1.5
						c-1.86,1.63-2.97,2.53-2.97,2.53c-0.16-0.48-0.33-0.95-0.48-1.41c-1.17-3.5-2.05-6.89-2.73-10.17
						C463.14,262.25,534.64,240.68,534.64,240.68z"/>
				</g>
				<g>
					<path class="st0" d="M445.41,347.49c-1.07-0.49-2.09-1.04-3.09-1.61c-1.08-0.61-2.14-1.28-3.14-2
						c1.12,0.44,2.15,0.97,3.14,1.53C443.42,346.02,444.46,346.73,445.41,347.49z"/>
					<path class="st0" d="M446.69,345.28c-1.56-0.72-3.01-1.53-4.37-2.4c-0.67-0.41-1.33-0.84-1.96-1.3
						c0.67,0.28,1.33,0.59,1.96,0.92C443.91,343.31,445.36,344.25,446.69,345.28z"/>
					<path class="st0" d="M463.96,349.2c0.02,0.02,0.02,0.03,0.02,0.03c0,0.03,0.02,0.05,0.02,0.08c0.02-0.02,0.03-0.05,0.05-0.08
						C464.01,349.21,463.99,349.21,463.96,349.2z M442.32,342.51c-0.62-0.33-1.28-0.64-1.96-0.92c0.62,0.46,1.28,0.89,1.96,1.3
						c1.36,0.87,2.81,1.68,4.37,2.4C445.36,344.25,443.91,343.31,442.32,342.51z M445.43,347.5l-0.02-0.02
						c-0.95-0.76-1.99-1.46-3.09-2.09c-0.99-0.56-2.02-1.08-3.14-1.53c-0.02,0-0.03-0.02-0.05-0.02c-1.89-0.77-3.94-1.36-6.21-1.71
						c2.79,2.6,5.93,4.81,9.4,6.67c2.45,1.31,5.04,2.43,7.81,3.37C448.78,350.49,447.23,348.92,445.43,347.5z M442.32,342.51
						c-0.62-0.33-1.28-0.64-1.96-0.92c0.62,0.46,1.28,0.89,1.96,1.3c1.36,0.87,2.81,1.68,4.37,2.4
						C445.36,344.25,443.91,343.31,442.32,342.51z M443.82,311.81l0.02,0.02h0.02c0.36,0.33,0.74,0.67,1.08,1 M446.71,345.28v-0.02
						 M446.71,345.28v-0.02 M440.37,341.59c0.62,0.46,1.28,0.89,1.96,1.3c1.36,0.87,2.81,1.68,4.37,2.4 M446.71,345.28v-0.02"/>
					<path class="st0" d="M444.97,312.86c11.65,11.27,16.5,36.84,16.5,36.84c-3.01-0.48-5.78-1.12-8.35-1.92
						c-3.06-3.55-6.69-6.28-10.8-8.15c-2.19-0.99-4.5-1.74-6.95-2.25c-6.24-6.19-9.73-13.87-11.6-21.36
						c-0.94-3.71-1.46-7.39-1.73-10.83c-0.85-10.76,0.84-19.19,0.84-19.19s6.93,5.09,30.63,18.77c5.08,2.92,8.51,6.54,10.76,10.4
						c8.25,14.15,0.69,31.68,0.69,31.68C463.86,331.58,449.22,316.84,444.97,312.86z"/>
				</g>
				<g>
					<path class="st0" d="M446.69,345.28c-1.56-0.72-3.01-1.53-4.37-2.4c-0.67-0.41-1.33-0.84-1.96-1.3
						c0.67,0.28,1.33,0.59,1.96,0.92C443.91,343.31,445.36,344.25,446.69,345.28z"/>
					<path class="st0" d="M442.32,359.53c-7.18-3.8-14.28-5.9-17.29-6.7c5.98,1.71,12.06,5.75,17.29,10.06
						c4.95,4.09,9.12,8.45,11.67,11.27c1.02,1.12,1.77,2,2.22,2.53c0.33,0.38,0.49,0.59,0.49,0.59c-0.2,0.07-0.39,0.13-0.59,0.2
						c-0.9,0.31-1.81,0.59-2.68,0.82c-4.98,1.46-9.6,2.1-13.87,2.1c-9.78,0-17.76-3.35-24.19-8.12c-4.6-3.43-8.41-7.59-11.47-11.77
						h-0.02c0,0,0-0.02-0.02-0.02c0,0,0-0.02-0.02-0.02c-6.67-9.1-9.92-18.32-10.6-20.36v-0.02c-0.08-0.26-0.13-0.39-0.13-0.39
						s2.73,0.39,10.06,0.87c2.38,0.16,5.26,0.33,8.68,0.49c4.57,0.23,10.12,0.46,16.83,0.66c1.48,0.05,2.89,0.18,4.24,0.41
						c2.27,0.35,4.32,0.94,6.21,1.71c0.02,0,0.03,0.02,0.05,0.02c1.12,0.44,2.15,0.97,3.14,1.53c1.1,0.62,2.14,1.33,3.09,2.09
						l0.02,0.02c1.81,1.41,3.35,2.99,4.7,4.68c3.17,3.98,5.14,8.45,6.36,12.24c0.58,1.74,0.99,3.32,1.28,4.65v0.02
						c0.53,2.46,0.66,4.04,0.66,4.04c-0.38-0.61-0.79-1.2-1.23-1.76c-0.62-0.85-1.33-1.68-2.05-2.46
						C451.52,365.04,446.91,361.93,442.32,359.53z"/>
					<path class="st0" d="M458.9,375.63v0.02c-0.07,0-0.13,0.02-0.2,0.02C458.77,375.67,458.83,375.65,458.9,375.63z"/>
					<path class="st0" d="M459.16,377.98c-0.13,0.44-0.38,0.84-0.71,1.13c0.1-1.1,0.25-2.15,0.41-3.2
						C459.25,376.54,459.36,377.28,459.16,377.98z"/>
					<path class="st0" d="M460.97,372.91c0.1,1.18-0.61,2.27-1.73,2.65c-0.11,0.05-0.23,0.07-0.35,0.08
						c0.36-2.27,0.85-4.45,1.45-6.52C460.82,371.38,460.97,372.84,460.97,372.91z"/>
					<path class="st0" d="M461.87,364.51c-0.56,1.48-1.07,3.01-1.53,4.6c-0.59,2.07-1.08,4.26-1.45,6.52
						c-0.07,0.02-0.13,0.03-0.2,0.03c0.07,0.07,0.11,0.15,0.16,0.23v0.02c-0.16,1.05-0.31,2.1-0.41,3.2v0.02
						c-0.1,0.99-0.16,1.99-0.21,3.02c0.05-0.02,0.1-0.03,0.15-0.05c1.56-0.54,2.78-1.82,3.24-3.43c0.16-0.56,0.21-1.13,0.18-1.71
						c1.18-1.05,1.86-2.61,1.71-4.27C463.5,372.46,463.19,369.09,461.87,364.51z M455.14,368.91c0.72,0.79,1.43,1.61,2.05,2.46
						c0.44,0.56,0.85,1.15,1.23,1.76c0,0-0.13-1.58-0.66-4.04v-0.02c-0.3-1.33-0.71-2.91-1.28-4.65c-1.22-3.8-3.19-8.27-6.36-12.24
						c-1.35-1.69-2.89-3.27-4.7-4.68l-0.02-0.02c-0.95-0.76-1.99-1.46-3.09-2.09c-0.99-0.56-2.02-1.08-3.14-1.53
						c-0.02,0-0.03-0.02-0.05-0.02c-1.89-0.77-3.94-1.36-6.21-1.71c-1.35-0.23-2.76-0.36-4.24-0.41c-6.7-0.2-12.26-0.43-16.83-0.66
						c-3.42-0.16-6.29-0.33-8.68-0.49c-7.33-0.48-10.06-0.87-10.06-0.87s0.05,0.13,0.13,0.39v0.02c0.67,2.04,3.93,11.26,10.6,20.36
						c0.02,0,0.02,0.02,0.02,0.02c0.02,0,0.02,0.02,0.02,0.02h0.02c3.06,4.17,6.87,8.33,11.47,11.77
						c6.43,4.77,14.41,8.12,24.19,8.12c4.27,0,8.89-0.64,13.87-2.1c0.87-0.23,1.77-0.51,2.68-0.82c0.2-0.07,0.39-0.13,0.59-0.2
						c0,0-0.16-0.21-0.49-0.59c-0.44-0.53-1.2-1.41-2.22-2.53c-2.55-2.83-6.72-7.18-11.67-11.27c-5.23-4.31-11.31-8.35-17.29-10.06
						c3.01,0.81,10.11,2.91,17.29,6.7C446.91,361.93,451.52,365.04,455.14,368.91z M442.32,342.51c-0.62-0.33-1.28-0.64-1.96-0.92
						c0.62,0.46,1.28,0.89,1.96,1.3c1.36,0.87,2.81,1.68,4.37,2.4C445.36,344.25,443.91,343.31,442.32,342.51z M455.14,368.91
						c0.72,0.79,1.43,1.61,2.05,2.46c0.44,0.56,0.85,1.15,1.23,1.76c0,0-0.13-1.58-0.66-4.04v-0.02c-0.3-1.33-0.71-2.91-1.28-4.65
						c-1.22-3.8-3.19-8.27-6.36-12.24c-1.35-1.69-2.89-3.27-4.7-4.68l-0.02-0.02c-0.95-0.76-1.99-1.46-3.09-2.09
						c-0.99-0.56-2.02-1.08-3.14-1.53c-0.02,0-0.03-0.02-0.05-0.02c-1.89-0.77-3.94-1.36-6.21-1.71c-1.35-0.23-2.76-0.36-4.24-0.41
						c-6.7-0.2-12.26-0.43-16.83-0.66c-3.42-0.16-6.29-0.33-8.68-0.49c-7.33-0.48-10.06-0.87-10.06-0.87s0.05,0.13,0.13,0.39v0.02
						c0.67,2.04,3.93,11.26,10.6,20.36c0.02,0,0.02,0.02,0.02,0.02c0.02,0,0.02,0.02,0.02,0.02h0.02
						c3.06,4.17,6.87,8.33,11.47,11.77c6.43,4.77,14.41,8.12,24.19,8.12c4.27,0,8.89-0.64,13.87-2.1c0.87-0.23,1.77-0.51,2.68-0.82
						c0.2-0.07,0.39-0.13,0.59-0.2c0,0-0.16-0.21-0.49-0.59c-0.44-0.53-1.2-1.41-2.22-2.53c-2.55-2.83-6.72-7.18-11.67-11.27
						c-5.23-4.31-11.31-8.35-17.29-10.06c3.01,0.81,10.11,2.91,17.29,6.7C446.91,361.93,451.52,365.04,455.14,368.91z
						 M423.52,352.45c0.07,0.02,0.15,0.03,0.21,0.05c0.2,0.05,0.49,0.13,0.9,0.23c0.12,0.02,0.21,0.05,0.33,0.08 M442.32,345.4
						c1.1,0.62,2.14,1.33,3.09,2.09l0.02,0.02c1.81,1.41,3.35,2.99,4.7,4.68c3.17,3.98,5.14,8.45,6.36,12.24
						c0.58,1.74,0.99,3.32,1.28,4.65v0.02c0.53,2.46,0.66,4.04,0.66,4.04c-0.38-0.61-0.79-1.2-1.23-1.76
						c-0.62-0.85-1.33-1.68-2.05-2.46c-3.62-3.88-8.23-6.98-12.82-9.38c-7.18-3.8-14.28-5.9-17.29-6.7
						c5.98,1.71,12.06,5.75,17.29,10.06c4.95,4.09,9.12,8.45,11.67,11.27c1.02,1.12,1.77,2,2.22,2.53c0.33,0.38,0.49,0.59,0.49,0.59
						c-0.2,0.07-0.39,0.13-0.59,0.2c-0.9,0.31-1.81,0.59-2.68,0.82c-4.98,1.46-9.6,2.1-13.87,2.1c-9.78,0-17.76-3.35-24.19-8.12
						c-4.6-3.43-8.41-7.59-11.47-11.77h-0.02c0,0,0-0.02-0.02-0.02c0,0,0-0.02-0.02-0.02c-6.67-9.1-9.92-18.32-10.6-20.36v-0.02
						c-0.08-0.26-0.13-0.39-0.13-0.39s2.73,0.39,10.06,0.87c2.38,0.16,5.26,0.33,8.68,0.49c4.57,0.23,10.12,0.46,16.83,0.66
						c1.48,0.05,2.89,0.18,4.24,0.41c2.27,0.35,4.32,0.94,6.21,1.71c0.02,0,0.03,0.02,0.05,0.02
						C440.3,344.32,441.33,344.84,442.32,345.4"/>
				</g>
				<g>
					<path class="st0" d="M484.11,342.64c-0.05,0.07-0.08,0.13-0.13,0.18c-0.03,0-0.08-0.02-0.11-0.03
						C483.94,342.74,484.02,342.69,484.11,342.64z"/>
					<path class="st0" d="M502.68,351.64c-0.76,0.26-1.5,0.56-2.23,0.9c-0.02-0.03-0.03-0.07-0.07-0.1
						C501.29,352.12,502.07,351.84,502.68,351.64z"/>
					<path class="st0" d="M483.86,342.79c0.03,0.02,0.08,0.03,0.11,0.03c0.05-0.05,0.08-0.11,0.13-0.18
						C484.02,342.69,483.94,342.74,483.86,342.79z M500.37,352.45c0.03,0.03,0.05,0.07,0.07,0.1c0.74-0.35,1.48-0.64,2.23-0.9
						C502.07,351.84,501.29,352.12,500.37,352.45z M469.42,356.26c-3.98,8.89-4.24,17.38-4.24,17.75c-0.03,1.17,0.33,2.27,0.99,3.15
						c0.61-8.81,2.94-19.41,9.09-30.23C472.95,349.59,471.01,352.71,469.42,356.26z M502.72,351.63c0.15-0.05,0.28-0.1,0.41-0.13
						c0.13-0.05,0.26-0.08,0.39-0.12c0.05-0.03,0.1-0.05,0.15-0.05c0.1-0.03,0.18-0.07,0.28-0.08c0.03-0.02,0.07-0.03,0.1-0.03
						c0.07-0.02,0.1-0.03,0.1-0.03"/>
					<path class="st0" d="M533.99,336.49c0,0-5.32,22.33-21.62,35.13c-6.56,5.14-14.87,8.74-25.34,8.74
						c-4.52,0-9.42-0.66-14.76-2.17c0,0,13.65-19.16,28.16-25.65c0.74-0.35,1.48-0.64,2.23-0.9c-0.61,0.2-1.38,0.48-2.3,0.81
						c-6.85,2.51-21.23,8.76-28.51,19.18c-0.58,0.82-1.1,1.66-1.58,2.51c0,0,0.36-14.26,9.12-24.19c3.14-3.58,7.38-6.59,13.08-8.18
						c1.79-0.49,3.73-0.85,5.82-1.05C525.55,338.22,533.99,336.49,533.99,336.49z"/>
				</g>
				<g>
					<path class="st0" d="M456.7,377.28c-0.2,0.07-0.39,0.13-0.59,0.2c0.03-0.26,0.07-0.53,0.1-0.79
						C456.53,377.06,456.7,377.28,456.7,377.28z"/>
					<path class="st0" d="M458.42,373.14c-0.38-0.61-0.79-1.2-1.23-1.76c0.18-0.77,0.36-1.53,0.58-2.28
						C458.29,371.56,458.42,373.14,458.42,373.14z"/>
					<path class="st0" d="M464.16,354.06c-0.13,0.21-0.25,0.43-0.38,0.64c0.11-0.21,0.25-0.43,0.36-0.64H464.16z"/>
				</g>
			</g>
			<g>
				<path class="st0" d="M443.11,456.96c53.39,4.96,92.64-8.68,92.64-8.68l2.42-18.62c-24.6,3.01-49.58,4.52-74.29,4.52h-1.38
					c-24.25-0.05-48.77-1.56-72.91-4.52l3.2,24.78c4.47-2.69,8.84-5.21,12.01-7.79c7.76-6.29,11.09-9.35,11.09-9.35
					s1.66,0.81,2.3,5.16c0.66,4.35-7.9,13.08-14.2,19.69c-6.29,6.62-4.83,7.9-4.83,7.9c12.26,19.54,51.63,16.96,47.27,22.12
					c-4.35,5.16-33.08,1.61-33.08,1.61c9.51,8.07,35.82,8.07,28.25,10.98c-7.59,2.91-30.83-0.16-30.83-0.16
					c5.64,4.04,19.69,5.82,23.71,5.16c4.04-0.64,6.79,0.97,4.72,2.43c-12.42,5.59-26.23,5.59-38.47,3.55l0.64,4.96
					c0.64,4.96,4.7,8.89,9.88,9.58c5.57,0.74,11.17,1.18,16.74,1.94c12,1.66,24.09,2.5,36.17,2.5c8.48,0,16.94-0.41,25.35-1.22
					c2.19-0.21,4.37-0.46,6.54-0.72c6.77-0.82,13.52-1.64,20.28-2.46c5.24-0.64,9.37-4.58,10.01-9.58l4.63-35.66
					c-1.15,0.3-2.3,0.59-3.42,0.85c-33.27,7.89-59.22,2.23-72.56-2.28c-1.64-0.54-1.12-2.97,0.61-2.81
					c41.49,3.85,72.74-5.77,76.84-7.08v-0.02l1.54-11.83c-42.11,11.16-75.01,4.04-91.61-1.56
					C440.41,459.67,441.04,456.76,443.11,456.96z"/>
			</g>
			<g>
				<path class="st0" d="M546.66,399.62v16.96c0,2.17-0.89,4.14-2.35,5.55c-0.79,0.77-1.74,1.38-2.81,1.76
					c-0.53,0.2-1.08,0.35-1.66,0.41c-0.33,0.05-0.66,0.08-0.99,0.12c-0.54,0.08-1.08,0.15-1.63,0.2
					c-22.2,2.71-46.77,4.45-73.35,4.45h-1.36c-26.7-0.07-51.35-1.89-73.61-4.63c-0.35-0.05-0.67-0.08-1-0.13
					c-0.58-0.07-1.13-0.21-1.64-0.39c-1.07-0.38-2.02-0.99-2.81-1.76c-1.46-1.41-2.35-3.4-2.35-5.57v-16.96
					c0-4.32,3.5-7.79,7.77-7.79c0.15,0,0.31,0,0.48,0.02c20.61,1.28,42.1,2.09,64.45,2.27c0.87,0.02,1.73,0.02,2.6,0.02
					c0.85,0.02,1.73,0.02,2.6,0.02c1.46,0.02,2.92,0.02,4.4,0.02h0.49c1.05,0,2.09,0,3.14-0.02c0.87,0.02,1.73,0,2.6,0
					c0.85,0,1.73,0,2.58-0.02c17.58-0.12,34.65-0.62,51.17-1.45c5.06-0.25,10.07-0.53,15.04-0.84c0.16-0.02,0.33-0.02,0.49-0.02
					C543.16,391.84,546.66,395.3,546.66,399.62z"/>
			</g>
			<path class="st0" d="M388.15,80.12c-3.74-2.1-8.19-2.54-12.27-1.2c-14.45,4.75-49.46,17.83-69.45,38.59
				c-2.17,2.26-3.68,5.08-4.45,8.12c-1.72,6.76-4.69,20.36-5.64,36.31c50.08-58.89,97.97-61.04,97.97-61.04
				c-52.1,12.01-84.72,55.99-95.79,73.3c10.97-11.81,59.12-59.19,133.61-69.39L388.15,80.12z"/>
			<path class="st0" d="M415.31,194.41c0,0-0.15-0.87-2.3-2.58c-2.14-1.73-11.6,0.13-14.31-1.15c-1.92-0.9-4.9,0.03-6.49,0.66
				c-0.3,0.13-0.56-0.23-0.35-0.48c1.71-1.99,6.33-6.46,13.85-7.35C415.45,182.36,415.31,194.41,415.31,194.41z"/>
			<path class="st0" d="M419.55,179.09c-13.52-4.63-29.25-0.43-33.32,0.81c-0.13,0.05-0.21-0.16-0.08-0.23
				c22.77-13.69,32.09-2.76,33.54-0.76C419.76,179.01,419.66,179.14,419.55,179.09z"/>
			<path class="st0" d="M453.63,180.88c-0.08,0.99-0.25,1.82-0.44,2.48c0,0.03-0.02,0.05-0.02,0.07c0,0-10.66-3.09-13.65,3.19
				c-0.33,0.71-0.56,1.48-0.69,2.3c-0.26,1.51-0.2,3.17,0.05,4.91v0.02c0.77,5.6,3.42,12.06,3.63,16.92
				c0.08,1.77-0.85,3.34-2.27,4.63c-0.02,0.02-0.03,0.02-0.03,0.02c-1.5,1.38-3.53,2.46-5.54,3.2c0,0.02,0,0.02-0.02,0.02
				c-3.83,1.41-7.51,1.59-6.89,0.11c1.25-2.97,9.4-5.49,9.56-8.46c0.15-2.97-5.18-17.25-2.51-26.19s18.7-5.96,18.7-5.96v0.02
				C453.61,178.88,453.69,179.8,453.63,180.88z"/>
			<path class="st0" d="M451.26,191.27v0.02c0.02,0.56,0,1.23-0.16,2c-0.21,1.12-0.61,1.99-0.95,2.58
				c-0.18-0.26-0.56-0.59-1.05-0.99c-0.56-0.46-1.18-0.82-1.41-0.48c-0.48,0.67-2.83,3.7-7.84,0c-0.2-0.08-0.58-0.25-0.97-0.56
				v-0.02c-0.28-0.21-0.56-0.53-0.77-0.94c-0.62-1.22-0.35-2.81,0.72-3.98C438.82,188.92,447.02,187.31,451.26,191.27z"/>
			<path class="st0" d="M442.95,228.88c0,0-16.73,13.56-29.63,0.66c-2.83-2.84-5.47-6.95-7.71-12.75
				c0.46,1.02,3.53,7.03,12.55,10.48C423.82,229.44,431.8,230.59,442.95,228.88z"/>
			<path class="st0" d="M431.79,241.81c-0.66,3.07-3.38,5.36-6.42,5.24c-3.22-0.12-6.24-5.5-6.42-5.85
				c1.48,0.56,3.75,1.23,6.56,1.35C428.14,242.65,430.33,242.22,431.79,241.81z"/>
			<path class="st0" d="M439.94,192.36L439.94,192.36z"/>
		</g>
		<path class="st0" d="M287.53,169.41c0,0-23.58-18.1-49.35-6.03C238.18,163.38,271.08,195.19,287.53,169.41z"/>
		<path class="st0" d="M286.16,161.78c0,0-0.24-15.34-13.39-21.89C272.77,139.88,270.46,163.39,286.16,161.78z"/>
	</g>
	<g>
		<path class="st0" d="M766.86,245.42h55.26l87.93,112.96V245.42h58.62v213.71h-51.9l-91.28-117.23v117.23h-58.62V245.42z"/>
		<path class="st0" d="M1008.65,402.04V293.96h58.01v89.45c0,18.01,9.46,27.78,23.51,27.78c13.74,0,24.12-9.77,24.12-27.78v-89.45
			h58.01v165.17h-58.01v-22.59c-10.69,13.74-25.95,26.26-49.46,26.26C1029.72,462.79,1008.65,439.59,1008.65,402.04z"/>
		<path class="st0" d="M1210.15,293.96h58.01v33.28c9.46-22.59,24.73-37.25,52.21-36.03v61.06h-4.88
			c-30.22,0-47.32,17.4-47.32,55.56v51.29h-58.01V293.96z"/>
		<path class="st0" d="M1335.02,438.37l21.68-35.11c18.93,12.52,39.69,18.93,56.79,18.93c10.08,0,14.65-3.05,14.65-8.85v-0.61
			c0-6.41-9.16-9.16-26.56-14.04c-32.67-8.55-58.62-19.54-58.62-52.82v-0.61c0-35.11,28.09-54.65,66.25-54.65
			c24.12,0,49.15,7.02,68.08,19.23l-19.84,36.64c-17.1-9.46-35.72-15.27-48.85-15.27c-8.85,0-13.43,3.36-13.43,7.94v0.61
			c0,6.41,9.46,9.46,26.87,14.65c32.67,9.16,58.62,20.46,58.62,52.51v0.61c0,36.33-27.17,55.26-67.47,55.26
			C1385.39,462.79,1357.92,454.85,1335.02,438.37z"/>
		<path class="st0" d="M1504.46,377.31v-0.61c0-48.24,34.5-86.4,83.35-86.4c57.09,0,83.35,41.83,83.35,90.37
			c0,3.66,0,7.94-0.3,11.91h-110.52c4.58,18.01,17.71,27.17,35.72,27.17c13.74,0,24.73-5.19,36.64-16.79l32.06,26.56
			c-15.88,20.15-38.77,33.58-71.75,33.58C1541.1,463.1,1504.46,428.6,1504.46,377.31z M1616.81,362.96
			c-2.14-18.32-12.82-29.92-28.7-29.92c-15.26,0-25.64,11.91-28.7,29.92H1616.81z"/>
		<path class="st0" d="M1702.6,293.96h58.01v33.28c9.46-22.59,24.73-37.25,52.21-36.03v61.06h-4.88c-30.22,0-47.32,17.4-47.32,55.56
			v51.29h-58.01V293.96z"/>
		<path class="st0" d="M1835.71,494.54l18.01-40.6c9.16,5.5,18.93,8.85,25.34,8.85c5.8,0,9.77-1.53,13.43-6.72l-64.72-162.11h60.75
			l32.97,99.53l31.14-99.53h59.53l-60.45,161.2c-14.35,38.47-29.92,53.73-62.89,53.73C1868.38,508.89,1850.97,503.09,1835.71,494.54
			z"/>
		<path class="st0" d="M2037.82,293.96h58.01v22.59c10.68-13.74,25.95-26.26,49.15-26.26c21.98,0,38.77,9.77,47.63,26.87
			c14.35-16.49,31.14-26.87,55.26-26.87c35.11,0,56.48,21.98,56.48,60.45v108.38h-58.01v-89.76c0-18.01-8.85-27.48-22.59-27.48
			c-13.74,0-23.81,9.46-23.81,27.48v89.76h-58.01v-89.76c0-18.01-8.85-27.48-22.59-27.48s-23.51,9.46-23.51,27.48v89.76h-58.01
			V293.96z"/>
		<path class="st0" d="M2332.74,411.81v-0.61c0-34.19,25.95-51.9,64.72-51.9c15.26,0,30.22,3.05,39.69,6.41v-2.75
			c0-17.1-10.69-26.87-32.97-26.87c-17.4,0-30.83,3.36-45.49,9.16l-11.91-40.91c18.62-7.63,38.47-12.82,66.86-12.82
			c29.61,0,49.76,7.02,62.89,20.15c12.52,12.21,17.71,29.31,17.71,52.51v94.95h-57.4v-17.1c-11.3,12.52-26.87,20.76-48.54,20.76
			C2356.86,462.79,2332.74,444.78,2332.74,411.81z M2437.76,399.29v-7.63c-5.8-2.44-14.04-4.27-22.59-4.27
			c-16.79,0-26.56,8.24-26.56,20.46v0.61c0,11.3,8.55,18.01,20.46,18.01C2425.85,426.46,2437.76,415.77,2437.76,399.29z"/>
		<path class="st0" d="M2530.57,293.96h58.01v23.2c10.68-13.74,25.95-26.87,49.46-26.87c35.11,0,56.17,23.2,56.17,60.75v108.08
			h-58.01v-89.45c0-18.01-9.46-27.78-23.2-27.78c-14.04,0-24.42,9.77-24.42,27.78v89.45h-58.01V293.96z"/>
	</g>
	<line class="st1" x1="649.33" y1="187.76" x2="649.33" y2="521"/>
</g>
</svg>
